<svg xmlns="http://www.w3.org/2000/svg" width="899" height="600" viewBox="0 0 899 600" fill="none">
    <path d="M-27.3426 669.302L812.301 811.955L812.3 811.96C854.877 770.558 905.86 676.471 849.09 627.912C828.492 610.293 801.934 606.152 775.704 604.672C781.9 596.239 788.35 587.995 793.256 578.697C813.441 540.465 817.566 491.255 798.068 451.999C787.319 430.364 768.93 410.077 744.721 403.964C787.175 384.916 826.484 358.223 855.453 321.327C878.959 291.387 901.551 246.848 898.406 207.927C894.26 156.576 845.72 134.738 799.261 135.786C834.812 94.7847 852.064 35.9177 822.716 -16.7019C756.847 -134.802 263.316 -109.542 -27.3427 -30.3372L-27.3426 669.302Z" fill="#3F593F"/>
</svg>