<svg xmlns="http://www.w3.org/2000/svg" width="819" height="624" viewBox="0 0 819 624" fill="none">
    <path d="M-107.345 767.641L732.299 910.294L732.298 910.299C774.875 868.896 825.858 774.81 769.088 726.251C748.49 708.632 721.932 704.49 695.702 703.011C701.898 694.578 708.348 686.334 713.254 677.036C733.44 638.804 737.564 589.594 718.066 550.338C707.317 528.703 688.928 508.415 664.719 502.303C707.173 483.255 746.482 456.562 775.451 419.665C798.957 389.726 821.549 345.187 818.404 306.266C814.258 254.915 765.718 233.077 719.259 234.125C754.81 193.124 772.062 134.257 742.714 81.637C676.845 -36.4636 183.314 -11.203 -107.345 68.0017L-107.345 767.641Z" fill="#3F593F"/>
</svg>