<svg xmlns="http://www.w3.org/2000/svg" viewBox="0 0 375 473" fill="none" preserveAspectRatio="none">
    <path d="M-2.90427 480.489L-12.3067 20.8303H-12.3095C11.5936 3.36231 62.0908 -13.8382 81.216 18.117C88.1551 29.7118 87.9729 43.1099 86.51 56.1247C91.172 53.7837 95.7621 51.3021 100.741 49.6669C121.216 42.9389 145.746 45.0208 163.411 57.8812C173.146 64.9704 181.581 75.7021 182.564 88.1103C195.471 68.8362 211.871 51.746 232.424 40.5896C249.101 31.5372 272.877 24.1529 291.742 28.948C316.634 35.2734 323.313 60.9529 318.919 83.6985C342.038 69.6496 372.41 66.0863 395.82 84.9035C448.362 127.137 451.156 348.613 387.96 484.849L-2.90427 480.489Z" fill="#3F593F"/>
</svg>