<svg width="56" height="30" viewBox="0 0 56 30" fill="none" xmlns="http://www.w3.org/2000/svg">
<rect x="0.5" y="0.5" width="55" height="29" rx="3.5" fill="white"/>
<rect x="0.5" y="0.5" width="55" height="29" rx="3.5" stroke="#DFDFDF"/>
<g clip-path="url(#clip0_6517_4483)">
<path d="M26.9004 14.85V19.5H25.4004V8H29.3004C30.2504 8 31.1504 8.35 31.8504 9C32.5504 9.6 32.9004 10.5 32.9004 11.45C32.9004 12.4 32.5504 13.25 31.8504 13.9C31.1504 14.55 30.3004 14.9 29.3004 14.9L26.9004 14.85ZM26.9004 9.4V13.4H29.4004C29.9504 13.4 30.5004 13.2 30.8504 12.8C31.6504 12.05 31.6504 10.8 30.9004 10.05L30.8504 10C30.4504 9.6 29.9504 9.35 29.4004 9.4H26.9004Z" fill="#5F6368"/>
<path d="M36.3504 11.3999C37.4504 11.3999 38.3004 11.6999 38.9504 12.2999C39.6004 12.8999 39.9004 13.6999 39.9004 14.6999V19.4999H38.5004V18.3999H38.4504C37.8504 19.2999 37.0004 19.7499 36.0004 19.7499C35.1504 19.7499 34.4004 19.4999 33.8004 18.9999C33.2504 18.4999 32.9004 17.7999 32.9004 17.0499C32.9004 16.2499 33.2004 15.5999 33.8004 15.0999C34.4004 14.5999 35.2504 14.3999 36.2504 14.3999C37.1504 14.3999 37.8504 14.5499 38.4004 14.8999V14.5499C38.4004 14.0499 38.2004 13.5499 37.8004 13.2499C37.4004 12.8999 36.9004 12.6999 36.3504 12.6999C35.5004 12.6999 34.8504 13.0499 34.4004 13.7499L33.1004 12.9499C33.9004 11.8999 34.9504 11.3999 36.3504 11.3999ZM34.4504 17.0999C34.4504 17.4999 34.6504 17.8499 34.9504 18.0499C35.3004 18.2999 35.7004 18.4499 36.1004 18.4499C36.7004 18.4499 37.3004 18.1999 37.7504 17.7499C38.2504 17.2999 38.5004 16.7499 38.5004 16.1499C38.0504 15.7999 37.4004 15.5999 36.5504 15.5999C35.9504 15.5999 35.4504 15.7499 35.0504 16.0499C34.6504 16.2999 34.4504 16.6499 34.4504 17.0999Z" fill="#5F6368"/>
<path d="M48.0004 11.6499L43.0504 22.9999H41.5504L43.4004 19.0499L40.1504 11.6999H41.7504L44.1004 17.3499H44.1504L46.4504 11.6999H48.0004V11.6499Z" fill="#5F6368"/>
<path d="M20.9496 13.85C20.9496 13.4 20.8996 12.95 20.8496 12.5H14.5996V15.05H18.1496C17.9996 15.85 17.5496 16.6 16.8496 17.05V18.7H18.9996C20.2496 17.55 20.9496 15.85 20.9496 13.85Z" fill="#4285F4"/>
<path d="M14.6002 20.3002C16.4002 20.3002 17.9002 19.7002 19.0002 18.7002L16.8502 17.0502C16.2502 17.4502 15.5002 17.7002 14.6002 17.7002C12.9002 17.7002 11.4002 16.5502 10.9002 14.9502H8.7002V16.6502C9.8502 18.9002 12.1002 20.3002 14.6002 20.3002Z" fill="#34A853"/>
<path d="M10.8998 14.9502C10.5998 14.1502 10.5998 13.2502 10.8998 12.4002V10.7002H8.6998C7.7498 12.5502 7.7498 14.7502 8.6998 16.6502L10.8998 14.9502Z" fill="#FBBC04"/>
<path d="M14.6 9.69986C15.55 9.69986 16.45 10.0499 17.15 10.6999L19.05 8.79986C17.85 7.69986 16.25 7.04986 14.65 7.09986C12.15 7.09986 9.85 8.49986 8.75 10.7499L10.95 12.4499C11.4 10.8499 12.9 9.69986 14.6 9.69986Z" fill="#EA4335"/>
</g>
<defs>
<clipPath id="clip0_6517_4483">
<rect width="40" height="16" fill="white" transform="translate(8 7)"/>
</clipPath>
</defs>
</svg>
