<svg xmlns="http://www.w3.org/2000/svg" width="41" height="42" viewBox="0 0 41 42" fill="none">
    <path d="M33.357 5.83084C33.0779 4.81923 32.5362 3.89943 31.7869 3.16474C31.0376 2.43005 30.1073 1.9066 29.0904 1.64751C25.1737 0.380842 19.3404 1.33084 16.3737 1.43084C14.7845 1.39044 13.1987 1.5985 11.6737 2.04751C10.5702 2.41848 9.60921 3.12319 8.9237 4.06417C8.12692 5.21746 7.63393 6.55311 7.49037 7.94751C7.34826 9.8551 7.30376 11.7687 7.35703 13.6808C7.35703 17.8142 7.1237 22.0142 7.14037 26.1142C7.14037 28.8975 7.24037 31.6642 7.45703 34.4475C7.45664 34.5111 7.46971 34.574 7.49539 34.6321C7.52106 34.6902 7.55876 34.7423 7.60599 34.7848C7.65323 34.8273 7.70893 34.8593 7.76944 34.8787C7.82994 34.8982 7.89388 34.9046 7.95703 34.8975C8.02632 34.8966 8.09454 34.8804 8.15674 34.8498C8.21895 34.8193 8.27358 34.7753 8.31667 34.7211C8.35976 34.6668 8.39022 34.6037 8.40585 34.5362C8.42148 34.4687 8.42189 34.3985 8.40703 34.3308C8.25703 31.5975 8.20703 28.8475 8.25703 26.0975C8.25703 21.9642 8.55703 17.7642 8.74037 13.6975C8.72824 11.8333 8.81169 9.96979 8.99037 8.11417C9.11057 6.98813 9.52437 5.9134 10.1904 4.99751C10.6974 4.32187 11.4023 3.8209 12.207 3.56417C12.2789 3.55475 12.3518 3.55475 12.4237 3.56417C12.4025 4.34071 12.4639 5.11731 12.607 5.88084C12.7093 6.41789 12.9315 6.92493 13.257 7.36417C13.4847 7.6179 13.7707 7.81239 14.0904 7.93084C16.3404 8.89751 25.457 7.93084 25.5904 7.93084C26.2688 7.84073 26.9031 7.54396 27.407 7.08084C27.7722 6.67737 28.02 6.18171 28.1237 5.64751C28.2808 4.91748 28.3811 4.17637 28.4237 3.43084C29.1674 3.59385 29.8536 3.95363 30.4107 4.47257C30.9677 4.99152 31.3751 5.65057 31.5904 6.38084C31.8609 8.66469 31.939 10.9672 31.8237 13.2642C31.8237 18.9975 31.4737 26.4808 31.407 29.9308C31.4977 31.5963 31.4977 33.2654 31.407 34.9308C31.3266 35.8443 30.9788 36.7139 30.407 37.4308C29.3936 38.3086 28.139 38.8604 26.807 39.0142C24.6269 39.2671 22.435 39.4062 20.2404 39.4308C17.8291 39.7823 15.3859 39.8605 12.957 39.6642C11.432 39.5264 10.0068 38.8463 8.94037 37.7475C8.89435 37.6894 8.83708 37.6413 8.77199 37.6059C8.70691 37.5705 8.63534 37.5487 8.56159 37.5416C8.48784 37.5346 8.41343 37.5425 8.34283 37.5649C8.27222 37.5874 8.20687 37.6238 8.1507 37.6721C8.09453 37.7204 8.0487 37.7796 8.01596 37.846C7.98322 37.9125 7.96424 37.9849 7.96016 38.0588C7.95608 38.1328 7.96699 38.2069 7.99223 38.2765C8.01747 38.3462 8.05652 38.41 8.10703 38.4642C9.32907 39.7901 10.9959 40.6205 12.7904 40.7975C15.2994 41.0751 17.8314 41.0751 20.3404 40.7975C22.2737 40.6475 24.7737 40.7975 27.007 40.4808C28.64 40.3134 30.1792 39.6371 31.407 38.5475C32.067 37.8159 32.4961 36.9055 32.6404 35.9308C32.9083 33.9595 33.0086 31.9691 32.9404 29.9808C33.057 26.5142 33.4737 19.0308 33.5737 13.3142C33.7458 10.8186 33.6733 8.31224 33.357 5.83084ZM26.9737 4.84751C26.888 5.27358 26.6927 5.66995 26.407 5.99751C25.9606 6.27857 25.4305 6.39636 24.907 6.33084C16.0237 6.53084 16.4237 6.81417 14.907 6.59751C14.6904 6.59751 14.4404 6.59751 14.3237 6.43084C14.0272 6.0572 13.827 5.61655 13.7404 5.14751C13.6066 4.54313 13.5119 3.93075 13.457 3.31417C14.4365 3.20501 15.4216 3.15492 16.407 3.16418C19.9003 2.78748 23.4211 2.73726 26.9237 3.01417L27.307 3.09751C27.207 3.64751 27.0737 4.33084 26.9737 4.84751Z" fill="#2F4027"/>
    <path d="M22.3625 0.693942C24.6808 0.602294 27.1589 0.677557 29.1724 1.32383C30.2463 1.59744 31.2294 2.15117 32.0207 2.92702C32.7128 3.60571 33.2378 4.43377 33.5555 5.34564L33.6776 5.74277L33.6841 5.76556L33.6874 5.78834C34.0055 8.28492 34.0774 10.8068 33.9055 13.3176L33.9071 13.3193C33.8071 19.0369 33.3901 26.5407 33.274 29.9924C33.3413 31.9918 33.2406 33.9933 32.9712 35.9755L32.9696 35.9804C32.8156 37.0196 32.3581 37.9899 31.6545 38.7701L31.6415 38.7848L31.6284 38.7962C30.3483 39.9321 28.7427 40.6381 27.0402 40.8128L27.0386 40.8111C25.9047 40.9708 24.7093 41.015 23.5669 41.0357C22.4114 41.0567 21.319 41.0562 20.3654 41.1301L20.3638 41.1285C17.8347 41.4073 15.2822 41.4083 12.7531 41.1285C10.8792 40.9426 9.13854 40.0751 7.86217 38.6904C7.78194 38.6038 7.71848 38.5003 7.67825 38.3893C7.638 38.2778 7.62133 38.1593 7.6278 38.0409C7.63434 37.9222 7.66479 37.8058 7.71731 37.6992C7.7699 37.5924 7.84357 37.4968 7.93379 37.4192C8.02384 37.3418 8.12827 37.2827 8.2414 37.2467C8.35469 37.2107 8.47464 37.198 8.59297 37.2092C8.71141 37.2206 8.82697 37.2566 8.93151 37.3134C9.02562 37.3646 9.10757 37.4341 9.17728 37.5152C10.1882 38.5568 11.5419 39.201 12.9875 39.3316C15.3907 39.5258 17.8071 39.4482 20.1929 39.1005L20.2141 39.0973H20.2368C22.4197 39.0727 24.5999 38.9354 26.7684 38.6839C28.0237 38.5389 29.2049 38.0186 30.1636 37.1962C30.6812 36.5373 30.9984 35.7443 31.0734 34.9094C31.1632 33.2571 31.1634 31.6008 31.0734 29.9485V29.9241C31.1405 26.4551 31.4901 18.9963 31.4901 13.2639V13.2477C31.6039 10.9797 31.5277 8.70603 31.2622 6.45078C31.0621 5.78759 30.6902 5.18816 30.1831 4.71575C29.7644 4.32577 29.2661 4.03401 28.7248 3.85801C28.672 4.47999 28.5808 5.098 28.4497 5.70859L28.4514 5.71022C28.3361 6.3041 28.0598 6.85671 27.6538 7.30527L27.6441 7.31666L27.6327 7.32643C27.0784 7.83584 26.3803 8.16155 25.634 8.26067L25.6128 8.26393H25.59C25.6018 8.26393 25.5831 8.26553 25.494 8.2737C25.4191 8.28056 25.3153 8.29066 25.1815 8.30299C24.9145 8.32759 24.5369 8.36115 24.0812 8.39902C23.1704 8.47473 21.944 8.56622 20.6503 8.62689C19.3575 8.6875 17.991 8.7183 16.8042 8.67246C15.6353 8.62728 14.5855 8.50676 13.9592 8.23789C13.5952 8.10012 13.2687 7.87665 13.0087 7.58685L12.9989 7.57545L12.9891 7.56243C12.6782 7.14282 12.4544 6.66637 12.3283 6.16107L12.2795 5.94297C12.1568 5.28858 12.0963 4.62414 12.0907 3.95892C11.4441 4.2102 10.8771 4.63594 10.4582 5.19264L10.4598 5.19427C9.82839 6.06284 9.43612 7.08222 9.32213 8.15C9.1448 9.99297 9.06107 11.8438 9.07311 13.6952V13.7131C8.88924 17.7915 8.58971 21.9744 8.58971 26.0976V26.1041C8.53988 28.8457 8.58993 31.5873 8.73945 34.3121C8.7545 34.4118 8.75412 34.5131 8.73131 34.6116C8.70451 34.7273 8.65217 34.836 8.57832 34.929C8.50446 35.022 8.40987 35.0964 8.30325 35.1487C8.20606 35.1964 8.10028 35.2196 7.99238 35.2252L7.99401 35.2284C7.98701 35.2292 7.97985 35.2279 7.97285 35.2284C7.96904 35.2286 7.96527 35.23 7.96146 35.2301L7.95983 35.2284C7.86104 35.2352 7.76133 35.2262 7.66686 35.1959C7.56207 35.1621 7.46557 35.1067 7.38366 35.0331C7.30143 34.9591 7.23466 34.8674 7.18997 34.7662C7.149 34.6732 7.12926 34.573 7.12649 34.4716L7.12487 34.4732C6.90749 31.6808 6.80748 28.9052 6.80748 26.1139C6.79916 24.0585 6.85381 21.9792 6.91002 19.9013C6.96622 17.8242 7.02378 15.7485 7.02396 13.6904L7.0028 12.2467C6.9995 10.8041 7.05022 9.3611 7.15742 7.92213L7.15905 7.91399C7.30835 6.46383 7.82128 5.0737 8.64993 3.87428L8.65481 3.86777C9.38099 2.87111 10.3994 2.1253 11.5682 1.73235L11.5796 1.72747C13.1323 1.27033 14.7467 1.05663 16.3648 1.09596C17.096 1.07121 18.006 0.995604 19.034 0.912041C20.0593 0.828705 21.1955 0.740079 22.3625 0.693942ZM16.407 3.16418C19.9003 2.78748 23.4211 2.73726 26.9237 3.01417L27.307 3.09751C27.207 3.64751 27.0737 4.33084 26.9737 4.84751C26.888 5.27358 26.6927 5.66995 26.407 5.99751L26.2362 6.09596C25.8285 6.30589 25.3651 6.38817 24.907 6.33084C16.0237 6.53084 16.4237 6.81417 14.907 6.59751C14.7176 6.59751 14.5014 6.5982 14.3726 6.48659L14.3237 6.43084C14.1014 6.15065 13.9325 5.83301 13.8257 5.49375L13.7404 5.14751C13.6066 4.54313 13.5119 3.93075 13.457 3.31417C14.1916 3.2323 14.9294 3.1832 15.6682 3.1679L16.407 3.16418ZM26.8758 3.34531C23.4011 3.07194 19.9084 3.12137 16.4429 3.49505L16.4234 3.4983H16.4038C15.5419 3.49021 14.6802 3.52845 13.8225 3.61224C13.8609 3.95365 13.9121 4.29347 13.9755 4.63112L14.0666 5.07545L14.0682 5.08685L14.1447 5.39284C14.2392 5.69319 14.3875 5.97481 14.5842 6.22291L14.5972 6.23919L14.6428 6.25058C14.7085 6.26373 14.7911 6.2636 14.9064 6.2636H14.9309L14.9536 6.26686C15.6758 6.37003 15.9262 6.35669 17.1249 6.28802C18.328 6.21909 20.4537 6.09841 24.8999 5.9983L24.9243 5.99668L24.9488 5.99993C25.3792 6.05374 25.8136 5.96068 26.1857 5.73952C26.4158 5.46328 26.5752 5.1354 26.6464 4.78248C26.7279 4.36095 26.8273 3.83092 26.9165 3.35345L26.8758 3.34531ZM31.8237 13.2642C31.8237 18.9975 31.4737 26.4808 31.407 29.9308C31.4977 31.5963 31.4977 33.2654 31.407 34.9308C31.3266 35.8443 30.9788 36.7139 30.407 37.4308C29.3936 38.3086 28.139 38.8604 26.807 39.0142L25.1701 39.1819C23.5309 39.3289 21.8865 39.4123 20.2404 39.4308C17.8291 39.7823 15.3859 39.8605 12.957 39.6642C11.432 39.5264 10.0068 38.8463 8.94037 37.7475C8.91735 37.7185 8.89137 37.692 8.86315 37.6682L8.77199 37.6059C8.73923 37.5881 8.70497 37.5732 8.66946 37.5624L8.56159 37.5416C8.48784 37.5346 8.41343 37.5425 8.34283 37.5649L8.2414 37.6096C8.20936 37.6275 8.17868 37.6481 8.1507 37.6721C8.09453 37.7204 8.0487 37.7796 8.01596 37.846C7.98322 37.9125 7.96424 37.9849 7.96016 38.0588L7.96471 38.1695C7.97009 38.2059 7.97963 38.2417 7.99223 38.2765C8.01747 38.3462 8.05652 38.41 8.10703 38.4642C9.32907 39.7901 10.9959 40.6205 12.7904 40.7975C15.2994 41.0751 17.8314 41.0751 20.3404 40.7975C22.2737 40.6475 24.7737 40.7975 27.007 40.4808C28.4356 40.3342 29.7926 39.7976 30.9318 38.9361L31.407 38.5475C31.9844 37.9073 32.3847 37.13 32.5725 36.2929L32.6404 35.9308C32.9083 33.9595 33.0086 31.9691 32.9404 29.9808C33.057 26.5142 33.4737 19.0308 33.5737 13.3142C33.7458 10.8186 33.6733 8.31224 33.357 5.83084C33.0779 4.81923 32.5362 3.89943 31.7869 3.16474C31.1312 2.52193 30.3366 2.04051 29.467 1.75677L29.0904 1.64751C25.1737 0.380842 19.3404 1.33084 16.3737 1.43084L15.7772 1.42799C14.3885 1.44696 13.0078 1.65473 11.6737 2.04751L11.2671 2.20273C10.3345 2.599 9.52353 3.24081 8.9237 4.06417L8.63854 4.50416C8.00833 5.55156 7.616 6.7273 7.49037 7.94751L7.40156 9.37884C7.33158 10.8115 7.31708 12.2467 7.35703 13.6808L7.34785 15.2333C7.30342 18.8623 7.12579 22.5267 7.14037 26.1142L7.15905 28.1988C7.19732 30.2816 7.29454 32.36 7.45703 34.4475C7.45664 34.5111 7.46971 34.574 7.49539 34.6321C7.52106 34.6902 7.55876 34.7423 7.60599 34.7848C7.65323 34.8273 7.70893 34.8593 7.76944 34.8787C7.82994 34.8982 7.89388 34.9046 7.95703 34.8975C7.99152 34.8971 8.02577 34.8929 8.05911 34.885L8.15674 34.8498C8.21895 34.8193 8.27358 34.7753 8.31667 34.7211C8.33804 34.6942 8.35672 34.6651 8.37161 34.6344L8.40585 34.5362C8.42148 34.4687 8.42189 34.3985 8.40703 34.3308C8.25703 31.5975 8.20703 28.8475 8.25703 26.0975C8.25703 22.9976 8.42637 19.8603 8.58808 16.7698L8.74037 13.6975C8.72824 11.8333 8.81169 9.96979 8.99037 8.11417C9.11057 6.98813 9.52437 5.9134 10.1904 4.99751C10.6974 4.32187 11.4023 3.8209 12.207 3.56417C12.2789 3.55475 12.3518 3.55475 12.4237 3.56417C12.4025 4.34071 12.4639 5.11731 12.607 5.88084C12.7093 6.41789 12.9315 6.92493 13.257 7.36417C13.4847 7.6179 13.7707 7.81239 14.0904 7.93084C16.3392 8.89652 25.4433 7.93233 25.5904 7.93084C26.2688 7.84073 26.9031 7.54396 27.407 7.08084C27.7722 6.67737 28.02 6.18171 28.1237 5.64751C28.2808 4.91748 28.3811 4.17637 28.4237 3.43084C29.1674 3.59385 29.8536 3.95363 30.4107 4.47257C30.9677 4.99152 31.3751 5.65057 31.5904 6.38084C31.8609 8.66469 31.939 10.9672 31.8237 13.2642Z" fill="#2F4027"/>
    <path d="M12.6737 21.2808C14.8929 19.5505 17.0234 17.7093 19.057 15.7642C19.8404 15.0308 18.657 13.8475 17.8904 14.5975C15.8509 16.5373 13.7148 18.373 11.4904 20.0975C11.3366 20.2561 11.2506 20.4683 11.2506 20.6892C11.2506 20.9101 11.3366 21.1223 11.4904 21.2808C11.6509 21.4308 11.8624 21.5142 12.082 21.5142C12.3017 21.5142 12.5132 21.4308 12.6737 21.2808Z" fill="#2F4027"/>
    <path d="M18.5342 14.0273C18.8294 14.0517 19.0961 14.1938 19.291 14.3887C19.4857 14.5834 19.627 14.85 19.6458 15.1455C19.665 15.4503 19.5495 15.7553 19.2861 16.0032L19.2877 16.0049C17.246 17.9577 15.1063 19.8064 12.8782 21.5436L12.8766 21.542C12.6573 21.7368 12.3764 21.8479 12.0823 21.848C11.7782 21.848 11.4843 21.7317 11.262 21.5241L11.2506 21.5127C11.0368 21.2919 10.917 20.9965 10.917 20.6891C10.917 20.3817 11.0368 20.0863 11.2506 19.8655L11.2669 19.8493L11.2864 19.8346C13.5019 18.117 15.6289 16.2881 17.6601 14.3561C17.9191 14.1043 18.231 14.0025 18.5342 14.0273ZM11.2506 20.6892C11.2506 20.9101 11.3366 21.1223 11.4904 21.2808C11.6108 21.3933 11.7599 21.4692 11.9196 21.4997L12.082 21.5142C12.3017 21.5142 12.5132 21.4308 12.6737 21.2808C14.8929 19.5505 17.0234 17.7093 19.057 15.7642C19.8404 15.0308 18.657 13.8475 17.8904 14.5975C15.8509 16.5373 13.7148 18.373 11.4904 20.0975L11.3874 20.2252C11.2983 20.3622 11.2506 20.5235 11.2506 20.6892Z" fill="#2F4027"/>
    <path d="M14.0237 29.6475C18.1904 25.1142 22.5404 20.7475 27.0737 16.5475C27.857 15.8142 26.6737 14.6308 25.8904 15.3642C21.4459 19.5642 17.1237 23.9364 12.9237 28.4808C12.1904 29.2642 13.3737 30.4475 14.0904 29.6475H14.0237Z" fill="#2F4027"/>
    <path d="M26.5468 14.8045C26.8425 14.8318 27.1095 14.9749 27.3052 15.1707C27.5006 15.3662 27.6427 15.6332 27.6617 15.9292C27.6812 16.2352 27.5668 16.5419 27.302 16.7902L27.3004 16.7918C22.9605 20.8125 18.7906 24.988 14.7873 29.3146H14.8362L14.3381 29.8696C14.0956 30.1403 13.7918 30.2618 13.4853 30.2456C13.1893 30.2298 12.9215 30.0887 12.7268 29.894C12.3399 29.507 12.1606 28.8084 12.6796 28.2534C16.8841 23.7041 21.212 19.3265 25.6614 15.1219L25.663 15.1202C25.9279 14.8725 26.2427 14.7764 26.5468 14.8045ZM27.0737 16.5475C27.857 15.8142 26.6737 14.6308 25.8904 15.3642L24.2291 16.948C20.3671 20.6605 16.5985 24.5047 12.9237 28.4808L12.8082 28.6326C12.3374 29.405 13.4186 30.3969 14.0904 29.6475H14.0237C17.6698 25.6806 21.4562 21.8414 25.383 18.1297L27.0737 16.5475Z" fill="#2F4027"/>
    <path d="M21.757 31.5808C23.2274 29.4507 24.9019 27.4691 26.757 25.6642C26.8336 25.5876 26.8944 25.4966 26.9359 25.3965C26.9773 25.2965 26.9987 25.1892 26.9987 25.0808C26.9987 24.9725 26.9773 24.8652 26.9359 24.7651C26.8944 24.6651 26.8336 24.5741 26.757 24.4975C26.6804 24.4209 26.5895 24.3601 26.4894 24.3187C26.3893 24.2772 26.282 24.2559 26.1737 24.2559C26.0654 24.2559 25.9581 24.2772 25.858 24.3187C25.7579 24.3601 25.667 24.4209 25.5904 24.4975C23.6022 26.3917 21.8149 28.4861 20.257 30.7475C20.1465 30.9398 20.1169 31.1681 20.1748 31.3822C20.2326 31.5963 20.3731 31.7787 20.5654 31.8892C20.7577 31.9997 20.986 32.0293 21.2001 31.9715C21.4142 31.9136 21.5965 31.7731 21.707 31.5808H21.757Z" fill="#2F4027"/>
    <path d="M26.9834 24.9199L26.9359 24.7651C26.9151 24.715 26.8897 24.667 26.8597 24.6221L26.757 24.4975C26.7187 24.4592 26.6767 24.4242 26.6318 24.3942L26.4894 24.3187C26.4393 24.298 26.3869 24.2826 26.334 24.2722L26.1737 24.2559C26.0654 24.2559 25.9581 24.2772 25.858 24.3187L25.7155 24.3942C25.6706 24.4242 25.6287 24.4592 25.5904 24.4975C23.6022 26.3917 21.8149 28.4861 20.257 30.7475C20.1465 30.9398 20.1169 31.1681 20.1748 31.3822C20.2326 31.5963 20.3731 31.7787 20.5654 31.8892C20.7095 31.9719 20.8743 32.0093 21.0378 31.9984L21.2001 31.9715C21.4142 31.9136 21.5965 31.7731 21.707 31.5808H21.757L22.3187 30.7891C23.4595 29.2197 24.7131 27.7355 26.0703 26.349L26.757 25.6642C26.7954 25.6258 26.8297 25.5834 26.8597 25.5384L26.9359 25.3965C26.9566 25.3466 26.9729 25.295 26.9834 25.2422L26.9987 25.0808C26.9987 25.0267 26.9939 24.9728 26.9834 24.9199ZM27.3317 25.0811C27.3317 25.233 27.3019 25.3834 27.2438 25.5238C27.1857 25.6642 27.1006 25.7923 26.9932 25.8998L26.9899 25.903C25.1504 27.6929 23.4886 29.6583 22.0306 31.7705L21.9313 31.9138H21.8776C21.7248 32.0963 21.5198 32.2301 21.2868 32.293C20.9874 32.3738 20.6686 32.332 20.3997 32.1774C20.1309 32.0229 19.9338 31.7688 19.8529 31.4694C19.772 31.17 19.8139 30.8497 19.9684 30.5808L19.9749 30.5694L19.9831 30.558C21.3576 28.5629 22.9091 26.6967 24.6185 24.9818L25.3607 24.2559C25.467 24.1511 25.5922 24.0672 25.7301 24.0101C25.8707 23.9519 26.0224 23.9222 26.1745 23.9222C26.3263 23.9223 26.4769 23.952 26.6172 24.0101C26.7577 24.0683 26.8856 24.1548 26.9932 24.2624C27.1005 24.3698 27.1857 24.4981 27.2438 24.6384C27.3018 24.7787 27.3317 24.9292 27.3317 25.0811Z" fill="#2F4027"/>
</svg>