<svg xmlns="http://www.w3.org/2000/svg" width="41" height="42" viewBox="0 0 41 42" fill="none">
    <path fill-rule="evenodd" clip-rule="evenodd" d="M32.2648 4.78227C29.7441 2.95355 26.8282 1.74412 23.7531 1.25188C20.6781 0.759644 17.5304 0.99844 14.5648 1.94894C-0.185208 7.03227 -3.80187 27.6656 7.06479 36.4823C16.4815 44.0489 30.1981 41.3156 35.5315 34.1156C35.6089 33.9956 35.6381 33.8508 35.6134 33.7102C35.5886 33.5696 35.5117 33.4435 35.3979 33.3571C35.2842 33.2708 35.1421 33.2305 35 33.2445C34.8579 33.2584 34.7262 33.3255 34.6315 33.4323C29.6315 40.0156 16.7481 42.4489 8.08146 35.2156C-1.51854 27.2656 1.86479 8.29894 15.1648 3.69894C17.8534 2.78466 20.7196 2.51645 23.5312 2.91603C26.3427 3.31562 29.0207 4.37177 31.3481 5.99894C38.3981 10.9989 40.7981 21.4156 37.2815 29.5156C37.253 29.6297 37.2657 29.7502 37.3173 29.8558C37.3689 29.9615 37.4561 30.0456 37.5636 30.0934C37.671 30.1411 37.7919 30.1495 37.9049 30.117C38.0179 30.0845 38.1158 30.0132 38.1815 29.9156C42.0648 21.4823 39.7648 10.3656 32.2648 4.78227Z" fill="#2F4027"/>
    <path d="M14.4633 1.63081C17.4785 0.664454 20.6792 0.422337 23.8057 0.922802C26.7369 1.39201 29.5256 2.50254 31.9747 4.1715L32.4613 4.51167L32.4646 4.51492C40.1026 10.2014 42.4261 21.4932 38.4834 30.0553L38.4737 30.0797L38.4574 30.1025C38.348 30.2647 38.1848 30.3837 37.9968 30.4378C37.8088 30.4918 37.6076 30.478 37.4288 30.3987C37.2497 30.3191 37.1046 30.1777 37.0186 30.0016C36.9327 29.8255 36.911 29.6253 36.9584 29.4352L36.9649 29.4075L36.9763 29.3831C40.437 21.4119 38.0628 11.172 31.1576 6.27274L30.7247 5.97977C28.5435 4.54848 26.0721 3.61318 23.4851 3.24539C20.7253 2.85317 17.9113 3.11782 15.2722 4.01525L15.2706 4.01362C8.75495 6.26837 4.65083 12.0494 3.36137 18.2682C2.07075 24.4932 3.61469 31.0837 8.29464 34.9593L8.69666 35.2864C12.8794 38.5832 17.9947 39.6758 22.6957 39.1731C27.5553 38.6535 31.9331 36.4333 34.3656 33.2307L34.3819 33.2112C34.5324 33.0416 34.7421 32.9355 34.9678 32.9134C35.1934 32.8913 35.4188 32.9553 35.5993 33.0924C35.7798 33.2295 35.9018 33.4291 35.9411 33.6523C35.9804 33.8757 35.9339 34.1063 35.8109 34.2968L35.7995 34.3147C33.0669 38.0035 28.2123 40.5209 22.8698 41.1669C17.5205 41.8137 11.6435 40.5886 6.85584 36.7415C1.30387 32.2368 -0.525219 24.735 0.882532 17.749C2.29138 10.7589 6.9511 4.22076 14.4568 1.63406L14.4633 1.63081ZM23.7531 1.25188C20.6781 0.759644 17.5304 0.99844 14.5648 1.94894C-0.185208 7.03227 -3.80187 27.6656 7.06479 36.4823C16.4815 44.0489 30.1981 41.3156 35.5315 34.1156C35.6089 33.9956 35.6381 33.8508 35.6134 33.7102C35.5886 33.5696 35.5117 33.4435 35.3979 33.3571C35.2842 33.2708 35.1421 33.2305 35 33.2445C34.8579 33.2584 34.7262 33.3255 34.6315 33.4323C29.6315 40.0156 16.7481 42.4489 8.08146 35.2156C-1.51854 27.2656 1.86479 8.29894 15.1648 3.69894C17.8534 2.78466 20.7196 2.51645 23.5312 2.91603C26.3427 3.31562 29.0207 4.37177 31.3481 5.99894C38.3981 10.9989 40.7981 21.4156 37.2815 29.5156C37.253 29.6297 37.2657 29.7502 37.3173 29.8558C37.3689 29.9615 37.4561 30.0456 37.5636 30.0934C37.671 30.1411 37.7919 30.1495 37.9049 30.117C38.0179 30.0845 38.1158 30.0132 38.1815 29.9156C42.0648 21.4823 39.7648 10.3656 32.2648 4.78227C29.7441 2.95355 26.8282 1.74412 23.7531 1.25188Z" fill="#2F4027"/>
    <path fill-rule="evenodd" clip-rule="evenodd" d="M13.0815 20.1323C12.875 20.1159 12.6683 20.161 12.4874 20.2618C12.3065 20.3627 12.1595 20.5147 12.0648 20.6989C11.6148 21.7323 12.6315 23.4323 12.8981 24.0323C13.9814 26.4998 15.4187 28.7962 17.1648 30.8489C17.9481 31.7323 18.5481 32.8323 20.0981 32.7323C23.9315 32.4489 32.3815 22.7323 30.0981 19.9323C28.9981 18.6156 24.6648 21.5156 23.5315 22.6656C23.3315 20.7489 22.2815 9.8656 21.8648 8.49894C21.8462 8.44203 21.8166 8.38935 21.7776 8.34389C21.7386 8.29844 21.6911 8.2611 21.6377 8.23402C21.5843 8.20693 21.5261 8.19063 21.4664 8.18604C21.4067 8.18145 21.3467 8.18867 21.2898 8.20727C21.2329 8.22587 21.1802 8.2555 21.1347 8.29447C21.0893 8.33343 21.052 8.38097 21.0249 8.43436C20.9978 8.48776 20.9815 8.54596 20.9769 8.60566C20.9723 8.66535 20.9795 8.72536 20.9981 8.78227C21.4815 10.4489 22.1481 22.6989 22.3148 23.7823C22.4815 24.8656 23.6481 24.7989 24.3648 23.8823C25.6533 22.6562 27.2034 21.7387 28.8981 21.1989C28.8632 21.5951 28.7499 21.9803 28.5648 22.3323C27.3481 25.1489 21.2648 32.3323 19.4148 30.6656C16.9728 28.0072 15.0205 24.9376 13.6481 21.5989C15.8981 22.5489 17.8648 25.0323 18.7315 25.0323C18.9359 24.9921 19.1184 24.8782 19.2443 24.7123C19.3703 24.5464 19.431 24.34 19.4148 24.1323C19.1981 21.9489 18.9481 25.6489 20.7148 8.6656C20.7148 8.59775 20.7014 8.53057 20.6755 8.46788C20.6495 8.4052 20.6114 8.34824 20.5635 8.30027C20.5155 8.25229 20.4585 8.21423 20.3958 8.18827C20.3332 8.1623 20.266 8.14894 20.1981 8.14894C20.1303 8.14894 20.0631 8.1623 20.0004 8.18827C19.9377 8.21423 19.8808 8.25229 19.8328 8.30027C19.7848 8.34824 19.7468 8.4052 19.7208 8.46788C19.6948 8.53057 19.6815 8.59775 19.6815 8.6656C19.6815 8.53227 17.5981 19.4156 17.8981 22.8156C16.4981 21.7823 14.9481 20.1989 13.0815 20.1323Z" fill="#2F4027"/>
    <path d="M20.1985 7.81528C20.31 7.81532 20.421 7.83771 20.524 7.88038C20.6268 7.92306 20.7203 7.98559 20.7991 8.0643C20.8157 8.08093 20.8279 8.10175 20.843 8.11964C20.8669 8.09261 20.8903 8.06511 20.9179 8.04152C20.9966 7.97406 21.0879 7.92235 21.1864 7.89015C21.2849 7.85801 21.3892 7.8464 21.4924 7.85434C21.5956 7.86234 21.6964 7.89054 21.7886 7.93735C21.8808 7.98418 21.9638 8.04766 22.0312 8.12615C22.0984 8.20463 22.1487 8.2965 22.1809 8.39471L22.1841 8.40122C22.2985 8.77624 22.4456 9.74687 22.6041 10.9761C22.7646 12.2217 22.9404 13.7735 23.1103 15.3397C23.3933 17.95 23.6576 20.6125 23.7955 21.9787C24.5051 21.388 25.5934 20.6365 26.6747 20.0776C27.3676 19.7196 28.0816 19.4276 28.7076 19.3143C29.2404 19.2179 29.7991 19.2364 30.1952 19.5601L30.3547 19.7179L30.3563 19.7212C30.7075 20.1518 30.8358 20.6981 30.8137 21.287C30.7917 21.8734 30.6205 22.524 30.3466 23.1994C29.7985 24.5504 28.8145 26.0648 27.6496 27.4865C26.4828 28.9105 25.1206 30.2585 23.802 31.2707C22.4985 32.2713 21.184 32.9858 20.122 33.0643C19.2488 33.1206 18.6257 32.8333 18.1282 32.4133C17.8861 32.2087 17.6746 31.9743 17.4804 31.7443C17.2786 31.5053 17.1091 31.2887 16.9156 31.0705L16.9107 31.0656C15.1437 28.9882 13.689 26.6634 12.5927 24.1662C12.4792 23.9115 12.1327 23.2777 11.8993 22.6428C11.7787 22.3146 11.6776 21.9589 11.6373 21.6092C11.5971 21.2606 11.6154 20.8964 11.7593 20.5659L11.7675 20.5464C11.8922 20.3039 12.0876 20.103 12.3257 19.9702C12.5041 19.8709 12.7015 19.8132 12.9035 19.7993H13.1054C14.1247 19.839 15.0379 20.2895 15.8511 20.8345C16.2606 21.1089 16.6523 21.4129 17.0246 21.7085C17.1983 21.8464 17.3709 21.9766 17.5357 22.1073C17.5312 21.2842 17.6028 20.2434 17.718 19.1174C17.8719 17.6132 18.1058 15.9321 18.3479 14.3648C18.5901 12.7968 18.8421 11.3396 19.0331 10.2827C19.1286 9.75444 19.2092 9.32574 19.2659 9.03273C19.2941 8.88648 19.3153 8.77279 19.331 8.69744C19.3385 8.66089 19.3455 8.6307 19.3505 8.60955C19.3517 8.60444 19.3544 8.59497 19.357 8.58513C19.365 8.50154 19.3802 8.41888 19.4123 8.34099C19.4551 8.23787 19.519 8.14323 19.5979 8.0643C19.6767 7.98562 19.7701 7.923 19.8729 7.88038C19.9761 7.83768 20.0869 7.81528 20.1985 7.81528ZM20.1981 8.14894C20.1303 8.14894 20.0631 8.1623 20.0004 8.18827C19.9377 8.21423 19.8808 8.25229 19.8328 8.30027C19.7848 8.34824 19.7468 8.4052 19.7208 8.46788C19.6948 8.53057 19.6815 8.59775 19.6815 8.6656L19.3489 8.66489C19.3489 8.67055 19.3482 8.68545 19.3489 8.69418C19.3504 8.70812 19.3578 8.74786 19.3651 8.77231C19.3869 8.82222 19.5047 8.94446 19.6142 8.98878C19.2576 10.8092 17.6308 19.7848 17.8981 22.8156C16.4981 21.7823 14.9481 20.1989 13.0815 20.1323C12.875 20.1159 12.6683 20.161 12.4874 20.2618C12.3065 20.3627 12.1595 20.5147 12.0648 20.6989C11.6148 21.7323 12.6315 23.4323 12.8981 24.0323C13.9814 26.4998 15.4187 28.7962 17.1648 30.8489C17.9481 31.7323 18.5481 32.8323 20.0981 32.7323C23.9315 32.4489 32.3815 22.7323 30.0981 19.9323C28.9981 18.6156 24.6648 21.5156 23.5315 22.6656C23.3315 20.7489 22.2815 9.8656 21.8648 8.49894C21.8462 8.44203 21.8166 8.38935 21.7776 8.34389C21.7386 8.29844 21.6911 8.2611 21.6377 8.23402C21.5843 8.20693 21.5261 8.19063 21.4664 8.18604C21.4067 8.18145 21.3467 8.18867 21.2898 8.20727C21.2329 8.22587 21.1802 8.2555 21.1347 8.29447C21.0893 8.33343 21.052 8.38097 21.0249 8.43436C20.9978 8.48776 20.9815 8.54596 20.9769 8.60566C20.9723 8.66535 20.9795 8.72536 20.9981 8.78227C21.4814 10.4488 22.1481 22.6973 22.3148 23.7823C22.4815 24.8656 23.6481 24.7989 24.3648 23.8823C25.6533 22.6562 27.2034 21.7387 28.8981 21.1989C28.8632 21.5951 28.7499 21.9803 28.5648 22.3323C27.3481 25.1489 21.2648 32.3323 19.4148 30.6656C16.9728 28.0072 15.0205 24.9376 13.6481 21.5989C15.8981 22.5489 17.8648 25.0323 18.7315 25.0323C18.9359 24.9921 19.1184 24.8782 19.2443 24.7123C19.3703 24.5464 19.431 24.34 19.4148 24.1323C19.1981 21.9489 18.9481 25.6489 20.7148 8.6656C20.7148 8.59775 20.7014 8.53057 20.6755 8.46788C20.6495 8.4052 20.6114 8.34824 20.5635 8.30027C20.5155 8.25229 20.4585 8.21423 20.3958 8.18827C20.3332 8.1623 20.266 8.14894 20.1981 8.14894ZM20.8886 10.1851C20.1146 17.5912 19.7763 20.5996 19.6532 21.9787C19.5875 22.7152 19.5874 22.9567 19.6093 23.1441C19.621 23.245 19.6383 23.3273 19.6646 23.481L19.746 24.0995L19.7476 24.106C19.7701 24.3949 19.6851 24.6824 19.51 24.9133C19.3346 25.1442 19.08 25.3032 18.7955 25.3592L18.7645 25.3657H18.732C18.5499 25.3657 18.3704 25.302 18.2095 25.2225C18.0445 25.1409 17.8697 25.0275 17.692 24.8986C17.3384 24.6421 16.9286 24.2916 16.494 23.9269C15.8319 23.3712 15.0955 22.7697 14.3179 22.3123C15.6442 25.2805 17.4392 28.0185 19.6386 30.4178L19.7541 30.5008C19.8814 30.5699 20.042 30.5962 20.2489 30.5708C20.5331 30.5359 20.8834 30.4043 21.289 30.1737C22.0988 29.7131 23.0455 28.9083 23.9892 27.9471C25.8801 26.021 27.6732 23.5546 28.2584 22.2L28.2632 22.1887L28.2698 22.1773C28.3494 22.0258 28.4127 21.8667 28.4618 21.7036C27.0281 22.2404 25.7139 23.0589 24.6011 24.1157C24.1998 24.6138 23.6526 24.9203 23.1298 24.9149C22.8576 24.912 22.5915 24.8241 22.3795 24.6301C22.1682 24.4368 22.0363 24.1619 21.9856 23.8325C21.9412 23.5436 21.8667 22.555 21.774 21.2398C21.6804 19.9116 21.5659 18.2273 21.442 16.5246C21.3181 14.8223 21.1856 13.1042 21.053 11.7085C20.9987 11.1377 20.9415 10.6225 20.8886 10.1851Z" fill="#2F4027"/>
</svg>