<svg xmlns="http://www.w3.org/2000/svg" width="70" height="30" fill="none"><rect width="68.333" height="29" x="1.167" y=".5" fill="#fff" rx="3.5"/><rect width="68.333" height="29" x="1.167" y=".5" stroke="#DFDFDF" rx="3.5"/><g clip-path="url(#a)"><mask id="b" width="54" height="24" x="8" y="3" maskUnits="userSpaceOnUse" style="mask-type:luminance"><path fill="#fff" d="M8 3.523h53.937v23.123H8V3.523Z"/></mask><g mask="url(#b)"><path fill="#003A7D" fill-rule="evenodd" d="M8 7.671c0-2.29 1.872-4.148 4.182-4.148h45.573c2.31 0 4.182 1.857 4.182 4.148v14.826c0 2.291-1.872 4.149-4.182 4.149H12.182C9.872 26.646 8 24.788 8 22.497V7.671Z" clip-rule="evenodd"/></g><path fill="#fff" fill-rule="evenodd" d="M9.717 7.813v14.544a2.603 2.603 0 0 0 2.614 2.593h23.875V5.22H12.33a2.603 2.603 0 0 0-2.613 2.593Z" clip-rule="evenodd"/><path fill="#ED1C24" fill-rule="evenodd" d="M14.636 15.024c0-.792.392-1.45 1.142-1.45.906 0 1.287.725 1.287 1.372 0 .893-.57 1.495-1.287 1.495-.604 0-1.142-.513-1.142-1.417Zm4.376-2.856h-1.824v1.048h-.022c-.426-.714-1.12-1.182-1.981-1.182-1.813 0-2.63 1.294-2.63 3.023 0 1.719.996 2.924 2.596 2.924.806 0 1.478-.313 1.959-.993h.022v.312c0 1.138-.627 1.685-1.79 1.685-.84 0-1.355-.178-1.97-.48l-.101 1.585a6.81 6.81 0 0 0 2.227.368c2.35 0 3.514-.77 3.514-3.158v-5.132Z" clip-rule="evenodd"/><mask id="c" width="54" height="24" x="8" y="3" maskUnits="userSpaceOnUse" style="mask-type:luminance"><path fill="#fff" d="M8 26.646h53.937V3.523H8v23.123Z"/></mask><g mask="url(#c)"><path fill="#ED1C24" fill-rule="evenodd" d="M20.402 11.219h2.015V9.746h-2.015v1.473Zm0 6.762h2.015v-5.814h-2.015v5.814Z" clip-rule="evenodd"/></g><mask id="d" width="54" height="24" x="8" y="3" maskUnits="userSpaceOnUse" style="mask-type:luminance"><path fill="#fff" d="M8 26.646h53.937V3.523H8v23.123Z"/></mask><g mask="url(#d)"><path fill="#ED1C24" fill-rule="evenodd" d="M28.026 12.1a4.3 4.3 0 0 0-.683-.066c-.873 0-1.377.468-1.723 1.205h-.023v-1.071h-1.835v5.813h2.014v-2.455c0-1.138.526-1.819 1.466-1.819.235 0 .46 0 .683.067l.1-1.673Z" clip-rule="evenodd"/></g><mask id="e" width="54" height="24" x="8" y="3" maskUnits="userSpaceOnUse" style="mask-type:luminance"><path fill="#fff" d="M8 26.646h53.937V3.523H8v23.123Z"/></mask><g mask="url(#e)"><path fill="#ED1C24" fill-rule="evenodd" d="M31.495 16.709c-.93 0-1.31-.77-1.31-1.63 0-.87.38-1.64 1.31-1.64.929 0 1.31.77 1.31 1.64 0 .86-.381 1.63-1.31 1.63Zm0 1.406c1.925 0 3.39-1.116 3.39-3.035 0-1.93-1.465-3.046-3.39-3.046s-3.392 1.115-3.392 3.046c0 1.919 1.467 3.035 3.392 3.035Z" clip-rule="evenodd"/></g><mask id="f" width="54" height="24" x="8" y="3" maskUnits="userSpaceOnUse" style="mask-type:luminance"><path fill="#fff" d="M8 26.646h53.937V3.523H8v23.123Z"/></mask><g mask="url(#f)"><path fill="#fff" fill-rule="evenodd" d="M42.376 15.013c0 .926-.46 1.562-1.22 1.562-.672 0-1.231-.636-1.231-1.484 0-.87.492-1.518 1.23-1.518.784 0 1.22.67 1.22 1.44Zm-4.466 5.311h2.015v-3.158h.022c.38.692 1.142.949 1.847.949 1.734 0 2.663-1.428 2.663-3.147 0-1.405-.884-2.934-2.495-2.934-.918 0-1.769.368-2.172 1.182h-.022v-1.048H37.91v8.156Z" clip-rule="evenodd"/></g><mask id="g" width="54" height="24" x="8" y="3" maskUnits="userSpaceOnUse" style="mask-type:luminance"><path fill="#fff" d="M8 26.646h53.937V3.523H8v23.123Z"/></mask><g mask="url(#g)"><path fill="#fff" fill-rule="evenodd" d="M47.209 16.14c0-.558.537-.77 1.22-.77.301 0 .593.022.85.033 0 .681-.481 1.373-1.242 1.373-.47 0-.828-.235-.828-.636Zm4.062 1.84a7.094 7.094 0 0 1-.112-1.372v-2.164c0-1.774-1.287-2.41-2.775-2.41-.862 0-1.612.122-2.328.412l.033 1.362c.56-.313 1.209-.435 1.858-.435.728 0 1.32.212 1.332 1.004a5.927 5.927 0 0 0-.94-.078c-1.075 0-3.01.212-3.01 1.986 0 1.26 1.029 1.83 2.182 1.83.828 0 1.387-.324 1.846-1.05h.023c0 .302.033.603.044.916h1.847Z" clip-rule="evenodd"/></g><mask id="h" width="54" height="24" x="8" y="3" maskUnits="userSpaceOnUse" style="mask-type:luminance"><path fill="#fff" d="M8 26.646h53.937V3.523H8v23.123Z"/></mask><g mask="url(#h)"><path fill="#fff" fill-rule="evenodd" d="M52.176 20.324c.414.09.828.134 1.253.134 1.847 0 2.283-1.417 2.854-2.879l2.138-5.412h-2.015l-1.197 3.794h-.023l-1.253-3.793h-2.171l2.361 5.947c-.145.513-.526.803-1.018.803-.28 0-.526-.034-.795-.123l-.134 1.529Z" clip-rule="evenodd"/></g></g><defs><clipPath id="a"><path fill="#fff" d="M8 3.333h55v23.333H8z"/></clipPath></defs></svg>