<svg xmlns="http://www.w3.org/2000/svg" width="28" height="38" viewBox="0 0 28 38" fill="none">
    <path d="M18.8002 23.7973C18.6002 22.5473 18.3335 21.314 17.9835 20.0973C17.2835 17.614 16.2501 15.1973 14.9668 12.8973C14.3335 11.7806 13.6168 10.6973 12.8835 9.63063C12.5168 9.11397 12.1668 8.58064 11.8502 8.03064C11.7002 7.78064 11.5668 7.53064 11.4335 7.26397C11.4335 7.2473 11.3835 7.13063 11.3668 7.13063C11.3335 7.06397 11.3001 6.99731 11.2835 6.91397C11.2335 6.78064 11.1835 6.63064 11.1335 6.49731C11.0501 6.23064 10.9835 5.96397 10.9335 5.6973C10.9335 5.63063 10.8835 5.41398 10.8835 5.39731C10.8835 5.33064 10.8501 5.28064 10.8501 5.21398L10.8335 5.08064C10.8335 5.03064 10.8335 4.96398 10.8168 4.91398C10.7835 4.54731 10.4668 4.16397 9.98347 4.18064C9.48347 4.18064 9.20015 4.48063 9.13348 4.86397C9.10015 4.8973 9.06681 4.93064 9.05014 4.96397C8.60014 6.19731 8.36683 7.44731 8.00016 8.71397C7.61683 10.014 7.03349 11.4806 6.43349 12.6306C5.21682 14.9473 3.06682 18.064 2.05015 20.4473C0.133482 24.914 -0.599856 28.714 1.96681 33.164C2.53348 34.1473 3.30016 35.114 4.30016 35.814C5.43349 36.6306 6.78347 37.0973 8.26681 37.1473C9.76681 37.1973 11.2835 36.814 12.6168 36.2473C13.7668 35.764 14.8335 35.0973 15.7502 34.314C16.6502 33.5306 17.4168 32.6306 17.9501 31.6306C18.6001 30.414 19.0002 29.164 19.0835 27.8306C19.1668 26.4806 19.0168 25.1306 18.8002 23.7973ZM3.58348 22.7473C3.61681 22.2973 3.71683 21.864 3.83349 21.4473C3.98349 20.8973 4.48347 20.5473 5.03347 20.5306C5.5668 20.514 6.11681 20.9306 6.23347 21.4473C6.31681 21.814 6.35015 22.1806 6.26681 22.5473C6.18348 22.914 5.96683 23.164 5.73349 23.464C5.66683 23.5306 5.58348 23.5973 5.48348 23.664C5.23348 23.864 4.91682 23.964 4.58349 23.914C4.05016 23.8473 3.51682 23.3473 3.56682 22.764L3.58348 22.7473ZM6.83347 34.6306C5.95014 34.3973 5.11683 33.7473 4.48349 33.0806C3.86683 32.414 3.38348 31.6473 3.06682 30.814C2.86682 30.2806 2.75014 29.6973 2.71681 29.114C2.71681 28.9973 2.71681 28.8806 2.71681 28.764C2.71681 28.714 2.71681 28.664 2.71681 28.614C2.65014 28.1806 2.61683 27.7473 2.63349 27.2973C2.66683 26.4806 2.76681 25.5473 3.55014 25.0973C4.16681 24.7473 4.80016 24.864 5.31683 25.214C5.46683 25.2973 5.60015 25.414 5.70015 25.5473C5.83349 25.6973 5.95014 25.864 6.05014 26.0473C6.28347 26.4973 6.45016 26.9806 6.56683 27.464C6.61683 27.6806 6.66681 27.8806 6.73348 28.0973C6.76681 28.1973 6.78348 28.2973 6.81682 28.3806C6.83348 28.4473 6.90015 28.564 6.91681 28.6306C6.91681 28.6473 6.93349 28.6806 6.95015 28.6973C7.00015 28.7806 7.05015 28.864 7.10015 28.9473C7.15015 29.014 7.20014 29.0973 7.25014 29.164C7.25014 29.1473 7.21681 29.1306 7.20014 29.114C7.23348 29.1473 7.25016 29.1806 7.26682 29.1973C7.28349 29.2306 7.31682 29.2473 7.31682 29.264C7.55015 29.5473 7.81682 29.814 8.10016 30.0473C8.40016 30.314 8.73348 30.5306 9.00015 30.8306C9.45015 31.3306 9.76682 31.9306 9.76682 32.614C9.76682 34.1306 8.23348 34.9806 6.86681 34.614L6.83347 34.6306Z" fill="#FF5500"/>
    <path d="M26.9337 9.31456C26.5004 7.79789 25.8004 6.36455 25.1837 4.93122C24.867 4.21455 24.567 3.51456 24.2504 2.79789C23.917 2.04789 23.4837 1.33123 23.0504 0.63123C22.5504 -0.16877 21.267 0.347896 21.517 1.28123C21.5504 1.41456 21.6004 1.56456 21.6337 1.6979C21.4337 2.78123 21.1337 3.83123 20.7004 4.84789C20.167 6.08123 19.517 7.26456 19.017 8.51456C18.117 10.7979 17.9004 13.3479 19.467 15.3812C20.1337 16.2312 21.0504 16.9146 22.1337 17.0646C23.3504 17.2479 24.4837 16.8479 25.4337 16.0646C27.417 14.4479 27.6004 11.5979 26.9504 9.29789L26.9337 9.31456ZM24.9337 12.8646C24.817 13.2979 24.6837 13.5312 24.3837 13.9979C24.3337 14.0646 24.2337 14.1979 24.067 14.3646C24.0004 14.4479 23.917 14.5146 23.8337 14.5979C23.8337 14.5979 23.6504 14.7479 23.667 14.7312C23.5337 14.8312 23.3837 14.9146 23.217 14.9979L23.017 15.0646C22.9837 15.0646 22.7004 15.1312 22.7337 15.1312C21.9837 15.2146 21.3504 14.8979 20.8004 14.2979C19.9504 13.3812 19.7837 12.1979 19.917 11.0146C19.9504 10.6479 20.4337 10.5312 20.6337 10.8479C21.2004 11.7812 22.0837 12.4812 23.217 12.5646C23.867 12.6146 25.067 12.2646 24.9004 12.8646H24.9337Z" fill="#FF5500"/>
</svg>