<svg xmlns="http://www.w3.org/2000/svg" width="42" height="40" viewBox="0 0 42 40" fill="none">
    <path fill-rule="evenodd" clip-rule="evenodd" d="M11.5179 18.9429C14.0512 19.1595 13.7679 20.6095 13.5679 22.9095C13.4345 27.7429 12.3345 27.5595 10.7012 27.5095C10.2012 27.5095 9.93453 28.6929 10.4845 28.7762C13.1679 29.4429 14.1512 28.3762 14.8845 26.3929C15.5791 24.3218 15.6659 22.095 15.1345 19.9762C14.8963 19.2127 14.3915 18.5603 13.7123 18.1381C13.033 17.7159 12.2246 17.5519 11.4345 17.6762C11.2666 17.6872 11.1099 17.7646 10.9989 17.8912C10.8879 18.0177 10.8318 18.1832 10.8429 18.3512C10.8539 18.5192 10.9312 18.6759 11.0578 18.7868C11.1844 18.8978 11.3499 18.9539 11.5179 18.9429Z" fill="#2F4027"/>
    <path d="M11.3835 17.3476C12.2524 17.2111 13.1414 17.3911 13.8884 17.8554C14.6354 18.3199 15.1905 19.0372 15.4525 19.8769L15.459 19.8948C16.0059 22.0754 15.9151 24.3682 15.2002 26.4996L15.197 26.5078C14.825 27.5138 14.3644 28.3669 13.5954 28.8597C12.8139 29.3603 11.7897 29.4433 10.4037 29.0989C10.1391 29.0468 9.97624 28.8596 9.90238 28.6562C9.83114 28.4594 9.83382 28.2386 9.87145 28.0475C9.9097 27.8536 9.99174 27.6528 10.1156 27.4925C10.2375 27.3347 10.4349 27.1767 10.7015 27.1767H10.7113C11.1368 27.1897 11.4726 27.2075 11.7692 27.1621C12.0475 27.1194 12.2652 27.0239 12.4496 26.8186C12.6435 26.6027 12.8275 26.2356 12.9688 25.6012C13.1094 24.9693 13.201 24.0987 13.2341 22.901L13.2357 22.8798L13.309 22.0595C13.3306 21.8036 13.3472 21.5639 13.3545 21.3385C13.3692 20.8882 13.3426 20.5308 13.2504 20.248C13.1621 19.9777 13.0126 19.7705 12.7588 19.6132C12.4942 19.4495 12.0949 19.3265 11.4893 19.2747C11.2506 19.2779 11.0186 19.1952 10.8382 19.0371C10.6453 18.8678 10.5263 18.6291 10.5095 18.373C10.4927 18.1169 10.5795 17.8645 10.7487 17.6715C10.9114 17.486 11.1386 17.3712 11.3835 17.3476ZM13.7123 18.1381C13.033 17.7159 12.2246 17.5519 11.4345 17.6762C11.2666 17.6872 11.1099 17.7646 10.9989 17.8912C10.8879 18.0177 10.8318 18.1832 10.8429 18.3512C10.8539 18.5192 10.9312 18.6759 11.0578 18.7868C11.1844 18.8978 11.3499 18.9539 11.5179 18.9429C14.0512 19.1595 13.7679 20.6095 13.5679 22.9095C13.4345 27.7429 12.3345 27.5595 10.7012 27.5095C10.2012 27.5095 9.93453 28.6929 10.4845 28.7762C13.1679 29.4429 14.1512 28.3762 14.8845 26.3929C15.5791 24.3218 15.6659 22.095 15.1345 19.9762C14.8963 19.2127 14.3915 18.5603 13.7123 18.1381Z" fill="#2F4027"/>
    <path fill-rule="evenodd" clip-rule="evenodd" d="M39.9512 20.6929C39.479 19.8457 38.8031 19.1297 37.9845 18.6095C38.7852 15.646 38.7852 12.5231 37.9845 9.55953C36.9012 5.25953 34.6512 2.69286 28.3345 1.22619C24.9304 0.288505 21.3488 0.196961 17.9012 0.959528C11.3179 2.62619 9.01787 7.62619 8.16787 14.2929C7.28673 14.2776 6.41641 14.4887 5.6402 14.906C4.86398 15.3233 4.20783 15.9328 3.73453 16.6762C0.984533 21.3095 -0.898801 28.3095 4.31787 30.3262C5.59247 30.7663 6.96031 30.864 8.28453 30.6095C9.28453 30.2929 9.48453 29.6429 9.71786 28.5929C10.0012 26.0262 10.7179 17.7762 10.6012 17.7929C10.6012 16.4762 10.4179 15.1595 9.2512 14.6095C10.6512 5.57619 14.6012 2.57619 21.8012 2.30953C25.879 2.21915 29.9069 3.22037 33.4679 5.20953C36.8012 7.47619 37.8012 14.2095 36.8012 18.1429C34.8345 17.6429 34.0345 18.9095 33.4679 20.6762C32.9345 22.7762 31.5679 28.8929 31.0679 31.2595C30.9012 32.9262 31.0679 33.8095 34.0512 34.3929C33.7512 35.2429 33.1179 36.6262 31.8679 36.9095C30.153 37.4004 28.3235 37.3066 26.6679 36.6429C26.8887 35.8319 26.795 34.9675 26.4056 34.2227C26.0162 33.4779 25.3598 32.9076 24.5679 32.6262C24.5029 32.576 24.4278 32.5405 24.3478 32.5222C24.2677 32.5038 24.1847 32.5031 24.1043 32.5201C24.024 32.537 23.9483 32.5712 23.8825 32.6203C23.8167 32.6694 23.7623 32.7322 23.7232 32.8044C23.684 32.8765 23.661 32.9563 23.6558 33.0383C23.6505 33.1202 23.6632 33.2023 23.6928 33.2789C23.7224 33.3555 23.7683 33.4247 23.8273 33.4818C23.8863 33.5389 23.957 33.5825 24.0345 33.6095C24.3685 33.7487 24.6604 33.9724 24.8817 34.2586C25.1029 34.5449 25.2457 34.8838 25.2962 35.242C25.3467 35.6003 25.303 35.9655 25.1694 36.3017C25.0359 36.6379 24.817 36.9336 24.5345 37.1595C24.0392 37.5107 23.4388 37.6822 22.8327 37.6459C22.2266 37.6095 21.651 37.3674 21.2012 36.9595C20.8304 36.7175 20.5479 36.3619 20.396 35.946C20.2441 35.5301 20.231 35.0762 20.3586 34.6522C20.4862 34.2282 20.7476 33.8568 21.1038 33.5938C21.46 33.3307 21.8918 33.1901 22.3345 33.1929C22.4067 33.2062 22.4809 33.2035 22.5518 33.185C22.6228 33.1664 22.6888 33.1325 22.7452 33.0856C22.8016 33.0386 22.847 32.9799 22.8782 32.9134C22.9093 32.847 22.9254 32.7746 22.9254 32.7012C22.9254 32.6278 22.9093 32.5554 22.8782 32.4889C22.847 32.4225 22.8016 32.3638 22.7452 32.3168C22.6888 32.2699 22.6228 32.236 22.5518 32.2174C22.4809 32.1989 22.4067 32.1962 22.3345 32.2095C21.6062 32.1601 20.881 32.3429 20.2631 32.7317C19.6453 33.1205 19.1667 33.6953 18.8963 34.3733C18.6258 35.0514 18.5774 35.7977 18.7579 36.505C18.9385 37.2123 19.3388 37.8441 19.9012 38.3095C20.2867 38.7093 20.7489 39.0272 21.26 39.2443C21.7712 39.4615 22.3208 39.5734 22.8762 39.5734C23.4316 39.5734 23.9812 39.4615 24.4924 39.2443C25.0035 39.0272 25.4657 38.7093 25.8512 38.3095C26.4512 37.5095 26.0512 37.5929 26.5512 37.8929C27.6735 38.5401 28.915 38.954 30.2012 39.1095C31.2379 39.2402 32.2876 39.0032 33.1677 38.4398C34.0478 37.8765 34.7024 37.0224 35.0179 36.0262C35.7012 34.1595 35.0179 34.6262 35.8012 34.5762C39.8512 34.3429 41.1179 30.2929 40.9679 26.2429C40.9174 24.3515 40.5744 22.4793 39.9512 20.6929ZM9.31787 16.6429C9.18722 20.5714 8.67933 24.4782 7.8012 28.3095C7.5512 29.2595 4.61787 29.0929 3.41787 27.5095C2.86194 26.4447 2.65773 25.231 2.83453 24.0429C2.97558 22.1799 3.47947 20.3625 4.31787 18.6929C4.5664 18.0307 4.90878 17.4076 5.33453 16.8429C6.7512 15.4262 9.1512 14.8595 9.31787 16.6429ZM38.9845 28.9095C38.7857 30.1078 38.2004 31.2082 37.3179 32.0429C35.6512 33.2095 32.8512 32.4762 32.9012 31.4929C33.1959 28.2201 33.6969 24.9692 34.4012 21.7595C34.9012 19.6762 35.3345 18.2595 37.3179 19.6762C38.1085 20.2503 38.6649 21.0908 38.8845 22.0429C39.4006 24.2992 39.4347 26.6391 38.9845 28.9095Z" fill="#2F4027"/>
    <path d="M17.8291 0.633738C21.3254 -0.139618 24.9575 -0.046572 28.4102 0.902293L29.5593 1.19201C32.1381 1.90376 33.9941 2.84517 35.347 4.08426C36.8968 5.50381 37.7544 7.28618 38.306 9.47326L38.4492 10.0413C39.1003 12.8133 39.0692 15.7022 38.363 18.4641C39.0328 18.9276 39.6063 19.5161 40.0459 20.2008L40.2429 20.5312L40.2559 20.5556L40.2656 20.5833C40.8999 22.4013 41.2491 24.3063 41.3008 26.2311L41.3122 27.0026C41.2979 28.8013 40.9916 30.5782 40.2559 31.9944C39.4053 33.6317 37.9786 34.7834 35.8206 34.9078L35.8223 34.9095C35.7668 34.913 35.717 34.9096 35.6725 34.9095C35.6649 34.9607 35.6581 35.0197 35.6449 35.0852C35.5971 35.3221 35.5058 35.6542 35.334 36.1253L35.3356 36.1269C34.9967 37.1974 34.2924 38.1159 33.3467 38.7213C32.4012 39.3262 31.2735 39.5809 30.1598 39.4407C28.8297 39.2796 27.5461 38.8503 26.3854 38.1809L26.3789 38.1793C26.3697 38.1738 26.3616 38.1668 26.3529 38.1614C26.2948 38.256 26.2214 38.3725 26.1185 38.5097L26.1055 38.526L26.0908 38.5406C25.6742 38.9726 25.1751 39.3167 24.6227 39.5514C24.0704 39.786 23.4764 39.9062 22.8763 39.9062C22.2763 39.9062 21.6822 39.786 21.1299 39.5514C20.5892 39.3217 20.1007 38.9858 19.6895 38.5667L19.4665 38.3665C18.9665 37.8813 18.6079 37.2663 18.4346 36.5875C18.2366 35.8121 18.2896 34.9936 18.5859 34.2503C18.8825 33.507 19.4078 32.8765 20.085 32.4501C20.7593 32.0258 21.5509 31.824 22.3457 31.8756C22.4429 31.8662 22.5406 31.8704 22.6354 31.8951C22.7536 31.926 22.8637 31.983 22.9577 32.0611C23.0517 32.1394 23.1288 32.2369 23.1807 32.3476C23.2324 32.4581 23.2587 32.5788 23.2588 32.7008C23.2588 32.8231 23.2326 32.9449 23.1807 33.0556C23.1288 33.1662 23.0516 33.2639 22.9577 33.3421C22.8638 33.42 22.7535 33.4772 22.6354 33.5081C22.5364 33.5339 22.4341 33.5358 22.3327 33.5244C21.9622 33.522 21.6006 33.6413 21.3024 33.8613C21.0042 34.0816 20.7843 34.3933 20.6774 34.7483C20.5707 35.1033 20.5812 35.4841 20.7083 35.8323C20.8038 36.0935 20.9621 36.3255 21.1657 36.511L21.3838 36.6803L21.405 36.6949L21.4245 36.7128C21.8179 37.0695 22.3218 37.2815 22.8519 37.3134C23.3822 37.3452 23.9077 37.1942 24.3412 36.887C24.5712 36.6988 24.7505 36.4554 24.8604 36.179C24.9725 35.8966 25.0085 35.5896 24.9662 35.2887C24.9238 34.9878 24.8037 34.7023 24.6178 34.4619C24.4321 34.2216 24.1869 34.0334 23.9066 33.9166C23.7909 33.8733 23.6846 33.8073 23.5957 33.7213C23.502 33.6307 23.4295 33.5206 23.3825 33.399C23.3355 33.2774 23.3156 33.1467 23.3239 33.0166C23.3323 32.8867 23.3677 32.7599 23.4297 32.6455C23.4919 32.5308 23.5791 32.4305 23.6836 32.3525C23.7879 32.2748 23.908 32.2215 24.0352 32.1946C24.1628 32.1677 24.2954 32.1688 24.4225 32.1979C24.5254 32.2215 24.6208 32.266 24.709 32.3232C25.5668 32.6364 26.2777 33.2581 26.7012 34.068C27.082 34.7965 27.2024 35.6286 27.0544 36.4313C28.5709 36.9761 30.2223 37.0339 31.7761 36.5891L31.794 36.5843L31.9828 36.5305C32.4125 36.3791 32.7612 36.0617 33.0456 35.6679C33.2827 35.3395 33.4632 34.9712 33.6006 34.636C32.3336 34.3538 31.5479 33.9898 31.1152 33.4381C30.6303 32.8194 30.6535 32.051 30.736 31.2262L30.7376 31.2083L30.7425 31.1904C31.2428 28.8226 32.6098 22.7018 33.1449 20.5947L33.1497 20.5735C33.4354 19.6831 33.7988 18.8521 34.3835 18.3144C34.9316 17.8105 35.639 17.5972 36.5482 17.7513C36.959 15.8764 36.9385 13.4125 36.4343 11.1236C35.8997 8.69765 34.8435 6.55003 33.2832 5.48725C29.7807 3.53595 25.8206 2.55232 21.8119 2.64057L21.8135 2.6422C18.2539 2.77404 15.5581 3.57961 13.5778 5.41564C11.6282 7.22347 10.3217 10.0779 9.61785 14.4293C10.1633 14.7587 10.49 15.2515 10.679 15.8063C10.8841 16.4081 10.9308 17.0931 10.933 17.7464C10.935 17.7572 10.9388 17.7655 10.9395 17.7708C10.9442 17.8057 10.947 17.844 10.9476 17.8766C10.9489 17.9466 10.9456 18.044 10.9411 18.1598C10.9319 18.3937 10.9118 18.7285 10.8841 19.1347C10.8287 19.9484 10.7417 21.0605 10.6416 22.2516C10.4416 24.6335 10.1913 27.3423 10.0492 28.6302L10.0475 28.6481L10.0427 28.666C9.92764 29.1835 9.80977 29.6633 9.57228 30.0511C9.32102 30.4608 8.95123 30.7475 8.38575 30.9267L8.36622 30.9332L8.34669 30.9365C6.96549 31.2018 5.53877 31.1009 4.20932 30.6419L4.19793 30.637C2.82061 30.1045 1.89449 29.2341 1.34148 28.1451C0.792456 27.0639 0.623091 25.7908 0.706716 24.4619C0.873723 21.809 2.05748 18.8483 3.4476 16.5061L3.45248 16.4964C3.95627 15.7055 4.6562 15.0574 5.48211 14.6132C6.22158 14.2157 7.04156 13.9945 7.87794 13.9638C8.31421 10.7267 9.10568 7.85427 10.6058 5.56863C12.158 3.20381 14.451 1.48977 17.8193 0.636993L17.8291 0.633738ZM28.3345 1.22619C24.9304 0.288505 21.3488 0.196961 17.9012 0.959528C11.3179 2.62619 9.01787 7.62619 8.16787 14.2929C7.28673 14.2776 6.41641 14.4887 5.6402 14.906C4.86398 15.3233 4.20783 15.9328 3.73453 16.6762C0.984533 21.3095 -0.898801 28.3095 4.31787 30.3262C5.59247 30.7663 6.96031 30.864 8.28453 30.6095C9.28453 30.2929 9.48453 29.6429 9.71786 28.5929C10.0012 26.0262 10.7179 17.7762 10.6012 17.7929C10.6012 16.4762 10.4179 15.1595 9.2512 14.6095C10.6512 5.57619 14.6012 2.57619 21.8012 2.30953C25.879 2.21915 29.9069 3.22037 33.4679 5.20953C36.8012 7.47619 37.8012 14.2095 36.8012 18.1429C34.8345 17.6429 34.0345 18.9095 33.4679 20.6762C32.9345 22.7762 31.5679 28.8929 31.0679 31.2595C30.9012 32.9262 31.0679 33.8095 34.0512 34.3929C33.7512 35.2429 33.1179 36.6262 31.8679 36.9095C30.153 37.4004 28.3235 37.3066 26.6679 36.6429C26.8887 35.8319 26.795 34.9675 26.4056 34.2227C26.0162 33.4779 25.3598 32.9076 24.5679 32.6262C24.5029 32.576 24.4278 32.5405 24.3478 32.5222C24.2677 32.5038 24.1847 32.5031 24.1043 32.5201C24.024 32.537 23.9483 32.5712 23.8825 32.6203C23.8167 32.6694 23.7623 32.7322 23.7232 32.8044C23.684 32.8765 23.661 32.9563 23.6558 33.0383C23.6505 33.1202 23.6632 33.2023 23.6928 33.2789C23.7224 33.3555 23.7683 33.4247 23.8273 33.4818C23.8863 33.5389 23.957 33.5825 24.0345 33.6095C24.3685 33.7487 24.6604 33.9724 24.8817 34.2586C25.1029 34.5449 25.2457 34.8838 25.2962 35.242C25.3467 35.6003 25.303 35.9655 25.1694 36.3017C25.0359 36.6379 24.817 36.9336 24.5345 37.1595C24.0392 37.5107 23.4388 37.6822 22.8327 37.6459C22.2266 37.6095 21.651 37.3674 21.2012 36.9595C20.8304 36.7175 20.5479 36.3619 20.396 35.946C20.2441 35.5301 20.231 35.0762 20.3586 34.6522C20.4862 34.2282 20.7476 33.8568 21.1038 33.5938C21.46 33.3307 21.8918 33.1901 22.3345 33.1929C22.4067 33.2062 22.4809 33.2035 22.5518 33.185C22.6228 33.1664 22.6888 33.1325 22.7452 33.0856C22.8016 33.0386 22.847 32.9799 22.8782 32.9134C22.9093 32.847 22.9254 32.7746 22.9254 32.7012C22.9254 32.6278 22.9093 32.5554 22.8782 32.4889C22.847 32.4225 22.8016 32.3638 22.7452 32.3168C22.6888 32.2699 22.6228 32.236 22.5518 32.2174C22.4809 32.1989 22.4067 32.1962 22.3345 32.2095C21.6062 32.1601 20.881 32.3429 20.2631 32.7317C19.6453 33.1205 19.1667 33.6953 18.8963 34.3733C18.6258 35.0514 18.5774 35.7977 18.7579 36.505C18.9385 37.2123 19.3388 37.8441 19.9012 38.3095C20.2867 38.7093 20.7489 39.0272 21.26 39.2443C21.7712 39.4615 22.3208 39.5734 22.8762 39.5734C23.4316 39.5734 23.9812 39.4615 24.4924 39.2443C25.0035 39.0272 25.4657 38.7093 25.8512 38.3095C26.4512 37.5095 26.0512 37.5929 26.5512 37.8929C27.6735 38.5401 28.915 38.954 30.2012 39.1095C31.2379 39.2402 32.2876 39.0032 33.1677 38.4398C34.0478 37.8765 34.7024 37.0224 35.0179 36.0262C35.7012 34.1595 35.0179 34.6262 35.8012 34.5762C39.8512 34.3429 41.1179 30.2929 40.9679 26.2429C40.9174 24.3515 40.5744 22.4793 39.9512 20.6929C39.479 19.8457 38.8031 19.1297 37.9845 18.6095C38.7852 15.646 38.7852 12.5231 37.9845 9.55953C36.9012 5.25953 34.6512 2.69286 28.3345 1.22619ZM34.4012 21.7595C34.9012 19.6762 35.3345 18.2595 37.3179 19.6762C38.1085 20.2503 38.6649 21.0908 38.8845 22.0429C39.4006 24.2992 39.4347 26.6391 38.9845 28.9095C38.7857 30.1078 38.2004 31.2082 37.3179 32.0429C35.6512 33.2095 32.8512 32.4762 32.9012 31.4929C33.1959 28.2201 33.6969 24.9692 34.4012 21.7595ZM36.0615 19.4423C35.8441 19.4198 35.6875 19.486 35.544 19.636C35.3845 19.8027 35.24 20.0761 35.1029 20.4661C34.968 20.8498 34.8499 21.3109 34.7253 21.83C34.025 25.0211 33.5264 28.254 33.2328 31.5078L33.2344 31.5094C33.2307 31.5811 33.2779 31.7173 33.5208 31.8805C33.7534 32.0365 34.1039 32.172 34.5234 32.2467C35.3606 32.3956 36.3683 32.2864 37.1065 31.7796C37.9251 30.9972 38.4705 29.9723 38.6559 28.8548L38.6576 28.845L38.8008 28.0084C39.083 26.0493 39.0022 24.0524 38.5599 22.1181L38.4704 21.7958C38.228 21.0562 37.7584 20.4079 37.1244 19.9469L36.7907 19.7288C36.4816 19.5447 36.2437 19.4612 36.0615 19.4423ZM5.33453 16.8429C6.7512 15.4262 9.1512 14.8595 9.31787 16.6429C9.18722 20.5714 8.67933 24.4782 7.8012 28.3095C7.5512 29.2595 4.61787 29.0929 3.41787 27.5095C2.86194 26.4447 2.65773 25.231 2.83453 24.0429C2.97558 22.1799 3.47947 20.3625 4.31787 18.6929C4.5664 18.0307 4.90878 17.4076 5.33453 16.8429ZM7.83399 15.8746C7.13013 15.9594 6.25075 16.4052 5.58627 17.0628C5.18655 17.5968 4.86372 18.1846 4.62924 18.8092L4.62436 18.8271L4.61622 18.8417C3.79734 20.4725 3.30543 22.2484 3.16765 24.068L3.16603 24.0794L3.1644 24.0924C2.99975 25.1995 3.18682 26.3298 3.69825 27.3248C4.22966 28.0122 5.15759 28.4167 6.00945 28.5292C6.43594 28.5856 6.81538 28.5644 7.08855 28.4869C7.37015 28.4071 7.45616 28.2949 7.47592 28.2281C8.34669 24.427 8.85203 20.5516 8.98308 16.6542C8.94593 16.3027 8.80942 16.1096 8.64291 16.0016C8.46047 15.8834 8.18723 15.8322 7.83399 15.8746Z" fill="#2F4027"/>
    <path fill-rule="evenodd" clip-rule="evenodd" d="M30.4845 29.9762C28.9345 29.3762 27.8012 29.3762 29.1179 24.7262C29.3679 23.6095 29.6012 22.2929 30.7845 21.7429C31.0189 21.6057 31.2799 21.5198 31.5499 21.4911C31.82 21.4624 32.0932 21.4914 32.3512 21.5762C32.9679 21.5762 33.1345 20.5595 32.6845 20.4429C31.9649 20.0788 31.1377 19.9879 30.3563 20.1871C29.5748 20.3863 28.892 20.8621 28.4345 21.5262C27.3113 23.3724 26.7335 25.4988 26.7679 27.6595C26.7309 28.2687 26.868 28.8758 27.1631 29.4099C27.4582 29.9441 27.8992 30.3833 28.4345 30.6762C28.8979 30.9287 29.4087 31.082 29.9345 31.1262C30.6679 31.0929 30.9845 30.1262 30.4845 29.9762Z" fill="#2F4027"/>
    <path d="M30.2743 19.8641C31.1246 19.6474 32.0231 19.7445 32.8085 20.1343C33.0318 20.2079 33.1647 20.3847 33.2252 20.5623C33.2871 20.7447 33.2852 20.9476 33.2431 21.1287C33.1626 21.4749 32.8791 21.91 32.3512 21.91H32.2974L32.247 21.8921C32.0339 21.8221 31.8075 21.7984 31.5845 21.8221C31.3617 21.8459 31.1465 21.9172 30.953 22.0304L30.94 22.0386L30.9254 22.0451C30.4286 22.276 30.1224 22.6682 29.9065 23.1567C29.6855 23.6569 29.5709 24.2259 29.4426 24.799L29.4394 24.8169C29.1128 25.9704 28.943 26.8196 28.8909 27.452C28.8387 28.0857 28.9069 28.473 29.0276 28.7264C29.1431 28.9689 29.3241 29.1249 29.5859 29.2602C29.8684 29.4063 30.1869 29.5038 30.6047 29.6655L30.6031 29.6671C30.8357 29.7456 30.9821 29.9234 31.036 30.131C31.0877 30.3304 31.0543 30.542 30.9807 30.7218C30.8334 31.0812 30.4712 31.4351 29.9504 31.4591L29.9276 31.4608L29.9065 31.4591C29.3348 31.411 28.7794 31.2437 28.2756 30.9692C27.6849 30.6459 27.1967 30.1606 26.871 29.5711C26.5454 28.9816 26.394 28.3113 26.4348 27.6391C26.4044 25.4243 26.9989 23.246 28.1503 21.3533L28.1601 21.3371L28.3603 21.0734C28.8529 20.4807 29.5221 20.0558 30.2743 19.8641ZM32.6845 20.4429C31.9649 20.0788 31.1377 19.9879 30.3563 20.1871C29.5748 20.3863 28.892 20.8621 28.4345 21.5262C27.3113 23.3724 26.7335 25.4988 26.7679 27.6595C26.7309 28.2687 26.868 28.8758 27.1631 29.4099C27.4582 29.9441 27.8992 30.3833 28.4345 30.6762C28.8979 30.9287 29.4087 31.082 29.9345 31.1262C30.6679 31.0929 30.9845 30.1262 30.4845 29.9762C28.9345 29.3762 27.8012 29.3762 29.1179 24.7262C29.3679 23.6095 29.6012 22.2929 30.7845 21.7429C31.0189 21.6057 31.2799 21.5198 31.5499 21.4911C31.82 21.4624 32.0932 21.4914 32.3512 21.5762C32.9679 21.5762 33.1345 20.5595 32.6845 20.4429Z" fill="#2F4027"/>
</svg>