<svg xmlns="http://www.w3.org/2000/svg" width="24" height="24" viewBox="0 0 24 24" fill="none">
    <path d="M12.1286 3.5C12.0615 3.50977 11.9972 3.53321 11.9395 3.56889C11.8819 3.60457 11.8322 3.65171 11.7936 3.70739C11.6528 4.14784 11.5618 4.60268 11.5224 5.06339L11.3309 7.64777C11.3309 8.55709 11.2193 9.45045 11.2033 10.3438V11.0457H9.91112C7.77342 11.0457 5.73145 11.2212 4.07234 11.1893C3.94541 11.1893 3.82368 11.2397 3.73392 11.3295C3.64417 11.4193 3.59375 11.541 3.59375 11.6679C3.59375 11.7948 3.64417 11.9166 3.73392 12.0063C3.82368 12.0961 3.94541 12.1465 4.07234 12.1465C6.30153 12.5059 8.5491 12.7402 10.8045 12.8484H11.299V13.4387V16.5017L11.1714 19.0063V20.107V20.2187C11.2512 20.4899 11.4745 20.5218 11.6979 20.4899C11.9212 20.458 12.1605 20.4899 12.2243 20.2187V20.107L12.3401 18.9413L12.6231 16.6612C12.8104 15.4512 12.9276 14.2314 12.9741 13.008V12.8644H14.6811C16.9783 12.8644 19.116 12.6091 20.7272 12.5134C20.8711 12.5134 21.009 12.4563 21.1108 12.3546C21.2125 12.2528 21.2696 12.1149 21.2696 11.971C21.2696 11.8272 21.2125 11.6892 21.1108 11.5875C21.009 11.4858 20.8711 11.4286 20.7272 11.4286C19.1319 11.3329 17.09 11.2053 14.8565 11.1255H12.9581V9.84928C12.9581 9.13139 12.8465 8.42946 12.7986 7.71158V5.46121L12.697 4.42194C12.697 4.42194 12.6231 4.05756 12.6072 3.97859C12.5996 3.85413 12.5468 3.73675 12.4586 3.64858C12.3704 3.56041 12.253 3.50756 12.1286 3.5Z" fill="#2F4027"/>
</svg>