<svg xmlns="http://www.w3.org/2000/svg" width="41" height="42" viewBox="0 0 41 42" fill="none">
    <path d="M32.7814 18.8561C32.7493 18.7099 32.6621 18.5816 32.538 18.4978C32.4139 18.4141 32.2624 18.3812 32.1147 18.4061C32.0398 18.4181 31.968 18.4451 31.9037 18.4854C31.8394 18.5257 31.7838 18.5785 31.7403 18.6406C31.6968 18.7028 31.6662 18.7731 31.6503 18.8473C31.6345 18.9216 31.6337 18.9982 31.6481 19.0728C31.8758 20.7683 31.9705 22.4791 31.9314 24.1894C31.9314 29.0394 31.4814 34.9894 31.4647 36.4228C31.4647 36.9061 30.9314 37.0728 30.3647 37.2894C29.2814 37.6894 27.8647 37.8728 27.0314 38.1061C25.1355 38.584 23.1995 38.8853 21.2481 39.0061C18.3147 39.2061 15.3481 39.1061 12.2981 39.0061C10.9647 39.0061 8.49808 39.1061 6.29808 38.9228C5.14173 38.9038 4.00372 38.6307 2.96474 38.1228C2.87126 37.7831 2.7989 37.438 2.74808 37.0894C2.53884 34.8738 2.46648 32.6473 2.53141 30.4228C2.53141 25.7228 2.83141 20.2894 3.09808 17.7228C3.11827 16.3316 3.24643 14.9441 3.48141 13.5728C3.65235 12.8304 4.10698 12.1843 4.74808 11.7728C6.74297 10.932 8.88331 10.4903 11.0481 10.4728C15.3814 10.1894 20.1481 10.4728 21.1981 10.4728C21.3171 10.4511 21.4248 10.3884 21.5023 10.2955C21.5799 10.2026 21.6223 10.0854 21.6223 9.96443C21.6223 9.84343 21.5799 9.72628 21.5023 9.63338C21.4248 9.54048 21.3171 9.47774 21.1981 9.4561C17.2266 9.16934 13.2411 9.13037 9.26474 9.33943C7.45922 9.39805 5.6821 9.80554 4.03141 10.5394C3.5449 10.8353 3.122 11.2249 2.78725 11.6855C2.45251 12.1461 2.21259 12.6687 2.08141 13.2228C1.76792 14.6881 1.57285 16.1762 1.49808 17.6728C1.13141 20.6728 0.648075 27.5228 0.631409 32.6728C0.56137 34.6832 0.712274 36.6953 1.08141 38.6728C1.1786 39.0839 1.40671 39.4524 1.73141 39.7228C2.73166 40.3679 3.87773 40.7518 5.06474 40.8394C7.45266 41.0574 9.85262 41.1131 12.2481 41.0061C15.3481 41.0061 18.3647 41.0061 21.3314 40.7728C23.3875 40.6039 25.4238 40.2468 27.4147 39.7061C28.8287 39.4277 30.2128 39.0147 31.5481 38.4728C31.95 38.304 32.2962 38.0252 32.5468 37.6684C32.7974 37.3117 32.9423 36.8915 32.9647 36.4561C32.9647 35.0228 33.2481 29.0728 33.1647 24.2228C33.1725 22.4268 33.0444 20.6328 32.7814 18.8561Z" fill="#2F4027"/>
    <path d="M39.7481 3.6561C39.6215 2.91444 39.2728 2.22866 38.7481 1.68943C36.9487 0.899257 34.9379 0.729242 33.0314 1.2061C29.0279 1.8675 25.1134 2.98592 21.3647 4.53943C21.1385 4.63398 20.9509 4.80251 20.8329 5.01746C20.7148 5.23242 20.6731 5.48107 20.7147 5.72277C20.7511 5.90888 20.8282 6.08463 20.9406 6.23736C21.053 6.3901 21.1979 6.51603 21.3647 6.6061C22.9869 7.21515 24.6602 7.6781 26.3647 7.98943C26.6362 8.06739 26.8987 8.17352 27.1481 8.3061C25.6981 9.97277 23.4647 12.7061 21.0814 15.7228C13.1647 25.4561 12.8314 26.0061 13.8314 27.5061C14.4314 28.4394 15.8647 28.7561 17.2814 27.5061C25.6147 20.8394 30.3981 17.2228 32.8814 15.2728L33.7481 14.6228C34.2294 15.8038 34.8505 16.9229 35.5981 17.9561C35.8368 18.2887 36.1896 18.5218 36.5892 18.611C36.9888 18.7001 37.4073 18.6391 37.7647 18.4394C38.5492 17.7913 39.0948 16.8997 39.3147 15.9061C39.8077 14.0443 40.0817 12.1314 40.1314 10.2061C40.2694 8.0153 40.1407 5.81585 39.7481 3.6561ZM38.2481 10.1394C38.2201 11.9042 37.9909 13.66 37.5647 15.3728C37.4619 15.815 37.2993 16.2411 37.0814 16.6394C36.9147 16.3728 36.4481 16.0728 36.2147 15.6561C35.5647 14.5228 34.9981 13.1728 34.7147 12.7561C34.635 12.6585 34.5346 12.5798 34.4207 12.5258C34.3069 12.4718 34.1824 12.4438 34.0564 12.4438C33.9304 12.4438 33.8059 12.4718 33.6921 12.5258C33.5782 12.5798 33.4778 12.6585 33.3981 12.7561C32.9061 13.2504 32.3828 13.7125 31.8314 14.1394C29.3981 16.0061 24.5981 19.7394 16.4814 26.6394C15.7981 27.2061 15.1314 27.2894 14.8147 26.8561C14.1647 25.8894 15.1814 24.5394 21.9147 16.4561C24.8647 12.9394 27.5481 9.78943 28.9314 8.4061C29.0437 8.26683 29.1049 8.09333 29.1049 7.91443C29.1049 7.73554 29.0437 7.56203 28.9314 7.42277C28.457 7.00256 27.8834 6.71005 27.2647 6.57277C26.1814 6.23943 23.9314 6.03943 22.8314 5.68943C25.6951 4.68787 28.6315 3.9078 31.6147 3.3561C33.0958 3.05524 34.6034 2.90448 36.1147 2.9061C36.6014 2.88423 37.0849 2.99361 37.5147 3.22277C37.6814 3.33943 37.7147 3.67277 37.8147 4.08943C38.2042 6.08104 38.3497 8.11265 38.2481 10.1394Z" fill="#2F4027"/>
</svg>