<svg xmlns="http://www.w3.org/2000/svg" width="42" height="41" viewBox="0 0 42 41" fill="none">
    <path fill-rule="evenodd" clip-rule="evenodd" d="M30.6296 32.7546C30.3463 32.3379 29.9463 31.9546 29.6796 31.6046C29.0629 30.8379 28.4296 30.0546 27.7463 29.3212C27.2941 28.808 26.8157 28.3184 26.3129 27.8546C25.9204 27.4652 25.4967 27.1085 25.0463 26.7879C24.6371 26.5175 24.1678 26.3515 23.6796 26.3046C23.2865 26.2972 22.8994 26.4012 22.5629 26.6046C21.7796 27.0379 20.7129 28.1212 19.7296 28.7879C19.5274 28.9201 19.3157 29.0371 19.0963 29.1379C18.9796 29.1379 18.8463 29.2546 18.7629 29.1379L13.4129 22.9212C12.6963 22.1212 11.7463 21.2546 10.8463 20.1712C10.3395 19.6057 9.9437 18.9499 9.67959 18.2379C9.67959 17.9546 9.81292 17.6879 10.0629 17.3712C10.7629 16.5046 11.9463 15.6046 12.6629 14.7546C13.0643 14.3677 13.3623 13.8864 13.5296 13.3546C13.5556 13.0646 13.4916 12.7736 13.3463 12.5212C13.1463 12.1546 12.7963 11.8379 12.6629 11.6879L9.64626 7.77124C9.55775 7.7039 9.44988 7.66691 9.33867 7.66578C9.22746 7.66464 9.11885 7.69942 9.02899 7.76494C8.93913 7.83047 8.87281 7.92324 8.83989 8.02947C8.80696 8.1357 8.8092 8.24972 8.84626 8.35458L11.7129 12.1879L12.3796 13.0712C12.3796 13.5046 11.8296 13.9379 11.2796 14.4379C10.4244 15.1508 9.62229 15.9251 8.87959 16.7546C8.66961 17.0025 8.51853 17.2947 8.43771 17.6093C8.35688 17.924 8.34841 18.2529 8.41292 18.5712C8.70542 19.4552 9.16359 20.2754 9.76292 20.9879C10.5796 22.0379 11.5963 23.0379 12.3129 23.8546L17.4629 30.1712C17.7017 30.479 18.0332 30.7018 18.4083 30.8068C18.7834 30.9119 19.1823 30.8936 19.5463 30.7546C20.5932 30.2854 21.5604 29.6556 22.4129 28.8879C22.6974 28.6455 22.9981 28.4228 23.3129 28.2212C23.4129 28.2212 23.5963 28.2212 23.5963 28.1046C23.8117 28.157 24.0116 28.2598 24.1796 28.4046C24.4963 28.6546 24.7796 28.9379 25.0463 29.1879C25.3129 29.4379 25.9296 30.0712 26.3463 30.5379C26.7629 31.0046 27.5796 32.0046 28.1629 32.7546C28.3963 33.0379 28.6963 33.3379 28.9463 33.6712C29.0423 33.7931 29.1208 33.9277 29.1796 34.0712C29.4129 34.7879 28.7796 35.3546 28.1296 35.8546C27.3269 36.4539 26.4239 36.9054 25.4629 37.1879C22.1388 38.1318 18.585 37.8356 15.4629 36.3546C12.2925 34.7829 9.4919 32.556 7.24626 29.8212C4.35334 26.714 2.63771 22.6932 2.39626 18.4546C2.21292 13.2046 4.64626 8.90458 7.26292 7.62124C7.38992 7.54785 7.4846 7.4293 7.52811 7.28923C7.57162 7.14915 7.56076 6.99783 7.4977 6.8654C7.43464 6.73297 7.324 6.62915 7.18783 6.57464C7.05166 6.52013 6.89995 6.51891 6.76292 6.57124C3.81292 7.95458 0.996257 12.6379 0.996257 18.4879C1.15384 23.1003 2.92307 27.5116 5.99626 30.9546C8.33892 33.9385 11.3016 36.378 14.6796 38.1046C18.2064 39.8162 22.2378 40.1778 26.0129 39.1212C27.4687 38.6917 28.8117 37.9462 29.9463 36.9379C30.4245 36.5415 30.7824 36.0194 30.9797 35.4304C31.177 34.8414 31.2059 34.2091 31.0629 33.6046C30.9632 33.3006 30.817 33.0139 30.6296 32.7546Z" fill="#2F4027"/>
    <path d="M6.64404 6.25942C6.85931 6.17726 7.09745 6.18031 7.31136 6.26593C7.52514 6.35151 7.69887 6.51384 7.79801 6.72166C7.89699 6.92951 7.91492 7.16745 7.84684 7.38735C7.77851 7.60734 7.62956 7.79446 7.43018 7.90981L7.41064 7.9212C6.19065 8.51987 4.97238 9.84684 4.08057 11.6956C3.19259 13.5365 2.64118 15.8671 2.72966 18.4355L2.78988 19.2135C3.15461 22.8285 4.6138 26.247 6.97119 29.0117L7.4904 29.5944L7.50505 29.609C9.71912 32.3053 12.4787 34.5021 15.604 36.0527C18.6529 37.4991 22.125 37.7882 25.3713 36.8665C26.2933 36.5951 27.1597 36.1623 27.9299 35.5872C28.2537 35.3379 28.5364 35.0984 28.7144 34.8499C28.8824 34.6154 28.9335 34.4075 28.8641 34.1842C28.8179 34.0749 28.7585 33.9716 28.6851 33.8782L28.6802 33.8717C28.564 33.7169 28.4336 33.5668 28.2993 33.416C28.1683 33.2688 28.0275 33.115 27.9054 32.9668L27.8989 32.9586C27.3176 32.2112 26.5062 31.2178 26.0972 30.7597C25.6856 30.2988 25.0758 29.6734 24.8179 29.4316C24.5409 29.1719 24.275 28.905 23.9731 28.6666L23.9618 28.6569C23.8788 28.5854 23.785 28.5288 23.6851 28.486C23.6422 28.5073 23.6033 28.5223 23.5728 28.5299C23.5205 28.543 23.4662 28.5482 23.4198 28.5511C23.1444 28.7317 22.8794 28.9283 22.6287 29.1419L22.6271 29.1403C21.7505 29.9283 20.7584 30.5772 19.6828 31.0592L19.6649 31.0657C19.2344 31.2301 18.7626 31.2518 18.3188 31.1276C17.8774 31.004 17.4862 30.7432 17.2039 30.3821L12.0623 24.0752L10.8302 22.734C10.3789 22.2443 9.91124 21.7208 9.50049 21.1927C8.8782 20.4502 8.40026 19.5962 8.09587 18.6764L8.0861 18.6374C8.01161 18.2696 8.02205 17.8891 8.1154 17.5257C8.20877 17.1627 8.38263 16.8254 8.62484 16.5394L8.63135 16.5329C9.38166 15.6949 10.1914 14.9115 11.0549 14.1907C11.3434 13.9284 11.5979 13.714 11.7905 13.5039C11.9298 13.3519 11.9973 13.2398 12.0265 13.1588L11.4471 12.389L11.4455 12.3873L8.57926 8.55434L8.54834 8.51365L8.53206 8.46645C8.4711 8.29394 8.46814 8.10573 8.5223 7.93097C8.57647 7.75623 8.68536 7.60418 8.83317 7.4964C8.98101 7.3886 9.15965 7.33014 9.34261 7.33201C9.4797 7.3335 9.61344 7.36901 9.73324 7.43292L9.8488 7.50616L9.88298 7.53221L9.91064 7.56801L12.9152 11.4694C13.0165 11.5819 13.4174 11.9541 13.6395 12.3613C13.8165 12.6716 13.8927 13.0291 13.8608 13.3851L13.8576 13.4209L13.8478 13.4551C13.6655 14.0345 13.3407 14.5583 12.9054 14.9818C12.5327 15.4213 12.0466 15.87 11.5838 16.3001C11.1073 16.7431 10.6548 17.1695 10.3224 17.581C10.1124 17.8477 10.0321 18.0302 10.0181 18.1881C10.2351 18.7515 10.539 19.2767 10.9198 19.7441L11.0939 19.9492L11.1021 19.9573C11.5435 20.4887 11.9988 20.9702 12.4367 21.4206C12.8711 21.8673 13.2964 22.2917 13.6606 22.6982L13.6655 22.7031L18.9357 28.8278C18.9519 28.8233 18.9711 28.8188 18.9927 28.8148C19.184 28.7248 19.3707 28.6245 19.5477 28.5088C20.0204 28.1877 20.516 27.7649 21.0077 27.3532C21.3682 27.0512 21.7329 26.7494 22.0721 26.5182L22.4009 26.3131C22.7885 26.0815 23.2334 25.963 23.6851 25.9713H23.6981L23.7111 25.973C24.1177 26.0121 24.5127 26.1257 24.8765 26.3066L25.2297 26.5101L25.2394 26.5166C25.7046 26.8476 26.1426 27.2164 26.548 27.6185C27.054 28.0858 27.5346 28.5781 27.9901 29.0947L28.5011 29.6595C28.6681 29.8501 28.8326 30.0424 28.9943 30.2357L29.9399 31.3961L29.9448 31.4027C30.0688 31.5654 30.2242 31.7364 30.3989 31.9349C30.5663 32.125 30.7471 32.3358 30.9002 32.5599L31.0467 32.7796C31.139 32.9305 31.2196 33.0883 31.2876 33.2516L31.3804 33.5006L31.3836 33.5137L31.3869 33.5283C31.544 34.1931 31.5127 34.889 31.2957 35.5368C31.0787 36.1844 30.6856 36.7594 30.1597 37.1953L30.158 37.1937C28.9887 38.2306 27.606 38.999 26.1069 39.4414L26.1021 39.443C22.2489 40.5212 18.1344 40.1514 14.5347 38.4046L14.5282 38.4013C11.1134 36.6559 8.1177 34.1908 5.74723 31.1764C2.62226 27.6753 0.822843 23.1892 0.662598 18.499V18.4876C0.662646 15.5101 1.37972 12.824 2.47738 10.7012C3.5719 8.58449 5.05938 7.0016 6.62126 6.26919L6.64404 6.25942ZM7.18783 6.57464C7.05166 6.52013 6.89995 6.51891 6.76292 6.57124C3.81292 7.95458 0.996257 12.6379 0.996257 18.4879C1.15384 23.1003 2.92307 27.5116 5.99626 30.9546C8.33892 33.9385 11.3016 36.378 14.6796 38.1046C18.2064 39.8162 22.2378 40.1778 26.0129 39.1212C27.4687 38.6917 28.8117 37.9462 29.9463 36.9379C30.4245 36.5415 30.7824 36.0194 30.9797 35.4304C31.177 34.8414 31.2059 34.2091 31.0629 33.6046C30.9632 33.3006 30.817 33.0139 30.6296 32.7546C30.3463 32.3379 29.9463 31.9546 29.6796 31.6046C29.0629 30.8379 28.4296 30.0546 27.7463 29.3212C27.2941 28.808 26.8157 28.3184 26.3129 27.8546C25.9204 27.4652 25.4967 27.1085 25.0463 26.7879C24.6371 26.5175 24.1678 26.3515 23.6796 26.3046C23.2865 26.2972 22.8994 26.4012 22.5629 26.6046C21.7796 27.0379 20.7129 28.1212 19.7296 28.7879C19.5274 28.9201 19.3157 29.0371 19.0963 29.1379C18.9796 29.1379 18.8463 29.2546 18.7629 29.1379L13.4129 22.9212C12.6963 22.1212 11.7463 21.2546 10.8463 20.1712C10.3395 19.6057 9.9437 18.9499 9.67959 18.2379C9.67959 17.9546 9.81292 17.6879 10.0629 17.3712C10.7629 16.5046 11.9463 15.6046 12.6629 14.7546C13.0643 14.3677 13.3623 13.8864 13.5296 13.3546C13.5556 13.0646 13.4916 12.7736 13.3463 12.5212C13.1463 12.1546 12.7963 11.8379 12.6629 11.6879L9.64626 7.77124C9.55775 7.7039 9.44988 7.66691 9.33867 7.66578C9.22746 7.66464 9.11885 7.69942 9.02899 7.76494C8.93913 7.83047 8.87281 7.92324 8.83989 8.02947C8.80696 8.1357 8.8092 8.24972 8.84626 8.35458L11.7129 12.1879L12.3796 13.0712C12.3796 13.5046 11.8296 13.9379 11.2796 14.4379C10.4244 15.1508 9.62229 15.9251 8.87959 16.7546C8.66961 17.0025 8.51853 17.2947 8.43771 17.6093C8.35688 17.924 8.34841 18.2529 8.41292 18.5712C8.70542 19.4552 9.16359 20.2754 9.76292 20.9879C10.5796 22.0379 11.5963 23.0379 12.3129 23.8546L17.4629 30.1712C17.7017 30.479 18.0332 30.7018 18.4083 30.8068C18.7834 30.9119 19.1823 30.8936 19.5463 30.7546C20.5932 30.2854 21.5604 29.6556 22.4129 28.8879C22.6974 28.6455 22.9981 28.4228 23.3129 28.2212C23.4129 28.2212 23.5963 28.2212 23.5963 28.1046C23.8117 28.157 24.0116 28.2598 24.1796 28.4046C24.4963 28.6546 24.7796 28.9379 25.0463 29.1879C25.3129 29.4379 25.9296 30.0712 26.3463 30.5379C26.7629 31.0046 27.5796 32.0046 28.1629 32.7546C28.3963 33.0379 28.6963 33.3379 28.9463 33.6712C29.0423 33.7931 29.1208 33.9277 29.1796 34.0712C29.4129 34.7879 28.7796 35.3546 28.1296 35.8546C27.3269 36.4539 26.4239 36.9054 25.4629 37.1879C22.1388 38.1318 18.585 37.8356 15.4629 36.3546C12.2925 34.7829 9.4919 32.556 7.24626 29.8212C4.35334 26.714 2.63771 22.6932 2.39626 18.4546C2.21292 13.2046 4.64626 8.90458 7.26292 7.62124C7.38992 7.54785 7.4846 7.4293 7.52811 7.28923C7.57162 7.14915 7.56076 6.99783 7.4977 6.8654C7.43464 6.73297 7.324 6.62915 7.18783 6.57464Z" fill="#2F4027"/>
    <path fill-rule="evenodd" clip-rule="evenodd" d="M40.4795 1.92134C40.3018 1.57585 40.0351 1.28405 39.7069 1.07603C39.3788 0.868016 39.0011 0.751328 38.6128 0.738008C38.5471 0.72177 38.4785 0.72177 38.4128 0.738008C38.0488 0.607753 37.6623 0.552044 37.2763 0.574194C36.8903 0.596343 36.5127 0.695899 36.1659 0.86694C35.8192 1.03798 35.5104 1.27701 35.2579 1.56982C35.0054 1.86262 34.8143 2.20321 34.6962 2.57134C34.4845 2.95507 34.3562 3.37911 34.3195 3.81579C34.2829 4.25247 34.3387 4.69198 34.4834 5.10562C34.6281 5.51926 34.8584 5.89774 35.1593 6.21635C35.4601 6.53496 35.8248 6.78654 36.2295 6.95467C37.1044 7.28786 38.0712 7.28786 38.9462 6.95467C39.3868 6.79417 39.786 6.53731 40.1147 6.20284C40.4435 5.86836 40.6933 5.46471 40.8462 5.02134C40.995 4.5063 41.0393 3.96667 40.9763 3.43426C40.9133 2.90185 40.7444 2.38744 40.4795 1.92134ZM39.3295 4.40467C39.2294 4.60157 39.0884 4.77481 38.916 4.91278C38.7435 5.05075 38.5435 5.15027 38.3295 5.20467C37.8878 5.36374 37.4045 5.36374 36.9628 5.20467C36.7752 5.13109 36.605 5.01919 36.463 4.87613C36.321 4.73307 36.2105 4.56198 36.1383 4.37379C36.0662 4.1856 36.0341 3.98443 36.044 3.78314C36.054 3.58184 36.1058 3.38483 36.1962 3.20467C36.4962 2.27134 37.2462 1.40467 38.2128 1.80467H38.3628C38.434 1.82167 38.5083 1.82167 38.5795 1.80467C39.0628 1.80467 39.2962 2.30467 39.4295 2.77134C39.5857 3.311 39.5504 3.8881 39.3295 4.40467Z" fill="#2F4027"/>
    <path d="M37.2576 0.240542C37.6606 0.217501 38.0628 0.27558 38.4458 0.401675C38.5053 0.396299 38.5639 0.397656 38.6232 0.406558L38.6248 0.404931C39.0718 0.420401 39.5067 0.554551 39.8846 0.793928C40.2628 1.0337 40.5716 1.37063 40.7765 1.76886H40.7749C41.0579 2.27047 41.2394 2.8228 41.3071 3.39484C41.3753 3.97143 41.3267 4.55581 41.1655 5.11359L41.1622 5.12987L40.8465 5.02082L41.1606 5.12987C40.9916 5.62007 40.7151 6.06701 40.3517 6.43683C39.9883 6.80643 39.5464 7.09114 39.0594 7.26854L39.0577 7.26691C38.1081 7.62682 37.0594 7.62678 36.1102 7.26528L36.102 7.26203C35.6541 7.07594 35.2501 6.79758 34.9171 6.44497C34.5842 6.09241 34.3286 5.67382 34.1684 5.21613C34.0082 4.75825 33.9472 4.27048 33.9878 3.78709C34.0273 3.31743 34.1623 2.86106 34.3849 2.44595C34.5172 2.04416 34.7287 1.6727 35.005 1.3522C35.2867 1.02554 35.6322 0.758505 36.019 0.567691C36.4057 0.377079 36.8272 0.265239 37.2576 0.240542ZM37.2755 0.574201C36.8897 0.596415 36.5121 0.696212 36.1655 0.86717C35.8189 1.0382 35.5097 1.27758 35.2573 1.5703C35.005 1.86298 34.8139 2.20337 34.6958 2.57127C34.4842 2.95496 34.3564 3.37976 34.3198 3.81639C34.2833 4.25276 34.338 4.6921 34.4825 5.10545C34.6272 5.51905 34.8588 5.89689 35.1596 6.21548C35.4604 6.53401 35.8244 6.78628 36.229 6.95441C37.1037 7.28755 38.0706 7.28745 38.9454 6.95441C39.386 6.79393 39.7854 6.53687 40.1141 6.20246C40.4428 5.86798 40.6937 5.46418 40.8465 5.02082C40.9952 4.50593 41.0396 3.96614 40.9767 3.4339C40.9137 2.90163 40.7435 2.38786 40.4786 1.92186C40.3009 1.57641 40.0352 1.28351 39.7072 1.0755C39.3792 0.867633 39.0014 0.752045 38.6134 0.738589C38.5479 0.722384 38.4788 0.722448 38.4132 0.738589C38.0492 0.608335 37.6615 0.552052 37.2755 0.574201ZM36.1964 3.20441C36.4965 2.27117 37.2464 1.40471 38.213 1.80467H38.3628C38.4339 1.82162 38.5081 1.82164 38.5792 1.80467C39.0626 1.80467 39.2955 2.3048 39.4288 2.77147C39.585 3.31089 39.5502 3.88757 39.3296 4.40395C39.2295 4.60085 39.0886 4.77542 38.9161 4.91339C38.7437 5.05131 38.5426 5.15035 38.3286 5.20474C37.8872 5.3635 37.4043 5.36357 36.963 5.20474C36.7755 5.13119 36.6053 5.0189 36.4633 4.87596C36.3214 4.7329 36.21 4.56122 36.1378 4.37303C36.0659 4.18502 36.0335 3.98328 36.0434 3.78221C36.0535 3.58118 36.1062 3.38433 36.1964 3.20441ZM38.0844 2.11229C37.7327 1.96703 37.4314 2.04367 37.1648 2.26203C36.8832 2.49286 36.6508 2.8808 36.5138 3.30695L36.5057 3.33136L36.4943 3.35415C36.4247 3.49289 36.3847 3.64509 36.3771 3.80011C36.3695 3.95481 36.3933 4.10958 36.4487 4.25421C36.5042 4.39914 36.59 4.53141 36.6993 4.64158C36.8083 4.75132 36.9396 4.83559 37.0835 4.89224C37.4501 5.02235 37.8501 5.02249 38.2163 4.89061L38.2309 4.88573L38.2472 4.88084C38.4151 4.83814 38.5725 4.76118 38.7078 4.65298C38.8418 4.54576 38.9501 4.41011 39.0284 4.25747C39.2131 3.81583 39.2429 3.3244 39.1098 2.86424L39.1082 2.86261C39.045 2.64157 38.9669 2.44572 38.8673 2.31086C38.7743 2.18491 38.6848 2.13833 38.5792 2.13833V2.1367C38.5068 2.14667 38.4352 2.14667 38.3628 2.1367V2.13833H38.1463L38.0844 2.11229Z" fill="#2F4027"/>
    <path fill-rule="evenodd" clip-rule="evenodd" d="M29.9629 0.604554H29.8462C29.7601 0.533818 29.6564 0.487741 29.5462 0.471221C28.6942 0.379807 27.8336 0.529973 27.0629 0.904554C26.245 1.24831 25.5485 1.82871 25.0629 2.57122C24.8086 3.01128 24.6505 3.50018 24.5988 4.00576C24.5471 4.51134 24.603 5.02214 24.7629 5.50455C24.9495 6.03453 25.2813 6.50143 25.7203 6.85208C26.1594 7.20273 26.6881 7.42303 27.2462 7.48789C28.2317 7.58331 29.2189 7.32321 30.0295 6.75455C30.8391 6.22353 31.4307 5.419 31.6962 4.48789C31.8982 3.60309 31.7985 2.67612 31.4129 1.85455C31.2716 1.5567 31.0696 1.29165 30.8199 1.0764C30.5702 0.861141 30.2783 0.700427 29.9629 0.604554ZM30.1795 4.07122C29.9582 4.59303 29.5638 5.02268 29.0629 5.28789C28.5999 5.5739 28.0525 5.69162 27.5129 5.62122C27.2987 5.59704 27.0948 5.5164 26.922 5.38755C26.7492 5.2587 26.6138 5.08627 26.5295 4.88789C26.3302 4.39045 26.3302 3.83532 26.5295 3.33789C26.7744 2.80454 27.1679 2.35316 27.6629 2.03789C28.1623 1.71271 28.7353 1.51789 29.3295 1.47122C29.4061 1.57518 29.5099 1.65593 29.6295 1.70455C29.8108 1.80369 29.9658 1.9446 30.0818 2.11561C30.1977 2.28662 30.2712 2.4828 30.2962 2.68789C30.386 3.15091 30.3456 3.62977 30.1795 4.07122Z" fill="#2F4027"/>
    <path d="M29.5816 0.139172L29.5963 0.1408C29.722 0.159734 29.8417 0.205184 29.9495 0.271008H30.0129L30.0601 0.285657C30.4197 0.395021 30.752 0.578999 31.0367 0.824394C31.3215 1.0699 31.5526 1.37174 31.7138 1.71144V1.71307C32.1309 2.60174 32.2398 3.60428 32.0214 4.56137L32.0165 4.57928C31.73 5.58399 31.0917 6.45062 30.2196 7.02557L30.2213 7.02719C29.3456 7.64153 28.2782 7.92293 27.2135 7.81984H27.2069V7.81821C26.5871 7.74603 26.0002 7.50128 25.5126 7.11183C25.025 6.72236 24.6556 6.20463 24.4482 5.61606L24.4465 5.60955C24.2719 5.08256 24.211 4.52448 24.2675 3.97218C24.324 3.41996 24.4961 2.88549 24.7737 2.4048L24.7834 2.38852L24.9902 2.09718C25.4951 1.43826 26.1644 0.919775 26.9335 0.596529C27.6526 0.250375 28.4439 0.0856813 29.2382 0.114758L29.5816 0.139172ZM29.5458 0.471204C28.6939 0.379855 27.8327 0.529608 27.0621 0.904146C26.2446 1.24784 25.5489 1.82871 25.0634 2.57081C24.8092 3.01088 24.6496 3.50078 24.5979 4.00636C24.5463 4.51142 24.6027 5.02181 24.7623 5.50376C24.9489 6.03373 25.2819 6.50076 25.7209 6.85141C26.1599 7.20199 26.688 7.42294 27.246 7.48781C28.2316 7.58323 29.2186 7.32242 30.0292 6.75376C30.8386 6.22279 31.4304 5.41904 31.6959 4.48813C31.8979 3.60335 31.7983 2.67622 31.4127 1.85467C31.2714 1.55696 31.0698 1.29187 30.8202 1.07667C30.5705 0.861417 30.2779 0.70054 29.9625 0.604667H29.8453C29.7593 0.534132 29.6558 0.487697 29.5458 0.471204ZM29.3293 1.47055C29.4058 1.57439 29.5094 1.65629 29.6288 1.70493C29.8099 1.80396 29.9654 1.94432 30.0813 2.11508C30.1972 2.28609 30.2712 2.48291 30.2961 2.688C30.3859 3.15099 30.345 3.63005 30.179 4.07146C29.9575 4.5931 29.5633 5.02214 29.0624 5.28728C28.5995 5.57327 28.0525 5.69131 27.5129 5.62094C27.2989 5.59678 27.0948 5.51686 26.9221 5.3882C26.7495 5.2595 26.6141 5.08661 26.5299 4.88852C26.3305 4.39109 26.3305 3.83485 26.5299 3.33741C26.7747 2.80445 27.168 2.35374 27.6627 2.03859C28.1621 1.71342 28.7352 1.51723 29.3293 1.47055ZM29.2008 1.81886C28.7178 1.88028 28.2542 2.05059 27.845 2.31691L27.8417 2.31853C27.4026 2.59823 27.0525 2.99832 26.8342 3.47088C26.6706 3.88615 26.6731 4.34859 26.8391 4.7632C26.9003 4.90454 26.9972 5.0274 27.1207 5.11964C27.2461 5.21319 27.3949 5.27298 27.5504 5.29054H27.5553C28.0189 5.35102 28.4905 5.24981 28.8883 5.00408L28.9062 4.99269L29.064 4.90154C29.421 4.67161 29.7018 4.33903 29.8697 3.94614C30.0117 3.56453 30.0465 3.15131 29.969 2.75148L29.9641 2.72869V2.72706C29.9454 2.57502 29.8922 2.42907 29.8062 2.30226C29.72 2.17513 29.6041 2.06997 29.4693 1.99627V1.99464C29.3706 1.95006 29.2805 1.89122 29.2008 1.81886Z" fill="#2F4027"/>
    <path fill-rule="evenodd" clip-rule="evenodd" d="M16.896 6.8046C17.7784 7.06679 18.7231 7.02572 19.5794 6.68793C20.0233 6.51705 20.4255 6.25313 20.759 5.91392C21.0924 5.5747 21.3494 5.16804 21.5127 4.72127C21.6728 4.21644 21.7185 3.68229 21.6464 3.15761C21.5744 2.63293 21.3863 2.13089 21.096 1.68793C20.9272 1.42094 20.7029 1.19343 20.4383 1.02088C20.1737 0.84832 19.8751 0.734765 19.5627 0.687932C18.8276 0.352933 18.0084 0.248345 17.2127 0.387932C16.6182 0.497591 16.0748 0.795607 15.6627 1.23793C15.3168 1.64269 15.0619 2.11704 14.9152 2.62887C14.7686 3.14071 14.7336 3.67808 14.8127 4.2046C14.8745 4.792 15.1036 5.3493 15.473 5.81022C15.8423 6.27114 16.3362 6.61628 16.896 6.8046ZM16.896 2.17127C17.0065 2.01308 17.1474 1.87853 17.3106 1.77551C17.4737 1.67248 17.6557 1.60304 17.846 1.57127C18.1272 1.52208 18.4148 1.52208 18.696 1.57127C18.7485 1.67425 18.8304 1.75932 18.9313 1.8157C19.0321 1.87208 19.1475 1.89722 19.2627 1.88793C19.7294 1.88793 19.996 2.27127 20.146 2.7046C20.3307 3.17029 20.3307 3.68891 20.146 4.1546C20.0316 4.36159 19.8767 4.54348 19.6906 4.68949C19.5045 4.8355 19.291 4.94266 19.0627 5.0046C18.5853 5.15437 18.0735 5.15437 17.596 5.0046C17.3705 4.92136 17.172 4.77794 17.0222 4.58991C16.8723 4.40187 16.7768 4.17639 16.746 3.93793C16.6408 3.6529 16.594 3.34963 16.6083 3.04614C16.6226 2.74264 16.6978 2.44512 16.8294 2.17127H16.896Z" fill="#2F4027"/>
    <path d="M17.1543 0.0591971C18.0025 -0.0896167 18.8759 0.0191204 19.6624 0.368442C20.0038 0.426703 20.3307 0.55181 20.6211 0.741163C20.9239 0.938728 21.1807 1.19938 21.3747 1.50451C21.6921 1.98886 21.8981 2.53887 21.9769 3.11258C22.0556 3.68604 22.0053 4.2698 21.8304 4.82157L21.8255 4.83622C21.6459 5.32745 21.3637 5.77507 20.9971 6.14806C20.6304 6.52104 20.1879 6.81133 19.6999 6.9993L19.6982 6.99767C18.7735 7.36175 17.7538 7.40771 16.8011 7.12463L16.7897 7.12137V7.11974C16.1695 6.91105 15.6217 6.52853 15.2126 6.01786C14.8036 5.50723 14.5502 4.88952 14.4818 4.23888L14.4834 4.23726C14.4004 3.66877 14.4358 3.08882 14.5941 2.53641C14.7539 1.97883 15.0327 1.46206 15.4095 1.02111L15.4193 1.00972C15.88 0.515466 16.4882 0.183398 17.1527 0.0608247L17.1543 0.0591971ZM19.5631 0.687452C18.8281 0.352477 18.0085 0.24843 17.2129 0.387973C16.6186 0.497588 16.0754 0.795551 15.6634 1.23758C15.3175 1.64234 15.0614 2.11735 14.9147 2.62918C14.7682 3.14089 14.7331 3.67833 14.8122 4.20471C14.8739 4.79191 15.1038 5.3487 15.473 5.80952C15.8422 6.27026 16.336 6.61562 16.8955 6.80399C17.7778 7.06617 18.7232 7.02617 19.5794 6.68843C20.0233 6.51754 20.426 6.25291 20.7594 5.91369C21.0927 5.57454 21.3498 5.16728 21.513 4.72066C21.6729 4.21619 21.7184 3.68244 21.6465 3.15816C21.5744 2.63367 21.3865 2.13126 21.0963 1.68843C20.9276 1.42159 20.7032 1.19363 20.4388 1.02111C20.1743 0.848622 19.8754 0.734318 19.5631 0.687452ZM17.846 1.57124C18.1271 1.52208 18.4146 1.52213 18.6956 1.57124C18.7481 1.67422 18.8307 1.759 18.9316 1.81538C19.0323 1.87158 19.1471 1.89775 19.262 1.88862C19.7285 1.88862 19.9958 2.27094 20.1458 2.70405C20.3305 3.16967 20.3304 3.68862 20.1458 4.15425C20.0313 4.36124 19.8762 4.54372 19.6901 4.68973C19.5043 4.83538 19.2912 4.94193 19.0635 5.00386C18.586 5.15363 18.0728 5.15363 17.5954 5.00386C17.3703 4.92065 17.1721 4.77802 17.0225 4.59045C16.8726 4.40241 16.7765 4.17624 16.7458 3.93778C16.6406 3.65281 16.5947 3.34927 16.609 3.04585C16.6234 2.74272 16.6974 2.4454 16.8288 2.17183H16.8955C17.006 2.01364 17.1474 1.87772 17.3105 1.77469C17.4736 1.67179 17.6559 1.603 17.846 1.57124ZM18.5052 1.88211C18.3049 1.85998 18.1019 1.86522 17.903 1.90002H17.9014C17.7548 1.92449 17.6136 1.97855 17.4879 2.0579C17.3626 2.13718 17.2539 2.24066 17.1689 2.36226L17.0697 2.50386H17.0517C16.9878 2.6831 16.9501 2.8713 16.9411 3.06213C16.9289 3.32075 16.9686 3.57931 17.0583 3.82222L17.0713 3.85803L17.0762 3.89546C17.0992 4.07349 17.171 4.24172 17.2829 4.38211C17.3928 4.52009 17.538 4.62548 17.7028 4.6881C18.1132 4.81533 18.5525 4.81506 18.9626 4.68648L18.9756 4.68322C19.1607 4.63297 19.3341 4.54609 19.485 4.42769C19.6312 4.31296 19.7511 4.16915 19.8431 4.00777C19.9874 3.62715 19.9868 3.20671 19.8366 2.82775L19.8301 2.8131V2.81148C19.6889 2.4049 19.4978 2.22066 19.262 2.22066C19.0902 2.22934 18.9194 2.19078 18.7689 2.10672C18.6666 2.04957 18.5782 1.97225 18.5052 1.88211Z" fill="#2F4027"/>
</svg>