<svg xmlns="http://www.w3.org/2000/svg" width="41" height="40" viewBox="0 0 41 40" fill="none">
    <path d="M3.81968 9.70992C0.188136 15.6694 0.956347 23.4912 3.02819 28.8221C4.2164 31.5957 6.15138 33.9849 8.61752 35.7235C11.0837 37.4622 13.9841 38.4819 16.9957 38.6692C22.8932 39.3203 28.8127 37.6505 33.5006 34.0133C39.0177 29.5205 40.4843 20.5114 37.8305 13.0621C31.5451 -4.88611 9.45324 0.514652 3.81968 9.70992ZM35.5026 12.7595C35.4311 12.7028 35.3489 12.6612 35.2608 12.6372C35.1728 12.6132 35.0808 12.6073 34.9905 12.6198C32.3366 12.8526 29.613 13.0388 26.8893 13.2251V12.8526C25.9231 9.421 24.6613 6.07959 23.1181 2.86585C25.9207 3.13246 28.5848 4.21031 30.7844 5.96749C32.984 7.72466 34.6236 10.0849 35.5026 12.7595ZM25.1899 20.4416C25.1994 21.6238 25.1372 22.8054 25.0037 23.98C24.0027 23.98 23.025 23.98 22.024 23.7938C20.4875 23.6541 18.9511 23.5144 17.3681 23.4213H15.0402C14.9591 22.1811 14.9591 20.9369 15.0402 19.6967C15.0402 18.6258 15.1333 17.555 15.3196 16.4841C16.7396 16.4841 18.1364 16.4841 19.5331 16.3445C20.9299 16.2048 22.7456 16.0651 24.3286 15.8789H25.0735C25.2229 17.395 25.2618 18.9199 25.1899 20.4416ZM3.72657 15.7858C6.61318 16.135 9.56963 16.3445 12.5261 16.4143C12.3523 17.4469 12.2357 18.4883 12.1769 19.5337C12.115 20.8861 12.1695 22.2413 12.3398 23.5843C10.5706 23.7472 8.80142 23.8869 7.0322 23.9568H4.05247C3.41888 21.2795 3.30822 18.505 3.72657 15.7858ZM21.6515 2.84257C22.6511 5.70147 23.4828 8.61633 24.1424 11.5722C24.2588 12.1542 24.3519 12.7828 24.445 13.3647L19.7892 13.6441L15.5524 13.9002V13.5975C15.8872 11.4138 16.465 9.27441 17.275 7.21905C17.8362 5.89058 18.6239 4.66968 19.6029 3.61078C19.6707 3.49835 19.7065 3.36958 19.7065 3.23831C19.7065 3.10705 19.6707 2.97827 19.6029 2.86585C20.0685 2.81929 21.3722 2.84257 21.6515 2.84257ZM18.2528 3.0288C17.2575 4.04523 16.4111 5.19732 15.7386 6.45084C14.6937 8.55702 13.8669 10.7645 13.271 13.0388C13.271 13.3647 13.1313 13.7139 13.0382 14.0631L9.68603 14.2959H4.02919C4.34327 13.0216 4.82056 11.7932 5.44922 10.6411C7.5909 7.00953 11.4785 4.09964 18.2528 3.0288ZM5.30955 27.9142C4.98939 27.0848 4.71734 26.2376 4.49478 25.3768C5.72857 25.5397 6.98565 25.6794 8.21944 25.726C9.45323 25.7725 11.2224 25.726 12.7356 25.8424V26.1916C13.588 29.7152 15.0792 33.0528 17.1354 36.0386C14.6137 35.8806 12.1821 35.0416 10.0995 33.6109C8.01702 32.1802 6.36158 30.2114 5.30955 27.9142ZM19.277 36.0852C17.3376 32.9778 15.9955 29.5355 15.3196 25.9355C17.9268 25.9355 20.5341 26.3312 23.1414 26.4476H24.7709C24.6312 27.2158 24.5148 27.984 24.3752 28.7755C23.821 31.2924 23.0419 33.7543 22.0473 36.1317C21.0851 36.1826 20.1206 36.1671 19.1606 36.0852H19.277ZM32.0107 32.0346C29.6351 33.8341 26.8804 35.0681 23.9561 35.6429C24.9756 33.5606 25.8166 31.3957 26.4703 29.1713C26.7496 28.2634 26.9592 27.2391 27.1687 26.2381L35.619 24.7017C35.721 24.699 35.8214 24.6753 35.9139 24.6321C36.0064 24.589 36.089 24.5273 36.1567 24.4509C36.2243 24.3745 36.2756 24.2851 36.3072 24.188C36.3389 24.091 36.3503 23.9885 36.3406 23.8869C36.3347 23.786 36.3089 23.6872 36.2647 23.5962C36.2205 23.5053 36.1588 23.424 36.0831 23.3569C36.0074 23.2899 35.9192 23.2384 35.8236 23.2055C35.728 23.1726 35.6268 23.159 35.5259 23.1653C33.198 23.1653 30.7304 23.7007 28.3093 23.9335H27.5644C27.717 22.776 27.787 21.6091 27.7739 20.4416C27.7409 18.795 27.5852 17.1532 27.3083 15.5297C29.9622 15.134 32.5927 14.7149 35.1767 14.2726C35.3438 14.2512 35.4981 14.1719 35.6129 14.0486C35.7277 13.9253 35.7957 13.7657 35.8052 13.5975V13.807C38.0167 20.1855 36.8295 28.2168 31.8943 32.0346H32.0107Z" fill="#2F4027"/>
</svg>