<svg xmlns="http://www.w3.org/2000/svg" width="41" height="29" viewBox="0 0 41 29" fill="none">
    <path fill-rule="evenodd" clip-rule="evenodd" d="M39.9761 13.8416C39.8626 11.8954 39.668 9.93305 39.3923 8.05176C39.2743 6.69679 39.0078 5.35888 38.5976 4.06212C38.3735 3.35803 37.9158 2.75154 37.3002 2.343C36.5833 1.98474 35.8095 1.75423 35.0134 1.66184C33.9119 1.50828 32.8009 1.43241 31.6887 1.43479C29.0776 1.33748 27.4396 1.22396 25.5745 1.22396C24.3906 1.22396 23.1256 1.22396 21.4713 1.36992C18.2277 1.58075 14.8057 1.77537 11.4486 2.19704C9.21087 2.41442 6.98969 2.7774 4.79918 3.28365C4.72835 3.2948 4.66059 3.3205 4.60019 3.35914C4.53979 3.39778 4.48805 3.44852 4.44824 3.50815C4.40842 3.56779 4.3814 3.63503 4.36887 3.70563C4.35634 3.77623 4.35858 3.84866 4.37544 3.91836C4.3923 3.98805 4.42342 4.05349 4.46684 4.11056C4.51025 4.16762 4.56502 4.21507 4.62769 4.24991C4.69037 4.28475 4.75958 4.30623 4.83096 4.31299C4.90235 4.31974 4.97436 4.31163 5.04245 4.28917C7.18045 3.79386 9.34697 3.43097 11.5297 3.20256C14.8706 2.84576 18.2602 2.71602 21.5038 2.55384C23.1256 2.55384 24.3582 2.45653 25.5096 2.55384C27.3585 2.55384 28.9965 2.73224 31.5752 2.86198C32.6231 2.8792 33.6688 2.96589 34.7053 3.12147C35.3299 3.21777 35.9334 3.42075 36.4893 3.72154C36.8922 4.08365 37.1513 4.57878 37.2191 5.11629C37.4642 6.18404 37.6322 7.26804 37.7218 8.3599C37.9651 10.2088 38.1273 12.1225 38.2084 14.0362C38.2895 15.9499 38.3219 17.8475 38.2084 19.7125C38.1889 20.8128 38.0141 21.9047 37.6894 22.9561C37.4826 23.5665 37.1386 24.1213 36.6839 24.578C36.2988 24.8922 35.8316 25.0892 35.3378 25.1456C34.3485 25.3402 33.2294 25.2915 32.4185 25.3889C31.6076 25.4862 30.7967 25.5186 30.1804 25.5348C28.4127 25.5348 27.2774 25.5348 24.7474 25.7294C22.2174 25.9241 19.882 26.1998 17.4168 26.3457C14.9517 26.4917 12.5514 26.6052 10.0863 26.6052C8.87693 26.6936 7.66276 26.6936 6.45342 26.6052C5.72753 26.5338 5.02806 26.2951 4.40995 25.9078C3.98838 25.4936 3.71482 24.9522 3.63148 24.3671C3.36425 23.3003 3.16919 22.2166 3.04763 21.1235C2.61066 18.3527 2.33988 15.5582 2.23673 12.755C2.12487 9.97831 2.22245 7.19715 2.52865 4.43513C2.53774 4.3742 2.53433 4.31205 2.51864 4.25247C2.50294 4.1929 2.47529 4.13714 2.43736 4.08859C2.39943 4.04004 2.35202 3.99971 2.29801 3.97007C2.244 3.94042 2.18453 3.92208 2.1232 3.91615C2.06315 3.90703 2.00185 3.91051 1.94321 3.92636C1.88457 3.94221 1.82987 3.97009 1.78258 4.00822C1.7353 4.04635 1.69646 4.09391 1.66855 4.14786C1.64064 4.20181 1.62425 4.26098 1.62044 4.32161C1.25014 7.14937 1.09292 10.001 1.15012 12.8523C1.19043 15.7071 1.41253 18.5564 1.81506 21.383C1.91852 22.7187 2.16316 24.0398 2.54487 25.324C2.77086 25.9652 3.17614 26.5281 3.71257 26.9458C4.49697 27.4658 5.39029 27.7987 6.32368 27.9189C7.5947 28.0544 8.87348 28.1032 10.1511 28.0648C12.6163 28.0648 15.0976 28.0648 17.579 27.9351C20.0604 27.8053 22.4444 27.6432 24.9744 27.4161C27.5045 27.1891 28.5586 27.3188 30.3102 27.2539C30.9589 27.2539 31.7211 27.2539 32.6618 27.0918C33.8817 27.08 35.0978 26.9551 36.2946 26.7187C36.9009 26.552 37.4575 26.2403 37.9164 25.8105C38.5684 25.1355 39.0566 24.3199 39.3436 23.4265C39.7628 22.2185 40.0085 20.9571 40.0734 19.6801C40.0734 17.7664 40.0734 15.804 39.9761 13.8416Z" fill="#FF5500"/>
    <path d="M25.5741 0.890299C27.4472 0.890299 29.1035 1.00505 31.702 1.10189L31.7004 1.10351C32.8242 1.10168 33.9468 1.17622 35.0598 1.33138H35.0582C35.8904 1.42868 36.6995 1.66972 37.4491 2.04427L37.467 2.05404L37.4849 2.06543C38.1637 2.51595 38.6685 3.18524 38.9156 3.96159L39.0653 4.45801C39.3969 5.61562 39.6171 6.80267 39.7229 8.00293L39.9149 9.43522C40.0922 10.8795 40.2233 12.3554 40.3088 13.8216V13.8249C40.4066 15.7966 40.4065 17.7672 40.4065 19.6794V19.6973C40.3399 21.0054 40.0887 22.2977 39.6594 23.5352C39.3566 24.4743 38.8426 25.3318 38.1571 26.0417L38.1441 26.0547L38.1425 26.0531C37.6442 26.5195 37.0411 26.8584 36.383 27.0394L36.3602 27.0459C35.1508 27.2847 33.9211 27.4102 32.6884 27.4235C31.731 27.5858 30.9537 27.5879 30.3104 27.5879V27.5863C28.518 27.6519 27.5257 27.5211 25.0044 27.7474C22.4699 27.9749 20.0819 28.1383 17.5972 28.2682C15.1083 28.3984 12.6203 28.3968 10.1591 28.3968L10.1607 28.3984C8.86815 28.4372 7.57445 28.3874 6.28862 28.2503H6.28211V28.2487C5.29811 28.122 4.35514 27.7715 3.5282 27.2233L3.51844 27.2168L3.50867 27.2087C2.92189 26.7518 2.4782 26.136 2.231 25.4346L2.22449 25.4183V25.4167C1.83655 24.1109 1.58755 22.7676 1.48231 21.4095V21.4079C1.07989 18.5754 0.857122 15.7203 0.816615 12.8597L0.805222 11.7839C0.802026 9.27469 0.964374 6.76767 1.29025 4.27897H1.29188C1.30095 4.17987 1.32746 4.08265 1.37326 3.99414C1.42239 3.89939 1.49036 3.81538 1.57345 3.74837C1.6567 3.68126 1.75343 3.63304 1.85665 3.60514C1.95382 3.57889 2.05477 3.57296 2.15451 3.58561L2.15613 3.58398C2.16102 3.58446 2.16591 3.58504 2.17078 3.58561L2.17404 3.58724H2.17241C2.27271 3.59914 2.37023 3.62973 2.45887 3.67838C2.55228 3.72973 2.6341 3.79948 2.69975 3.88346C2.76552 3.96765 2.81414 4.06498 2.84135 4.16829C2.86728 4.26711 2.87261 4.36983 2.85926 4.47103C2.55493 7.21616 2.4584 9.98117 2.56954 12.7409V12.7425C2.6722 15.5322 2.942 18.3135 3.37684 21.071L3.38009 21.0872H3.37846C3.49835 22.165 3.69117 23.2335 3.95464 24.2855L3.95952 24.3034L3.96115 24.3197C4.03227 24.819 4.26228 25.2822 4.61544 25.6413C5.18287 25.9909 5.82198 26.2074 6.48556 26.2728H6.48393C7.67486 26.3595 8.87049 26.3598 10.0614 26.2728L10.0744 26.2712H10.0858C12.541 26.2712 14.9341 26.1582 17.397 26.0124C19.8638 25.8663 22.1683 25.5935 24.7212 25.3971C27.2591 25.2019 28.405 25.2018 30.1721 25.2018L31.2072 25.1595C31.583 25.1375 31.9815 25.1063 32.3791 25.0586C32.8001 25.0081 33.3031 24.9944 33.7951 24.9707C34.2976 24.9465 34.804 24.9099 35.273 24.8177L35.286 24.8161L35.3007 24.8145C35.7271 24.7657 36.129 24.5942 36.4628 24.3245C36.8712 23.9094 37.1827 23.4093 37.371 22.8581C37.6864 21.8368 37.8565 20.7758 37.8755 19.707V19.6924C37.988 17.8442 37.9564 15.9599 37.8755 14.0511C37.7948 12.1466 37.634 10.2418 37.3921 8.40332L37.3889 8.38704V8.38542C37.3005 7.3101 37.1355 6.24201 36.8941 5.19043L36.8908 5.17415L36.8892 5.15788C36.8331 4.71306 36.6217 4.30335 36.2951 3.9974C35.7825 3.72509 35.2283 3.53899 34.6545 3.45052C33.6332 3.29729 32.6028 3.21197 31.5702 3.19499H31.5588C28.9565 3.06405 27.3494 2.88742 25.5106 2.88737H25.496L25.4813 2.88574C24.3504 2.79023 23.1701 2.88513 21.5197 2.88574C18.2707 3.04819 14.894 3.17804 11.5653 3.53353C9.39638 3.76049 7.24288 4.12209 5.11837 4.61426L5.11675 4.611C5.01365 4.64095 4.90643 4.65531 4.79936 4.64518C4.68226 4.63405 4.56852 4.59817 4.4657 4.54101C4.36312 4.48394 4.2732 4.40651 4.20203 4.31315C4.13089 4.21964 4.08003 4.11157 4.05229 3.9974C4.02461 3.88296 4.02034 3.76339 4.0409 3.64746C4.06145 3.53167 4.10587 3.42141 4.17111 3.32357C4.23645 3.2257 4.32102 3.14124 4.42013 3.0778C4.51272 3.01857 4.61658 2.97903 4.72449 2.95898L5.55294 2.77506C7.21178 2.42006 8.88692 2.14627 10.5725 1.95475L11.4172 1.86523C14.7835 1.44288 18.2139 1.24712 21.4498 1.03678V1.03841C23.1159 0.891735 24.3912 0.890299 25.5741 0.890299ZM25.5741 1.22396C24.3904 1.22396 23.1249 1.2245 21.4709 1.37044C18.2275 1.58126 14.805 1.77562 11.4481 2.19726C9.21069 2.41465 6.9896 2.77669 4.79936 3.28288C4.7286 3.29401 4.66115 3.3208 4.60079 3.35937C4.54045 3.39798 4.4876 3.44792 4.4478 3.50749C4.40799 3.56712 4.3822 3.63545 4.36967 3.70605C4.35724 3.77637 4.35947 3.84822 4.37619 3.91764C4.39305 3.98734 4.42391 4.05426 4.46733 4.11133C4.51067 4.16811 4.56602 4.21496 4.62846 4.24967C4.69105 4.28441 4.76065 4.30641 4.83191 4.31315C4.90285 4.31976 4.97419 4.31098 5.04188 4.28874C7.17973 3.79346 9.34695 3.43153 11.5295 3.20312C14.8702 2.84635 18.26 2.71588 21.5035 2.55371C23.1253 2.55371 24.3591 2.4564 25.5106 2.55371C27.3591 2.55376 28.997 2.7316 31.5751 2.86133C32.6229 2.87855 33.6686 2.96621 34.705 3.12174C35.3296 3.21804 35.933 3.42159 36.4888 3.72233C36.8916 4.08429 37.1517 4.57833 37.2196 5.11556C37.4647 6.18316 37.6329 7.26768 37.7225 8.35937C37.9658 10.2082 38.1281 12.1227 38.2092 14.0365C38.2903 15.9499 38.3227 17.8471 38.2092 19.7119C38.1897 20.812 38.0146 21.9045 37.69 22.9557C37.4831 23.5661 37.1388 24.1218 36.6841 24.5784C36.2991 24.8925 35.8317 25.0884 35.3381 25.1449C34.3488 25.3395 33.2291 25.2917 32.4182 25.389C31.6075 25.4863 30.7964 25.5193 30.1802 25.5355C28.4127 25.5355 27.2771 25.5346 24.7473 25.7292C22.2174 25.9238 19.8816 26.2001 17.4165 26.346C14.9516 26.492 12.5508 26.6048 10.0858 26.6048C8.87669 26.6931 7.66214 26.6932 6.45301 26.6048C5.72747 26.5333 5.02822 26.2952 4.41037 25.9082C3.9888 25.494 3.71571 24.952 3.63237 24.3669C3.36515 23.3 3.16962 22.2161 3.04806 21.123C2.61116 18.3525 2.34068 15.5584 2.23751 12.7555C2.12565 9.97888 2.22266 7.19721 2.52885 4.43522C2.53792 4.37445 2.53467 4.31236 2.51909 4.25293C2.5034 4.19337 2.47562 4.13708 2.43771 4.08854C2.39978 4.03999 2.35174 3.99937 2.29774 3.96973C2.24391 3.94027 2.18465 3.92194 2.12358 3.91601C2.06352 3.9069 2.00156 3.90993 1.94292 3.92578C1.88444 3.94163 1.83059 3.97077 1.78341 4.00879C1.73638 4.04672 1.69736 4.09354 1.66948 4.14713C1.64161 4.20099 1.6245 4.26077 1.62065 4.32129C1.25038 7.14881 1.09312 10.0005 1.15027 12.8516C1.19058 15.7064 1.41343 18.5569 1.81596 21.3835C1.91945 22.719 2.16348 24.0399 2.54513 25.3239C2.77101 25.9648 3.17609 26.5274 3.71212 26.945C4.49652 27.465 5.39104 27.7981 6.32443 27.9183C7.59516 28.0538 8.87357 28.1031 10.1509 28.0648C12.6161 28.0648 15.0979 28.0643 17.5793 27.9346C20.0606 27.8048 22.4452 27.6424 24.9751 27.4154C27.5048 27.1884 28.559 27.3191 30.3104 27.2542C30.9591 27.2542 31.7217 27.2536 32.6623 27.0915C33.8821 27.0796 35.0984 26.9551 36.2951 26.7187C36.9012 26.552 37.4574 26.2402 37.9162 25.8105C38.5682 25.1356 39.0566 24.3195 39.3436 23.4261C39.7627 22.2182 40.0095 20.9563 40.0744 19.6794C40.0744 17.7659 40.0741 15.8033 39.9768 13.8411C39.8632 11.8951 39.6681 9.93291 39.3925 8.05176C39.2745 6.69695 39.0083 5.35912 38.5982 4.0625C38.3742 3.35871 37.9163 2.75228 37.301 2.34375C36.5843 1.98557 35.8101 1.75422 35.0142 1.66178C33.9127 1.50822 32.8012 1.43317 31.689 1.43555C29.0779 1.33824 27.4392 1.22396 25.5741 1.22396Z" fill="#FF5500"/>
    <path fill-rule="evenodd" clip-rule="evenodd" d="M16.0861 15.6696C15.7321 15.2319 15.3419 14.8249 14.9194 14.4529C14.6234 14.1825 14.2928 13.9527 13.9361 13.7696C13.697 13.6356 13.4383 13.54 13.1694 13.4863C12.95 13.4363 12.7222 13.4363 12.5028 13.4863C11.3694 13.8029 11.4361 13.6196 10.3861 14.8863C10.065 15.276 9.7805 15.6944 9.5361 16.1363C9.33672 16.4651 9.19575 16.826 9.11943 17.2029C9.03482 17.5439 9.04636 17.9015 9.15277 18.2363C9.26292 18.5706 9.45473 18.8722 9.71082 19.1138C9.96692 19.3553 10.2792 19.5292 10.6194 19.6196C11.7825 19.8274 12.9731 19.8274 14.1361 19.6196C14.5401 19.5887 14.9413 19.5274 15.3361 19.4363C15.6846 19.3474 16.009 19.1823 16.2861 18.953C16.524 18.7526 16.7047 18.4929 16.8101 18.2003C16.9154 17.9076 16.9417 17.5923 16.8861 17.2863C16.7609 16.6882 16.4856 16.1319 16.0861 15.6696ZM15.2194 17.6363C15.0831 17.7205 14.929 17.7719 14.7694 17.7863L13.9694 17.8863C13.1218 18.03 12.2622 18.0914 11.4028 18.0696C11.0194 18.0696 10.6528 18.0696 10.5028 17.6863C10.4689 17.5551 10.4689 17.4175 10.5028 17.2863C10.5518 17.0754 10.6187 16.8691 10.7028 16.6696C11.4528 14.8196 11.7528 15.0029 12.8028 14.5696L13.3694 14.8029C13.6211 14.9805 13.8555 15.1814 14.0694 15.403C14.3968 15.7699 14.6976 16.1598 14.9694 16.5696C15.1175 16.7629 15.2252 16.9839 15.2861 17.2196C15.2861 17.3696 15.3528 17.5363 15.2194 17.6363Z" fill="#FF5500"/>
    <path d="M12.4295 13.1607C12.6942 13.1005 12.9686 13.1018 13.2336 13.1607H13.2368C13.2389 13.1612 13.2413 13.1602 13.2433 13.1607L13.2417 13.1623C13.5422 13.2231 13.832 13.3282 14.0994 13.4781H14.0978C14.4749 13.6727 14.8241 13.9167 15.1379 14.2024H15.1395C15.5735 14.5846 15.9749 15.003 16.339 15.4524L16.4953 15.646C16.797 16.0435 17.0198 16.4948 17.1528 16.9758L17.213 17.2183L17.2147 17.2264C17.2807 17.5902 17.2488 17.9658 17.1235 18.3137C16.9984 18.661 16.784 18.9692 16.5018 19.2072L16.4985 19.2105C16.1838 19.4708 15.8151 19.6579 15.4194 19.759L15.4113 19.7606C15.0032 19.8548 14.5886 19.9186 14.1711 19.9511C12.9768 20.1615 11.7549 20.161 10.561 19.9478L10.548 19.9445L10.5334 19.9413C10.1399 19.8366 9.77815 19.6363 9.48193 19.357C9.18564 19.0775 8.96329 18.7282 8.83577 18.3414V18.3365C8.71086 17.9432 8.69729 17.5228 8.79671 17.1223C8.88131 16.713 9.03413 16.3209 9.25081 15.9634C9.50368 15.5079 9.79843 15.0765 10.1297 14.6744L10.4748 14.2626C10.786 13.9015 11.0056 13.6841 11.243 13.5432C11.4081 13.4452 11.5717 13.39 11.7524 13.3397C11.8415 13.315 11.9407 13.2904 12.047 13.2632C12.155 13.2357 12.2752 13.2041 12.4132 13.1656L12.4295 13.1607ZM13.1701 13.4862C12.9507 13.4362 12.7222 13.4362 12.5028 13.4862C11.3697 13.8028 11.4364 13.6199 10.3869 14.886C10.0658 15.2757 9.78004 15.6941 9.53564 16.136C9.33627 16.4648 9.19528 16.8267 9.11897 17.2037C9.03462 17.5441 9.047 17.9013 9.15315 18.2356C9.2633 18.5699 9.45532 18.8729 9.71142 19.1145C9.96738 19.3557 10.2797 19.5287 10.6196 19.619C11.7826 19.8268 12.9739 19.8268 14.1369 19.619C14.5407 19.5881 14.9418 19.5278 15.3364 19.4367C15.6849 19.3478 16.0099 19.1827 16.2869 18.9533C16.5247 18.753 16.7057 18.4923 16.811 18.1998C16.9161 17.9074 16.9413 17.5924 16.8859 17.2867C16.7607 16.6886 16.4863 16.1311 16.0867 15.6688C15.7329 15.2313 15.3421 14.8249 14.9198 14.453C14.6238 14.1827 14.2932 13.9525 13.9367 13.7694C13.6977 13.6355 13.4387 13.5399 13.1701 13.4862ZM13.3703 14.8029C13.6218 14.9804 13.8563 15.1821 14.0701 15.4035C14.3973 15.7703 14.6985 16.1594 14.9702 16.5689C15.1183 16.7622 15.225 16.9842 15.286 17.2199C15.2861 17.3699 15.3525 17.5367 15.2192 17.6366C15.0831 17.7206 14.9293 17.7719 14.77 17.7863L13.9692 17.8856C13.1217 18.0293 12.2619 18.0913 11.4025 18.0695C11.0195 18.0695 10.6525 18.0697 10.5024 17.6871C10.4686 17.556 10.4687 17.4177 10.5024 17.2867C10.5515 17.0759 10.6186 16.8692 10.7026 16.6698C11.4524 14.8203 11.7529 15.0031 12.8022 14.5702L13.3703 14.8029ZM12.257 15.1317C12.0829 15.1992 11.9596 15.2595 11.8485 15.3482C11.6222 15.5289 11.386 15.8724 11.0119 16.7951L11.0102 16.7984C10.9336 16.9804 10.8727 17.1692 10.828 17.3615L10.8263 17.3697C10.8081 17.4402 10.8077 17.5135 10.8231 17.5845C10.855 17.6542 10.8947 17.6831 10.9614 17.7033C11.0631 17.7341 11.1975 17.7359 11.4025 17.7359H11.4106C12.2486 17.7571 13.0874 17.697 13.9139 17.5568L13.9285 17.5552L14.7277 17.4559L14.7391 17.4543C14.8181 17.4472 14.8935 17.422 14.9653 17.3892C14.9647 17.3834 14.9645 17.3767 14.9637 17.3697C14.9612 17.347 14.9578 17.3154 14.9556 17.2802C14.9049 17.0965 14.8209 16.9237 14.7049 16.7723L14.6919 16.7544C14.4312 16.3614 14.1428 15.987 13.8293 15.6346L13.5168 15.3401C13.4156 15.2533 13.3111 15.1703 13.2026 15.0927L12.7974 14.9266C12.5856 15.0092 12.3877 15.0811 12.257 15.1317Z" fill="#FF5500"/>
    <path fill-rule="evenodd" clip-rule="evenodd" d="M12.9199 11.853C13.2282 11.8279 13.5285 11.7417 13.8033 11.5995C14.0781 11.4573 14.3218 11.2618 14.5203 11.0245C14.7188 10.7872 14.8682 10.5128 14.9597 10.2173C15.0512 9.92173 15.083 9.61093 15.0532 9.30298C15.0532 8.67088 14.8021 8.06467 14.3551 7.61771C13.9082 7.17074 13.302 6.91964 12.6699 6.91964C12.0378 6.91964 11.4316 7.17074 10.9846 7.61771C10.5376 8.06467 10.2865 8.67088 10.2865 9.30298C10.2538 9.65329 10.3002 10.0065 10.4222 10.3365C10.5443 10.6664 10.7388 10.9648 10.9916 11.2096C11.2443 11.4543 11.5488 11.6392 11.8826 11.7506C12.2163 11.8619 12.5708 11.8969 12.9199 11.853ZM11.7532 9.00298C12.0365 7.53631 13.7032 8.13631 13.6365 9.30298C13.6323 9.52265 13.5431 9.73215 13.3877 9.88751C13.2324 10.0429 13.0229 10.132 12.8032 10.1363C12.6517 10.1637 12.4958 10.1525 12.3498 10.1037C12.2038 10.0549 12.0724 9.97016 11.9678 9.85724C11.8632 9.74432 11.7887 9.60687 11.7512 9.45757C11.7137 9.30827 11.7144 9.15193 11.7532 9.00298Z" fill="#FF5500"/>
    <path d="M12.6703 6.58599C13.3906 6.58617 14.0816 6.87258 14.5909 7.38188C15.1002 7.89123 15.3866 8.58218 15.3868 9.30246C15.4157 9.64409 15.3792 9.98874 15.2777 10.3165C15.1733 10.6537 15.0029 10.9668 14.7764 11.2377C14.5496 11.5089 14.2701 11.7327 13.9561 11.8952C13.6462 12.0557 13.3077 12.1516 12.96 12.1817L12.9617 12.1833H12.9568C12.9535 12.1836 12.9503 12.1847 12.947 12.1849L12.9454 12.1833C12.5518 12.2305 12.1529 12.1916 11.7768 12.0661C11.3958 11.939 11.048 11.7286 10.7595 11.4493C10.4709 11.1698 10.2494 10.8283 10.1101 10.4515C9.97082 10.0748 9.91652 9.67145 9.95385 9.27153C9.96204 8.56249 10.2462 7.88392 10.7481 7.38188C11.2576 6.87241 11.9498 6.58599 12.6703 6.58599ZM12.6703 6.91964C12.0382 6.91964 11.4311 7.17092 10.9841 7.61789C10.5374 8.06471 10.286 8.67064 10.2859 9.30246C10.2532 9.65269 10.3006 10.0061 10.4226 10.336C10.5446 10.6659 10.738 10.9653 10.9906 11.21C11.2434 11.4548 11.5488 11.639 11.8826 11.7504C12.2162 11.8617 12.5704 11.8968 12.9193 11.8529C13.2277 11.8278 13.5284 11.7412 13.8031 11.599C14.0776 11.4569 14.3209 11.2615 14.5193 11.0245C14.7178 10.7872 14.8672 10.5127 14.9587 10.2172C15.0502 9.92162 15.0829 9.61041 15.0531 9.30246C15.053 8.67059 14.8017 8.06472 14.3549 7.61789C13.9081 7.17109 13.3022 6.91983 12.6703 6.91964ZM11.7523 9.00298C12.0356 7.53651 13.7017 8.1361 13.6355 9.30246C13.6312 9.52182 13.543 9.73147 13.3881 9.88677C13.2327 10.0421 13.0218 10.1315 12.8022 10.1358C12.6509 10.163 12.4955 10.1519 12.3497 10.1032C12.2037 10.0545 12.0718 9.97039 11.9672 9.85747C11.8626 9.74456 11.7882 9.60636 11.7507 9.45708C11.7134 9.30798 11.7136 9.15172 11.7523 9.00298ZM12.7436 8.48865C12.5996 8.45225 12.4675 8.4732 12.3627 8.54399C12.2584 8.61464 12.1379 8.76404 12.0795 9.06645L12.0762 9.08761C12.0517 9.18213 12.0509 9.28096 12.0746 9.3757C12.0985 9.47068 12.1448 9.55939 12.2113 9.63123C12.2779 9.70309 12.3626 9.75644 12.4555 9.78748C12.5482 9.81842 12.6473 9.826 12.7436 9.80864L12.7696 9.80376H12.7973C12.9305 9.80097 13.0578 9.74656 13.1521 9.65239C13.2465 9.55795 13.3009 9.42948 13.3035 9.29595V9.28455L13.2986 9.13481C13.2563 8.79898 13.007 8.55544 12.7436 8.48865Z" fill="#FF5500"/>
    <path fill-rule="evenodd" clip-rule="evenodd" d="M20.0029 13.5197C20.2451 13.1507 20.3585 12.7119 20.3254 12.2718C20.2922 11.8316 20.1144 11.4148 19.8196 11.0863C19.6424 10.8894 19.4269 10.7306 19.1862 10.6197C18.1529 10.1863 17.1696 9.80299 16.1529 11.1697C15.9127 11.4929 15.7566 11.8708 15.6984 12.2693C15.6402 12.6678 15.6818 13.0745 15.8196 13.453C15.9723 13.7711 16.2084 14.0418 16.5029 14.2363C16.8614 14.4427 17.2585 14.5732 17.6696 14.6197C18.1239 14.6906 18.589 14.6236 19.005 14.4276C19.4209 14.2315 19.7685 13.9152 20.0029 13.5197ZM18.7029 12.653C18.6201 12.7592 18.5085 12.8392 18.3814 12.8836C18.2543 12.9279 18.1171 12.9346 17.9862 12.903L17.3362 12.703C17.2539 12.5696 17.2035 12.4189 17.1891 12.2628C17.1746 12.1066 17.1965 11.9493 17.2529 11.803C17.6862 10.8363 18.7029 11.6697 18.8196 11.803C18.9067 11.9347 18.9429 12.0936 18.9214 12.25C18.8999 12.4064 18.8223 12.5496 18.7029 12.653Z" fill="#FF5500"/>
    <path d="M17.649 9.88615C18.0905 9.86783 18.524 9.99808 18.925 10.1531L19.3156 10.3126L19.3254 10.3175C19.607 10.4473 19.8601 10.6322 20.0676 10.8627V10.8643C20.4113 11.2475 20.6196 11.733 20.6584 12.2462C20.6967 12.7544 20.5655 13.2606 20.2889 13.6882C20.0207 14.1409 19.6238 14.5038 19.148 14.7283C18.6718 14.9528 18.1382 15.0308 17.618 14.9496V14.948C17.1667 14.895 16.731 14.7516 16.3371 14.5248L16.3192 14.5151C15.9745 14.2874 15.6989 13.9695 15.52 13.5971L15.5119 13.5824L15.507 13.5678C15.3505 13.1377 15.3027 12.6747 15.3687 12.2218C15.4348 11.7687 15.6132 11.3377 15.8863 10.9701C16.4387 10.2278 17.0235 9.91233 17.649 9.88615ZM19.187 10.6202C18.1537 10.1869 17.1699 9.80367 16.1532 11.1703C15.9133 11.4934 15.7573 11.8708 15.6991 12.269C15.6409 12.6672 15.682 13.074 15.8195 13.4522C15.9722 13.7704 16.2087 14.0423 16.5031 14.2367C16.8616 14.4431 17.2591 14.5728 17.6701 14.6192C18.1243 14.69 18.589 14.6231 19.0047 14.4272C19.4207 14.2311 19.7681 13.9146 20.0025 13.519C20.2446 13.1501 20.3578 12.7122 20.3247 12.2722C20.2916 11.8321 20.115 11.4142 19.8202 11.0857C19.6432 10.889 19.4273 10.7311 19.187 10.6202ZM17.2534 11.8035C17.6868 10.8368 18.7025 11.6701 18.8192 11.8035C18.9062 11.935 18.943 12.0932 18.9217 12.2494C18.9003 12.4057 18.8229 12.5498 18.7036 12.6531C18.6209 12.7593 18.5085 12.8399 18.3814 12.8842C18.2544 12.9284 18.1166 12.9354 17.9859 12.9037L17.3365 12.7035C17.2541 12.5701 17.2044 12.4186 17.19 12.2625C17.1756 12.1065 17.1971 11.9496 17.2534 11.8035ZM17.7759 11.6912C17.7228 11.7099 17.6392 11.7596 17.5611 11.9288C17.5249 12.0252 17.511 12.1289 17.5204 12.2315C17.5266 12.2989 17.5454 12.3646 17.5708 12.4268L18.064 12.5782C18.1325 12.5948 18.2057 12.5917 18.2723 12.5684C18.3386 12.5452 18.3967 12.5034 18.44 12.448L18.4595 12.422L18.4855 12.4008C18.5434 12.3505 18.5809 12.2799 18.5913 12.2039C18.6007 12.1344 18.5838 12.0657 18.549 12.0053C18.5418 11.9987 18.5331 11.9892 18.5213 11.9793C18.4896 11.9525 18.4475 11.9193 18.3977 11.8849C18.2953 11.8142 18.1729 11.7462 18.0526 11.7074C17.9312 11.6683 17.8404 11.6686 17.7759 11.6912Z" fill="#FF5500"/>
    <path fill-rule="evenodd" clip-rule="evenodd" d="M9.63616 12.0196C8.88616 9.36959 6.30282 10.8029 5.81949 11.2696C5.55478 11.5398 5.37515 11.8817 5.30282 12.2529C5.22769 12.6271 5.25118 13.0144 5.37098 13.3767C5.49079 13.739 5.70279 14.064 5.98616 14.3196C6.34235 14.6693 6.80614 14.8885 7.30245 14.9418C7.79875 14.9951 8.29851 14.8793 8.72081 14.6132C9.14312 14.3471 9.46325 13.9462 9.62937 13.4755C9.79549 13.0048 9.79788 12.4918 9.63616 12.0196ZM7.70282 13.2363C7.56354 13.2752 7.41608 13.274 7.27747 13.2327C7.13886 13.1914 7.01476 13.1117 6.91949 13.0029C6.80531 12.876 6.73575 12.7152 6.72138 12.545C6.70701 12.3749 6.74863 12.2047 6.83989 12.0604C6.93116 11.9161 7.06707 11.8056 7.22695 11.7456C7.38683 11.6857 7.56192 11.6796 7.72556 11.7284C7.8892 11.7771 8.03243 11.878 8.13345 12.0157C8.23447 12.1533 8.28775 12.3202 8.28518 12.4909C8.2826 12.6617 8.22432 12.8269 8.11919 12.9614C8.01407 13.096 7.86786 13.1925 7.70282 13.2363Z" fill="#FF5500"/>
    <path d="M7.59224 10.1451C8.04432 10.0969 8.53542 10.1557 8.97245 10.4397C9.408 10.723 9.74657 11.202 9.95064 11.9111C10.1366 12.4541 10.135 13.0446 9.94413 13.5859C9.75312 14.1271 9.38466 14.5884 8.89921 14.8945C8.4134 15.2006 7.83766 15.335 7.26672 15.2737C6.70017 15.2129 6.17128 14.9627 5.76282 14.5657C5.43702 14.2716 5.19268 13.8985 5.05481 13.4817C4.91706 13.0651 4.89064 12.6197 4.97668 12.1894H4.97506C5.05984 11.7542 5.27185 11.3538 5.58215 11.0371L5.58866 11.0289C5.74223 10.8809 6.02588 10.6858 6.36666 10.5179C6.71155 10.3479 7.14206 10.1933 7.59224 10.1451ZM9.63652 12.0201C8.88652 9.37015 6.30312 10.8032 5.81978 11.2698C5.5551 11.54 5.37453 11.8816 5.30221 12.2529C5.22716 12.6267 5.25101 13.0139 5.37056 13.3759C5.49036 13.7382 5.70247 14.0643 5.9858 14.32C6.34198 14.6696 6.80625 14.8884 7.30253 14.9417C7.79867 14.995 8.29796 14.8788 8.72017 14.6129C9.14248 14.3468 9.46388 13.9459 9.63001 13.4752C9.79592 13.0048 9.798 12.4921 9.63652 12.0201ZM7.22766 11.7451C7.38735 11.6854 7.56231 11.6801 7.72571 11.7288C7.88929 11.7776 8.03324 11.8777 8.13424 12.0153C8.23515 12.1528 8.28809 12.32 8.2856 12.4905C8.28303 12.6611 8.22449 12.8264 8.11959 12.9609C8.01447 13.0954 7.86794 13.1922 7.70292 13.236C7.5638 13.2749 7.41658 13.2739 7.27812 13.2327C7.13967 13.1915 7.01527 13.1118 6.92004 13.0032C6.80587 12.8763 6.73585 12.7144 6.72148 12.5442C6.70731 12.3744 6.74925 12.2049 6.84029 12.0608C6.93156 11.9165 7.06778 11.805 7.22766 11.7451ZM7.34485 12.0576C7.25312 12.092 7.17429 12.1555 7.12187 12.2382C7.06951 12.321 7.04536 12.419 7.05351 12.5166C7.05765 12.5656 7.06999 12.6136 7.08931 12.6582L7.16744 12.7802L7.1707 12.7835C7.2245 12.8449 7.2943 12.8904 7.37252 12.9137C7.45086 12.937 7.53468 12.9373 7.6134 12.9153L7.61666 12.9137C7.71141 12.8886 7.79553 12.833 7.85592 12.7558C7.91631 12.6785 7.95047 12.5837 7.95195 12.4856C7.95337 12.3877 7.92204 12.2912 7.86405 12.2122C7.8062 12.1337 7.72469 12.0758 7.63131 12.0478C7.53755 12.0199 7.4365 12.0234 7.34485 12.0576Z" fill="#FF5500"/>
    <path fill-rule="evenodd" clip-rule="evenodd" d="M14.9681 21.6587C14.5036 21.634 14.038 21.634 13.5734 21.6587C13.1142 21.6345 12.654 21.6345 12.1949 21.6587C11.1024 21.7924 10.0192 21.9928 8.95124 22.2587C8.89006 22.2627 8.83032 22.2791 8.77563 22.3068C8.72094 22.3345 8.67243 22.3731 8.63303 22.42C8.59363 22.467 8.56415 22.5215 8.54637 22.5802C8.52859 22.6389 8.52287 22.7005 8.52958 22.7615C8.54577 22.8805 8.60687 22.9888 8.70035 23.0642C8.79383 23.1395 8.91261 23.1763 9.03234 23.1669C10.2649 23.1669 11.4488 23.3129 12.649 23.3453H14.7897C15.8601 23.3453 16.9305 23.2318 18.0334 23.248C18.1015 23.2555 18.1705 23.2494 18.2363 23.2302C18.3021 23.211 18.3635 23.1791 18.417 23.1362C18.4704 23.0932 18.5149 23.0402 18.5479 22.9801C18.5808 22.92 18.6016 22.854 18.6091 22.7858C18.6165 22.7177 18.6105 22.6487 18.5913 22.5829C18.5721 22.5171 18.5401 22.4557 18.4972 22.4022C18.4543 22.3488 18.4013 22.3043 18.3412 22.2713C18.2811 22.2383 18.215 22.2175 18.1469 22.2101C17.0992 21.9631 16.0378 21.779 14.9681 21.6587Z" fill="#FF5500"/>
    <path d="M14.9851 21.326H15.0046V21.3277C16.0874 21.4495 17.1635 21.6359 18.224 21.8859L18.2224 21.8876C18.3197 21.9029 18.4142 21.9313 18.5007 21.9787C18.5991 22.0326 18.686 22.1061 18.7563 22.1935C18.8266 22.2811 18.8794 22.3819 18.9109 22.4898C18.9423 22.5975 18.9524 22.7102 18.9402 22.8218C18.928 22.9335 18.8933 23.0423 18.8393 23.1408C18.7853 23.239 18.7134 23.3262 18.6261 23.3963C18.5385 23.4666 18.4376 23.5195 18.3298 23.551C18.2321 23.5795 18.1301 23.5859 18.0287 23.5786V23.5819C17.4892 23.574 16.9553 23.5978 16.4158 23.6242C15.8794 23.6504 15.3349 23.6779 14.7898 23.6779H12.6397C12.0312 23.6615 11.4262 23.6173 10.8298 23.577C10.2307 23.5365 9.63669 23.5005 9.03296 23.5005V23.4973C8.83696 23.5064 8.64414 23.4466 8.49096 23.3231C8.33159 23.1945 8.22744 23.0101 8.19962 22.8071L8.19799 22.7974C8.18647 22.6919 8.19651 22.5848 8.22729 22.4833C8.25805 22.3819 8.30905 22.2878 8.37703 22.2066C8.44527 22.1252 8.52974 22.0577 8.62443 22.0096C8.70144 21.9706 8.78498 21.9469 8.8702 21.9348C9.95134 21.6656 11.0488 21.4631 12.1547 21.3277L12.1775 21.3244V21.326C12.6421 21.3016 13.1077 21.3022 13.5723 21.326C14.043 21.3016 14.5145 21.3011 14.9851 21.326ZM13.574 21.6581C13.115 21.6339 12.6544 21.6339 12.1954 21.6581C11.1031 21.7918 10.0194 21.9928 8.95158 22.2586C8.89039 22.2627 8.83048 22.2797 8.77579 22.3075C8.72113 22.3352 8.67195 22.3728 8.63257 22.4198C8.59318 22.4668 8.56408 22.5222 8.5463 22.5809C8.52868 22.6394 8.52335 22.7009 8.53003 22.7616C8.54626 22.8805 8.60749 22.989 8.70092 23.0643C8.79433 23.1394 8.91343 23.1762 9.03296 23.1668C10.2653 23.1669 11.4496 23.3135 12.6495 23.3459H14.7898C15.8601 23.3459 16.9308 23.232 18.0336 23.2482C18.1014 23.2556 18.1699 23.2493 18.2354 23.2303C18.3011 23.2112 18.3627 23.1787 18.4161 23.1359C18.4696 23.093 18.515 23.0398 18.5479 22.9797C18.5808 22.9197 18.6023 22.854 18.6098 22.786C18.6172 22.7178 18.6111 22.6484 18.5919 22.5825C18.5727 22.5168 18.5404 22.4553 18.4975 22.4019C18.4546 22.3485 18.4012 22.3046 18.3412 22.2717C18.2813 22.2388 18.2154 22.2173 18.1475 22.2098C17.1001 21.9629 16.0382 21.7784 14.9688 21.6581C14.5045 21.6334 14.0383 21.6334 13.574 21.6581Z" fill="#FF5500"/>
    <path fill-rule="evenodd" clip-rule="evenodd" d="M34.073 7.85703C33.459 7.73586 32.8336 7.68148 32.2079 7.69485C31.3159 7.69485 30.4077 7.69485 29.5644 7.80837C28.721 7.9219 28.2669 7.90568 27.7804 7.95433L25.964 8.14895C25.1339 8.27973 24.3111 8.45295 23.4988 8.66793C23.3784 8.68513 23.2697 8.74948 23.1967 8.8468C23.1237 8.94413 23.0924 9.06647 23.1096 9.18691C23.1268 9.30734 23.1911 9.41601 23.2885 9.48901C23.3858 9.562 23.5081 9.59335 23.6286 9.57614C25.7856 9.47883 26.4667 9.67345 27.8777 9.67345C28.3805 9.67345 28.9805 9.67345 29.7428 9.51127C30.505 9.34909 31.7214 9.07338 32.7269 8.94364C33.135 8.88486 33.5471 8.85775 33.9595 8.86254C34.0314 8.88084 34.1064 8.8835 34.1794 8.87034C34.2524 8.85719 34.3218 8.82853 34.3828 8.78629C34.4438 8.74406 34.4951 8.68923 34.5331 8.6255C34.5711 8.56178 34.595 8.49065 34.6032 8.4169C34.6114 8.34315 34.6037 8.2685 34.5806 8.19798C34.5575 8.12747 34.5195 8.06273 34.4693 8.00813C34.419 7.95353 34.3576 7.91034 34.2893 7.88148C34.2209 7.85262 34.1472 7.83875 34.073 7.84081V7.85703Z" fill="#FF5500"/>
    <path d="M32.2081 7.36247C32.8128 7.35004 33.4166 7.40031 34.0115 7.50895L34.0635 7.50732C34.1852 7.50394 34.3063 7.52681 34.4184 7.57405C34.5306 7.62146 34.6321 7.69272 34.7146 7.78239C34.7971 7.87204 34.8589 7.97911 34.8969 8.09489C34.9346 8.21031 34.9476 8.33226 34.9343 8.45296C34.9209 8.57409 34.8812 8.69174 34.8188 8.79638C34.7564 8.90074 34.6729 8.9908 34.573 9.06006C34.4728 9.12942 34.3576 9.1768 34.2377 9.1984C34.141 9.21575 34.0429 9.21144 33.9464 9.19515C33.5543 9.19106 33.1625 9.2174 32.7745 9.27327L32.7696 9.2749C31.7813 9.40242 30.5829 9.67409 29.8122 9.83805C29.0133 10.008 28.3824 10.0073 27.877 10.0073C27.1589 10.0073 26.6186 9.9569 26.0134 9.92106C25.4065 9.88513 24.7085 9.86163 23.6436 9.90967L23.642 9.90641C23.4449 9.92612 23.2477 9.87437 23.0886 9.75504C22.9207 9.62903 22.8091 9.44205 22.7794 9.23421C22.7497 9.02626 22.8047 8.8147 22.9307 8.64665C23.0491 8.48907 23.2215 8.38262 23.4141 8.34554L24.0326 8.19092C24.6541 8.04336 25.2814 7.91926 25.9125 7.81982L25.9288 7.81657L27.7452 7.62288H27.7468C27.9993 7.59763 28.2502 7.58806 28.5199 7.57243C28.7939 7.55654 29.109 7.53323 29.5193 7.47803C30.3862 7.36133 31.3151 7.36246 32.1999 7.36247H32.2048L32.2081 7.36084V7.36247ZM32.2081 7.6945C31.3163 7.6945 30.408 7.69498 29.5649 7.80843C28.7219 7.92191 28.2673 7.90634 27.781 7.95491L25.9646 8.1486C25.1346 8.27938 24.3111 8.45284 23.4988 8.6678C23.3783 8.68501 23.269 8.74951 23.196 8.84684C23.1232 8.94412 23.0926 9.0667 23.1098 9.18701C23.127 9.30739 23.1915 9.41678 23.2888 9.48974C23.386 9.5624 23.5088 9.59318 23.629 9.57601C25.7853 9.47877 26.4666 9.67361 27.877 9.67366C28.3797 9.67366 28.9802 9.67301 29.7423 9.5109C30.5045 9.34872 31.7218 9.07261 32.7273 8.94287C33.1352 8.88415 33.5472 8.85832 33.9594 8.86312C34.0312 8.88137 34.1062 8.88276 34.1791 8.86963C34.252 8.85649 34.3216 8.82876 34.3826 8.78662C34.4435 8.74445 34.4943 8.68908 34.5323 8.62549C34.5703 8.56181 34.5957 8.49084 34.6039 8.41715C34.6121 8.3434 34.6042 8.26794 34.5811 8.19743C34.558 8.12707 34.519 8.06312 34.4688 8.00862C34.4187 7.95418 34.3579 7.91053 34.2898 7.88167C34.2215 7.85286 34.1474 7.83898 34.0733 7.84098V7.85726C33.4594 7.73611 32.8337 7.68115 32.2081 7.6945Z" fill="#FF5500"/>
    <path fill-rule="evenodd" clip-rule="evenodd" d="M26.4667 14.1983H27.3587C27.6692 14.1835 27.9782 14.1456 28.2831 14.0848C29.0071 13.9512 29.7221 13.7724 30.4239 13.5496C30.4922 13.5416 30.5583 13.5201 30.6183 13.4863C30.6783 13.4525 30.7309 13.4071 30.7732 13.3528C30.8154 13.2984 30.8465 13.2362 30.8645 13.1698C30.8824 13.1033 30.887 13.034 30.878 12.9657C30.8541 12.8293 30.7782 12.7074 30.6663 12.6257C30.5544 12.5441 30.4151 12.509 30.2779 12.5279H28.1209C27.6298 12.4869 27.1362 12.4869 26.6451 12.5279C25.8155 12.6819 25.0013 12.9098 24.2123 13.209C24.1525 13.2169 24.0948 13.2367 24.0426 13.2673C23.9905 13.2978 23.9449 13.3384 23.9087 13.3867C23.8724 13.4351 23.8462 13.4901 23.8315 13.5487C23.8168 13.6073 23.814 13.6683 23.8231 13.728C23.8431 13.8471 23.9081 13.9539 24.0048 14.0264C24.1014 14.0989 24.2222 14.1314 24.3421 14.1172C25.2827 14.0848 25.899 14.1821 26.4667 14.1983Z" fill="#FF5500"/>
    <path d="M26.6173 12.196C27.1182 12.1542 27.6217 12.154 28.1228 12.1944H30.2777V12.196C30.4856 12.1784 30.6927 12.2336 30.862 12.3571C30.9984 12.4566 31.102 12.5923 31.1615 12.7478L31.2055 12.9089L31.2087 12.9219C31.2236 13.0339 31.2155 13.1481 31.1859 13.2572C31.1564 13.366 31.1054 13.4676 31.0362 13.5567C30.9669 13.6458 30.8806 13.7209 30.7823 13.7764C30.7021 13.8216 30.6137 13.8486 30.5235 13.8659C29.8089 14.0928 29.0814 14.2767 28.3441 14.4128L28.3425 14.4112C28.0231 14.4746 27.6994 14.5161 27.3741 14.5316H26.4578C25.8344 14.5138 25.2893 14.418 24.3533 14.4502L24.3516 14.4486C24.1564 14.4645 23.962 14.4103 23.8048 14.2924C23.6398 14.1685 23.528 13.9863 23.4939 13.7829V13.778C23.4781 13.6746 23.4831 13.5686 23.5085 13.4672C23.534 13.3659 23.5794 13.2708 23.642 13.1872C23.7049 13.1034 23.7843 13.0318 23.8747 12.9789C23.9485 12.9358 24.029 12.9066 24.1124 12.8894C24.9141 12.5866 25.7421 12.3573 26.5847 12.2009L26.601 12.1976L26.6173 12.196ZM28.1212 12.528C27.6301 12.487 27.136 12.487 26.6449 12.528C25.8153 12.6821 25.0006 12.9092 24.2117 13.2084C24.152 13.2163 24.0944 13.2365 24.0424 13.267C23.9902 13.2975 23.9452 13.3391 23.9089 13.3874C23.8728 13.4357 23.8455 13.4901 23.8308 13.5485C23.8161 13.607 23.8136 13.668 23.8227 13.7276C23.8426 13.8467 23.9083 13.9546 24.005 14.0271C24.1015 14.0992 24.2222 14.1307 24.3419 14.1166C25.2821 14.0842 25.8984 14.1817 26.4659 14.198H27.3578C27.6682 14.1832 27.9776 14.1448 28.2823 14.084C29.0063 13.9504 29.7225 13.773 30.4242 13.5502C30.4923 13.5421 30.5582 13.5203 30.6179 13.4867C30.6777 13.453 30.7303 13.4073 30.7725 13.3532C30.8148 13.2989 30.8457 13.2358 30.8637 13.1693C30.8816 13.103 30.8874 13.0339 30.8783 12.9659C30.8544 12.8295 30.7785 12.7074 30.6667 12.6257C30.5548 12.544 30.415 12.5092 30.2777 12.528H28.1212Z" fill="#FF5500"/>
    <path fill-rule="evenodd" clip-rule="evenodd" d="M24.6341 18.8692C25.3963 18.7394 26.0613 18.6421 26.6938 18.5772C27.3263 18.5124 27.8128 18.5772 28.3156 18.4637L29.9374 18.3502L34.9488 17.8636C35.0836 17.8594 35.2115 17.8029 35.3053 17.706C35.3992 17.6091 35.4516 17.4795 35.4515 17.3447C35.4516 17.2751 35.4376 17.2063 35.4105 17.1422C35.3834 17.0782 35.3438 17.0202 35.2938 16.9718C35.2439 16.9234 35.1848 16.8855 35.1199 16.8604C35.0551 16.8353 34.9858 16.8235 34.9163 16.8257C33.4081 16.8257 32.2241 16.5986 31.1213 16.5824C30.2488 16.552 29.3754 16.5954 28.5102 16.7122C27.0912 16.988 25.7051 17.412 24.3746 17.9772C24.3057 17.9828 24.2389 18.0035 24.179 18.0378C24.119 18.0721 24.0674 18.1193 24.0277 18.1758C23.988 18.2324 23.9613 18.297 23.9494 18.3651C23.9375 18.4332 23.9408 18.503 23.959 18.5697C23.9771 18.6364 24.0098 18.6982 24.0546 18.7508C24.0994 18.8034 24.1552 18.8455 24.2181 18.8741C24.281 18.9027 24.3494 18.9171 24.4185 18.9162C24.4876 18.9154 24.5557 18.8993 24.6179 18.8692H24.6341Z" fill="#FF5500"/>
    <path d="M31.1332 16.2491L31.1316 16.2507C31.6979 16.2594 32.2844 16.3198 32.8976 16.3777C33.5177 16.4363 34.1783 16.4916 34.9158 16.4916V16.4949C35.0265 16.4927 35.1363 16.5103 35.2397 16.5502C35.3462 16.5914 35.4441 16.653 35.5261 16.7325C35.6081 16.812 35.6737 16.9073 35.7182 17.0125C35.7626 17.1175 35.7849 17.2305 35.7849 17.3445C35.785 17.566 35.6982 17.7795 35.544 17.9386C35.3947 18.0924 35.1929 18.1824 34.9793 18.1941L34.9809 18.1957L29.9695 18.6824H29.9614L28.35 18.7947C28.0778 18.852 27.8151 18.8653 27.5606 18.8712C27.2886 18.8775 27.0265 18.8779 26.7273 18.9086C26.1049 18.9725 25.4474 19.0693 24.6895 19.1983L24.67 19.2016C24.59 19.2288 24.5076 19.2477 24.4226 19.2488C24.3047 19.2502 24.1882 19.2259 24.0808 19.1772C23.9734 19.1284 23.8774 19.057 23.8009 18.9672C23.7245 18.8775 23.6692 18.7716 23.6381 18.658C23.6071 18.5441 23.6016 18.4243 23.6218 18.308C23.6421 18.1917 23.6875 18.0808 23.7553 17.9841C23.8231 17.8876 23.9118 17.8067 24.0141 17.7481C24.0919 17.7037 24.1771 17.6768 24.2647 17.6602C25.6102 17.0904 27.0118 16.663 28.4461 16.3842L28.4656 16.3809V16.3826C29.3494 16.2633 30.242 16.218 31.1332 16.2491ZM31.1218 16.5828C30.2494 16.5524 29.3747 16.5946 28.5095 16.7113C27.0909 16.9872 25.7056 17.4126 24.3754 17.9776C24.3065 17.9832 24.2384 18.0035 24.1785 18.0378C24.1187 18.0722 24.0667 18.1198 24.0271 18.1762C23.9876 18.2326 23.9608 18.2971 23.949 18.365C23.9371 18.4331 23.9406 18.5034 23.9588 18.5701C23.977 18.6366 24.0101 18.6982 24.0548 18.7507C24.0995 18.8032 24.1548 18.8459 24.2175 18.8744C24.2805 18.903 24.3503 18.9176 24.4194 18.9168C24.4881 18.9158 24.556 18.8995 24.6179 18.8696H24.6342C25.3962 18.7399 26.0608 18.6415 26.6931 18.5766C27.3256 18.5117 27.8131 18.5778 28.3159 18.4643L29.9369 18.3503L34.9483 17.8637C35.0831 17.8595 35.211 17.8026 35.3048 17.7058C35.3986 17.6089 35.4513 17.4794 35.4513 17.3445C35.4513 17.2751 35.4375 17.2066 35.4106 17.1427C35.3835 17.0786 35.3433 17.0202 35.2934 16.9718C35.2435 16.9235 35.1839 16.8861 35.1192 16.8611C35.0545 16.8361 34.9851 16.8231 34.9158 16.8253C33.408 16.8252 32.2244 16.599 31.1218 16.5828Z" fill="#FF5500"/>
</svg>