<svg xmlns="http://www.w3.org/2000/svg" width="41" height="36" viewBox="0 0 41 36" fill="none">
    <path d="M17.2437 25.4103C15.9076 26.2986 14.5159 27.1003 13.077 27.8103L11.927 28.427C10.9437 28.8936 11.277 28.2603 10.2604 19.3103C10.2604 17.2936 9.01037 17.4436 8.8437 19.3103C8.7437 23.177 8.42704 27.8603 9.61037 29.6436C11.277 32.0936 13.6104 29.6436 14.0437 29.527C15.1994 28.8453 16.3126 28.0939 17.377 27.277C20.0104 25.7436 19.377 24.3936 17.2437 25.4103Z" fill="#2F4027"/>
    <path d="M9.59545 17.5215C9.95081 17.5015 10.2109 17.7488 10.3604 18.0488C10.5082 18.3455 10.5878 18.7582 10.5915 19.2728L10.9154 22.2627C11.1859 24.8827 11.3113 26.4413 11.4363 27.3555C11.4774 27.6558 11.516 27.8705 11.5567 28.0211C11.5768 28.0956 11.5972 28.1477 11.6137 28.1839C11.6153 28.1874 11.6171 28.1906 11.6186 28.1937C11.6524 28.1829 11.7052 28.163 11.7846 28.1253L12.919 27.5166L12.9288 27.5117C14.3548 26.808 15.7354 26.0126 17.0596 25.1321L17.0792 25.1191L17.1003 25.1094C17.6585 24.8434 18.152 24.7144 18.5424 24.7236C18.9236 24.7327 19.3228 24.8904 19.4229 25.3096C19.5095 25.673 19.3153 26.0655 19.0209 26.4114C18.7139 26.7722 18.2314 27.161 17.5626 27.5524C16.4923 28.3727 15.3745 29.1297 14.213 29.8148L14.1739 29.8376L14.13 29.8489C14.1461 29.8446 14.1427 29.8431 14.1072 29.8636C14.0764 29.8813 14.0356 29.9065 13.9835 29.9417C13.9319 29.9766 13.8742 30.0173 13.8077 30.0638C13.7418 30.1098 13.668 30.1619 13.5896 30.2152C13.2779 30.427 12.8678 30.6852 12.408 30.8597C11.9473 31.0344 11.4127 31.1343 10.865 30.9997C10.3104 30.8632 9.78838 30.4974 9.33504 29.831L9.33341 29.8278C9.00077 29.3265 8.78817 28.6475 8.64982 27.8795C8.51058 27.1066 8.44056 26.2152 8.41219 25.2689C8.35557 23.3795 8.46014 21.2237 8.50984 19.3021L8.51147 19.2809L8.55867 18.9228C8.6189 18.5832 8.71837 18.2969 8.84676 18.0732C9.01086 17.7874 9.26393 17.5403 9.59545 17.5215ZM10.2604 19.3103C10.2604 17.2936 9.01037 17.4436 8.8437 19.3103C8.7437 23.177 8.42704 27.8603 9.61037 29.6436C11.277 32.0936 13.6104 29.6436 14.0437 29.527C15.1994 28.8453 16.3126 28.0939 17.377 27.277C20.0104 25.7436 19.377 24.3936 17.2437 25.4103C15.9076 26.2986 14.5159 27.1003 13.077 27.8103L11.927 28.427C10.9437 28.8936 11.277 28.2603 10.2604 19.3103Z" fill="#2F4027"/>
    <path d="M40.227 3.4103C39.8893 3.20925 39.5035 3.10313 39.1104 3.10313C38.7173 3.10313 38.3315 3.20925 37.9937 3.4103C36.1298 4.34016 34.3652 5.45701 32.727 6.74363C31.477 7.69363 29.077 9.2603 27.377 10.4936C26.8437 10.877 26.3937 11.227 26.0437 11.527C25.9842 11.5858 25.937 11.6559 25.9048 11.7332C25.8726 11.8104 25.856 11.8933 25.856 11.977C25.856 12.0606 25.8726 12.1435 25.9048 12.2207C25.937 12.298 25.9842 12.3681 26.0437 12.427C26.1536 12.5549 26.3089 12.6351 26.4768 12.6507C26.6448 12.6662 26.8122 12.6159 26.9437 12.5103L33.6104 7.87696C34.0437 7.5603 35.277 6.59363 36.6937 5.77696C37.3826 5.31276 38.1274 4.93756 38.9104 4.6603C38.9645 4.64249 39.0229 4.64249 39.077 4.6603C38.4633 6.42521 37.6936 8.13196 36.777 9.7603C33.677 15.7436 30.3937 20.7436 27.4604 26.927C26.4604 29.027 25.0104 31.327 24.3604 32.5436C24.3385 32.5817 24.3069 32.6133 24.2688 32.6353C24.2308 32.6573 24.1876 32.6689 24.1437 32.6689C24.0998 32.6689 24.0566 32.6573 24.0186 32.6353C23.9805 32.6133 23.949 32.5817 23.927 32.5436C21.9104 29.4936 21.8937 16.327 19.3937 15.4436C16.2937 14.477 3.0437 16.127 2.57704 15.1603C2.46037 14.927 3.36037 14.0936 3.56037 13.9103C5.46058 12.3257 7.59769 11.049 9.8937 10.127C18.1985 6.26568 26.9817 3.53041 36.0104 1.99363C36.1482 1.96059 36.2687 1.87708 36.348 1.75958C36.4273 1.64208 36.4597 1.49912 36.4387 1.35892C36.4178 1.21872 36.3451 1.09145 36.2349 1.00223C36.1248 0.91301 35.9852 0.868314 35.8437 0.876963C26.6564 2.26693 17.6911 4.85566 9.17704 8.57696C6.97704 9.6603 2.76037 11.327 0.960371 13.9603C0.755868 14.2504 0.630209 14.5887 0.595693 14.942C0.561177 15.2953 0.618988 15.6515 0.763466 15.9757C0.907944 16.2999 1.13414 16.5811 1.41991 16.7917C1.70567 17.0023 2.04122 17.135 2.3937 17.177C4.51037 17.777 15.9937 16.827 18.577 17.4436C18.7104 17.827 20.0104 27.1603 21.3104 31.4103C21.5341 32.3806 21.9231 33.3052 22.4604 34.1436C22.6556 34.4119 22.9047 34.6364 23.1917 34.8029C23.4787 34.9693 23.7972 35.074 24.127 35.1103C24.6089 35.151 25.0875 35.0014 25.4604 34.6936C27.127 33.427 28.5937 28.677 31.777 22.577C33.7437 18.8436 39.3937 8.94363 40.427 5.49363C40.5788 5.1592 40.6402 4.79083 40.6051 4.42527C40.57 4.05971 40.4396 3.70975 40.227 3.4103Z" fill="#2F4027"/>
    <path d="M35.8236 0.543875C36.0482 0.53021 36.2705 0.600797 36.4454 0.742443C36.6203 0.884147 36.7344 1.0878 36.7676 1.31048C36.8006 1.53271 36.7499 1.75892 36.6244 1.94524C36.4984 2.13186 36.3062 2.26548 36.0873 2.31796L36.0661 2.32285C27.0667 3.85466 18.312 6.58121 10.0342 10.4299L10.0179 10.4365C7.75432 11.3455 5.64786 12.6046 3.77445 14.1669C3.66745 14.2652 3.41262 14.5009 3.19665 14.7398C3.10721 14.8388 3.03234 14.932 2.97693 15.01C3.0667 15.0339 3.18843 15.0612 3.34639 15.08C3.7385 15.1268 4.28972 15.1453 4.96423 15.1435C6.31141 15.1399 8.0997 15.0549 9.98214 14.9693C11.8598 14.884 13.8288 14.7972 15.5225 14.7935C16.9897 14.7904 18.2923 14.848 19.1521 15.0361L19.4922 15.1256L19.5052 15.1288C19.9361 15.2812 20.2603 15.6751 20.516 16.1477C20.7771 16.6306 20.9996 17.2576 21.1947 17.9706C21.5853 19.3986 21.8872 21.2421 22.1713 23.1318C22.4566 25.0302 22.7245 26.9781 23.0469 28.6461C23.2079 29.479 23.3806 30.2345 23.5743 30.8727C23.7497 31.4509 23.9403 31.915 24.1407 32.2512C24.8385 30.9718 26.1954 28.8095 27.1599 26.7841C28.632 23.681 30.1903 20.8761 31.766 18.1041C33.343 15.3297 34.935 12.5907 36.4812 9.60637L36.486 9.59661C37.287 8.17369 37.9737 6.68991 38.5417 5.15976C37.96 5.40186 37.4031 5.70074 36.8799 6.05332L36.8604 6.06634C35.464 6.87135 34.2507 7.82215 33.807 8.14641L33.8005 8.1513L27.1338 12.7835L27.1322 12.7818C26.9361 12.9318 26.6917 13.0048 26.4454 12.982C26.1999 12.9591 25.9739 12.8438 25.809 12.6614C25.8051 12.6576 25.8029 12.6538 25.7992 12.65C25.797 12.6475 25.7932 12.646 25.7911 12.6435C25.7096 12.5579 25.6429 12.458 25.5974 12.3489C25.5482 12.231 25.5225 12.1039 25.5225 11.9762C25.5226 11.8487 25.5483 11.7227 25.5974 11.6051C25.6465 11.4872 25.7182 11.3792 25.809 11.2893L25.8171 11.2812L25.8269 11.2747C26.1858 10.967 26.6428 10.6101 27.181 10.2232C28.0354 9.60337 29.0655 8.90098 30.0326 8.23756C31.0034 7.57159 31.9089 6.94715 32.5261 6.47812C33.9737 5.34157 35.519 4.33622 37.1436 3.47356L37.8451 3.11223C38.2291 2.88874 38.6651 2.77055 39.1097 2.77044C39.5627 2.77044 40.0079 2.89203 40.3972 3.12363L40.4574 3.15943L40.4981 3.21803C40.7443 3.56494 40.8969 3.96969 40.9375 4.39316C40.9767 4.80151 40.9077 5.21157 40.7455 5.58782C40.2173 7.35123 38.5285 10.7229 36.7465 14.0855C35.8517 15.7739 34.9272 17.4712 34.1049 18.9781C33.2819 20.4862 32.5621 21.8026 32.072 22.733L32.0704 22.7314C30.484 25.7714 29.3301 28.4703 28.3529 30.5878C27.866 31.6429 27.4211 32.559 26.9906 33.2929C26.5633 34.0212 26.1325 34.6023 25.6625 34.9596L25.6608 34.9579C25.2223 35.3153 24.6624 35.4906 24.0983 35.443L24.0902 35.4413C23.7145 35.4 23.3511 35.2811 23.0241 35.0914C22.6971 34.9017 22.4133 34.6452 22.1908 34.3394L22.1794 34.3232C21.6255 33.4586 21.2243 32.5056 20.9913 31.5058C20.3343 29.3579 19.6818 25.944 19.1781 23.0341C18.9257 21.5759 18.7091 20.2386 18.5482 19.2434C18.4677 18.7456 18.4019 18.3344 18.3513 18.0357C18.3303 17.9117 18.3109 17.8079 18.2959 17.7265C17.6547 17.6132 16.582 17.5652 15.2539 17.5588C13.7872 17.5519 12.049 17.5942 10.3191 17.637C8.59153 17.6796 6.8712 17.7233 5.45089 17.7184C4.74067 17.7159 4.10037 17.7011 3.56938 17.6679C3.06826 17.6365 2.64355 17.5841 2.34379 17.5051C1.93811 17.455 1.5516 17.3033 1.22237 17.0608C0.890268 16.8161 0.627004 16.4887 0.459025 16.1119C0.291054 15.735 0.223584 15.3198 0.263712 14.9091C0.303769 14.4999 0.448988 14.1079 0.685262 13.7714L0.869181 13.5159C1.82419 12.2531 3.28647 11.2297 4.75427 10.3974C6.3187 9.51032 7.95243 8.80887 9.02999 8.27825L9.04301 8.27174C17.5838 4.53877 26.5782 1.94146 35.7943 0.54713L35.8236 0.543875ZM25.8676 12.1015C25.8757 12.1422 25.8888 12.1822 25.9048 12.2207C25.937 12.298 25.9842 12.3681 26.0437 12.427C26.1536 12.5549 26.3089 12.6351 26.4768 12.6507C26.6448 12.6662 26.8122 12.6159 26.9437 12.5103L33.6104 7.87696C33.9896 7.59982 34.9812 6.8254 36.1719 6.08912L36.6937 5.77696C37.3826 5.31276 38.1274 4.93756 38.9104 4.6603C38.9645 4.64249 39.0229 4.64249 39.077 4.6603C38.4633 6.42521 37.6936 8.13196 36.777 9.7603L35.6071 11.9615C32.8617 17.0117 30.0271 21.5163 27.4604 26.927L27.0671 27.7216C26.1108 29.5853 24.9291 31.4791 24.3604 32.5436C24.3385 32.5817 24.3069 32.6133 24.2688 32.6353L24.209 32.6598C24.1879 32.6655 24.1658 32.6689 24.1437 32.6689L24.0788 32.6598L24.0186 32.6353C23.9805 32.6133 23.949 32.5817 23.927 32.5436C21.9104 29.4936 21.8937 16.327 19.3937 15.4436C16.2921 14.4775 3.04366 16.1269 2.57704 15.1603C2.46232 14.9262 3.36026 14.0937 3.56037 13.9103C5.223 12.5238 7.06663 11.3723 9.03975 10.4885L9.8937 10.127C17.6792 6.50718 25.8852 3.87608 34.3197 2.29518L36.0104 1.99363C36.1136 1.96883 36.2073 1.91556 36.281 1.84108L36.348 1.75958C36.4076 1.67127 36.4398 1.56856 36.4437 1.46347L36.4387 1.35892C36.423 1.25381 36.3781 1.15609 36.3103 1.0761L36.2349 1.00223C36.1248 0.91301 35.9852 0.868314 35.8437 0.876963C26.6564 2.26693 17.6911 4.85566 9.17704 8.57696L7.21846 9.50546C5.02004 10.5547 2.31037 11.9853 0.960371 13.9603C0.755868 14.2504 0.630209 14.5887 0.595693 14.942L0.587605 15.207C0.596073 15.4712 0.655241 15.7327 0.763466 15.9757C0.907944 16.2999 1.13414 16.5811 1.41991 16.7917C1.70567 17.0023 2.04122 17.135 2.3937 17.177C4.51037 17.777 15.9937 16.827 18.577 17.4436C18.7104 17.827 20.0104 27.1603 21.3104 31.4103C21.5341 32.3806 21.9231 33.3052 22.4604 34.1436C22.6556 34.4119 22.9047 34.6364 23.1917 34.8029C23.4787 34.9693 23.7972 35.074 24.127 35.1103C24.6089 35.151 25.0875 35.0014 25.4604 34.6936C27.127 33.427 28.5937 28.677 31.777 22.577C33.7437 18.8436 39.3937 8.94363 40.427 5.49363C40.5409 5.24273 40.6041 4.97274 40.6136 4.69915L40.6051 4.42527C40.57 4.05971 40.4396 3.70975 40.227 3.4103C39.8893 3.20925 39.5035 3.10313 39.1104 3.10313C38.7173 3.10313 38.3315 3.20925 37.9937 3.4103C36.1298 4.34016 34.3652 5.45701 32.727 6.74363C31.477 7.69363 29.077 9.2603 27.377 10.4936C26.8437 10.877 26.3937 11.227 26.0437 11.527C25.9842 11.5858 25.937 11.6559 25.9048 11.7332L25.8676 11.8525C25.8594 11.893 25.8561 11.9354 25.856 11.977L25.8676 12.1015Z" fill="#2F4027"/>
</svg>