<svg xmlns="http://www.w3.org/2000/svg" width="54" height="30" fill="none"><rect width="52.333" height="29" x=".833" y=".5" fill="#fff" rx="3.5"/><rect width="52.333" height="29" x=".833" y=".5" stroke="#DFDFDF" rx="3.5"/><path fill="#000" d="m39.662 11.324 2.08 6.719h.036l2.079-6.72h1.794l-3.1 8.696c-.708 1.991-1.518 2.648-3.24 2.648-.13 0-.568-.015-.67-.044v-1.364c.11.015.379.03.517.03.78 0 1.219-.33 1.489-1.183l.16-.503-2.99-8.28h1.845Zm-23.897-1.007c.394.03 1.532.146 2.261 1.226-.058.043-1.349.787-1.334 2.348.014 1.866 1.63 2.486 1.648 2.502-.015.044-.256.883-.847 1.744-.517.759-1.05 1.502-1.896 1.517-.817.014-1.087-.488-2.027-.488-.934 0-1.241.473-2.014.503-.817.029-1.437-.803-1.955-1.561-1.058-1.532-1.867-4.318-.774-6.2.533-.941 1.503-1.532 2.546-1.547.803-.015 1.54.532 2.029.532.481 0 1.349-.635 2.363-.576Zm18.032.897c2.02 0 3.334 1.058 3.334 2.7v5.66h-1.634v-1.365h-.037c-.467.89-1.496 1.453-2.604 1.453-1.641 0-2.787-.978-2.787-2.452 0-1.458 1.11-2.297 3.159-2.421l2.203-.131v-.628c0-.926-.605-1.43-1.685-1.43-.89 0-1.54.46-1.67 1.16h-1.59c.05-1.473 1.436-2.546 3.311-2.546ZM25.89 8.202c2.203 0 3.742 1.517 3.742 3.734 0 2.218-1.569 3.75-3.8 3.75h-2.444v3.888h-1.766V8.202h4.268Zm7.579 7.768c-1.102.066-1.678.482-1.678 1.196 0 .694.598 1.146 1.54 1.146 1.196 0 2.1-.76 2.1-1.824v-.642l-1.962.124Zm-10.081-1.765h2.027c1.54 0 2.415-.824 2.415-2.261 0-1.437-.875-2.254-2.407-2.254h-2.035v4.515Zm-7.615-6.872c.073.73-.213 1.445-.643 1.977-.438.518-1.138.927-1.838.868-.087-.7.255-1.444.656-1.903.438-.533 1.205-.912 1.825-.942Z"/></svg>