<svg xmlns="http://www.w3.org/2000/svg" viewBox="0 0 90 61" fill="none" preserveAspectRatio="none">
    <path d="M3.05957 13.3879C1.12162 19.5339 1.06516 27.8662 2.1582 36.7971C3.55516 48.2109 5.56662 53.7032 10.998 56.4817C13.7514 57.8901 17.4303 58.6267 22.4678 59.0041C27.5009 59.3813 33.8314 59.3967 41.8633 59.3967C46.2937 59.3967 51.2616 59.6411 56.1953 59.7307C61.1496 59.8207 66.1075 59.7567 70.6104 59.1477C75.1171 58.5381 79.1267 57.3877 82.21 55.3342C85.2756 53.2925 87.447 50.3448 88.2754 46.0735C89.6187 39.1469 89.6291 31.0093 88.6787 23.9309C88.2037 20.3934 87.4898 17.1326 86.5898 14.429C85.6862 11.7142 84.6088 9.60503 83.4297 8.3313C79.8327 4.4456 74.7652 2.41674 64.5381 1.73364C54.3017 1.04997 39.0119 1.71981 15.0762 3.13013L15.0674 3.1311C11.8745 3.26593 9.36461 4.31565 7.41309 6.06763C5.4541 7.82643 4.02676 10.3208 3.05957 13.3879Z" stroke="white"/>
</svg>