<svg xmlns="http://www.w3.org/2000/svg" width="17" height="16" viewBox="0 0 17 16" fill="none">
    <path d="M8.6665 -0.000488281C13.0846 -0.000488281 16.6665 3.58137 16.6665 7.99951C16.6665 12.4177 13.0846 15.9995 8.6665 15.9995C4.24836 15.9995 0.666504 12.4177 0.666504 7.99951C0.666504 3.58137 4.24836 -0.000488152 8.6665 -0.000488281ZM8.6665 0.999512C4.80065 0.999512 1.6665 4.13365 1.6665 7.99951C1.6665 11.8654 4.80065 14.9995 8.6665 14.9995C12.5324 14.9995 15.6665 11.8654 15.6665 7.99951C15.6665 4.13365 12.5324 0.999512 8.6665 0.999512ZM12.2739 4.2417C12.4451 4.0253 12.7595 3.98884 12.9761 4.15967C13.173 4.31533 13.2216 4.58997 13.1001 4.80127L13.0591 4.86182L7.83545 11.4702C7.75611 11.5745 7.65954 11.6654 7.54834 11.7407C7.0272 12.0896 6.33091 11.9757 5.95166 11.5034L5.89111 11.4214L4.25732 9.10303C4.09874 8.87735 4.15289 8.56568 4.37842 8.40674C4.58355 8.2622 4.85974 8.29388 5.02783 8.47021L5.07568 8.52783L6.71533 10.855C6.77636 10.9461 6.9007 10.9712 6.98975 10.9116L7.01807 10.8882L7.04541 10.8579L12.2739 4.2417Z" fill="#2F4027"/>
</svg>