<svg xmlns="http://www.w3.org/2000/svg" viewBox="0 0 95 64" fill="none" preserveAspectRatio="none">
    <path d="M43.6265 61.0922C12.5432 61.0922 6.59327 60.8653 3.71641 40.1123C3.67001 39.7776 3.62431 39.4376 3.57942 39.0921L3.57619 39.0665L3.44686 38.0392C1.25618 20.1198 3.63269 4.34888 16.8243 3.79133C64.6514 0.970069 78.089 1.0996 85.5373 9.15519C85.6098 9.23359 85.682 9.31487 85.754 9.39895C88.9177 13.0963 91.5468 22.2337 91.9927 31.8884C92.0611 33.3711 92.0781 34.8659 92.0376 36.3551C92.0064 37.5026 91.9411 38.6466 91.8389 39.7792C91.6237 42.1654 91.245 44.5005 90.6773 46.7084L90.5045 47.3557C86.6616 61.2128 64.0585 61.148 46.6408 61.098H46.6388H46.6368C45.6139 61.0951 44.6088 61.0922 43.6265 61.0922ZM43.6263 63.0921C52.3866 63.0921 63.3141 63.3337 72.5306 61.6946C81.6297 60.0764 90.0595 56.4449 92.432 47.8899C94.4328 40.6747 94.4213 32.1758 93.3001 24.8323C92.7375 21.1476 91.8879 17.6995 90.8392 14.7952C89.8053 11.9321 88.5213 9.4358 87.0062 7.79716C82.7652 3.21041 76.9144 1.09806 66.4564 0.398727C56.0356 -0.298108 40.5808 0.386892 16.7064 1.79521C12.9969 1.95868 9.93261 3.20522 7.52375 5.37041C5.13757 7.51524 3.51561 10.4502 2.4593 13.804C0.361114 20.466 0.354604 29.229 1.46125 38.2815C2.84811 49.6259 4.92482 56.4611 11.639 59.8997C14.8457 61.5419 18.9298 62.3082 24.055 62.6927C29.1986 63.0785 35.6292 63.0921 43.6263 63.0921Z" fill="white"/>
    <path fill-rule="evenodd" clip-rule="evenodd" d="M85.754 9.39895C85.682 9.31487 85.6098 9.23359 85.5373 9.15519L85.754 9.39895ZM90.5045 47.3557C91.1691 44.9591 91.6026 42.3999 91.8389 39.7792C91.9411 38.6466 92.0064 37.5026 92.0376 36.3551C92.0781 34.8659 92.0611 33.3711 91.9927 31.8884C91.5478 22.2504 88.9275 13.1279 85.7711 9.41818C89.787 14.1387 92.9352 27.6215 91.8389 39.7792C91.6237 42.1654 91.245 44.5005 90.6773 46.7084L90.5045 47.3557ZM43.6265 61.0922C44.6088 61.0922 45.6139 61.0951 46.6368 61.098H46.6388H46.6408C45.6165 61.0951 44.6101 61.0922 43.6265 61.0922ZM3.57619 39.0665L3.44686 38.0392C3.534 38.7521 3.62361 39.4429 3.71641 40.1123M43.6265 59.5922C35.5871 59.5922 29.3019 59.5765 24.3169 59.2026C19.3182 58.8275 15.8037 58.1007 13.2339 56.7846C8.32002 54.2678 6.33599 49.3081 4.93606 37.8568C3.84931 28.967 3.92596 20.7996 5.79836 14.8547C6.72917 11.8996 8.07727 9.57975 9.8638 7.97384C11.6281 6.38801 13.9103 5.4161 16.8882 5.29024L16.8999 5.28926L16.9126 5.28829C40.8556 3.87592 56.0683 3.21176 66.2232 3.89082C76.3497 4.568 81.0996 6.56466 84.4361 10.1731C85.4869 11.3095 86.5773 13.2973 87.5474 15.9836C88.5063 18.639 89.3061 21.8611 89.8404 25.3606C90.912 32.3796 90.8898 40.3529 89.0592 46.9545C87.2783 53.3763 80.8385 56.6629 71.9175 58.2494C64.0634 59.6462 54.8645 59.6207 46.6479 59.5979C45.624 59.595 44.6154 59.5922 43.6265 59.5922Z" fill="white"/>
</svg>