<svg xmlns="http://www.w3.org/2000/svg" viewBox="0 0 52 52" fill="none">
    <path d="M23.9756 49.9894C7.27344 49.9894 4.07607 49.8048 2.53025 32.9152L2.5249 32.8527L2.3858 31.2284C1.20868 16.6451 2.48565 3.81038 9.5739 3.35664C35.2729 1.06063 42.4933 1.16604 46.4955 7.72187C47.6497 9.6125 48.6825 13.5553 49.3229 18.324C50.1263 24.3066 50.312 31.589 49.3447 37.7501L49.3434 37.7576L49.1646 38.8103C47.2514 49.258 36.6861 49.9817 27.7002 49.9992L27.6216 49.999L25.5952 49.9942L25.2935 49.9929L23.9756 49.9894ZM23.9756 51.9894C28.5943 51.9894 34.6825 52.1977 39.8388 50.8088C42.4605 50.1026 44.9781 48.9542 47.0097 47.0558C49.0669 45.1336 50.5138 42.5451 51.1318 39.1701C52.1985 33.3441 52.1942 26.4732 51.5947 20.5255C51.294 17.5424 50.8398 14.7513 50.2793 12.4005C49.7303 10.0979 49.0414 8.05468 48.2021 6.67985C47.0493 4.79142 45.6068 3.2853 43.6103 2.19547C41.6504 1.12561 39.2798 0.524141 36.372 0.229651C30.6248 -0.35234 22.1851 0.221766 9.39549 1.36442C6.95589 1.53618 5.05641 2.79787 3.6826 4.66813C2.34474 6.48949 1.47912 8.90731 0.921853 11.5871C-0.1948 16.9571 -0.200771 24.0378 0.392557 31.3888C0.768348 36.0445 1.23798 39.7064 2.04295 42.5382C2.85695 45.4018 4.06718 47.6112 6.05174 49.1506C8.00446 50.6652 10.4539 51.3305 13.3135 51.6554C16.1651 51.9795 19.7017 51.9894 23.9756 51.9894Z" fill="#B1CFB0"/>
    <path fill-rule="evenodd" clip-rule="evenodd" d="M49.3447 37.7501C50.312 31.589 50.1263 24.3066 49.3229 18.324C50.1266 24.309 50.312 31.5949 49.3434 37.7576L49.1646 38.8103C47.2459 49.2887 36.6245 49.9854 27.6216 49.999L25.5952 49.9942L25.2935 49.9929C24.847 49.991 24.4072 49.9894 23.9756 49.9894L25.2935 49.9929L25.5952 49.9942C26.2582 49.9971 26.9352 50 27.6216 49.999L27.7002 49.9992C36.6861 49.9817 47.2514 49.258 49.1646 38.8103C49.2281 38.4635 49.2877 38.1124 49.3434 37.7576L49.3447 37.7501ZM2.3858 31.2284L2.5249 32.8527C2.47707 32.3275 2.43082 31.7862 2.3858 31.2284ZM23.9756 48.4894C19.6382 48.4894 16.3217 48.4748 13.709 48.1779C11.1022 47.8817 9.40487 47.3224 8.19629 46.3849C7.01177 45.4659 6.10743 44.0341 5.41017 41.5812C4.70609 39.1043 4.25459 35.7375 3.88087 31.1076C3.29594 23.8607 3.33448 17.1758 4.34864 12.2989C4.85654 9.8567 5.5857 7.99039 6.50391 6.74035C7.38811 5.53663 8.41683 4.93384 9.66992 4.85363L9.68848 4.85265L9.70703 4.8507C22.6009 3.69873 30.6739 3.17068 36.0195 3.71202C38.6667 3.98013 40.5313 4.50223 41.9336 5.26769C43.3081 6.01807 44.3286 7.05154 45.2148 8.50304C45.7605 9.39689 46.3478 11.0054 46.874 13.212C47.3915 15.3827 47.824 18.0164 48.1123 20.8761C48.6902 26.6098 48.6794 33.1332 47.6894 38.5402C47.1964 41.2328 46.0882 43.1263 44.6201 44.4982C43.133 45.8878 41.1924 46.8191 38.9287 47.4289C34.8404 48.5301 30.0351 48.5112 25.5997 48.4937C25.052 48.4915 24.5099 48.4894 23.9756 48.4894Z" fill="#B1CFB0"/>
</svg>