<svg xmlns="http://www.w3.org/2000/svg" viewBox="0 0 95 64" fill="none" preserveAspectRatio="none">
    <path d="M43.6265 61.2267C12.5432 61.2267 6.59327 60.9997 3.71641 40.2468C3.67001 39.9121 3.62431 39.572 3.57942 39.2266L3.57619 39.2009L3.44686 38.1737C1.25618 20.2542 3.63269 4.48334 16.8243 3.92579C64.6514 1.10453 78.089 1.23406 85.5373 9.28965C85.6098 9.36805 85.682 9.44933 85.754 9.53341C88.9177 13.2308 91.5468 22.3682 91.9927 32.0229C92.0611 33.5055 92.0781 35.0004 92.0376 36.4896C92.0064 37.637 91.9411 38.7811 91.8389 39.9137C91.6237 42.2998 91.245 44.635 90.6773 46.8428L90.5045 47.4902C86.6616 61.3473 64.0585 61.2824 46.6408 61.2325H46.6388H46.6368C45.6139 61.2296 44.6088 61.2267 43.6265 61.2267ZM43.6263 63.2265C52.3866 63.2265 63.3141 63.4682 72.5306 61.8291C81.6297 60.2108 90.0595 56.5794 92.432 48.0244C94.4328 40.8091 94.4213 32.3102 93.3001 24.9668C92.7375 21.282 91.8879 17.8339 90.8392 14.9297C89.8053 12.0666 88.5213 9.57026 87.0062 7.93162C82.7652 3.34487 76.9144 1.23252 66.4564 0.533188C56.0356 -0.163648 40.5808 0.521352 16.7064 1.92967C12.9969 2.09314 9.93261 3.33968 7.52375 5.50487C5.13757 7.6497 3.51561 10.5847 2.4593 13.9385C0.361114 20.6005 0.354604 29.3635 1.46125 38.416C2.84811 49.7603 4.92482 56.5955 11.639 60.0342C14.8457 61.6764 18.9298 62.4426 24.055 62.8271C29.1986 63.213 35.6292 63.2265 43.6263 63.2265Z" fill="#3F593F"/>
    <path fill-rule="evenodd" clip-rule="evenodd" d="M85.754 9.53341C85.682 9.44933 85.6098 9.36805 85.5373 9.28965L85.754 9.53341ZM90.5045 47.4902C91.1691 45.0936 91.6026 42.5344 91.8389 39.9137C91.9411 38.7811 92.0064 37.637 92.0376 36.4896C92.0781 35.0004 92.0611 33.5055 91.9927 32.0229C91.5478 22.3849 88.9275 13.2624 85.7711 9.55264C89.787 14.2731 92.9352 27.7559 91.8389 39.9137C91.6237 42.2998 91.245 44.635 90.6773 46.8428L90.5045 47.4902ZM43.6265 61.2267C44.6088 61.2267 45.6139 61.2296 46.6368 61.2325H46.6388H46.6408C45.6165 61.2296 44.6101 61.2267 43.6265 61.2267ZM3.57619 39.2009L3.44686 38.1737C3.534 38.8865 3.62361 39.5773 3.71641 40.2468M43.6265 59.7267C35.5871 59.7267 29.3019 59.711 24.3169 59.337C19.3182 58.962 15.8037 58.2352 13.2339 56.919C8.32002 54.4022 6.33599 49.4426 4.93606 37.9912C3.84931 29.1015 3.92596 20.9341 5.79836 14.9892C6.72917 12.034 8.07727 9.71421 9.8638 8.1083C11.6281 6.52247 13.9103 5.55056 16.8882 5.4247L16.8999 5.42372L16.9126 5.42275C40.8556 4.01038 56.0683 3.34622 66.2232 4.02528C76.3497 4.70246 81.0996 6.69912 84.4361 10.3075C85.4869 11.444 86.5773 13.4317 87.5474 16.1181C88.5063 18.7735 89.3061 21.9955 89.8404 25.4951C90.912 32.5141 90.8898 40.4874 89.0592 47.0889C87.2783 53.5107 80.8385 56.7973 71.9175 58.3839C64.0634 59.7807 54.8645 59.7551 46.6479 59.7323C45.624 59.7295 44.6154 59.7267 43.6265 59.7267Z" fill="#3F593F"/>
</svg>