<svg xmlns="http://www.w3.org/2000/svg" width="41" height="40" viewBox="0 0 41 40" fill="none">
    <path fill-rule="evenodd" clip-rule="evenodd" d="M27.9611 28.5482C28.02 28.4655 28.0063 28.3763 27.9869 28.2895C27.9675 28.2028 27.9093 28.0881 27.842 28.03C27.8002 27.9855 27.75 27.9498 27.6942 27.9249C27.6385 27.9 27.5783 27.8863 27.5173 27.8848C27.4563 27.8833 27.3955 27.8939 27.3386 27.916C27.2817 27.9381 27.2297 27.9713 27.1857 28.0136C26.6916 28.3398 25.8445 28.7084 25.3269 28.9538C24.4975 29.3489 23.404 29.6659 22.5225 29.9249C20.2808 30.6361 17.8097 30.6228 15.4676 30.409C13.1599 30.2234 11.5039 29.2908 9.63455 27.9249C7.99426 26.628 6.91295 25.2985 6.12517 23.3615C5.33738 21.4245 5.06496 19.3165 5.33445 17.2429C5.5072 15.164 6.11818 13.1452 7.12718 11.3194C8.13619 9.49361 9.52035 7.90214 11.1886 6.64972C12.2195 5.9067 13.324 5.2715 14.4847 4.7541C15.592 4.22873 16.7733 3.87648 17.9875 3.70964C21.345 3.42899 24.6797 4.46841 27.283 6.6071C29.9381 8.74309 31.5579 11.5547 32.3003 14.8805C32.571 16.1725 32.6277 17.3766 32.6051 18.6965C32.5989 20.0063 32.3285 21.1811 31.8205 22.3884C31.2963 23.3529 30.6927 24.5336 30.0194 25.4007C29.6114 25.9712 29.1997 26.4412 28.7221 26.9573C28.6058 27.083 28.5372 27.1793 28.5275 27.3502C28.5189 27.5036 28.5773 27.6044 28.6451 27.7255C28.7136 27.8463 28.827 27.935 28.9607 27.9723C29.0944 28.0097 29.2375 27.9926 29.3586 27.9249C30.9492 26.6462 32.2592 25.0535 33.2071 23.2462C33.7931 21.9159 34.1869 20.4399 34.2057 18.9863C34.2693 17.5611 34.1418 15.9859 33.869 14.5855C33.1382 10.9228 31.1069 7.81248 28.2279 5.43313C25.3674 2.9657 21.6484 1.72751 17.8798 1.9879C16.4607 2.1375 15.0737 2.50826 13.7692 3.08673C12.4948 3.64718 11.2825 4.33938 10.1521 5.15203C8.27288 6.55986 6.71859 8.3555 5.59467 10.4171C4.47076 12.4786 3.80353 14.7579 3.63828 17.1001C3.37977 19.4449 3.74376 21.8164 4.69359 23.9757C5.64343 26.135 7.14555 28.0058 9.04863 29.3998C11.1333 30.8669 13.585 31.7253 16.1295 31.8788C18.6258 32.0325 21.128 31.6947 23.4941 30.8844C24.4176 30.5881 25.2162 30.279 26.1868 29.7927C26.9455 29.4125 27.6226 29.0234 27.9611 28.5482Z" fill="#2F4027"/>
    <path d="M13.6341 2.7815C14.8035 2.26297 16.0377 1.90776 17.302 1.72434L17.8455 1.65617L17.8569 1.65527L18.5788 1.62392C22.1826 1.55278 25.6961 2.81209 28.4394 5.17588C31.1868 7.44646 33.1847 10.3797 34.0397 13.8252L34.1956 14.5225C34.4723 15.943 34.601 17.5393 34.5375 18.9891L34.5394 18.9904C34.5199 20.4991 34.1111 22.0207 33.5118 23.3814L33.503 23.4017L33.501 23.4005C32.5319 25.2483 31.1937 26.8772 29.5675 28.1846L29.5465 28.2026L29.5213 28.2166C29.3235 28.3271 29.0897 28.3544 28.8714 28.2936C28.6531 28.2325 28.4679 28.0873 28.3559 27.8902L28.354 27.8889C28.2902 27.7749 28.1794 27.5933 28.1941 27.3309C28.2104 27.0453 28.3413 26.8772 28.4768 26.7307C28.9507 26.2187 29.3527 25.7609 29.7488 25.207L29.7562 25.1953C30.4036 24.3615 30.986 23.2235 31.5155 22.2485C32.0059 21.0801 32.2659 19.9523 32.2719 18.6953L32.2724 18.6902C32.2948 17.3854 32.2382 16.2096 31.9752 14.9524L31.8284 14.3481C31.0453 11.3532 29.5027 8.82051 27.0748 6.86703L27.0709 6.86457C24.5358 4.78222 21.2893 3.76846 18.0201 4.04043C16.8442 4.20332 15.7007 4.54702 14.6281 5.05591L14.6205 5.05927C13.4809 5.56732 12.3965 6.19098 11.3843 6.92051L11.3823 6.91928C9.75433 8.14269 8.40397 9.69753 7.41887 11.4799C6.43263 13.2645 5.83569 15.2385 5.66683 17.2704L5.66526 17.2858C5.4032 19.3023 5.66798 21.3528 6.43406 23.2364C7.19549 25.1084 8.23499 26.3917 9.83068 27.6553C11.6806 29.007 13.2769 29.8978 15.494 30.0763L15.4975 30.0771C17.8258 30.2896 20.2445 30.2985 22.4223 29.6075L22.4283 29.6045C23.3182 29.343 24.3839 29.0342 25.1842 28.6529L26.1199 28.2134C26.4483 28.0548 26.7682 27.8904 27.0022 27.7359C27.0675 27.682 27.1391 27.6366 27.2183 27.6059C27.3162 27.5678 27.4213 27.5494 27.5264 27.552C27.6312 27.5547 27.7346 27.578 27.8303 27.6208C27.9154 27.6588 27.9907 27.7137 28.0574 27.7785L28.0606 27.7777C28.0648 27.7814 28.0676 27.7865 28.0717 27.7903C28.0755 27.7941 28.0804 27.7969 28.0841 27.8008C28.1463 27.8608 28.1922 27.9298 28.2247 27.9895C28.2624 28.0591 28.2948 28.1388 28.3122 28.2168C28.3316 28.3036 28.3842 28.5289 28.2328 28.7416C28.03 29.0263 27.7382 29.2684 27.4162 29.4829C27.0923 29.6988 26.7191 29.8996 26.3365 30.0913C25.35 30.5856 24.5355 30.8984 23.6004 31.1986C21.1933 32.0227 18.6478 32.3684 16.1084 32.2121C13.5027 32.0546 10.9923 31.1748 8.85752 29.6725L8.85168 29.6688C6.90134 28.2403 5.36118 26.3223 4.38776 24.1094C3.41535 21.8984 3.04328 19.4703 3.30694 17.0694C3.47643 14.6821 4.15681 12.3585 5.30245 10.2571C6.44912 8.15392 8.03483 6.32222 9.95188 4.88591L9.95752 4.88131C11.1065 4.05532 12.3388 3.35122 13.6341 2.7815ZM17.8798 1.9879C16.4607 2.1375 15.0737 2.50826 13.7692 3.08673C12.4948 3.64718 11.2825 4.33938 10.1521 5.15203C8.27288 6.55986 6.71859 8.3555 5.59467 10.4171C4.47076 12.4786 3.80353 14.7579 3.63828 17.1001C3.37977 19.4449 3.74376 21.8164 4.69359 23.9757C5.64343 26.135 7.14555 28.0058 9.04863 29.3998C11.1333 30.8669 13.585 31.7253 16.1295 31.8788C18.6258 32.0325 21.128 31.6947 23.4941 30.8844C24.4176 30.5881 25.2162 30.279 26.1868 29.7927C26.9455 29.4125 27.6226 29.0234 27.9611 28.5482C28.02 28.4655 28.0063 28.3763 27.9869 28.2895C27.9675 28.2028 27.9093 28.0881 27.842 28.03C27.8002 27.9855 27.75 27.9498 27.6942 27.9249C27.6385 27.9 27.5783 27.8863 27.5173 27.8848C27.4563 27.8833 27.3955 27.8939 27.3386 27.916C27.2817 27.9381 27.2297 27.9713 27.1857 28.0136C26.6916 28.3398 25.8445 28.7084 25.3269 28.9538C24.4975 29.3489 23.404 29.6659 22.5225 29.9249C20.2808 30.6361 17.8097 30.6228 15.4676 30.409C13.1599 30.2234 11.5039 29.2908 9.63455 27.9249C7.99426 26.628 6.91295 25.2985 6.12517 23.3615C5.38655 21.5454 5.10124 19.5789 5.29059 17.6315L5.42035 16.4667C5.6668 14.6625 6.24428 12.917 7.12718 11.3194C8.13619 9.49361 9.52035 7.90214 11.1886 6.64972C12.2195 5.9067 13.324 5.2715 14.4847 4.7541C15.592 4.22873 16.7733 3.87648 17.9875 3.70964C21.345 3.42899 24.6797 4.46841 27.283 6.6071C29.9381 8.74309 31.5579 11.5547 32.3003 14.8805C32.571 16.1725 32.6277 17.3766 32.6051 18.6965C32.5989 20.0063 32.3285 21.1811 31.8205 22.3884C31.2963 23.3529 30.6927 24.5336 30.0194 25.4007C29.6114 25.9712 29.1997 26.4412 28.7221 26.9573C28.6058 27.083 28.5372 27.1793 28.5275 27.3502C28.5189 27.5036 28.5773 27.6044 28.6451 27.7255C28.7136 27.8463 28.827 27.935 28.9607 27.9723C29.0944 28.0097 29.2375 27.9926 29.3586 27.9249C30.9492 26.6462 32.2592 25.0535 33.2071 23.2462C33.7931 21.9159 34.1869 20.4399 34.2057 18.9863C34.2693 17.5611 34.1418 15.9859 33.869 14.5855C33.1382 10.9228 31.1069 7.81248 28.2279 5.43313C25.3674 2.9657 21.6484 1.72751 17.8798 1.9879Z" fill="#2F4027"/>
    <path fill-rule="evenodd" clip-rule="evenodd" d="M38.2735 32.4209C37.9653 31.6794 37.4751 31.0276 36.8483 30.5257C36.0594 29.9128 35.2384 29.3423 34.3889 28.8167C33.689 28.3441 33.0148 27.8345 32.3178 27.3775C32.1295 27.2575 30.887 26.4891 30.6823 26.3998C29.9852 25.9429 29.5051 26.8706 29.8094 27.1232C30.0917 27.2738 31.3147 28.1256 31.5592 28.332C32.2305 28.8259 32.9538 29.3824 33.5468 29.8905C34.1398 30.3985 35.1841 30.9871 35.9022 31.6506C36.2973 32.0163 36.5963 32.4736 36.7729 32.9822C36.8796 33.431 36.8445 33.9019 36.6723 34.3299C36.5002 34.7578 36.1995 35.1219 35.8117 35.3718C35.4783 35.7039 35.0585 35.9359 34.5998 36.0413C34.1412 36.1468 33.6622 36.1214 33.2173 35.9683C32.831 35.7707 32.4751 35.5188 32.1604 35.2202C31.6285 34.6747 31.1346 34.0933 30.6823 33.4801C29.9263 32.5161 29.1703 31.552 28.5312 30.5184C28.2187 30.0408 27.8263 29.3824 27.5295 28.902C27.2327 28.4215 26.5056 28.876 26.7281 29.4831C26.9507 30.0902 27.5348 31.0052 27.921 31.7122C28.4511 32.6199 29.015 33.5053 29.6126 34.3684C30.0505 35.0758 30.5396 35.7502 31.076 36.3861C31.4911 36.8536 31.9832 37.2465 32.5309 37.5479C33.2739 37.8572 34.0903 37.9459 34.8824 37.8033C35.6744 37.6607 36.4086 37.2929 36.9971 36.7439C37.6348 36.247 38.1009 35.5628 38.3298 34.7874C38.5588 34.0121 38.5391 33.1845 38.2735 32.4209Z" fill="#2F4027"/>
    <path d="M30.1458 25.9569C30.3656 25.9145 30.5943 25.9628 30.8155 26.0943L31.1659 26.2859C31.3164 26.3737 31.4987 26.4826 31.6791 26.5921L32.4975 27.0963L32.5013 27.099C32.8553 27.331 33.2025 27.5755 33.5454 27.8189C33.8898 28.0634 34.2292 28.3064 34.5749 28.5398C35.2162 28.937 35.8405 29.3584 36.4482 29.8051L37.053 30.2618L37.057 30.266C37.6436 30.7358 38.1188 31.3279 38.4491 31.9999L38.5814 32.2936L38.5894 32.3104C38.8777 33.1397 38.8972 34.0392 38.6487 34.8812C38.4028 35.714 37.9043 36.4486 37.2235 36.9867C36.5882 37.5794 35.7958 37.978 34.9407 38.132C34.0859 38.2857 33.2041 38.1902 32.4022 37.8564L32.386 37.8494L32.3696 37.8407C31.7886 37.521 31.2665 37.1029 30.8261 36.6071L30.8218 36.6012C30.2749 35.9529 29.7748 35.2645 29.3284 34.5433C28.73 33.6782 28.1645 32.7893 27.6334 31.8799L27.6287 31.8725C27.4358 31.5193 27.2031 31.1294 26.9737 30.7236C26.752 30.3314 26.537 29.9291 26.4153 29.597C26.248 29.1397 26.4387 28.7175 26.7469 28.5087C26.8993 28.4055 27.0934 28.3461 27.2951 28.3753C27.5057 28.4059 27.6908 28.5287 27.8132 28.7268L28.8105 30.335L28.8152 30.3425C29.2859 31.1038 29.8219 31.8288 30.3804 32.5512L30.944 33.275L30.9502 33.2822C31.3907 33.8792 31.8709 34.4463 32.3884 34.978C32.6726 35.2476 32.995 35.4754 33.3423 35.6563C33.7239 35.7844 34.1332 35.8064 34.5256 35.7161C34.9233 35.6246 35.2879 35.4229 35.577 35.1349L35.6008 35.1108L35.6305 35.0922C35.9602 34.8797 36.2176 34.5699 36.364 34.206C36.5085 33.8466 36.5363 33.4517 36.4496 33.0743C36.2903 32.6246 36.0255 32.2199 35.6752 31.8957C35.3356 31.582 34.9135 31.2806 34.4878 30.9865C34.0725 30.6996 33.6438 30.4116 33.3305 30.1431C32.7463 29.6427 32.0293 29.0924 31.361 28.6008L31.3437 28.5874C31.236 28.4965 30.8836 28.2404 30.5084 27.9803C30.131 27.7187 29.7729 27.4807 29.6528 27.4166L29.6221 27.4023L29.5967 27.3804C29.402 27.2188 29.368 26.9792 29.3882 26.8011C29.4092 26.6174 29.4908 26.4332 29.6127 26.2844C29.7361 26.1338 29.9163 26.0012 30.1458 25.9569ZM30.6823 26.3998C29.9852 25.9429 29.5051 26.8706 29.8094 27.1232C30.0917 27.2738 31.3147 28.1256 31.5592 28.332C32.2305 28.8259 32.9538 29.3824 33.5468 29.8905C34.1398 30.3985 35.1841 30.9871 35.9022 31.6506C36.2973 32.0163 36.5963 32.4736 36.7729 32.9822C36.8796 33.431 36.8445 33.9019 36.6723 34.3299C36.5002 34.7578 36.1995 35.1219 35.8117 35.3718C35.4783 35.7039 35.0585 35.9359 34.5998 36.0413C34.1412 36.1468 33.6622 36.1214 33.2173 35.9683C32.831 35.7707 32.4751 35.5188 32.1604 35.2202C31.6285 34.6747 31.1346 34.0933 30.6823 33.4801C29.9263 32.5161 29.1703 31.552 28.5312 30.5184C28.2187 30.0408 27.8263 29.3824 27.5295 28.902C27.2327 28.4215 26.5056 28.876 26.7281 29.4831C26.9507 30.0902 27.5348 31.0052 27.921 31.7122C28.4511 32.6199 29.015 33.5053 29.6126 34.3684C30.0505 35.0758 30.5396 35.7502 31.076 36.3861C31.4911 36.8536 31.9832 37.2465 32.5309 37.5479C33.2739 37.8572 34.0903 37.9459 34.8824 37.8033C35.6744 37.6607 36.4086 37.2929 36.9971 36.7439C37.6348 36.247 38.1009 35.5628 38.3298 34.7874C38.5588 34.0121 38.5391 33.1845 38.2735 32.4209C37.9653 31.6794 37.4751 31.0276 36.8483 30.5257C36.0594 29.9128 35.2384 29.3423 34.3889 28.8167C33.689 28.3441 33.0148 27.8345 32.3178 27.3775C32.1295 27.2575 30.887 26.4891 30.6823 26.3998Z" fill="#2F4027"/>
</svg>