<svg xmlns="http://www.w3.org/2000/svg" width="41" height="40" fill="none"><rect width="40" height="40" x=".2" fill="#3F593F" rx="20"/><path fill="#fff" d="M20.2 10c2.716 0 3.056.012 4.123.06 1.064.05 1.791.218 2.427.465a4.9 4.9 0 0 1 1.771 1.154 4.9 4.9 0 0 1 1.153 1.77c.248.636.417 1.364.465 2.428.049 1.067.06 1.407.06 4.123s-.011 3.056-.06 4.123c-.048 1.064-.217 1.792-.465 2.428a4.9 4.9 0 0 1-1.153 1.77 4.9 4.9 0 0 1-1.77 1.154c-.637.247-1.364.416-2.428.464-1.067.05-1.407.061-4.123.061s-3.057-.012-4.123-.06c-1.065-.05-1.792-.218-2.428-.465a4.901 4.901 0 0 1-1.77-1.154 4.9 4.9 0 0 1-1.154-1.77c-.247-.636-.416-1.364-.465-2.428-.048-1.067-.06-1.407-.06-4.123s.012-3.056.06-4.123c.049-1.064.218-1.792.465-2.428a4.9 4.9 0 0 1 1.153-1.77 4.901 4.901 0 0 1 1.77-1.154c.637-.247 1.364-.416 2.429-.465 1.066-.048 1.407-.06 4.123-.06Zm0 1.802c-2.67 0-2.987.01-4.041.058-.975.045-1.504.207-1.857.344a3.1 3.1 0 0 0-1.15.748 3.1 3.1 0 0 0-.748 1.15c-.137.353-.3.882-.344 1.857-.048 1.054-.059 1.37-.059 4.041 0 2.67.01 2.987.06 4.041.043.975.206 1.504.343 1.857.181.466.398.8.748 1.15a3.1 3.1 0 0 0 1.15.748c.353.137.882.3 1.857.344 1.054.048 1.37.058 4.04.058 2.671 0 2.987-.01 4.042-.058.974-.045 1.504-.207 1.856-.344.467-.181.8-.398 1.15-.748.35-.35.567-.684.749-1.15.137-.353.299-.882.343-1.857.049-1.054.059-1.37.059-4.041 0-2.67-.01-2.987-.059-4.041-.044-.975-.206-1.504-.343-1.857a3.102 3.102 0 0 0-.748-1.15 3.102 3.102 0 0 0-1.15-.748c-.353-.137-.883-.3-1.857-.344-1.055-.048-1.371-.058-4.041-.058Zm0 3.063a5.135 5.135 0 1 1 0 10.27 5.135 5.135 0 0 1 0-10.27Zm0 1.802a3.333 3.333 0 1 0 0 6.665 3.333 3.333 0 0 0 0-6.665Zm5.338-3.205a1.2 1.2 0 1 1 0 2.4 1.2 1.2 0 0 1 0-2.4Z"/><mask id="a" width="21" height="20" x="10" y="10" maskUnits="userSpaceOnUse" style="mask-type:luminance"><path fill="#fff" d="M20.2 10c2.716 0 3.056.012 4.123.06 1.064.05 1.791.218 2.427.465a4.9 4.9 0 0 1 1.771 1.154 4.9 4.9 0 0 1 1.153 1.77c.248.636.417 1.364.465 2.428.049 1.067.06 1.407.06 4.123s-.011 3.056-.06 4.123c-.048 1.064-.217 1.792-.465 2.428a4.9 4.9 0 0 1-1.153 1.77 4.9 4.9 0 0 1-1.77 1.154c-.637.247-1.364.416-2.428.464-1.067.05-1.407.061-4.123.061s-3.057-.012-4.123-.06c-1.065-.05-1.792-.218-2.428-.465a4.901 4.901 0 0 1-1.77-1.154 4.9 4.9 0 0 1-1.154-1.77c-.247-.636-.416-1.364-.465-2.428-.048-1.067-.06-1.407-.06-4.123s.012-3.056.06-4.123c.049-1.064.218-1.792.465-2.428a4.9 4.9 0 0 1 1.153-1.77 4.901 4.901 0 0 1 1.77-1.154c.637-.247 1.364-.416 2.429-.465 1.066-.048 1.407-.06 4.123-.06Zm0 1.802c-2.67 0-2.987.01-4.041.058-.975.045-1.504.207-1.857.344a3.1 3.1 0 0 0-1.15.748 3.1 3.1 0 0 0-.748 1.15c-.137.353-.3.882-.344 1.857-.048 1.054-.059 1.37-.059 4.041 0 2.67.01 2.987.06 4.041.043.975.206 1.504.343 1.857.181.466.398.8.748 1.15a3.1 3.1 0 0 0 1.15.748c.353.137.882.3 1.857.344 1.054.048 1.37.058 4.04.058 2.671 0 2.987-.01 4.042-.058.974-.045 1.504-.207 1.856-.344.467-.181.8-.398 1.15-.748.35-.35.567-.684.749-1.15.137-.353.299-.882.343-1.857.049-1.054.059-1.37.059-4.041 0-2.67-.01-2.987-.059-4.041-.044-.975-.206-1.504-.343-1.857a3.102 3.102 0 0 0-.748-1.15 3.102 3.102 0 0 0-1.15-.748c-.353-.137-.883-.3-1.857-.344-1.055-.048-1.371-.058-4.041-.058Zm0 3.063a5.135 5.135 0 1 1 0 10.27 5.135 5.135 0 0 1 0-10.27Zm0 1.802a3.333 3.333 0 1 0 0 6.665 3.333 3.333 0 0 0 0-6.665Zm5.338-3.205a1.2 1.2 0 1 1 0 2.4 1.2 1.2 0 0 1 0-2.4Z"/></mask></svg>