<svg width="41" height="41" viewBox="0 0 41 41" fill="none" xmlns="http://www.w3.org/2000/svg">
    <path d="M6.12688 28.7561C6.12688 28.7561 6.12688 28.7561 6.09717 28.7561C6.11202 28.7412 6.12688 28.7263 6.12688 28.7263C6.12688 28.7263 6.12688 28.7263 6.12688 28.7412V28.7561Z" fill="#FF5500"/>
    <path d="M6.37955 28.4751C6.51325 28.386 6.46868 28.4157 6.42411 28.4305C6.32012 28.4751 6.29041 28.5197 6.23098 28.5939C6.18641 28.6385 6.15671 28.6831 6.14185 28.7277C6.14185 28.7277 6.14185 28.7276 6.14185 28.7425C6.14185 28.7425 6.11213 28.7574 6.09728 28.7722C6.09728 28.7722 6.09728 28.7722 6.09728 28.7574C6.09728 28.7574 6.06757 28.7574 6.05271 28.7722C6.03786 28.7722 6.00814 28.7722 5.99329 28.7722C5.99329 28.7722 5.97843 28.7722 5.96357 28.7722H5.93386C5.87444 28.7722 5.80016 28.7722 5.74073 28.7425C5.74073 28.7425 5.71102 28.7425 5.69616 28.7425C5.68131 28.7425 5.6516 28.7276 5.6516 28.7425C5.53275 28.6979 5.42876 28.6534 5.30991 28.5939C5.30991 28.5939 5.29505 28.5939 5.28019 28.5939C5.25048 28.5939 5.23563 28.5642 5.20591 28.5494C5.14649 28.5197 5.08707 28.4751 5.02764 28.4305C4.78994 28.2671 4.58196 28.0888 4.35912 27.9106C4.31455 27.8809 4.28483 27.8511 4.24027 27.8066C4.24027 27.8066 4.22541 27.8066 4.21055 27.7917C4.16598 27.762 4.13627 27.7174 4.10656 27.6729C4.0917 27.6432 4.062 27.6283 4.04714 27.5986C4.04714 27.5986 4.01742 27.5392 4.00257 27.5243C4.00257 27.5243 4.00257 27.5095 4.00257 27.4946C3.98771 27.4649 3.97286 27.4352 3.958 27.4055C3.94315 27.3609 3.92829 27.3163 3.89858 27.2718C3.88372 27.1975 3.85401 27.1232 3.83915 27.0341C3.79458 26.9003 3.76487 26.7518 3.7203 26.6181C3.61631 26.2764 3.49746 25.9199 3.36376 25.5782C3.31919 25.4593 3.27462 25.3405 3.20034 25.2365C3.20034 25.2365 3.20034 25.2365 3.2152 25.2513C3.28948 25.3405 3.36376 25.4296 3.43804 25.5336C3.48261 25.593 3.52717 25.6524 3.55689 25.7119C3.55689 25.7267 3.5866 25.7564 3.5866 25.7564C3.64602 25.8604 3.72031 25.9644 3.77973 26.0684C3.92829 26.3061 4.062 26.529 4.22541 26.7518C4.53739 27.1678 4.92365 27.554 5.39904 27.7471C5.69617 27.866 6.05271 27.8957 6.33498 27.7471C6.66181 27.5689 6.82523 27.2123 6.7658 26.8261C6.72124 26.5289 6.55782 26.2913 6.3944 26.0536C6.2607 25.8456 6.11214 25.6376 5.94872 25.4444C5.62188 25.0285 5.23563 24.6422 4.83451 24.3005C4.64138 24.1371 4.44825 23.9886 4.24027 23.84C4.13627 23.7657 4.03228 23.6914 3.91344 23.632C3.88372 23.6172 3.83916 23.5874 3.80944 23.5726C3.80944 23.5726 3.77973 23.5577 3.76487 23.5429C3.45289 23.3349 3.1112 23.216 2.75466 23.3497C2.3684 23.4983 2.21984 23.9588 2.35354 24.36C2.39811 24.5085 2.47239 24.6125 2.56153 24.7016C2.24955 24.6125 1.92272 24.7017 1.68502 24.9096C1.43247 25.1473 1.29876 25.5039 1.31362 25.8604C1.32847 26.4695 1.61074 27.0638 1.92272 27.5837C2.54667 28.5939 3.40832 29.3813 4.44825 29.8864C4.95336 30.139 5.56246 30.3321 6.12699 30.2727C6.69152 30.2133 7.15206 29.8419 7.27091 29.2625C7.27091 29.203 7.27091 29.1585 7.25606 29.1139C7.25606 29.0545 7.25606 28.9951 7.25606 28.9208C7.22635 28.7128 7.1075 28.5791 6.95893 28.4454C6.78066 28.2968 6.54296 28.3562 6.36469 28.4751H6.37955ZM2.54667 25.8456C2.54667 25.7564 2.54667 25.801 2.54667 25.8456V25.8456ZM2.57638 25.8159C2.57638 25.8456 2.57638 25.8753 2.54667 25.8753C2.54667 25.8753 2.54667 25.8604 2.54667 25.8456C2.54667 25.8753 2.54667 25.8901 2.54667 25.8456C2.54667 25.8456 2.54667 25.8456 2.54667 25.8307C2.54667 25.7861 2.54667 25.801 2.56153 25.8159H2.57638ZM5.99329 26.2764C5.99329 26.2764 6.03786 26.321 6.03786 26.3061C6.03786 26.3061 6.00814 26.2764 5.99329 26.2764ZM3.09635 24.4788H3.06664C3.06664 24.4788 3.06663 24.4788 3.09635 24.4788ZM3.09635 24.464C3.09635 24.464 3.11121 24.464 3.14092 24.464C3.14092 24.464 3.12606 24.464 3.1112 24.464H3.09635ZM5.72588 28.7871C5.72588 28.7871 5.72587 28.7871 5.69616 28.7871C5.69616 28.7871 5.69616 28.7871 5.72588 28.7871Z" fill="#FF5500"/>
    <path d="M8.14759 39.3198C8.14759 39.7358 8.45957 40.1369 8.75669 40.3894C9.18752 40.7608 9.75205 40.8054 10.2423 40.6123C10.7771 40.4043 11.1485 39.8992 11.5199 39.4981C11.9062 39.0821 12.3222 38.6958 12.7678 38.3393C13.065 38.1016 13.3621 37.8639 13.6592 37.6262C13.7929 37.5965 13.9266 37.5816 14.0603 37.5668C14.194 37.5668 14.3277 37.5519 14.4614 37.5371C14.4911 37.5371 14.506 37.5371 14.5357 37.5371C14.5951 37.5371 14.6694 37.5371 14.7288 37.5371C14.9963 37.5371 15.2488 37.5519 15.5162 37.5519C16.0956 37.5519 16.6601 37.5222 17.2098 37.3291C17.7001 37.1508 18.1903 36.7942 18.4429 36.3188C18.636 35.9772 18.7251 35.5909 18.7548 35.1898C18.8143 35.0858 18.8588 34.9818 18.9183 34.8778C19.0223 34.6401 19.0965 34.3876 19.0965 34.1201C19.0965 33.7933 19.0223 33.4962 18.9034 33.1991C18.7103 32.7088 18.4874 32.2186 18.0715 31.8917C17.8635 31.7432 17.6406 31.6243 17.4029 31.5203C17.1801 31.4163 16.9424 31.3123 16.7196 31.2084C15.7836 30.8221 14.8328 30.4507 13.882 30.0793C13.3918 29.8862 12.9164 29.693 12.4261 29.5148C11.9656 29.3365 11.5199 29.1434 11.0445 29.0394C10.584 28.9354 10.1086 28.9502 9.67777 29.1285C9.57378 29.1731 9.48464 29.2325 9.38065 29.2919C9.20238 29.3662 9.0241 29.4702 8.87554 29.6188C8.62299 29.8862 8.44472 30.213 8.37044 30.5844C8.29616 30.9558 8.29615 31.3124 8.2813 31.6986C8.2813 31.8026 8.2813 31.8917 8.26644 31.9957C8.26644 32.0254 8.26644 32.0552 8.26644 32.0997C8.26644 32.0997 8.26644 32.1294 8.26644 32.1443C8.26644 32.1443 8.26644 32.174 8.26644 32.1889C8.26644 32.2186 8.25159 32.2483 8.23673 32.2928C8.22187 32.3523 8.20702 32.4266 8.1773 32.486C8.08817 32.7534 7.98418 33.0059 7.86533 33.2585C7.61277 33.8082 7.37507 34.3727 7.34536 34.9967C7.31565 35.3829 7.70191 35.7989 8.08817 35.6949C8.38529 35.6206 8.6527 35.5018 8.90525 35.3383C9.00924 35.2789 9.11324 35.2046 9.20237 35.1304C9.35093 35.0561 9.4995 34.9818 9.61835 34.863C9.61835 34.863 9.6332 34.8481 9.64806 34.8332C9.82633 34.7441 10.0046 34.655 10.1977 34.5807H10.2274C10.2869 34.5807 10.3314 34.551 10.3909 34.5361C10.5097 34.5064 10.6434 34.4915 10.7623 34.4767C10.8217 34.4767 10.896 34.4767 10.9554 34.4618H10.9703C10.9851 34.4618 11.0148 34.4618 11.0297 34.4618C11.1337 34.4618 11.2377 34.4618 11.3417 34.4767C11.5794 34.4915 11.817 34.5361 12.0547 34.5807C12.4261 34.6401 12.8124 34.6847 13.1838 34.6698C13.169 34.6847 13.1541 34.7144 13.1392 34.7292C12.3519 34.6995 11.5645 34.8481 10.8217 35.1006C10.4057 35.2492 10.0046 35.4423 9.6332 35.6949C9.21723 35.9623 8.81612 36.2594 8.48928 36.6308C8.11788 37.0468 7.8059 37.5519 7.77619 38.1461C7.76133 38.5918 7.89504 39.0078 8.16245 39.3643L8.14759 39.3198ZM9.93033 30.4656C9.93033 30.4656 9.91547 30.4656 9.90061 30.4656C9.90061 30.4656 9.91547 30.4656 9.93033 30.4656ZM9.17266 37.9827C9.17266 37.9827 9.18752 37.953 9.20237 37.9382C9.20237 37.9382 9.18752 37.9679 9.17266 37.9827Z" fill="#FF5500"/>
    <path d="M6.23096 38.2646C6.23096 38.2646 6.24582 38.3835 6.27553 38.4429C6.33495 38.7697 6.46866 39.0669 6.6915 39.3343C7.03319 39.7651 7.76114 39.4383 7.64229 38.8886C7.59772 38.7103 7.55315 38.532 7.52344 38.3538C7.59772 38.2349 7.64229 38.1161 7.672 37.9972C7.76114 37.5961 7.68686 37.195 7.4343 36.8533C7.21146 36.571 6.72121 36.5859 6.54294 36.883C6.3201 37.2693 6.2161 37.7447 6.26067 38.2052C6.26067 38.2349 6.26067 38.2646 6.26067 38.2944L6.23096 38.2646ZM7.40459 37.6258C7.40459 37.6258 7.40459 37.5961 7.4343 37.5813C7.4343 37.5813 7.4343 37.611 7.40459 37.6258Z" fill="#FF5500"/>
    <path d="M17.5513 28.356C17.5662 27.9846 17.4919 27.5834 17.3136 27.2566C17.2987 27.212 17.269 27.1823 17.2542 27.1526C17.2245 26.8109 17.1205 26.4692 16.9719 26.1573C16.7936 25.8007 16.5559 25.4739 16.2885 25.1916C16.0508 24.9391 15.7834 24.6865 15.4863 24.5082C15.1 24.2854 14.6544 24.1963 14.2532 24.3745C13.867 24.5379 13.6739 24.9242 13.5847 25.3253C13.5699 25.4293 13.555 25.5333 13.5401 25.6373C13.4064 25.9938 13.347 26.3801 13.3916 26.7812C13.4807 27.4497 13.8373 28.0886 14.1492 28.6679C14.283 28.9354 14.4315 29.1879 14.5801 29.4553C14.6098 29.5445 14.6544 29.6187 14.6989 29.693C14.9515 30.1535 15.4269 30.5398 15.9468 30.3912C16.1697 30.3318 16.3479 30.1981 16.4965 30.0198C17.0908 29.693 17.5067 29.0691 17.5513 28.3411V28.356ZM15.62 26.395C15.62 26.3801 15.62 26.3504 15.62 26.3504C15.62 26.3504 15.62 26.3801 15.62 26.4098V26.395Z" fill="#FF5500"/>
    <path d="M12.1883 26.4094C12.6786 25.2803 11.9655 23.9284 11.1781 23.0816C10.5096 22.3686 9.55881 21.7446 8.62288 21.9674C8.29605 21.8486 7.9395 21.9526 7.8058 22.324C7.73152 22.5617 7.8058 22.7845 7.89493 23.0222C7.9395 23.1559 7.99893 23.2896 8.04349 23.4233C8.16234 23.6908 8.29605 23.9433 8.44461 24.1959C8.69716 24.597 8.97942 24.9832 9.27655 25.3398C9.09827 25.2655 8.89029 25.2358 8.69716 25.2952C8.3109 25.4141 8.23662 25.8449 8.32576 26.2163C8.57831 27.2116 9.67766 27.791 10.5839 27.9099C10.8216 27.9396 11.0296 27.7762 11.1187 27.5533C11.1187 27.5533 11.1187 27.5385 11.1187 27.5236C11.5792 27.3156 11.9506 26.8848 12.1586 26.4243L12.1883 26.4094ZM9.3954 25.9637C9.3954 25.9637 9.3954 25.9637 9.3954 25.9489C9.3954 25.9489 9.3954 25.9489 9.3954 25.9637Z" fill="#FF5500"/>
    <path d="M0.600671 32.8417C0.823513 33.3765 1.1652 33.8668 1.55146 34.2828C1.96743 34.7285 2.44283 35.0701 2.97764 35.3524C2.97764 35.3524 2.9925 35.3524 3.00736 35.3524C3.33419 35.6495 3.69074 35.8872 4.12157 35.9912C4.53754 36.0952 4.96836 36.1249 5.38433 36.0209C5.62203 35.9615 5.8003 35.7832 5.83001 35.5455C5.99343 35.3524 6.08257 35.085 6.18656 34.8473C6.4094 34.3125 6.60253 33.7479 6.6471 33.1686C6.69167 32.5743 6.52825 31.9504 6.15685 31.475C6.11228 31.4155 6.05286 31.4007 6.00829 31.3858C5.93401 31.267 5.85973 31.163 5.78545 31.059C5.65174 30.8956 5.44376 30.8213 5.25063 30.851C5.04264 30.8807 4.92379 31.0293 4.83466 31.2076C4.83466 31.2076 4.83465 31.2076 4.8198 31.2076C4.65638 31.3264 4.5821 31.5344 4.52268 31.7275C4.37412 32.1732 4.28498 32.6486 4.25527 33.124C4.25527 33.1389 4.25527 33.1537 4.25527 33.1834C4.25527 33.1834 4.25527 33.1983 4.25527 33.2131C4.09185 32.9309 3.88387 32.6783 3.66102 32.4406C3.77987 32.3812 3.88387 32.2772 3.95815 32.1583C4.41869 31.4453 3.54217 30.7322 2.96279 30.4499C2.78451 30.3608 2.60624 30.3013 2.42797 30.2568C2.35369 30.2271 2.27941 30.1825 2.20513 30.1528C2.012 30.0636 1.80401 30.0339 1.59603 30.0488C1.28405 30.0785 1.04635 30.2716 0.927502 30.539C0.808653 30.6282 0.704659 30.747 0.630379 30.8659C0.24412 31.4601 0.407538 32.1881 0.660091 32.8269L0.600671 32.8417ZM4.77523 35.9912C4.79009 35.9912 4.8198 35.9912 4.83466 35.9912C4.83466 35.9912 4.80494 35.9912 4.77523 35.9912ZM2.6211 31.4304C2.6211 31.4304 2.6211 31.4304 2.63596 31.4304C2.63596 31.4304 2.65081 31.4304 2.66567 31.4452C2.66567 31.4452 2.66566 31.4452 2.65081 31.4452C2.65081 31.4452 2.65081 31.4453 2.63596 31.4304H2.6211Z" fill="#FF5500"/>
    <path d="M36.8352 13.7671C37.1026 13.4997 37.3997 13.2323 37.7265 13.0392C38.1276 12.8015 38.6625 12.5935 39.123 12.742C39.5984 12.8906 39.8955 13.3511 40.1184 13.782C40.3115 14.1682 40.4452 14.6288 40.3858 15.0745C40.2966 15.9361 39.8509 16.6641 39.331 17.3177C38.8407 17.9417 38.2465 18.4765 37.6077 18.9222C37.266 19.145 36.8946 19.3233 36.5232 19.457C36.3449 19.5164 36.1666 19.5759 35.9884 19.6204C35.8992 19.6353 35.8249 19.665 35.7358 19.6798C35.617 19.7096 35.5278 19.6798 35.409 19.6501C35.2753 19.6056 35.1861 19.4273 35.3198 19.2787C35.3644 19.2342 35.3941 19.1747 35.4535 19.1302C35.513 19.0856 35.5724 19.0559 35.6318 19.0262C35.6615 19.0113 35.6912 18.9816 35.7209 18.9668C35.617 18.9668 35.4981 18.9667 35.3941 18.9222C34.9336 18.8033 34.5622 18.4171 34.473 17.9268C34.3245 17.0949 34.7999 16.2778 35.2604 15.6093C35.7358 14.9556 36.2706 14.3168 36.8203 13.7374L36.8352 13.7671Z" fill="#FF5500"/>
    <path d="M33.522 11.7464C32.9426 12.1029 32.2741 11.8949 31.9176 11.3452C31.8582 11.2412 31.7987 11.1372 31.7542 11.0333C31.5907 10.8698 31.457 10.6619 31.3679 10.4242C31.0411 9.59222 31.0708 8.58199 31.3679 7.72034C31.4125 7.60149 31.457 7.48264 31.5016 7.36379C31.5016 7.33408 31.5313 7.30437 31.5313 7.27466C31.4868 7.37865 31.5165 7.33408 31.5907 7.14095C31.6056 7.09638 31.6353 7.05182 31.6502 7.00725C31.7542 6.78441 31.8582 6.57642 31.9919 6.36844C32.1256 6.16045 32.2444 5.95246 32.393 5.75933C32.6307 5.47707 33.0021 5.34337 33.3438 5.41765C33.9083 5.5365 34.146 6.08617 34.3094 6.59128C34.458 7.02211 34.5322 7.45293 34.5768 7.89861C34.666 8.74541 34.562 9.62192 34.3243 10.439C34.1757 10.9441 33.9826 11.4492 33.522 11.7315V11.7464Z" fill="#FF5500"/>
    <path d="M29.6592 7.89857C29.8375 7.06663 29.8078 6.21983 29.7187 5.38789C29.7187 5.16505 29.7335 4.92735 29.7335 4.70451C29.7335 3.94685 29.6444 3.26347 29.1987 2.65437C29.1393 2.56524 29.0501 2.50581 28.9461 2.4761C28.5896 1.49559 27.8022 0.663651 26.7474 0.663651C26.4355 0.663651 26.1086 0.737932 25.7967 0.827069C25.6035 0.886493 25.4401 0.960782 25.2915 1.07963C25.039 1.07963 24.7716 1.1242 24.519 1.27276C24.1031 1.51045 23.7762 1.92643 23.598 2.35726C23.2266 3.21891 23.1226 4.21426 23.1226 5.1502C23.1226 6.08613 23.2414 7.05178 23.5088 7.94314C23.7911 8.84936 24.1773 9.94871 25.0687 10.3795C25.9749 10.7955 27.1337 10.6915 28.0102 10.2161C28.8719 9.75558 29.4215 8.83451 29.6295 7.88372L29.6592 7.89857ZM27.3863 2.81779C27.3863 2.81779 27.3863 2.81779 27.3714 2.78807C27.3714 2.78807 27.3714 2.80294 27.3714 2.81779H27.3863Z" fill="#FF5500"/>
    <path d="M23.3752 11.4941C23.2266 9.85995 22.7958 8.2555 21.9787 6.85902C21.9639 6.82931 21.9342 6.79959 21.9193 6.76988C21.9045 6.74017 21.8747 6.71046 21.8599 6.68075C21.5925 6.29449 21.2805 5.92309 20.9537 5.59626C20.6268 5.26942 20.2554 4.97229 19.8246 4.80887C19.5423 4.70488 19.2006 4.69003 18.9035 4.77917C18.7401 4.69003 18.547 4.67517 18.339 4.71974C17.8785 4.83859 17.6853 5.32884 17.7596 5.77452C17.8042 6.05679 17.923 6.29448 18.0864 6.50247C18.1904 6.71045 18.339 6.90359 18.547 7.05215C18.6807 7.14128 18.8144 7.20071 18.9629 7.26013C18.9629 7.26013 18.9778 7.26014 18.9927 7.27499C19.5275 7.66125 20.0623 8.0475 20.5971 8.41891C20.5971 8.56747 20.6268 8.71604 20.6565 8.87945C20.6565 8.9983 20.6565 9.11715 20.6565 9.236C20.3594 8.87945 20.0326 8.55261 19.6909 8.25549C19.3344 7.95837 18.9332 7.61668 18.4727 7.52754C18.3241 7.49783 18.1904 7.49783 18.0567 7.51268C17.6408 7.39383 17.1208 7.61668 17.0019 8.12179C17.0019 8.12179 17.0019 8.1515 17.0019 8.16635C16.9722 8.19607 16.9574 8.24064 16.9277 8.28521C16.3928 9.16172 16.7345 10.2462 17.1208 11.0781C17.4476 11.8061 17.9379 12.4598 18.4876 12.9946C19.1264 13.6334 19.8543 14.1534 20.6863 14.4951C21.1022 14.6733 21.5479 14.7625 21.9936 14.7922C22.6175 14.8367 23.0929 14.4802 23.3158 13.886C23.4495 13.5145 23.4495 13.0689 23.4643 12.6826C23.4643 12.2815 23.4643 11.8952 23.4198 11.4941H23.3752ZM19.3195 6.36877C19.3195 6.36877 19.3046 6.36877 19.2898 6.36877C19.2898 6.36877 19.3046 6.36877 19.3195 6.36877Z" fill="#FF5500"/>
    <path d="M31.2785 27.1813C31.8282 26.9733 32.3333 26.6168 32.6453 26.0968C32.8681 25.7105 32.987 25.2351 32.9127 24.7895C32.9424 24.6706 32.9721 24.5518 32.9721 24.4329C32.9721 24.0764 32.8384 23.7347 32.6601 23.4524C32.0213 22.4868 31.0705 21.8182 30.0306 21.3577C29.4215 21.0903 28.8124 20.8674 28.1885 20.6297C28.0399 20.5703 27.9062 20.5109 27.7576 20.4515C27.7576 20.4515 27.7428 20.4515 27.7279 20.4515C27.7279 20.4515 27.7279 20.4515 27.6982 20.4515C27.6388 20.4218 27.5645 20.392 27.5051 20.3623C27.2525 20.2435 27 20.1098 26.7474 19.9761C26.6434 19.9167 26.5394 19.8572 26.4354 19.7978C26.688 19.783 26.9405 19.7978 27.1931 19.8127C27.2228 19.8127 27.2525 19.8127 27.2674 19.8127C27.3417 19.8127 27.4011 19.8424 27.4605 19.8424C27.5942 19.8721 27.7279 19.9018 27.8616 19.9464C27.9953 19.9909 28.1439 20.0355 28.2776 20.0949C28.2776 20.0949 28.2776 20.0949 28.3073 20.0949C28.3667 20.1246 28.4262 20.1544 28.4856 20.1841C28.7381 20.3029 28.961 20.4515 29.1987 20.6149C29.7038 20.9566 30.194 21.2983 30.7586 21.536C31.3528 21.7737 32.051 21.8479 32.6453 21.536C32.987 21.3577 33.2544 21.016 33.3435 20.6297C33.4327 20.2435 33.3435 19.8869 33.2395 19.5155C33.0761 18.9807 32.9127 18.431 32.7344 17.8962C32.3779 16.7969 31.9619 15.7124 31.3974 14.717C31.1002 14.1971 30.7883 13.6622 30.3426 13.2611C29.8523 12.8154 29.273 12.5332 28.6341 12.3846C27.9805 12.2361 27.2971 12.1321 26.688 12.548C26.2126 12.8749 25.7669 13.2611 25.3064 13.6028C24.3704 14.3011 23.4048 14.9844 22.4243 15.6232C21.9043 15.9649 21.3992 16.2918 20.9238 16.678C20.4633 17.0494 20.077 17.4951 19.7353 18.0002C19.0668 18.9807 18.6954 20.1692 18.5617 21.3428C18.4874 21.9371 18.5617 22.6056 18.9182 23.0959C19.2748 23.6158 19.7948 23.9427 20.3296 24.2398C20.8495 24.5369 21.4289 24.8043 22.0232 24.9083C22.6323 25.0272 23.2265 24.9974 23.8356 24.9677C24.1179 24.9529 24.4001 24.938 24.6676 24.938C24.8013 24.938 24.935 24.938 25.0687 24.9529C25.1281 24.9529 25.1875 24.9529 25.2469 24.9529C25.2767 24.9529 25.3064 24.9529 25.3361 24.9529C25.3361 24.9529 25.3509 24.9529 25.3658 24.9529C25.3955 24.9529 25.4252 24.9529 25.4401 24.9529C25.4698 24.9529 25.4995 24.9529 25.5292 24.9529C25.5886 24.9529 25.6481 24.9677 25.7075 24.9826C25.8263 25.0123 25.9452 25.0272 26.064 25.0569C26.3166 25.1163 26.5543 25.1906 26.792 25.2797C26.8514 25.3094 26.9257 25.3243 26.9851 25.354C26.9851 25.354 27.0148 25.354 27.0297 25.3688C27.0445 25.3688 27.0742 25.3837 27.0742 25.3837C27.1931 25.4431 27.3119 25.4877 27.4308 25.562C27.5348 25.6214 27.6388 25.6808 27.7428 25.7402C27.8913 26.0077 28.0696 26.2453 28.2924 26.4533C29.065 27.1813 30.2386 27.4784 31.2339 27.107L31.2785 27.1813ZM25.6778 19.263C25.6778 19.263 25.6332 19.2184 25.6035 19.2036C25.6332 19.2184 25.6629 19.2481 25.6778 19.263ZM28.337 20.1098C28.337 20.1098 28.3816 20.1246 28.3964 20.1395C28.3964 20.1395 28.3667 20.1395 28.337 20.1098Z" fill="#FF5500"/>
</svg>
