<svg width="41" height="40" viewBox="0 0 41 40" fill="none" xmlns="http://www.w3.org/2000/svg">
    <path d="M1.10025 14.9878C-0.401239 12.1527 -0.589181 8.4208 3.4322 6.91761C4.74179 6.42943 6.34556 6.86673 7.41694 7.83927C8.48845 8.79862 9.31031 9.67648 10.182 10.858C10.2896 9.26418 10.1046 7.95754 10.5411 6.43284C10.9776 4.90814 11.2633 3.98827 12.5106 3.13044C13.9038 2.16857 15.7767 2.04172 17.3113 2.82103C18.8458 3.60034 19.9767 5.23247 20.2099 7.01408C20.3815 8.34696 20.0786 9.68843 19.776 10.9904C18.8673 15.0016 16.0182 26.1114 15.9527 26.0713C15.8085 25.9908 15.5241 26.7789 14.9601 26.4966C12.0222 24.992 3.81801 20.1676 1.08682 15.014L1.10025 14.9878Z" fill="#FF5500"/>
    <path fill-rule="evenodd" clip-rule="evenodd" d="M30.8816 26.1154C28.4741 23.6324 27.2138 24.9887 25.8673 25.6421C25.0903 26.0281 24.3623 26.5057 23.6989 27.0648C23.0311 27.6147 22.425 28.2355 21.8912 28.9163C21.555 29.3057 21.2846 29.7472 21.0905 30.2236C20.9258 30.6325 20.902 31.0846 21.0229 31.5085C21.1593 32.0044 21.4273 32.4542 21.7985 32.8101C22.2635 33.233 22.7874 33.5861 23.354 33.8582C24.3953 34.3533 25.4846 34.7405 26.6048 35.0136C27.7552 35.3189 28.946 35.4437 30.1347 35.3837C30.5596 35.3495 30.9729 35.228 31.3488 35.0268C31.7246 34.8256 32.0549 34.549 32.319 34.2144C32.6648 33.7549 32.9152 33.231 33.0556 32.6735C33.1961 32.1159 33.2237 31.5359 33.137 30.9675C32.8711 29.1658 32.0876 27.4801 30.8816 26.1154ZM31.2475 32.9492C31.12 33.1724 30.9373 33.3591 30.7168 33.4914C30.4963 33.6237 30.2456 33.697 29.9886 33.7045C28.9863 33.7365 27.9848 33.619 27.0171 33.3559C26.0173 33.1071 25.0443 32.7612 24.1118 32.3233C23.7449 32.1741 23.3981 31.9795 23.0794 31.7442C22.8298 31.5987 22.6358 31.3741 22.528 31.106C22.4967 31.019 22.4833 30.9265 22.4888 30.8342C22.4942 30.7419 22.5183 30.6516 22.5597 30.5689C22.6927 30.2878 22.8479 30.0176 23.0237 29.761C23.4565 29.1192 23.9578 28.5264 24.5188 27.9929C25.0698 27.4499 25.6886 26.9802 26.3598 26.5954C27.8204 25.7703 28.5497 25.4104 29.9636 26.9565C30.9333 28.1707 31.5174 29.6473 31.6406 31.1962C31.6722 31.7833 31.5266 32.3663 31.2228 32.8696L31.2475 32.9492Z" fill="#FF5500"/>
    <path d="M27.9304 24.3731C28.7432 24.2587 29.6225 24.518 30.6639 25.4448L31.1212 25.8837L31.1312 25.8942C32.3798 27.3072 33.1917 29.0529 33.4671 30.9183L33.4655 30.9178C33.5589 31.5297 33.5305 32.1541 33.3793 32.7544C33.228 33.355 32.9576 33.9205 32.5852 34.4154L32.5815 34.421C32.289 34.7915 31.9229 35.098 31.5068 35.3208C31.0907 35.5435 30.6326 35.6789 30.1621 35.7169L30.1518 35.7167C28.9288 35.7784 27.7033 35.6502 26.5197 35.3361L26.5187 35.334C25.6645 35.1254 24.8276 34.8532 24.016 34.5171L23.2107 34.1583C22.615 33.8722 22.0631 33.5014 21.5743 33.0568L21.5677 33.051C21.1531 32.6534 20.8535 32.15 20.7012 31.5961L20.7017 31.5945C20.5622 31.1009 20.5896 30.5735 20.7812 30.0975C20.9869 29.5927 21.2733 29.1246 21.6281 28.7109L22.0542 28.1973C22.4921 27.6974 22.97 27.2335 23.4834 26.8104L24.0095 26.3945C24.5464 25.9944 25.1178 25.6419 25.7182 25.3436L25.7224 25.3416C25.8804 25.2649 26.0393 25.1764 26.2068 25.0819C26.3719 24.9888 26.5482 24.8884 26.7267 24.7951C27.0846 24.6083 27.4832 24.436 27.9304 24.3731ZM30.8818 26.1147C28.4748 23.6324 27.2142 24.9885 25.8678 25.642C25.0909 26.028 24.3621 26.5057 23.6987 27.0648C23.031 27.6147 22.4255 28.2362 21.8918 28.9169C21.5558 29.3061 21.2848 29.7469 21.0907 30.2231C20.9261 30.6318 20.9019 31.0844 21.0226 31.5082C21.159 32.004 21.4273 32.4541 21.7985 32.81C22.2633 33.2328 22.7871 33.5863 23.3536 33.8584C24.3949 34.3536 25.4846 34.7409 26.6048 35.014C27.7552 35.3193 28.9465 35.4443 30.1352 35.3843C30.56 35.35 30.9732 35.2274 31.3489 35.0263C31.7247 34.8251 32.0558 34.5486 32.3199 34.214C32.6653 33.7548 32.9152 33.2311 33.0556 32.6739C33.196 32.1163 33.2239 31.5353 33.1371 30.9669C32.8712 29.1654 32.0877 27.4793 30.8818 26.1147ZM26.3597 26.5959C27.8203 25.7707 28.5505 25.4102 29.9643 26.9563C30.9339 28.1705 31.5175 29.6479 31.6407 31.1968C31.6722 31.7835 31.5262 32.3658 31.2227 32.8689L31.2479 32.9486C31.1204 33.1718 30.9371 33.3583 30.7167 33.4905C30.4964 33.6227 30.246 33.6977 29.9892 33.7052C28.9871 33.7372 27.9855 33.6187 27.018 33.3557C26.0183 33.1069 25.0443 32.7607 24.1118 32.3228C23.745 32.1736 23.3978 31.9787 23.0792 31.7434C22.8299 31.5979 22.6363 31.3734 22.5286 31.1055C22.4974 31.0186 22.4832 30.9262 22.4887 30.8339C22.4942 30.7417 22.519 30.6518 22.5603 30.5692C22.6933 30.2882 22.8479 30.0179 23.0236 29.7614C23.4564 29.1197 23.9582 28.5271 24.519 27.9937C25.0699 27.4508 25.6886 26.9806 26.3597 26.5959ZM29.7099 27.1716C29.0275 26.4277 28.5764 26.22 28.1792 26.2199C27.7435 26.2199 27.2777 26.4579 26.5254 26.8828L26.5264 26.8849C25.8801 27.2554 25.2833 27.7076 24.7526 28.2305L24.7495 28.2346L24.519 27.9937L24.7479 28.234C24.2045 28.7508 23.7188 29.3258 23.2995 29.9475L23.2989 29.949C23.1331 30.1911 22.9857 30.4468 22.8602 30.7121L22.858 30.7182C22.8369 30.7605 22.8247 30.8067 22.8219 30.8539C22.8191 30.9002 22.8255 30.9465 22.8408 30.9902C22.9215 31.1856 23.0643 31.3492 23.2471 31.4559L23.2628 31.4649L23.2781 31.4755C23.5742 31.6942 23.8958 31.8761 24.2368 32.0149L24.2536 32.0209C25.1665 32.4496 26.1198 32.7884 27.0985 33.032L27.1047 33.0342C28.0404 33.2885 29.009 33.4024 29.9783 33.3714L30.1284 33.3574C30.2754 33.334 30.4168 33.2821 30.5453 33.205C30.6776 33.1256 30.7902 33.0196 30.8813 32.8961L30.8595 32.8262L30.9383 32.697C31.2072 32.2512 31.3356 31.7348 31.3078 31.215L31.3084 31.2134C31.1891 29.7374 30.6325 28.3299 29.7099 27.1716Z" fill="#FF5500"/>
    <path fill-rule="evenodd" clip-rule="evenodd" d="M33.1971 16.9624C31.3756 14.9707 28.4015 16.62 27.8406 18.5962C27.6729 19.0049 27.6067 19.4481 27.6477 19.8879C27.6887 20.3277 27.8357 20.751 28.0761 21.1216C28.3165 21.4922 28.6431 21.799 29.0279 22.0157C29.4128 22.2325 29.8445 22.3527 30.286 22.3662C31.165 22.3807 32.0274 22.1254 32.7569 21.6348C33.3276 21.2769 33.7417 20.7163 33.916 20.0657C34.053 19.5286 34.0592 18.9665 33.9341 18.4266C33.809 17.8866 33.5563 17.3845 33.1971 16.9624ZM31.609 20.2363C31.2321 20.4296 30.8144 20.5298 30.3908 20.5285C29.421 20.5199 29.1103 19.702 29.1887 18.9339C29.1431 18.5686 29.2196 18.1984 29.4065 17.8812C29.5934 17.564 29.88 17.3175 30.2217 17.1804C30.5633 17.0432 30.9408 17.0231 31.2951 17.1231C31.6494 17.223 31.9607 17.4375 32.1803 17.733C32.3611 17.9999 32.4735 18.3072 32.5076 18.6278C32.5417 18.9483 32.4965 19.2724 32.3759 19.5714C32.3 19.7285 32.1929 19.8685 32.061 19.9829C31.9291 20.0972 31.7753 20.1834 31.609 20.2363Z" fill="#FF5500"/>
    <path d="M29.9234 15.9804C31.0643 15.5307 32.4193 15.6187 33.4425 16.7371L33.451 16.747C33.8446 17.2096 34.1219 17.7604 34.259 18.3521C34.3788 18.8697 34.3886 19.4058 34.2887 19.9259L34.239 20.1484L34.2379 20.1514C34.0418 20.8834 33.575 21.5151 32.933 21.9177L32.932 21.9156C32.148 22.4402 31.2237 22.7144 30.2803 22.6988L30.2767 22.6992C29.7814 22.6841 29.2955 22.549 28.8636 22.3058C28.4322 22.0627 28.0662 21.7185 27.7967 21.3031C27.5272 20.8875 27.362 20.4128 27.3159 19.9196C27.2711 19.4385 27.342 18.9537 27.5199 18.5048L27.5857 18.3002C27.9538 17.283 28.8699 16.3956 29.9234 15.9804ZM33.1966 16.9623C31.3751 14.971 28.4007 16.6199 27.8398 18.5961C27.6722 19.0046 27.6076 19.4479 27.6486 19.8875C27.6896 20.327 27.8357 20.7503 28.0757 21.1207C28.316 21.491 28.6428 21.7984 29.0274 22.0151C29.4123 22.2319 29.8449 22.3524 30.2864 22.3658C31.1653 22.3803 32.028 22.1248 32.7574 21.6342C33.3276 21.2764 33.7414 20.7164 33.9158 20.0663C34.0527 19.5293 34.0588 18.9665 33.9337 18.4265C33.8086 17.8866 33.5558 17.3844 33.1966 16.9623ZM31.2949 17.1225C31.649 17.2224 31.9606 17.4372 32.1801 17.7325C32.3609 17.9994 32.4738 18.3074 32.5079 18.628C32.5419 18.9483 32.4969 19.2723 32.3765 19.5711C32.3007 19.7281 32.1928 19.8681 32.0611 19.9823C31.9294 20.0965 31.7758 20.1836 31.6097 20.2365C31.2329 20.4299 30.8137 20.5299 30.3901 20.5285C29.4208 20.5195 29.1097 19.7016 29.1881 18.9336C29.1425 18.5685 29.2199 18.1987 29.4066 17.8816C29.5934 17.5644 29.8808 17.3172 30.2225 17.1801C30.5638 17.0433 30.9409 17.0227 31.2949 17.1225ZM31.2046 17.4445C30.9212 17.3645 30.6189 17.3801 30.3456 17.4898C30.0723 17.5996 29.843 17.7973 29.6936 18.051C29.5443 18.3045 29.4825 18.6003 29.5189 18.8923L29.5243 18.9305L29.52 18.967C29.4858 19.3026 29.5408 19.6187 29.6784 19.8385C29.8046 20.0399 30.0188 20.1917 30.3946 20.195C30.7637 20.1957 31.1276 20.1084 31.456 19.94L31.4815 19.9266L31.5084 19.9189C31.6314 19.8798 31.7456 19.815 31.8431 19.7304C31.9384 19.6477 32.014 19.5458 32.0699 19.4327C32.166 19.1882 32.2034 18.925 32.1756 18.6636C32.1475 18.3996 32.0555 18.1462 31.9076 17.9258C31.7322 17.6927 31.4855 17.5238 31.2046 17.4445Z" fill="#FF5500"/>
    <path fill-rule="evenodd" clip-rule="evenodd" d="M39.714 25.4517C39.662 24.9864 39.507 24.5385 39.2602 24.1406C38.5275 23.0666 35.5048 20.7718 34.0002 24.3584C33.8349 24.7073 33.7414 25.0859 33.7252 25.4717C33.709 25.8575 33.7704 26.2426 33.9058 26.6041C34.0413 26.9657 34.248 27.2964 34.5136 27.5766C34.7793 27.8568 35.0985 28.0808 35.4524 28.2352C35.9166 28.3965 36.41 28.4562 36.8992 28.4104C37.3885 28.3646 37.8622 28.2143 38.2884 27.9697C38.7473 27.7367 39.1274 27.3735 39.3809 26.9256C39.6345 26.4778 39.7503 25.965 39.714 25.4517ZM37.5854 26.4639C37.3707 26.5708 37.1369 26.6336 36.8976 26.6488C36.6583 26.664 36.4184 26.6312 36.192 26.5524C35.4225 26.2789 35.28 25.4854 35.4673 24.8091C35.6546 24.1327 36.6674 22.2286 38.1498 24.5773C38.3234 24.8531 38.4124 25.1738 38.4057 25.4996C38.3708 25.7352 38.2666 25.955 38.1063 26.1311C37.9461 26.3073 37.737 26.4318 37.5058 26.4887L37.5854 26.4639Z" fill="#FF5500"/>
    <path d="M37.0011 22.1792C37.5745 22.3231 38.1086 22.6234 38.5421 22.9514C38.9747 23.2787 39.3281 23.6485 39.5354 23.9522L39.5429 23.9652C39.7475 24.2951 39.8952 24.6559 39.9805 25.0328L40.045 25.415L40.0473 25.4279L40.0458 25.4274C40.0868 26.0062 39.9565 26.5856 39.6707 27.0905C39.3875 27.5904 38.9634 27.9943 38.4528 28.2572L38.4538 28.2592C37.9864 28.5275 37.4663 28.6916 36.9297 28.7419C36.3932 28.7921 35.8524 28.7263 35.3433 28.5495L35.3305 28.5466L35.3188 28.5407C34.9242 28.3685 34.5686 28.1184 34.2723 27.8061C33.9761 27.4937 33.7447 27.125 33.5936 26.7219C33.4425 26.3187 33.3735 25.8884 33.3915 25.4582C33.4096 25.0278 33.5143 24.6041 33.6987 24.2149L33.7002 24.2154C34.095 23.2807 34.6051 22.6839 35.1951 22.3664C35.7911 22.0458 36.423 22.0342 37.0011 22.1792ZM39.2594 24.1408C38.5266 23.0667 35.5046 20.7721 34.0001 24.3583C33.8348 24.7071 33.7416 25.0858 33.7253 25.4715C33.7091 25.8573 33.7693 26.2429 33.9048 26.6045C34.0402 26.966 34.247 27.2969 34.5126 27.5771C34.7781 27.8571 35.0978 28.081 35.4515 28.2355C35.9156 28.3968 36.41 28.4556 36.8992 28.4098C37.3884 28.3639 37.863 28.2139 38.2891 27.9692C38.7477 27.7362 39.1271 27.3728 39.3805 26.9252C39.634 26.4773 39.7507 25.9645 39.7143 25.4512C39.6623 24.9861 39.5061 24.5386 39.2594 24.1408ZM35.4671 24.8088C35.6545 24.1324 36.667 22.2293 38.1491 24.5771C38.3226 24.8527 38.4119 25.1734 38.4053 25.499C38.3704 25.7345 38.2663 25.9558 38.1061 26.1319C37.9459 26.3077 37.7369 26.4317 37.506 26.4887L37.5858 26.4635C37.3712 26.5702 37.1371 26.6339 36.8979 26.6491C36.6586 26.6643 36.4179 26.6306 36.1915 26.5518C35.4224 26.2781 35.2798 25.485 35.4671 24.8088ZM36.9911 23.8304C36.7918 23.7388 36.6348 23.7633 36.4894 23.8473C36.3265 23.9415 36.1715 24.117 36.0413 24.3306C35.9131 24.5409 35.8263 24.7589 35.7876 24.8986C35.7074 25.1884 35.7047 25.4849 35.7862 25.7237C35.8637 25.9505 36.0209 26.1347 36.3022 26.2353C36.4867 26.2995 36.6813 26.329 36.8762 26.3167C37.0611 26.3049 37.2408 26.2548 37.4082 26.1758L37.4067 26.1701L37.4435 26.159C37.6033 26.116 37.7482 26.0289 37.8598 25.9062C37.9713 25.7836 38.0431 25.6314 38.0708 25.4682C38.0712 25.2814 38.0338 25.0973 37.9589 24.9275L37.8681 24.7553C37.5126 24.1921 37.2131 23.9327 36.9911 23.8304Z" fill="#FF5500"/>
    <path fill-rule="evenodd" clip-rule="evenodd" d="M25.3176 22.5107C25.6863 21.7154 25.7492 20.8121 25.4942 19.9733C25.2718 19.341 24.8372 18.8053 24.2643 18.4572C23.7321 18.1195 23.1005 17.9736 22.4741 18.0436C21.8477 18.1137 21.264 18.3956 20.8197 18.8426C20.2667 19.3444 19.9111 20.0272 19.817 20.768C19.7573 21.2142 19.792 21.668 19.9187 22.1001C20.0455 22.5321 20.2616 22.9327 20.5529 23.2759C20.8612 23.6721 21.2763 23.9719 21.7493 24.14C22.2223 24.3081 22.7335 24.3375 23.2227 24.2248C23.6797 24.1184 24.1063 23.9086 24.4695 23.6114C24.8327 23.3142 25.1229 22.9377 25.3176 22.5107ZM23.8198 21.7484C23.723 21.9381 23.587 22.105 23.4208 22.2381C23.2546 22.3711 23.0619 22.4673 22.8557 22.5201C22.6715 22.554 22.4817 22.5389 22.3053 22.4761C22.1288 22.4134 21.972 22.3054 21.8506 22.1629C21.5083 21.8327 21.3011 21.3871 21.269 20.9126C21.3009 19.0313 22.9253 18.9896 23.5483 19.4763C23.8143 19.7019 23.9975 20.0097 24.0687 20.3511C24.177 20.86 24.0893 21.391 23.8233 21.8381L23.8198 21.7484Z" fill="#FF5500"/>
    <path d="M22.4379 17.7123C23.1369 17.6343 23.8404 17.7981 24.435 18.1733L24.4371 18.1723C24.9959 18.5119 25.4364 19.0119 25.704 19.6038L25.8091 19.8622L25.813 19.8757C26.0917 20.7927 26.0227 21.7806 25.6197 22.6502C25.4038 23.123 25.0826 23.5401 24.6804 23.8692C24.2778 24.1986 23.8052 24.4313 23.2986 24.5493L23.2971 24.5487C22.7461 24.6757 22.1704 24.644 21.6377 24.4547C21.1048 24.2653 20.6369 23.9262 20.2896 23.4799L20.2902 23.4783C19.974 23.1024 19.7379 22.6661 19.5994 22.1947C19.4597 21.7186 19.4204 21.2176 19.4858 20.7258L19.5387 20.4216C19.6909 19.7262 20.0543 19.0917 20.5825 18.6075L20.7775 18.428C21.2458 18.0312 21.824 17.781 22.4379 17.7123ZM24.2652 18.4567C23.733 18.119 23.1005 17.9729 22.4741 18.043C21.848 18.1131 21.2646 18.3955 20.8203 18.8423C20.2675 19.3439 19.9108 20.0268 19.8165 20.7673C19.7569 21.2136 19.7911 21.6686 19.9179 22.1006C20.0446 22.5324 20.2609 22.9329 20.5521 23.276C20.8604 23.6722 21.2764 23.9722 21.7494 24.1403C22.2222 24.3083 22.7332 24.3376 23.2221 24.225C23.6792 24.1186 24.1065 23.9084 24.4697 23.6113C24.8329 23.3141 25.1225 22.9367 25.3172 22.5099C25.6857 21.7147 25.7498 20.8119 25.4949 19.9734C25.2726 19.3412 24.8378 18.8048 24.2652 18.4567ZM21.2695 20.9124C21.3015 19.0313 22.9256 18.9901 23.5485 19.4768C23.8143 19.7023 23.9975 20.0097 24.0687 20.3509C24.1769 20.8595 24.0894 21.3905 23.8237 21.8374L23.8193 21.7478C23.7226 21.9374 23.5866 22.1051 23.4204 22.2382C23.2543 22.3711 23.0618 22.4666 22.8558 22.5195C22.6717 22.5534 22.4812 22.5383 22.3048 22.4756C22.1286 22.4129 21.9726 22.3048 21.8513 22.1624C21.509 21.8323 21.3015 21.3868 21.2695 20.9124ZM23.3375 19.7352C23.1182 19.5678 22.6832 19.4752 22.3046 19.6185C21.9683 19.7461 21.6208 20.0855 21.6028 20.903C21.6284 21.2412 21.7614 21.5612 21.9811 21.8165L22.0815 21.923L22.0931 21.934L22.1042 21.9466C22.1875 22.0444 22.2955 22.1181 22.4165 22.1612C22.5337 22.2029 22.6594 22.2129 22.7819 22.1927C22.9388 22.1511 23.0857 22.0792 23.2124 21.9777C23.3416 21.8743 23.4469 21.7446 23.5221 21.5972L23.7294 21.189C23.7901 20.9387 23.798 20.6762 23.7436 20.4201L23.742 20.4196C23.6864 20.153 23.5442 19.9123 23.3375 19.7352Z" fill="#FF5500"/>
</svg>
