<svg xmlns="http://www.w3.org/2000/svg" width="101" height="30" fill="none"><rect width="99.667" height="29" x=".833" y=".5" fill="#fff" rx="3.5"/><rect width="99.667" height="29" x=".833" y=".5" stroke="#DFDFDF" rx="3.5"/><path fill="#020303" fill-rule="evenodd" d="M92.288 16.944v.117h.11a.119.119 0 0 0 .062-.014.051.051 0 0 0 .022-.045.048.048 0 0 0-.022-.044.119.119 0 0 0-.061-.014h-.111Zm.112-.082a.22.22 0 0 1 .135.037c.03.025.046.06.046.103a.12.12 0 0 1-.037.09.186.186 0 0 1-.107.043l.148.165h-.116l-.137-.164h-.044v.164h-.097v-.438h.209Zm-.03.588a.372.372 0 0 0 .376-.368.363.363 0 0 0-.109-.26.399.399 0 0 0-.12-.078.407.407 0 0 0-.297 0 .389.389 0 0 0-.2.195.37.37 0 0 0 .08.404.38.38 0 0 0 .27.108Zm0-.84a.493.493 0 0 1 .352.139.455.455 0 0 1 0 .667.498.498 0 0 1-.351.139.506.506 0 0 1-.354-.14.453.453 0 0 1-.106-.517.483.483 0 0 1 .263-.25.501.501 0 0 1 .197-.037Zm-45.705-1.686c0-.834.563-1.52 1.486-1.52.882 0 1.476.656 1.476 1.52 0 .865-.594 1.52-1.476 1.52-.923 0-1.486-.685-1.486-1.52Zm3.966 0V12.55h-1.065v.577c-.339-.428-.852-.696-1.548-.696-1.374 0-2.45 1.044-2.45 2.493 0 1.451 1.076 2.494 2.45 2.494.696 0 1.21-.268 1.548-.695v.576h1.065v-2.375Zm35.996 0c0-.834.565-1.52 1.486-1.52.882 0 1.477.656 1.477 1.52 0 .865-.595 1.52-1.477 1.52-.921 0-1.486-.685-1.486-1.52Zm3.967 0v-4.281h-1.066v2.484c-.338-.428-.85-.696-1.547-.696-1.374 0-2.45 1.044-2.45 2.493 0 1.451 1.076 2.494 2.45 2.494.697 0 1.21-.268 1.547-.695v.576h1.066v-2.375Zm-26.741-1.57c.687 0 1.127.418 1.24 1.153h-2.541c.112-.685.543-1.152 1.301-1.152Zm.02-.923c-1.434 0-2.439 1.014-2.439 2.493 0 1.51 1.046 2.494 2.512 2.494.737 0 1.413-.18 2.009-.666l-.523-.764c-.41.318-.933.496-1.425.496-.687 0-1.312-.308-1.466-1.162h3.639c.01-.13.02-.259.02-.398-.01-1.48-.953-2.493-2.327-2.493Zm12.864 2.493c0-.834.564-1.52 1.487-1.52.88 0 1.475.656 1.475 1.52 0 .865-.594 1.52-1.475 1.52-.924 0-1.487-.685-1.487-1.52Zm3.966 0V12.55h-1.066v.577c-.337-.428-.85-.696-1.547-.696-1.374 0-2.45 1.044-2.45 2.493 0 1.451 1.076 2.494 2.45 2.494.697 0 1.21-.268 1.547-.695v.576h1.066v-2.375Zm-9.983 0c0 1.44 1.036 2.494 2.614 2.494.738 0 1.23-.159 1.762-.566l-.511-.835c-.4.278-.82.428-1.281.428-.852-.011-1.477-.606-1.477-1.52s.625-1.51 1.477-1.52c.46 0 .881.149 1.28.427l.512-.835c-.532-.407-1.024-.566-1.762-.566-1.578 0-2.614 1.053-2.614 2.493Zm13.734-2.493c-.614 0-1.013.279-1.29.696v-.577h-1.056v4.749h1.065v-2.662c0-.785.35-1.222 1.046-1.222.215 0 .44.03.667.119l.327-.973a2.339 2.339 0 0 0-.759-.13Zm-28.555.497c-.511-.328-1.219-.497-1.998-.497-1.24 0-2.039.577-2.039 1.52 0 .775.594 1.252 1.69 1.401l.503.07c.584.079.86.227.86.496 0 .367-.389.576-1.116.576-.738 0-1.272-.229-1.63-.497l-.503.805c.585.417 1.323.616 2.122.616 1.415 0 2.235-.645 2.235-1.55 0-.834-.646-1.27-1.713-1.42l-.502-.07c-.46-.06-.83-.148-.83-.466 0-.348.349-.557.933-.557.626 0 1.23.229 1.528.408l.46-.835Zm13.746-.497c-.616 0-1.015.279-1.292.696v-.577h-1.056v4.749h1.066v-2.662c0-.785.349-1.222 1.045-1.222.215 0 .442.03.667.119l.328-.973a2.349 2.349 0 0 0-.758-.13Zm-9.092.12h-1.742V11.11h-1.076v1.44h-.995v.944h.995v2.166c0 1.102.44 1.758 1.7 1.758.462 0 .995-.139 1.333-.368l-.307-.884c-.318.18-.667.268-.943.268-.534 0-.708-.318-.708-.794v-2.146h1.743v-.944Zm-15.928 4.748v-2.98c0-1.123-.737-1.878-1.926-1.888-.625-.01-1.272.18-1.723.845-.337-.527-.87-.845-1.62-.845-.522 0-1.035.15-1.434.705v-.586h-1.066V17.3h1.076v-2.632c0-.825.472-1.263 1.2-1.263.706 0 1.065.448 1.065 1.252V17.3h1.076v-2.632c0-.825.493-1.263 1.2-1.263.727 0 1.076.448 1.076 1.252V17.3h1.076Z" clip-rule="evenodd"/><path fill="#F16522" fill-rule="evenodd" d="M17.04 20.56h6.305V9.14H17.04v11.42Z" clip-rule="evenodd"/><path fill="#E41B24" fill-rule="evenodd" d="M17.278 15a7.397 7.397 0 0 1 2.764-5.788 7.128 7.128 0 0 0-4.472-1.574c-3.997 0-7.237 3.296-7.237 7.362 0 4.066 3.24 7.362 7.237 7.362a7.128 7.128 0 0 0 4.472-1.574A7.396 7.396 0 0 1 17.278 15Z" clip-rule="evenodd"/><path fill="#F89E1B" fill-rule="evenodd" d="M31.826 19.562v-.285h-.073l-.085.196-.084-.196h-.073v.285h.051v-.215l.08.186h.053l.079-.187v.216h.052Zm-.465 0v-.237h.094v-.048h-.239v.048h.094v.237h.051ZM32.052 15c0 4.066-3.24 7.362-7.237 7.362a7.126 7.126 0 0 1-4.472-1.574A7.395 7.395 0 0 0 23.107 15c0-2.349-1.081-4.44-2.764-5.789a7.128 7.128 0 0 1 4.472-1.573c3.997 0 7.237 3.296 7.237 7.362Z" clip-rule="evenodd"/></svg>