<svg xmlns="http://www.w3.org/2000/svg" width="84" height="32" fill="none"><rect width="83" height="31" x=".5" y=".5" fill="#fff" rx="4.5"/><rect width="83" height="31" x=".5" y=".5" stroke="#DFDFDF" rx="4.5"/><path fill="#747474" d="M10.145 21v-9.454h1.145v8.438h4.395V21h-5.54Zm9.251.166c-.449 0-.857-.084-1.223-.254a2.1 2.1 0 0 1-.873-.743c-.215-.326-.323-.72-.323-1.182 0-.406.08-.735.24-.988.16-.255.374-.455.642-.6.268-.145.563-.252.886-.323.327-.074.654-.132.984-.175.43-.056.78-.097 1.048-.125.27-.03.467-.082.59-.152.127-.071.19-.194.19-.37v-.037c0-.455-.125-.81-.374-1.061-.246-.253-.62-.379-1.122-.379-.52 0-.928.114-1.223.342-.296.227-.504.47-.623.729l-1.035-.37c.185-.43.431-.766.739-1.006.31-.243.65-.412 1.016-.508.369-.098.732-.147 1.09-.147.227 0 .489.027.784.083.299.052.586.161.863.328.28.166.513.417.697.752.185.336.277.785.277 1.348V21h-1.09v-.96h-.055a1.914 1.914 0 0 1-.369.494 2.129 2.129 0 0 1-.688.448c-.286.123-.635.184-1.048.184Zm.166-.979c.431 0 .794-.084 1.09-.253a1.73 1.73 0 0 0 .905-1.5v-.998c-.046.055-.148.106-.305.152a5.124 5.124 0 0 1-.535.116 24.109 24.109 0 0 1-1.044.138 4.167 4.167 0 0 0-.794.18c-.243.08-.44.202-.59.365-.148.16-.222.379-.222.656 0 .378.14.664.42.858.283.191.642.287 1.076.287Zm10.096-4.69-.98.277a1.819 1.819 0 0 0-.271-.475 1.32 1.32 0 0 0-.48-.388c-.204-.102-.464-.152-.78-.152-.435 0-.796.1-1.086.3-.286.197-.429.447-.429.752 0 .27.098.485.295.642.197.157.505.288.924.392l1.052.259c.634.154 1.107.389 1.418.706.31.314.466.719.466 1.214a1.8 1.8 0 0 1-.351 1.09c-.23.32-.554.572-.97.757-.415.184-.898.277-1.449.277-.723 0-1.322-.157-1.796-.471-.474-.314-.774-.773-.9-1.376l1.034-.258c.098.381.285.668.559.858.277.191.638.287 1.084.287.508 0 .912-.108 1.21-.324.302-.218.452-.48.452-.785a.825.825 0 0 0-.258-.618c-.172-.17-.437-.295-.794-.379l-1.182-.277c-.65-.154-1.126-.392-1.431-.715-.302-.326-.453-.734-.453-1.223 0-.4.113-.755.337-1.062.228-.308.538-.55.928-.725.394-.175.84-.263 1.34-.263.7 0 1.252.154 1.652.461.403.308.69.714.859 1.22Zm4.853-1.588v.923h-3.675v-.923h3.675Zm-2.604-1.699h1.09v6.759c0 .307.044.538.133.692.093.151.21.253.351.305.145.05.297.074.457.074.12 0 .219-.006.296-.019l.184-.037.222.98a2.216 2.216 0 0 1-.31.082c-.132.03-.3.046-.503.046-.307 0-.609-.066-.904-.198a1.797 1.797 0 0 1-.73-.605c-.19-.27-.286-.612-.286-1.025V12.21Zm9.138 3.287-.978.277a1.819 1.819 0 0 0-.273-.475 1.32 1.32 0 0 0-.48-.388c-.203-.102-.463-.152-.78-.152-.434 0-.796.1-1.085.3-.286.197-.43.447-.43.752 0 .27.1.485.296.642.197.157.505.288.924.392l1.052.259c.634.154 1.106.389 1.417.706.311.314.467.719.467 1.214a1.8 1.8 0 0 1-.351 1.09c-.231.32-.554.572-.97.757-.415.184-.898.277-1.45.277-.723 0-1.321-.157-1.795-.471-.474-.314-.774-.773-.9-1.376l1.034-.258c.098.381.284.668.558.858.277.191.639.287 1.085.287.508 0 .911-.108 1.21-.324.301-.218.452-.48.452-.785a.825.825 0 0 0-.258-.618c-.173-.17-.437-.295-.794-.379l-1.182-.277c-.65-.154-1.127-.392-1.431-.715-.302-.326-.453-.734-.453-1.223 0-.4.113-.755.337-1.062.228-.308.537-.55.928-.725.394-.175.84-.263 1.339-.263.702 0 1.252.154 1.653.461.403.308.689.714.858 1.22Zm4.65 5.65c-.664 0-1.237-.156-1.717-.47a3.07 3.07 0 0 1-1.108-1.297c-.259-.551-.388-1.18-.388-1.889 0-.72.133-1.355.397-1.906.268-.554.64-.987 1.117-1.297.48-.314 1.04-.471 1.68-.471.5 0 .949.092 1.349.277.4.184.728.443.983.775.255.333.414.72.476 1.164h-1.09a1.69 1.69 0 0 0-.554-.859c-.283-.252-.665-.378-1.145-.378-.425 0-.797.11-1.117.332a2.166 2.166 0 0 0-.743.928c-.176.397-.263.863-.263 1.398 0 .548.086 1.025.258 1.432.176.406.422.721.739.946.32.225.695.337 1.126.337.283 0 .54-.05.771-.148.231-.098.426-.24.587-.424.16-.185.273-.407.341-.665h1.09a2.524 2.524 0 0 1-.458 1.13c-.24.333-.558.598-.955.795-.394.194-.853.29-1.376.29Zm5.47-4.413V21h-1.089v-9.454h1.09v3.471h.092c.166-.366.416-.657.748-.872.335-.219.782-.328 1.339-.328.483 0 .906.097 1.27.29.362.191.644.485.844.882.203.394.305.896.305 1.505V21h-1.09v-4.432c0-.563-.146-.999-.438-1.306-.29-.311-.691-.466-1.205-.466a2.01 2.01 0 0 0-.96.226c-.28.15-.502.37-.665.66-.16.29-.24.64-.24 1.052ZM57.758 21v-7.09h1.053v1.07h.073c.13-.35.363-.635.702-.854.339-.218.72-.328 1.145-.328.08 0 .18.002.3.005s.21.008.272.014v1.108a3.235 3.235 0 0 0-.254-.042 2.493 2.493 0 0 0-.41-.032 1.93 1.93 0 0 0-.924.217c-.267.141-.48.338-.637.59-.154.25-.23.535-.23.855V21h-1.09Zm4.837 0v-7.09h1.09V21h-1.09Zm.554-8.273a.775.775 0 0 1-.55-.217.697.697 0 0 1-.226-.521c0-.204.076-.377.227-.522a.774.774 0 0 1 .549-.217c.212 0 .394.072.545.217a.69.69 0 0 1 .23.522.69.69 0 0 1-.23.521.759.759 0 0 1-.545.217Zm5.688 1.182v.923h-3.822v-.923h3.823ZM66.16 21v-8.07c0-.406.095-.744.286-1.015.19-.271.439-.474.743-.61a2.35 2.35 0 0 1 .965-.203c.268 0 .486.022.656.065.169.043.295.083.378.12l-.314.942a5.302 5.302 0 0 0-.23-.07 1.4 1.4 0 0 0-.379-.041c-.36 0-.62.09-.78.272-.157.182-.236.448-.236.799V21h-1.09Zm7.288-7.09v.922h-3.675v-.923h3.675Zm-2.603-1.7h1.089v6.759c0 .307.045.538.134.692.092.151.21.253.35.305.145.05.298.074.458.074.12 0 .218-.006.295-.019l.185-.037.221.98a2.212 2.212 0 0 1-.309.082c-.132.03-.3.046-.503.046-.308 0-.61-.066-.905-.198a1.797 1.797 0 0 1-.73-.605c-.19-.27-.285-.612-.285-1.025V12.21Z"/></svg>