<svg xmlns="http://www.w3.org/2000/svg" width="87" height="32" fill="none"><rect width="86" height="31" x=".5" y=".5" fill="#fff" rx="4.5"/><rect width="86" height="31" x=".5" y=".5" stroke="#DFDFDF" rx="4.5"/><path fill="#747474" d="M10.145 21v-9.454h1.145v4.69h.11l4.248-4.69h1.495l-3.97 4.265L17.143 21h-1.385l-3.286-4.395-1.182 1.33V21h-1.145Zm8.333 0v-7.09h1.052v1.07h.074c.13-.35.363-.635.702-.854.338-.218.72-.328 1.145-.328.08 0 .18.002.3.005s.21.008.272.014v1.108a3.226 3.226 0 0 0-.254-.042 2.493 2.493 0 0 0-.41-.032 1.93 1.93 0 0 0-.924.217c-.268.141-.48.338-.637.59-.154.25-.23.535-.23.855V21h-1.09Zm7.594.148c-.683 0-1.273-.151-1.768-.453a3.036 3.036 0 0 1-1.14-1.274c-.265-.548-.398-1.185-.398-1.911s.133-1.367.397-1.92c.268-.558.64-.992 1.117-1.302.48-.314 1.04-.471 1.68-.471.37 0 .735.061 1.095.184s.688.324.983.6c.296.274.531.638.707 1.09.175.452.263 1.01.263 1.671v.462h-5.466v-.942H27.9c0-.4-.08-.757-.24-1.07a1.81 1.81 0 0 0-.674-.744 1.887 1.887 0 0 0-1.025-.272c-.434 0-.81.107-1.127.323-.313.212-.555.489-.724.83-.17.342-.254.708-.254 1.1v.627c0 .536.092.99.277 1.362.188.37.448.65.78.845.332.19.719.286 1.159.286.286 0 .544-.04.775-.12a1.66 1.66 0 0 0 .605-.37c.17-.165.3-.372.392-.618l1.053.296c-.11.357-.297.67-.559.941a2.722 2.722 0 0 1-.969.628 3.594 3.594 0 0 1-1.297.222Zm7.27 0c-.59 0-1.112-.15-1.564-.448-.453-.302-.807-.726-1.062-1.274-.256-.551-.383-1.202-.383-1.953 0-.745.128-1.391.383-1.939s.61-.97 1.066-1.27c.456-.298.982-.447 1.58-.447.46 0 .825.077 1.093.23.271.151.477.324.619.518.145.19.257.347.337.47h.092v-3.49h1.09V21H35.54v-1.09h-.13c-.08.13-.193.293-.34.49a2.029 2.029 0 0 1-.633.522c-.274.15-.639.226-1.094.226Zm.148-.979c.437 0 .807-.114 1.108-.342.302-.23.531-.549.688-.955.157-.41.236-.882.236-1.418 0-.529-.077-.992-.231-1.389-.154-.4-.382-.711-.683-.933-.302-.224-.674-.336-1.118-.336-.461 0-.846.118-1.154.355a2.128 2.128 0 0 0-.688.956 3.8 3.8 0 0 0-.226 1.348c0 .504.077.963.231 1.375.157.41.388.736.693.979.307.24.689.36 1.144.36Zm5.25.831v-7.09h1.089V21h-1.09Zm.553-8.273a.775.775 0 0 1-.549-.217.697.697 0 0 1-.226-.521c0-.204.075-.377.226-.522a.774.774 0 0 1 .55-.217c.212 0 .393.072.544.217a.69.69 0 0 1 .23.522.69.69 0 0 1-.23.521.759.759 0 0 1-.545.217Zm5.615 1.182v.923h-3.675v-.923h3.675Zm-2.604-1.699h1.09v6.759c0 .307.044.538.134.692.092.151.21.253.35.305.145.05.298.074.458.074.12 0 .218-.006.295-.019l.185-.037.221.98a2.22 2.22 0 0 1-.309.082c-.132.03-.3.046-.503.046-.308 0-.61-.066-.905-.198a1.798 1.798 0 0 1-.73-.605c-.19-.27-.286-.612-.286-1.025V12.21Zm5.41 6.205-.017-1.348h.221l3.102-3.158h1.348l-3.305 3.342h-.092l-1.256 1.164ZM46.7 21v-9.454h1.09V21h-1.09Zm4.506 0-2.77-3.509.776-.757L52.59 21h-1.385Zm4.652.166a2.88 2.88 0 0 1-1.223-.254 2.099 2.099 0 0 1-.873-.743c-.215-.326-.323-.72-.323-1.182 0-.406.08-.735.24-.988.16-.255.374-.455.642-.6.268-.145.563-.252.886-.323.327-.074.654-.132.984-.175.43-.056.78-.097 1.048-.125.27-.03.467-.082.59-.152.127-.071.19-.194.19-.37v-.037c0-.455-.125-.81-.374-1.061-.246-.253-.62-.379-1.122-.379-.52 0-.928.114-1.223.342-.296.227-.504.47-.624.729l-1.034-.37c.185-.43.431-.766.739-1.006.31-.243.65-.412 1.016-.508.369-.098.732-.147 1.09-.147.227 0 .488.027.784.083.298.052.586.161.863.328.28.166.513.417.697.752.185.336.277.785.277 1.348V21h-1.09v-.96h-.055a1.917 1.917 0 0 1-.369.494 2.13 2.13 0 0 1-.688.448c-.286.123-.635.184-1.048.184Zm.166-.979c.431 0 .794-.084 1.09-.253a1.729 1.729 0 0 0 .905-1.5v-.998c-.046.055-.148.106-.305.152a5.124 5.124 0 0 1-.535.116 24.179 24.179 0 0 1-1.044.138 4.167 4.167 0 0 0-.794.18c-.243.08-.44.202-.59.365-.148.16-.222.379-.222.656 0 .378.14.664.42.858.283.191.642.287 1.075.287Zm5.073.813v-7.09h1.052v1.07h.074c.13-.35.363-.635.702-.854.339-.218.72-.328 1.145-.328.08 0 .18.002.3.005s.21.008.272.014v1.108a3.218 3.218 0 0 0-.254-.042 2.492 2.492 0 0 0-.41-.032 1.93 1.93 0 0 0-.924.217c-.268.141-.48.338-.637.59-.154.25-.23.535-.23.855V21h-1.09Zm8.365-7.09v.922h-3.675v-.923h3.675Zm-2.604-1.7h1.09v6.759c0 .307.044.538.133.692.093.151.21.253.351.305.145.05.297.074.457.074.12 0 .219-.006.296-.019l.184-.037.222.98a2.22 2.22 0 0 1-.31.082c-.132.03-.3.046-.502.046-.308 0-.61-.066-.905-.198a1.797 1.797 0 0 1-.73-.605c-.19-.27-.286-.612-.286-1.025V12.21Zm7.14 8.938c-.684 0-1.273-.151-1.769-.453a3.036 3.036 0 0 1-1.14-1.274c-.264-.548-.397-1.185-.397-1.911s.132-1.367.397-1.92c.268-.558.64-.992 1.117-1.302.48-.314 1.04-.471 1.68-.471.37 0 .735.061 1.095.184s.688.324.983.6c.296.274.531.638.707 1.09.175.452.263 1.01.263 1.671v.462h-5.466v-.942h4.358c0-.4-.08-.757-.24-1.07a1.81 1.81 0 0 0-.674-.744 1.887 1.887 0 0 0-1.025-.272c-.434 0-.81.107-1.127.323-.314.212-.555.489-.725.83-.169.342-.253.708-.253 1.1v.627c0 .536.092.99.277 1.362.187.37.447.65.78.845.332.19.718.286 1.159.286.286 0 .544-.04.775-.12a1.66 1.66 0 0 0 .605-.37c.17-.165.3-.372.392-.618l1.053.296c-.111.357-.297.67-.559.941a2.722 2.722 0 0 1-.97.628 3.594 3.594 0 0 1-1.297.222Z"/></svg>