<svg xmlns="http://www.w3.org/2000/svg" width="25" height="26" viewBox="0 0 25 26" fill="none">
    <path fill-rule="evenodd" clip-rule="evenodd" d="M18.7758 8.19071C18.6613 7.93554 18.4672 7.7243 18.2227 7.58856C17.6001 7.2112 16.9437 6.89242 16.2622 6.63632C16.0783 6.56754 15.8843 6.52969 15.6881 6.52429C15.5204 6.52628 15.3563 6.57214 15.2119 6.65733C14.9442 6.9121 14.709 7.19902 14.5118 7.51154C13.2444 9.325 10.4437 13.8131 9.75055 14.5133H9.70154C9.25342 14.2893 8.30118 13.6451 7.89508 13.407C7.79847 13.3373 7.689 13.2873 7.573 13.26C7.508 13.26 7.44567 13.2858 7.39971 13.3318C7.35375 13.3777 7.32793 13.4401 7.32793 13.5051C7.32793 13.8076 7.49814 13.9903 7.65918 14.0883C8.13531 14.3894 9.05709 15.0183 9.44919 15.2143C9.52502 15.2639 9.61149 15.2948 9.70154 15.3045C9.79159 15.3142 9.88266 15.3025 9.96732 15.2703C10.4336 14.7977 10.8882 14.1591 11.2507 13.6028C12.483 11.8594 14.4137 9.0141 15.303 7.8168C15.4192 7.64425 15.5479 7.48044 15.6881 7.32668C15.733 7.30875 15.7831 7.30875 15.8281 7.32668C15.9199 7.33596 16.0097 7.35958 16.0942 7.39669C16.4054 7.51647 16.6113 7.62222 16.9064 7.77761C17.261 7.92063 17.6071 8.08428 17.9426 8.26773C17.9119 8.35121 17.8769 8.43301 17.8376 8.5128C17.4455 9.21297 16.4793 10.5293 15.408 12.0137C13.7136 14.3243 11.8103 16.7673 11.2081 17.5585L10.4224 18.4823L10.1984 18.6714C10.116 18.657 10.0374 18.626 9.96732 18.5803C9.79928 18.4683 9.35598 18.165 9.17394 18.0599C8.66456 17.6397 8.11171 17.2523 7.46328 16.7186C6.69309 16.1024 6.26715 15.7721 6.00109 15.4921C5.90003 15.3857 5.76587 15.2524 5.81909 15.1739C6.17491 14.6484 6.50973 14.2847 6.92802 13.8076C7.06105 13.6465 7.53624 13.0858 6.96487 12.8833C6.90654 12.8836 6.84893 12.8962 6.79583 12.9203C6.74273 12.9444 6.69534 12.9795 6.65679 13.0233C6.31341 13.3714 6.05339 13.6692 5.76275 14.0624C5.51068 14.3985 5.05304 14.9413 4.96202 15.0953C4.93379 15.1493 4.91905 15.2094 4.91905 15.2703C4.91905 15.3313 4.93379 15.3914 4.96202 15.4454C5.41643 15.9898 6.12314 16.532 6.65679 16.999C7.4332 17.687 8.0354 18.1851 8.88219 18.7844C9.08524 18.9174 9.58065 19.2885 9.7837 19.4005C9.90626 19.4729 10.0419 19.5205 10.1828 19.5406C10.3327 19.5578 10.4843 19.5284 10.6169 19.4565C10.7585 19.3774 10.8862 19.2757 10.995 19.1555L11.7741 18.1822C12.5233 17.181 15.7021 13.0709 17.4945 10.5293C17.9271 9.93696 18.3245 9.31975 18.6848 8.68084C18.7662 8.53121 18.7981 8.3596 18.7758 8.19071Z" fill="#2F4027"/>
    <path d="M15.6935 6.3241C15.9118 6.3301 16.1276 6.3726 16.3321 6.4491L16.8478 6.65613C17.3551 6.87413 17.8466 7.1278 18.3194 7.41394L18.423 7.47644C18.6233 7.60987 18.7884 7.78989 18.9044 8.00086L18.9581 8.10925L18.9698 8.13562L18.9737 8.16492C19.0015 8.37561 18.962 8.58956 18.8605 8.77625L18.8595 8.77918C18.4954 9.42486 18.0935 10.0487 17.6564 10.6473C15.8619 13.1916 12.6802 17.3053 11.9347 18.3016L11.9298 18.3075L11.1437 19.2899C11.0204 19.4261 10.8753 19.541 10.715 19.6307L10.712 19.6327C10.5434 19.724 10.3508 19.7609 10.1603 19.7391L10.1544 19.7382C9.98932 19.7146 9.83052 19.6593 9.68663 19.5751C9.57321 19.5124 9.38894 19.3844 9.21788 19.2635C9.03951 19.1375 8.87019 19.016 8.77257 18.952L8.76671 18.9481C7.9126 18.3436 7.30493 17.84 6.5255 17.1493L5.64855 16.4022C5.34242 16.1348 5.0427 15.8534 4.8087 15.5731L4.79503 15.5575L4.78429 15.538C4.74121 15.4554 4.71887 15.3635 4.71886 15.2704C4.71886 15.1773 4.74123 15.0854 4.78429 15.0028L4.78917 14.993H4.79113C4.84623 14.9002 4.9944 14.7117 5.14562 14.5223C5.30442 14.3235 5.47899 14.1071 5.60265 13.9423C5.8251 13.6414 6.03081 13.3951 6.26671 13.1415L6.51476 12.8827C6.57052 12.8218 6.63774 12.7724 6.713 12.7382C6.79181 12.7023 6.87741 12.6839 6.96398 12.6835H6.99913L7.03136 12.6952C7.2099 12.7585 7.34291 12.8632 7.40441 13.0155C7.41386 13.0389 7.41748 13.0634 7.42296 13.0868C7.47073 13.0697 7.52164 13.0604 7.57335 13.0604H7.59581L7.61925 13.0653C7.75429 13.0971 7.8814 13.1551 7.99523 13.2343C8.20233 13.3557 8.54898 13.5805 8.88976 13.7968C9.18564 13.9845 9.47799 14.1638 9.68956 14.2792C9.85823 14.0837 10.1212 13.7305 10.4444 13.2645C10.8228 12.7192 11.2767 12.038 11.7491 11.3202C12.6921 9.88735 13.712 8.30716 14.3478 7.39734C14.5528 7.07383 14.7968 6.77664 15.0743 6.51257L15.0909 6.49695L15.1105 6.48523C15.2849 6.38232 15.4831 6.3265 15.6857 6.3241H15.6935ZM15.6881 6.52429C15.5204 6.52628 15.3563 6.57214 15.2119 6.65733C14.9442 6.9121 14.709 7.19902 14.5118 7.51154C13.2444 9.325 10.4437 13.8131 9.75055 14.5133H9.70154C9.25342 14.2893 8.30118 13.6451 7.89508 13.407C7.79847 13.3373 7.689 13.2873 7.573 13.26C7.508 13.26 7.44567 13.2858 7.39971 13.3318C7.35375 13.3777 7.32793 13.4401 7.32793 13.5051C7.32793 13.8076 7.49814 13.9903 7.65918 14.0883C8.13531 14.3894 9.05709 15.0183 9.44919 15.2143C9.52502 15.2639 9.61149 15.2948 9.70154 15.3045C9.79159 15.3142 9.88266 15.3025 9.96732 15.2703C10.4336 14.7977 10.8882 14.1591 11.2507 13.6028C12.483 11.8594 14.4137 9.0141 15.303 7.8168C15.4192 7.64425 15.5479 7.48044 15.6881 7.32668C15.733 7.30875 15.7831 7.30875 15.8281 7.32668C15.9199 7.33596 16.0097 7.35958 16.0942 7.39669C16.4054 7.51647 16.6113 7.62222 16.9064 7.77761C17.261 7.92063 17.6071 8.08428 17.9426 8.26773C17.9119 8.35121 17.8769 8.43301 17.8376 8.5128C17.4455 9.21297 16.4793 10.5293 15.408 12.0137C13.7136 14.3243 11.8103 16.7673 11.2081 17.5585L10.4224 18.4823L10.1984 18.6714C10.116 18.657 10.0374 18.626 9.96732 18.5803C9.79928 18.4683 9.35598 18.165 9.17394 18.0599C8.66456 17.6397 8.11171 17.2523 7.46328 16.7186C6.69309 16.1024 6.26715 15.7721 6.00109 15.4921C5.90003 15.3857 5.76587 15.2524 5.81909 15.1739C6.17491 14.6484 6.50973 14.2847 6.92802 13.8076C7.06105 13.6465 7.53624 13.0858 6.96487 12.8833C6.90654 12.8836 6.84893 12.8962 6.79583 12.9203C6.74273 12.9444 6.69534 12.9795 6.65679 13.0233C6.31341 13.3714 6.05339 13.6692 5.76275 14.0624C5.51068 14.3985 5.05304 14.9413 4.96202 15.0953C4.93379 15.1493 4.91905 15.2094 4.91905 15.2703C4.91905 15.3313 4.93379 15.3914 4.96202 15.4454C5.41643 15.9898 6.12314 16.532 6.65679 16.999C7.4332 17.687 8.0354 18.1851 8.88219 18.7844C9.08524 18.9174 9.58065 19.2885 9.7837 19.4005C9.90626 19.4729 10.0419 19.5205 10.1828 19.5406C10.3327 19.5578 10.4843 19.5284 10.6169 19.4565C10.7585 19.3774 10.8862 19.2757 10.995 19.1555L11.7741 18.1822C12.5233 17.181 15.7021 13.0709 17.4945 10.5293C17.9271 9.93696 18.3245 9.31975 18.6848 8.68084C18.7662 8.53121 18.7981 8.3596 18.7758 8.19071C18.6613 7.93554 18.4672 7.7243 18.2227 7.58856C17.6001 7.2112 16.9437 6.89242 16.2622 6.63632C16.0783 6.56754 15.8843 6.52969 15.6881 6.52429ZM15.7833 7.52332C15.6706 7.6521 15.5645 7.78659 15.4689 7.92859L15.464 7.9364C14.5761 9.13196 12.6517 11.9679 11.4142 13.7186L11.4132 13.7177C11.0495 14.2754 10.5885 14.9254 10.1095 15.411L10.0792 15.4423L10.0382 15.4569C9.92406 15.5003 9.80119 15.5169 9.6798 15.5038C9.56587 15.4914 9.45703 15.4522 9.35948 15.3925C9.15152 15.2884 8.81287 15.0758 8.47667 14.8583C8.13387 14.6364 7.7892 14.4078 7.55187 14.2577C7.4092 14.17 7.25695 14.023 7.1798 13.8065C7.13795 13.862 7.10407 13.9079 7.08214 13.9344L7.07823 13.9393C6.67451 14.3999 6.36036 14.7439 6.02941 15.2225C6.05802 15.2596 6.09677 15.303 6.14562 15.3544C6.39943 15.6215 6.8095 15.9396 7.588 16.5624L7.58995 16.5643C7.91109 16.8287 8.20944 17.0573 8.4923 17.2733C8.76955 17.4851 9.03401 17.6862 9.2882 17.8954C9.48541 18.0115 9.92116 18.3092 10.0782 18.4139C10.1007 18.4285 10.1248 18.4402 10.1495 18.4501L10.2804 18.3387L11.0558 17.4286C11.6673 16.6255 13.5603 14.1956 15.2472 11.8954C16.3216 10.4067 17.2741 9.10673 17.6603 8.41882C17.6699 8.39917 17.6766 8.37819 17.6857 8.35828C17.4075 8.21297 17.1223 8.08017 16.8312 7.96277L16.8136 7.95496C16.52 7.80033 16.3223 7.69825 16.0226 7.58289L16.0138 7.57996C15.9485 7.55126 15.8787 7.53245 15.8077 7.52527L15.7833 7.52332Z" fill="#2F4027"/>
    <path fill-rule="evenodd" clip-rule="evenodd" d="M4.05386 4.10364C2.79899 5.14256 1.78944 6.42054 1.09111 7.85416C0.392783 9.28778 0.0213666 10.8448 0.00110543 12.4236C-0.00686902 14.899 0.724955 17.3259 2.11192 19.4236C3.52165 21.5107 5.57364 23.1373 7.99053 24.0836C9.77991 24.7404 11.7116 24.9725 13.6174 24.7599C15.5232 24.5473 17.3451 23.8963 18.9245 22.8636C20.5351 21.9058 21.8287 20.5379 22.6573 18.9162C23.486 17.2946 23.8163 15.4848 23.6105 13.6936C23.6 13.6184 23.5587 13.55 23.4956 13.5033C23.4324 13.4565 23.3524 13.4351 23.2728 13.4436C23.1925 13.456 23.1203 13.4972 23.0712 13.5586C23.0221 13.62 22.9998 13.697 23.009 13.7736C23.1804 15.4498 22.8459 17.1376 22.0444 18.6407C21.2428 20.1437 20.0071 21.4001 18.4813 22.2636C17.0054 23.1878 15.3129 23.7549 13.5521 23.9153C11.7912 24.0757 10.0156 23.8244 8.38103 23.1836C6.20282 22.2803 4.36345 20.7745 3.104 18.8636C1.83812 16.9395 1.15871 14.721 1.14094 12.4536C1.15605 11.017 1.48882 9.59925 2.1178 8.29193C2.74677 6.98462 3.65798 5.81674 4.79265 4.86364C7.01305 2.84559 9.97988 1.73264 13.0565 1.76364C15.6984 1.96213 18.174 3.06389 20.0222 4.86364C21.0071 5.69277 21.8068 6.70038 22.3742 7.82705C22.9415 8.95371 23.265 10.1766 23.3256 11.4236C23.3256 11.5085 23.3612 11.5899 23.4245 11.6499C23.4878 11.7099 23.5737 11.7436 23.6633 11.7436C23.7529 11.7436 23.8388 11.7099 23.9021 11.6499C23.9655 11.5899 24.001 11.5085 24.001 11.4236C23.9607 10.0818 23.6385 8.76094 23.0532 7.53842C22.4678 6.31591 21.6312 5.21622 20.5921 4.30364C18.5975 2.33701 15.9227 1.11598 13.0565 0.86364C9.72435 0.789097 6.49351 1.95186 4.05386 4.10364Z" fill="#3F593F"/>
    <path d="M-0.199154 12.4214C-0.178511 10.8128 0.200088 9.22597 0.911197 7.76611C1.62222 6.30657 2.64976 5.00628 3.92585 3.94971C6.40365 1.76606 9.68148 0.588066 13.0606 0.663574L13.0743 0.663574C15.9854 0.919928 18.7039 2.16145 20.7325 4.16162C21.7872 5.09002 22.6379 6.20791 23.2335 7.45166C23.8307 8.69902 24.1601 10.0475 24.2012 11.4175V11.4233C24.2012 11.5648 24.142 11.6988 24.0401 11.7954C23.9385 11.8916 23.8024 11.9438 23.6632 11.9438C23.5241 11.9438 23.3887 11.8914 23.2872 11.7954C23.1875 11.701 23.1296 11.5711 23.127 11.4331C23.0678 10.2145 22.7502 9.01928 22.1954 7.91748C21.6405 6.81563 20.8581 5.8291 19.8936 5.01709L19.8878 5.01221L19.8829 5.00732C18.0694 3.24128 15.6375 2.15845 13.0411 1.96338C10.0183 1.93624 7.10564 3.03098 4.92682 5.01123L4.92096 5.01709C3.80773 5.95227 2.91427 7.0974 2.29792 8.37842C1.68169 9.65924 1.35584 11.0479 1.34088 12.4546C1.35883 14.6819 2.02696 16.8616 3.27155 18.7534C4.50831 20.6298 6.31563 22.11 8.45807 22.9985C10.0624 23.6268 11.8055 23.8738 13.5342 23.7163C15.2642 23.5587 16.9264 23.0014 18.3751 22.0942L18.3829 22.0894C19.8766 21.244 21.0851 20.0148 21.8682 18.5464C22.6511 17.0782 22.9769 15.4304 22.8096 13.7944C22.7949 13.6645 22.834 13.5357 22.9151 13.4341C22.9763 13.3576 23.0576 13.3007 23.1485 13.269L23.2423 13.2456L23.251 13.2446C23.3792 13.231 23.5102 13.2653 23.6143 13.3423C23.7189 13.4197 23.7903 13.5353 23.8087 13.6655L23.8096 13.6704C24.02 15.5011 23.6814 17.351 22.835 19.0073C21.99 20.6609 20.6726 22.0545 19.0342 23.0308L18.7296 23.2231C17.1957 24.1617 15.4549 24.7559 13.6397 24.9585C11.7034 25.1745 9.74055 24.9384 7.92194 24.271L7.91803 24.27C5.46466 23.3094 3.37951 21.6573 1.94635 19.5356L1.94538 19.5337C0.537111 17.4037 -0.207189 14.9387 -0.199154 12.4233L-0.199154 12.4214ZM0.00110543 12.4236C-0.00686902 14.899 0.724955 17.3259 2.11192 19.4236C3.52165 21.5107 5.57364 23.1373 7.99053 24.0836C9.77991 24.7404 11.7116 24.9725 13.6174 24.7599C15.5232 24.5473 17.3451 23.8963 18.9245 22.8636C20.5351 21.9058 21.8287 20.5379 22.6573 18.9162C23.486 17.2946 23.8163 15.4848 23.6105 13.6936C23.6 13.6184 23.5587 13.55 23.4956 13.5033C23.4324 13.4565 23.3524 13.4351 23.2728 13.4436C23.1925 13.456 23.1203 13.4972 23.0712 13.5586C23.0221 13.62 22.9998 13.697 23.009 13.7736C23.1804 15.4498 22.8459 17.1376 22.0444 18.6407C21.2428 20.1437 20.0071 21.4001 18.4813 22.2636C17.0054 23.1878 15.3129 23.7549 13.5521 23.9153C11.7912 24.0757 10.0156 23.8244 8.38103 23.1836C6.20282 22.2803 4.36345 20.7745 3.104 18.8636C1.83812 16.9395 1.15871 14.721 1.14094 12.4536C1.15605 11.017 1.48882 9.59925 2.1178 8.29193C2.74677 6.98462 3.65798 5.81674 4.79265 4.86364C7.01305 2.84559 9.97988 1.73264 13.0565 1.76364C15.6984 1.96213 18.174 3.06389 20.0222 4.86364C21.0071 5.69277 21.8068 6.70038 22.3742 7.82705C22.9415 8.95371 23.265 10.1766 23.3256 11.4236C23.3256 11.5085 23.3612 11.5899 23.4245 11.6499C23.4878 11.7099 23.5737 11.7436 23.6633 11.7436C23.7529 11.7436 23.8388 11.7099 23.9021 11.6499C23.9655 11.5899 24.001 11.5085 24.001 11.4236C23.9607 10.0818 23.6385 8.76094 23.0532 7.53842C22.4678 6.31591 21.6312 5.21622 20.5921 4.30364C18.5975 2.33701 15.9227 1.11598 13.0565 0.86364C9.72435 0.789097 6.49351 1.95186 4.05386 4.10364C2.79899 5.14256 1.78944 6.42054 1.09111 7.85416C0.392783 9.28778 0.0213666 10.8448 0.00110543 12.4236Z" fill="#2F4027"/>
</svg>