<svg xmlns="http://www.w3.org/2000/svg" width="39" height="42" viewBox="0 0 39 42" fill="none">
    <path fill-rule="evenodd" clip-rule="evenodd" d="M16.5831 19.7239C16.2083 19.0898 15.7669 18.4976 15.2664 17.9572C14.7661 17.4138 14.2072 16.9275 13.5998 16.5072C12.1961 15.5522 10.6148 14.889 8.94975 14.5572C8.8326 14.5204 8.70568 14.5313 8.59648 14.5875C8.48729 14.6436 8.40463 14.7405 8.36642 14.8572C8.33409 14.9787 8.34873 15.108 8.40742 15.2192C8.4661 15.3304 8.56453 15.4154 8.68308 15.4572C10.0888 16.0418 11.3893 16.8525 12.5331 17.8572C13.0236 18.276 13.4909 18.7211 13.9331 19.1906C14.3708 19.6564 14.7826 20.146 15.1664 20.6572C15.9162 21.5986 16.4817 22.6729 16.8331 23.8239C17.2164 24.3072 17.9664 24.0906 17.8998 23.5739C17.7526 22.2086 17.3028 20.8934 16.5831 19.7239Z" fill="#3F593F"/>
    <path d="M8.44431 14.2917C8.6207 14.2009 8.82306 14.1825 9.01397 14.2331L9.0156 14.2298C10.5109 14.5278 11.9401 15.0869 13.2392 15.8786L13.7877 16.2318L13.7894 16.2334C14.4168 16.6675 14.9945 17.1695 15.5114 17.7308L15.8873 18.1588C16.2502 18.5951 16.5778 19.06 16.8672 19.5488C17.6117 20.7586 18.0763 22.1194 18.2295 23.5316H18.2311C18.2907 23.9954 17.9677 24.3077 17.6191 24.3975C17.2716 24.4867 16.8504 24.3813 16.5726 24.0312L16.5335 23.9824L16.514 23.9206C16.1748 22.8101 15.6293 21.7738 14.9059 20.8655L14.8994 20.8574C14.523 20.3561 14.1193 19.8754 13.6901 19.4186C13.2564 18.9581 12.7975 18.5207 12.3164 18.11L12.3131 18.1084C11.1967 17.1277 9.92709 16.3352 8.55499 15.7646V15.763C8.36549 15.6911 8.20708 15.5536 8.11228 15.374C8.0149 15.189 7.99026 14.9739 8.04392 14.7718L8.0488 14.7539H8.05043C8.1159 14.554 8.25725 14.3879 8.44431 14.2917ZM8.95049 14.557C8.83343 14.5202 8.70644 14.5318 8.5973 14.5879C8.48829 14.6439 8.40448 14.74 8.36618 14.8564C8.33386 14.9779 8.34981 15.1082 8.4085 15.2194C8.46722 15.3303 8.56519 15.4152 8.68357 15.457C10.0892 16.0416 11.3891 16.8531 12.5328 17.8577C13.0232 18.2764 13.4905 18.7214 13.9326 19.1907C14.3703 19.6565 14.7825 20.1461 15.1663 20.6572C15.9161 21.5985 16.4815 22.6735 16.833 23.8245C17.2163 24.3076 17.9673 24.0904 17.9007 23.5739C17.7536 22.2089 17.3034 20.8939 16.584 19.7246C16.2092 19.0906 15.7677 18.4973 15.2672 17.957C14.767 17.4137 14.2079 16.9271 13.6006 16.5068C12.197 15.5518 10.6154 14.8888 8.95049 14.557Z" fill="#3F593F"/>
    <path fill-rule="evenodd" clip-rule="evenodd" d="M20.2664 18.1072C19.6864 19.9041 19.4159 21.7864 19.4664 23.6739C19.4664 24.2406 20.4331 24.3739 20.5664 23.5406C20.7264 22.2969 21.0169 21.0735 21.4331 19.8906C21.8555 18.668 22.3622 17.4762 22.9498 16.3239C23.5109 15.1698 24.1513 14.0561 24.8664 12.9906C25.4118 12.1276 26.0307 11.3135 26.7164 10.5572C27.1638 10.0603 27.6736 9.62333 28.2331 9.25724C28.3569 9.18873 28.4483 9.07385 28.4874 8.93789C28.5265 8.80193 28.5099 8.65601 28.4414 8.53224C28.3729 8.40847 28.258 8.31699 28.1221 8.27792C27.9861 8.23885 27.8402 8.25539 27.7164 8.32391C27.0469 8.66326 26.4249 9.08913 25.8664 9.59057C25.048 10.3356 24.2952 11.1497 23.6164 12.0239C22.1445 13.8347 21.0098 15.8952 20.2664 18.1072Z" fill="#3F593F"/>
    <path d="M28.214 7.9577C28.4349 8.02118 28.6218 8.16999 28.7332 8.37111C28.8444 8.57218 28.8715 8.80942 28.808 9.03029C28.7467 9.24344 28.6047 9.42244 28.4142 9.53485L28.4158 9.53647C27.8804 9.88679 27.392 10.3044 26.964 10.78V10.7816C26.2912 11.5236 25.6842 12.3226 25.1492 13.1693L25.1443 13.1758H25.1427C24.4361 14.2285 23.8041 15.3299 23.2498 16.4701L23.2465 16.4749C22.6661 17.6133 22.1664 18.791 21.7491 19.9987L21.7475 20.002C21.3393 21.1624 21.0549 22.3626 20.8979 23.5827L20.8962 23.5925C20.8524 23.8663 20.7336 24.0894 20.5577 24.2435C20.3836 24.3959 20.1711 24.4648 19.9669 24.4649C19.5778 24.4649 19.1398 24.1916 19.1352 23.682L19.1336 23.6836C19.082 21.7585 19.3574 19.8376 19.949 18.0049L19.9506 18.0016C20.7067 15.7518 21.8617 13.6553 23.3588 11.8135C24.048 10.9267 24.8118 10.1005 25.6423 9.34442L25.644 9.34279C26.2242 8.82183 26.8706 8.37861 27.5662 8.02606V8.02768C27.7649 7.92116 27.9969 7.89543 28.214 7.9577ZM28.1228 8.27833C27.9868 8.23926 27.8397 8.25539 27.7159 8.32391C27.0468 8.66314 26.4252 9.08903 25.867 9.59018C25.0485 10.3352 24.2948 11.1493 23.616 12.0235C22.144 13.8342 21.0097 15.8954 20.2664 18.1074C19.6864 19.9042 19.4166 21.7865 19.4672 23.6738C19.4672 24.2405 20.4341 24.3737 20.5675 23.5404C20.7275 22.297 21.0173 21.0739 21.4334 19.8913C21.8557 18.6687 22.3628 17.4759 22.9503 16.3236C23.5113 15.1697 24.1509 14.0556 24.866 12.9902C25.4113 12.1273 26.0309 11.3132 26.7166 10.557C27.1639 10.0601 27.674 9.6226 28.2335 9.25652C28.357 9.18798 28.4484 9.07333 28.4874 8.93751C28.5264 8.80165 28.5103 8.65591 28.4418 8.53224C28.3734 8.40864 28.2585 8.31749 28.1228 8.27833Z" fill="#3F593F"/>
    <path fill-rule="evenodd" clip-rule="evenodd" d="M37.5333 1.15724C37.3723 1.02395 37.1747 0.942597 36.9666 0.923908C36.7633 0.93286 36.5618 0.966439 36.3666 1.02391H35.1333C34.3907 0.948939 33.6425 0.948939 32.8999 1.02391C32.1774 1.1012 31.4597 1.21804 30.7499 1.37391C28.0416 1.97107 25.4509 3.01296 23.0833 4.45724C21.4954 5.47354 20.1292 6.80006 19.0666 8.35724C18.2017 9.6743 17.8848 11.2768 18.1833 12.8239C18.3153 13.4737 18.6069 14.0804 19.0316 14.5895C19.4564 15.0986 20.001 15.4942 20.6166 15.7406C21.0499 15.7406 21.3999 15.2072 21.0666 14.9239C20.5796 14.7306 20.1514 14.4137 19.8241 14.0046C19.4967 13.5955 19.2816 13.1081 19.1999 12.5906C19.0221 11.3503 19.3328 10.0895 20.0666 9.07391C21.3585 7.39324 23.0326 6.04485 24.9499 5.14057C26.889 4.19308 28.9462 3.50924 31.0666 3.10724C31.704 2.96254 32.3497 2.85679 32.9999 2.79057C33.6263 2.73221 34.2568 2.73221 34.8833 2.79057H35.2999C35.0423 3.28907 34.8249 3.80739 34.6499 4.34057C34.4881 4.88776 34.3601 5.44436 34.2666 6.00724C33.8999 8.04057 33.8833 10.1572 33.4833 12.1739C33.3221 12.9883 33.0706 13.7821 32.7333 14.5406C32.4921 15.1014 32.1783 15.6282 31.7999 16.1072C31.454 16.552 31.001 16.9017 30.4833 17.1239C30.2056 17.2421 29.9146 17.3261 29.6166 17.3739C29.3022 17.4292 28.9851 17.4681 28.6666 17.4906C28.3448 17.5153 28.0217 17.5153 27.6999 17.4906C27.3954 17.4731 27.0936 17.4229 26.7999 17.3406C26.4664 17.2587 26.1502 17.1176 25.8666 16.9239C25.3999 16.5906 24.9833 16.1906 24.5333 15.8072C24.4334 15.7085 24.2987 15.6531 24.1583 15.6531C24.0178 15.6531 23.8831 15.7085 23.7833 15.8072C23.7323 15.8555 23.6918 15.9137 23.664 15.9781C23.6363 16.0426 23.622 16.1121 23.622 16.1822C23.622 16.2524 23.6363 16.3219 23.664 16.3863C23.6918 16.4508 23.7323 16.509 23.7833 16.5572C24.2214 16.9996 24.6892 17.4117 25.1833 17.7906C25.5405 18.0837 25.9548 18.2994 26.3999 18.4239C26.7746 18.5362 27.1601 18.6088 27.5499 18.6406C27.9217 18.6655 28.2948 18.6655 28.6666 18.6406C29.1131 18.6201 29.5582 18.5756 29.9999 18.5072L30.8999 18.2572C31.4817 18.028 32.0137 17.6885 32.4666 17.2572C33.0783 16.6191 33.5847 15.8878 33.9666 15.0906C34.3889 14.2371 34.7078 13.3363 34.9166 12.4072C35.3999 10.4072 35.4833 8.27391 35.8999 6.25724C35.9966 5.78974 36.119 5.32793 36.2666 4.87391C36.4155 4.43755 36.5994 4.01394 36.8166 3.60724C36.9333 3.37391 37.3333 2.89057 37.5333 2.54057C37.6622 2.30015 37.7255 2.02994 37.7166 1.75724C37.7181 1.54323 37.6541 1.33388 37.5333 1.15724Z" fill="#3F593F"/>
    <path d="M36.9963 0.591878C37.2025 0.610395 37.4013 0.675094 37.5773 0.78068L37.7466 0.901122L37.7824 0.930419L37.8084 0.969482C37.9649 1.19837 38.0468 1.46879 38.0477 1.74585H38.0493C38.0601 2.07719 37.9831 2.40587 37.8263 2.698L37.8231 2.70614C37.7125 2.89961 37.5508 3.12405 37.4145 3.31323C37.2667 3.51852 37.1583 3.66961 37.1151 3.75594L37.1102 3.76408C36.9015 4.15483 36.7259 4.56228 36.5828 4.98153L36.5812 4.9799C36.438 5.42103 36.3204 5.87011 36.2264 6.3243C36.0212 7.31733 35.8981 8.34053 35.7642 9.38094C35.6312 10.4135 35.4855 11.4606 35.2401 12.4783L35.2417 12.4799C35.0271 13.4348 34.6992 14.3615 34.2651 15.2387C33.8682 16.0661 33.3426 16.8255 32.7075 17.488L32.6961 17.4994C32.2122 17.96 31.6429 18.3223 31.0213 18.5671L31.0067 18.5736L30.9888 18.5785L30.0887 18.8292L30.0708 18.8341L30.0513 18.8373C29.5979 18.9075 29.1407 18.953 28.6825 18.974L28.6808 18.9724C28.2968 18.9978 27.9109 18.9982 27.5269 18.9724H27.5236C27.1121 18.9389 26.705 18.8611 26.3094 18.7429V18.7445C25.8233 18.6085 25.3707 18.3735 24.9797 18.0544C24.4739 17.6665 23.9943 17.2443 23.5457 16.7914V16.7898C23.4662 16.7122 23.4025 16.6201 23.3586 16.518C23.313 16.4121 23.2886 16.298 23.2886 16.1827C23.2886 16.0672 23.3129 15.9519 23.3586 15.8458C23.3813 15.7931 23.4089 15.7429 23.4416 15.696L23.5539 15.5658C23.7155 15.4084 23.932 15.3202 24.1577 15.3201C24.3772 15.3201 24.5867 15.4053 24.7469 15.5544L24.7502 15.5528C25.2184 15.9517 25.6051 16.3267 26.0539 16.6482C26.2417 16.7765 26.4465 16.8789 26.661 16.9526L26.8791 17.0177L26.8905 17.0193C27.1609 17.095 27.4386 17.1416 27.7189 17.1576H27.7254C28.0302 17.181 28.337 17.181 28.6418 17.1576H28.6434C28.95 17.136 29.2553 17.0985 29.5581 17.0453H29.563C29.8341 17.0018 30.0997 16.925 30.3524 16.8175L30.6893 16.6466C31.0153 16.4549 31.3037 16.203 31.5373 15.9028L31.5389 15.9011C31.8992 15.445 32.198 14.9426 32.4276 14.4086L32.4292 14.4054C32.7564 13.6695 33.0004 12.8988 33.1567 12.1088C33.353 11.1193 33.4554 10.1019 33.5555 9.06519C33.6302 8.29164 33.7038 7.50616 33.8143 6.72632L33.938 5.94832C34.0337 5.37341 34.165 4.80476 34.3302 4.24585L34.3335 4.23608C34.4586 3.85486 34.6049 3.48108 34.7713 3.11629C34.1923 3.06717 33.6101 3.0673 33.0314 3.12117L33.033 3.1228C32.3965 3.18765 31.7641 3.29039 31.1401 3.43205L31.1287 3.4353C29.0376 3.83174 27.0091 4.50615 25.0968 5.44051L25.092 5.44214C23.2228 6.32374 21.5908 7.63833 20.3312 9.27677C19.652 10.221 19.3653 11.3918 19.5304 12.5434C19.6037 13.0019 19.7937 13.434 20.0838 13.7966C20.3748 14.1604 20.7561 14.4417 21.189 14.6137L21.241 14.6348L21.2817 14.6707C21.4316 14.7981 21.5162 14.9653 21.5308 15.1443C21.5446 15.3161 21.4929 15.4771 21.4152 15.6082C21.2641 15.8631 20.9669 16.0736 20.616 16.0736H20.5526L20.4923 16.0492C19.8257 15.7823 19.2352 15.3539 18.7752 14.8025C18.3153 14.2511 18.0003 13.5937 17.8573 12.8901L17.8556 12.8868C17.5409 11.2547 17.8759 9.56437 18.7882 8.17489L18.7915 8.17C19.8794 6.57582 21.2773 5.21634 22.9028 4.17586L22.9093 4.17261C25.3084 2.70916 27.9336 1.6527 30.6779 1.04761C31.3993 0.889181 32.1294 0.771378 32.8638 0.692789H32.867C33.6247 0.616331 34.3879 0.616066 35.1457 0.691161H36.3289C36.5325 0.635692 36.7414 0.599538 36.9523 0.59025H36.9735L36.9963 0.591878ZM36.967 0.923909C36.7637 0.932861 36.5616 0.965723 36.3664 1.02319H35.1326C34.3903 0.948292 33.6419 0.948247 32.8996 1.02319C32.1771 1.10049 31.4592 1.21728 30.7495 1.37313C28.0413 1.97029 25.4511 3.01323 23.0835 4.45744C21.4957 5.47373 20.1292 6.80001 19.0666 8.35718C18.2018 9.67405 17.8846 11.2764 18.1828 12.8233C18.3149 13.4731 18.6076 14.0802 19.0324 14.5893C19.457 15.0981 20.0009 15.4936 20.616 15.74C21.0492 15.74 21.3994 15.208 21.0669 14.9246C20.5799 14.7312 20.1507 14.4141 19.8234 14.005C19.4961 13.5958 19.2817 13.1081 19.2 12.5906C19.0222 11.3503 19.3321 10.0889 20.0659 9.07332C21.3579 7.39268 23.0331 6.04529 24.9504 5.14103C26.8894 4.19358 28.9465 3.50851 31.0669 3.10653C31.7042 2.96187 32.3504 2.85697 33.0005 2.79077C33.6267 2.73245 34.2574 2.73242 34.8836 2.79077H35.3003C35.0426 3.28924 34.8242 3.8071 34.6492 4.34025C34.4875 4.88732 34.3603 5.44415 34.2668 6.00692C33.9001 8.04021 33.8839 10.1573 33.4839 12.1739C33.3228 12.9882 33.0708 13.782 32.7336 14.5404C32.4924 15.1013 32.1777 15.6288 31.7993 16.1078C31.4535 16.5522 31.0001 16.9014 30.4826 17.1235C30.2051 17.2416 29.9145 17.3263 29.6167 17.3741C29.3023 17.4294 28.9846 17.4689 28.6662 17.4913C28.3446 17.5159 28.021 17.516 27.6994 17.4913C27.395 17.4738 27.0929 17.4222 26.7993 17.3399C26.466 17.258 26.1501 17.1168 25.8667 16.9233C25.4001 16.59 24.9836 16.19 24.5337 15.8067C24.4339 15.708 24.2981 15.6537 24.1577 15.6537C24.0176 15.6539 23.883 15.7083 23.7834 15.8067C23.7326 15.8548 23.6923 15.9134 23.6645 15.9776C23.6368 16.0421 23.6222 16.1125 23.6222 16.1827C23.6223 16.2527 23.6369 16.3218 23.6645 16.3861C23.6923 16.4506 23.7325 16.5088 23.7834 16.557C24.2215 16.9994 24.689 17.4119 25.1831 17.7908C25.5404 18.0839 25.9555 18.2994 26.4006 18.4239C26.775 18.5361 27.1601 18.6086 27.5496 18.6404C27.9213 18.6653 28.2945 18.6653 28.6662 18.6404C29.1125 18.6199 29.5577 18.5752 29.9992 18.5069L30.8992 18.2579C31.4811 18.0287 32.0138 17.6881 32.4666 17.2569C33.0783 16.6189 33.5854 15.8877 33.9673 15.0906C34.3895 14.2372 34.7074 13.3356 34.9162 12.4067C35.3994 10.4069 35.4827 8.27395 35.8992 6.25757C35.9959 5.79008 36.1195 5.32811 36.2671 4.8741C36.4159 4.43781 36.6001 4.01447 36.8172 3.60783C36.9339 3.37449 37.3334 2.89012 37.5334 2.54012C37.6622 2.2998 37.7262 2.02978 37.7173 1.75724C37.7187 1.54323 37.6542 1.3333 37.5334 1.15666C37.3725 1.02356 37.1749 0.942651 36.967 0.923909Z" fill="#3F593F"/>
    <path fill-rule="evenodd" clip-rule="evenodd" d="M9.19986 25.1739C9.13927 25.176 9.07972 25.1903 9.02479 25.2159C8.96986 25.2416 8.92068 25.2781 8.88021 25.3232C8.83974 25.3684 8.80881 25.4212 8.78927 25.4786C8.76974 25.536 8.762 25.5968 8.76652 25.6572C8.74177 25.7152 8.729 25.7776 8.729 25.8406C8.729 25.9036 8.74177 25.966 8.76652 26.0239C9.01097 27.3017 9.22764 28.585 9.41652 29.8739C9.69986 31.8072 9.91652 33.7572 10.1332 35.6906L10.6165 38.9239V39.7572C10.6538 39.9552 10.7334 40.1428 10.8499 40.3072C10.9973 40.5023 11.2008 40.6477 11.4332 40.7239C11.8171 40.8359 12.2174 40.881 12.6165 40.8572L15.8665 40.9239H19.3499C22.0332 40.7906 24.6999 40.5572 27.3999 40.4072C27.5385 40.395 27.6678 40.3322 27.7631 40.2308C27.8583 40.1293 27.913 39.9964 27.9165 39.8572C27.9144 39.7872 27.8984 39.7183 27.8696 39.6544C27.8408 39.5905 27.7997 39.5329 27.7486 39.4849C27.6975 39.4369 27.6375 39.3995 27.5719 39.3747C27.5064 39.35 27.4366 39.3384 27.3665 39.3406H20.4665C18.9499 39.3406 17.4332 39.3406 15.9165 39.2239H12.5332C12.5332 39.0406 12.3832 38.8072 12.3665 38.7072L11.7832 35.5906C11.4832 33.9239 11.1665 32.3739 10.8332 30.7739C10.4999 29.1739 10.1165 27.5906 9.71652 26.0906C13.3165 26.0906 16.8999 25.9739 20.4832 25.8406L25.2832 25.5906L29.0999 25.4906C29.0999 25.4906 29.4165 25.3906 29.6165 25.3572C29.7127 25.58 29.7745 25.816 29.7999 26.0572C29.8239 26.4791 29.8239 26.902 29.7999 27.3239C29.7947 28.1065 29.7222 28.8871 29.5832 29.6572C29.3999 30.8739 29.0999 32.0739 28.8332 33.2739C28.5665 34.4739 28.5499 36.0572 28.3665 37.4406C28.2944 37.982 28.1602 38.5132 27.9665 39.0239C27.9165 39.1568 27.9199 39.3038 27.9758 39.4342C28.0317 39.5647 28.1359 39.6685 28.2665 39.7239C28.3311 39.7514 28.4004 39.7658 28.4706 39.7664C28.5407 39.767 28.6103 39.7538 28.6753 39.7275C28.7403 39.7011 28.7995 39.6623 28.8495 39.613C28.8995 39.5638 28.9392 39.5052 28.9665 39.4406C29.2316 38.8469 29.4327 38.2268 29.5665 37.5906C29.8165 36.2572 29.8665 34.8239 30.2165 33.5739C30.5665 32.3239 30.9165 31.1406 31.1832 29.9072C31.3663 29.0564 31.4833 28.1928 31.5332 27.3239C31.5829 26.7194 31.5829 26.1118 31.5332 25.5072C31.4559 25.0391 31.2981 24.588 31.0665 24.1739C30.951 23.9627 30.7608 23.8023 30.5332 23.7239C30.0799 23.6594 29.6198 23.6594 29.1665 23.7239H26.7499C26.2165 23.7239 25.661 23.7572 25.0832 23.8239L9.19986 25.1739Z" fill="#3F593F"/>
    <path d="M29.1507 23.3907C29.625 23.3261 30.1058 23.3266 30.5798 23.394L30.6123 23.3988L30.6416 23.4086C30.9466 23.5136 31.2022 23.7283 31.3577 24.0108L31.5303 24.3542C31.6353 24.5873 31.7192 24.8292 31.7826 25.0769L31.8623 25.4529L31.8639 25.4659L31.8656 25.4805C31.9167 26.1029 31.9167 26.7283 31.8656 27.3507C31.8272 28.0128 31.7504 28.672 31.6361 29.3249L31.5091 29.9776C31.2397 31.2235 30.8856 32.4207 30.5374 33.6641C30.3696 34.2638 30.2715 34.9135 30.1842 35.5928C30.0979 36.2649 30.0218 36.9727 29.8945 37.6518L29.8929 37.6599C29.7547 38.3166 29.5459 38.9561 29.2728 39.5691C29.2285 39.674 29.1651 39.7707 29.084 39.8507C29.0029 39.9306 28.9063 39.9934 28.8008 40.0362C28.6951 40.079 28.5811 40.1007 28.4671 40.0997C28.3832 40.0989 28.3012 40.082 28.2214 40.0574C28.1846 40.2065 28.1131 40.3459 28.0065 40.4594C27.8552 40.6205 27.6489 40.7199 27.4287 40.7393L27.4189 40.741V40.7393C24.7489 40.8877 22.0359 41.1243 19.3672 41.2569H15.8597L12.6208 41.1902C12.1886 41.2142 11.7554 41.165 11.3398 41.0437L11.3301 41.0404C11.0333 40.9431 10.773 40.7574 10.5846 40.5082L10.5781 40.5001C10.4341 40.2967 10.3346 40.0646 10.2884 39.8197L10.2835 39.7888V38.9506L9.80339 35.7393L9.80176 35.7279C9.58495 33.7934 9.3696 31.849 9.08724 29.9223C8.89905 28.6382 8.68299 27.359 8.43945 26.086C8.41362 26.0064 8.39551 25.9242 8.39551 25.8402C8.39554 25.7591 8.41203 25.6798 8.4362 25.6026C8.43832 25.5241 8.44827 25.4461 8.47363 25.3715C8.50755 25.2719 8.56135 25.1797 8.63151 25.1013C8.70193 25.0228 8.78822 24.9588 8.88379 24.9141C8.97779 24.8702 9.07963 24.8452 9.18327 24.8409L25.0557 23.4916V23.4932C25.6413 23.426 26.206 23.3907 26.75 23.3907H29.1507ZM30.5326 23.7244C30.0796 23.66 29.6199 23.6599 29.167 23.7244H26.75C26.2167 23.7244 25.6611 23.757 25.0833 23.8236L9.19954 25.1746C9.13936 25.1767 9.07999 25.1898 9.02539 25.2152C8.97063 25.2408 8.92094 25.2777 8.88053 25.3227C8.84006 25.3678 8.80892 25.4215 8.78939 25.4789C8.76992 25.5362 8.76208 25.5976 8.7666 25.658C8.74206 25.7156 8.72921 25.7776 8.72917 25.8402C8.72917 25.9033 8.74184 25.9662 8.7666 26.0242C9.01099 27.3017 9.22716 28.5848 9.41602 29.8734C9.69935 31.8068 9.91712 33.7572 10.1338 35.6905L10.6172 38.9246V39.7579C10.6545 39.9556 10.7336 40.1438 10.8499 40.308C10.9973 40.5027 11.2006 40.6485 11.4326 40.7247C11.8162 40.8367 12.217 40.8802 12.6159 40.8565L15.8662 40.9233H19.3493C22.0324 40.7899 24.6996 40.5573 27.3994 40.4073C27.538 40.3951 27.6687 40.3329 27.764 40.2315C27.8593 40.1301 27.9134 39.9963 27.917 39.8572C27.9148 39.7871 27.8986 39.7176 27.8698 39.6537C27.841 39.5901 27.8003 39.5323 27.7493 39.4844C27.6983 39.4365 27.6375 39.4002 27.5719 39.3754C27.5064 39.3506 27.4369 39.339 27.3669 39.3412H20.4674C18.9508 39.3412 17.4333 39.3407 15.9167 39.224H12.5329C12.5329 39.0407 12.3835 38.8065 12.3669 38.7065L11.7826 35.5912C11.4826 33.9246 11.167 32.3735 10.8337 30.7735C10.5004 29.1738 10.1171 27.5907 9.71712 26.0909C13.317 26.0909 16.9005 25.9736 20.4837 25.8402L25.2835 25.5912L29.1003 25.4903C29.1111 25.4869 29.4197 25.3897 29.6162 25.3568C29.7123 25.5794 29.7747 25.8156 29.8001 26.0567C29.8242 26.4786 29.8242 26.9027 29.8001 27.3246C29.7949 28.1068 29.7226 28.8872 29.5837 29.657C29.4003 30.8735 29.1 32.0736 28.8333 33.2735C28.5667 34.4734 28.5495 36.0569 28.3662 37.4402C28.2941 37.9814 28.161 38.5133 27.9674 39.0238C27.9175 39.1566 27.9198 39.3036 27.9756 39.434C28.0315 39.5645 28.1363 39.6683 28.2669 39.7237C28.3313 39.7511 28.4004 39.7654 28.4704 39.766C28.5405 39.7666 28.6104 39.7533 28.6755 39.727C28.7404 39.7006 28.7997 39.6622 28.8496 39.613C28.8996 39.5638 28.9395 39.5051 28.9668 39.4405C29.2318 38.8469 29.4336 38.2261 29.5674 37.5899C29.8172 36.257 29.867 34.8242 30.2168 33.5746C30.5668 32.3247 30.9169 31.1408 31.1836 29.9076C31.3666 29.057 31.4836 28.1932 31.5335 27.3246C31.5832 26.7201 31.5832 26.1111 31.5335 25.5066C31.4563 25.0387 31.2978 24.5875 31.0664 24.1736C30.9508 23.9626 30.76 23.8027 30.5326 23.7244ZM29.3737 25.7572C29.3242 25.7711 29.2796 25.7836 29.2484 25.793C29.233 25.7977 29.2209 25.8019 29.2126 25.8044C29.2084 25.8057 29.2049 25.807 29.2028 25.8077H29.2012L29.1556 25.8223L29.1084 25.824L25.2998 25.9216L25.3014 25.9232L20.5 26.1739H20.4951C17.054 26.3019 13.6085 26.4109 10.1468 26.4197C10.5084 27.8004 10.8551 29.2454 11.1592 30.7052C11.4925 32.3051 11.8106 33.8588 12.1113 35.5294L12.694 38.6462L12.6956 38.6527C12.6925 38.6338 12.6896 38.6326 12.707 38.6739C12.714 38.6904 12.7215 38.7099 12.7314 38.7325C12.7409 38.754 12.7531 38.7782 12.764 38.8041C12.7742 38.8282 12.7829 38.8583 12.7949 38.8904H15.9297L15.9427 38.892C17.4443 39.0075 18.9488 39.0076 20.4674 39.0076H27.3669C27.452 39.0059 27.5357 39.0203 27.6175 39.0434C27.6268 38.9972 27.6382 38.9513 27.6549 38.9066V38.905C27.8394 38.4184 27.9671 37.912 28.0358 37.3962C28.126 36.7153 28.1749 35.9873 28.236 35.2608C28.2964 34.5423 28.3691 33.8261 28.5078 33.2019C28.777 31.9905 29.0722 30.8095 29.2533 29.6081L29.2549 29.5984C29.3905 28.8471 29.4614 28.0848 29.4665 27.3214V27.3051C29.4896 26.8985 29.4893 26.4909 29.4665 26.0844C29.4541 25.9706 29.4307 25.8589 29.3997 25.7491C29.3909 25.7515 29.3824 25.7548 29.3737 25.7572Z" fill="#3F593F"/>
    <path fill-rule="evenodd" clip-rule="evenodd" d="M14.5663 21.3239C14.6698 21.2379 14.7369 21.116 14.7543 20.9826C14.7717 20.8492 14.738 20.7142 14.66 20.6045C14.582 20.4949 14.4655 20.4188 14.3337 20.3915C14.202 20.3642 14.0648 20.3877 13.9497 20.4572C12.8267 21.1631 11.5047 21.4848 10.183 21.3739C8.88464 21.3024 7.64463 20.8111 6.64967 19.9739C6.21485 19.5733 5.8389 19.1132 5.53301 18.6072C5.01634 17.7906 4.63301 16.9406 4.18301 16.0239C3.73301 15.1072 3.08301 14.5906 2.61634 13.8072C2.58283 13.7431 2.55494 13.6762 2.53301 13.6072C2.71634 13.4406 2.91634 13.1572 2.94967 13.1406C3.43447 12.7014 4.00072 12.3617 4.61634 12.1406C5.24735 11.8916 5.90017 11.7019 6.56634 11.5739C7.11762 11.4719 7.67398 11.3996 8.23301 11.3572C8.7876 11.3109 9.34509 11.3109 9.89967 11.3572C10.7891 11.4192 11.6707 11.5643 12.533 11.7906C13.3774 12.022 14.1812 12.3818 14.9163 12.8572C15.0201 12.9102 15.1394 12.9238 15.2525 12.8957C15.3655 12.8677 15.4646 12.7997 15.5315 12.7044C15.5984 12.6091 15.6287 12.4928 15.6167 12.377C15.6047 12.2611 15.5513 12.1535 15.4663 12.0739C14.6709 11.5025 13.7946 11.0531 12.8663 10.7406C11.9571 10.4195 11.0196 10.1852 10.0663 10.0406C9.44864 9.94489 8.82473 9.89475 8.19967 9.89058C7.55857 9.89351 6.91834 9.93804 6.28301 10.0239C5.48243 10.0955 4.6934 10.2634 3.93301 10.5239C3.13707 10.8083 2.39785 11.2315 1.74967 11.7739C1.74967 11.7739 1.06634 12.2906 0.866341 12.5906C0.688568 12.7875 0.587944 13.042 0.583008 13.3072C0.624321 13.8458 0.795912 14.3663 1.08301 14.8239C1.54967 15.5739 2.31634 16.3072 2.64967 16.9239C3.14967 17.8239 3.59967 18.7572 4.16634 19.5906C4.57774 20.2199 5.08368 20.7821 5.66634 21.2572C6.95503 22.2269 8.52035 22.7584 10.133 22.7739C11.7302 22.7921 13.2886 22.2824 14.5663 21.3239Z" fill="#3F593F"/>
    <path d="M8.20199 9.55692C8.84338 9.5612 9.48382 9.61335 10.1177 9.71154C11.0896 9.85902 12.0455 10.0974 12.9725 10.4244C13.8123 10.7072 14.6112 11.0989 15.3488 11.5882L15.6613 11.803L15.6792 11.816L15.6938 11.8307C15.8375 11.9652 15.9275 12.1476 15.9478 12.3434C15.9678 12.5389 15.9175 12.7359 15.8045 12.8968C15.6915 13.0575 15.5233 13.1716 15.3325 13.219C15.1417 13.2663 14.9397 13.2433 14.7645 13.1539L14.7352 13.1376C14.0287 12.6807 13.2566 12.3347 12.4451 12.1123V12.1106C11.6042 11.8902 10.7441 11.7495 9.87679 11.6891H9.87191C9.33586 11.6443 8.79662 11.6443 8.26058 11.6891H8.25895C7.7118 11.7306 7.16603 11.8025 6.62646 11.9023L6.62484 11.9007C5.98046 12.0247 5.34887 12.2099 4.73844 12.4508L4.72868 12.4541C4.15426 12.6604 3.62669 12.9785 3.17432 13.3883L3.16781 13.3916C3.16425 13.3956 3.16024 13.4026 3.15316 13.4111C3.12707 13.4423 3.09857 13.4775 3.0555 13.5299C3.01959 13.5736 2.97534 13.6237 2.92855 13.6764C3.14119 14.024 3.38967 14.3177 3.66423 14.6562C3.94472 15.0021 4.2407 15.3835 4.48291 15.8769C4.93924 16.8065 5.31027 17.6323 5.81429 18.429L5.81917 18.4355C6.10598 18.9097 6.45755 19.3415 6.86409 19.718C7.80357 20.5086 8.97474 20.9736 10.2007 21.0413H10.2104C11.4599 21.1461 12.71 20.8425 13.7716 20.1754L13.7782 20.1722C13.9652 20.0593 14.1877 20.0204 14.4015 20.0647C14.6156 20.1091 14.8054 20.2333 14.9321 20.4114C15.0586 20.5893 15.1131 20.8085 15.0851 21.025C15.0569 21.2418 14.9473 21.4403 14.7791 21.58L14.7661 21.5914L14.7645 21.5898C13.4286 22.5916 11.8004 23.1255 10.1307 23.1067C8.44684 23.0905 6.81157 22.5355 5.46598 21.5231L5.45622 21.5166L5.66618 21.2578L5.45622 21.5149C4.84709 21.0181 4.31731 20.4313 3.88721 19.7734V19.7718C3.3114 18.9237 2.84473 17.9608 2.35889 17.0862L2.35726 17.083C2.20906 16.8088 1.95649 16.4969 1.65902 16.1357C1.37156 15.7866 1.04701 15.3972 0.799642 14.9996C0.48447 14.4967 0.29657 13.9247 0.251139 13.333L0.249512 13.3167V13.3004C0.255785 12.971 0.37786 12.6563 0.589681 12.4052L0.706868 12.2539C0.842932 12.0987 1.02425 11.9379 1.16748 11.816C1.26906 11.7296 1.36347 11.6527 1.43278 11.5979C1.46726 11.5707 1.49581 11.5482 1.51579 11.5328L1.5402 11.5149C2.2175 10.949 2.98928 10.5066 3.82048 10.2096L3.82536 10.208C4.60637 9.94042 5.41696 9.76998 6.23909 9.69526V9.69363C6.88854 9.60589 7.54339 9.55991 8.19873 9.55692H8.20199ZM8.20036 9.89057C7.55926 9.89351 6.91837 9.93817 6.28304 10.024C5.48251 10.0957 4.69313 10.2632 3.93278 10.5237C3.13707 10.808 2.39819 11.2315 1.75016 11.7737C1.75016 11.7737 1.06637 12.2908 0.866374 12.5908C0.68877 12.7876 0.588181 13.0419 0.583171 13.3069C0.624478 13.8454 0.795822 14.3663 1.08285 14.8238C1.54946 15.5738 2.31684 16.3068 2.65023 16.9235C3.15023 17.8235 3.60049 18.7578 4.16715 19.5911C4.57847 20.2202 5.08372 20.7827 5.66618 21.2578C6.95486 22.2274 8.52131 22.7592 10.134 22.7747C11.7306 22.7927 13.2885 22.2825 14.5659 21.3245C14.6694 21.2385 14.7373 21.1161 14.7547 20.9827C14.7721 20.8495 14.7381 20.7146 14.6603 20.6051C14.5823 20.4955 14.4649 20.4192 14.3332 20.3919C14.2016 20.3648 14.064 20.3875 13.9491 20.457C12.8262 21.1627 11.5043 21.4842 10.1828 21.3733C8.88457 21.3018 7.6441 20.8107 6.64925 19.9736C6.21473 19.5732 5.83845 19.1136 5.53271 18.608C5.01605 17.7914 4.63343 16.9401 4.18343 16.0234C3.73344 15.1069 3.08266 14.5898 2.61605 13.8066C2.58281 13.7429 2.55486 13.6765 2.53304 13.608C2.71594 13.4417 2.91567 13.1588 2.94971 13.1409C3.4345 12.7018 4.00075 12.361 4.61637 12.1399C5.2473 11.891 5.90017 11.7015 6.56624 11.5735C7.11745 11.4716 7.67396 11.3994 8.23291 11.357C8.78741 11.3107 9.34508 11.3107 9.89958 11.357C10.7889 11.419 11.6708 11.5637 12.533 11.79C13.3773 12.0214 14.1808 12.3823 14.9159 12.8577C15.0196 12.9106 15.1397 12.9232 15.2528 12.8951C15.3655 12.8671 15.4642 12.7997 15.5311 12.7047C15.5979 12.6096 15.6292 12.4932 15.6173 12.3776C15.6054 12.2617 15.551 12.1528 15.466 12.0732C14.6708 11.502 13.7946 11.0526 12.8667 10.7402C11.9577 10.4192 11.0203 10.1849 10.0672 10.0403C9.44969 9.94465 8.82524 9.89477 8.20036 9.89057Z" fill="#3F593F"/>
</svg>