<svg xmlns="http://www.w3.org/2000/svg" width="40" height="40" viewBox="0 0 40 40" fill="none">
    <path d="M8.57597 20.5653C6.64264 16.9986 6.35932 12.2819 11.426 10.3319C13.076 9.69859 15.1093 10.2319 16.476 11.4486C17.8426 12.6486 18.8926 13.7486 20.0093 15.2319C20.126 13.2153 19.876 11.5653 20.4093 9.63193C20.9427 7.69859 21.2927 6.53192 22.8593 5.43192C24.6093 4.19859 26.976 4.01526 28.926 4.98192C30.876 5.94859 32.326 7.99859 32.6426 10.2486C32.876 11.9319 32.5093 13.6319 32.1426 15.2819C31.0426 20.3653 27.576 34.4486 27.4927 34.3986C27.3093 34.2986 26.9593 35.2986 26.2427 34.9486C22.5093 33.0819 12.076 27.0819 8.55932 20.5986L8.57597 20.5653Z" fill="#FF5500"/>
</svg>