<svg xmlns="http://www.w3.org/2000/svg" viewBox="0 0 102 58" fill="none" preserveAspectRatio="none">>
    <path d="M3.27246 12.1318C1.07964 18.0523 1.01405 26.0865 2.25391 34.7109C3.04419 40.2081 4.00526 44.2851 5.5459 47.3281C7.07357 50.3455 9.17629 52.3561 12.2959 53.7148C15.4417 55.0849 19.6384 55.7989 25.3623 56.1641C31.0812 56.5289 38.2724 56.5439 47.3867 56.5439C57.5019 56.5439 69.76 57.4847 80.0332 56.3018C85.1599 55.7114 89.7313 54.5965 93.248 52.6025C96.7473 50.6184 99.1997 47.768 100.134 43.668C101.656 36.9874 101.667 29.1355 100.59 22.3047C100.052 18.8912 99.243 15.7456 98.2236 13.1387C97.2008 10.5228 95.9806 8.4883 94.6416 7.25683C90.5433 3.48783 84.7603 1.52062 73.1318 0.859372C61.503 0.19813 44.1396 0.846366 16.9756 2.20898L16.9678 2.20898C13.3105 2.34048 10.4365 3.36646 8.20996 5.06836C5.98093 6.77231 4.36563 9.1804 3.27246 12.1318Z" fill="#3F593F" stroke="#3F593F"/>
</svg>