<svg xmlns="http://www.w3.org/2000/svg" viewBox="0 0 118 64" fill="none" preserveAspectRatio="none">
    <path d="M54.7468 61.2267C15.7617 61.2267 8.2992 60.9998 4.69101 40.2468C4.63282 39.9121 4.5755 39.5721 4.51919 39.2266L4.51515 39.201L4.35294 38.1737C1.60536 20.2543 4.58601 4.4834 21.1311 3.92585C81.1164 1.10459 97.97 1.23412 107.312 9.28971C107.403 9.36812 107.493 9.44939 107.584 9.53347C111.552 13.2309 114.849 22.3683 115.408 32.0229C115.494 33.5056 115.515 35.0004 115.465 36.4897C115.426 37.6371 115.344 38.7812 115.215 39.9137C114.946 42.2999 114.471 44.635 113.759 46.8429L113.542 47.4902C108.722 61.3473 80.3728 61.2825 58.5273 61.2326H58.5248H58.5224C57.2393 61.2296 55.9788 61.2267 54.7468 61.2267ZM54.7465 63.2266C65.7338 63.2266 79.4392 63.4683 90.9986 61.8291C102.411 60.2109 112.984 56.5794 115.959 48.0245C118.469 40.8092 118.454 32.3103 117.048 24.9668C116.342 21.2821 115.277 17.834 113.962 14.9297C112.665 12.0666 111.054 9.57032 109.154 7.93168C103.835 3.34493 96.4969 1.23258 83.3803 0.533249C70.3104 -0.163587 50.9268 0.521413 20.9832 1.92974C16.3307 2.0932 12.4874 3.33974 9.46623 5.50493C6.47345 7.64976 4.43917 10.5847 3.11433 13.9385C0.482758 20.6005 0.474593 29.3635 1.86257 38.4161C3.60198 49.7604 6.20662 56.5956 14.6276 60.0342C18.6495 61.6765 23.7718 62.4427 30.1999 62.8272C36.651 63.2131 44.7165 63.2266 54.7465 63.2266Z" fill="#2F4027"/>
    <path fill-rule="evenodd" clip-rule="evenodd" d="M107.584 9.53347C107.493 9.44939 107.403 9.36812 107.312 9.28971L107.584 9.53347ZM113.542 47.4902C114.375 45.0936 114.919 42.5345 115.215 39.9137C115.344 38.7812 115.426 37.6371 115.465 36.4897C115.515 35.0004 115.494 33.5056 115.408 32.0229C114.85 22.3849 111.564 13.2625 107.605 9.5527C112.642 14.2732 116.59 27.756 115.215 39.9137C114.946 42.2999 114.471 44.635 113.759 46.8429L113.542 47.4902ZM54.7468 61.2267C55.9788 61.2267 57.2393 61.2296 58.5224 61.2326H58.5248H58.5273C57.2426 61.2296 55.9804 61.2267 54.7468 61.2267ZM4.51515 39.201L4.35294 38.1737C4.46224 38.8866 4.57462 39.5774 4.69101 40.2468M54.7468 59.7267C44.6636 59.7267 36.7806 59.7111 30.5285 59.3371C24.259 58.9621 19.8511 58.2352 16.628 56.9191C10.4649 54.4023 7.97653 49.4426 6.22071 37.9913C4.8577 29.1015 4.95383 20.9342 7.30223 14.9893C8.46966 12.0341 10.1605 9.71427 12.4011 8.10837C14.6139 6.52253 17.4763 5.55062 21.2113 5.42476L21.226 5.42378L21.2419 5.42281C51.2714 4.01044 70.3515 3.34628 83.0878 4.02534C95.7886 4.70252 101.746 6.69918 105.931 10.3076C107.249 11.444 108.616 13.4318 109.833 16.1182C111.036 18.7735 112.039 21.9956 112.709 25.4951C114.053 32.5141 114.025 40.4874 111.729 47.089C109.495 53.5108 101.419 56.7974 90.2298 58.384C80.379 59.7807 68.8417 59.7552 58.5362 59.7324C57.2521 59.7295 55.987 59.7267 54.7468 59.7267Z" fill="#2F4027"/>
</svg>