<svg xmlns="http://www.w3.org/2000/svg" width="28" height="27" viewBox="0 0 28 27" fill="none">
    <path d="M22.0609 11.8768C20.4563 11.0554 18.6854 10.4973 16.8833 10.364C16.0318 10.3011 15.1589 10.3551 14.3369 10.5957C13.9513 10.7086 13.578 10.8688 13.2286 11.0705C13.1733 11.0621 13.1161 11.0715 13.0688 11.1044C12.72 11.3474 12.3788 11.5911 12.0686 11.8833C11.8055 12.1312 11.5749 12.4057 11.3605 12.6963C10.8811 13.3467 10.5075 14.0545 10.2713 14.8292C10.0169 15.6632 9.89345 16.5405 9.82567 17.4087C9.75803 18.2755 9.76522 19.1481 9.84686 20.014C9.8898 20.4671 9.95134 20.9188 10.0345 21.3664C10.1198 21.8255 10.231 22.281 10.4099 22.7135C10.7155 23.4527 11.22 24.0664 11.8998 24.4917C12.5125 24.8751 13.2483 25.0898 13.9702 25.095C14.7327 25.1005 15.4554 24.8496 16.0745 24.4105C16.7365 23.9408 17.2622 23.3205 17.7883 22.7097C18.0496 22.4066 18.3125 22.104 18.5969 21.822C18.8811 21.5398 19.1444 21.3131 19.4757 21.1081C20.2386 20.6363 21.1385 20.5604 21.9969 20.3727C22.92 20.1708 23.8484 19.8779 24.6408 19.3495C25.2892 18.9173 25.8372 18.3211 26.1494 17.6009C26.4607 16.8824 26.5376 16.0692 26.243 15.3296C25.8968 14.461 25.1938 13.8264 24.4449 13.2993C23.6904 12.7682 22.8817 12.2968 22.0609 11.8768Z" fill="#B1CFB0"/>
    <path d="M8.07407 6.88239C6.27601 5.53141 4.00839 5.55007 3.00921 6.92396C2.01002 8.29812 2.65788 10.5073 4.45593 11.8582C6.25399 13.2092 8.52161 13.1906 9.52079 11.8167C10.52 10.4425 9.87238 8.23336 8.07407 6.88239Z" fill="#B1CFB0"/>
    <path d="M13.9499 8.55611C15.4327 7.75558 15.7803 5.47896 14.7262 3.47141C13.6723 1.46357 11.616 0.485036 10.1332 1.28556C8.65044 2.08609 8.3028 4.36271 9.35694 6.37026C10.4108 8.37784 12.4673 9.35635 13.9501 8.55582L13.9499 8.55611Z" fill="#B1CFB0"/>
    <path d="M4.68358 13.7194C2.72533 13.2279 0.893454 14.052 0.592205 15.56C0.290956 17.0679 1.63412 18.6889 3.59263 19.1803C5.55088 19.6718 7.38275 18.8477 7.684 17.3397C7.98525 15.8318 6.64209 14.2108 4.68358 13.7194Z" fill="#B1CFB0"/>
    <path d="M20.3935 8.72443C21.884 8.45973 22.7361 6.62188 22.2965 4.61917C21.857 2.61645 20.2925 1.20754 18.8019 1.47197C17.3113 1.73666 16.4593 3.57452 16.8988 5.57723C17.3384 7.57994 18.9028 8.98886 20.3935 8.72443Z" fill="#B1CFB0"/>
</svg>