<svg xmlns="http://www.w3.org/2000/svg" width="41" height="42" viewBox="0 0 41 42" fill="none">
    <path fill-rule="evenodd" clip-rule="evenodd" d="M31.8333 8.12585C30.5462 6.11424 28.8145 4.42497 26.7716 3.18823C24.7286 1.95148 22.429 1.20029 20.05 0.992519C17.4374 0.86245 14.833 1.37761 12.4666 2.49252C10.1018 3.6297 8.06559 5.35045 6.54997 7.49252C4.39736 10.5577 3.28187 14.2312 3.36664 17.9759C3.37784 21.7161 4.84896 25.3042 7.46664 27.9759C8.21677 28.7024 9.05695 29.3297 9.96664 29.8425C10.7414 30.2764 11.543 30.6605 12.3666 30.9925C12.3666 30.9925 13.0833 31.8425 13.3666 32.2759C13.65 32.7092 14.15 33.6259 14.5166 34.3092L16.8 38.2925L17.9666 40.1425C17.9666 40.1425 18.2 40.5425 18.3 40.6592C18.4818 40.8703 18.739 41.0019 19.0166 41.0259C19.378 41.0199 19.7325 40.9257 20.0491 40.7514C20.3658 40.5771 20.635 40.328 20.8333 40.0259C21.4233 39.1782 21.9049 38.2599 22.2666 37.2925L23.3 34.4592L24.5833 30.6759C25.4609 30.2691 26.3175 29.8185 27.15 29.3259C28.0274 28.7551 28.8528 28.1082 29.6166 27.3925C30.4669 26.6071 31.2272 25.7295 31.8833 24.7759C32.5619 23.8254 33.1216 22.7956 33.55 21.7092C34.3989 19.4778 34.6863 17.0719 34.387 14.7033C34.0876 12.3347 33.2107 10.0759 31.8333 8.12585ZM32.15 21.1259C31.796 22.1144 31.3201 23.055 30.7333 23.9259C30.1476 24.8101 29.4718 25.6311 28.7166 26.3759C28.0225 27.0575 27.2696 27.6766 26.4666 28.2259C24.3 29.6759 24.05 28.8592 23.7 29.8925L21.7833 33.9425L20.6 36.5092C20.4 36.9092 20.05 37.6759 19.65 38.3425C19.65 38.4259 19.5166 38.5592 19.4333 38.6925L18.4666 37.2425L15.8 33.5092C15.3333 32.8592 14.8833 32.1592 14.3666 31.5259C12.4333 29.1425 13.6833 30.7759 10.5833 28.8759C9.7724 28.39 9.02739 27.8019 8.36664 27.1259C6.09818 24.6113 4.90203 21.3099 5.03331 17.9259C5.02833 14.5615 6.07745 11.28 8.03331 8.54252C9.40683 6.71691 11.2181 5.26674 13.3 4.32585C15.3832 3.35758 17.6728 2.91684 19.9666 3.04252C22.0499 3.21538 24.0667 3.85867 25.8652 4.92395C27.6638 5.98923 29.1972 7.44873 30.35 9.19252C31.5911 10.8885 32.4031 12.8599 32.7165 14.938C33.03 17.0161 32.8356 19.1392 32.15 21.1259Z" fill="#2F4027"/>
    <path d="M12.3254 2.19026C14.7409 1.05236 17.3994 0.527582 20.0662 0.660307H20.0793L20.5334 0.707508C22.8013 0.971266 24.9883 1.7189 26.9445 2.90315C29.0268 4.16375 30.7919 5.88503 32.1056 7.93407L32.3644 8.31167C33.6246 10.2177 34.4309 12.39 34.7179 14.661C35.0241 17.0836 34.73 19.5449 33.8618 21.8273L33.8602 21.8322C33.4218 22.9436 32.8487 23.9978 32.1545 24.9702C31.4851 25.9422 30.7102 26.8371 29.8433 27.6378C29.0656 28.3662 28.225 29.0246 27.3319 29.6056L27.3205 29.6138L27.3188 29.6121C26.5184 30.0858 25.6949 30.5189 24.853 30.9142L23.616 34.5666L23.6128 34.5731L22.5793 37.4067V37.41C22.2088 38.4006 21.7132 39.3394 21.1095 40.2078L21.1112 40.2095C20.8831 40.5567 20.5734 40.8425 20.2095 41.0428C19.8452 41.2433 19.437 41.3517 19.0213 41.3586L19.005 41.3602L18.9888 41.3586C18.6246 41.3272 18.2866 41.1537 18.048 40.8768C17.9778 40.7948 17.879 40.6401 17.812 40.5317C17.7755 40.4727 17.7416 40.4173 17.7176 40.3771C17.7057 40.3572 17.6967 40.3398 17.6899 40.3283C17.6867 40.3227 17.6836 40.3183 17.6818 40.3153L17.6785 40.3087L16.5181 38.4696L16.5099 38.4582L14.228 34.4754L14.2231 34.4673C13.854 33.7794 13.3607 32.8774 13.0871 32.4588C12.9556 32.2578 12.7164 31.9483 12.5011 31.6808C12.3952 31.5492 12.2969 31.4311 12.2261 31.3455C12.2012 31.3155 12.1801 31.2884 12.1626 31.2674C11.3541 30.9376 10.5661 30.5596 9.8042 30.133C8.86979 29.6062 8.00474 28.9619 7.23421 28.2156L7.2277 28.2091C4.5514 25.477 3.04639 21.8073 3.03337 17.9829L3.03174 17.2684C3.09358 13.7018 4.22088 10.229 6.27718 7.30093C7.7287 5.2495 9.64817 3.57483 11.8729 2.41649L12.3254 2.19026ZM20.05 0.992519C17.4374 0.86245 14.833 1.37761 12.4666 2.49252C10.1018 3.6297 8.06559 5.35045 6.54997 7.49252C4.39736 10.5577 3.28187 14.2312 3.36664 17.9759C3.37784 21.7161 4.84896 25.3042 7.46664 27.9759C8.21677 28.7024 9.05695 29.3297 9.96664 29.8425C10.7414 30.2764 11.543 30.6605 12.3666 30.9925C12.3666 30.9925 13.0833 31.8425 13.3666 32.2759C13.65 32.7092 14.15 33.6259 14.5166 34.3092L16.8 38.2925L17.9666 40.1425C17.9718 40.1514 18.201 40.5437 18.3 40.6592C18.4818 40.8703 18.739 41.0019 19.0166 41.0259C19.378 41.0199 19.7325 40.9257 20.0491 40.7514C20.3658 40.5771 20.635 40.328 20.8333 40.0259C21.4233 39.1782 21.9049 38.2599 22.2666 37.2925L23.3 34.4592L24.5833 30.6759C25.4609 30.2691 26.3175 29.8185 27.15 29.3259C28.0274 28.7551 28.8528 28.1082 29.6166 27.3925C30.4669 26.6071 31.2272 25.7295 31.8833 24.7759C32.5619 23.8254 33.1216 22.7956 33.55 21.7092C34.3989 19.4778 34.6863 17.0719 34.387 14.7033C34.0876 12.3347 33.2107 10.0759 31.8333 8.12585C30.5462 6.11424 28.8145 4.42497 26.7716 3.18823C24.7286 1.95148 22.429 1.20029 20.05 0.992519ZM13.3 4.32585C15.3832 3.35758 17.6728 2.91684 19.9666 3.04252C22.0499 3.21538 24.0667 3.85867 25.8652 4.92395C27.6638 5.98923 29.1972 7.44873 30.35 9.19252C31.5911 10.8885 32.4031 12.8599 32.7165 14.938C33.03 17.0161 32.8356 19.1392 32.15 21.1259C31.796 22.1144 31.3201 23.055 30.7333 23.9259C30.1476 24.8101 29.4718 25.6311 28.7166 26.3759C28.0225 27.0575 27.2696 27.6766 26.4666 28.2259C24.3 29.6759 24.05 28.8592 23.7 29.8925L21.7833 33.9425L20.6 36.5092C20.4 36.9092 20.05 37.6759 19.65 38.3425C19.65 38.4259 19.5166 38.5592 19.4333 38.6925L18.4666 37.2425L15.8 33.5092C15.3333 32.8592 14.8833 32.1592 14.3666 31.5259C12.4333 29.1425 13.6833 30.7759 10.5833 28.8759C9.7724 28.39 9.02739 27.8019 8.36664 27.1259C6.09818 24.6113 4.90203 21.3099 5.03331 17.9259C5.02833 14.5615 6.07745 11.28 8.03331 8.54252C9.40683 6.71691 11.2181 5.26674 13.3 4.32585ZM19.9393 3.37352C17.7031 3.25252 15.4712 3.68448 13.4403 4.62841L13.437 4.63003C11.4064 5.54782 9.64005 6.96235 8.30029 8.74299C6.38789 11.4225 5.36248 14.6338 5.36735 17.9259V17.939C5.23956 21.2345 6.40304 24.4494 8.61117 26.8989C9.09017 27.3882 9.61422 27.8306 10.1769 28.2189L10.7547 28.59L10.758 28.5916C11.5235 29.0608 12.0125 29.3076 12.3433 29.451C12.5078 29.5223 12.6356 29.5686 12.742 29.6056C12.8418 29.6403 12.9478 29.6742 13.0366 29.7098C13.2493 29.7951 13.4088 29.9064 13.6356 30.1427C13.8503 30.3666 14.1445 30.7241 14.6235 31.3146C14.8861 31.6365 15.1361 31.9795 15.3755 32.3205L16.0705 33.3149L18.7381 37.0487L18.7446 37.0568L19.4201 38.0708C19.7865 37.4437 20.105 36.7546 20.3022 36.3602L21.4806 33.8032L21.4823 33.8L23.3979 29.7505C23.4877 29.494 23.589 29.2914 23.7576 29.1466C23.9291 28.9995 24.1357 28.9438 24.311 28.8944C24.6665 28.7942 25.2355 28.6479 26.2804 27.9487C27.0661 27.4111 27.8033 26.8058 28.4826 26.1388L29.0213 25.5789C29.546 25.0049 30.0254 24.3903 30.4552 23.7414L30.4569 23.7397C30.8853 23.1039 31.253 22.4297 31.5555 21.7264L31.8354 21.0135C32.5025 19.0788 32.6924 17.0117 32.3872 14.9881C32.0818 12.9632 31.2902 11.0417 30.0809 9.38915L30.0711 9.37613C28.9464 7.67486 27.4508 6.25053 25.6961 5.21109C23.941 4.17155 21.9722 3.54224 19.9393 3.37352Z" fill="#2F4027"/>
    <path fill-rule="evenodd" clip-rule="evenodd" d="M23.6666 10.7925C22.8114 10.2045 21.829 9.82749 20.8 9.69252C15.4666 8.95918 14.6833 10.0759 14.1333 10.4592C12.841 11.5117 11.8755 12.9108 11.35 14.4925C10.7252 16.3138 10.6499 18.2787 11.1333 20.1425C11.4117 21.1223 11.9176 22.0225 12.6098 22.7698C13.302 23.517 14.1609 24.0901 15.1166 24.4425C15.5484 24.6108 15.9947 24.7391 16.45 24.8259C16.9043 24.926 17.3681 24.9763 17.8333 24.9759C19.0517 25.0143 20.2694 24.8796 21.45 24.5759C22.2945 24.3545 23.0872 23.9694 23.7833 23.4425C24.722 22.6603 25.4741 21.6782 25.9845 20.568C26.4949 19.4579 26.7507 18.2476 26.7333 17.0259C26.7613 15.8168 26.4971 14.6188 25.9633 13.5337C25.4294 12.4485 24.6416 11.5082 23.6666 10.7925ZM22.6 21.8925C21.9517 22.3463 21.2123 22.6534 20.4333 22.7925C19.5877 22.9541 18.7274 23.0267 17.8666 23.0092C17.5143 22.995 17.1635 22.956 16.8166 22.8925C16.477 22.8292 16.1427 22.74 15.8166 22.6259C15.1085 22.3952 14.464 22.0023 13.9345 21.4786C13.405 20.9549 13.0051 20.3147 12.7666 19.6092C12.3124 18.0698 12.3124 16.4319 12.7666 14.8925C13.0843 13.7678 13.6543 12.7304 14.4333 11.8592C15.7 10.4759 20.4833 10.9925 20.6 10.9925C21.4084 11.1334 22.1696 11.4711 22.8166 11.9759C23.5519 12.5756 24.1336 13.3421 24.5133 14.2117C24.893 15.0813 25.0598 16.0289 25 16.9759C24.9941 17.9229 24.7753 18.8565 24.3599 19.7075C23.9445 20.5586 23.343 21.3053 22.6 21.8925Z" fill="#2F4027"/>
    <path d="M15.591 9.33453C16.5816 9.0841 18.1594 8.99298 20.8449 9.3622L20.8433 9.36383C21.7893 9.48794 22.6982 9.80477 23.5125 10.2964L23.856 10.5178L23.8641 10.5243C24.8821 11.2717 25.7041 12.2541 26.2615 13.3873C26.8173 14.5169 27.0944 15.7632 27.0672 17.0217L27.0607 17.497C27.0147 18.6054 26.7522 19.6958 26.2876 20.7066C25.7564 21.8619 24.9728 22.8842 23.9959 23.6981L23.9845 23.7079C23.2538 24.261 22.4215 24.6652 21.535 24.8977L21.5334 24.8993C20.3223 25.2109 19.0724 25.3489 17.8224 25.3095C17.3369 25.3091 16.8529 25.2561 16.3787 25.1516C15.9087 25.0614 15.4479 24.9279 15.0018 24.7545C13.9969 24.3839 13.0929 23.7824 12.3651 22.9966C11.6372 22.2109 11.1051 21.2633 10.8123 20.233L10.8107 20.2265C10.311 18.3001 10.3884 16.2691 11.0337 14.3866L11.2599 13.7811C11.8355 12.3883 12.7489 11.1564 13.9227 10.2004L13.9324 10.1923L13.9422 10.1858C14.1831 10.0179 14.5841 9.58914 15.591 9.33453ZM20.8 9.69252C15.4666 8.95918 14.6833 10.0759 14.1333 10.4592C12.841 11.5117 11.8755 12.9108 11.35 14.4925C10.7252 16.3138 10.6499 18.2787 11.1333 20.1425C11.4117 21.1223 11.9176 22.0225 12.6098 22.7698C13.302 23.517 14.1609 24.0901 15.1166 24.4425C15.5484 24.6108 15.9947 24.7391 16.45 24.8259C16.9043 24.926 17.3681 24.9763 17.8333 24.9759C19.0517 25.0143 20.2694 24.8796 21.45 24.5759C22.2945 24.3545 23.0872 23.9694 23.7833 23.4425C24.722 22.6603 25.4741 21.6782 25.9845 20.568C26.4949 19.4579 26.7507 18.2476 26.7333 17.0259C26.7613 15.8168 26.4971 14.6188 25.9633 13.5337C25.4294 12.4485 24.6416 11.5082 23.6666 10.7925C22.8114 10.2045 21.829 9.82749 20.8 9.69252ZM14.4333 11.8592C15.7 10.4759 20.4833 10.9925 20.6 10.9925C21.4084 11.1334 22.1696 11.4711 22.8166 11.9759C23.5519 12.5756 24.1336 13.3421 24.5133 14.2117C24.893 15.0813 25.0598 16.0289 25 16.9759C24.9941 17.9229 24.7753 18.8565 24.3599 19.7075C23.9445 20.5586 23.343 21.3053 22.6 21.8925C21.9517 22.3463 21.2123 22.6534 20.4333 22.7925C19.5877 22.9541 18.7274 23.0267 17.8666 23.0092C17.5143 22.995 17.1635 22.956 16.8166 22.8925C16.477 22.8292 16.1427 22.74 15.8166 22.6259C15.1085 22.3952 14.464 22.0023 13.9345 21.4786C13.405 20.9549 13.0051 20.3147 12.7666 19.6092C12.3124 18.0698 12.3124 16.4319 12.7666 14.8925C13.0843 13.7678 13.6543 12.7304 14.4333 11.8592ZM17.9591 11.2405C17.2855 11.262 16.5882 11.3259 15.9897 11.4651C15.3807 11.6067 14.9265 11.8142 14.6795 12.0836C13.9356 12.9163 13.3913 13.9077 13.0877 14.9823L13.0861 14.9872C12.6514 16.4607 12.6505 18.0281 13.0828 19.5022L13.1724 19.7463C13.3989 20.3065 13.7375 20.8159 14.1685 21.2421C14.661 21.7292 15.2611 22.0936 15.9198 22.3082L15.9263 22.3114C16.2364 22.42 16.5554 22.5051 16.8784 22.5653C17.209 22.6259 17.542 22.6608 17.8778 22.6744C18.7138 22.6911 19.5499 22.6214 20.3713 22.4644H20.3745C21.1011 22.3346 21.7902 22.0477 22.396 21.6262C23.098 21.0705 23.6683 20.3654 24.061 19.5608C24.4542 18.755 24.6608 17.8711 24.6665 16.9745V16.955C24.723 16.0609 24.566 15.1653 24.2075 14.3443C23.8491 13.5238 23.2998 12.801 22.606 12.2349C22.005 11.7677 21.2984 11.4535 20.5487 11.3218C20.5308 11.3205 20.5126 11.3198 20.4982 11.3186C20.456 11.3151 20.3987 11.3112 20.3273 11.3056C20.1847 11.2943 19.9853 11.2797 19.7463 11.2665C19.2678 11.24 18.6302 11.219 17.9591 11.2405Z" fill="#2F4027"/>
</svg>