<svg xmlns="http://www.w3.org/2000/svg" viewBox="0 0 52 53" fill="none" preserveAspectRatio="none">
    <path d="M23.9756 50.8549C7.27344 50.8549 4.07607 50.6703 2.53025 33.7807L2.5249 33.7181L2.3858 32.0939C1.20868 17.5106 2.48565 4.67586 9.5739 4.22211C35.2729 1.9261 42.4933 2.03152 46.4955 8.58735C47.6497 10.478 48.6825 14.4208 49.3229 19.1895C50.1263 25.172 50.312 32.4545 49.3447 38.6156L49.3434 38.6231L49.1646 39.6758C47.2514 50.1235 36.6861 50.8471 27.7002 50.8647L27.6216 50.8645L25.5952 50.8597L25.2935 50.8584L23.9756 50.8549ZM23.9756 52.8549C28.5943 52.8549 34.6825 53.0631 39.8388 51.6742C42.4605 50.968 44.9781 49.8197 47.0097 47.9213C49.0669 45.999 50.5138 43.4106 51.1318 40.0356C52.1985 34.2095 52.1942 27.3387 51.5947 21.391C51.294 18.4079 50.8398 15.6167 50.2793 13.266C49.7303 10.9634 49.0414 8.92015 48.2021 7.54532C47.0493 5.6569 45.6068 4.15078 43.6103 3.06095C41.6504 1.99109 39.2798 1.38962 36.372 1.09513C30.6248 0.513139 22.1851 1.08724 9.39549 2.2299C6.95589 2.40166 5.05641 3.66335 3.6826 5.53361C2.34474 7.35497 1.47912 9.77278 0.921853 12.4526C-0.1948 17.8226 -0.200771 24.9033 0.392557 32.2543C0.768348 36.91 1.23798 40.5718 2.04295 43.4037C2.85695 46.2673 4.06718 48.4766 6.05174 50.016C8.00446 51.5307 10.4539 52.196 13.3135 52.5209C16.1651 52.8449 19.7017 52.8549 23.9756 52.8549Z" fill="white"/>
    <path fill-rule="evenodd" clip-rule="evenodd" d="M49.3447 38.6156C50.312 32.4545 50.1263 25.172 49.3229 19.1895C50.1266 25.1745 50.312 32.4604 49.3434 38.6231L49.1646 39.6758C47.2459 50.1542 36.6245 50.8509 27.6216 50.8645L25.5952 50.8597L25.2935 50.8584C24.847 50.8565 24.4072 50.8549 23.9756 50.8549L25.2935 50.8584L25.5952 50.8597C26.2582 50.8625 26.9352 50.8655 27.6216 50.8645L27.7002 50.8647C36.6861 50.8471 47.2514 50.1235 49.1646 39.6758C49.2281 39.329 49.2877 38.9779 49.3434 38.6231L49.3447 38.6156ZM2.3858 32.0939L2.5249 33.7181C2.47707 33.193 2.43082 32.6517 2.3858 32.0939ZM23.9756 49.3549C19.6382 49.3549 16.3217 49.3402 13.709 49.0434C11.1022 48.7472 9.40487 48.1879 8.19629 47.2504C7.01177 46.3314 6.10743 44.8996 5.41017 42.4467C4.70609 39.9698 4.25459 36.603 3.88087 31.973C3.29594 24.7262 3.33448 18.0413 4.34864 13.1644C4.85654 10.7222 5.5857 8.85587 6.50391 7.60583C7.38811 6.40211 8.41683 5.79932 9.66992 5.71911L9.68848 5.71813L9.70703 5.71618C22.6009 4.5642 30.6739 4.03616 36.0195 4.5775C38.6667 4.84561 40.5313 5.36771 41.9336 6.13317C43.3081 6.88355 44.3286 7.91701 45.2148 9.36852C45.7605 10.2624 46.3478 11.8709 46.874 14.0775C47.3915 16.2482 47.824 18.8819 48.1123 21.7416C48.6902 27.4752 48.6794 33.9987 47.6894 39.4057C47.1964 42.0983 46.0882 43.9918 44.6201 45.3637C43.133 46.7532 41.1924 47.6846 38.9287 48.2943C34.8404 49.3956 30.0351 49.3766 25.5997 49.3592C25.052 49.357 24.5099 49.3549 23.9756 49.3549Z" fill="white"/>
</svg>