<svg xmlns="http://www.w3.org/2000/svg" width="24" height="26" fill="none"><path fill="#000" fill-rule="evenodd" d="M22.052 8.06a3.93 3.93 0 0 1-1 0c-.85-.09-1.82-.31-2.57-.38-1.55-.15-3.15-.27-4.76-.3-1.61-.03-3.2 0-4.76.11l-4.61.31a.31.31 0 0 0 .12-.26c.12 0 .12-.5.14-.56a2.16 2.16 0 0 1 .32-.59 1 1 0 0 1 .46-.34 18 18 0 0 1 2.41-.59 26.498 26.498 0 0 1 3.73-.35 31 31 0 0 1 4.31 0c.946.055 1.885.21 2.8.46a.59.59 0 0 1 .35.37c.083.26.14.528.17.8a.36.36 0 0 0 .39.29.34.34 0 0 0 .29-.39 3.782 3.782 0 0 0-.23-1.15 1.229 1.229 0 0 0-.73-.68 14.191 14.191 0 0 0-3-.7s-.58-1.51-.59-1.52a3.8 3.8 0 0 0-1.07-1.19 2.64 2.64 0 0 0-1.65-.4 5.1 5.1 0 0 0-1.52.36 3.33 3.33 0 0 0-1.29 1 7.55 7.55 0 0 0-.66 1.84c-.28 0-.58.08-.86.14a15.23 15.23 0 0 0-3.14 1 1.85 1.85 0 0 0-.64.49 2.86 2.86 0 0 0-.48 1 6.14 6.14 0 0 0-.14.7.38.38 0 0 0 .09.28l.07.02c-3.54.25-2.27.83-2 .82.224-.013.448-.04.67-.08h6.33c1.3 0 2.62-.06 3.95-.07h2.64c1 0 1.89 0 2.82.06.74 0 1.72.19 2.57.24a5.08 5.08 0 0 0 1.2 0 .34.34 0 0 0 .28-.39.351.351 0 0 0-.41-.35ZM10.472 3a2.49 2.49 0 0 1 .77-.47 4.8 4.8 0 0 1 1.44-.34 1.63 1.63 0 0 1 1 .15c.342.197.647.455.9.76.05.07.27.59.44.94a29.69 29.69 0 0 0-3.54-.04c-.48 0-.97 0-1.48.07.23-.37.38-1.01.47-1.07Z" clip-rule="evenodd"/><path fill="#000" d="M12.554.8a2.84 2.84 0 0 1 1.775.43l.01.007c.46.333.844.76 1.126 1.253l.001.002a.24.24 0 0 1 .006.01l.005.012.008.018.02.052.07.174.202.523.201.52.048.125c.995.13 1.975.362 2.922.695a1.426 1.426 0 0 1 .847.79l.004.01c.143.388.225.797.242 1.21a.54.54 0 0 1-.462.596l-.007.001a.56.56 0 0 1-.607-.451l-.002-.008v-.008a3.922 3.922 0 0 0-.107-.574l-.055-.186a.39.39 0 0 0-.228-.244 13.453 13.453 0 0 0-2.743-.448h-.002c-1.426-.1-2.857-.1-4.283 0h-.008c-1.24.029-2.478.144-3.703.347h.001a17.8 17.8 0 0 0-2.376.581.8.8 0 0 0-.368.272v.002a1.96 1.96 0 0 0-.288.526c.004-.012.003-.015 0 .006l-.006.066c-.004.054-.01.127-.02.2-.008.068-.022.15-.047.219-.005.014-.013.03-.021.047l4.239-.285 1.18-.068a56.389 56.389 0 0 1 3.597-.043 61.6 61.6 0 0 1 4.775.301l.297.033c.306.04.635.096.965.152.444.075.893.152 1.31.196h.005c.315.04.634.04.949 0a.551.551 0 0 1 .587.316.547.547 0 0 1 .047.213l.002.023-.001-.001a.538.538 0 0 1-.447.585l-.008.002a5.28 5.28 0 0 1-1.242-.001c-.43-.026-.894-.086-1.333-.139-.445-.054-.863-.1-1.22-.1H18.4c-.923-.06-1.807-.06-2.808-.06h-2.637l-.99.015c-.992.022-1.995.055-2.963.055H2.688a5.57 5.57 0 0 1-.675.08H2.01a.67.67 0 0 1-.199-.029.99.99 0 0 1-.205-.085.544.544 0 0 1-.188-.163.314.314 0 0 1-.021-.327c.052-.1.151-.17.258-.223.112-.055.263-.106.458-.152.338-.081.833-.153 1.538-.212a.58.58 0 0 1-.008-.146l.001-.01c.034-.244.083-.485.145-.722l.088-.286a3.06 3.06 0 0 1 .425-.784l.007-.01.154-.163c.163-.156.351-.284.556-.38h.003a15.43 15.43 0 0 1 3.18-1.014c.218-.047.481-.111.739-.134a7.75 7.75 0 0 1 .644-1.74l.008-.017.012-.016a3.53 3.53 0 0 1 1.367-1.06l.005-.002A5.302 5.302 0 0 1 12.554.8Zm.018.2a5.1 5.1 0 0 0-1.52.36 3.33 3.33 0 0 0-1.29 1 7.55 7.55 0 0 0-.66 1.84c-.28 0-.58.08-.86.14a15.23 15.23 0 0 0-3.14 1 1.85 1.85 0 0 0-.64.49 2.86 2.86 0 0 0-.48 1 6.14 6.14 0 0 0-.14.7.38.38 0 0 0 .09.28l.07.02c-3.54.25-2.27.83-2 .82.224-.013.448-.04.67-.08h6.33c1.3 0 2.62-.06 3.95-.07h2.64c1 0 1.89 0 2.82.06.74 0 1.72.19 2.57.24a5.08 5.08 0 0 0 1.2 0 .34.34 0 0 0 .28-.39.351.351 0 0 0-.41-.35 3.93 3.93 0 0 1-1 0c-.85-.09-1.82-.31-2.57-.38-1.55-.15-3.15-.27-4.76-.3-1.61-.03-3.2 0-4.76.11l-4.61.31a.31.31 0 0 0 .12-.26c.12 0 .12-.5.14-.56a2.16 2.16 0 0 1 .32-.59 1 1 0 0 1 .46-.34 18 18 0 0 1 2.41-.59 26.498 26.498 0 0 1 3.73-.35 31 31 0 0 1 4.31 0c.946.055 1.885.21 2.8.46a.59.59 0 0 1 .35.37c.083.26.14.528.17.8a.36.36 0 0 0 .39.29.34.34 0 0 0 .29-.39 3.782 3.782 0 0 0-.23-1.15 1.229 1.229 0 0 0-.73-.68 14.191 14.191 0 0 0-3-.7c-.012-.032-.58-1.51-.59-1.52a3.8 3.8 0 0 0-1.07-1.19 2.64 2.64 0 0 0-1.65-.4Zm.11 1.19a1.63 1.63 0 0 1 1 .15c.342.197.647.455.9.76.05.07.27.59.44.94a29.69 29.69 0 0 0-3.54-.04c-.48 0-.97 0-1.48.07.23-.37.38-1.009.47-1.07a2.49 2.49 0 0 1 .77-.47 4.8 4.8 0 0 1 1.44-.34Zm.904.325a1.432 1.432 0 0 0-.872-.129l-.008.002-.01.001a4.6 4.6 0 0 0-1.38.325l-.003.002a2.29 2.29 0 0 0-.702.426v.002a.692.692 0 0 0-.033.071c-.029.07-.061.161-.1.271a7.04 7.04 0 0 1-.135.346c.39-.032.767-.033 1.13-.033l.89-.029c.78-.014 1.56.004 2.338.05-.043-.094-.088-.188-.126-.273a16.787 16.787 0 0 0-.108-.235c-.026-.056-.042-.083-.047-.093a3.138 3.138 0 0 0-.834-.704ZM20.271 10v.05h-.199V10h.2Z"/><path fill="#000" fill-rule="evenodd" d="M20.652 9.64a.31.31 0 0 0-.43 0 .32.32 0 0 0 0 .38v.37a38.632 38.632 0 0 1-.57 4.76c-.34 2.06-.75 4.16-1.06 5.23-.14.49-.24 1-.41 1.48-.091.28-.226.543-.4.78a2.79 2.79 0 0 1-1.6.95 9.05 9.05 0 0 1-3.15.21c-1.42-.15-3 0-4.43-.19a4.701 4.701 0 0 1-1.6-.52 1.83 1.83 0 0 1-.64-.84 7.92 7.92 0 0 1-.59-1.88c-.15-.83-.33-1.87-.51-3-.42-2.66-.86-5.7-1.06-7a.36.36 0 0 0-.39-.3.35.35 0 0 0-.29.39c.16 1.32.51 4.36.86 7 .14 1.13.28 2.19.41 3 .114.742.32 1.467.61 2.16A2.93 2.93 0 0 0 6.422 24a5.552 5.552 0 0 0 2 .68c1.46.25 3 .07 4.49.23 1.203.127 2.42.036 3.59-.27a4 4 0 0 0 2.18-1.41c.22-.338.391-.705.51-1.09.16-.5.25-1 .38-1.55a70.6 70.6 0 0 0 1.11-7.53 20.12 20.12 0 0 0 .15-3 .82.82 0 0 0-.18-.42Z" clip-rule="evenodd"/><path fill="#000" d="M20.437 9.353a.51.51 0 0 1 .276.082l.077.06.01.009.006.009c.092.112.159.242.196.38l.029.142v.02c.026 1.01-.026 2.02-.15 3.022a70.774 70.774 0 0 1-1.113 7.552l-.001.007c-.127.535-.222 1.053-.385 1.561a4.527 4.527 0 0 1-.533 1.142l-.01.014a4.202 4.202 0 0 1-2.289 1.481 10.2 10.2 0 0 1-3.66.274c-.732-.078-1.478-.073-2.236-.08-.754-.006-1.519-.023-2.266-.151a5.75 5.75 0 0 1-2.065-.704l-.011-.006-.009-.007a3.13 3.13 0 0 1-1.086-1.464 9.441 9.441 0 0 1-.623-2.205l-.1-.654c-.1-.695-.206-1.505-.311-2.353-.35-2.64-.7-5.68-.86-6.999l-.003-.106a.55.55 0 0 1 .459-.507l.013-.002h.106a.56.56 0 0 1 .5.467l.002.002c.2 1.304.64 4.338 1.06 6.999.179 1.128.358 2.167.508 2.996.115.632.308 1.248.575 1.832l.006.013c.11.295.305.552.559.739.473.254.988.421 1.52.493l.532.056c.54.042 1.097.049 1.662.053.56.003 1.13.004 1.683.037l.548.044a8.855 8.855 0 0 0 3.081-.205l.009-.003a2.588 2.588 0 0 0 1.477-.874c.161-.22.287-.462.371-.721l.002-.005c.169-.475.26-.954.407-1.469l.119-.443c.288-1.136.638-2.961.935-4.764l.001-.004c.287-1.565.476-3.146.567-4.735v-.303a.522.522 0 0 1 .039-.554l.01-.014.012-.012a.51.51 0 0 1 .354-.142Zm0 .2a.31.31 0 0 0-.215.086.32.32 0 0 0 0 .38v.37a38.632 38.632 0 0 1-.57 4.76c-.34 2.06-.75 4.16-1.06 5.23-.14.49-.24 1-.41 1.48-.091.28-.226.543-.4.78a2.79 2.79 0 0 1-1.6.95 9.05 9.05 0 0 1-3.15.21c-1.42-.15-3 0-4.43-.19a4.701 4.701 0 0 1-1.6-.52 1.83 1.83 0 0 1-.64-.84 7.92 7.92 0 0 1-.59-1.88c-.15-.83-.33-1.87-.51-3-.42-2.66-.86-5.7-1.06-7a.36.36 0 0 0-.39-.3.35.35 0 0 0-.29.39c.16 1.32.51 4.36.86 7 .14 1.13.28 2.19.41 3 .114.743.32 1.468.61 2.16A2.93 2.93 0 0 0 6.422 24a5.552 5.552 0 0 0 2 .68c1.46.25 3 .07 4.49.23 1.203.128 2.42.037 3.59-.27a4 4 0 0 0 2.18-1.41c.22-.337.391-.704.51-1.09.16-.5.25-1 .38-1.55a70.6 70.6 0 0 0 1.11-7.53 20.12 20.12 0 0 0 .15-3 .82.82 0 0 0-.18-.42.31.31 0 0 0-.215-.086Z"/><path fill="#000" fill-rule="evenodd" d="M9.272 17.13c.14.84.31 1.58.42 2.11.07.34.12.59.14.71.06.3.32.26.51.17a.23.23 0 0 0 .16-.1V19.23c0-.54 0-1.3-.11-2.15 0-.46-.09-.94-.16-1.42 0-.24-.06-.48-.11-.71-.2-1.12-.46-2.14-.61-2.81a.303.303 0 1 0-.6.08c0 .68 0 1.74.11 2.87 0 .24 0 .47.07.71.03.39.1.87.18 1.33Z" clip-rule="evenodd"/><path fill="#000" d="M9.34 11.694a.505.505 0 0 1 .306.234.5.5 0 0 1 .059.168h.002c.148.66.41 1.688.61 2.811l.075.358c.022.119.035.242.038.366l.106.72c.031.238.054.479.055.713.11.86.111 1.628.111 2.165v.851l-.034.05a.432.432 0 0 1-.13.127.424.424 0 0 1-.124.048.724.724 0 0 1-.41.073.426.426 0 0 1-.238-.124.52.52 0 0 1-.13-.265l-.001-.007c-.02-.115-.069-.36-.14-.702-.108-.525-.28-1.273-.42-2.118a15.27 15.27 0 0 1-.18-1.33c-.072-.259-.072-.505-.072-.732-.11-1.137-.111-2.202-.111-2.88a.5.5 0 0 1 .629-.526Zm-.168.185a.302.302 0 0 0-.26.34c0 .68 0 1.74.11 2.87 0 .24 0 .47.07.71.03.39.1.87.18 1.33.14.84.31 1.58.42 2.11.07.34.12.59.14.71.06.3.32.26.51.17a.23.23 0 0 0 .16-.1v-.79c0-.54 0-1.3-.11-2.15 0-.46-.09-.94-.16-1.42 0-.24-.06-.48-.11-.71-.2-1.12-.46-2.14-.61-2.81a.303.303 0 0 0-.34-.26Z"/><path fill="#000" fill-rule="evenodd" d="M14.852 19.94a.34.34 0 0 0 .34-.34c.05-.61.22-1.54.33-2.56.07-.56.13-1.15.15-1.71.06-1.35 0-2.52 0-2.91a.31.31 0 0 0-.407-.306.3.3 0 0 0-.203.265c-.06.35-.29 1.32-.46 2.5-.05.34-.08.71-.11 1.07-.03.36 0 .73 0 1.09 0 1 0 1.95.08 2.56a.34.34 0 0 0 .28.34Z" clip-rule="evenodd"/><path fill="#000" d="M15.394 11.9a.512.512 0 0 1 .478.52l.022 1.092c.008.513.008 1.149-.022 1.826-.02.568-.081 1.165-.152 1.727-.055.512-.126 1.001-.188 1.436a20.34 20.34 0 0 0-.14 1.114h-.002a.539.539 0 0 1-.539.525h-.017l-.018-.004a.54.54 0 0 1-.442-.51c-.082-.627-.082-1.593-.082-2.587 0-.336-.03-.737 0-1.106.03-.358.061-.735.112-1.082l.136-.842c.14-.793.282-1.419.324-1.663a.5.5 0 0 1 .53-.446Zm-.012.2a.3.3 0 0 0-.32.28c-.06.35-.29 1.32-.46 2.5-.05.34-.08.71-.11 1.07-.03.36 0 .73 0 1.09 0 1 0 1.95.08 2.56a.34.34 0 0 0 .28.34.34.34 0 0 0 .34-.34c.05-.61.22-1.54.33-2.56.07-.56.13-1.15.15-1.71.06-1.35 0-2.52 0-2.91a.31.31 0 0 0-.29-.32Z"/></svg>