<svg xmlns="http://www.w3.org/2000/svg" width="41" height="40" viewBox="0 0 41 40" fill="none">
    <path d="M19.7493 18.9346C19.0993 18.3846 19.0993 17.9846 17.2826 18.0012C16.6069 18.1012 15.9764 18.4004 15.4717 18.8605C14.967 19.3207 14.611 19.921 14.4493 20.5846C14.2986 21.0835 14.3023 21.6163 14.4599 22.113C14.6176 22.6098 14.9218 23.0472 15.3326 23.3679C15.9073 23.693 16.5637 23.8455 17.2229 23.8071C17.8821 23.7686 18.5162 23.5409 19.0493 23.1512C19.6165 22.8286 20.0584 22.324 20.3034 21.7191C20.5484 21.1142 20.5821 20.4444 20.3993 19.8179C20.2582 19.4747 20.035 19.1714 19.7493 18.9346ZM18.0826 21.7846C17.8287 21.9739 17.5262 22.0871 17.2103 22.1107C16.8945 22.1343 16.5785 22.0674 16.2993 21.9179C15.8826 21.6512 15.9493 21.0846 16.1159 20.5846C16.2826 20.0846 16.7326 19.2846 17.2993 19.1846C17.5634 19.1526 17.8314 19.1843 18.0807 19.2771C18.3301 19.3699 18.5536 19.5211 18.7326 19.7179C18.8985 19.8619 19.0151 20.0542 19.0659 20.2679C19.2993 20.9179 18.7493 21.4512 18.1493 21.7846H18.0826Z" fill="#2F4027"/>
    <path d="M17.28 17.6687C18.2021 17.6603 18.7276 17.7535 19.1127 17.9617C19.305 18.0657 19.4472 18.1911 19.5749 18.3132C19.7072 18.4398 19.8113 18.5498 19.9623 18.6778L20.1934 18.8959C20.3388 19.05 20.4656 19.2207 20.5694 19.4054L20.7077 19.6918L20.7142 19.7081L20.7191 19.7244C20.923 20.4227 20.8847 21.1692 20.6117 21.8435C20.3432 22.5064 19.8614 23.0586 19.2445 23.419C18.6598 23.8464 17.9655 24.0979 17.2426 24.1401C16.5195 24.1822 15.7994 24.0148 15.169 23.6583L15.1462 23.6453L15.1283 23.6306C14.6647 23.2687 14.32 22.7752 14.142 22.2146C13.964 21.6538 13.9604 21.051 14.1306 20.4877C14.3101 19.7669 14.698 19.115 15.2471 18.6143C15.8008 18.1095 16.4932 17.7816 17.2344 17.672L17.2572 17.6687H17.28ZM17.2826 18.0012C16.6069 18.1012 15.9764 18.4004 15.4717 18.8605L15.2894 19.0391C14.8809 19.4714 14.5908 20.0039 14.4493 20.5846C14.2986 21.0835 14.3023 21.6163 14.4599 22.113C14.6176 22.6098 14.9218 23.0472 15.3326 23.3679C15.8352 23.652 16.401 23.805 16.9756 23.8129L17.2229 23.8071C17.8821 23.7686 18.5162 23.5409 19.0493 23.1512C19.5456 22.8689 19.9468 22.4474 20.2032 21.9412L20.3034 21.7191C20.5484 21.1142 20.5821 20.4444 20.3993 19.8179C20.2934 19.5606 20.1408 19.325 19.9509 19.1238L19.7493 18.9346C19.0993 18.3846 19.0993 17.9846 17.2826 18.0012ZM17.2993 19.1846C17.5634 19.1526 17.8314 19.1843 18.0807 19.2771C18.3301 19.3699 18.5536 19.5211 18.7326 19.7179C18.8985 19.8619 19.0151 20.0542 19.0659 20.2679C19.2701 20.8366 18.8744 21.3156 18.3705 21.6498L18.1493 21.7846H18.0826C17.8287 21.9739 17.5262 22.0871 17.2103 22.1107C16.8945 22.1343 16.5785 22.0674 16.2993 21.9179C15.9349 21.6844 15.9405 21.2212 16.0593 20.7742L16.1159 20.5846C16.2826 20.0846 16.7326 19.2846 17.2993 19.1846ZM17.3484 19.5144C17.1946 19.5455 17.0104 19.6843 16.8259 19.9327C16.6457 20.1754 16.5058 20.4682 16.432 20.6895C16.3543 20.9227 16.3107 21.1425 16.3213 21.3178C16.3311 21.4775 16.3827 21.5701 16.4711 21.6303C16.691 21.7448 16.9381 21.7969 17.1856 21.7784C17.4382 21.7595 17.6808 21.6695 17.8838 21.518L17.9717 21.4513H18.058C18.3054 21.3052 18.518 21.1342 18.6488 20.9516C18.7842 20.7624 18.8244 20.5792 18.753 20.3803L18.7465 20.3624L18.7416 20.3445C18.7068 20.1989 18.6268 20.0683 18.5137 19.9701L18.4991 19.9571L18.4861 19.9425C18.343 19.7851 18.1645 19.6635 17.9652 19.5893C17.7686 19.5161 17.5567 19.4906 17.3484 19.5144Z" fill="#2F4027"/>
    <path d="M9.88261 27.6679C9.23261 27.1179 9.23261 26.7179 7.39927 26.7346C6.72662 26.8376 6.09975 27.1381 5.59825 27.5981C5.09675 28.058 4.74324 28.6566 4.58261 29.3179C4.41699 29.826 4.41301 30.3729 4.57121 30.8833C4.72941 31.3938 5.04201 31.8426 5.46594 32.1679C6.04068 32.493 6.69699 32.6455 7.35619 32.6071C8.0154 32.5686 8.64954 32.3409 9.18261 31.9512C9.74987 31.6286 10.1917 31.124 10.4367 30.5191C10.6817 29.9142 10.7155 29.2444 10.5326 28.6179C10.4013 28.2506 10.1774 27.9234 9.88261 27.6679ZM8.21594 30.5179C7.96207 30.7073 7.65951 30.8204 7.34367 30.844C7.02784 30.8676 6.71181 30.8008 6.43261 30.6512C6.01594 30.3846 6.08261 29.8179 6.24927 29.3179C6.41594 28.8179 6.84927 28.0179 7.43261 27.9179C7.69408 27.8887 7.95875 27.9218 8.20498 28.0145C8.45121 28.1072 8.672 28.2568 8.84927 28.4512C9.01964 28.5943 9.14184 28.7863 9.19927 29.0012C9.43261 29.6512 8.93261 30.1846 8.28261 30.5179H8.21594Z" fill="#2F4027"/>
    <path d="M7.39649 26.402C8.32655 26.3936 8.85518 26.4873 9.24219 26.695C9.43599 26.7991 9.57929 26.924 9.70769 27.0466L10.0983 27.4128L10.1016 27.416C10.355 27.6357 10.562 27.9021 10.7135 28.1989L10.847 28.5049L10.8535 28.5244C11.0573 29.2227 11.019 29.9693 10.7461 30.6436C10.4776 31.3064 9.9958 31.8603 9.37891 32.2207L9.1543 32.3721C8.61956 32.7067 8.00798 32.9032 7.37533 32.9401C6.65225 32.9822 5.9322 32.815 5.30176 32.4584L5.28223 32.447L5.2627 32.4323C4.78426 32.0651 4.43221 31.5582 4.25359 30.9821C4.07499 30.4059 4.07804 29.7881 4.26498 29.2145C4.44395 28.4989 4.82944 27.8514 5.37338 27.3526C5.92354 26.848 6.61141 26.5183 7.34929 26.4053L7.37208 26.402H7.39649ZM7.39927 26.7346C6.72662 26.8376 6.09975 27.1381 5.59825 27.5981L5.41732 27.7774C5.01159 28.2091 4.72314 28.7394 4.58261 29.3179C4.41699 29.826 4.41301 30.3729 4.57121 30.8833C4.72941 31.3938 5.04201 31.8426 5.46594 32.1679C6.04068 32.493 6.69699 32.6455 7.35619 32.6071C8.0154 32.5686 8.64954 32.3409 9.18261 31.9512C9.67895 31.6689 10.0795 31.2474 10.3359 30.7412L10.4367 30.5191C10.6817 29.9142 10.7155 29.2444 10.5326 28.6179C10.4341 28.3425 10.2837 28.0887 10.0902 27.8718L9.88261 27.6679C9.23261 27.1179 9.23261 26.7179 7.39927 26.7346ZM7.43261 27.9179C7.69408 27.8887 7.95875 27.9218 8.20498 28.0145C8.45121 28.1072 8.672 28.2568 8.84927 28.4512C9.01964 28.5943 9.14184 28.7863 9.19927 29.0012C9.40323 29.5699 9.04576 30.0489 8.51791 30.3832L8.28261 30.5179H8.21594C7.96207 30.7073 7.65951 30.8204 7.34367 30.844L7.10678 30.8454C6.87192 30.8295 6.64173 30.7631 6.43261 30.6512C6.06796 30.4179 6.07328 29.9547 6.19206 29.5075L6.24927 29.3179C6.41594 28.8179 6.84927 28.0179 7.43261 27.9179ZM7.48113 28.2477C7.31941 28.2788 7.13541 28.4189 6.95378 28.666C6.77634 28.9076 6.63944 29.199 6.56478 29.4229C6.48705 29.6561 6.44346 29.8758 6.45411 30.0511C6.4639 30.2106 6.51574 30.3034 6.60385 30.3636C6.82375 30.4782 7.0709 30.5302 7.31836 30.5117C7.57091 30.4929 7.81358 30.4027 8.01661 30.2513L8.1045 30.1846H8.19564C8.46205 30.039 8.67351 29.8681 8.79786 29.6882C8.92349 29.5062 8.96054 29.322 8.88575 29.1136L8.88087 29.1006L8.87761 29.0876C8.83787 28.9389 8.75294 28.8057 8.6351 28.7067L8.61719 28.6921L8.60254 28.6758C8.46086 28.5205 8.28494 28.4 8.08822 28.3259C7.89485 28.2531 7.68655 28.2266 7.48113 28.2477Z" fill="#2F4027"/>
    <path d="M28.5493 18.7179C27.8659 18.1346 27.8659 17.7679 26.0659 17.7679C25.3911 17.8721 24.7627 18.1751 24.261 18.6382C23.7592 19.1014 23.407 19.7036 23.2493 20.3679C23.0849 20.8735 23.0817 21.4177 23.2399 21.9252C23.3981 22.4327 23.7101 22.8786 24.1326 23.2012C24.7034 23.539 25.3619 23.6987 26.024 23.6601C26.6861 23.6215 27.3216 23.3863 27.8493 22.9846C28.4165 22.6619 28.8584 22.1573 29.1034 21.5524C29.3484 20.9475 29.3821 20.2777 29.1993 19.6512C29.0682 19.2885 28.844 18.9667 28.5493 18.7179ZM26.8826 21.5679C26.6287 21.7573 26.3262 21.8704 26.0103 21.894C25.6945 21.9176 25.3785 21.8508 25.0993 21.7012C24.6826 21.4346 24.7493 20.8512 24.9159 20.3512C25.0826 19.8512 25.5159 19.0512 26.0993 18.9679C26.4812 18.9052 26.873 18.9773 27.2075 19.172C27.542 19.3666 27.7984 19.6716 27.9326 20.0346C28.0993 20.7012 27.5493 21.2179 26.9493 21.5679H26.8826Z" fill="#2F4027"/>
    <path d="M26.0663 17.4342C26.9777 17.4343 27.497 17.5244 27.8827 17.7288C28.0761 17.8314 28.2219 17.956 28.3547 18.0804C28.4929 18.2099 28.602 18.3238 28.7649 18.4629L29.0025 18.694C29.1511 18.8572 29.2786 19.0384 29.3801 19.2344L29.5136 19.5371L29.5201 19.5583C29.7239 20.2566 29.6857 21.0031 29.4126 21.6774C29.1441 22.3404 28.6625 22.8942 28.0455 23.2546C27.4662 23.6937 26.7693 23.9512 26.0435 23.9935C25.3152 24.0359 24.5913 23.8588 23.9634 23.4873L23.9455 23.4775L23.9309 23.4661C23.4535 23.1016 23.1005 22.5975 22.9218 22.0241C22.7431 21.4507 22.7459 20.8358 22.9315 20.2647C23.1076 19.5462 23.4912 18.8949 24.035 18.3929C24.5854 17.885 25.2756 17.5534 26.0158 17.4391L26.0403 17.4342H26.0663ZM26.0659 17.7679C25.3911 17.8721 24.7627 18.1751 24.261 18.6382L24.0806 18.8177C23.6747 19.2523 23.3874 19.7866 23.2493 20.3679C23.0849 20.8735 23.0817 21.4177 23.2399 21.9252C23.3981 22.4327 23.7101 22.8786 24.1326 23.2012C24.7034 23.539 25.3619 23.6987 26.024 23.6601C26.6861 23.6215 27.3216 23.3863 27.8493 22.9846C28.3455 22.7023 28.746 22.2811 29.0025 21.7751L29.1034 21.5524C29.3484 20.9475 29.3821 20.2777 29.1993 19.6512C29.1009 19.3791 28.9504 19.1295 28.7567 18.917L28.5493 18.7179C27.8659 18.1346 27.8659 17.7679 26.0659 17.7679ZM26.0993 18.9679C26.4812 18.9052 26.873 18.9773 27.2075 19.172C27.542 19.3666 27.7984 19.6716 27.9326 20.0346C28.0779 20.6173 27.6758 21.0861 27.1714 21.4284L26.9493 21.5679H26.8826C26.6287 21.7573 26.3262 21.8704 26.0103 21.894L25.7733 21.8955C25.5385 21.8796 25.3084 21.8131 25.0993 21.7012C24.6826 21.4346 24.7493 20.8512 24.9159 20.3512C25.0826 19.8512 25.5159 19.0512 26.0993 18.9679ZM26.1526 19.2962L26.146 19.2979C25.9877 19.3206 25.8028 19.4529 25.6187 19.7015C25.4418 19.9404 25.3077 20.2326 25.233 20.4567C25.1557 20.6886 25.1115 20.9126 25.1223 21.0931C25.1322 21.2583 25.1838 21.353 25.2688 21.4121C25.4891 21.5274 25.7367 21.5803 25.9849 21.5619C26.2374 21.543 26.4802 21.4527 26.6832 21.3014L26.7727 21.2347H26.8524C27.1037 21.0805 27.3208 20.9079 27.4611 20.7204C27.6052 20.5279 27.6586 20.3376 27.6109 20.1296C27.5015 19.8484 27.3007 19.6125 27.0396 19.4606C26.772 19.3049 26.4581 19.2461 26.1526 19.2962Z" fill="#2F4027"/>
    <path d="M18.6826 27.4512C18.0326 26.9012 18.0326 26.5012 16.1993 26.5012C15.5193 26.5921 14.8839 26.8905 14.3798 27.3559C13.8757 27.8212 13.5275 28.4307 13.3826 29.1012C13.2158 29.6066 13.2112 30.1516 13.3696 30.6597C13.528 31.1677 13.8414 31.6135 14.2659 31.9346C14.8383 32.2699 15.4978 32.4269 16.1599 32.3853C16.822 32.3438 17.4566 32.1056 17.9826 31.7012C18.5499 31.3786 18.9917 30.874 19.2367 30.2691C19.4817 29.6642 19.5155 28.9944 19.3326 28.3679C19.1989 28.0112 18.975 27.6954 18.6826 27.4512ZM17.0159 30.3012C16.7621 30.4906 16.4595 30.6037 16.1437 30.6273C15.8278 30.651 15.5118 30.5841 15.2326 30.4346C14.7993 30.1679 14.8826 29.5846 15.0493 29.0846C15.2159 28.5846 15.6493 27.7846 16.2326 27.7012C16.4927 27.6699 16.7566 27.7004 17.0027 27.7902C17.2489 27.88 17.4704 28.0265 17.6493 28.2179C17.8196 28.361 17.9418 28.553 17.9993 28.7679C18.2159 29.4346 17.6826 30.0346 17.0826 30.3012H17.0159Z" fill="#2F4027"/>
    <path d="M16.2 26.1676C17.1302 26.1676 17.6582 26.267 18.0441 26.4768C18.2373 26.5818 18.3798 26.7074 18.508 26.83C18.6407 26.957 18.7456 27.0663 18.897 27.1946L19.133 27.4208C19.3549 27.661 19.5285 27.9428 19.644 28.2509L19.6489 28.2623L19.6522 28.2737C19.856 28.9722 19.8195 29.7201 19.5464 30.3945C19.2765 31.0608 18.7909 31.6163 18.1694 31.9765C17.5939 32.414 16.9023 32.6734 16.1805 32.7187C15.4523 32.7643 14.7267 32.5911 14.0972 32.2223L14.0809 32.2125L14.0646 32.2011C13.5846 31.8381 13.2297 31.3336 13.0506 30.7591C12.873 30.1893 12.8779 29.5785 13.062 29.011C13.2239 28.2813 13.6047 27.6188 14.1541 27.1116C14.7085 26.5999 15.4067 26.2709 16.1544 26.1708L16.1772 26.1676H16.2ZM16.1993 26.5012C15.5193 26.5921 14.8839 26.8905 14.3798 27.3559L14.1981 27.5364C13.7918 27.9738 13.5095 28.5147 13.3826 29.1012C13.2158 29.6066 13.2112 30.1516 13.3696 30.6597C13.528 31.1677 13.8414 31.6135 14.2659 31.9346C14.8383 32.2699 15.4978 32.4269 16.1599 32.3853C16.822 32.3438 17.4566 32.1056 17.9826 31.7012C18.4792 31.4188 18.8798 30.997 19.1362 30.4905L19.2367 30.2691C19.4511 29.7397 19.5045 29.1603 19.3917 28.6041L19.3326 28.3679C19.2324 28.1004 19.0814 27.8556 18.8888 27.6471L18.6826 27.4512C18.0326 26.9012 18.0326 26.5012 16.1993 26.5012ZM16.2326 27.7012C16.4927 27.6699 16.7566 27.7004 17.0027 27.7902C17.2489 27.88 17.4704 28.0265 17.6493 28.2179C17.8196 28.361 17.9418 28.553 17.9993 28.7679C18.1886 29.351 17.8044 29.8836 17.3035 30.1861L17.0826 30.3012H17.0159C16.7621 30.4906 16.4595 30.6037 16.1437 30.6273C15.9069 30.645 15.6694 30.6119 15.4481 30.5312L15.2326 30.4346C14.8532 30.2011 14.8705 29.7251 14.9923 29.2747L15.0493 29.0846C15.2159 28.5846 15.6493 27.7846 16.2326 27.7012ZM16.2749 28.0312C16.1176 28.0558 15.9348 28.1885 15.7524 28.4348C15.5755 28.6738 15.4398 28.9659 15.3651 29.19C15.2864 29.426 15.2402 29.65 15.2495 29.8297C15.258 29.9945 15.3099 30.086 15.4025 30.1454C15.6229 30.2607 15.8705 30.3137 16.1186 30.2952C16.3712 30.2763 16.6138 30.1862 16.8169 30.0348L16.9048 29.968H17.0024C17.2338 29.8545 17.4422 29.6887 17.5721 29.4977C17.7081 29.2975 17.7527 29.0865 17.6828 28.871L17.6763 28.8548C17.6364 28.7066 17.5527 28.5726 17.4354 28.4739L17.4191 28.4609L17.4061 28.4462C17.2629 28.2931 17.0854 28.1746 16.8885 28.1028C16.6924 28.0313 16.4821 28.0067 16.2749 28.0312Z" fill="#2F4027"/>
    <path d="M36.0993 18.8846C35.4493 18.3179 35.4326 17.9346 33.6159 17.9346C32.936 18.0254 32.3006 18.3239 31.7965 18.7892C31.2924 19.2545 30.9442 19.864 30.7993 20.5346C30.6324 21.04 30.6279 21.5849 30.7863 22.093C30.9447 22.6011 31.2581 23.0469 31.6826 23.3679C32.2534 23.7056 32.9119 23.8654 33.574 23.8268C34.2361 23.7882 34.8716 23.553 35.3993 23.1512C35.9665 22.8286 36.4084 22.324 36.6534 21.7191C36.8984 21.1142 36.9321 20.4444 36.7493 19.8179C36.6182 19.4552 36.394 19.1333 36.0993 18.8846ZM34.4326 21.7346C34.1787 21.9239 33.8762 22.0371 33.5603 22.0607C33.2445 22.0843 32.9285 22.0174 32.6493 21.8679C32.2159 21.6012 32.2993 21.0179 32.4659 20.5179C32.6326 20.0179 33.0659 19.2179 33.6493 19.1346C34.0208 19.0881 34.3971 19.1681 34.7176 19.3616C35.0381 19.5551 35.2841 19.8509 35.4159 20.2012C35.5993 20.8679 35.0993 21.3846 34.4993 21.7012L34.4326 21.7346Z" fill="#2F4027"/>
    <path d="M33.6167 17.6009C34.5375 17.601 35.0651 17.697 35.4526 17.9036C35.6469 18.0074 35.7924 18.1308 35.923 18.2552C36.0608 18.3865 36.1623 18.4966 36.3185 18.6328C36.6562 18.9187 36.9117 19.2877 37.0623 19.7038L37.0705 19.7249C37.2742 20.4232 37.236 21.1699 36.963 21.8441C36.6944 22.5074 36.2117 23.0608 35.5942 23.4212C35.0152 23.8599 34.3192 24.1178 33.5939 24.1602C32.8656 24.2026 32.14 24.0255 31.5122 23.654L31.4959 23.6458L31.4813 23.6344C31.0013 23.2715 30.6464 22.7669 30.4673 22.1924C30.2896 21.6226 30.2945 21.0118 30.4787 20.4443C30.6406 19.7147 31.0214 19.0521 31.5708 18.5449C32.1251 18.0332 32.8234 17.7042 33.5711 17.6042L33.5939 17.6009H33.6167ZM33.6159 17.9346C32.936 18.0254 32.3006 18.3239 31.7965 18.7892L31.6147 18.9697C31.2084 19.4072 30.9261 19.948 30.7993 20.5346C30.6324 21.04 30.6279 21.5849 30.7863 22.093C30.9447 22.6011 31.2581 23.0469 31.6826 23.3679C32.1818 23.6632 32.7483 23.8219 33.3253 23.8314L33.574 23.8268C34.2361 23.7882 34.8716 23.553 35.3993 23.1512C35.8955 22.869 36.2964 22.4478 36.5529 21.9417L36.6534 21.7191C36.8984 21.1142 36.9321 20.4444 36.7493 19.8179C36.6509 19.5458 36.5007 19.2962 36.3071 19.0837L36.0993 18.8846C35.4493 18.3179 35.4326 17.9346 33.6159 17.9346ZM33.6493 19.1346C34.0208 19.0881 34.3971 19.1681 34.7176 19.3616C35.0381 19.5551 35.2841 19.8509 35.4159 20.2012C35.5993 20.8679 35.0993 21.3846 34.4993 21.7012L34.4326 21.7346L34.2335 21.862C34.0265 21.9748 33.7972 22.043 33.5603 22.0607C33.3236 22.0783 33.0861 22.0453 32.8647 21.9645L32.6493 21.8679C32.2699 21.6345 32.2872 21.1585 32.409 20.708L32.4659 20.5179C32.6326 20.0179 33.0659 19.2179 33.6493 19.1346ZM33.6948 19.4629L33.6964 19.4645C33.538 19.4871 33.3533 19.6194 33.1691 19.8682C32.9921 20.1071 32.8564 20.3992 32.7817 20.6234C32.7031 20.8593 32.6569 21.0833 32.6662 21.263C32.6747 21.4278 32.7266 21.5194 32.8192 21.5788C33.0396 21.694 33.2871 21.747 33.5353 21.7285C33.7879 21.7096 34.0305 21.6195 34.2335 21.4681L34.2563 21.4502L34.284 21.4372L34.3426 21.4063C34.6154 21.2623 34.8428 21.0842 34.979 20.8903C35.1055 20.7099 35.1521 20.5199 35.0962 20.3027C34.9893 20.0298 34.7971 19.7986 34.546 19.6468C34.2909 19.4928 33.9906 19.4269 33.6948 19.4629Z" fill="#2F4027"/>
    <path d="M24.8493 26.7012C24.1766 26.8042 23.5498 27.1048 23.0483 27.5647C22.5467 28.0247 22.1932 28.6233 22.0326 29.2846C21.867 29.7926 21.863 30.3396 22.0212 30.85C22.1794 31.3604 22.492 31.8092 22.9159 32.1346C23.4919 32.4557 24.1475 32.6059 24.8058 32.5675C25.4641 32.5291 26.0979 32.3038 26.6326 31.9179C27.1999 31.5952 27.6417 31.0907 27.8867 30.4858C28.1317 29.8809 28.1655 29.211 27.9826 28.5846C27.7231 27.9822 27.2812 27.4765 26.7191 27.1386C26.1569 26.8007 25.503 26.6477 24.8493 26.7012ZM25.7326 30.4846C25.4787 30.6739 25.1762 30.7871 24.8603 30.8107C24.5445 30.8343 24.2285 30.7674 23.9493 30.6179C23.5326 30.3512 23.5993 29.7846 23.7659 29.2679C23.9326 28.7512 24.3826 27.9846 24.9493 27.8846C25.2094 27.8533 25.4732 27.8838 25.7194 27.9735C25.9655 28.0633 26.187 28.2098 26.3659 28.4012C26.5332 28.547 26.6548 28.738 26.7159 28.9512C26.8826 29.5679 26.3326 30.0346 25.7326 30.4346V30.4846Z" fill="#2F4027"/>
    <path d="M25.0939 26.3571C25.7251 26.3551 26.3468 26.5266 26.8908 26.8536C27.4348 27.1806 27.8773 27.6492 28.1717 28.2077L28.2889 28.4535L28.297 28.4714L28.3019 28.4909C28.5058 29.1894 28.4692 29.9373 28.1961 30.6117C27.9229 31.2858 27.4302 31.8487 26.798 32.2084C26.218 32.6186 25.535 32.8587 24.8253 32.9001C24.1038 32.9422 23.3847 32.7784 22.7534 32.4265L22.7322 32.4134L22.7127 32.3988C22.2343 32.0315 21.8822 31.5247 21.7036 30.9486C21.525 30.3723 21.528 29.7547 21.715 29.181C21.894 28.4654 22.2795 27.8179 22.8234 27.319C23.3735 26.8146 24.0615 26.4848 24.7993 26.3718L24.8221 26.3685L25.0939 26.3571ZM24.8493 26.7012C24.1766 26.8042 23.5498 27.1048 23.0483 27.5647L22.8673 27.7439C22.4615 28.1756 22.1732 28.706 22.0326 29.2846C21.867 29.7926 21.863 30.3396 22.0212 30.85C22.1794 31.3604 22.492 31.8092 22.9159 32.1346C23.42 32.4155 23.9855 32.5657 24.56 32.573L24.8058 32.5675C25.4641 32.5291 26.0979 32.3038 26.6326 31.9179C27.129 31.6356 27.5295 31.214 27.7859 30.7077L27.8867 30.4858C28.1011 29.9565 28.1541 29.3775 28.0415 28.8213L27.9826 28.5846C27.7555 28.0574 27.3882 27.6049 26.9233 27.2735L26.7191 27.1386C26.1569 26.8007 25.503 26.6477 24.8493 26.7012ZM24.9493 27.8846C25.2094 27.8533 25.4732 27.8838 25.7194 27.9735C25.9655 28.0633 26.187 28.2098 26.3659 28.4012C26.5332 28.547 26.6548 28.738 26.7159 28.9512C26.8826 29.5679 26.3326 30.0346 25.7326 30.4346V30.4846C25.4787 30.6739 25.1762 30.7871 24.8603 30.8107L24.6235 30.8119C24.3886 30.796 24.1584 30.7298 23.9493 30.6179C23.5326 30.3512 23.5993 29.7846 23.7659 29.2679C23.9326 28.7512 24.3826 27.9846 24.9493 27.8846ZM24.9995 28.2142C24.8412 28.2454 24.6562 28.3812 24.4738 28.6211C24.2949 28.8565 24.1563 29.1432 24.0831 29.3698C24.0046 29.6133 23.9601 29.8378 23.9708 30.016C23.9807 30.1778 24.0328 30.2701 24.1206 30.3301C24.3405 30.4447 24.5876 30.4967 24.8351 30.4782C25.0352 30.4633 25.2272 30.4003 25.3999 30.3008V30.2569L25.548 30.1576C25.8442 29.9601 26.0928 29.7675 26.2495 29.5684C26.3979 29.3797 26.4422 29.2147 26.3943 29.0378C26.3504 28.8886 26.2642 28.7542 26.1469 28.6521L26.1339 28.6407L26.1225 28.6293C25.9794 28.4762 25.8018 28.3593 25.605 28.2875C25.4113 28.2169 25.2042 28.1912 24.9995 28.2142Z" fill="#2F4027"/>
    <path d="M26.8659 6.48457C26.6777 7.74824 26.8154 9.03905 27.2659 10.2346C27.5672 10.8207 28.0724 11.2765 28.6864 11.5159C29.3004 11.7554 29.9807 11.762 30.5993 11.5346C31.02 11.4326 31.4084 11.2266 31.7288 10.9354C32.0491 10.6441 32.2912 10.2771 32.4326 9.86791C32.7052 8.93265 32.8068 7.9559 32.7326 6.98457V4.55124C32.7575 4.18222 32.7018 3.8122 32.5694 3.46684C32.4371 3.12149 32.2311 2.80906 31.9659 2.55124C31.0774 1.94849 29.9937 1.70436 28.9326 1.86791C28.8612 1.86567 28.79 1.87782 28.7234 1.90362C28.6567 1.92942 28.596 1.96835 28.5447 2.0181C28.4934 2.06785 28.4526 2.1274 28.4247 2.19322C28.3969 2.25904 28.3826 2.32978 28.3826 2.40124C28.3417 2.29847 28.2656 2.21356 28.168 2.16167C28.0703 2.10978 27.9573 2.09427 27.8493 2.11791C27.7403 2.14841 27.6406 2.2055 27.5592 2.28404C27.4777 2.36259 27.4171 2.46013 27.3826 2.56791C27.2833 3.15124 27.2442 3.74324 27.2659 4.33457L27.0326 5.35124C26.9457 5.72374 26.89 6.10283 26.8659 6.48457ZM28.2493 5.80124C28.2493 5.80124 28.5159 2.70124 28.5159 2.58457C28.558 2.68265 28.6276 2.76638 28.7164 2.82556C28.8052 2.88475 28.9092 2.91683 29.0159 2.91791C30.5159 2.91791 31.1493 3.20124 31.3159 3.78457C31.3701 4.84499 31.2973 5.90808 31.0993 6.95124C31.1038 7.59649 31.0311 8.23995 30.8826 8.86791C30.7659 9.26791 30.6159 9.66791 30.1993 9.76791C30.0367 9.84157 29.8596 9.87801 29.6812 9.87459C29.5027 9.87117 29.3272 9.82796 29.1675 9.74812C29.0078 9.66828 28.868 9.55382 28.7581 9.41308C28.6483 9.27234 28.5713 9.10887 28.5326 8.93457C28.2677 7.91261 28.172 6.85415 28.2493 5.80124Z" fill="#2F4027"/>
    <path d="M32.7326 4.55124C32.7512 4.2748 32.725 3.99749 32.6549 3.73073L32.5694 3.46684C32.4701 3.20775 32.3296 2.96704 32.1535 2.75417L31.9659 2.55124C31.0774 1.94849 29.9937 1.70436 28.9326 1.86791C28.8612 1.86567 28.79 1.87782 28.7234 1.90362L28.6282 1.95176C28.5983 1.97092 28.5703 1.99325 28.5447 2.0181L28.4752 2.09987C28.4553 2.12892 28.4385 2.16067 28.4247 2.19322C28.3969 2.25904 28.3826 2.32978 28.3826 2.40124C28.3417 2.29847 28.2656 2.21356 28.168 2.16167C28.0703 2.10978 27.9573 2.09427 27.8493 2.11791C27.7403 2.14841 27.6406 2.2055 27.5592 2.28404C27.4777 2.36259 27.4171 2.46013 27.3826 2.56791L27.3196 3.00645C27.2676 3.44691 27.2496 3.89092 27.2659 4.33457L27.0326 5.35124C26.9457 5.72374 26.89 6.10283 26.8659 6.48457C26.6777 7.74824 26.8154 9.03905 27.2659 10.2346C27.5672 10.8207 28.0724 11.2765 28.6864 11.5159C29.3004 11.7554 29.9807 11.762 30.5993 11.5346C30.9148 11.4581 31.2124 11.3235 31.4765 11.138L31.7288 10.9354C31.9691 10.7169 32.1654 10.4558 32.3082 10.1663L32.4326 9.86791C32.7052 8.93265 32.8068 7.9559 32.7326 6.98457V4.55124ZM28.5159 2.58457C28.558 2.68265 28.6276 2.76638 28.7164 2.82556C28.8052 2.88475 28.9092 2.91683 29.0159 2.91791C30.5159 2.91791 31.1493 3.20124 31.3159 3.78457C31.3701 4.84499 31.2973 5.90808 31.0993 6.95124C31.1038 7.59649 31.0311 8.23995 30.8826 8.86791C30.7659 9.26791 30.6159 9.66791 30.1993 9.76791C30.0367 9.84157 29.8596 9.87801 29.6812 9.87459L29.6877 9.54128C29.8166 9.54372 29.9447 9.51795 30.0621 9.46478L30.0914 9.45176L30.1207 9.44362C30.3252 9.39453 30.4355 9.20437 30.5585 8.78607C30.7001 8.18558 30.7695 7.57034 30.7652 6.95339V6.92084L30.7717 6.88828C30.9617 5.88714 31.0315 4.86732 30.9833 3.84955C30.9293 3.68698 30.816 3.54934 30.5438 3.44264C30.2362 3.32216 29.7531 3.25059 29.0155 3.25059H29.0123C28.9402 3.24984 28.8697 3.23757 28.8007 3.21966C28.7762 3.5187 28.7458 3.89342 28.7144 4.26458C28.6811 4.65953 28.6483 5.05117 28.6233 5.34369C28.6108 5.48984 28.5996 5.6119 28.5924 5.69688C28.5887 5.73886 28.5862 5.77191 28.5842 5.79453C28.5833 5.80568 28.5831 5.81471 28.5826 5.82057C28.5824 5.82325 28.5811 5.82561 28.581 5.82709V5.83034C28.5162 6.71851 28.5787 7.61089 28.7665 8.48008L28.856 8.85117L28.8577 8.86257C28.8855 8.98822 28.9413 9.1061 29.0204 9.20762C29.0997 9.30926 29.2013 9.39247 29.3166 9.45013C29.4319 9.50776 29.5589 9.53881 29.6877 9.54128L29.6812 9.87459L29.5478 9.86517C29.4157 9.84782 29.2872 9.80797 29.1675 9.74812C29.048 9.68831 28.9392 9.60871 28.8463 9.51361L28.7581 9.41308C28.6483 9.27234 28.5713 9.10887 28.5326 8.93457C28.2677 7.91261 28.172 6.85415 28.2493 5.80124C28.2515 5.7753 28.5155 2.70602 28.5159 2.58457ZM33.0666 6.98431C33.1402 7.98733 33.0339 8.99552 32.7525 9.9612L32.7476 9.97748C32.5879 10.4391 32.3148 10.8533 31.9534 11.1819C31.6009 11.5023 31.1742 11.728 30.7131 11.846C30.0184 12.1013 29.2543 12.0954 28.5647 11.8264C27.8753 11.5574 27.308 11.0457 26.9696 10.3876L26.9534 10.3518C26.4829 9.10339 26.3402 7.75538 26.5367 6.43581C26.5628 6.04506 26.6186 5.65675 26.7076 5.27533L26.9306 4.29714C26.9167 3.85287 26.9372 3.40844 26.9892 2.96738L27.0575 2.48887L27.0657 2.46608C27.1169 2.30603 27.2068 2.16123 27.3277 2.04453C27.4488 1.92778 27.5971 1.84255 27.759 1.79714L27.7785 1.79225L27.9185 1.77435C28.0357 1.76988 28.1518 1.79346 28.2603 1.83945C28.2776 1.8193 28.2933 1.79778 28.3124 1.77923C28.3958 1.69839 28.4954 1.63399 28.6037 1.59206C28.6927 1.55771 28.787 1.54372 28.8821 1.53998C29.8831 1.38574 30.903 1.56617 31.7841 2.04942L32.1535 2.27565L32.178 2.29193L32.1975 2.31146C32.4973 2.60298 32.7314 2.95774 32.8811 3.34824C33.0279 3.7315 33.0894 4.14153 33.065 4.55104L33.0666 6.98431Z" fill="#2F4027"/>
    <path d="M14.8493 5.96791C14.8493 6.13457 14.9659 6.30124 15.6159 6.36791C16.5493 6.36791 16.9493 6.66791 18.2326 6.73457H22.4159C23.5659 6.73457 24.2659 6.63457 25.4326 6.55124C25.9826 6.55124 26.4159 5.48457 25.6826 5.30124C24.4159 5.25124 23.5493 5.03457 22.2659 5.03457H18.9326C17.902 5.03117 16.8722 5.0924 15.8493 5.21791C15.1493 5.26791 14.8326 5.71791 14.8493 5.96791Z" fill="#2F4027"/>
    <path d="M22.2656 4.70078L22.2659 5.03457H18.9326C17.902 5.03117 16.8722 5.0924 15.8493 5.21791C15.1493 5.26791 14.8326 5.71791 14.8493 5.96791C14.8493 6.13457 14.9659 6.30124 15.6159 6.36791C16.4325 6.36791 16.8409 6.59738 17.7897 6.69948L18.2326 6.73457H22.4159C23.5659 6.73457 24.2659 6.63457 25.4326 6.55124C25.9479 6.55081 26.3612 5.61377 25.8073 5.34531L25.6826 5.30124C24.4159 5.25124 23.5493 5.03457 22.2659 5.03457L22.2656 4.70078C22.9267 4.70078 23.4803 4.75723 24.0186 4.81797C24.4233 4.86364 24.8167 4.9119 25.249 4.94329L25.695 4.96771L25.7308 4.96933L25.7634 4.97747C26.0374 5.04597 26.2373 5.212 26.3363 5.44297C26.4291 5.6596 26.4167 5.89346 26.3591 6.08913C26.3008 6.28683 26.1881 6.47678 26.0384 6.62135C25.8939 6.7609 25.6927 6.87509 25.4541 6.88177L25.4557 6.8834C24.3096 6.96528 23.5809 7.06732 22.4154 7.06732H18.2145C17.5454 7.0325 17.1027 6.93695 16.7204 6.85247C16.3438 6.76924 16.0417 6.7011 15.6153 6.7011H15.599L15.5827 6.69948C15.2443 6.66476 14.9877 6.60027 14.8096 6.48626C14.7146 6.42534 14.6357 6.34615 14.5833 6.247C14.5355 6.15603 14.5222 6.06543 14.5199 5.98821L14.5166 5.98984C14.4994 5.73042 14.6459 5.4643 14.8568 5.27207C15.0776 5.07086 15.3978 4.92069 15.8089 4.88795C16.8451 4.76083 17.8884 4.69902 18.9323 4.70241L22.2656 4.70078Z" fill="#2F4027"/>
    <path d="M38.9326 6.81791C38.3702 6.20605 37.6298 5.78629 36.8159 5.61791C36.0446 5.41391 35.2456 5.33512 34.4493 5.38457C33.2659 5.55124 33.5826 6.36791 34.1993 6.36791C34.7577 6.36231 35.3155 6.40693 35.8659 6.50124C36.6973 6.5606 37.4763 6.92927 38.0493 7.53457C38.4377 8.31355 38.6591 9.16507 38.6993 10.0346C38.8659 11.3346 38.9993 13.0179 39.0826 14.8679C36.6326 14.8679 31.7159 14.6679 26.1993 14.5679H20.5493H14.8993C8.93261 14.6179 3.74927 14.8179 2.11594 14.8846C2.10536 12.37 2.36237 9.86143 2.88261 7.40124C3.04656 7.10025 3.28695 6.8478 3.57955 6.66931C3.87215 6.49083 4.20663 6.39261 4.54927 6.38457C5.24149 6.21614 5.95443 6.14877 6.66594 6.18457C6.76015 6.16836 6.84675 6.12257 6.91319 6.05383C6.97962 5.9851 7.02244 5.89699 7.03544 5.80228C7.04844 5.70758 7.03094 5.61119 6.98548 5.52709C6.94002 5.443 6.86897 5.37557 6.78261 5.33457C5.75014 5.11092 4.68175 5.11092 3.64927 5.33457C3.24031 5.43297 2.85937 5.62386 2.53576 5.89258C2.21214 6.16129 1.95449 6.50066 1.78261 6.88457C1.13261 8.41791 0.465941 16.8846 0.615941 24.3846C0.732607 29.8346 1.38261 34.7179 2.58261 36.1846C3.46594 37.2512 5.76594 37.8512 8.66594 38.0846C13.1826 38.3846 19.1826 37.8846 22.2826 37.8846C26.1757 38.0078 30.0727 37.8798 33.9493 37.5012C35.6968 37.3494 37.3966 36.8508 38.9493 36.0346C39.4015 35.6512 39.7028 35.1195 39.7993 34.5346C40.3927 31.112 40.6606 27.641 40.5993 24.1679C40.5993 16.7012 39.9826 8.05124 38.9326 6.81791ZM38.5159 32.5846C38.423 33.316 38.2383 34.0327 37.9659 34.7179C36.1008 35.4986 34.1042 35.9171 32.0826 35.9512C28.1826 36.2679 23.8826 36.1179 22.2826 36.1179C19.2159 36.1179 13.2659 36.6346 8.78261 36.3679C6.48261 36.2346 4.58261 36.0012 3.88261 35.1679C2.74927 33.8512 2.26594 29.3679 2.11594 24.4179C2.00514 21.5692 1.99402 18.7174 2.08261 15.8679C3.74927 15.8679 8.83261 16.1346 14.8993 16.2512H26.1993C31.7493 16.1512 36.6826 16.0012 39.1159 15.9346C39.1159 17.6012 39.1993 19.4846 39.1159 21.3179C39.1493 25.0823 38.949 28.8451 38.5159 32.5846Z" fill="#2F4027"/>
    <path d="M3.57798 5.00895C4.65682 4.77525 5.77387 4.77531 6.85272 5.00895L6.89015 5.01709L6.92596 5.03337C7.07615 5.10474 7.20007 5.22236 7.27915 5.36865C7.35813 5.51487 7.38793 5.68253 7.36542 5.84717C7.34279 6.01203 7.26785 6.16534 7.1522 6.28499C7.03658 6.40458 6.88644 6.48463 6.72251 6.51286L6.6867 6.51937L6.64927 6.51774C5.96988 6.48356 5.28875 6.54734 4.62779 6.70817L4.59361 6.71631L4.5578 6.71794C4.27389 6.7246 3.99624 6.80613 3.75376 6.95394C3.52263 7.09493 3.33229 7.29276 3.19712 7.52686C2.71346 9.83283 2.46499 12.1813 2.45168 14.5369C4.39179 14.4598 9.29955 14.2811 14.8963 14.2342H20.549L20.5493 14.5679H14.8993C8.93261 14.6179 3.74927 14.8179 2.11594 14.8846C2.10536 12.37 2.36237 9.86143 2.88261 7.40124C3.00544 7.17575 3.1712 6.97754 3.36965 6.81722L3.57955 6.66931C3.79892 6.53552 4.0419 6.44645 4.29413 6.40706L4.54927 6.38457C5.24149 6.21614 5.95443 6.14877 6.66594 6.18457C6.7133 6.17642 6.75872 6.16077 6.80064 6.13851L6.91319 6.05383C6.97962 5.9851 7.02244 5.89699 7.03544 5.80228C7.04189 5.75486 7.04028 5.70649 7.03176 5.65999L6.98548 5.52709C6.96278 5.48513 6.9341 5.44667 6.89992 5.41423L6.78261 5.33457C5.75014 5.11092 4.68175 5.11092 3.64927 5.33457L3.34849 5.42562C3.05369 5.53338 2.77845 5.6911 2.53576 5.89258L2.30519 6.10759C2.08855 6.33411 1.91138 6.59711 1.78261 6.88457L1.66066 7.25179C1.05244 9.47333 0.47537 17.3539 0.615941 24.3846C0.732607 29.8346 1.38261 34.7179 2.58261 36.1846C3.46594 37.2512 5.76594 37.8512 8.66594 38.0846C13.1826 38.3846 19.1826 37.8846 22.2826 37.8846C26.1757 38.0078 30.0727 37.8798 33.9493 37.5012C35.6968 37.3494 37.3966 36.8508 38.9493 36.0346C39.4015 35.6512 39.7028 35.1195 39.7993 34.5346C40.3927 31.112 40.6606 27.641 40.5993 24.1679C40.5993 16.7012 39.9826 8.05124 38.9326 6.81791C38.3702 6.20605 37.6298 5.78629 36.8159 5.61791C36.0446 5.41391 35.2456 5.33512 34.4493 5.38457L34.2453 5.42236C33.3064 5.64922 33.621 6.36791 34.1993 6.36791C34.7577 6.36231 35.3155 6.40693 35.8659 6.50124C36.6973 6.5606 37.4763 6.92927 38.0493 7.53457C38.4377 8.31355 38.6591 9.16507 38.6993 10.0346C38.8659 11.3346 38.9993 13.0179 39.0826 14.8679C36.6326 14.8679 31.7159 14.6679 26.1993 14.5679H20.5493L20.549 14.2342H26.2049C31.4824 14.3299 36.1823 14.5119 38.7294 14.5288C38.6457 12.8249 38.5225 11.2823 38.368 10.0773L38.3664 10.0643V10.0496C38.3291 9.24503 38.1264 8.45739 37.7739 7.73356C37.2613 7.20799 36.5753 6.88586 35.842 6.8335L35.8094 6.83024C35.2789 6.73935 34.7413 6.69629 34.203 6.70166H34.1997C33.7682 6.70166 33.333 6.40653 33.3159 5.95134C33.3072 5.71522 33.4223 5.50037 33.6187 5.34587C33.808 5.19716 34.0736 5.10094 34.4032 5.05453L34.4292 5.05127C35.2609 4.99969 36.0959 5.08234 36.9016 5.29541C37.6672 5.45696 38.3709 5.82317 38.9409 6.35335L39.1786 6.59261L39.1867 6.60238C39.3633 6.81 39.5033 7.13433 39.6229 7.51058C39.746 7.8977 39.859 8.38047 39.9631 8.93799C40.1713 10.054 40.3489 11.496 40.492 13.1258C40.7783 16.3858 40.933 20.423 40.9331 24.1626L40.9396 25.4728C40.9212 28.5289 40.6498 31.5796 40.1275 34.5923C40.0175 35.2536 39.6768 35.8545 39.1655 36.2882L39.1362 36.3127L39.1037 36.3289C37.5125 37.1654 35.7709 37.6754 33.98 37.8312L33.9816 37.8328C30.0942 38.2125 26.1864 38.3401 22.2824 38.217C20.7402 38.217 18.4811 38.3423 16.0178 38.4302C13.5644 38.5177 10.9196 38.5684 8.64308 38.4172H8.63983C7.17669 38.2994 5.85086 38.0876 4.77264 37.7661C3.70517 37.4478 2.83183 37.0075 2.32635 36.3973L2.32472 36.3957C1.98382 35.979 1.70262 35.3499 1.46698 34.5874C1.22916 33.8178 1.02815 32.8823 0.863136 31.8302C0.533026 29.7255 0.340624 27.1263 0.282082 24.3921C0.206895 20.6313 0.337127 16.6278 0.566912 13.3732C0.681779 11.7464 0.822695 10.303 0.975441 9.16748C1.12605 8.04804 1.29229 7.18502 1.47512 6.75374L1.47837 6.74886L1.64113 6.43473C1.82063 6.13228 2.05118 5.86137 2.3231 5.63558C2.68584 5.33449 3.11312 5.12086 3.57147 5.01058L3.57798 5.00895ZM2.08261 15.8679C3.33262 15.8679 6.50455 16.0175 10.5718 16.1418L14.8993 16.2512H26.1993C31.7493 16.1512 36.6826 16.0012 39.1159 15.9346C39.1159 17.6012 39.1993 19.4846 39.1159 21.3179C39.1493 25.0823 38.949 28.8451 38.5159 32.5846C38.423 33.316 38.2383 34.0327 37.9659 34.7179C36.1008 35.4986 34.1042 35.9171 32.0826 35.9512C28.1826 36.2679 23.8826 36.1179 22.2826 36.1179C19.4075 36.1179 13.9982 36.5717 9.63918 36.4087L8.78261 36.3679C6.48261 36.2346 4.58261 36.0012 3.88261 35.1679C2.89098 34.0159 2.39652 30.4396 2.18801 26.2476L2.11594 24.4179C2.00514 21.5692 1.99402 18.7174 2.08261 15.8679ZM2.40773 16.2052C2.3503 18.2274 2.3417 20.2506 2.38495 22.2729L2.44842 24.4051V24.4084C2.52325 26.8772 2.68106 29.2205 2.95949 31.106C3.09879 32.0491 3.26841 32.8714 3.46893 33.5327C3.6716 34.201 3.89729 34.6744 4.13462 34.9504L4.13788 34.9536C4.41091 35.2786 4.96231 35.5271 5.80129 35.7039C6.62491 35.8775 7.65411 35.9678 8.80259 36.0343C11.0263 36.1666 13.6203 36.1057 16.0503 36.0099C18.4705 35.9145 20.7404 35.7853 22.2824 35.7853C23.8994 35.7853 28.1741 35.9345 32.0562 35.6193L32.0773 35.6177L32.8179 35.5884C34.4958 35.4802 36.1447 35.0965 37.704 34.4604C37.9374 33.843 38.1006 33.2015 38.1841 32.5464L38.3355 31.1483C38.6623 27.8833 38.8122 24.6026 38.7831 21.3208V21.3029C38.8605 19.6003 38.7957 17.8707 38.7863 16.2752C36.2531 16.3457 31.5104 16.4889 26.2049 16.5845H14.8931C9.15469 16.4741 4.34261 16.2331 2.40773 16.2052Z" fill="#2F4027"/>
    <path d="M8.06594 6.43457C7.93767 7.76914 8.06782 9.11593 8.44927 10.4012C8.7505 10.9874 9.25571 11.4432 9.8697 11.6826C10.4837 11.9221 11.1641 11.9287 11.7826 11.7012C12.2071 11.6033 12.5996 11.3989 12.9233 11.1073C13.2469 10.8157 13.491 10.4465 13.6326 10.0346C13.9161 9.09006 14.0179 8.10035 13.9326 7.11791V4.68457C13.9553 4.31577 13.8986 3.94639 13.7663 3.60137C13.6341 3.25635 13.4293 2.94372 13.1659 2.68457C12.2804 2.07445 11.1959 1.82417 10.1326 1.98457C9.98674 1.98457 9.84684 2.04252 9.7437 2.14566C9.64055 2.24881 9.58261 2.3887 9.58261 2.53457C9.54171 2.4318 9.46563 2.3469 9.36795 2.295C9.27027 2.24311 9.15733 2.2276 9.04927 2.25124C8.94031 2.28175 8.84063 2.33883 8.75918 2.41738C8.67773 2.49592 8.61705 2.59346 8.58261 2.70124C8.45748 3.24863 8.38492 3.80672 8.36594 4.36791L8.18261 5.25124V5.68457L8.06594 6.43457ZM9.43261 5.95124C9.43261 5.95124 9.69927 2.86791 9.69927 2.73457C9.73679 2.83706 9.80485 2.92558 9.89426 2.98816C9.98367 3.05075 10.0901 3.0844 10.1993 3.08457C11.6993 3.08457 12.3326 3.36791 12.4993 3.95124C12.5479 5.01232 12.4696 6.07541 12.2659 7.11791C12.2674 7.76299 12.1947 8.4061 12.0493 9.03457C11.9493 9.41791 11.7993 9.81791 11.3826 9.9179C11.22 9.99156 11.043 10.028 10.8645 10.0246C10.686 10.0212 10.5105 9.97796 10.3508 9.89812C10.1912 9.81828 10.0513 9.70382 9.94147 9.56308C9.83163 9.42234 9.75459 9.25886 9.71594 9.08457C9.44801 8.06313 9.35225 7.00417 9.43261 5.95124Z" fill="#2F4027"/>
    <path d="M7.84881 5.21682L7.85694 5.18427L8.03435 4.32164C8.05584 3.75117 8.13013 3.18388 8.25734 2.62731L8.26059 2.61266L8.26547 2.59964C8.31667 2.43958 8.40663 2.29481 8.52752 2.17809C8.64854 2.06139 8.79697 1.97612 8.95883 1.93069L8.97836 1.92581C9.13945 1.89062 9.30586 1.90818 9.45688 1.97138C9.47386 1.95101 9.48844 1.92844 9.50733 1.90953C9.66132 1.75555 9.86722 1.66935 10.0835 1.65725C11.0869 1.506 12.1078 1.69127 12.9872 2.18134L13.355 2.41083L13.3794 2.42711L13.3989 2.44664C13.6963 2.73918 13.9283 3.09234 14.0776 3.4818C14.2245 3.86499 14.2871 4.27497 14.2648 4.6846L14.2664 7.11787C14.3509 8.13286 14.2451 9.15488 13.9523 10.1306L13.9474 10.1436C13.7875 10.6086 13.512 11.0253 13.1467 11.3545C12.781 11.684 12.3372 11.916 11.8576 12.0267C11.1733 12.2677 10.425 12.2565 9.74822 11.9925C9.05876 11.7235 8.49151 11.212 8.15317 10.5537L8.13852 10.5261L8.13038 10.4968C7.73679 9.17059 7.6026 7.78036 7.73487 6.40335L7.7365 6.38382L7.84881 5.66441V5.21682ZM11.9325 7.11787V7.08531L11.939 7.05439C12.1344 6.05403 12.2097 5.0339 12.1668 4.01565C12.1127 3.85329 11.9993 3.71534 11.7274 3.60875C11.4969 3.51846 11.1677 3.45697 10.7069 3.43134L10.1991 3.41832C10.1255 3.41821 10.053 3.40571 9.9826 3.3874C9.95827 3.68528 9.92893 4.05511 9.89796 4.42093C9.86464 4.8145 9.83181 5.20401 9.80681 5.49514C9.79433 5.64054 9.78318 5.76212 9.77589 5.84671C9.77224 5.88901 9.76971 5.92336 9.76775 5.94599C9.76684 5.95649 9.76662 5.96471 9.76612 5.9704C9.76591 5.97286 9.76462 5.97547 9.7645 5.97691L9.74334 6.35777C9.71262 7.24722 9.81184 8.13719 10.0379 8.99938L10.0412 9.0124L10.103 9.19469C10.1303 9.25241 10.1645 9.3068 10.2039 9.35745C10.2833 9.45909 10.3848 9.5423 10.5002 9.59996C10.6154 9.65756 10.7424 9.68864 10.8713 9.69111L10.8645 10.0246L10.7313 10.015C10.5992 9.99766 10.4706 9.958 10.3508 9.89812C10.2313 9.8383 10.1228 9.75855 10.0298 9.66344L9.94147 9.56308C9.83163 9.42234 9.75459 9.25886 9.71594 9.08457C9.44801 8.06313 9.35225 7.00417 9.43261 5.95124C9.43586 5.91363 9.69907 2.86927 9.69927 2.73457C9.73679 2.83706 9.80485 2.92558 9.89426 2.98816C9.98367 3.05075 10.0901 3.0844 10.1993 3.08457C11.6993 3.08457 12.3326 3.36791 12.4993 3.95124C12.5479 5.01232 12.4696 6.07541 12.2659 7.11791L12.2531 7.60126C12.2265 8.0837 12.1583 8.56325 12.0493 9.03457C11.9493 9.41791 11.7993 9.81791 11.3826 9.9179C11.22 9.99156 11.043 10.028 10.8645 10.0246L10.8713 9.69111C11 9.69352 11.1283 9.66776 11.2456 9.61461L11.2733 9.60159L11.3042 9.59345C11.5075 9.54465 11.6205 9.35265 11.7241 8.95869C11.8637 8.3553 11.9339 7.73719 11.9325 7.11787ZM8.18261 5.68457L8.06594 6.43457C7.93767 7.76914 8.06782 9.11593 8.44927 10.4012C8.7505 10.9874 9.25571 11.4432 9.8697 11.6826C10.4837 11.9221 11.1641 11.9287 11.7826 11.7012C12.101 11.6277 12.4013 11.4941 12.6681 11.3089L12.9233 11.1073C13.1658 10.8887 13.3645 10.6267 13.508 10.3356L13.6326 10.0346C13.9161 9.09006 14.0179 8.10035 13.9326 7.11791V4.68457C13.9496 4.40797 13.9221 4.13101 13.8514 3.86428L13.7663 3.60137C13.6672 3.34287 13.5265 3.1026 13.3517 2.88935L13.1659 2.68457C12.2804 2.07445 11.1959 1.82417 10.1326 1.98457C9.98674 1.98457 9.84684 2.04252 9.7437 2.14566C9.64055 2.24881 9.58261 2.3887 9.58261 2.53457C9.54171 2.4318 9.46563 2.3469 9.36795 2.295C9.27027 2.24311 9.15733 2.2276 9.04927 2.25124C8.94031 2.28175 8.84063 2.33883 8.75918 2.41738C8.67773 2.49592 8.61705 2.59346 8.58261 2.70124L8.49822 3.11396C8.42422 3.52781 8.3802 3.94737 8.36594 4.36791L8.18261 5.25124V5.68457Z" fill="#2F4027"/>
</svg>