<svg xmlns="http://www.w3.org/2000/svg" width="41" height="40" viewBox="0 0 41 40" fill="none">
    <path d="M34.3766 27.1551C33.8099 26.1385 32.9266 25.3218 32.0266 24.5885C30.3433 23.2051 28.5266 21.9552 26.6433 20.8552C27.7766 21.3385 28.9433 21.7385 30.1433 22.0385C31.4266 22.3718 32.7766 22.5885 34.0933 22.4218C35.4099 22.2551 36.7099 21.6551 37.5433 20.6051C37.9933 20.0385 38.2766 19.2718 38.0266 18.5885C37.7099 17.7718 36.76 17.4218 35.8933 17.2718C32.8933 16.7718 29.8266 17.5218 26.8766 18.2551L26.6766 18.6218C26.7099 18.2718 26.6766 17.9218 26.5933 17.6051C28.7599 17.0385 30.5599 15.2385 32.0433 13.4551C32.8766 12.4551 33.7266 11.1551 33.2599 9.93848C33.1433 9.63848 32.9433 9.35515 32.6433 9.23848C32.0599 9.00515 31.4433 9.42182 30.9766 9.83848C28.8766 11.7052 27.0433 13.8718 25.5599 16.2551C25.5266 16.2385 25.4933 16.2218 25.4599 16.2051C26.0266 14.5385 26.5933 12.8551 27.1599 11.1885C27.8599 9.08848 28.5766 6.78848 27.8099 4.72182C27.6933 4.42182 27.5433 4.10515 27.26 3.95515C26.6433 3.62182 25.9266 4.18848 25.4933 4.73848C23.5599 7.15514 22.3099 10.0885 21.8766 13.1385C21.7599 10.5551 21.3599 7.98849 20.0266 5.80515C19.7266 5.30515 19.3099 4.80515 18.7433 4.70515C18.1766 4.60515 17.61 4.92181 17.26 5.35515C16.6766 6.07181 16.5599 7.05515 16.5099 7.98848C16.4099 10.1218 16.6266 12.2718 17.1099 14.3551C16.3766 12.2385 15.2266 10.3051 13.4599 8.98848C13.2099 8.80515 12.9433 8.62181 12.6266 8.57181C11.8266 8.43848 11.11 9.22182 11.01 10.0218C10.9266 10.8218 11.2933 11.6051 11.6933 12.3051C12.8766 14.3551 14.4766 16.1551 16.3599 17.6051C16.2266 17.7218 16.1099 17.8385 15.9933 17.9551C13.8433 16.1051 10.9433 15.1218 8.10994 15.3051C6.67661 15.4051 5.12661 15.8551 4.29327 17.0218C3.89327 17.5718 3.70994 18.3552 4.10994 18.8885C4.42661 19.3052 4.97661 19.4218 5.49328 19.5051C8.67661 20.0218 11.9266 20.1885 15.1599 19.9885C12.9266 20.3051 10.7099 20.7885 8.69327 21.7718C6.55994 22.8051 4.65994 24.4218 3.64327 26.5718C3.54327 26.7885 3.44328 27.0218 3.49328 27.2718C3.52661 27.4551 3.65995 27.6218 3.80995 27.7385C4.64328 28.4551 5.89328 28.3551 6.95995 28.0718C9.29328 27.4718 11.4099 26.2385 13.2766 24.6885C12.7266 25.3218 12.2099 25.9551 11.7099 26.6051C11.0099 27.5218 10.3266 28.5218 10.1766 29.6718C10.1433 29.9718 10.1599 30.2885 10.2433 30.5718L10.3599 30.8885C10.4766 31.1051 10.6266 31.2718 10.8599 31.3885C11.6433 31.7718 12.51 31.1051 13.0933 30.4718C15.3099 28.0385 17.1766 25.2885 18.5933 22.3218C18.6599 22.3218 18.7433 22.3385 18.81 22.3552H18.6099C17.9266 24.4552 17.5266 26.6718 17.6766 28.8718C17.8266 31.0718 18.5433 33.2718 19.9266 35.0051C20.1933 35.3385 20.6266 35.6718 20.9933 35.4718C21.1599 35.3885 21.2599 35.2051 21.3266 35.0385C22.8766 31.7885 22.5599 27.9551 21.6933 24.4718C21.5266 23.8051 21.3433 23.1552 21.31 22.4718H21.2433C21.3599 22.4718 21.4599 22.4551 21.5766 22.4385C22.3266 25.6718 24.1099 29.5051 26.5099 31.7218C27.0099 32.1885 27.7266 32.6552 28.3433 32.3552C28.8599 32.1052 29.0266 31.4218 28.9766 30.8552C28.8766 29.9552 28.3933 29.1385 27.9266 28.3552C26.7099 26.3552 25.1766 23.8718 23.9266 21.8385C24.0266 21.8051 24.1099 21.7551 24.2099 21.7218C25.2099 22.9885 26.2599 24.2051 27.3599 25.3718C29.0433 27.1218 31.0933 28.8551 33.5266 28.9051C33.8933 28.9051 34.2933 28.8552 34.5099 28.5885C34.8266 28.2218 34.6599 27.6551 34.4266 27.2218L34.3766 27.1551ZM21.4599 21.2885C20.2266 21.4551 18.8266 21.4385 17.6599 21.0051C17.0099 20.7718 16.2599 20.2885 16.2933 19.5051C16.3099 18.7885 16.9766 18.2385 17.4933 17.8385C17.5933 17.7551 17.6933 17.6885 17.7933 17.6218C19.5433 16.9718 21.4266 16.5051 23.2766 16.7051L25.3933 17.7885C25.3933 17.7885 25.4599 17.7885 25.4933 17.7885C25.5433 17.8718 25.5766 17.9718 25.5933 18.0718C25.76 18.6885 25.4433 19.3718 25.0266 19.8218C24.1599 20.7551 22.6933 21.1218 21.4599 21.3051V21.2885Z" fill="#FF5500"/>
</svg>