<svg xmlns="http://www.w3.org/2000/svg" width="31" height="29" viewBox="0 0 31 29" fill="none">
    <g opacity="0.3">
        <path d="M23.9802 12.508C22.1914 11.5923 20.2172 10.9702 18.2082 10.8216C17.259 10.7514 16.2858 10.8117 15.3695 11.0799C14.9397 11.2058 14.5235 11.3844 14.134 11.6092C14.0723 11.5998 14.0086 11.6103 13.9559 11.647C13.567 11.9179 13.1867 12.1895 12.8408 12.5153C12.5475 12.7916 12.2904 13.0977 12.0515 13.4216C11.517 14.1468 11.1005 14.9358 10.8372 15.7994C10.5536 16.7292 10.416 17.7072 10.3404 18.675C10.265 19.6413 10.273 20.6141 10.364 21.5794C10.4119 22.0846 10.4805 22.5881 10.5732 23.0871C10.6683 23.5988 10.7922 24.1066 10.9917 24.5889C11.3324 25.4129 11.8947 26.097 12.6526 26.5712C13.3357 26.9986 14.156 27.2379 14.9608 27.2438C15.8108 27.2499 16.6164 26.9701 17.3065 26.4806C18.0445 25.9571 18.6306 25.2655 19.2171 24.5846C19.5084 24.2466 19.8015 23.9093 20.1186 23.595C20.4354 23.2804 20.7289 23.0277 21.0983 22.7992C21.9487 22.2732 22.9519 22.1885 23.9089 21.9793C24.938 21.7542 25.973 21.4277 26.8563 20.8386C27.5791 20.3569 28.19 19.6922 28.5381 18.8893C28.8852 18.0883 28.9709 17.1817 28.6424 16.3572C28.2565 15.3889 27.4728 14.6815 26.6379 14.0939C25.7967 13.5018 24.8953 12.9763 23.9802 12.508Z" fill="#95BB93"/>
        <path d="M8.38788 6.94022C6.38341 5.43416 3.85546 5.45496 2.74157 6.98657C1.62769 8.51848 2.34992 10.9812 4.35439 12.4873C6.35886 13.9934 8.8868 13.9726 10.0007 12.441C11.1146 10.909 10.3926 8.44628 8.38788 6.94022Z" fill="#95BB93"/>
        <path d="M14.9383 8.80614C16.5913 7.91371 16.9789 5.37574 15.8037 3.13772C14.6288 0.899381 12.3365 -0.191487 10.6835 0.700941C9.03048 1.59337 8.64294 4.13134 9.81809 6.36936C10.9929 8.6074 13.2855 9.69824 14.9386 8.80581L14.9383 8.80614Z" fill="#95BB93"/>
        <path d="M4.60812 14.562C2.42507 14.0142 0.382896 14.9328 0.0470639 16.6139C-0.288768 18.2949 1.20859 20.102 3.39194 20.6499C5.57499 21.1977 7.61716 20.2791 7.953 18.598C8.28883 16.9169 6.79147 15.1099 4.60812 14.562Z" fill="#95BB93"/>
        <path d="M22.1216 8.99388C23.7833 8.6988 24.7332 6.64996 24.2432 4.41733C23.7532 2.18471 22.0091 0.61405 20.3473 0.908839C18.6856 1.20392 17.7358 3.25276 18.2258 5.48538C18.7158 7.71801 20.4599 9.28867 22.1216 8.99388Z" fill="#95BB93"/>
    </g>
</svg>