<svg xmlns="http://www.w3.org/2000/svg" width="42" height="28" viewBox="0 0 42 28" fill="none">
    <path fill-rule="evenodd" clip-rule="evenodd" d="M29.0757 4.78032C29.0591 5.02449 29.0591 5.26949 29.0757 5.51366C29.1729 6.07581 29.3008 6.6322 29.459 7.18032C29.4633 7.25041 29.4813 7.31897 29.5121 7.38206C29.5429 7.44516 29.5859 7.50155 29.6385 7.54801C29.6912 7.59446 29.7525 7.63006 29.8189 7.65277C29.8854 7.67548 29.9556 7.68484 30.0257 7.68032C30.0972 7.67823 30.1676 7.66176 30.2326 7.63191C30.2976 7.60206 30.356 7.55943 30.4042 7.50655C30.4524 7.45368 30.4895 7.39165 30.5132 7.32415C30.5369 7.25665 30.5469 7.18507 30.5424 7.11366C30.5424 6.54699 30.7424 6.03032 30.809 5.44699C30.8254 5.21394 30.8254 4.98004 30.809 4.74699C30.8254 4.51394 30.8254 4.28004 30.809 4.04699C30.7697 3.72769 30.714 3.41061 30.6424 3.09699C30.209 2.48032 29.759 2.56366 29.2757 3.09699C29.1839 3.37497 29.1115 3.65899 29.059 3.94699C29.0317 4.22445 29.0373 4.50418 29.0757 4.78032Z" fill="#3F593F"/>
    <path d="M29.9633 2.33314C30.3055 2.31771 30.5889 2.49876 30.8194 2.77911L30.9154 2.90606L30.9528 2.95814L30.9675 3.02325C31.0045 3.18521 31.0381 3.34794 31.0668 3.51153L31.14 4.00632L31.1416 4.02422L31.1547 4.39694C31.1547 4.51369 31.1493 4.63033 31.1416 4.74688C31.1575 4.98755 31.1585 5.22892 31.1416 5.46954L31.14 5.48418C31.1043 5.79664 31.0331 6.0954 30.9773 6.35658C30.9197 6.62598 30.8764 6.86756 30.8763 7.11342H30.8747C30.879 7.22238 30.8637 7.33105 30.8275 7.43405C30.7889 7.54374 30.7284 7.64599 30.6501 7.73191C30.5719 7.81752 30.4772 7.88696 30.3718 7.93536C30.2695 7.98231 30.1587 8.00552 30.0463 8.01023L30.0479 8.01348C30.0444 8.01371 30.04 8.01167 30.0365 8.01185L30.0349 8.01348L30.0332 8.01185C29.924 8.01714 29.8146 8.00331 29.711 7.96791C29.6032 7.93105 29.5034 7.87392 29.418 7.79864C29.3325 7.72321 29.263 7.63089 29.2129 7.52846C29.1736 7.44797 29.151 7.36125 29.1381 7.27292L28.92 6.42657C28.8547 6.14286 28.797 5.85742 28.7474 5.57045L28.7442 5.55417L28.7426 5.53627C28.7256 5.28645 28.7268 5.03582 28.7426 4.78594C28.7054 4.49675 28.6993 4.20379 28.7279 3.91355V3.90053L28.7312 3.8875C28.7864 3.58435 28.8624 3.28494 28.959 2.99232L28.9818 2.92559L29.029 2.87351C29.2864 2.58947 29.5986 2.34987 29.9633 2.33314ZM30.642 3.09649C30.2089 2.48064 29.7594 2.56386 29.2764 3.09649C29.1846 3.37447 29.1108 3.65973 29.0583 3.94773C29.0311 4.22493 29.0378 4.50518 29.0762 4.78106C29.0597 5.02494 29.0597 5.2696 29.0762 5.51348C29.1734 6.07555 29.3005 6.63211 29.4587 7.18015C29.4629 7.25023 29.4816 7.31887 29.5124 7.38197C29.5432 7.44506 29.5867 7.50154 29.6394 7.54799C29.6917 7.59409 29.7524 7.6295 29.8184 7.65215C29.8847 7.6748 29.9552 7.68425 30.0251 7.67982C30.0966 7.67773 30.1684 7.66248 30.2334 7.63262C30.2982 7.60284 30.3563 7.5599 30.4043 7.5073C30.4525 7.45442 30.4897 7.39088 30.5134 7.32338C30.5369 7.25609 30.5472 7.18457 30.5427 7.11342C30.5427 6.54684 30.743 6.03 30.8096 5.44675C30.8259 5.21379 30.826 4.97983 30.8096 4.74688C30.826 4.5139 30.826 4.27999 30.8096 4.04701C30.7703 3.72771 30.7137 3.41011 30.642 3.09649Z" fill="#3F593F"/>
    <path fill-rule="evenodd" clip-rule="evenodd" d="M31.2258 21.2637C31.2258 20.5137 31.0092 19.847 30.8925 19.1303C30.8925 19.0021 30.8416 18.8792 30.7509 18.7886C30.6603 18.6979 30.5373 18.647 30.4092 18.647C30.281 18.647 30.158 18.6979 30.0674 18.7886C29.9767 18.8792 29.9258 19.0021 29.9258 19.1303C29.7758 19.747 29.5592 20.3303 29.4425 20.9803V21.7803C29.4254 22.0523 29.4254 22.325 29.4425 22.597C29.4425 22.9803 29.5592 23.347 29.6425 23.7137C30.0925 24.6637 30.7925 24.797 30.9925 23.8303C30.9925 23.4137 31.1258 22.997 31.1758 22.5637C31.2284 22.1325 31.2452 21.6976 31.2258 21.2637Z" fill="#3F593F"/>
    <path d="M30.4091 18.3133C30.6256 18.3134 30.8339 18.3995 30.9869 18.5526C31.1272 18.693 31.2083 18.8798 31.2213 19.0767L31.4296 20.12C31.4992 20.4741 31.5569 20.8483 31.5582 21.2495L31.5664 21.5881C31.5674 21.9274 31.5472 22.2666 31.5061 22.6037C31.4793 22.8352 31.4295 23.0663 31.3922 23.2645C31.3532 23.472 31.3255 23.6555 31.3255 23.8309V23.8651L31.319 23.8976C31.2621 24.1723 31.1618 24.4102 31.0048 24.5796C30.8376 24.7598 30.6131 24.8518 30.3701 24.8221C30.1436 24.7944 29.9425 24.6667 29.7792 24.5047C29.6136 24.3402 29.4658 24.1193 29.3414 23.857L29.3251 23.8228L29.317 23.787C29.2433 23.4629 29.1142 23.0426 29.1103 22.6167C29.0928 22.3381 29.092 22.0588 29.1087 21.7801V20.9501L29.1136 20.9208C29.175 20.5786 29.263 20.2572 29.3512 19.9507C29.4396 19.6432 29.5262 19.3577 29.5986 19.062C29.6147 18.8706 29.6944 18.6895 29.8313 18.5526C29.9845 18.3995 30.1926 18.3133 30.4091 18.3133ZM30.4091 18.647C30.281 18.647 30.158 18.698 30.0673 18.7886C29.9767 18.8792 29.9257 19.0022 29.9257 19.1304C29.7757 19.7471 29.559 20.331 29.4423 20.981V21.7801C29.4253 22.0521 29.4253 22.3252 29.4423 22.5972C29.4424 22.9804 29.5592 23.3471 29.6425 23.7137C30.0924 24.6633 30.7917 24.7968 30.9918 23.8309C30.9918 23.4142 31.1257 22.9963 31.1757 22.563C31.2282 22.1322 31.2455 21.6977 31.2262 21.2642C31.2262 20.5142 31.0092 19.847 30.8925 19.1304C30.8925 19.0023 30.8414 18.8792 30.7509 18.7886C30.6604 18.698 30.5372 18.6471 30.4091 18.647Z" fill="#3F593F"/>
    <path fill-rule="evenodd" clip-rule="evenodd" d="M40.8088 22.4803C40.8088 21.947 40.9588 20.3803 40.8088 19.3803C40.7793 18.9657 40.6476 18.5649 40.4255 18.2137C40.2139 17.9435 39.9467 17.7218 39.6422 17.5637C39.1922 17.297 38.6255 17.097 38.3088 16.897C37.6708 16.4635 37.1078 15.9287 36.6422 15.3137C36.1776 14.7531 35.8673 14.0809 35.7422 13.3637C35.6499 12.751 35.7188 12.1249 35.9422 11.547C36.1691 10.9617 36.5285 10.4369 36.9922 10.0137C37.2255 9.81366 38.7922 9.08032 39.4088 8.68032C39.633 8.54293 39.8214 8.35447 39.9588 8.13032C40.176 7.60071 40.2946 7.03589 40.3088 6.46366C40.3088 5.41366 40.1755 4.21366 40.1422 3.33032C40.1661 2.94736 40.1661 2.56328 40.1422 2.18032C40.1265 1.97664 40.0698 1.77823 39.9755 1.59699C39.8271 1.39354 39.6345 1.22636 39.4123 1.10801C39.19 0.989654 38.9438 0.923207 38.6922 0.913656C37.7255 0.796989 36.0922 1.08032 35.6088 1.01366C34.6475 0.882264 33.679 0.809907 32.7088 0.79699H28.4755C22.1922 0.980323 15.8422 0.530323 9.54216 0.79699C6.81139 0.869768 4.08859 1.1259 1.39216 1.56366C1.30296 1.56059 1.21456 1.58146 1.13615 1.6241C1.05774 1.66673 0.992174 1.72958 0.946254 1.80611C0.900334 1.88265 0.875737 1.97008 0.875016 2.05933C0.874296 2.14858 0.897479 2.23639 0.942157 2.31366C0.952125 2.69385 0.991128 3.07273 1.05882 3.44699C1.25882 4.84699 1.69216 6.63032 1.74216 7.73032V8.78032C1.74943 8.91564 1.79582 9.04593 1.8757 9.1554C1.95557 9.26486 2.06551 9.34879 2.19216 9.39699C3.19564 9.52166 4.13443 9.95899 4.87549 10.647C5.55411 11.3523 6.00176 12.2476 6.15882 13.2137C6.27461 13.8985 6.19965 14.6019 5.94216 15.247C5.73958 15.921 5.31711 16.5078 4.74216 16.9137C4.25969 17.1278 3.76427 17.3115 3.25882 17.4637C3.07019 17.547 2.89584 17.6595 2.74216 17.797C2.55898 17.9981 2.42241 18.2371 2.34216 18.497C2.22549 18.897 2.15882 19.4137 2.10882 19.6637C1.99404 20.2645 1.91059 20.8708 1.85882 21.4803C1.85882 22.4137 1.77549 23.3637 1.85882 24.297C1.83824 24.68 1.83824 25.0639 1.85882 25.447C1.87184 25.6639 1.93456 25.8749 2.04216 26.0637C2.43573 26.5264 2.98912 26.8239 3.59216 26.897C4.59366 27.069 5.60971 27.1416 6.62549 27.1137C7.18059 27.1456 7.73706 27.1456 8.29216 27.1137C8.84216 27.1137 9.40882 27.0137 9.95882 26.9303C11.9313 26.6443 13.9173 26.4607 15.9088 26.3803L24.7422 26.297C27.4588 26.297 30.1922 26.5637 32.9088 26.6803H36.5255C36.8922 26.6803 38.3922 26.7803 39.3088 26.6803C39.7135 26.6865 40.1137 26.5951 40.4755 26.4137C40.8234 26.07 41.0212 25.6026 41.0255 25.1137C41.0075 24.2323 40.9351 23.3528 40.8088 22.4803ZM39.0588 24.8303C38.1588 24.8303 36.6588 24.747 36.3255 24.8303C35.1762 24.8886 34.0248 24.8886 32.8755 24.8303C32.8755 24.8303 27.3255 24.4303 24.5422 24.4803C22.4755 24.4803 20.4088 24.4803 18.3422 24.5803C17.4422 24.5803 16.5422 24.5803 15.6422 24.697L12.6088 24.9137C11.5977 25.0359 10.581 25.1692 9.55882 25.3137C9.04216 25.397 8.52549 25.4803 8.00882 25.5137C7.49216 25.547 6.97549 25.5137 6.45882 25.5137C5.65969 25.5664 4.85795 25.5664 4.05882 25.5137C3.73001 25.5128 3.4055 25.4388 3.10882 25.297V24.247V22.0137C3.1362 21.2814 3.21416 20.5519 3.34216 19.8303L3.54216 18.6637L5.34216 17.897C6.1279 17.3485 6.7131 16.5585 7.00882 15.647C7.32649 14.7664 7.40133 13.8165 7.22549 12.897C6.99644 11.714 6.41554 10.6277 5.55882 9.78032C4.78606 9.05378 3.82934 8.55236 2.79216 8.33032V7.56366C2.77549 6.46366 2.30882 4.64699 2.07549 3.21366V2.68032C4.58482 2.34455 7.11101 2.1498 9.64216 2.09699C15.9422 1.96366 22.2922 2.49699 28.5755 2.41366H32.7422C33.6467 2.42472 34.5491 2.50271 35.4422 2.64699C38.7755 3.18032 38.5922 0.980322 38.5922 3.44699C38.5922 4.18032 38.7255 5.11366 38.7255 6.06366C38.7437 6.47048 38.6872 6.87719 38.5588 7.26366C37.8922 7.69699 36.1755 8.49699 35.9255 8.73032C35.2167 9.31652 34.6521 10.0578 34.2755 10.897C33.9238 11.7507 33.7975 12.6804 33.9088 13.597C34.0711 14.6343 34.5021 15.6111 35.1588 16.4303C35.772 17.2015 36.5033 17.8708 37.3255 18.4137L38.9922 19.2803C39.0365 19.5953 39.0643 19.9124 39.0755 20.2303C39.0755 21.1303 38.9755 22.147 38.9922 22.5303L39.0588 24.8303Z" fill="#3F593F"/>
    <path d="M9.52753 0.464374C12.6888 0.330562 15.8615 0.375583 19.0213 0.431822C22.1842 0.488115 25.3342 0.555763 28.4663 0.464374L28.4761 0.462746V0.464374H32.7128C33.6965 0.477471 34.6791 0.550883 35.6538 0.6841C35.7361 0.695452 35.8968 0.693231 36.1372 0.67759C36.3699 0.662453 36.6431 0.636852 36.9429 0.612486C37.5164 0.565886 38.1856 0.523436 38.704 0.581561C39.0059 0.593023 39.3031 0.672286 39.5699 0.814309C39.7697 0.920835 39.9496 1.06011 40.1021 1.22609L40.2453 1.40025L40.26 1.42141L40.2713 1.44256C40.3576 1.60837 40.4175 1.78665 40.4504 1.96991L40.4748 2.15545V2.15871C40.4991 2.54817 40.4982 2.93945 40.4748 3.32896C40.4915 3.76125 40.5333 4.26891 40.5708 4.8117C40.6084 5.35414 40.6424 5.92646 40.6424 6.46372V6.47186C40.6272 7.08468 40.5007 7.69018 40.2681 8.25734L40.2567 8.28176L40.2437 8.30454C40.0802 8.57118 39.8553 8.79435 39.5894 8.95884C39.2641 9.16979 38.7013 9.4628 38.2108 9.7173C37.961 9.84693 37.7275 9.96937 37.5419 10.0705C37.449 10.1211 37.3695 10.1643 37.3091 10.2007C37.2793 10.2187 37.2557 10.234 37.2375 10.2463C37.2286 10.2523 37.2214 10.2572 37.2163 10.2609C37.2116 10.2644 37.21 10.2673 37.2098 10.2674L37.2082 10.2658C36.8926 10.5556 36.6308 10.8978 36.4318 11.2749L36.2528 11.6672C36.0514 12.1885 35.9887 12.7534 36.0705 13.3062C36.1713 13.8839 36.4032 14.4297 36.746 14.9028L36.899 15.1014L36.9087 15.1128C37.3502 15.6958 37.8833 16.2032 38.4875 16.6151L38.7333 16.7486C38.8299 16.7956 38.9407 16.8454 39.0637 16.9015C39.2931 17.0062 39.5561 17.1282 39.7945 17.2678C40.0548 17.4029 40.2924 17.5792 40.496 17.7886L40.688 18.0083L40.6978 18.0213L40.7075 18.036C40.9545 18.4266 41.102 18.8712 41.1389 19.3316L41.1844 19.7515C41.2169 20.1912 41.2132 20.6766 41.1991 21.1154C41.1799 21.711 41.1438 22.1937 41.1421 22.4614C41.2678 23.3379 41.3405 24.2211 41.3586 25.1063V25.1161C41.3535 25.6932 41.1198 26.2454 40.7092 26.6509L40.6717 26.6883L40.6245 26.7111C40.2267 26.9105 39.7882 27.0112 39.3436 27.0106C38.4055 27.1127 36.8468 27.014 36.5262 27.0139H32.895C30.1512 26.896 27.4524 26.6297 24.7424 26.6297L15.9126 26.7144L15.911 26.7127C13.9352 26.7929 11.9646 26.9742 10.0077 27.258L10.0093 27.2596C9.4783 27.3401 8.88624 27.4431 8.31008 27.4452C7.74304 27.4778 7.17465 27.4794 6.60761 27.4468C5.57906 27.4733 4.55041 27.3996 3.53632 27.2254V27.2238C2.8564 27.1373 2.23261 26.8022 1.78827 26.2798L1.76874 26.2554L1.75247 26.2293C1.61967 25.9964 1.54239 25.7353 1.52623 25.4676V25.4644C1.50562 25.0805 1.50512 24.6959 1.5246 24.312C1.44188 23.3658 1.52623 22.3668 1.52623 21.48V21.4523C1.57896 20.8315 1.66487 20.2137 1.78176 19.6017V19.5985C1.82388 19.3879 1.90126 18.8201 2.02265 18.4038L2.02428 18.3989C2.11899 18.0922 2.2801 17.8094 2.49628 17.5721L2.50767 17.5591L2.5207 17.5493C2.70042 17.3885 2.90393 17.2562 3.12454 17.1587L3.14244 17.1506L3.1636 17.1441C3.64458 16.9992 4.11506 16.8225 4.57473 16.62C5.07537 16.2578 5.44488 15.7426 5.62291 15.1502L5.62779 15.1372L5.63268 15.1226C5.86726 14.5345 5.93516 13.893 5.82962 13.2687V13.2671C5.68341 12.3679 5.26659 11.5343 4.63495 10.8778H4.63333C3.94592 10.2454 3.07846 9.84227 2.15123 9.72707L2.11054 9.72219L2.0731 9.70917C1.8863 9.63799 1.72382 9.51258 1.60598 9.35109C1.48843 9.18967 1.41976 8.99713 1.40904 8.79771V7.74465C1.38516 7.2212 1.26909 6.52286 1.12909 5.76223C0.99166 5.01557 0.831682 4.21222 0.730331 3.50637L0.647323 2.91717C0.629608 2.74519 0.621021 2.57247 0.614771 2.3996C0.56705 2.29168 0.540571 2.17485 0.541529 2.05617C0.542806 1.90763 0.58394 1.76202 0.660344 1.63462C0.736878 1.50707 0.847043 1.40295 0.977727 1.33189C1.09222 1.26967 1.21908 1.23508 1.34882 1.23098C4.05468 0.792157 6.7873 0.5393 9.52753 0.466001V0.464374ZM28.4761 0.796405C22.1928 0.979738 15.8422 0.529738 9.54218 0.796405C6.81163 0.869184 4.08899 1.12531 1.39277 1.56301C1.30357 1.55994 1.21402 1.58222 1.1356 1.62486C1.05779 1.66737 0.99253 1.72954 0.946802 1.80552C0.900882 1.88205 0.875908 1.97018 0.875188 2.05943C0.874491 2.14848 0.897416 2.2362 0.94192 2.31333C0.951888 2.69353 0.991411 3.07352 1.05911 3.44777C1.25914 4.84753 1.69265 6.63019 1.7427 7.73V8.7798C1.74997 8.91512 1.79629 9.04632 1.87616 9.15578C1.95592 9.26491 2.06562 9.34849 2.19192 9.39667C3.19537 9.52133 4.13479 9.9587 4.87584 10.6467C5.55438 11.3519 6.00128 12.2474 6.15839 13.2134C6.27415 13.8981 6.19927 14.6014 5.94192 15.2463C5.73938 15.9202 5.31716 16.5071 4.74238 16.9129C4.26014 17.127 3.76483 17.3109 3.25963 17.4631C3.07099 17.5464 2.89573 17.6592 2.74205 17.7967C2.55892 17.9978 2.42191 18.2368 2.34166 18.4966C2.225 18.8966 2.15891 19.4136 2.10891 19.6636C1.99414 20.2643 1.91003 20.8706 1.85826 21.48C1.85826 22.4133 1.77493 23.364 1.85826 24.2974C1.83771 24.6801 1.83772 25.0637 1.85826 25.4465C1.87127 25.6633 1.93469 25.8746 2.04218 26.0633C2.4356 26.5259 2.9889 26.8234 3.59166 26.8967C4.59311 27.0687 5.60978 27.141 6.62551 27.1131C7.18056 27.1451 7.73713 27.1451 8.29218 27.1131C8.8421 27.1131 9.40892 27.0142 9.95885 26.9308C11.9313 26.6448 13.9179 26.4611 15.9094 26.3807L24.7424 26.2977C27.459 26.2977 30.193 26.5635 32.9097 26.6802H36.5262C36.8938 26.6803 38.3932 26.7801 39.3094 26.6802C39.714 26.6863 40.1148 26.5946 40.4764 26.4133C40.8238 26.0699 41.0204 25.6029 41.0249 25.1144C41.0069 24.2332 40.9347 23.3533 40.8085 22.481C40.8085 21.9476 40.9585 20.3804 40.8085 19.3804C40.779 18.9658 40.6481 18.5647 40.426 18.2134C40.2145 17.9434 39.9474 17.7221 39.6431 17.564C39.1931 17.2973 38.6251 17.0967 38.3085 16.8967C37.6706 16.4632 37.1073 15.9278 36.6418 15.313C36.1775 14.7525 35.8669 14.0801 35.7417 13.3631C35.6496 12.7507 35.7187 12.1245 35.9419 11.5467C36.1688 10.9616 36.5282 10.4367 36.9917 10.0135C37.225 9.81356 38.7918 9.08056 39.4087 8.68052C39.6328 8.54316 39.8215 8.35447 39.9588 8.13039C40.176 7.60081 40.2946 7.03592 40.3088 6.46372C40.3088 5.41384 40.1761 4.21389 40.1428 3.33058C40.1667 2.94763 40.1667 2.56283 40.1428 2.17987C40.127 1.97632 40.0693 1.7783 39.9751 1.59719C39.8267 1.39379 39.6342 1.22561 39.412 1.10728C39.1899 0.989182 38.9439 0.923165 38.6926 0.913593C37.7259 0.796926 36.0916 1.07954 35.6083 1.01288C34.6474 0.881579 33.6792 0.809336 32.7095 0.796405H28.4761ZM9.64309 2.09686C15.9427 1.96359 22.2924 2.49755 28.5754 2.41424H32.7421C33.6465 2.4253 34.5493 2.50272 35.4422 2.64699C38.7756 3.18032 38.5917 0.981106 38.5917 3.44777C38.5918 4.18091 38.7251 5.11378 38.7251 6.06333C38.7433 6.46991 38.6873 6.87663 38.5591 7.26288C37.8924 7.69621 36.1756 8.49764 35.9256 8.73098C35.217 9.31713 34.6518 10.0583 34.2753 10.8973C33.9237 11.7509 33.7977 12.6811 33.909 13.5975C34.0714 14.6345 34.5026 15.6106 35.159 16.4295C35.7722 17.2006 36.5033 17.8708 37.3254 18.4136L38.9921 19.2811C39.0363 19.5957 39.0639 19.9125 39.0751 20.23C39.0751 21.1296 38.9755 22.1461 38.9921 22.5298L39.0588 24.8296C38.1592 24.8296 36.6603 24.7465 36.326 24.8296C35.1768 24.8879 34.0248 24.8879 32.8755 24.8296C32.8359 24.8268 27.3155 24.4299 24.5422 24.4797C22.4757 24.4797 20.4092 24.4806 18.3426 24.5806C17.4426 24.5806 16.5424 24.5811 15.6424 24.6978L12.6086 24.9142C11.5976 25.0364 10.5805 25.1686 9.55846 25.313C9.04194 25.3963 8.5255 25.4799 8.00898 25.5132C7.49248 25.5465 6.976 25.5132 6.4595 25.5132C5.66037 25.566 4.85791 25.566 4.05878 25.5132C3.73004 25.5123 3.40487 25.4385 3.10826 25.2967V22.0139C3.13563 21.2816 3.21464 20.5511 3.34264 19.8296L3.54283 18.6642L5.34296 17.8976C6.12865 17.3491 6.71391 16.5581 7.00963 15.6467C7.32707 14.7664 7.40173 13.8168 7.2261 12.8976C6.99709 11.7148 6.4159 10.6281 5.55943 9.78078C4.78672 9.05428 3.8296 8.55265 2.79251 8.33058V7.56398C2.77584 6.46398 2.30969 4.64673 2.07636 3.2134V2.67954C4.58544 2.34383 7.11221 2.14967 9.64309 2.09686ZM19.1044 2.57049C15.9431 2.46422 12.7891 2.36408 9.6496 2.43052C7.22791 2.48105 4.81044 2.66165 2.40839 2.97251V3.17596C2.52409 3.88283 2.69401 4.67512 2.84296 5.45135C2.99037 6.2196 3.11733 6.97614 3.12616 7.5591V8.07017C4.12042 8.3295 5.03652 8.83091 5.7873 9.53664L5.79381 9.54315C6.58507 10.3258 7.15245 11.302 7.4442 12.3703L7.55325 12.8342L7.61021 13.202C7.71579 14.0638 7.61791 14.9406 7.32213 15.7606L7.3205 15.759C7.00135 16.7353 6.37581 17.583 5.53339 18.1711L5.50409 18.1906L5.47317 18.2036L3.84068 18.8986L3.67141 19.8866L3.66978 19.8882C3.54447 20.5946 3.46872 21.3099 3.44192 22.0269V25.0737C3.64014 25.1432 3.8494 25.179 4.06041 25.1795H4.08157V25.1812C4.86576 25.2329 5.65252 25.2329 6.43671 25.1812L6.4595 25.1795C7.00641 25.1796 7.4838 25.2137 7.98782 25.1812C8.48582 25.149 8.98703 25.068 9.50637 24.9842H9.51288C10.5371 24.8395 11.5563 24.7047 12.5695 24.5822L12.5858 24.5806L15.6115 24.3641C16.5268 24.2465 17.4388 24.2469 18.3264 24.2469L19.8824 24.19C21.4365 24.1476 22.9887 24.1476 24.5357 24.1476H25.7027C26.9656 24.1662 28.4688 24.2336 29.77 24.3039C30.6393 24.3508 31.4222 24.399 31.9868 24.4357C32.2688 24.4541 32.4966 24.4704 32.6542 24.4813C32.7329 24.4867 32.795 24.4898 32.8365 24.4927C32.8571 24.4941 32.873 24.4952 32.8837 24.4959C32.8886 24.4963 32.8924 24.4974 32.895 24.4976H32.8983C33.75 24.5407 34.6029 24.5517 35.4553 24.5301L36.3081 24.4976C36.4311 24.4763 36.5952 24.465 36.7606 24.4618C36.9689 24.4577 37.2211 24.4598 37.4865 24.465C37.8943 24.4731 38.3317 24.4832 38.7137 24.4894L38.6584 22.5396L38.66 22.5379C38.6515 22.3239 38.6722 21.9534 38.6942 21.5549C38.7169 21.1434 38.7426 20.6775 38.743 20.2414L38.7137 19.784C38.7052 19.6866 38.6913 19.5898 38.6796 19.4927L37.1724 18.7098L37.1561 18.7017L37.1415 18.6919C36.2902 18.1298 35.5336 17.4363 34.8986 16.6379C34.2058 15.7734 33.7515 14.7425 33.5803 13.648L33.5786 13.6366C33.4605 12.6635 33.5943 11.6767 33.9676 10.7704L33.9709 10.7606C34.3188 9.9854 34.8197 9.28955 35.4406 8.71307L35.7124 8.47381C35.7675 8.42535 35.8387 8.37755 35.9061 8.33547C35.9852 8.28607 36.0822 8.23123 36.1877 8.17271C36.3986 8.05567 36.6605 7.91677 36.9315 7.77557C37.4289 7.51637 37.9453 7.24574 38.2743 7.04478C38.365 6.73104 38.4077 6.40476 38.3931 6.07798L38.3915 6.06333H38.3931C38.3931 5.60254 38.3597 5.14338 38.3264 4.6994C38.2934 4.26117 38.2597 3.82971 38.2596 3.44777C38.2596 3.1326 38.2611 2.90447 38.2596 2.72837C38.2595 2.71537 38.2565 2.70292 38.2564 2.69094C38.0643 2.7795 37.7882 2.89937 37.4084 2.97739C36.9139 3.07891 36.2593 3.11478 35.3902 2.97577H35.3885C34.7314 2.86962 34.069 2.80019 33.4045 2.76743L32.7388 2.74627H28.5803L27.397 2.75604C24.6371 2.76096 21.8676 2.66339 19.1044 2.57049Z" fill="#3F593F"/>
    <path fill-rule="evenodd" clip-rule="evenodd" d="M30.3258 9.63032C30.2632 9.6258 30.2003 9.63397 30.1409 9.65435C30.0814 9.67473 30.0267 9.70689 29.9801 9.74891C29.9334 9.79093 29.8956 9.84194 29.8691 9.89889C29.8426 9.95583 29.8279 10.0175 29.8258 10.0803C29.6592 10.697 29.4425 11.2637 29.3258 11.897C29.2816 12.1617 29.2538 12.4289 29.2425 12.697C29.2258 12.969 29.2258 13.2417 29.2425 13.5137C29.3283 14.1575 29.4676 14.793 29.6592 15.4137C29.6919 15.5436 29.771 15.6572 29.8816 15.733C29.9922 15.8088 30.1266 15.8415 30.2597 15.8252C30.3927 15.8088 30.5152 15.7444 30.6041 15.6441C30.693 15.5437 30.7422 15.4144 30.7425 15.2803C30.7425 14.6637 30.9092 14.0803 30.9758 13.4637C31.0005 13.0585 31.0005 12.6522 30.9758 12.247C30.9136 11.5356 30.8078 10.8288 30.6592 10.1303C30.6714 10.0211 30.6447 9.911 30.5837 9.81953C30.5227 9.72806 30.4314 9.66105 30.3258 9.63032Z" fill="#3F593F"/>
    <path d="M30.3854 9.30034L30.4195 9.3101C30.6 9.3628 30.7562 9.47764 30.8606 9.634C30.9529 9.77234 30.9956 9.93601 30.9908 10.1011C31.1004 10.6219 31.1887 11.1467 31.2513 11.675L31.3082 12.2186V12.2268C31.3337 12.6452 31.3337 13.0648 31.3082 13.4833L31.3066 13.4996C31.2719 13.8205 31.2114 14.139 31.1634 14.4273C31.1141 14.723 31.0755 15.0005 31.0755 15.2802C31.0751 15.4951 30.9965 15.7034 30.8541 15.8645C30.7114 16.0255 30.5142 16.1294 30.3007 16.1558C30.0872 16.1821 29.8712 16.1292 29.6936 16.0077C29.5202 15.8889 29.3952 15.7122 29.3404 15.5096V15.5113C29.1436 14.8733 29.0006 14.22 28.9124 13.5581L28.9108 13.5451L28.9091 13.5337C28.8916 13.2483 28.8916 12.9614 28.9091 12.676C28.9212 12.3967 28.951 12.1184 28.997 11.8427V11.8361C29.1162 11.1894 29.3489 10.5643 29.5032 9.9937C29.5137 9.91254 29.532 9.83217 29.5667 9.75769C29.6121 9.66024 29.6772 9.57245 29.7571 9.50053C29.8369 9.42879 29.9307 9.37427 30.0322 9.3394C30.134 9.30448 30.2422 9.28935 30.3496 9.29708L30.3854 9.30034ZM30.3251 9.63074C30.2627 9.6263 30.2004 9.6349 30.1412 9.65515C30.0818 9.67553 30.0268 9.70754 29.9801 9.74956C29.9335 9.79154 29.8959 9.84242 29.8694 9.8993C29.843 9.95609 29.8276 10.0174 29.8255 10.08C29.6589 10.6964 29.4425 11.2633 29.3258 11.8964C29.2816 12.1611 29.2541 12.429 29.2428 12.6971C29.2261 12.9691 29.2261 13.2423 29.2428 13.5142C29.3286 14.1578 29.468 14.7932 29.6595 15.4136C29.6922 15.5434 29.7705 15.6569 29.8808 15.7326C29.9914 15.8084 30.127 15.8418 30.26 15.8254C30.3926 15.809 30.5147 15.7446 30.6035 15.6447C30.6924 15.5444 30.7416 15.4142 30.7418 15.2802C30.7418 14.6636 30.9095 14.0803 30.9762 13.4637C31.0009 13.0586 31.0009 12.6515 30.9762 12.2463C30.9139 11.5352 30.8074 10.8286 30.6588 10.1304C30.671 10.0212 30.6448 9.91097 30.5839 9.81954C30.523 9.72807 30.4307 9.66147 30.3251 9.63074Z" fill="#3F593F"/>
    <path d="M12.5686 13.6917C11.6625 12.0201 11.5297 9.80951 13.9043 8.89559C14.6776 8.59876 15.6306 8.84872 16.2711 9.41895C16.9117 9.98136 17.4038 10.4969 17.9271 11.1921C17.9818 10.2469 17.8646 9.47362 18.1146 8.56751C18.3646 7.6614 18.5286 7.11461 19.2629 6.59907C20.0831 6.02103 21.1923 5.93511 22.1062 6.38816C23.0201 6.84122 23.6997 7.80201 23.8481 8.85653C23.9575 9.64547 23.7856 10.4422 23.6138 11.2155C23.0982 13.598 21.4735 20.1985 21.4344 20.1751C21.3485 20.1282 21.1845 20.5969 20.8486 20.4329C19.0988 19.558 14.209 16.7459 12.5608 13.7073L12.5686 13.6917Z" fill="#3F593F"/>
    <path d="M19.2472 6.21127C20.146 5.66783 21.2963 5.61392 22.255 6.0892C23.2084 6.56194 23.9216 7.52172 24.1414 8.59408L24.1788 8.81055L24.2098 9.13282C24.2509 9.88136 24.0881 10.6194 23.9396 11.2878C23.6806 12.4843 23.1453 14.7328 22.67 16.6768C22.4321 17.6498 22.208 18.5488 22.0418 19.2028C21.9589 19.5292 21.8897 19.7958 21.84 19.9808C21.8153 20.0725 21.7952 20.1469 21.7797 20.1989C21.7723 20.2239 21.7643 20.2499 21.757 20.2705C21.754 20.2789 21.7471 20.2979 21.7374 20.3177C21.7339 20.3249 21.7206 20.3529 21.6967 20.3828C21.6864 20.3957 21.6528 20.4361 21.5958 20.4675C21.5874 20.4721 21.5767 20.4745 21.5665 20.4788C21.5384 20.5104 21.497 20.559 21.4672 20.5879C21.4044 20.6488 21.3046 20.7309 21.1694 20.7734C21.0214 20.8198 20.8601 20.8098 20.7023 20.7328L20.699 20.7311C19.8115 20.2873 18.1365 19.356 16.4721 18.1514C14.8162 16.9528 13.1293 15.4538 12.268 13.8659L12.185 13.7129L12.1948 13.6901C11.7703 12.8485 11.52 11.8682 11.6772 10.9525C11.8491 9.95249 12.4966 9.08014 13.7849 8.58431L13.9575 8.52572C14.8301 8.27246 15.8221 8.57342 16.4917 9.16862L16.9588 9.59506C17.1898 9.81634 17.4012 10.0432 17.6114 10.2819C17.6114 10.144 17.6117 10.0044 17.6147 9.85873C17.6238 9.42079 17.6584 8.96926 17.7937 8.47852C17.9168 8.03238 18.0288 7.63345 18.212 7.28223C18.4021 6.91816 18.6635 6.61329 19.0714 6.32683L19.2472 6.21127ZM22.1069 6.38868C21.1931 5.9357 20.0836 6.02086 19.2635 6.59864L19.0128 6.79395C18.4861 7.25638 18.3331 7.77518 18.1144 8.56804L18.0379 8.9017C17.8921 9.66958 17.975 10.3648 17.9272 11.1917C17.5347 10.6704 17.1592 10.2508 16.726 9.83594L16.2719 9.41928C15.6316 8.84925 14.6786 8.59885 13.9054 8.89519L13.4887 9.08236C11.5499 10.0844 11.7196 12.1246 12.5691 13.6917L12.561 13.708C14.2094 16.7464 19.0991 19.5585 20.8488 20.4333C21.1842 20.597 21.3487 20.1287 21.4347 20.1745C21.4399 20.1776 21.471 20.0639 21.5258 19.8587C21.5408 19.8634 21.556 19.8678 21.5714 19.875C21.5562 19.868 21.5424 19.8599 21.5275 19.8555C21.8866 18.5104 23.1672 13.2808 23.6141 11.2162C23.7859 10.4428 23.9578 9.64506 23.8484 8.85612C23.7091 7.86739 23.103 6.96075 22.2745 6.47819L22.1069 6.38868Z" fill="#3F593F"/>
</svg>