<svg xmlns="http://www.w3.org/2000/svg" width="83" height="32" fill="none"><rect width="82" height="31" x=".5" y=".5" fill="#fff" rx="4.5"/><rect width="82" height="31" x=".5" y=".5" stroke="#DFDFDF" rx="4.5"/><path fill="#747474" d="M13.063 21h-2.918v-9.454h3.047c.917 0 1.702.189 2.354.567a3.718 3.718 0 0 1 1.5 1.62c.348.702.522 1.543.522 2.521 0 .985-.175 1.833-.526 2.544a3.75 3.75 0 0 1-1.533 1.634c-.67.379-1.486.568-2.447.568Zm-1.773-1.016h1.699c.781 0 1.43-.15 1.943-.452a2.789 2.789 0 0 0 1.15-1.288c.252-.557.378-1.22.378-1.99 0-.763-.124-1.42-.374-1.971a2.758 2.758 0 0 0-1.117-1.274c-.495-.299-1.112-.448-1.851-.448H11.29v7.423Zm11.024 1.164c-.683 0-1.273-.151-1.768-.453a3.037 3.037 0 0 1-1.14-1.274c-.265-.548-.397-1.185-.397-1.911s.132-1.367.396-1.92c.268-.558.64-.992 1.118-1.302.48-.314 1.04-.471 1.68-.471.37 0 .734.061 1.094.184.36.123.688.324.983.6.296.274.531.638.707 1.09.175.452.263 1.01.263 1.671v.462h-5.466v-.942h4.358c0-.4-.08-.757-.24-1.07a1.81 1.81 0 0 0-.674-.744 1.887 1.887 0 0 0-1.025-.272c-.434 0-.81.107-1.126.323-.314.212-.556.489-.725.83a2.44 2.44 0 0 0-.254 1.1v.627c0 .536.092.99.277 1.362.188.37.448.65.78.845.333.19.719.286 1.159.286.286 0 .545-.04.776-.12a1.66 1.66 0 0 0 .604-.37c.17-.165.3-.372.393-.618l1.052.296c-.11.357-.297.67-.558.941a2.722 2.722 0 0 1-.97.628 3.595 3.595 0 0 1-1.297.222ZM27.055 21v-9.454h1.09v3.49h.092c.08-.124.19-.28.332-.471.145-.194.351-.367.619-.517.27-.154.637-.231 1.099-.231.597 0 1.123.149 1.578.448.456.298.811.721 1.067 1.27.255.547.383 1.193.383 1.938 0 .751-.128 1.402-.383 1.953-.256.548-.61.972-1.062 1.274-.452.299-.974.448-1.565.448-.455 0-.82-.076-1.094-.226a2.029 2.029 0 0 1-.633-.522 6.986 6.986 0 0 1-.341-.49h-.13V21h-1.052Zm1.071-3.546c0 .536.078 1.008.235 1.418.157.406.387.725.688.955.302.228.671.342 1.108.342.456 0 .836-.12 1.14-.36.308-.243.54-.57.693-.979.157-.412.235-.87.235-1.375a3.73 3.73 0 0 0-.23-1.348 2.083 2.083 0 0 0-.688-.956c-.305-.237-.688-.355-1.15-.355-.443 0-.815.112-1.117.337-.302.221-.53.532-.683.932-.154.397-.23.86-.23 1.39ZM34.981 21v-7.09h1.09V21h-1.09Zm.554-8.273a.775.775 0 0 1-.549-.217.697.697 0 0 1-.226-.521c0-.204.075-.377.226-.522a.774.774 0 0 1 .55-.217c.212 0 .393.072.544.217a.69.69 0 0 1 .231.522.69.69 0 0 1-.23.521.759.759 0 0 1-.546.217Zm5.615 1.182v.923h-3.674v-.923h3.674Zm-2.603-1.699h1.09v6.759c0 .307.044.538.133.692.092.151.21.253.35.305.146.05.298.074.458.074.12 0 .218-.006.295-.019l.185-.037.222.98a2.22 2.22 0 0 1-.31.082c-.132.03-.3.046-.503.046-.308 0-.61-.066-.905-.198a1.798 1.798 0 0 1-.73-.605c-.19-.27-.285-.612-.285-1.025V12.21Zm5.41 6.205-.018-1.348h.221l3.103-3.158h1.348l-3.306 3.342h-.092l-1.256 1.164ZM42.941 21v-9.454h1.09V21h-1.09Zm4.506 0-2.77-3.509.776-.757L48.833 21h-1.386Zm4.652.166a2.88 2.88 0 0 1-1.223-.254 2.099 2.099 0 0 1-.872-.743c-.216-.326-.324-.72-.324-1.182 0-.406.08-.735.24-.988.16-.255.374-.455.642-.6.268-.145.563-.252.887-.323.326-.074.654-.132.983-.175.43-.056.78-.097 1.048-.125.27-.03.468-.082.59-.152.127-.071.19-.194.19-.37v-.037c0-.455-.125-.81-.374-1.061-.246-.253-.62-.379-1.122-.379-.52 0-.928.114-1.223.342-.296.227-.503.47-.623.729l-1.035-.37c.185-.43.431-.766.74-1.006.31-.243.649-.412 1.015-.508.37-.098.732-.147 1.09-.147.227 0 .489.027.784.083.299.052.586.161.863.328.28.166.513.417.697.752.185.336.277.785.277 1.348V21h-1.09v-.96h-.054a1.914 1.914 0 0 1-.37.494 2.13 2.13 0 0 1-.688.448c-.286.123-.635.184-1.048.184Zm.167-.979c.43 0 .794-.084 1.09-.253a1.73 1.73 0 0 0 .904-1.5v-.998c-.046.055-.148.106-.305.152a5.121 5.121 0 0 1-.535.116 24.102 24.102 0 0 1-1.044.138 4.167 4.167 0 0 0-.794.18c-.243.08-.44.202-.59.365-.148.16-.222.379-.222.656 0 .378.14.664.42.858.283.191.642.287 1.076.287Zm5.072.813v-7.09h1.053v1.07h.073c.13-.35.364-.635.702-.854.339-.218.72-.328 1.145-.328.08 0 .18.002.3.005s.21.008.272.014v1.108a3.218 3.218 0 0 0-.254-.042 2.492 2.492 0 0 0-.41-.032 1.93 1.93 0 0 0-.924.217c-.267.141-.48.338-.637.59-.154.25-.23.535-.23.855V21h-1.09Zm8.365-7.09v.922h-3.675v-.923h3.675Zm-2.604-1.7h1.09v6.759c0 .307.045.538.134.692.092.151.209.253.35.305.145.05.298.074.458.074.12 0 .218-.006.295-.019l.185-.037.221.98a2.22 2.22 0 0 1-.309.082c-.132.03-.3.046-.503.046-.308 0-.61-.066-.905-.198a1.797 1.797 0 0 1-.73-.605c-.19-.27-.286-.612-.286-1.025V12.21Zm7.14 8.938c-.684 0-1.273-.151-1.768-.453a3.037 3.037 0 0 1-1.14-1.274c-.265-.548-.398-1.185-.398-1.911s.133-1.367.397-1.92c.268-.558.64-.992 1.118-1.302.48-.314 1.04-.471 1.68-.471.37 0 .734.061 1.094.184.36.123.688.324.983.6.296.274.531.638.707 1.09.175.452.263 1.01.263 1.671v.462h-5.466v-.942h4.358c0-.4-.08-.757-.24-1.07a1.81 1.81 0 0 0-.674-.744 1.887 1.887 0 0 0-1.025-.272c-.434 0-.81.107-1.127.323-.313.212-.555.489-.724.83-.17.342-.254.708-.254 1.1v.627c0 .536.092.99.277 1.362.188.37.448.65.78.845.332.19.719.286 1.159.286.286 0 .544-.04.775-.12a1.66 1.66 0 0 0 .605-.37c.17-.165.3-.372.392-.618l1.053.296c-.11.357-.297.67-.559.941a2.722 2.722 0 0 1-.969.628 3.595 3.595 0 0 1-1.297.222Z"/></svg>