<svg xmlns="http://www.w3.org/2000/svg" width="82" height="30" fill="none"><rect width="79.667" height="29" x="1.167" y=".5" fill="#fff" rx="3.5"/><rect width="79.667" height="29" x="1.167" y=".5" stroke="#DFDFDF" rx="3.5"/><path fill="#253B80" d="M46.43 14.04c.224 0 .422.143.487.352l1.028 3.338 2.426-3.474a.513.513 0 0 1 .42-.217h1.759c.246 0 .39.268.25.465l-5.85 8.212a.51.51 0 0 1-.417.212h-1.756c-.247 0-.392-.271-.249-.468l1.822-2.5-1.938-5.53a.298.298 0 0 1 .29-.39h1.728Zm-7.035-.445c.832 0 1.664.184 2.037.735l.122.177.076-.49a.302.302 0 0 1 .297-.257h1.724c.184 0 .325.167.296.351l-.932 6.001a.504.504 0 0 1-.495.431h-1.554a.305.305 0 0 1-.296-.354l.077-.487s-.852 1.004-2.388 1.004c-.895 0-1.647-.263-2.173-.892-.573-.684-.807-1.667-.642-2.694.317-2.058 1.945-3.525 3.851-3.525Zm-6.677-3.112c1.233 0 2.161.311 2.685.899.477.535.636 1.3.47 2.272C35.509 15.878 34.108 17 31.68 17h-1.166a.506.506 0 0 0-.506.413l-.403 2.435a.505.505 0 0 1-.506.413h-1.758c-.19 0-.333-.16-.304-.34l1.49-9.024a.505.505 0 0 1 .506-.414h3.685Zm7.087 4.971c-.983 0-1.779.694-1.934 1.688-.081.486.016.924.27 1.231.258.31.659.473 1.16.473.997 0 1.779-.672 1.945-1.674.076-.485-.029-.925-.291-1.24-.263-.312-.66-.478-1.15-.478Zm-8.713-3.018a.303.303 0 0 0-.303.248l-.39 2.359h.555c.977 0 1.988 0 2.19-1.263.073-.443.014-.765-.18-.981-.325-.362-.952-.362-1.617-.362h-.255Z"/><path fill="#179BD7" d="M64.77 13.595c.832 0 1.664.184 2.038.735l.122.177.076-.49a.3.3 0 0 1 .296-.257h1.723c.185 0 .327.167.298.351l-.932 6.001a.505.505 0 0 1-.495.431h-1.553a.305.305 0 0 1-.297-.354l.076-.487c-.012.015-.863 1.004-2.388 1.004-.894 0-1.646-.263-2.173-.892-.573-.684-.806-1.667-.641-2.694.317-2.058 1.944-3.525 3.85-3.525Zm-6.231-3.112c1.233 0 2.162.311 2.685.899.478.535.637 1.3.471 2.272C61.33 15.878 59.928 17 57.5 17h-1.166a.506.506 0 0 0-.506.413l-.423 2.559a.354.354 0 0 1-.352.289H53.16c-.188 0-.332-.16-.303-.34l1.49-9.024a.505.505 0 0 1 .505-.414h3.686Zm14.51 0a.29.29 0 0 1 .281.34l-1.388 9.025a.479.479 0 0 1-.47.413h-1.414a.291.291 0 0 1-.283-.34l1.407-9.19a.29.29 0 0 1 .283-.248h1.584Zm-7.87 4.971c-.983 0-1.778.694-1.934 1.688-.08.486.016.924.27 1.231.258.31.66.473 1.159.473.998 0 1.781-.672 1.947-1.674.076-.485-.028-.925-.292-1.24-.262-.312-.66-.478-1.15-.478Zm-8.265-3.018a.303.303 0 0 0-.303.248l-.39 2.359h.555c.977 0 1.988 0 2.189-1.263.074-.443.015-.765-.179-.981-.325-.362-.952-.362-1.617-.362h-.255Z"/><path fill="#253B80" fill-rule="evenodd" d="m12.072 22.484.278-1.733-.618-.014H8.779l2.052-12.78a.165.165 0 0 1 .057-.1c.03-.026.07-.04.11-.04h4.977c1.653 0 2.793.338 3.39 1.004.278.313.456.64.542 1 .09.377.091.829.003 1.379l-.006.04v.352l.28.155c.234.123.421.264.564.424.24.267.394.607.459 1.01.067.415.045.908-.065 1.467-.128.642-.334 1.201-.611 1.659a3.441 3.441 0 0 1-.969 1.043c-.37.258-.808.453-1.304.578a6.629 6.629 0 0 1-1.63.185h-.388c-.278 0-.546.099-.758.274-.211.18-.351.424-.394.692l-.03.156-.49 3.053-.022.112c-.006.036-.016.053-.031.065a.082.082 0 0 1-.051.019h-2.392Z" clip-rule="evenodd"/><path fill="#179BD7" fill-rule="evenodd" d="M20.355 10.928a7.539 7.539 0 0 1-.051.293c-.653 3.386-2.889 4.555-5.743 4.555h-1.454a.708.708 0 0 0-.697.604l-.744 4.764-.211 1.35a.374.374 0 0 0 .367.434H14.4a.622.622 0 0 0 .612-.528l.026-.132.485-3.11.031-.17a.622.622 0 0 1 .613-.529h.385c2.498 0 4.453-1.023 5.025-3.985.238-1.237.115-2.27-.517-2.997-.191-.22-.428-.401-.705-.55Z" clip-rule="evenodd"/><path fill="#222D65" fill-rule="evenodd" d="M19.665 10.713a5.22 5.22 0 0 0-.64-.138 8.384 8.384 0 0 0-1.293-.092h-3.917a.64.64 0 0 0-.27.06.607.607 0 0 0-.347.452l-.834 5.117-.023.15a.706.706 0 0 1 .704-.585h1.466c2.879 0 5.133-1.134 5.793-4.414a7.09 7.09 0 0 0 .05-.284 3.529 3.529 0 0 0-.689-.266Z" clip-rule="evenodd"/><mask id="a" width="13" height="14" x="8" y="7" maskUnits="userSpaceOnUse" style="mask-type:luminance"><path fill="#fff" fill-rule="evenodd" d="M8.334 7h11.99v13.985H8.334V7Z" clip-rule="evenodd"/></mask><g mask="url(#a)"><path fill="#253B80" fill-rule="evenodd" d="M13.306 11.013a.609.609 0 0 1 .6-.516h3.802c.45 0 .87.03 1.255.092a5.005 5.005 0 0 1 .622.14l.143.044c.189.063.365.138.526.223.19-1.223 0-2.056-.657-2.81-.724-.83-2.03-1.186-3.7-1.186h-4.852c-.341 0-.633.25-.685.59L8.34 20.5a.419.419 0 0 0 .41.485h2.996l.751-4.808.81-5.164Z" clip-rule="evenodd"/></g></svg>