<svg xmlns="http://www.w3.org/2000/svg" width="41" height="24" viewBox="0 0 41 24" fill="none">
    <path d="M9.35707 21.9649C10.2526 22.3082 11.1631 22.6217 12.1035 22.8306C13.1782 23.0694 14.2529 23.0993 15.3275 22.95C17.5963 22.6366 19.6711 21.7112 21.4473 20.2633C23.2235 18.8155 24.537 16.8452 24.9251 14.6212C25.3729 12.039 24.8206 9.45675 23.7459 7.08349C22.7608 4.87441 21.1488 2.8743 18.8949 1.90409C16.641 0.93389 14.1633 0.73985 11.7452 1.18764C7.29724 2.00858 3.2224 5.24756 1.72978 9.56124C1.34169 10.6658 1.22227 11.8599 1.2969 13.0241C1.35661 13.9495 1.50587 14.8899 1.83425 15.7705C2.56563 17.7259 3.87914 19.3528 5.52102 20.6365C6.04344 21.0395 6.58078 21.4276 7.13305 21.8007C7.78981 22.2336 8.81972 21.9649 9.19288 21.2634C9.58096 20.5171 9.35706 19.6663 8.65553 19.2036C8.26745 18.9498 7.87936 18.6961 7.50621 18.4125C7.41665 18.3528 7.20768 18.1587 7.55098 18.4423C7.47635 18.3677 7.3868 18.308 7.29724 18.2334C7.13305 18.099 6.9838 17.9647 6.81962 17.8304C6.55094 17.5766 6.28225 17.3229 6.02851 17.0542C5.92402 16.9348 5.80463 16.8154 5.70015 16.681C5.64045 16.6064 5.58072 16.5318 5.52102 16.4721C5.8494 16.8602 5.62551 16.5915 5.55088 16.5019C5.35684 16.2333 5.17772 15.9646 5.01353 15.6661C4.92398 15.5168 4.84934 15.3675 4.77471 15.2183C4.74486 15.1586 4.715 15.0989 4.70007 15.0392C4.55081 14.7108 4.81949 15.3377 4.72993 15.0989C4.49111 14.4869 4.32692 13.86 4.23737 13.2182L4.29708 13.6062C4.1926 12.845 4.17766 12.0539 4.28214 11.2778L4.22245 11.6658C4.28215 11.218 4.38662 10.7703 4.53589 10.3374C4.56574 10.2329 4.61053 10.1284 4.64038 10.0389C4.65531 9.97917 4.68515 9.91946 4.70007 9.87469C4.75978 9.72542 4.64038 10.0239 4.64038 10.009C4.75979 9.80005 4.84936 9.56124 4.95384 9.35227C5.13295 8.99404 5.3419 8.66566 5.5658 8.33729C5.67028 8.18803 5.77477 8.03877 5.87926 7.8895C5.90911 7.85965 5.93896 7.79994 5.96881 7.77009C5.98374 7.77009 5.75983 8.02384 5.86432 7.90443C5.93895 7.81487 6.01359 7.72531 6.08822 7.63576C6.58079 7.05363 7.11813 6.51629 7.71517 6.03865C7.75995 6.0088 7.78981 5.97895 7.83459 5.9491C7.954 5.85954 7.68533 6.06851 7.70026 6.05358C7.75996 5.97895 7.86444 5.91924 7.954 5.87446C8.11819 5.75505 8.26744 5.65057 8.43163 5.54609C8.76 5.33712 9.0884 5.14308 9.4317 4.96396C9.59589 4.87441 9.76007 4.79978 9.90933 4.72514C9.98396 4.68037 10.0735 4.65052 10.1482 4.60574C10.1929 4.59081 10.2377 4.56096 10.2825 4.54603C10.1929 4.57588 9.98396 4.66544 10.1929 4.59081C10.5512 4.44155 10.9243 4.32214 11.2825 4.20273C11.6408 4.08332 11.999 4.00869 12.3721 3.93406C12.5662 3.88928 12.7453 3.85943 12.9393 3.82957C13.2528 3.7848 12.6707 3.85943 12.9095 3.82957C13.014 3.82957 13.1185 3.79972 13.2229 3.79972C13.626 3.75494 14.014 3.74002 14.417 3.75494C14.626 3.75494 14.835 3.75495 15.0439 3.7848C15.2529 3.81465 15.4619 3.8445 15.6708 3.8445C15.6559 3.8445 15.3126 3.7848 15.5514 3.82957C15.5962 3.82957 15.641 3.82957 15.6708 3.8445C15.7604 3.85942 15.8649 3.87435 15.9544 3.88928C16.1783 3.93406 16.3873 3.97884 16.6112 4.03854C16.8052 4.08332 16.9843 4.14302 17.1784 4.20273C17.2829 4.23258 17.3874 4.27736 17.4918 4.30721C17.5366 4.30721 17.5665 4.33706 17.6113 4.35199C17.8053 4.42662 17.656 4.38185 17.5515 4.32214C17.7157 4.42663 17.9098 4.48633 18.074 4.56096C18.268 4.66544 18.462 4.76993 18.6561 4.87441C18.8203 4.97889 18.9845 5.08338 19.1337 5.18786C19.1785 5.21771 19.2233 5.26249 19.2681 5.29234C19.2681 5.29234 19.0591 5.11323 19.1636 5.21771C19.2681 5.30727 19.3576 5.3819 19.4621 5.47145C19.7905 5.76998 20.0741 6.08343 20.3577 6.41181C20.5069 6.59092 20.2233 6.23269 20.3577 6.41181C20.4323 6.50136 20.492 6.60585 20.5666 6.69541C20.686 6.87452 20.8055 7.05364 20.9249 7.24768C21.1488 7.62083 21.3577 8.00891 21.5518 8.39699C21.5965 8.48655 21.6413 8.59103 21.6861 8.68059C21.716 8.75522 21.7757 8.94926 21.8354 9.00897C21.8354 9.00897 21.7458 8.78507 21.7906 8.91941C21.8204 8.97911 21.8354 9.02389 21.8652 9.0836C21.91 9.18808 21.9548 9.30749 21.9996 9.4269C22.1488 9.84483 22.2981 10.2777 22.4025 10.7106C22.4473 10.9195 22.5071 11.1136 22.5369 11.3225C22.5518 11.427 22.5817 11.5315 22.5966 11.636C22.5966 11.6957 22.6115 11.7554 22.6265 11.8151C22.6265 11.8599 22.6712 12.1136 22.6414 11.9196C22.6115 11.7554 22.6414 11.9196 22.6414 11.9345C22.6414 11.9942 22.6414 12.0539 22.6563 12.1136C22.6563 12.2181 22.6712 12.3226 22.6862 12.4271C22.7011 12.651 22.716 12.8749 22.716 13.0987C22.716 13.3226 22.716 13.5465 22.6862 13.7555C22.6862 13.86 22.6712 13.9645 22.6563 14.069C22.6563 14.0988 22.6563 14.2331 22.6414 14.2481C22.6712 14.2182 22.6712 14.0391 22.6414 14.2033C22.5667 14.6361 22.4623 15.069 22.3279 15.4869C22.2682 15.6661 22.2085 15.8302 22.1488 16.0094C22.1339 16.0541 22.119 16.1138 22.0891 16.1437C22.0891 16.1138 22.1936 15.9198 22.104 16.0989C22.0593 16.1885 22.0145 16.293 21.9697 16.3825C21.8055 16.7258 21.6115 17.0691 21.3876 17.3826C21.2831 17.5318 21.1786 17.6811 21.0741 17.8304C21.0443 17.8751 21.0144 17.9199 20.9846 17.9498C20.9995 17.9199 21.104 17.7856 20.9846 17.9348C20.9249 18.0095 20.8502 18.099 20.7905 18.1737C20.5368 18.4722 20.2681 18.7558 19.9696 19.0244C19.8353 19.1439 19.7009 19.2782 19.5517 19.3976C19.477 19.4573 19.4173 19.517 19.3427 19.5767C19.2979 19.6066 19.2531 19.6364 19.2233 19.6812C19.1039 19.7708 19.3875 19.5618 19.1785 19.7111C18.5516 20.1738 17.8949 20.5768 17.1933 20.9051C17.1187 20.9499 17.0291 20.9798 16.9396 21.0096C17.0441 20.9649 16.9396 21.0096 16.9097 21.0096C16.8649 21.0246 16.8202 21.0544 16.7604 21.0693C16.5813 21.144 16.4022 21.2037 16.2231 21.2634C15.7753 21.4126 15.3126 21.5321 14.8499 21.6365C13.4319 21.9351 11.9691 21.8903 10.5661 21.4425C10.2228 21.338 9.87947 21.2037 9.53617 21.0843C9.29735 20.9947 9.02867 21.1738 8.96897 21.4126C8.89434 21.6664 9.05853 21.8903 9.29735 21.9798L9.35707 21.9649Z" fill="#FF5500"/>
    <path d="M29.6566 17.3234C29.7462 16.8458 29.8358 16.3532 29.9402 15.8756C30.0447 15.3979 30.2239 14.9352 30.388 14.4725C30.7164 13.5471 31.0746 12.6217 31.4627 11.7112L31.3433 11.9798C32.1941 9.99465 33.224 8.06917 34.4032 6.2631C34.7316 5.74068 35.0749 5.23319 35.448 4.74063L35.2092 5.05408C35.3585 4.88989 35.4928 4.71077 35.6421 4.54659C35.8809 4.27791 36.06 4.0391 36.1346 3.68087C36.1645 3.56146 36.1794 3.45698 36.2092 3.33757C36.3287 2.77037 36.1645 2.18825 35.7018 1.83002C35.2391 1.47179 34.6122 1.42701 34.1047 1.71061C33.6867 1.94943 33.3285 2.20317 33.0897 2.63603C32.9553 2.87485 32.8359 3.09875 32.7016 3.33757C32.4329 3.77043 32.1792 4.21821 31.9254 4.666C31.3732 5.65113 30.8955 6.66611 30.4627 7.69602C29.6865 9.54687 29.0148 11.5022 28.6566 13.4725C28.6118 13.7561 28.5521 14.0397 28.5073 14.3232C28.4476 14.6516 28.3879 15.0099 28.3581 15.3382C28.3581 15.1143 28.3581 15.3084 28.3432 15.3532C28.3282 15.4278 28.3133 15.5173 28.2984 15.592C28.2685 15.7263 28.2387 15.8756 28.2088 16.0099C28.1491 16.2935 28.1043 16.5771 28.0596 16.8607C28.0297 17.0846 28.0297 17.2936 28.1491 17.5025C28.2536 17.6816 28.4476 17.8309 28.6417 17.8757C29.0447 17.9652 29.582 17.7563 29.6566 17.2936V17.3234Z" fill="#FF5500"/>
    <path d="M31.1191 17.3377C31.2534 17.278 31.4027 17.2183 31.537 17.1436C31.6116 17.0989 31.6863 17.0242 31.7609 16.9645C31.8355 16.9048 31.8952 16.8451 31.9549 16.7854C32.2087 16.5615 32.4624 16.3376 32.7311 16.1287C32.746 16.1287 32.8505 16.0391 32.7759 16.0839C32.7162 16.1287 32.8057 16.054 32.8207 16.054C32.8953 16.0093 32.955 15.9495 33.0296 15.9048C33.1938 15.7854 33.3729 15.666 33.5222 15.5316C33.7909 15.3226 34.0446 15.0988 34.2983 14.8749C34.5969 14.636 34.8954 14.3972 35.2088 14.1584L35.0148 14.3077C35.9701 13.5763 36.9403 12.8747 37.9702 12.2478C38.2538 12.0687 38.5523 11.8896 38.8508 11.7254L38.4926 11.8747C38.4926 11.8747 38.5523 11.8598 38.5822 11.8448C38.6867 11.815 38.7463 11.8001 38.8657 11.7404C39.1046 11.6359 39.224 11.5911 39.418 11.3821C39.4479 11.3523 39.4628 11.3373 39.4927 11.3075L39.1792 11.5463C39.1792 11.5463 39.224 11.5165 39.2538 11.5015L38.8807 11.6508C38.8807 11.6508 38.9105 11.6508 38.9255 11.6508L38.5225 11.7105H38.5523C38.6866 11.6956 38.821 11.6807 38.9553 11.6508L39.3135 11.5015L39.6121 11.2627C39.7613 11.1284 39.8658 10.9642 39.9255 10.7851C40.0001 10.6657 40.03 10.5463 40.03 10.4119C40.0599 10.2776 40.0599 10.1433 40.03 10.0089C40.03 9.87458 40.0001 9.74025 39.9255 9.63576C39.8658 9.45665 39.7613 9.29246 39.6121 9.15813C39.4926 9.06857 39.3882 8.96408 39.2538 8.88945C39.1792 8.8596 39.1195 8.82975 39.0449 8.7999C38.9852 8.77005 38.9105 8.74019 38.8359 8.71034C38.7613 8.71034 38.6866 8.68049 38.5971 8.68049C38.5225 8.68049 38.4478 8.65063 38.3583 8.65063C38.3284 8.65063 38.2986 8.65063 38.2687 8.65063C37.9553 8.68049 37.7164 8.71034 37.4328 8.87453C37.1791 9.02379 36.985 9.21783 36.8358 9.47157C36.8059 9.51635 36.7761 9.57606 36.7462 9.62084L36.9851 9.30739C36.0895 10.2328 35.2088 11.1732 34.3879 12.1583C33.9252 12.7106 33.4923 13.2628 33.0595 13.83C32.8654 14.0838 32.6863 14.3375 32.4923 14.5913C32.2982 14.845 32.1639 15.1286 31.9997 15.3973C31.8206 15.7107 31.6266 16.0093 31.4474 16.3078C31.3579 16.457 31.2534 16.6063 31.1788 16.7556C31.1041 16.9048 31.0743 17.1287 31.0444 17.2929C31.0444 17.3228 31.0743 17.3526 31.0892 17.3377H31.1191Z" fill="#FF5500"/>
    <path d="M0.804435 8.68173C1.14774 8.6071 1.49106 8.59218 1.84929 8.65188C1.90899 8.65188 1.96869 8.68173 2.02839 8.71159C2.1478 8.75637 2.23736 8.78622 2.35677 8.80115C2.32692 8.80115 2.41647 8.80115 2.41647 8.80115C2.46125 8.80115 2.4911 8.80114 2.53588 8.81607C2.62544 8.831 2.71501 8.84592 2.80456 8.86085C3.13294 8.93548 3.46131 9.02504 3.77476 9.14445C3.84939 9.1743 3.92401 9.20415 3.99864 9.234C4.01357 9.234 4.02851 9.24893 4.05836 9.26385C4.11806 9.29371 4.02851 9.26386 4.01358 9.24893C4.04343 9.27878 4.11805 9.29371 4.16283 9.30864C4.31209 9.38327 4.46136 9.44297 4.61062 9.5176C4.92407 9.66687 5.2226 9.84598 5.5062 10.0251C5.65546 10.1147 5.80472 10.2042 5.93905 10.3087C6.01368 10.3535 6.08831 10.4132 6.14802 10.458C6.17787 10.4878 6.20772 10.5027 6.23757 10.5326C6.32713 10.6072 6.11816 10.4281 6.23757 10.5326C6.50624 10.7416 6.76 10.9804 7.01374 11.2192C7.13315 11.3386 7.25257 11.4729 7.37198 11.6073C7.43168 11.667 7.47645 11.7267 7.52123 11.7864C7.55108 11.8162 7.58095 11.861 7.6108 11.8909C7.67051 11.9804 7.62573 11.9058 7.6108 11.8909C7.6108 11.8759 7.53617 11.7864 7.6108 11.8909C8.10337 12.5476 8.52129 13.279 8.83474 14.0402L8.74519 13.8313C9.19297 14.891 9.47658 16.0254 9.64077 17.1598L9.61091 16.9061C9.70047 17.6076 9.74524 18.3241 9.74524 19.0405C9.74524 19.5779 10.208 20.0854 10.7602 20.0555C11.3125 20.0256 11.7901 19.6077 11.7752 19.0405C11.6856 16.6374 11.1184 14.2044 9.79002 12.1745C9.13326 11.1595 8.32724 10.2938 7.35704 9.59223C6.47639 8.95041 5.44648 8.45784 4.3718 8.2638C3.75982 8.15932 3.14786 8.11454 2.52096 8.15932C2.34185 8.15932 2.19258 8.18917 2.02839 8.2638C1.90898 8.32351 1.78958 8.35336 1.65524 8.38321C1.5209 8.41306 1.38657 8.45784 1.23731 8.50262C1.08805 8.5474 0.938787 8.57725 0.774599 8.62203C0.72982 8.62203 0.744738 8.71158 0.789517 8.69666L0.804435 8.68173Z" fill="#FF5500"/>
    <path d="M13.3723 2.97985C13.1186 3.65153 12.8648 4.32321 12.6111 4.99488C12.3573 5.66656 12.1633 6.32332 11.9991 6.995C11.8349 7.71145 11.7454 8.44284 11.7752 9.17423C11.8051 9.90561 11.9245 10.6818 12.1633 11.3982C12.2976 11.7714 12.4469 12.1595 12.6409 12.5028C12.835 12.8461 13.0738 13.1595 13.3126 13.458C13.7604 14.0252 14.3127 14.5029 14.8799 14.9507C15.9993 15.8015 17.3576 16.3687 18.7159 16.712C19.6413 16.9508 20.5966 17.1 21.5519 17.2194C21.9847 17.2792 22.4325 17.2792 22.8654 17.2941C23.2983 17.309 23.746 17.3239 24.1789 17.3239C24.8655 17.3389 25.5073 16.712 25.4775 16.0254C25.4626 15.697 25.3581 15.3387 25.1043 15.0999C24.8357 14.8611 24.552 14.7566 24.1789 14.7268C23.4624 14.6521 22.746 14.5775 22.0295 14.488L22.4027 14.5327C21.8205 14.4581 21.2235 14.3984 20.6414 14.3238L21.0145 14.3685C19.8354 14.2044 18.6562 13.9506 17.5666 13.4879L17.88 13.6222C17.1039 13.2939 16.3576 12.8759 15.7008 12.3684L15.9546 12.5625C15.4769 12.1893 15.0441 11.7863 14.6858 11.3087L14.865 11.5475C14.7306 11.3684 14.6112 11.2042 14.4769 11.0251L14.656 11.2639C14.3276 10.846 14.0738 10.3832 13.8649 9.89068L13.9694 10.1295C13.7903 9.68172 13.641 9.23393 13.5514 8.75629C13.5365 8.65181 13.5066 8.54732 13.4917 8.44284C13.4917 8.38313 13.4768 8.32343 13.4619 8.26373C13.4619 8.23387 13.447 8.14432 13.4619 8.26373C13.4768 8.39806 13.4619 8.26373 13.4619 8.23387C13.447 8.06969 13.4171 7.90549 13.3873 7.74131C13.3873 7.6816 13.3723 7.6219 13.3574 7.56219C13.3574 7.54727 13.3425 7.45771 13.3574 7.56219C13.3723 7.66668 13.3574 7.54727 13.3574 7.51742C13.238 6.54721 13.238 5.56208 13.2828 4.59188C13.3126 4.03961 13.3873 3.50227 13.4619 2.95C13.4619 2.90522 13.4022 2.90522 13.3873 2.95L13.3723 2.97985Z" fill="#FF5500"/>
</svg>