<svg width="76" height="12" viewBox="0 0 76 12" fill="none" xmlns="http://www.w3.org/2000/svg">
    <path fill-rule="evenodd" clip-rule="evenodd" d="M3.8539 3.67765L5.32452 0.737154C5.51176 0.364232 5.9658 0.21417 6.33863 0.401362L6.40973 0.442149C6.52272 0.515369 6.61474 0.617794 6.67547 0.739252L8.14583 3.67922L10.9455 3.95948C11.3606 4.00006 11.6646 4.36968 11.624 4.785C11.6068 4.96014 11.5295 5.1233 11.4059 5.24534L9.08253 7.56799L9.94394 10.7241C10.0529 11.1272 9.81484 11.5421 9.41241 11.6513C9.23411 11.6998 9.04405 11.681 8.87677 11.5981L5.99995 10.1593L3.12236 11.6C2.74924 11.7857 2.29544 11.6342 2.10925 11.2602C2.02707 11.0943 2.00834 10.9046 2.05678 10.7249L2.91728 7.56798L0.593769 5.24373C0.298822 4.94878 0.298822 4.47092 0.593769 4.17597C0.717099 4.05264 0.880216 3.97516 1.05337 3.958L3.8539 3.67765Z" fill="#2F4027"/>
    <path fill-rule="evenodd" clip-rule="evenodd" d="M19.8539 3.67765L21.3245 0.737154C21.5118 0.364232 21.9658 0.21417 22.3386 0.401362L22.4097 0.442149C22.5227 0.515369 22.6147 0.617794 22.6755 0.739252L24.1458 3.67922L26.9455 3.95948C27.3606 4.00006 27.6646 4.36968 27.624 4.785C27.6068 4.96014 27.5295 5.1233 27.4059 5.24534L25.0825 7.56799L25.9439 10.7241C26.0529 11.1272 25.8148 11.5421 25.4124 11.6513C25.2341 11.6998 25.0441 11.681 24.8768 11.5981L21.9999 10.1593L19.1224 11.6C18.7492 11.7857 18.2954 11.6342 18.1093 11.2602C18.0271 11.0943 18.0083 10.9046 18.0568 10.7249L18.9173 7.56798L16.5938 5.24373C16.2988 4.94878 16.2988 4.47092 16.5938 4.17597C16.7171 4.05264 16.8802 3.97516 17.0534 3.958L19.8539 3.67765Z" fill="#2F4027"/>
    <path fill-rule="evenodd" clip-rule="evenodd" d="M35.8539 3.67765L37.3245 0.737154C37.5118 0.364232 37.9658 0.21417 38.3386 0.401362L38.4097 0.442149C38.5227 0.515369 38.6147 0.617794 38.6755 0.739252L40.1458 3.67922L42.9455 3.95948C43.3606 4.00006 43.6646 4.36968 43.624 4.785C43.6068 4.96014 43.5295 5.1233 43.4059 5.24534L41.0825 7.56799L41.9439 10.7241C42.0529 11.1272 41.8148 11.5421 41.4124 11.6513C41.2341 11.6998 41.0441 11.681 40.8768 11.5981L37.9999 10.1593L35.1224 11.6C34.7492 11.7857 34.2954 11.6342 34.1093 11.2602C34.0271 11.0943 34.0083 10.9046 34.0568 10.7249L34.9173 7.56798L32.5938 5.24373C32.2988 4.94878 32.2988 4.47092 32.5938 4.17597C32.7171 4.05264 32.8802 3.97516 33.0534 3.958L35.8539 3.67765Z" fill="#2F4027"/>
    <path fill-rule="evenodd" clip-rule="evenodd" d="M51.8539 3.67765L53.3245 0.737154C53.5118 0.364232 53.9658 0.21417 54.3386 0.401362L54.4097 0.442149C54.5227 0.515369 54.6147 0.617794 54.6755 0.739252L56.1458 3.67922L58.9455 3.95948C59.3606 4.00006 59.6646 4.36968 59.624 4.785C59.6068 4.96014 59.5295 5.1233 59.4059 5.24534L57.0825 7.56799L57.9439 10.7241C58.0529 11.1272 57.8148 11.5421 57.4124 11.6513C57.2341 11.6998 57.0441 11.681 56.8768 11.5981L53.9999 10.1593L51.1224 11.6C50.7492 11.7857 50.2954 11.6342 50.1093 11.2602C50.0271 11.0943 50.0083 10.9046 50.0568 10.7249L50.9173 7.56798L48.5938 5.24373C48.2988 4.94878 48.2988 4.47092 48.5938 4.17597C48.7171 4.05264 48.8802 3.97516 49.0534 3.958L51.8539 3.67765Z" fill="#2F4027"/>
    <path fill-rule="evenodd" clip-rule="evenodd" d="M67.8539 3.67765L69.3245 0.737154C69.5118 0.364232 69.9658 0.21417 70.3386 0.401362L70.4097 0.442149C70.5227 0.515369 70.6147 0.617794 70.6755 0.739252L72.1458 3.67922L74.9455 3.95948C75.3606 4.00006 75.6646 4.36968 75.624 4.785C75.6068 4.96014 75.5295 5.1233 75.4059 5.24534L73.0825 7.56799L73.9439 10.7241C74.0529 11.1272 73.8148 11.5421 73.4124 11.6513C73.2341 11.6998 73.0441 11.681 72.8768 11.5981L69.9999 10.1593L67.1224 11.6C66.7492 11.7857 66.2954 11.6342 66.1093 11.2602C66.0271 11.0943 66.0083 10.9046 66.0568 10.7249L66.9173 7.56798L64.5938 5.24373C64.2988 4.94878 64.2988 4.47092 64.5938 4.17597C64.7171 4.05264 64.8802 3.97516 65.0534 3.958L67.8539 3.67765Z" fill="#2F4027"/>
</svg>
