<svg xmlns="http://www.w3.org/2000/svg" width="42" height="31" viewBox="0 0 42 31" fill="none">
    <path d="M40.1046 3.90451C39.9565 3.0099 39.5444 2.17996 38.9213 1.52118C38.0673 1.15674 37.1498 0.964181 36.2213 0.954512C29.6194 0.596334 23.0019 0.635293 16.4046 1.07118C9.70463 1.50451 3.63797 2.38785 1.7213 3.75451C1.3999 4.05214 1.19341 4.45333 1.13797 4.88785C0.860795 7.05397 0.74936 9.23809 0.804633 11.4212C0.778177 17.0377 1.05636 22.6515 1.63797 28.2378C1.64864 28.3059 1.67279 28.371 1.709 28.4296C1.74522 28.4881 1.79277 28.5389 1.84887 28.5788C1.90496 28.6187 1.96846 28.647 2.03564 28.662C2.10283 28.677 2.17233 28.6785 2.24008 28.6662C2.30783 28.654 2.37246 28.6284 2.43016 28.5909C2.48786 28.5533 2.53748 28.5046 2.5761 28.4476C2.61472 28.3906 2.64156 28.3265 2.65505 28.259C2.66853 28.1915 2.66839 28.122 2.65463 28.0545C2.40463 26.4712 2.1713 21.3878 2.13797 16.2045C2.06358 12.8065 2.17486 9.40702 2.4713 6.02118C5.20463 7.85451 10.6046 11.4378 15.0213 13.8378L17.4546 15.0378C18.762 15.7538 20.1925 16.2175 21.6713 16.4045C22.344 16.2963 22.9892 16.0585 23.5713 15.7045C24.0246 15.4623 24.4641 15.1952 24.888 14.9045L27.288 13.2378C27.8546 12.8212 28.4046 12.4212 28.9546 11.9545C32.1925 9.47566 35.2195 6.73296 38.0046 3.75451C38.0046 3.93785 38.1213 4.15451 38.1713 4.38785C38.6572 6.99807 38.886 9.64964 38.8546 12.3045C38.9406 16.8515 38.7402 21.3994 38.2546 25.9212C38.2546 26.2878 38.138 26.6712 38.088 26.8878H36.938C33.9546 27.1878 27.6046 27.6545 21.138 28.0545C13.8213 28.5045 6.3713 28.8878 3.53797 28.9545C3.46136 28.9545 3.38551 28.9696 3.31473 28.9989C3.24396 29.0282 3.17966 29.0712 3.12549 29.1254C3.07132 29.1795 3.02835 29.2438 2.99904 29.3146C2.96972 29.3854 2.95463 29.4612 2.95463 29.5378C2.95897 29.6941 3.0241 29.8424 3.13615 29.9514C3.24821 30.0603 3.39835 30.1212 3.55463 30.1212C7.33797 30.1212 19.3046 29.6378 28.2713 29.1545C32.538 28.9378 36.1213 28.7045 37.8213 28.5378C38.3131 28.5106 38.7971 28.4036 39.2546 28.2212C39.4392 28.1029 39.5797 27.9272 39.6546 27.7212C39.8371 27.2149 39.9601 26.6892 40.0213 26.1545C40.5763 21.5424 40.8379 16.8998 40.8046 12.2545C40.8416 9.4551 40.6072 6.6587 40.1046 3.90451ZM29.5546 9.37118C27.5046 10.9045 25.4213 12.3378 23.8213 13.3045C23.1377 13.8077 22.3702 14.1858 21.5546 14.4212C20.815 14.327 20.0981 14.1012 19.438 13.7545C17.938 13.1378 16.0046 12.1878 13.9546 11.1045C9.70463 8.92118 5.00463 6.23785 2.68797 4.88785C4.65463 3.73785 10.3046 3.22118 16.5046 2.88785C23.0218 2.52639 29.5541 2.52639 36.0713 2.88785H37.1046C34.7579 5.23934 32.2338 7.40685 29.5546 9.37118Z" fill="#2F4027"/>
    <path d="M16.3833 0.738254C22.9937 0.301531 29.6251 0.262177 36.2401 0.621066L36.2385 0.622694C37.0847 0.633075 37.9219 0.787164 38.7141 1.08005L39.0526 1.21514L39.1161 1.24118L39.1633 1.29164C39.8309 1.99746 40.2715 2.88709 40.4312 3.84535C40.9375 6.62034 41.1748 9.43788 41.1376 12.2584C41.1707 16.9155 40.9094 21.5701 40.3531 26.194C40.2889 26.7538 40.16 27.3045 39.9689 27.8346C39.8691 28.1092 39.681 28.3442 39.4351 28.5019L39.4074 28.5182L39.3781 28.5312C38.8872 28.727 38.3677 28.8421 37.84 28.8714L37.8384 28.8698C36.1239 29.0372 32.5428 29.2706 28.2893 29.4866C19.3235 29.9699 7.34816 30.4551 3.55456 30.4551C3.31152 30.4551 3.07777 30.3592 2.90351 30.1898C2.72949 30.0203 2.62869 29.7896 2.62194 29.5468V29.5371C2.62204 29.4171 2.64443 29.298 2.6903 29.1871C2.73637 29.0759 2.80537 28.9744 2.89049 28.8893C2.97542 28.8045 3.07586 28.7367 3.18672 28.6907C3.29553 28.6457 3.41243 28.6217 3.53014 28.6207L4.79642 28.5817C8.2144 28.4577 14.715 28.1161 21.118 27.7223C27.5838 27.3224 33.9276 26.8562 36.9042 26.5569L36.9204 26.5553H37.8254C37.8735 26.3578 37.9214 26.137 37.9214 25.9205V25.9026L37.923 25.8864C38.4072 21.3785 38.6078 16.8435 38.522 12.3105L38.5204 12.3008L38.8546 12.3045C38.9406 16.8515 38.7402 21.3994 38.2546 25.9212L38.2355 26.1972C38.2004 26.4694 38.1255 26.7255 38.088 26.8878H36.938C33.9546 27.1878 27.6046 27.6545 21.138 28.0545C13.8213 28.5045 6.3713 28.8878 3.53797 28.9545L3.42435 28.9658C3.38715 28.9732 3.34996 28.9844 3.31473 28.9989L3.21439 29.0521C3.18243 29.0733 3.15277 29.0981 3.12549 29.1254C3.07132 29.1795 3.02835 29.2438 2.99904 29.3146L2.96536 29.4248C2.95808 29.4617 2.95468 29.5001 2.95463 29.5378C2.95897 29.6941 3.0241 29.8424 3.13615 29.9514C3.22011 30.0328 3.3258 30.0878 3.439 30.11L3.55463 30.1212C7.33797 30.1212 19.3046 29.6378 28.2713 29.1545C32.538 28.9378 36.1213 28.7045 37.8213 28.5378C38.1899 28.5174 38.5541 28.4522 38.9061 28.344L39.2546 28.2212C39.3932 28.1323 39.5067 28.0109 39.5865 27.8688L39.6546 27.7212C39.8371 27.2149 39.9601 26.6892 40.0213 26.1545C40.5763 21.5424 40.8379 16.8998 40.8046 12.2545C40.8416 9.4551 40.6072 6.6587 40.1046 3.90451C39.9565 3.0099 39.5444 2.17996 38.9213 1.52118C38.0673 1.15674 37.1498 0.964181 36.2213 0.954512C29.6194 0.596334 23.0019 0.635293 16.4046 1.07118L13.9289 1.2542C8.25351 1.73221 3.3989 2.55886 1.7213 3.75451L1.60631 3.87139C1.35086 4.15347 1.18647 4.50776 1.13797 4.88785L1.04154 5.70082C0.83527 7.59989 0.756269 9.51094 0.804633 11.4212C0.778177 17.0377 1.05636 22.6515 1.63797 28.2378C1.64864 28.3059 1.67279 28.371 1.709 28.4296C1.74522 28.4881 1.79277 28.5389 1.84887 28.5788C1.90496 28.6187 1.96846 28.647 2.03564 28.662C2.06892 28.6694 2.10299 28.6737 2.13691 28.6745L2.24008 28.6662C2.27384 28.6602 2.307 28.6512 2.33874 28.6386L2.43016 28.5909C2.45892 28.5721 2.48525 28.5502 2.50963 28.5263L2.5761 28.4476C2.59546 28.4191 2.61195 28.3887 2.62519 28.3571L2.65505 28.259C2.66853 28.1915 2.66839 28.122 2.65463 28.0545C2.4359 26.669 2.23011 22.604 2.1597 18.1373L2.13797 16.2045C2.06358 12.8065 2.17486 9.40702 2.4713 6.02118C5.20463 7.85451 10.6046 11.4378 15.0213 13.8378L17.4546 15.0378C18.5987 15.6644 19.8371 16.0971 21.1197 16.3209L21.6713 16.4045C22.344 16.2963 22.9892 16.0585 23.5713 15.7045C23.798 15.5833 24.0218 15.4567 24.2414 15.3232L24.888 14.9045L27.288 13.2378C27.8546 12.8212 28.4046 12.4212 28.9546 11.9545C32.1925 9.47566 35.2195 6.73296 38.0046 3.75451C38.0046 3.93785 38.1213 4.15451 38.1713 4.38785C38.6572 6.99807 38.886 9.64964 38.8546 12.3045L38.5204 12.3008C38.5515 9.67052 38.3257 7.04342 37.8449 4.45733C37.8419 4.44338 37.8354 4.43042 37.8319 4.41664C35.1486 7.23991 32.25 9.85126 29.1568 12.2194L29.1551 12.2177C28.5989 12.6886 28.0448 13.0953 27.4852 13.5068L27.4787 13.5117L25.078 15.1784L25.0764 15.18C24.6426 15.4775 24.1926 15.7507 23.7287 15.9987C23.1139 16.3699 22.4327 16.6202 21.7235 16.7343L21.6763 16.7409L21.6291 16.736C20.1137 16.5443 18.6483 16.0683 17.3078 15.3362L14.8745 14.1367L14.8615 14.1302C10.6713 11.8532 5.60615 8.51794 2.75703 6.61228C2.53174 9.37832 2.42981 12.1528 2.45267 14.9277L2.47057 16.1972V16.2021C2.50383 21.373 2.73705 26.4159 2.98164 27.9876L2.99792 28.1569C2.99798 28.213 2.99268 28.2693 2.98164 28.3245C2.95944 28.4355 2.91492 28.5417 2.85143 28.6354C2.78806 28.7287 2.70666 28.8082 2.61217 28.8698C2.51733 28.9315 2.41103 28.975 2.29967 28.9951C2.18822 29.0152 2.07329 29.0117 1.96276 28.987C1.85231 28.9622 1.74736 28.9158 1.65514 28.8502C1.56303 28.7846 1.48515 28.7006 1.42565 28.6045C1.36617 28.5082 1.326 28.4005 1.30846 28.2887L1.30521 28.2724C0.722832 22.6781 0.445755 17.0545 0.471874 11.43L0.458853 10.6048C0.446843 8.67999 0.562813 6.75621 0.80716 4.84633C0.872477 4.33444 1.1155 3.8608 1.49401 3.51006L1.51029 3.49542L1.52819 3.48239C2.05247 3.10874 2.8338 2.78587 3.7873 2.50095C4.74737 2.2141 5.90907 1.95855 7.21341 1.73435C9.82282 1.28586 13.0271 0.955323 16.3833 0.738254ZM16.5046 2.88785C22.2068 2.57161 27.9212 2.53233 33.6262 2.7695L36.0713 2.88785H37.1046C34.7579 5.23934 32.2338 7.40685 29.5546 9.37118C27.5046 10.9045 25.4213 12.3378 23.8213 13.3045L23.5611 13.4873C22.945 13.9 22.2683 14.2152 21.5546 14.4212L21.0041 14.3255C20.6412 14.2458 20.2859 14.1346 19.9429 13.9918L19.438 13.7545C17.938 13.1378 16.0046 12.1878 13.9546 11.1045C9.70463 8.92118 5.00463 6.23785 2.68797 4.88785C4.409 3.88162 8.95018 3.35969 14.2121 3.02178L16.5046 2.88785ZM36.0529 3.22035C29.5481 2.85958 23.0281 2.85958 16.5233 3.22035C13.4253 3.38691 10.4722 3.59916 8.05163 3.91208C6.8417 4.0685 5.77002 4.24903 4.88268 4.46058C4.29765 4.60009 3.80312 4.75517 3.40482 4.91631C5.5282 6.14635 9.04473 8.14759 12.4999 9.97165L14.1063 10.8082L14.1112 10.8099C15.6464 11.6211 17.1107 12.3551 18.3739 12.929L19.5653 13.4466L19.5799 13.4515L19.593 13.4596C20.1973 13.777 20.8524 13.984 21.5282 14.0781C22.2807 13.8526 22.9899 13.5023 23.6229 13.0364L23.6359 13.0267L23.649 13.0185C25.2365 12.0594 27.3108 10.6334 29.3553 9.10414L29.357 9.10251C31.8038 7.3085 34.1193 5.34192 36.2889 3.22198L36.0529 3.22035Z" fill="#2F4027"/>
    <path d="M30.2713 19.4378C30.838 19.9878 31.4213 20.5212 31.938 21.0212C33.6046 22.5712 35.2713 23.9212 36.038 24.6712C36.1498 24.7791 36.2992 24.8395 36.4546 24.8395C36.6101 24.8395 36.7595 24.7791 36.8713 24.6712C36.9267 24.6169 36.9708 24.552 37.0008 24.4805C37.0309 24.4089 37.0464 24.3321 37.0464 24.2545C37.0464 24.1769 37.0309 24.1001 37.0008 24.0285C36.9708 23.957 36.9267 23.8922 36.8713 23.8378C36.1546 22.9878 34.8213 21.4045 33.238 19.6878C32.7046 19.1212 32.1491 18.5656 31.5713 18.0212C31.0046 17.4712 30.4213 16.9212 29.9046 16.3545C29.388 15.7878 28.5546 15.2212 27.9213 14.6878C26.7713 13.9045 25.9213 14.6878 26.738 15.6712C27.3046 16.2878 27.9213 16.9712 28.6046 17.6712C29.288 18.3712 29.7046 18.8878 30.2713 19.4378Z" fill="#2F4027"/>
    <path d="M37.0357 24.1387L37.0008 24.0285C36.9708 23.957 36.9267 23.8922 36.8713 23.8378C36.3338 23.2003 35.4495 22.1499 34.3729 20.9405L33.238 19.6878C32.7046 19.1212 32.1491 18.5656 31.5713 18.0212C31.1465 17.6089 30.7123 17.1964 30.3039 16.7771L29.9046 16.3545C29.388 15.7878 28.5546 15.2212 27.9213 14.6878C26.7713 13.9045 25.9213 14.6878 26.738 15.6712C27.3046 16.2878 27.9213 16.9712 28.6046 17.6712C29.288 18.3712 29.7046 18.8878 30.2713 19.4378C30.838 19.9878 31.4213 20.5212 31.938 21.0212C33.6046 22.5712 35.2713 23.9212 36.038 24.6712C36.1217 24.752 36.2264 24.8067 36.339 24.8288L36.4546 24.8395C36.6101 24.8395 36.7595 24.7791 36.8713 24.6712C36.8989 24.6441 36.9245 24.6149 36.9461 24.5831L37.0008 24.4805C37.0158 24.4448 37.028 24.4077 37.0357 24.3698L37.0464 24.2545C37.0464 24.2157 37.0433 24.1766 37.0357 24.1387ZM37.3791 24.2543C37.3791 24.3762 37.3547 24.4967 37.3075 24.6091C37.2602 24.7215 37.1911 24.8232 37.104 24.9086L37.1024 24.9118C36.9285 25.0794 36.6961 25.1723 36.4546 25.1723C36.2131 25.1722 35.9807 25.0794 35.8068 24.9118L35.8052 24.9102C35.431 24.5442 34.8327 24.0268 34.1076 23.3982C33.3871 22.7734 32.5496 22.0451 31.7118 21.266L31.7069 21.2611C31.4506 21.0131 31.1765 20.7564 30.8947 20.4913C30.6136 20.2268 30.324 19.9545 30.0386 19.6775C29.7476 19.395 29.4966 19.1214 29.2362 18.836C28.9747 18.5494 28.7024 18.2485 28.3654 17.9034C27.6778 17.1989 27.056 16.5102 26.492 15.8965L26.4806 15.8851L26.4823 15.8835C26.2485 15.602 26.1098 15.3068 26.0851 15.0209C26.06 14.7282 26.1568 14.4539 26.3732 14.2657C26.7993 13.8955 27.4853 13.9881 28.1083 14.4122L28.1229 14.4219L28.1359 14.4333C28.4481 14.6962 28.802 14.9596 29.1646 15.2471C29.5179 15.5273 29.8732 15.8248 30.1509 16.1293C30.6575 16.6849 31.229 17.2243 31.7997 17.778C32.0909 18.0525 32.3773 18.3297 32.6574 18.6098L33.481 19.4594L33.4826 19.4626C35.0713 21.1852 36.41 22.7726 37.1268 23.6228L37.1236 23.6244C37.2004 23.705 37.2642 23.7966 37.3075 23.8995C37.3547 24.0118 37.3791 24.1324 37.3791 24.2543Z" fill="#2F4027"/>
    <path d="M8.45463 21.0045C6.7234 22.719 5.0876 24.5273 3.55463 26.4212C3.50429 26.4792 3.46587 26.5465 3.44156 26.6194C3.41725 26.6922 3.40752 26.7692 3.41294 26.8458C3.41835 26.9224 3.43881 26.9972 3.47313 27.0659C3.50745 27.1346 3.55497 27.1958 3.61297 27.2462C3.67097 27.2965 3.73832 27.3349 3.81117 27.3593C3.88401 27.3836 3.96094 27.3933 4.03755 27.3879C4.11416 27.3825 4.18895 27.362 4.25765 27.3277C4.32636 27.2934 4.38763 27.2458 4.43797 27.1878C5.4213 26.1878 7.25463 24.6712 9.25463 22.8878C10.3046 21.9378 11.4046 20.9378 12.4213 19.9045C13.438 18.8712 14.788 17.3712 15.7546 16.2212C16.7213 15.0712 15.5213 14.5545 14.388 15.5712C13.5213 16.3378 12.588 17.1378 11.6046 18.0212C10.6213 18.9045 9.4713 20.0045 8.45463 21.0045Z" fill="#2F4027"/>
    <path d="M15.1205 14.7631C15.4242 14.6726 15.7385 14.6627 15.9961 14.7794C16.2772 14.9072 16.4518 15.1719 16.4421 15.5021C16.433 15.8028 16.2736 16.1217 16.0091 16.4363C15.0381 17.5914 13.683 19.0972 12.6595 20.1375C11.6351 21.1787 10.5269 22.1861 9.47756 23.1355L9.47593 23.1372C7.45884 24.9357 5.6497 26.4311 4.67613 27.421L4.6745 27.4194C4.59805 27.5037 4.50788 27.5752 4.40595 27.6261C4.29825 27.6798 4.18093 27.712 4.06089 27.7205C3.94076 27.729 3.82033 27.713 3.70608 27.6749C3.59179 27.6368 3.48621 27.5765 3.3952 27.4975C3.30415 27.4185 3.22936 27.3222 3.17548 27.2143C3.12166 27.1065 3.08958 26.9895 3.08108 26.8693C3.07259 26.7492 3.08701 26.6286 3.12502 26.5144C3.16319 26.4001 3.2234 26.293 3.30243 26.2019C4.84071 24.3023 6.48261 22.4874 8.21942 20.7674C9.2379 19.7656 10.3933 18.6606 11.3819 17.7726C12.3648 16.8896 13.3067 16.0822 14.1667 15.3214C14.4808 15.04 14.8105 14.8556 15.1205 14.7631ZM15.7546 16.2212C16.7213 15.0712 15.5213 14.5545 14.388 15.5712L11.6046 18.0212L10.8399 18.7198C10.0542 19.4486 9.21689 20.2548 8.45463 21.0045L7.80927 21.6512C6.31541 23.1718 4.89599 24.764 3.55463 26.4212C3.50429 26.4792 3.46587 26.5465 3.44156 26.6194C3.41725 26.6922 3.40752 26.7692 3.41294 26.8458C3.41835 26.9224 3.43881 26.9972 3.47313 27.0659C3.50745 27.1346 3.55497 27.1958 3.61297 27.2462C3.67097 27.2965 3.73832 27.3349 3.81117 27.3593C3.84729 27.3713 3.88496 27.3804 3.92255 27.3852L4.03755 27.3879C4.0756 27.3851 4.11379 27.3789 4.15041 27.3689L4.25765 27.3277C4.32636 27.2934 4.38763 27.2458 4.43797 27.1878C4.92965 26.6878 5.6336 26.0583 6.46487 25.3312L9.25463 22.8878C10.0422 22.1753 10.858 21.4347 11.6455 20.673L12.4213 19.9045C13.1838 19.1295 14.1339 18.0917 14.9691 17.1362L15.7546 16.2212Z" fill="#2F4027"/>
</svg>