<svg xmlns="http://www.w3.org/2000/svg" width="42" height="40" viewBox="0 0 42 40" fill="none">
    <path fill-rule="evenodd" clip-rule="evenodd" d="M36.1307 7.5472C34.0638 5.19489 31.4897 3.3426 28.6026 2.13002C25.7155 0.917438 22.5908 0.376227 19.4641 0.547199C16.3708 0.729401 13.3629 1.63203 10.6805 3.18306C7.99799 4.7341 5.71514 6.89061 4.01406 9.48053C2.39867 11.8062 1.36944 14.4879 1.01406 17.2972C0.648183 20.0823 0.823617 22.9119 1.53072 25.6305C1.9711 27.5705 2.73151 29.4237 3.78072 31.1139C4.53583 32.2371 5.51107 33.1953 6.64739 33.9305C6.75888 34.0024 6.89374 34.0287 7.02405 34.0038C7.15437 33.979 7.27014 33.905 7.34739 33.7972C7.38511 33.7427 7.41159 33.6811 7.42531 33.6163C7.43903 33.5514 7.43971 33.4844 7.4273 33.4193C7.41489 33.3541 7.38964 33.2921 7.35304 33.2368C7.31643 33.1815 7.26918 33.1341 7.21406 33.0972C5.96322 32.2454 4.93915 31.1012 4.23072 29.7639C3.5376 28.3655 3.01711 26.8879 2.68072 25.3639C2.07884 22.7849 1.977 20.1145 2.38072 17.4972C2.75876 14.9257 3.75377 12.4839 5.28072 10.3805C6.88927 8.0342 9.02176 6.09438 11.5095 4.71456C13.9972 3.33474 16.7719 2.55278 19.6141 2.43053C22.4297 2.3024 25.2384 2.80622 27.8339 3.90501C30.4295 5.00381 32.7462 6.66972 34.6141 8.78053C36.8067 11.2774 38.2574 14.3376 38.8023 17.6156C39.3472 20.8936 38.9644 24.2586 37.6974 27.3305C35.3307 32.8639 29.9474 37.2139 21.9807 38.0639C20.4924 38.2334 18.9918 38.2668 17.4974 38.1639C16.0325 38.0646 14.5839 37.7961 13.1807 37.3639C13.0371 37.3175 12.8809 37.33 12.7465 37.3988C12.6121 37.4675 12.5105 37.5869 12.4641 37.7305C12.4176 37.8742 12.4302 38.0304 12.499 38.1648C12.5677 38.2992 12.6871 38.4008 12.8307 38.4472C14.3118 38.9336 15.8442 39.2468 17.3974 39.3805C18.9445 39.5137 20.5002 39.5137 22.0474 39.3805C30.6641 38.5972 36.5141 33.9472 39.1474 28.0139C40.6052 24.6609 41.0953 20.9668 40.5622 17.3497C40.0291 13.7326 38.494 10.337 36.1307 7.5472Z" fill="#2F4027"/>
    <path d="M19.4464 0.21361C22.6233 0.039978 25.7984 0.591262 28.7319 1.82331C31.482 2.97843 33.9526 4.70447 35.9812 6.88516L36.3816 7.32787L36.3849 7.33112C38.7883 10.1684 40.3495 13.6232 40.8917 17.3018C41.4337 20.9802 40.9354 24.7368 39.4529 28.1466V28.1498C36.7678 34.1989 30.808 38.9185 22.0782 39.7123C20.5123 39.8471 18.9355 39.847 17.3696 39.7123C15.791 39.5764 14.2329 39.2577 12.7276 38.7634C12.5002 38.6897 12.3108 38.5287 12.2019 38.3158C12.0932 38.1029 12.0731 37.8549 12.1466 37.6273C12.2202 37.3999 12.3813 37.2106 12.5942 37.1016C12.8055 36.9935 13.0515 36.9732 13.2778 37.0447C14.6562 37.4693 16.0802 37.7332 17.5193 37.8308C18.9933 37.9323 20.4751 37.9003 21.9431 37.7331C29.798 36.8951 35.0747 32.6143 37.3907 27.1993C38.6327 24.186 39.0075 20.8849 38.4731 17.6697C37.9383 14.4534 36.5148 11.451 34.3634 9.00105C32.5287 6.92827 30.2523 5.29175 27.7032 4.21263C25.313 3.20084 22.7392 2.70243 20.1479 2.74779L19.6287 2.76407C16.8384 2.88408 14.1137 3.65069 11.6713 5.00528C9.22908 6.35986 7.13564 8.26509 5.5564 10.5684L5.54989 10.5766C4.05472 12.6363 3.07991 15.0278 2.70972 17.546C2.36213 19.7994 2.39522 22.095 2.80575 24.3331L3.00595 25.2885V25.2917C3.3365 26.7894 3.84826 28.2421 4.52938 29.6163C5.21225 30.9021 6.19869 32.0015 7.4021 32.821C7.4934 32.8823 7.57086 32.9605 7.6316 33.0522C7.69256 33.1442 7.7346 33.248 7.75529 33.3565C7.77597 33.4651 7.77489 33.5772 7.75204 33.6853C7.72921 33.7933 7.68455 33.8956 7.62183 33.9864L7.61858 33.9913C7.49148 34.1687 7.30073 34.2906 7.08635 34.3314C6.872 34.3722 6.64962 34.3293 6.46623 34.211C5.29204 33.4513 4.28426 32.4599 3.50399 31.2992L3.49748 31.2895C2.4304 29.5705 1.6563 27.6861 1.20744 25.7133C0.489803 22.9535 0.311946 20.0803 0.683354 17.253C1.04573 14.3914 2.09456 11.6598 3.73999 9.29076C5.46912 6.66045 7.78899 4.46995 10.5141 2.89427C13.2414 1.31739 16.2998 0.400485 19.4447 0.215238L19.4464 0.21361ZM28.6026 2.13002C25.7155 0.917438 22.5908 0.376227 19.4641 0.547199C16.3708 0.729401 13.3629 1.63203 10.6805 3.18306C7.99799 4.7341 5.71514 6.89061 4.01406 9.48053C2.39867 11.8062 1.36944 14.4879 1.01406 17.2972C0.648183 20.0823 0.823617 22.9119 1.53072 25.6305C1.9711 27.5705 2.73151 29.4237 3.78072 31.1139C4.53583 32.2371 5.51107 33.1953 6.64739 33.9305C6.75888 34.0024 6.89374 34.0287 7.02405 34.0038C7.15437 33.979 7.27014 33.905 7.34739 33.7972C7.38511 33.7427 7.41159 33.6811 7.42531 33.6163C7.43903 33.5514 7.43971 33.4844 7.4273 33.4193C7.41489 33.3541 7.38964 33.2921 7.35304 33.2368C7.31643 33.1815 7.26918 33.1341 7.21406 33.0972C5.96322 32.2454 4.93915 31.1012 4.23072 29.7639C3.5376 28.3655 3.01711 26.8879 2.68072 25.3639C2.07884 22.7849 1.977 20.1145 2.38072 17.4972C2.75876 14.9257 3.75377 12.4839 5.28072 10.3805C6.88927 8.0342 9.02176 6.09438 11.5095 4.71456C13.9972 3.33474 16.7719 2.55278 19.6141 2.43053C22.4297 2.3024 25.2384 2.80622 27.8339 3.90501C30.4295 5.00381 32.7462 6.66972 34.6141 8.78053C36.8067 11.2774 38.2574 14.3376 38.8023 17.6156C39.3472 20.8936 38.9644 24.2586 37.6974 27.3305C35.3307 32.8639 29.9474 37.2139 21.9807 38.0639C20.4924 38.2334 18.9918 38.2668 17.4974 38.1639C16.0325 38.0646 14.5839 37.7961 13.1807 37.3639C13.0371 37.3175 12.8809 37.33 12.7465 37.3988C12.6121 37.4675 12.5105 37.5869 12.4641 37.7305C12.4176 37.8742 12.4302 38.0304 12.499 38.1648C12.5677 38.2992 12.6871 38.4008 12.8307 38.4472C14.3118 38.9336 15.8442 39.2468 17.3974 39.3805C18.9445 39.5137 20.5002 39.5137 22.0474 39.3805C30.6641 38.5972 36.5141 33.9472 39.1474 28.0139C40.6052 24.6609 41.0953 20.9668 40.5622 17.3497C40.0291 13.7326 38.494 10.337 36.1307 7.5472C34.0638 5.19489 31.4897 3.3426 28.6026 2.13002Z" fill="#2F4027"/>
    <path fill-rule="evenodd" clip-rule="evenodd" d="M13.5307 30.0972C13.7466 30.1099 13.9626 30.0758 14.1641 29.9972C14.5307 29.8305 15.0474 29.4472 15.2807 29.3305C15.8141 29.0472 16.3474 28.7139 16.9474 28.3805C17.5474 28.0472 17.9974 27.6805 18.4974 27.3139C18.7307 27.1305 19.0641 26.8639 19.3974 26.6472L19.6807 26.4972C19.6807 26.8139 20.3141 27.1305 20.5307 27.3139C21.5065 28.3275 22.6304 29.1873 23.8641 29.8639C24.2475 30.0561 24.6755 30.142 25.1035 30.1127C25.5314 30.0834 25.9437 29.9399 26.2974 29.6972L28.4974 27.6639C28.8165 27.4444 29.1124 27.1931 29.3807 26.9139C29.6019 26.6498 29.7358 26.3238 29.7641 25.9805C29.767 25.5137 29.6644 25.0522 29.4641 24.6305C29.0894 23.8875 28.6248 23.1934 28.0807 22.5639L26.0641 20.4805L26.6307 20.0139C27.2141 19.4869 27.7704 18.9306 28.2974 18.3472C28.6715 17.9514 29.0221 17.534 29.3474 17.0972C29.678 16.7122 29.9581 16.2866 30.1807 15.8305C30.334 15.4395 30.334 15.0049 30.1807 14.6139C30.0556 14.3095 29.8811 14.0279 29.6641 13.7805C29.2756 13.3463 28.852 12.9449 28.3974 12.5805C27.9307 12.1639 27.4307 11.4639 26.8974 10.9139C26.5888 10.62 26.2267 10.388 25.8307 10.2305C25.5019 10.1136 25.1429 10.1136 24.8141 10.2305C24.4305 10.387 24.0668 10.5884 23.7307 10.8305C23.2041 11.1704 22.7078 11.5552 22.2474 11.9805C21.5994 12.6124 20.9873 13.2801 20.4141 13.9805C20.3307 14.0805 20.0641 14.2805 19.8307 14.4972C19.4929 14.1753 19.1307 13.8799 18.7474 13.6139L16.6307 11.6639C16.2471 11.2404 15.8035 10.8754 15.3141 10.5805C15.0144 10.4111 14.6749 10.3248 14.3307 10.3305C14.0992 10.3504 13.8732 10.4125 13.6641 10.5139C13.3107 10.7071 12.9711 10.9243 12.6474 11.1639L11.4807 12.2139C11.0534 12.7168 10.6998 13.2779 10.4307 13.8805C10.2106 14.3315 10.102 14.8288 10.1141 15.3305C10.1353 15.5454 10.2098 15.7516 10.3307 15.9305C10.5357 16.1849 10.7585 16.4244 10.9974 16.6472L13.2474 18.8305C13.3446 18.9234 13.4748 18.9738 13.6092 18.9706C13.7436 18.9675 13.8712 18.9111 13.9641 18.8139C14.0569 18.7166 14.1073 18.5865 14.1042 18.4521C14.101 18.3177 14.0446 18.19 13.9474 18.0972L11.7974 15.9472L11.2474 15.2805C11.2839 14.8854 11.4093 14.5037 11.6141 14.1639C11.8292 13.7654 12.0862 13.3911 12.3807 13.0472C12.7807 12.7139 13.9141 11.6805 14.4307 11.6472C14.5771 11.6507 14.7181 11.7036 14.8307 11.7972C15.1435 12.049 15.4335 12.3278 15.6974 12.6305L17.6474 14.6472C17.8141 14.8305 18.3974 15.6639 18.8307 16.1139C19.0699 16.3659 19.3869 16.5303 19.7307 16.5805C20.0426 16.579 20.3438 16.4668 20.5807 16.2639C20.9791 15.8797 21.3366 15.4552 21.6474 14.9972C22.1474 14.4305 22.5974 13.9305 23.0807 13.4805C23.5935 13.0194 24.1519 12.6117 24.7474 12.2639C24.961 12.1363 25.1839 12.0249 25.4141 11.9305C25.5371 12.0099 25.6492 12.1052 25.7474 12.2139C26.2974 12.7305 26.7974 13.4472 27.2641 13.8805C27.7307 14.3139 27.8974 14.4305 28.1974 14.7472C28.8141 15.4305 28.3974 15.1805 27.8974 15.8472C27.6159 16.2333 27.3097 16.6007 26.9807 16.9472C26.4641 17.5139 25.8974 18.0639 25.3141 18.5305C25.0641 18.7805 24.5641 19.0805 24.2641 19.3972C24.1133 19.5345 23.989 19.6983 23.8974 19.8805C23.7957 20.046 23.7418 20.2363 23.7418 20.4305C23.7418 20.6247 23.7957 20.8151 23.8974 20.9805C24.0857 21.2391 24.3102 21.4693 24.5641 21.6639L26.5474 23.6972C26.8141 24.0305 27.1641 24.4472 27.4474 24.8805C28.1974 26.0639 27.6807 25.8305 27.3307 26.1139L25.1141 28.1139C24.7807 28.3639 24.3974 28.1139 23.9974 27.9305C23.1136 27.3498 22.2876 26.6857 21.5307 25.9472C21.2306 25.6197 20.9135 25.3082 20.5807 25.0139C20.2654 24.7789 19.8704 24.6771 19.4807 24.7305C19.1922 24.7967 18.9164 24.9093 18.6641 25.0639C18.2415 25.3326 17.8404 25.6335 17.4641 25.9639C17.0141 26.3139 16.5307 26.6639 16.0307 26.9972C15.5307 27.3305 15.0307 27.6472 14.5307 27.9305C13.7474 28.3805 14.2974 29.1639 12.4974 27.2972C12.0997 26.9257 11.7371 26.5185 11.4141 26.0805C11.2546 25.8855 11.156 25.6478 11.1307 25.3972C11.144 25.2735 11.1838 25.1541 11.2474 25.0472C11.4141 24.7805 11.6641 24.5305 11.8474 24.2805C12.2766 23.726 12.7444 23.2025 13.2474 22.7139C13.7698 22.2396 14.3269 21.8051 14.9141 21.4139C14.9764 21.3723 15.03 21.3188 15.0717 21.2565C15.1134 21.1942 15.1425 21.1243 15.1572 21.0508C15.1719 20.9773 15.172 20.9016 15.1574 20.8281C15.1429 20.7545 15.114 20.6846 15.0724 20.6222C15.0308 20.5598 14.9773 20.5062 14.9151 20.4645C14.8528 20.4228 14.7829 20.3938 14.7093 20.3791C14.6358 20.3644 14.5601 20.3643 14.4866 20.3788C14.4131 20.3934 14.3431 20.4223 14.2807 20.4639C13.6395 20.8775 13.0269 21.3341 12.4474 21.8305C11.8854 22.3473 11.3618 22.9044 10.8807 23.4972C10.5724 23.8296 10.2987 24.1926 10.0641 24.5805C9.94518 24.8195 9.87708 25.0806 9.86406 25.3472C9.86079 25.7503 9.9643 26.1471 10.1641 26.4972C10.5464 27.1043 10.9996 27.6638 11.5141 28.1639C11.88 28.6539 12.2752 29.1214 12.6974 29.5639C12.905 29.8328 13.1996 30.0213 13.5307 30.0972Z" fill="#2F4027"/>
    <path d="M24.7028 9.91657C25.0535 9.79192 25.4324 9.7759 25.7901 9.86937L25.9431 9.91657L25.9545 9.91983C26.2809 10.0498 26.5872 10.2262 26.8627 10.4423L27.128 10.6718L27.1361 10.6815C27.4128 10.9668 27.6812 11.2906 27.9271 11.5816C28.1776 11.878 28.4035 12.1386 28.6156 12.3287C28.9636 12.6083 29.2942 12.9088 29.6052 13.2287L29.9128 13.5575L29.9144 13.5608C30.1556 13.8357 30.3499 14.1486 30.489 14.4869L30.4906 14.4918C30.6746 14.961 30.6745 15.4825 30.4906 15.9517L30.4857 15.9647L30.4808 15.9761C30.2492 16.4506 29.9558 16.8927 29.6133 17.2945L29.615 17.2961C29.2833 17.7415 28.9236 18.1652 28.5424 18.5689L28.544 18.5705C28.0095 19.1622 27.4462 19.7272 26.8545 20.2616L26.8431 20.2714L26.5534 20.5074L28.321 22.3319L28.334 22.345L28.3324 22.3466C28.8943 22.9968 29.3745 23.7131 29.7614 24.4804L29.7647 24.4869C29.9866 24.9539 30.1 25.4656 30.0967 25.9827V26.0087C30.0627 26.4203 29.9013 26.8118 29.6361 27.1285L29.6215 27.1448C29.3427 27.435 29.0342 27.6952 28.7035 27.9244L26.5241 29.9426L26.5062 29.9589L26.4867 29.9719C26.0839 30.2483 25.6134 30.4122 25.126 30.4455C24.6388 30.4789 24.1515 30.3811 23.7149 30.1623L23.7035 30.1558C22.4478 29.4671 21.3033 28.593 20.3083 27.5631C20.2707 27.5324 20.211 27.49 20.1211 27.4296C20.0331 27.3704 19.9238 27.2977 19.8217 27.2196C19.7254 27.146 19.6217 27.0569 19.5368 26.956C19.2331 27.1573 18.9304 27.3978 18.7035 27.5761L18.6954 27.5826C18.2108 27.938 17.7335 28.325 17.1101 28.6715C16.5391 28.9886 15.9647 29.3448 15.4369 29.6252L15.4304 29.6285C15.3349 29.6762 15.1705 29.7842 14.9519 29.9247C14.7503 30.0543 14.5109 30.2059 14.3025 30.3007L14.2862 30.3088L14.2846 30.3072C14.0385 30.4031 13.775 30.4447 13.5114 30.4293L13.4838 30.4276L13.4561 30.4228C13.0612 30.3323 12.7102 30.1097 12.4568 29.7945L12.1377 29.4494C11.8298 29.1066 11.5368 28.7506 11.2605 28.3817C10.7359 27.8686 10.273 27.2954 9.88189 26.6744L9.87375 26.663C9.64485 26.2618 9.52661 25.8065 9.53032 25.3446V25.3316C9.54559 25.019 9.62695 24.7118 9.76633 24.4315L9.77121 24.4202L9.77935 24.4088C10.022 24.0076 10.3047 23.632 10.6224 23.2873C11.1137 22.682 11.6486 22.1126 12.2224 21.5849L12.2305 21.5767L12.6797 21.2056C12.9836 20.9627 13.296 20.7308 13.6156 20.509L14.1006 20.1835C14.1981 20.1194 14.3069 20.0744 14.4213 20.0517C14.5376 20.0286 14.6581 20.0284 14.7745 20.0517C14.8909 20.0749 15.0013 20.1223 15.1 20.1884C15.1986 20.2544 15.2832 20.3387 15.349 20.4374C15.4148 20.5361 15.461 20.6466 15.4841 20.7629C15.5071 20.8794 15.5074 20.9997 15.4841 21.1161C15.4608 21.2324 15.4149 21.3431 15.349 21.4416C15.2829 21.5403 15.1972 21.6248 15.0984 21.6907C14.5279 22.0708 13.9852 22.4916 13.4773 22.9521L13.4789 22.9537C12.9875 23.4312 12.5311 23.9434 12.1117 24.4853L12.1101 24.4836C12.0114 24.6174 11.8963 24.7529 11.7976 24.871C11.692 24.9973 11.6008 25.112 11.5306 25.2242C11.499 25.2791 11.4793 25.3393 11.4688 25.4016C11.4867 25.5273 11.5276 25.6481 11.5925 25.7564L11.6723 25.8703L11.682 25.8817C11.915 26.1975 12.1698 26.498 12.4437 26.7785L12.7253 27.0536L12.7383 27.065C13.1896 27.533 13.4813 27.8229 13.6807 27.9927C13.7506 28.0522 13.8051 28.0878 13.8435 28.1132C13.8524 28.1021 13.8637 28.0894 13.876 28.0741C13.9698 27.9578 14.1138 27.7851 14.3643 27.6412C14.8548 27.3632 15.3495 27.0506 15.8454 26.72C16.3384 26.3913 16.816 26.0463 17.2598 25.7011C17.6446 25.3646 18.0541 25.0575 18.4854 24.7831L18.4903 24.7799C18.7734 24.6065 19.083 24.4797 19.4066 24.4055L19.4213 24.4022L19.4359 24.4006C19.8523 24.3436 20.2737 24.4313 20.6306 24.6464L20.7803 24.7473L20.7917 24.7554L20.8015 24.7636C21.1384 25.0616 21.459 25.3781 21.7634 25.7092L22.3331 26.2382C22.9091 26.7486 23.5209 27.2174 24.1641 27.6412C24.3826 27.7426 24.5241 27.821 24.6736 27.8642C24.7932 27.8987 24.8512 27.8877 24.9014 27.8544L27.1068 25.8671L27.1215 25.8541C27.2525 25.7482 27.3979 25.6916 27.4714 25.6604C27.4756 25.6586 27.4791 25.6555 27.4828 25.6539C27.4816 25.6501 27.481 25.645 27.4795 25.6409C27.4411 25.5303 27.3509 25.3509 27.1687 25.0631L26.9538 24.7554C26.7334 24.4537 26.4959 24.1662 26.2914 23.9107L24.3318 21.9039C24.065 21.6949 23.8282 21.4504 23.6286 21.1763L23.6205 21.1666L23.614 21.1552C23.48 20.9373 23.409 20.6866 23.4089 20.4309C23.4089 20.1847 23.4749 19.9431 23.5993 19.731L23.6889 19.5715C23.7857 19.4161 23.903 19.2737 24.0388 19.15C24.2082 18.9752 24.4222 18.8121 24.6068 18.6731C24.8114 18.5191 24.9749 18.3994 25.0788 18.2955L25.0918 18.2825L25.1065 18.2694C25.6727 17.8164 26.2266 17.2798 26.7341 16.7232L26.739 16.7183L27.2012 16.1991C27.3495 16.0212 27.4912 15.8379 27.6277 15.6506L27.6309 15.6474C27.7765 15.4532 27.9167 15.3238 28.0313 15.2307C28.0592 15.2081 28.0897 15.1843 28.1159 15.164C28.081 15.1197 28.0293 15.0595 27.9548 14.9768L27.5707 14.6057C27.4392 14.4884 27.2821 14.3533 27.0368 14.1256C26.7857 13.8923 26.5306 13.5862 26.2833 13.2938C26.0294 12.9939 25.7785 12.7003 25.5199 12.4573L25.5085 12.4475L25.5004 12.4377C25.4605 12.3936 25.4171 12.3524 25.3718 12.314C25.2167 12.3849 25.0642 12.4626 24.9177 12.55L24.9161 12.5517C24.3417 12.8872 23.8012 13.279 23.3064 13.7235C22.8403 14.1575 22.4034 14.6421 21.9083 15.203C21.5878 15.6724 21.2219 16.109 20.8129 16.5035L20.7982 16.5181L20.7966 16.5165C20.4998 16.7706 20.1229 16.9117 19.7321 16.9136H19.7077L19.6817 16.9104C19.2645 16.8492 18.88 16.6497 18.5896 16.344C18.3589 16.1041 18.0948 15.7691 17.8751 15.483C17.6495 15.1893 17.4827 14.964 17.4079 14.8791L15.4581 12.8625L15.445 12.8495C15.1944 12.5621 14.9185 12.296 14.6215 12.0569L14.6182 12.0536C14.5676 12.0115 14.5045 11.9886 14.4392 11.9836C14.3861 11.9917 14.2793 12.0274 14.1153 12.122C13.9481 12.2184 13.7588 12.3516 13.5652 12.4996C13.1912 12.7854 12.8371 13.0959 12.6211 13.2776C12.3471 13.5996 12.1075 13.9504 11.9066 14.3225L11.9001 14.3355C11.744 14.5945 11.6424 14.8821 11.5974 15.1802L12.0385 15.7157L14.1836 17.8609C14.3418 18.0142 14.4322 18.2233 14.4376 18.4436C14.4427 18.6664 14.3587 18.883 14.2048 19.0442C14.051 19.2051 13.8398 19.2993 13.6172 19.3046C13.3945 19.3098 13.1778 19.2257 13.0167 19.0718L13.015 19.0702L10.7706 16.8909L10.4076 16.5279C10.291 16.4026 10.1782 16.2738 10.0707 16.1405L10.0544 16.1177C9.90262 15.8932 9.80943 15.6339 9.7826 15.3642L9.78098 15.3511V15.3381C9.76768 14.7834 9.8876 14.2336 10.1309 13.7349C10.4123 13.1073 10.7809 12.5225 11.2263 11.9983L11.2409 11.9804L12.4242 10.9159L12.4356 10.9062L12.4486 10.8964C12.7844 10.6479 13.1368 10.4214 13.5033 10.2209L13.518 10.2128C13.7638 10.0936 14.0303 10.0213 14.3025 9.99795L14.3252 9.99632L14.6264 10.0126C14.8251 10.0359 15.0201 10.0847 15.2058 10.1591L15.4776 10.2909L15.4857 10.2942C15.9944 10.6006 16.4554 10.9808 16.8562 11.4188L18.9558 13.3524C19.2631 13.5668 19.557 13.7996 19.8363 14.0491C19.8817 14.0105 19.924 13.9731 19.9633 13.94C20.0166 13.895 20.0623 13.8568 20.0984 13.8244C20.1158 13.8088 20.1299 13.796 20.1407 13.7854C20.146 13.7801 20.1507 13.7756 20.1537 13.7724L20.1553 13.7691C20.7364 13.059 21.3571 12.3817 22.014 11.7411L22.0206 11.7362C22.4951 11.2979 23.0077 10.9 23.5505 10.5497C23.9039 10.2968 24.2857 10.0856 24.6882 9.92145L24.7028 9.91657ZM25.8307 10.2305C25.5019 10.1136 25.1429 10.1136 24.8141 10.2305C24.4305 10.387 24.0668 10.5884 23.7307 10.8305C23.2041 11.1704 22.7078 11.5552 22.2474 11.9805C21.5994 12.6124 20.9873 13.2801 20.4141 13.9805C20.3307 14.0805 20.0641 14.2805 19.8307 14.4972C19.4929 14.1753 19.1307 13.8799 18.7474 13.6139L16.6307 11.6639C16.2471 11.2404 15.8035 10.8754 15.3141 10.5805C15.0144 10.4111 14.6749 10.3248 14.3307 10.3305C14.0992 10.3504 13.8732 10.4125 13.6641 10.5139C13.3107 10.7071 12.9711 10.9243 12.6474 11.1639L11.4807 12.2139C11.0534 12.7168 10.6998 13.2779 10.4307 13.8805C10.2106 14.3315 10.102 14.8288 10.1141 15.3305C10.1353 15.5454 10.2098 15.7516 10.3307 15.9305C10.5357 16.1849 10.7585 16.4244 10.9974 16.6472L13.2474 18.8305C13.3446 18.9234 13.4748 18.9738 13.6092 18.9706C13.7436 18.9675 13.8712 18.9111 13.9641 18.8139C14.0569 18.7166 14.1073 18.5865 14.1042 18.4521C14.101 18.3177 14.0446 18.19 13.9474 18.0972L11.7974 15.9472L11.2474 15.2805C11.2839 14.8854 11.4093 14.5037 11.6141 14.1639C11.8292 13.7654 12.0862 13.3911 12.3807 13.0472C12.7807 12.7139 13.9141 11.6805 14.4307 11.6472C14.5771 11.6507 14.7181 11.7036 14.8307 11.7972C15.1435 12.049 15.4335 12.3278 15.6974 12.6305L17.6474 14.6472C17.8141 14.8305 18.3974 15.6639 18.8307 16.1139C19.0699 16.3659 19.3869 16.5303 19.7307 16.5805C20.0426 16.579 20.3438 16.4668 20.5807 16.2639C20.9791 15.8797 21.3366 15.4552 21.6474 14.9972C22.1474 14.4305 22.5974 13.9305 23.0807 13.4805C23.5935 13.0194 24.1519 12.6117 24.7474 12.2639C24.961 12.1363 25.1839 12.0249 25.4141 11.9305C25.5371 12.0099 25.6492 12.1052 25.7474 12.2139C26.2974 12.7305 26.7974 13.4472 27.2641 13.8805C27.7307 14.3139 27.8974 14.4305 28.1974 14.7472C28.8141 15.4305 28.3974 15.1805 27.8974 15.8472C27.6159 16.2333 27.3097 16.6007 26.9807 16.9472C26.4641 17.5139 25.8974 18.0639 25.3141 18.5305C25.0641 18.7805 24.5641 19.0805 24.2641 19.3972C24.1133 19.5345 23.989 19.6983 23.8974 19.8805C23.7957 20.046 23.7418 20.2363 23.7418 20.4305C23.7418 20.6247 23.7957 20.8151 23.8974 20.9805C24.0857 21.2391 24.3102 21.4693 24.5641 21.6639L26.5474 23.6972C26.8141 24.0305 27.1641 24.4472 27.4474 24.8805C28.1974 26.0639 27.6807 25.8305 27.3307 26.1139L25.1141 28.1139C24.7807 28.3639 24.3974 28.1139 23.9974 27.9305C23.1136 27.3498 22.2876 26.6857 21.5307 25.9472C21.2306 25.6197 20.9135 25.3082 20.5807 25.0139C20.2654 24.7789 19.8704 24.6771 19.4807 24.7305C19.1922 24.7967 18.9164 24.9093 18.6641 25.0639C18.2415 25.3326 17.8404 25.6335 17.4641 25.9639C17.0141 26.3139 16.5307 26.6639 16.0307 26.9972C15.5307 27.3305 15.0307 27.6472 14.5307 27.9305C13.7474 28.3805 14.2974 29.1639 12.4974 27.2972C12.0997 26.9257 11.7371 26.5185 11.4141 26.0805C11.2546 25.8855 11.156 25.6478 11.1307 25.3972C11.144 25.2735 11.1838 25.1541 11.2474 25.0472C11.4141 24.7805 11.6641 24.5305 11.8474 24.2805C12.2766 23.726 12.7444 23.2025 13.2474 22.7139C13.7698 22.2396 14.3269 21.8051 14.9141 21.4139C14.9764 21.3723 15.03 21.3188 15.0717 21.2565C15.1134 21.1942 15.1425 21.1243 15.1572 21.0508C15.1719 20.9773 15.172 20.9016 15.1574 20.8281C15.1429 20.7545 15.114 20.6846 15.0724 20.6222C15.0308 20.5598 14.9773 20.5062 14.9151 20.4645C14.8528 20.4228 14.7829 20.3938 14.7093 20.3791C14.6358 20.3644 14.5601 20.3643 14.4866 20.3788C14.4131 20.3934 14.3431 20.4223 14.2807 20.4639C13.6395 20.8775 13.0269 21.3341 12.4474 21.8305C11.8854 22.3473 11.3618 22.9044 10.8807 23.4972C10.5724 23.8296 10.2987 24.1926 10.0641 24.5805C9.94518 24.8195 9.87708 25.0806 9.86406 25.3472C9.86079 25.7503 9.9643 26.1471 10.1641 26.4972C10.5464 27.1043 10.9996 27.6638 11.5141 28.1639C11.88 28.6539 12.2752 29.1214 12.6974 29.5639C12.905 29.8328 13.1996 30.0213 13.5307 30.0972C13.7466 30.1099 13.9626 30.0758 14.1641 29.9972C14.5307 29.8305 15.0474 29.4472 15.2807 29.3305C15.8141 29.0472 16.3474 28.7139 16.9474 28.3805C17.5474 28.0472 17.9974 27.6805 18.4974 27.3139C18.7307 27.1305 19.0641 26.8639 19.3974 26.6472L19.6807 26.4972C19.6807 26.8139 20.3141 27.1305 20.5307 27.3139C21.5065 28.3275 22.6304 29.1873 23.8641 29.8639C24.2475 30.0561 24.6755 30.142 25.1035 30.1127C25.5314 30.0834 25.9437 29.9399 26.2974 29.6972L28.4974 27.6639C28.8165 27.4444 29.1124 27.1931 29.3807 26.9139C29.6019 26.6498 29.7358 26.3238 29.7641 25.9805C29.767 25.5137 29.6644 25.0522 29.4641 24.6305C29.0894 23.8875 28.6248 23.1934 28.0807 22.5639L26.0641 20.4805L26.6307 20.0139C27.2141 19.4869 27.7704 18.9306 28.2974 18.3472C28.6715 17.9514 29.0221 17.534 29.3474 17.0972C29.678 16.7122 29.9581 16.2866 30.1807 15.8305C30.334 15.4395 30.334 15.0049 30.1807 14.6139C30.0556 14.3095 29.8811 14.0279 29.6641 13.7805C29.2756 13.3463 28.852 12.9449 28.3974 12.5805C27.9307 12.1639 27.4307 11.4639 26.8974 10.9139C26.5888 10.62 26.2267 10.388 25.8307 10.2305Z" fill="#2F4027"/>
</svg>