<svg fill="none" height="24" viewBox="0 0 24 24" width="24" xmlns="http://www.w3.org/2000/svg"><path clip-rule="evenodd" d="m17.028 10.3969c-.4292-.55591-.9335-1.0495-1.4985-1.46668l-4.5274-3.73034c-.4669-.39012-.9567-.7521-1.46663-1.08403-.21404-.13897-.46227-.2162-.71738-.22318-.14375 0-.28161.0571-.38326.15875-.10164.10165-.15875.23951-.15875.38327 0 .4623 0 0 1.83332 1.78546l4.081 4.17675c.1913.1913.4942.4304.7652.7173.271.287.4304.3667.287.3826-.1037.2369-.2496.4529-.4305.6377-.3188.3667-.6854.7014-.9246.9405-.6365.7026-1.3181 1.3629-2.0405 1.9768-.7046.6232-1.4502 1.1984-2.23182 1.7217l-2.24777 1.5942c-.25755.1668-.48411.3772-.66955.6217-.10025.1373-.1445.3076-.12377.4764.02072.1687.10487.3233.23536.4323.51013.5101.22318.1434 3.61875-1.7217.8979-.4689 1.761-1.0017 2.5825-1.5942.824-.6014 1.6119-1.2508 2.3594-1.9449.5362-.4858 1.0271-1.0194 1.4666-1.5941.2699-.3577.4552-.772.5421-1.2116.0532-.5045-.0708-1.0117-.3508-1.4347z" fill="#B1CFB0" fill-rule="evenodd"/></svg>