<svg xmlns="http://www.w3.org/2000/svg" width="34" height="39" viewBox="0 0 34 39" fill="none">
    <path d="M21.0192 29.9429C19.1192 27.7596 17.0692 25.6929 15.3359 23.3596C13.6025 21.0263 11.2025 17.7429 11.9859 14.8929C12.4359 13.2763 13.7192 12.1596 15.1025 11.2596C15.7025 10.8763 16.3359 10.5429 16.9859 10.2596C18.0525 9.79293 19.3025 9.99294 19.8692 11.2763C20.4692 12.6429 18.5859 15.3096 17.9525 16.4929C17.3192 17.6763 16.7692 18.8429 16.3525 20.1263C16.0025 21.1929 17.0692 22.0096 18.0359 21.8096C20.0525 21.3929 22.0692 21.3429 24.0859 21.7763C25.6025 22.1096 28.5692 22.8429 29.4359 24.2929C30.3692 25.8596 29.6525 27.2263 28.3859 28.1429C27.6859 28.6429 26.9025 29.0429 26.0859 29.3429C25.0525 29.7096 22.3192 30.4429 21.3859 29.6429C20.0525 28.5096 18.2359 30.2763 19.4525 31.5763C22.8525 35.2263 32.7692 30.7929 33.0859 26.0929C33.3025 23.0096 30.0525 21.0263 27.6025 19.9929C24.3025 18.6096 20.7859 18.4263 17.3192 19.1596L19.0025 20.8429C20.1359 17.2929 24.7359 12.0429 21.6025 8.24294C19.1525 5.27627 14.4525 8.24293 12.2859 10.1096C4.4192 16.9429 14.7859 26.4096 20.4859 30.6096C20.9025 30.9263 21.3192 30.2763 21.0192 29.9263V29.9429Z" fill="#FF5500"/>
    <path d="M8.33576 17.8596C5.43576 15.4763 1.48576 17.2596 0.302425 20.7096C-1.19758 25.1096 6.23576 25.5096 8.86909 25.3429L7.98576 23.2096C5.21909 26.4929 2.50243 33.1929 5.9191 36.9929C9.70243 41.2096 17.1024 36.9096 19.1024 32.9263C19.5691 31.9929 18.5191 30.5763 17.5191 31.3429C16.3024 32.2596 15.3858 33.4596 14.1691 34.3763C12.5358 35.6096 9.10243 37.1429 7.58576 34.8263C5.73576 32.0096 7.95243 27.1929 9.75243 24.9763C10.3691 24.2263 10.0524 22.7596 8.86909 22.8429C7.95242 22.9096 7.0691 22.9596 6.1691 22.8763C5.73576 22.8429 3.05243 22.4763 2.70243 21.9763C2.15243 21.1929 3.45242 19.8429 3.86909 19.4596C4.88576 18.5096 6.33576 17.8763 7.70243 18.7096C8.20243 19.0263 8.81909 18.2596 8.35243 17.8763L8.33576 17.8596Z" fill="#FF5500"/>
    <path d="M7.81902 13.427C8.05235 13.2936 7.55235 11.9436 7.50235 11.6603C7.38568 11.0103 7.30236 10.3603 7.30236 9.69364C7.28569 8.41031 5.28568 8.41031 5.30235 9.69364C5.31902 10.977 5.63569 12.3603 6.38569 13.477C6.85235 14.1603 7.70235 14.827 8.33568 13.9436C8.56902 13.6103 8.11902 13.2603 7.81902 13.427Z" fill="#FF5500"/>
    <path d="M6.01898 14.6096C4.65232 13.7763 3.33565 12.8429 2.03565 11.9096C1.18565 11.2929 0.268986 12.7929 1.20232 13.3429C2.63565 14.1929 4.10232 14.8596 5.66899 15.4596C6.16899 15.6596 6.46899 14.8763 6.03565 14.6096H6.01898Z" fill="#FF5500"/>
    <path d="M20.1528 1.10906C25.4194 4.02572 27.7361 9.27572 27.8027 15.1257C27.8027 16.0424 29.3528 16.3424 29.4861 15.3591C30.3861 8.74239 26.3861 3.04239 20.3361 0.675722C20.0861 0.575722 19.9194 0.975723 20.1528 1.10906Z" fill="#FF5500"/>
    <path d="M29.3697 4.92614C29.5363 6.02614 30.0363 7.00947 30.303 8.0928C30.5863 9.25947 30.703 10.4428 30.6697 11.6261C30.6363 12.9595 32.753 12.9595 32.7363 11.6261C32.703 9.25947 31.9863 5.8928 29.7197 4.65947C29.5197 4.55947 29.3363 4.72614 29.3697 4.92614Z" fill="#FF5500"/>
</svg>