<svg xmlns="http://www.w3.org/2000/svg" width="25" height="14" viewBox="0 0 25 14" fill="none">
    <path d="M16.2471 0.231445C19.6923 0.300359 22.598 0.472075 24.2861 0.586914H24.2852C24.3486 0.587681 24.4112 0.601261 24.4697 0.625977C24.5301 0.651494 24.5852 0.68833 24.6309 0.735352C24.6766 0.782412 24.7126 0.838263 24.7363 0.899414C24.7594 0.958837 24.7697 1.02223 24.7686 1.08594C24.7768 1.15065 24.773 1.21655 24.7549 1.2793C24.7356 1.34593 24.7017 1.40758 24.6562 1.45996C24.6107 1.51236 24.5545 1.55457 24.4912 1.58301C24.4286 1.61111 24.3606 1.62444 24.292 1.62402C22.5339 1.65852 19.7089 1.83107 16.2588 1.93457H9.36816C6.58386 1.90005 3.83837 1.77441 1.33496 1.77441V1.77246C1.26412 1.77547 1.19352 1.76575 1.12695 1.74121C1.05866 1.71601 0.99615 1.67707 0.943359 1.62695C0.890545 1.57678 0.848027 1.51618 0.819336 1.44922C0.790738 1.38235 0.776266 1.31003 0.776367 1.2373C0.77492 1.16524 0.787167 1.09349 0.813477 1.02637C0.840157 0.958297 0.880601 0.896099 0.931641 0.84375C0.982641 0.791497 1.04404 0.750038 1.11133 0.72168C1.17694 0.694081 1.24722 0.679392 1.31836 0.678711C3.86476 0.552538 6.6199 0.404365 9.35156 0.3125V0.311523C10.5032 0.230926 11.6547 0.231445 12.8018 0.231445H16.2471Z" fill="#2F4027" stroke="#2F4027" stroke-width="0.2"/>
    <path d="M16.2461 5.89355C19.6816 5.96226 22.6268 5.98308 24.3184 6.09766C24.384 6.09763 24.4493 6.11119 24.5098 6.13672C24.5699 6.16216 24.6244 6.19932 24.6699 6.24609C24.7155 6.29305 24.7516 6.34918 24.7754 6.41016C24.797 6.46583 24.8072 6.52533 24.8076 6.58496L24.8125 6.6875C24.8103 6.72213 24.8036 6.7565 24.7939 6.79004C24.7747 6.85659 24.7417 6.91835 24.6963 6.9707C24.6507 7.02316 24.5937 7.06529 24.5303 7.09375C24.4676 7.12186 24.3997 7.13525 24.3311 7.13477L24.332 7.13574C22.5746 7.1702 17.6086 7.42386 14.1592 7.52734H14.1572L9.29785 7.59668H5.85254C3.07368 7.56223 3.86754 7.55371 1.36621 7.55371V7.55273C1.29543 7.55574 1.22472 7.54598 1.1582 7.52148C1.09001 7.49632 1.02735 7.45724 0.974609 7.40723C0.921815 7.35707 0.879276 7.29642 0.850586 7.22949C0.836291 7.19613 0.825619 7.16135 0.818359 7.12598L0.807617 7.01758C0.806106 6.9455 0.818469 6.8738 0.844727 6.80664C0.871399 6.73859 0.911871 6.67636 0.962891 6.62402C1.01393 6.57167 1.07521 6.52937 1.14258 6.50098C1.20573 6.47444 1.27339 6.46062 1.3418 6.45898C3.45348 6.17801 4.05809 6.04452 5.83496 5.97461V5.97363C6.98676 5.89301 8.138 5.89355 9.28516 5.89355H16.2461Z" fill="#2F4027" stroke="#2F4027" stroke-width="0.2"/>
    <path d="M1.97649 12.0214C5.6693 11.3234 9.45135 11.2491 13.1655 11.7994L13.9076 11.9184L13.9203 11.9207L13.9309 11.9249C14.1716 12.0316 14.3643 12.1329 14.499 12.2276C14.5662 12.2749 14.6228 12.3232 14.664 12.3728C14.7047 12.4218 14.7361 12.48 14.7404 12.5449C14.7496 12.6878 14.6294 12.7769 14.499 12.8323C14.3591 12.8918 14.1522 12.9378 13.8807 12.9737L13.8699 12.9753L13.8582 12.974C12.7607 12.8772 11.6561 12.8834 10.5596 12.9912L10.5518 12.9919L10.5518 12.9909C10.0696 12.9965 9.93431 12.9927 9.84368 12.9852C9.7575 12.9781 9.72018 12.9685 9.42031 12.9629C8.81453 12.9517 7.15459 12.9573 1.97412 13.0354L1.96436 13.0352L1.95463 13.0339C1.65629 12.9771 1.43176 12.916 1.28269 12.8485C1.20867 12.8149 1.14637 12.7759 1.10227 12.7302C1.05638 12.6826 1.02515 12.6205 1.03498 12.5476C1.04416 12.4799 1.08586 12.425 1.13329 12.3823C1.18177 12.3386 1.24677 12.2982 1.32325 12.2595C1.47692 12.1818 1.69513 12.1032 1.96763 12.0241L1.97649 12.0214Z" fill="#2F4027" stroke="#2F4027" stroke-width="0.2"/>
</svg>