<svg xmlns="http://www.w3.org/2000/svg" width="36" height="36" viewBox="0 0 36 36" fill="none">
    <path d="M29.5339 33.6383C28.4605 30.4479 27.8606 28.4285 26.6176 25.6557C25.7563 23.7343 25.2283 22.6218 22.6637 18.6346C21.2011 16.3705 19.5781 14.2667 17.7749 12.2631C17.4543 11.9024 16.8532 11.9425 16.5326 12.2631C16.172 12.6237 16.2321 13.1447 16.5326 13.5053C19.3978 17.0317 21.0743 19.5161 22.1565 21.3492C22.7741 22.3953 24.4091 24.7944 25.69 27.7095C27.2848 31.339 27.6278 32.3834 28.4506 34.6441C28.6745 35.2594 28.9713 35.9029 29.3119 35.9029C29.6124 35.9029 30.0366 35.6072 29.9965 35.3066C29.9564 35.0061 29.7339 34.2328 29.5339 33.6383Z" fill="#FF5500"/>
    <path d="M27.9935 31.0973C27.9935 30.5763 28.0336 30.0554 28.0937 29.5345C28.0937 29.4142 28.1137 29.294 28.1337 29.1538C28.1337 29.0937 28.1738 28.8933 28.1337 29.1137C28.1337 29.0536 28.1337 28.9734 28.1538 28.9133C28.1938 28.6529 28.2339 28.3924 28.274 28.152C28.4744 27.1301 28.7549 26.1283 29.1155 25.1465C29.1957 24.9061 29.2958 24.6456 29.376 24.4052C29.4161 24.285 29.4762 24.1648 29.5162 24.0646C29.5162 24.0445 29.5363 24.0045 29.5563 23.9844C29.5964 23.8842 29.5162 24.0846 29.5162 24.0846C29.5563 24.0045 29.5763 23.9444 29.6164 23.8642C29.8168 23.3833 30.0572 22.9225 30.2976 22.4617C30.5381 22.0008 30.8186 21.56 31.0991 21.1193C31.2394 20.8989 31.3796 20.6785 31.5399 20.4781C31.7002 20.2777 31.8404 20.0373 32.0007 19.857C32.0007 19.857 31.8605 20.0373 31.9206 19.9572C31.9406 19.9171 31.9807 19.877 32.0007 19.8369C32.0408 19.7768 32.0809 19.7368 32.1209 19.6767C32.2211 19.5564 32.3013 19.4562 32.4014 19.336C32.5818 19.1156 32.7821 18.8952 32.9825 18.6949C33.3832 18.2541 33.824 17.8333 34.2648 17.4326L33.2029 17.7131H33.243C33.243 17.7131 33.0626 17.653 32.9825 17.6129C33.0226 17.6129 33.0626 17.653 33.1027 17.673C33.263 17.7932 33.1428 17.6931 33.1027 17.673C32.9224 17.5328 33.1228 17.7131 33.1628 17.7532L32.9825 17.5328C33.0626 17.633 33.1227 17.7532 33.1829 17.8534L33.0626 17.5929C33.1228 17.7532 33.1628 17.9335 33.2029 18.1138L33.1628 17.8133C33.2029 18.1739 33.2029 18.5346 33.1628 18.8952L33.2029 18.5947C32.8222 21.3797 32.0408 24.0846 30.9388 26.6693L31.059 26.3687C30.7184 27.1702 30.3377 27.9716 29.937 28.753C29.6365 29.3341 29.7767 30.1355 30.3778 30.4561C30.9388 30.7567 31.7803 30.6364 32.0809 30.0153C33.0226 28.152 33.804 26.2084 34.365 24.2048C34.6255 23.2431 34.8659 22.2814 35.0462 21.3196C35.1264 20.8388 35.2065 20.3579 35.2666 19.877C35.3267 19.3961 35.4269 18.8552 35.4269 18.3543C35.4269 17.7932 35.3267 17.2523 35.1063 16.7313C34.8459 16.1503 34.365 15.7696 33.784 15.5492C33.4233 15.4089 32.9825 15.5893 32.722 15.8297C31.1191 17.3324 29.7567 19.1156 28.7348 21.0591C27.713 23.0027 27.0117 25.0864 26.7112 27.2704C26.5308 28.5326 26.4707 29.7749 26.5308 31.0372C26.5509 31.4179 26.8514 31.7985 27.2722 31.7785C27.6929 31.7585 28.0135 31.4579 28.0135 31.0372L27.9935 31.0973Z" fill="#FF5500"/>
    <path d="M25.2086 27.9325C25.1084 27.7121 25.0282 27.4917 24.908 27.2713C24.908 27.2713 24.8479 27.1511 24.8479 27.1311C24.8479 27.111 24.8479 27.091 24.8279 27.071C24.7878 26.9708 24.7477 26.8906 24.7277 26.7905C24.7077 26.6903 24.6476 26.6101 24.6075 26.53C24.6075 26.5099 24.6075 26.4899 24.5875 26.4699C24.6476 26.5701 24.6476 26.5701 24.5875 26.4699C24.5474 26.3497 24.4672 26.2495 24.4071 26.1293C24.3069 25.9489 24.1867 25.7686 24.0665 25.5883C23.806 25.2076 23.5055 24.8269 23.2049 24.4663C22.9044 24.1056 22.5237 23.8051 22.123 23.5045C21.4017 22.9635 20.6203 22.5228 19.7788 22.1821C19.4181 22.0419 19.0374 21.9417 18.6367 21.8816C18.1759 21.8014 17.715 21.7614 17.2542 21.8215C16.7132 21.8816 16.2123 22.0218 15.7515 22.2823C15.2907 22.5428 14.8499 22.9836 14.5694 23.4645C14.3089 23.9052 14.1286 24.4061 14.0484 24.9071C14.0083 25.2076 13.9683 25.4881 13.9683 25.7886C13.9683 26.0892 14.0083 26.3897 14.0684 26.6903C14.2287 27.6921 14.7296 28.6138 15.3708 29.3952C15.7114 29.7959 16.1121 30.1365 16.5329 30.4571C16.8936 30.7175 17.2742 30.958 17.675 31.1383C18.1558 31.3587 18.6567 31.5591 19.1777 31.6993C19.7187 31.8596 20.2797 31.9398 20.8607 32.0199C21.3817 32.08 21.9026 32.1201 22.4235 32.1401C22.9445 32.1602 23.4855 32.1 24.0064 32.06C24.2669 32.0399 24.5273 32.0199 24.7878 31.9999C25.0884 31.9798 25.3689 31.8797 25.6093 31.6593C25.8097 31.4589 25.9499 31.1383 25.9499 30.8378C25.9299 30.2166 25.449 29.6957 24.8078 29.6957C24.1266 29.6957 23.4454 29.6556 22.7642 29.6356C22.0829 29.6156 21.4017 29.5955 20.7205 29.5154L21.041 29.5554C20.2596 29.4553 19.4983 29.2549 18.7569 28.9544L19.0575 29.0746C18.5165 28.8341 17.9955 28.5536 17.5147 28.193L17.7551 28.3733C17.4145 28.1128 17.1139 27.8123 16.8334 27.4717L17.0138 27.7121C16.7733 27.3915 16.5529 27.0309 16.3926 26.6502L16.5129 26.9307C16.3526 26.5701 16.2524 26.1894 16.1923 25.7886L16.2324 26.0892C16.1923 25.7486 16.1923 25.408 16.2324 25.0673L16.1923 25.3679C16.2324 25.0874 16.3125 24.8069 16.4127 24.5264L16.2925 24.7868C16.3726 24.5865 16.4928 24.3861 16.6331 24.2058L16.4728 24.4262C16.593 24.2659 16.7333 24.1256 16.8936 24.0054L16.6732 24.1657C16.8334 24.0455 16.9937 23.9453 17.1741 23.8852L16.9136 23.9854C17.154 23.8852 17.4145 23.8251 17.675 23.785L17.3945 23.8251C17.7551 23.785 18.1158 23.785 18.4764 23.8251L18.2159 23.785C18.7369 23.8652 19.2378 24.0054 19.7187 24.2058L19.4782 24.1056C20.2196 24.4262 20.9208 24.8269 21.562 25.3278L21.3817 25.1876C21.6021 25.3479 21.8225 25.5282 22.0228 25.6885L21.8425 25.5482C22.3434 25.9289 22.8042 26.3697 23.2049 26.8305C23.2651 26.8906 23.3051 26.9507 23.3652 27.0109C23.4053 27.0509 23.4654 27.1511 23.3652 26.9908C23.4254 27.071 23.4654 27.111 23.5255 27.1711C23.6257 27.2914 23.7259 27.4116 23.8261 27.5118C23.8461 27.5318 23.8661 27.5719 23.8862 27.5919C23.9663 27.672 23.8461 27.4917 23.8862 27.5919C23.9263 27.672 23.9663 27.7322 24.0064 27.8123C24.0865 27.9526 24.1467 28.0928 24.2268 28.2331C24.347 28.4735 24.6676 28.5536 24.888 28.4535C25.1084 28.3533 25.3088 28.0728 25.2086 27.8123V27.9325Z" fill="#FF5500"/>
    <path d="M18.5362 9.95925C18.957 9.35817 19.3577 8.75708 19.7384 8.13596C20.1191 7.51484 20.4597 6.81357 20.6601 6.1123C20.8604 5.35093 20.9005 4.54948 20.7402 3.76807C20.5799 2.98666 20.1191 2.32546 19.5781 1.80452C17.5344 -0.219134 14.2284 -0.379424 11.784 0.983038C10.4817 1.70434 9.09918 3.0668 9.15929 4.6697C9.17933 5.53125 9.64016 6.35274 10.4416 6.73343C11.2431 7.11412 12.2849 7.11411 12.9662 6.43288C13.3268 6.07223 13.5472 5.53126 13.5472 5.03035C13.5472 4.4493 13.2867 3.9484 12.9261 3.5076C12.3851 2.8464 11.5636 2.50579 10.7822 2.26535C9.11921 1.74441 7.336 1.78449 5.7331 2.48575C4.35061 3.08684 3.26864 4.28901 2.76774 5.69154C2.26683 7.09408 2.62749 8.69697 2.70763 10.1997C2.70763 10.5603 2.70764 10.921 2.6876 11.3017L2.72767 10.941C2.6876 11.1815 2.64752 11.4019 2.56738 11.6423C2.52731 11.7425 2.48723 11.8627 2.44716 11.9629C2.38705 12.1432 2.60745 11.6423 2.4672 11.9028C2.42713 11.9629 2.40709 12.023 2.38705 12.1031C2.16666 12.5439 1.90619 12.9647 1.68579 13.4055C1.14481 14.4674 0.844267 15.5694 1.02459 16.7716C1.20492 17.9737 2.16666 18.8754 3.24861 19.3562C4.33057 19.8371 5.39249 20.0976 6.55459 20.2579C10.682 20.7988 14.8496 19.1559 18.1555 16.7916C20.079 15.4091 21.8222 13.8262 23.4852 12.1632C24.0261 11.6423 24.0462 10.6605 23.4852 10.1396C22.9242 9.61864 22.0626 9.5986 21.4615 10.1396C20.3796 11.1214 19.2776 12.1031 18.1555 13.0248C17.875 13.2452 17.5945 13.5057 17.314 13.706C17.314 13.706 17.6146 13.4856 17.4142 13.6259C17.3741 13.6459 17.3541 13.686 17.314 13.706C17.2539 13.7661 17.1738 13.8062 17.1137 13.8663C16.9534 13.9865 16.8131 14.0867 16.6528 14.2069C16.0718 14.6277 15.4707 15.0284 14.8496 15.3891C14.1283 15.8098 13.3869 16.1905 12.6256 16.5111L12.9862 16.3708C11.784 16.8717 10.5217 17.2324 9.2194 17.4127L9.60008 17.3526C8.53816 17.4929 7.47624 17.5129 6.41433 17.3526L6.79502 17.4127C5.97353 17.2925 5.17208 17.0721 4.41071 16.7716C4.31053 16.7315 4.3506 16.7515 4.571 16.8317C4.53093 16.8116 4.47082 16.7916 4.43075 16.7716C4.33057 16.7315 4.23039 16.6714 4.15024 16.6113C4.09013 16.5712 4.00998 16.5111 3.94987 16.471C4.1302 16.6113 4.15024 16.6313 4.05006 16.5512C4.00999 16.5111 3.96991 16.471 3.92984 16.4309C3.88977 16.3909 3.8497 16.3508 3.82966 16.3107C3.96992 16.5111 4.00999 16.5311 3.92984 16.4109C3.90981 16.3508 3.86973 16.2707 3.82966 16.2306C3.92984 16.451 3.94988 16.5111 3.88977 16.3708C3.88977 16.3308 3.86973 16.2707 3.8497 16.2306C3.82966 16.1304 3.80963 16.0503 3.78959 15.9501L3.8497 16.3308C3.82966 16.0903 3.82966 15.8299 3.8497 15.5894L3.78959 15.9701C3.82966 15.6696 3.90981 15.369 4.00999 15.0885V15.0284C4.09013 14.8882 4.07009 14.9282 3.98995 15.1486C4.03002 15.0885 4.07009 14.9883 4.09013 14.9282C4.17027 14.7479 4.27046 14.5676 4.37064 14.4073C4.73129 13.706 5.13202 13.0048 5.33238 12.2233C5.53274 11.4419 5.53273 10.7006 5.45259 9.91918C5.39248 9.21791 5.25223 8.49661 5.2322 7.79535C5.2322 7.63506 5.2322 7.45473 5.2322 7.29444C5.2322 7.2143 5.2322 7.13415 5.2322 7.03397C5.2322 6.73343 5.17209 7.35455 5.2322 7.054C5.27227 6.89371 5.2923 6.73342 5.33238 6.59317C5.35241 6.53306 5.37245 6.45292 5.39248 6.39281C5.47263 6.17241 5.23219 6.71339 5.39248 6.39281C5.45259 6.2726 5.53273 6.13234 5.59284 6.01212C5.63291 5.95201 5.67299 5.89191 5.71306 5.8318C5.85332 5.6114 5.49266 6.07223 5.67299 5.87187C5.87335 5.65147 6.07372 5.45111 6.29411 5.27078C6.49448 5.09046 6.03364 5.45111 6.25404 5.31086C6.31415 5.27078 6.37426 5.23071 6.43437 5.19064C6.55458 5.11049 6.6748 5.03035 6.81505 4.97024C6.87516 4.93017 6.93527 4.91013 7.01542 4.87006C7.25585 4.74984 6.71487 4.99028 6.9553 4.87006C7.13563 4.80995 7.29592 4.74984 7.47625 4.70977C7.63654 4.6697 7.81686 4.62962 7.97715 4.60959C8.2777 4.54948 7.65657 4.62962 7.97715 4.60959C8.0573 4.60959 8.15748 4.60959 8.23763 4.60959C8.41795 4.60959 8.57824 4.60959 8.75856 4.60959C8.83871 4.60959 8.93889 4.60959 9.01904 4.60959C9.07915 4.60959 9.13926 4.60959 9.19936 4.60959C9.33962 4.60959 9.31958 4.60959 9.11922 4.60959C9.11922 4.64966 9.58005 4.68974 9.64015 4.70977C9.82048 4.74984 9.98077 4.78992 10.1411 4.85002C10.3013 4.91013 10.4616 4.97024 10.642 5.03035C10.7822 5.09046 10.682 5.11049 10.5418 4.99028C10.6019 5.05039 10.7221 5.09046 10.8023 5.13053C10.8624 5.1706 10.9225 5.23071 10.9826 5.25075L10.8423 5.15057C10.8423 5.15057 10.9225 5.21067 10.9425 5.25075L11.0026 5.31086C11.0828 5.41104 11.0627 5.37097 10.9425 5.21068C10.9425 5.25075 11.0227 5.35093 11.0427 5.391L10.9625 5.21068C10.9625 5.21068 10.9826 5.29082 11.0026 5.33089L10.9625 5.11049C10.9625 5.25075 10.9625 5.19064 10.9826 4.97024C10.9225 5.21067 11.1228 4.70977 11.0227 4.8901C11.1829 4.70977 11.223 4.64966 11.1228 4.74984C11.0227 4.82999 11.0828 4.78991 11.2631 4.62962C11.0828 4.74984 11.5837 4.50941 11.3833 4.56952C11.223 4.60959 11.223 4.52945 11.5236 4.56952C11.4835 4.56952 11.4234 4.56952 11.3633 4.56952C11.6838 4.54948 11.6438 4.60959 11.4835 4.56952C11.3432 4.52945 11.3032 4.4493 11.5837 4.62962C11.5436 4.60959 11.4835 4.56952 11.4434 4.54948C11.2631 4.4493 11.6638 4.76988 11.5236 4.60959C11.3232 4.38919 11.6438 4.82999 11.5436 4.64966C11.4434 4.46934 11.6237 4.99028 11.5837 4.72981V4.64966C11.5436 4.50941 11.5436 4.54948 11.5837 4.74984V4.52945V4.70977C11.5837 4.70977 11.5837 4.60959 11.5837 4.56952L11.6438 4.34912C11.6838 4.34912 11.5236 4.58955 11.6237 4.42926C11.6638 4.34912 11.8241 3.96843 11.9042 3.94839L11.8041 4.06861C11.8041 4.06861 11.8642 3.98847 11.9042 3.94839C11.9443 3.88829 12.0044 3.84821 12.0445 3.7881C12.1447 3.68792 12.2449 3.58774 12.345 3.48756C12.4052 3.44749 12.4452 3.38738 12.5053 3.34731C12.6857 3.18702 12.2849 3.5076 12.5053 3.34731C12.6456 3.24713 12.7658 3.16699 12.9061 3.0668C13.0263 2.98666 13.1465 2.92655 13.2667 2.86644C13.3268 2.82637 13.3869 2.80633 13.447 2.76626H13.5071C13.6274 2.68611 13.5873 2.70615 13.427 2.76626C13.5472 2.76626 13.7075 2.66608 13.8277 2.62601C13.988 2.5659 14.1483 2.52582 14.3086 2.48575C14.4488 2.44568 14.5891 2.42564 14.7293 2.40561C14.9698 2.36553 14.4488 2.42564 14.7293 2.40561C14.8095 2.40561 14.8696 2.40561 14.9497 2.38557C15.2303 2.36554 15.5108 2.36554 15.7913 2.38557C15.8514 2.38557 15.9315 2.38557 15.9916 2.38557H16.0517C16.172 2.40561 16.1519 2.38557 15.9716 2.38557C16.0317 2.44568 16.2922 2.44568 16.3924 2.46572C16.5326 2.50579 16.6729 2.52582 16.7931 2.58593C16.8532 2.60597 16.9333 2.62601 16.9934 2.64604C17.0335 2.64604 17.0736 2.68612 17.1337 2.68612C17.2339 2.72619 17.2138 2.72619 17.0736 2.66608C17.1938 2.66608 17.4342 2.8464 17.5344 2.90651C17.6947 2.98666 17.835 3.08684 17.9752 3.18702C18.1756 3.32727 17.8149 3.04677 18.0153 3.20706C18.0954 3.26717 18.1756 3.34731 18.2357 3.40742C18.2958 3.46752 18.3359 3.5076 18.396 3.56771C18.436 3.60778 18.6564 3.82818 18.4761 3.66789C18.5963 3.76807 18.6765 3.96843 18.7566 4.10868C18.7967 4.18883 18.8368 4.24894 18.8768 4.32908C18.977 4.50941 18.8368 4.18883 18.8969 4.38919C18.957 4.56952 19.0171 4.7298 19.0371 4.91013C19.0371 4.93017 19.0772 5.19064 19.0371 4.99028C19.0371 5.09046 19.0371 5.19064 19.0572 5.31086C19.0572 5.49118 19.0572 5.67151 19.0371 5.87187C19.0371 6.13234 19.0572 5.73162 19.0371 5.99209C19.0371 6.09227 18.9971 6.21248 18.977 6.31267C18.8969 6.69335 18.7767 7.07404 18.6364 7.4347C18.3559 8.156 17.9351 8.81719 17.5344 9.45835C17.3741 9.71882 17.4743 10.0594 17.7348 10.2197C18.0153 10.38 18.3158 10.2598 18.4962 10.0194L18.5362 9.95925Z" fill="#FF5500"/>
    <path d="M12.4056 13.1257C12.6661 13.0054 12.9065 12.8652 13.1269 12.6849C13.3874 12.4845 13.6478 12.2841 13.8883 12.0637C14.0886 11.8834 14.289 11.663 14.4693 11.4627C14.6897 11.2022 14.8901 10.9417 15.0504 10.6412C15.1305 10.5009 15.1906 10.3607 15.2708 10.2204C15.3509 10.0802 15.411 9.93991 15.4711 9.79965C15.5513 9.6594 15.5913 9.51914 15.5913 9.35885C15.5913 9.19856 15.5513 9.05831 15.4711 8.91806C15.391 8.7778 15.2908 8.67762 15.1505 8.59748C15.0103 8.51733 14.87 8.47726 14.7097 8.47726C14.6496 8.47726 14.5895 8.47726 14.5294 8.47726C14.4693 8.47726 14.4092 8.47726 14.3291 8.47726C14.1287 8.4973 13.9283 8.53737 13.7079 8.57744C13.3874 8.63755 13.0668 8.7778 12.7662 8.91806C12.5258 9.01824 12.3054 9.13845 12.105 9.27871C12.0049 9.33882 11.9047 9.41896 11.8045 9.49911C11.6442 9.61932 11.4639 9.75958 11.3036 9.89983C11.2435 9.9399 11.1834 10 11.1433 10.0401C11.0431 10.1603 10.9429 10.2805 10.8628 10.4208C10.7826 10.541 10.7025 10.6612 10.6224 10.7814C10.5422 10.9016 10.5021 11.0219 10.5021 11.1621C10.4621 11.3024 10.4821 11.4226 10.5021 11.5628L10.6023 11.8033C10.6624 11.9235 10.7626 12.0237 10.8628 12.0838C10.9229 12.1439 11.003 12.184 11.0832 12.224C11.2034 12.2841 11.3437 12.3242 11.4639 12.3042L11.7243 12.2641C11.9047 12.224 12.0449 12.1238 12.1651 12.0036C12.2453 11.9035 12.3455 11.8033 12.4457 11.7031C12.4857 11.663 12.5458 11.6029 12.5859 11.5628C12.626 11.5228 12.666 11.4627 12.7262 11.4226C12.9065 11.2222 13.1068 11.0419 13.3072 10.8816L13.1068 11.0419C13.4274 10.8015 13.7881 10.5811 14.1688 10.4208L13.9283 10.5209C14.0686 10.4608 14.2289 10.4007 14.3691 10.3406L14.1487 10.4408C14.2689 10.3807 14.3892 10.3406 14.5294 10.3006C14.5895 10.3006 14.6496 10.2605 14.7097 10.2404C14.7699 10.2204 14.85 10.2204 14.9101 10.2004L13.7881 9.33881C13.7881 9.33881 13.7881 9.41896 13.7881 9.45903L13.8281 9.23863C13.8081 9.39892 13.7881 9.55922 13.728 9.71951C13.6679 9.8798 13.6278 10.02 13.5677 10.1803L13.6478 10C13.5076 10.3607 13.3072 10.7013 13.0868 11.0018L13.187 10.8616C13.0868 11.0018 12.9666 11.122 12.8464 11.2623C12.7262 11.4025 12.5859 11.5027 12.4657 11.6029L12.5859 11.5027C12.3254 11.7031 12.0449 11.8834 11.7444 12.0237C11.6642 12.0637 11.6041 12.1238 11.5641 12.184C11.504 12.2441 11.4639 12.3242 11.4438 12.4044C11.4238 12.4845 11.4238 12.5646 11.4438 12.6648C11.4438 12.745 11.4639 12.8251 11.524 12.9053C11.6041 13.0455 11.7444 13.1657 11.9047 13.1858H12.065C12.1852 13.2058 12.2854 13.1858 12.3855 13.1257H12.4056Z" fill="#FF5500"/>
</svg>