<svg xmlns="http://www.w3.org/2000/svg" viewBox="0 0 48 49" fill="none" preserveAspectRatio="none">
    <path d="M1.37012 10.9622C0.32668 15.9799 0.296482 22.7775 0.88379 30.054C1.2581 34.6913 1.71533 38.1426 2.44824 40.7209C3.17891 43.2913 4.17078 44.945 5.58399 46.0413C7.00516 47.1436 8.91678 47.7339 11.5957 48.0383C14.2767 48.343 17.6563 48.3557 21.9756 48.3557C26.768 48.3557 32.4344 48.5415 37.1885 47.261C39.5546 46.6236 41.66 45.63 43.3027 44.095C44.9392 42.5659 46.1441 40.4738 46.6729 37.5862C47.6847 32.0596 47.6915 25.4375 47.1074 19.6428C46.8156 16.7477 46.3765 14.0691 45.8467 11.8469C45.314 9.61271 44.698 7.88018 44.0684 6.84888C43.1059 5.27233 41.9645 4.10353 40.4121 3.2561C38.8506 2.40383 36.8423 1.85889 34.1211 1.58325C28.6607 1.03023 20.4825 1.57161 7.61816 2.72095L7.60547 2.72192C6.00658 2.82439 4.72496 3.61715 3.69824 5.01489C2.6601 6.42821 1.89213 8.45195 1.37012 10.9622Z" stroke="white"/>
</svg>