<svg xmlns="http://www.w3.org/2000/svg" width="36" height="35" viewBox="0 0 36 35" fill="none">
    <path d="M22.0005 5.73392V6.06595H21.8833V5.73392H22.0005Z" fill="#FF5500"/>
    <path fill-rule="evenodd" clip-rule="evenodd" d="M29.5851 13.6866C29.1851 12.9699 28.7517 12.2699 28.3017 11.5699C27.8517 10.8699 27.3851 10.2033 26.9017 9.51993C26.6184 9.15327 26.2851 8.60327 25.9017 8.1866C25.6884 7.94909 25.4344 7.75155 25.1517 7.60327C25.0963 7.59721 25.0404 7.59721 24.9851 7.60327V3.4866V2.4366C24.9568 2.22788 24.9122 2.02169 24.8517 1.81993C24.7865 1.64779 24.666 1.5021 24.5093 1.40562C24.3525 1.30913 24.1681 1.26728 23.9851 1.2866H22.1684C21.2851 1.2866 20.4017 1.3866 19.5184 1.3866L18.3517 1.4866C18.1826 1.52414 18.0198 1.58589 17.8684 1.66993C17.779 1.73097 17.7032 1.80988 17.6458 1.90168C17.5885 1.99347 17.5508 2.09616 17.5351 2.20327C17.5101 2.64736 17.5101 3.09251 17.5351 3.5366C17.5351 4.05327 17.6351 4.56993 17.7017 5.0866C16.7684 5.0866 15.8517 4.95327 14.9017 4.8866C14.2137 4.83646 13.523 4.83646 12.8351 4.8866C12.8351 4.8866 9.50173 5.25327 8.98506 5.9366C8.46839 6.61993 8.05172 7.0866 7.55172 7.60327C6.18506 9.10327 4.71839 10.5033 3.35173 12.0033C2.83506 12.5699 2.15173 13.1699 1.58506 13.8199C1.3055 14.1343 1.06488 14.4813 0.868392 14.8533C0.751904 15.0923 0.68932 15.354 0.685059 15.6199V16.8199C0.685059 17.6699 0.685059 18.4866 0.768392 19.3199C0.768392 19.8866 0.868392 20.4366 0.935059 20.9866L1.26839 24.7366L1.53506 25.6699V25.8533C1.57041 25.9919 1.64644 26.1168 1.75338 26.2118C1.86031 26.3069 1.99324 26.3677 2.13506 26.3866C2.2952 26.4116 2.45825 26.4116 2.61839 26.3866C2.99085 26.2849 4.74926 26.2655 5.1316 26.2118L12.3184 26.0033C12.4554 26.0033 12.5868 25.9488 12.6837 25.8519C12.7806 25.755 12.8351 25.6236 12.8351 25.4866C12.8373 25.4196 12.826 25.3527 12.8019 25.2901C12.7778 25.2275 12.7413 25.1704 12.6946 25.1222C12.648 25.074 12.5921 25.0357 12.5303 25.0095C12.4686 24.9834 12.4021 24.9699 12.3351 24.9699C11.0351 24.9699 2.80173 25.0866 2.80173 25.0866L2.55173 20.8033C2.55173 20.1366 2.43506 19.4866 2.41839 18.8199C2.40173 18.1533 2.41839 17.4866 2.41839 16.8199V15.6033C2.55372 15.3337 2.72165 15.0819 2.91839 14.8533C3.43506 14.1866 4.08506 13.5533 4.58506 12.9533C5.81839 11.2866 7.15172 9.85327 8.41839 8.26993C8.83506 7.7366 9.23506 7.20327 9.63506 6.60327C10.4017 7.40327 11.0017 8.26993 11.7351 9.20327C11.9457 9.45274 12.1741 9.68668 12.4184 9.90327C12.8321 10.2925 13.2661 10.6596 13.7184 11.0033C14.7517 11.7699 18.2065 14.8619 19.1731 15.6952C19.2722 15.789 19.4034 15.8413 19.5398 15.8413C19.6762 15.8413 19.8074 15.789 19.9065 15.6952C19.9548 15.6472 19.9932 15.5901 20.0194 15.5272C20.0456 15.4642 20.0591 15.3967 20.0591 15.3286C20.0591 15.2604 20.0456 15.1929 20.0194 15.13C19.9932 15.0671 19.9548 15.0099 19.9065 14.9619C19.2869 14.2605 16.2531 11.1561 15.5517 10.5366C14.8851 9.91993 14.1851 9.3366 13.5517 8.70327C12.9184 8.06993 12.1684 7.45327 11.5184 6.85327L10.9851 6.40327L12.6517 6.51993H14.6684C15.8461 6.48558 17.0179 6.34049 18.1684 6.0866C18.1624 6.14479 18.1698 6.20357 18.19 6.25846C18.2102 6.31335 18.2427 6.36288 18.2851 6.40327C18.7184 6.9366 19.1684 7.85327 19.7351 8.46993C20.0559 8.83218 20.4715 9.0977 20.9351 9.2366C21.3556 9.33467 21.7867 9.37946 22.2184 9.36993C22.7851 9.36993 23.3684 9.25327 23.8851 9.21993C24.0517 9.21993 24.6351 8.91993 24.6184 9.21993C24.7472 9.31754 24.8646 9.42935 24.9684 9.55327C25.2851 9.8866 25.5851 10.2866 25.8351 10.5699C26.3851 11.1533 26.9017 11.7533 27.5017 12.3699C28.1017 12.9866 28.5017 13.6199 28.9684 14.2699C29.0026 14.3277 29.048 14.3781 29.1021 14.4179C29.1561 14.4578 29.2177 14.4863 29.283 14.5019C29.3483 14.5175 29.4161 14.5197 29.4823 14.5085C29.5486 14.4973 29.6118 14.4728 29.6684 14.4366C29.7122 14.3819 29.7448 14.3191 29.7643 14.2518C29.7838 14.1845 29.7899 14.114 29.7822 14.0443C29.7744 13.9747 29.753 13.9072 29.7192 13.8458C29.6854 13.7845 29.6398 13.7304 29.5851 13.6866ZM23.5684 7.5366C23.0351 7.5366 22.3684 7.76993 21.7517 7.8366C21.5409 7.85306 21.3292 7.85306 21.1184 7.8366C20.7931 7.7641 20.497 7.59574 20.2684 7.35327C19.7351 6.85327 19.2684 6.1866 18.8351 5.7866C18.7476 5.66089 18.6853 5.51938 18.6517 5.36993V3.51993V2.86993H19.3517H20.7184H23.1851V3.3866L23.7351 7.36993L23.5684 7.5366Z" fill="#FF5500"/>
    <path d="M23.986 0.95482C24.2305 0.936554 24.4749 0.993626 24.6842 1.12246C24.8486 1.22368 24.9852 1.36267 25.0814 1.52774L25.1644 1.70189L25.1709 1.72468C25.2363 1.94299 25.2852 2.16615 25.3158 2.39199L25.319 2.41478V7.31387C25.6311 7.47934 25.9111 7.69908 26.1475 7.96166L26.4437 8.31485C26.5379 8.43676 26.628 8.56048 26.7122 8.67943L27.1745 9.32722C27.658 10.0108 28.1281 10.6828 28.5824 11.3894C29.025 12.078 29.4524 12.7711 29.8503 13.4809C29.913 13.5411 29.9692 13.6079 30.0114 13.6843C30.0664 13.7841 30.1014 13.895 30.1139 14.0082C30.1264 14.1212 30.1163 14.236 30.0846 14.3451C30.0529 14.4543 29.9995 14.5558 29.9284 14.6446L29.8942 14.6885L29.8486 14.7178C29.7544 14.7782 29.6481 14.818 29.5378 14.8367C29.4275 14.8553 29.3145 14.8528 29.2057 14.8269C29.097 14.801 28.9946 14.7532 28.9046 14.6869C28.822 14.626 28.753 14.5487 28.6979 14.4623C28.2181 13.794 27.8395 13.1951 27.2624 12.602C26.6664 11.9894 26.1229 11.3611 25.5924 10.7986L25.5859 10.7904C25.456 10.6431 25.3113 10.4648 25.1693 10.2924C25.0242 10.1162 24.8762 9.9405 24.7266 9.78295L24.7119 9.7683L24.7135 9.76667C24.6259 9.662 24.5261 9.56755 24.4173 9.48509L24.3604 9.44115C24.3025 9.45603 24.2402 9.47484 24.1683 9.49649C24.1288 9.50837 24.0849 9.52228 24.043 9.53229C24.0098 9.54022 23.959 9.54798 23.9046 9.5502L23.9062 9.55183C23.6599 9.56774 23.3999 9.60377 23.1104 9.63809C22.8292 9.67141 22.527 9.70113 22.2249 9.70157C21.7656 9.71163 21.3068 9.66593 20.8594 9.56159L20.8398 9.55671C20.3169 9.4 19.8477 9.09951 19.4857 8.69082C19.1823 8.35945 18.9143 7.95451 18.6784 7.58405C18.4335 7.19949 18.2266 6.86123 18.0257 6.614L18.0273 6.61074C17.9881 6.56848 17.9544 6.52266 17.9264 6.4724C16.8562 6.68988 15.7698 6.8214 14.6777 6.85326H12.6286L11.9661 6.80443C12.5493 7.32982 13.2232 7.90361 13.7874 8.46784C14.4153 9.09568 15.0889 9.6549 15.7731 10.2875L16.141 10.6309C17.2109 11.6598 19.6082 14.1202 20.1562 14.7406C20.229 14.8164 20.2866 14.904 20.3271 15.001C20.3702 15.1045 20.3922 15.2162 20.3923 15.3282C20.3923 15.4403 20.3703 15.5518 20.3271 15.6553C20.284 15.7588 20.2212 15.8531 20.1416 15.932L20.1351 15.9369C19.9742 16.0892 19.761 16.1745 19.5394 16.1745C19.3228 16.1744 19.1146 16.0928 18.9551 15.9467C17.9704 15.0978 14.541 12.0277 13.5205 11.2706L13.5173 11.2689C13.0582 10.9202 12.6174 10.5472 12.1973 10.1524C11.9411 9.92534 11.702 9.67989 11.4811 9.41836L11.473 9.4086C10.8179 8.57477 10.2935 7.82996 9.6696 7.13158C9.34208 7.60298 9.01938 8.04203 8.68164 8.47435L8.67839 8.47761C7.38645 10.0925 6.08686 11.4854 4.85352 13.1521L4.84212 13.1667C4.58593 13.4741 4.28969 13.7901 4.00391 14.1026C3.71466 14.4189 3.43124 14.7364 3.18197 15.058L3.1722 15.071C3.00989 15.2597 2.86887 15.4666 2.75228 15.6863V18.8113C2.76026 19.1303 2.79227 19.4466 2.82389 19.7797C2.8551 20.1084 2.88574 20.4525 2.88574 20.8035L3.11523 24.7488C3.12767 24.7486 3.1412 24.749 3.1543 24.7488C3.38195 24.7456 3.70914 24.7412 4.10482 24.7357C4.89698 24.7248 5.96666 24.7096 7.07682 24.6951C9.29609 24.6659 11.6828 24.6365 12.3356 24.6365C12.4472 24.6365 12.5584 24.6597 12.6611 24.7032C12.7638 24.7468 12.857 24.8102 12.9346 24.8904C13.0123 24.9707 13.0734 25.066 13.1136 25.1703C13.1537 25.2745 13.1726 25.3859 13.1689 25.4975L13.1673 25.4958C13.1649 25.7179 13.0771 25.9311 12.9199 26.0883C12.7607 26.2474 12.5444 26.3371 12.3193 26.3373L5.1416 26.5456L5.13997 26.544C4.90449 26.5711 4.37444 26.5918 3.88672 26.614C3.62016 26.6261 3.35745 26.6398 3.13965 26.6563C2.91062 26.6737 2.76382 26.6929 2.70671 26.7084L2.6888 26.7133L2.66927 26.7165C2.47531 26.7467 2.27729 26.7468 2.08333 26.7165C1.87859 26.6877 1.6862 26.5985 1.53158 26.461C1.37504 26.3218 1.26433 26.1383 1.21257 25.9353L1.20117 25.8946V25.7156L0.947266 24.8285L0.939128 24.7976L0.935872 24.7667L0.605469 21.0248L0.603841 21.0264C0.541495 20.5122 0.440028 19.9353 0.436198 19.3533L0.38737 18.7169C0.351486 18.0833 0.351562 17.456 0.351563 16.8207V15.6147C0.356606 15.3 0.4318 14.9894 0.569661 14.7064L0.572917 14.6967H0.576172C0.732819 14.4004 0.914426 14.1183 1.12142 13.8552L1.33626 13.598C1.62801 13.2637 1.94722 12.9439 2.2526 12.6426C2.56222 12.3372 2.85465 12.0535 3.10547 11.7784C3.79331 11.0234 4.50561 10.294 5.21322 9.56973C5.922 8.84427 6.62612 8.12372 7.30469 7.37897L7.31283 7.37084C7.8052 6.86202 8.21232 6.40532 8.71908 5.73509C8.82609 5.59363 8.98366 5.4857 9.14062 5.40144C9.30308 5.31428 9.49497 5.23724 9.69727 5.16869C10.1025 5.03141 10.585 4.91825 11.04 4.82852C11.4963 4.73855 11.9349 4.67064 12.2591 4.62507C12.4212 4.60228 12.556 4.58454 12.6497 4.57298C12.6964 4.56723 12.7335 4.5629 12.7588 4.55996C12.7713 4.55851 12.7814 4.55746 12.7881 4.55671C12.7914 4.55633 12.7945 4.55528 12.7962 4.55508H12.7995L12.8109 4.55345C13.515 4.50214 14.2227 4.50214 14.9268 4.55345C15.7726 4.61287 16.5349 4.71244 17.3161 4.74063C17.2608 4.36037 17.2038 3.95371 17.2021 3.5541C17.1765 3.0982 17.1765 2.64119 17.2021 2.18529L17.2038 2.16901L17.2054 2.15436C17.2278 2.00187 17.2816 1.85538 17.3633 1.72468C17.4451 1.5939 17.5533 1.48125 17.6807 1.39427L17.7067 1.378C17.8861 1.27843 18.0793 1.20601 18.2796 1.16153L18.3008 1.15664L18.3236 1.15502L19.4906 1.0541L19.5036 1.05248H19.5182C19.9489 1.05248 20.3819 1.02874 20.8252 1.00365C21.2649 0.978757 21.7157 0.953215 22.168 0.953192L23.986 0.95482ZM23.986 1.28685H22.168C21.2848 1.2869 20.4014 1.38614 19.5182 1.38614L18.3512 1.48705C18.1824 1.5246 18.0191 1.58541 17.8678 1.66934C17.7785 1.73036 17.7038 1.81037 17.6465 1.90209C17.5892 1.99382 17.5515 2.09617 17.5358 2.20319C17.5108 2.64717 17.5108 3.09222 17.5358 3.5362C17.5358 4.05287 17.6352 4.57064 17.7018 5.08731C16.7687 5.0873 15.8521 4.95379 14.9023 4.88711C14.2144 4.83697 13.5233 4.83698 12.8353 4.88711C12.8353 4.88711 9.50306 5.25368 8.986 5.93692C8.46934 6.62025 8.05208 7.08692 7.55208 7.60358C6.18544 9.10355 4.71788 10.503 3.35124 12.003C2.83468 12.5695 2.15183 13.1696 1.58529 13.8194C1.30585 14.1337 1.06558 14.4811 0.869141 14.8529C0.752707 15.0919 0.689535 15.3538 0.685221 15.6195V16.8207C0.685221 17.6704 0.684922 18.4876 0.768229 19.3207C0.768324 19.8871 0.869237 20.4376 0.935872 20.9874L1.2679 24.7374L1.53483 25.67V25.8539C1.57021 25.9922 1.64627 26.1171 1.75293 26.212C1.85986 26.307 1.9936 26.3673 2.13542 26.3861C2.29552 26.4111 2.45872 26.4111 2.61882 26.3861C2.99203 26.2845 4.74962 26.2657 5.13184 26.212L12.3193 26.0036C12.456 26.0034 12.5872 25.9489 12.6839 25.8523C12.7808 25.7554 12.8353 25.6231 12.8353 25.4861C12.8374 25.4195 12.8266 25.353 12.8027 25.2908C12.7786 25.2282 12.742 25.1697 12.6953 25.1215C12.6487 25.0734 12.5926 25.0353 12.5309 25.0092C12.4693 24.9831 12.4026 24.9701 12.3356 24.9701C11.0356 24.9701 2.80111 25.0873 2.80111 25.0873L2.55208 20.8035C2.55208 20.1368 2.43529 19.4861 2.41862 18.8194V15.6033C2.55395 15.3337 2.72155 15.0815 2.91829 14.8529C3.43487 14.1864 4.08501 13.5534 4.58496 12.9535C5.81829 11.2869 7.1513 9.85261 8.41797 8.26927C8.8346 7.73598 9.23544 7.20257 9.63542 6.60261C10.4021 7.40261 11.0017 8.27018 11.735 9.20352C11.9456 9.45297 12.1743 9.68682 12.4186 9.90339C12.8323 10.2926 13.2668 10.6601 13.7191 11.0036C14.7531 11.771 18.2067 14.8628 19.1732 15.696C19.2721 15.7895 19.4034 15.8407 19.5394 15.8409C19.6757 15.8409 19.8082 15.7898 19.9072 15.696C19.9556 15.648 19.9933 15.5897 20.0195 15.5268C20.0456 15.4639 20.0586 15.3963 20.0586 15.3282C20.0585 15.2601 20.0457 15.1924 20.0195 15.1296C19.9934 15.067 19.9554 15.0099 19.9072 14.962C19.2877 14.2606 16.2532 11.1561 15.5518 10.5365C14.8851 9.91992 14.1847 9.33712 13.5514 8.70384C12.9181 8.07051 12.1686 7.45326 11.5186 6.85326L10.9847 6.40404L12.6514 6.5196H14.668C15.8456 6.48524 17.0185 6.34055 18.1689 6.08666C18.1629 6.14483 18.1699 6.20431 18.1901 6.25918C18.2103 6.31382 18.2424 6.36381 18.2845 6.40404C18.7177 6.93725 19.1683 7.85286 19.7347 8.46947C20.0556 8.83172 20.4723 9.09717 20.9359 9.23607C21.3562 9.33405 21.787 9.37905 22.2184 9.36953C22.785 9.36953 23.3685 9.25314 23.8851 9.21979C24.0517 9.21979 24.6356 8.92003 24.6191 9.21979C24.7478 9.31734 24.8654 9.42964 24.9691 9.55345C25.2856 9.88671 25.5851 10.2875 25.835 10.5707C26.3847 11.1538 26.9019 11.7528 27.5016 12.3692C28.1016 12.9859 28.5014 13.6203 28.9681 14.2703C29.0022 14.328 29.0476 14.3785 29.1016 14.4184C29.1556 14.4582 29.2185 14.4858 29.2839 14.5014C29.349 14.5168 29.4164 14.5191 29.4824 14.5079C29.5485 14.4967 29.6115 14.4724 29.668 14.4363C29.7116 14.3817 29.7445 14.3194 29.764 14.2523C29.7835 14.185 29.7896 14.1137 29.7819 14.044C29.7741 13.9745 29.7538 13.9067 29.7201 13.8454C29.6862 13.7841 29.6397 13.7297 29.585 13.6859C29.1851 12.9696 28.7522 12.2697 28.3024 11.5701C27.8524 10.8701 27.386 10.2026 26.9027 9.51927C26.6193 9.15261 26.285 8.60293 25.9017 8.18627C25.6884 7.94887 25.434 7.75181 25.1514 7.60358C25.0962 7.59758 25.0406 7.59755 24.9854 7.60358V2.43594C24.9571 2.22768 24.9122 2.02204 24.8519 1.82071C24.7867 1.64875 24.6666 1.50215 24.5101 1.40567C24.3535 1.30931 24.1688 1.26772 23.986 1.28685ZM23.1852 3.38646L23.7354 7.36921L23.5693 7.53685C23.036 7.53685 22.368 7.76966 21.7513 7.83633C21.5407 7.85275 21.3288 7.85278 21.1182 7.83633C20.793 7.76377 20.4971 7.5953 20.2686 7.35293C19.7353 6.85295 19.2679 6.18714 18.8346 5.78718C18.7473 5.66165 18.6859 5.51971 18.6523 5.37051V2.87051H23.1852V3.38646ZM18.986 5.32168C19.0096 5.41353 19.0459 5.50142 19.0983 5.58047C19.3206 5.79207 19.5492 6.0579 19.7689 6.31615C19.8886 6.45684 20.0076 6.59712 20.1286 6.73119L20.4964 7.11042L20.5111 7.12344C20.6893 7.31235 20.9195 7.44401 21.1719 7.5043C21.3562 7.51734 21.541 7.51865 21.7253 7.5043C22.0089 7.47285 22.3051 7.40309 22.6221 7.33503C22.8657 7.28271 23.1255 7.23082 23.3757 7.21133L22.8548 3.43203L22.8516 3.40925V3.20254H18.986V5.32168Z" fill="#FF5500"/>
    <path fill-rule="evenodd" clip-rule="evenodd" d="M6.93522 23.2784V20.0951V19.4118C7.10189 19.4118 10.5352 19.0618 10.5352 19.0618L11.1352 18.9784L11.2352 20.1784C11.2519 20.3127 11.3207 20.435 11.4266 20.5192C11.5326 20.6033 11.6673 20.6426 11.8019 20.6284C11.8693 20.6223 11.9347 20.6026 11.9942 20.5704C12.0537 20.5383 12.1061 20.4944 12.1482 20.4414C12.1903 20.3884 12.2211 20.3275 12.239 20.2622C12.2568 20.197 12.2612 20.1288 12.2519 20.0618C12.2519 19.6618 12.2519 19.2451 12.3519 18.8284C12.3849 18.5963 12.3849 18.3606 12.3519 18.1284C12.3155 18.0026 12.2419 17.8907 12.1407 17.8074C12.0396 17.7242 11.9157 17.6734 11.7852 17.6618H10.5019L7.30189 17.7618H6.38522C6.12312 17.7914 5.87179 17.8828 5.65189 18.0284C5.45116 18.1712 5.31372 18.3863 5.26855 18.6284C5.26855 18.6284 5.26855 19.2451 5.36855 20.1451C5.46855 21.0451 5.70189 22.2284 5.83522 23.2951V23.8618C5.83522 24.1284 6.81855 24.3784 6.85189 23.8618C6.88522 23.3451 6.91855 23.5451 6.93522 23.2784Z" fill="#FF5500"/>
    <path d="M11.8149 17.3297C12.012 17.3473 12.1992 17.4239 12.3521 17.5494C12.4669 17.644 12.5589 17.7638 12.6206 17.8978L12.6727 18.0361L12.6792 18.0589L12.6825 18.0817C12.7199 18.3449 12.7199 18.6127 12.6825 18.8759L12.6792 18.8906L12.6759 18.9069C12.5867 19.279 12.5848 19.6571 12.5848 20.0625H12.5832C12.5911 20.1591 12.586 20.2568 12.5604 20.3506C12.5307 20.4591 12.479 20.5603 12.409 20.6484C12.3391 20.7365 12.2524 20.8097 12.1535 20.8633C12.0544 20.9167 11.9449 20.9506 11.8328 20.9609L11.8312 20.9593C11.6117 20.9809 11.3921 20.9175 11.2192 20.7802C11.0452 20.642 10.9328 20.4409 10.9051 20.2203L10.9035 20.2057L10.8319 19.3561L10.5698 19.3935H10.5666C10.565 19.3937 10.5629 19.3949 10.5601 19.3952C10.5536 19.3958 10.5432 19.3955 10.5308 19.3968C10.5056 19.3993 10.4686 19.4034 10.4217 19.4082C10.3275 19.4177 10.1918 19.4325 10.0295 19.4489C9.70511 19.4817 9.2709 19.5239 8.83154 19.5677C8.39182 19.6114 7.94551 19.6552 7.59945 19.6881C7.47908 19.6996 7.36638 19.707 7.26904 19.7158V23.2998L6.93538 23.2786L7.26742 23.2998C7.26277 23.3738 7.25606 23.4309 7.24463 23.4821C7.23869 23.5086 7.23367 23.5307 7.22835 23.5472C7.2217 23.5678 7.22147 23.5637 7.21859 23.5732C7.21595 23.5819 7.20082 23.6284 7.18441 23.8825C7.16756 24.1437 7.01745 24.3276 6.81982 24.4196C6.64489 24.5009 6.44796 24.5061 6.28923 24.4863C6.1265 24.4659 5.95905 24.4137 5.82373 24.3366C5.7564 24.2981 5.6844 24.2459 5.62516 24.1771C5.56631 24.1086 5.50146 24.0006 5.50146 23.8613V23.3128C5.43597 22.7937 5.34701 22.2463 5.26058 21.7112C5.17337 21.1714 5.08868 20.641 5.0376 20.1813C4.98673 19.7234 4.96085 19.3372 4.94808 19.0647C4.94169 18.9285 4.9383 18.8202 4.93669 18.7457C4.93588 18.7087 4.93527 18.6792 4.93506 18.6595V18.6286C4.93506 18.6285 4.94846 18.6069 4.96924 18.5716L4.94157 18.5667C5.00271 18.2399 5.18817 17.9489 5.45915 17.7562L5.46729 17.7496C5.73112 17.5749 6.03335 17.4662 6.34782 17.4306L6.36735 17.429H7.29183L10.4917 17.3281H11.8003L11.8149 17.3297ZM7.30159 17.761H6.38525C6.12347 17.7906 5.87254 17.8826 5.65283 18.028C5.50221 18.1351 5.38628 18.2833 5.31917 18.4528L5.26872 18.6286V18.9622C5.27224 18.9608 5.27503 18.9572 5.27848 18.9557C5.28927 19.2234 5.31183 19.6399 5.368 20.1455C5.46801 21.0454 5.7018 22.2284 5.83512 23.2949V23.8613C5.83512 24.128 6.81904 24.378 6.85238 23.8613C6.88569 23.3454 6.91872 23.5449 6.93538 23.2786V19.4114C7.10205 19.4114 10.5356 19.0615 10.5356 19.0615L11.1346 18.9785L11.2355 20.178C11.2522 20.3123 11.3216 20.4357 11.4276 20.5198C11.5334 20.6035 11.6677 20.6429 11.8019 20.6289C11.8692 20.6228 11.9345 20.6023 11.994 20.5703C12.0535 20.5381 12.1065 20.4947 12.1486 20.4417C12.1906 20.3888 12.2219 20.3278 12.2397 20.2627C12.2575 20.1977 12.2619 20.1292 12.2528 20.0625C12.2528 19.6626 12.2521 19.2453 12.3521 18.8287C12.3851 18.5967 12.385 18.3609 12.3521 18.1289C12.3156 18.0031 12.2415 17.8915 12.1405 17.8082C12.0394 17.725 11.916 17.6734 11.7856 17.6618H10.5015L7.30159 17.761Z" fill="#FF5500"/>
    <path fill-rule="evenodd" clip-rule="evenodd" d="M26.9826 24.1144C23.8826 22.581 23.1492 24.281 22.0992 25.3477C21.4964 25.9716 20.9704 26.6654 20.5326 27.4144C20.0874 28.1562 19.7242 28.9441 19.4492 29.7644C19.2629 30.2438 19.1559 30.7505 19.1326 31.2644C19.1143 31.7048 19.2433 32.1388 19.4992 32.4977C19.7938 32.9193 20.1969 33.2533 20.6659 33.4644C21.2456 33.7071 21.8576 33.8643 22.4826 33.931C23.6295 34.0488 24.7856 34.0488 25.9326 33.931C27.1188 33.8334 28.2826 33.5523 29.3826 33.0977C29.7715 32.9231 30.1202 32.6702 30.407 32.3548C30.6938 32.0393 30.9124 31.6681 31.0492 31.2644C31.2211 30.7157 31.2816 30.1382 31.2273 29.5657C31.1729 28.9933 31.0047 28.4375 30.7326 27.931C29.8787 26.3224 28.5759 24.9964 26.9826 24.1144ZM29.6159 30.431C29.5705 30.6841 29.4608 30.9212 29.2974 31.1197C29.1339 31.3181 28.9222 31.4713 28.6826 31.5644C27.7488 31.9301 26.7658 32.1548 25.7659 32.231C24.7406 32.3313 23.7079 32.3313 22.6826 32.231C22.2869 32.2133 21.8949 32.1461 21.5159 32.031C21.2319 31.9775 20.9739 31.8309 20.7826 31.6144C20.7239 31.5429 20.6804 31.4602 20.6546 31.3714C20.6288 31.2826 20.6213 31.1895 20.6326 31.0977C20.6638 30.7882 20.7195 30.4817 20.7992 30.181C20.9921 29.4313 21.266 28.7049 21.6159 28.0144C21.9533 27.3182 22.379 26.6683 22.8826 26.081C23.9826 24.8144 24.5492 24.231 26.3992 25.2144C27.7195 26.0337 28.7644 27.2294 29.3992 28.6477C29.6256 29.1903 29.6836 29.7884 29.5659 30.3644L29.6159 30.431Z" fill="#FF5500"/>
    <path d="M23.6182 23.461C24.3457 23.0811 25.2611 23.0309 26.5527 23.5554L27.1305 23.8159L27.1436 23.8224C28.7933 24.7357 30.1429 26.1087 31.027 27.7742H31.0254C31.3183 28.3196 31.5006 28.9174 31.5593 29.5336C31.6178 30.1502 31.5524 30.7736 31.3672 31.3647L31.3656 31.3712C31.2141 31.8182 30.9717 32.2296 30.6543 32.5789C30.3368 32.9281 29.9505 33.2091 29.5199 33.4024L29.5101 33.4057C28.3784 33.8735 27.1807 34.163 25.9603 34.2634L25.9587 34.2618C25.0839 34.3513 24.2042 34.3751 23.3268 34.3302L22.4479 34.2618C21.7908 34.1917 21.1467 34.0272 20.5371 33.7719L20.529 33.7687C20.0052 33.5329 19.5543 33.1588 19.2253 32.6879V32.6863C18.9285 32.2679 18.7776 31.7618 18.7988 31.2491C18.8236 30.7046 18.9367 30.1676 19.1325 29.659L19.362 29.0323C19.6071 28.4146 19.9021 27.8175 20.2442 27.2468L20.6006 26.6788C20.9725 26.122 21.3929 25.5985 21.8587 25.1163L21.862 25.1131C21.9852 24.9879 22.1053 24.8513 22.2315 24.7062C22.3558 24.5631 22.4883 24.4095 22.6253 24.2618C22.9 23.9659 23.2178 23.6701 23.6182 23.461ZM26.9824 24.1137C23.8831 22.5808 23.1494 24.2808 22.0996 25.3474C21.4968 25.9713 20.9701 26.6655 20.5322 27.4145C20.0872 28.1562 19.7248 28.9446 19.4499 29.7647C19.2636 30.244 19.1559 30.7501 19.1325 31.2638C19.1143 31.7041 19.243 32.1386 19.4987 32.4975C19.7932 32.919 20.1968 33.2532 20.6657 33.4643C21.2453 33.707 21.8573 33.8647 22.4821 33.9314C23.6291 34.0492 24.7856 34.0492 25.9326 33.9314C27.1188 33.8338 28.2832 33.5527 29.3832 33.0981C29.772 32.9235 30.1202 32.6696 30.4069 32.3543C30.6936 32.0389 30.913 31.6674 31.0498 31.2638C31.2215 30.7154 31.2815 30.1382 31.2272 29.5662C31.1728 28.9938 31.0046 28.437 30.7324 27.9304C29.8786 26.322 28.5756 24.9957 26.9824 24.1137ZM22.8825 26.0815C23.9825 24.8148 24.5498 24.2306 26.3998 25.214C27.72 26.0333 28.7646 27.23 29.3994 28.6482C29.6255 29.1905 29.683 29.7881 29.5654 30.3637L29.6159 30.4304C29.5705 30.6834 29.4602 30.9205 29.2969 31.1189C29.1335 31.3173 28.9228 31.4718 28.6833 31.5649C27.7498 31.9306 26.7663 32.1543 25.7666 32.2306C24.7413 32.3309 23.7076 32.3309 22.6823 32.2306C22.2867 32.2128 21.8943 32.1454 21.5153 32.0304C21.2316 31.9767 20.9741 31.8301 20.7829 31.6137C20.7243 31.5423 20.6801 31.4599 20.6543 31.3712C20.6286 31.2825 20.6219 31.1894 20.6332 31.0978C20.6644 30.7884 20.7195 30.482 20.7992 30.1814C20.992 29.4319 21.2664 28.7054 21.6162 28.0151C21.9535 27.319 22.3791 26.6687 22.8825 26.0815ZM26.2321 25.5021C25.34 25.0296 24.8454 24.985 24.471 25.1179C24.0605 25.2638 23.7013 25.644 23.1348 26.2963L23.1364 26.298C22.6515 26.8635 22.2406 27.4895 21.9157 28.1599L21.9141 28.1648L21.6162 28.0151L21.9125 28.1648C21.5735 28.8337 21.3083 29.5382 21.1214 30.2644V30.2661C21.0463 30.5497 20.993 30.84 20.9636 31.1319V31.1384C20.9578 31.1854 20.9618 31.233 20.975 31.2784C20.9879 31.3229 21.0093 31.3644 21.0384 31.4005C21.18 31.5576 21.3692 31.6639 21.5772 31.7032L21.5951 31.7065L21.613 31.7114C21.9652 31.8183 22.3292 31.882 22.697 31.8985H22.7149C23.7186 31.9967 24.7303 31.9967 25.7341 31.8985H25.7406C26.7075 31.8249 27.6583 31.6077 28.5612 31.254L28.6979 31.1905C28.8286 31.1193 28.9445 31.0229 29.0397 30.9073C29.1378 30.7882 29.2084 30.6505 29.2529 30.5037L29.209 30.4451L29.2399 30.297C29.344 29.7869 29.2921 29.2573 29.0918 28.7768V28.7752C28.4851 27.4243 27.4894 26.2845 26.2321 25.5021Z" fill="#FF5500"/>
    <path fill-rule="evenodd" clip-rule="evenodd" d="M26.0994 14.7144C23.7161 13.4477 21.4661 15.9977 21.5994 18.0477C21.5782 18.4889 21.6643 18.9287 21.8502 19.3294C22.0361 19.7301 22.3164 20.0797 22.667 20.3484C23.0176 20.6171 23.428 20.7968 23.8633 20.8721C24.2985 20.9475 24.7455 20.9162 25.1661 20.7811C25.9992 20.5004 26.7263 19.971 27.2494 19.2644C27.6673 18.7361 27.8697 18.0692 27.8161 17.3977C27.7653 16.8458 27.5829 16.3141 27.2842 15.8472C26.9855 15.3803 26.5792 14.9919 26.0994 14.7144ZM25.6994 18.3311C25.409 18.6395 25.049 18.8738 24.6494 19.0144C23.7327 19.3311 23.1661 18.6644 22.9827 17.9144C22.8173 17.5855 22.7655 17.211 22.8354 16.8496C22.9052 16.4881 23.0928 16.1599 23.3688 15.9163C23.6448 15.6726 23.9937 15.5272 24.3611 15.5028C24.7284 15.4783 25.0935 15.5762 25.3994 15.7811C25.6591 15.972 25.8679 16.2239 26.0074 16.5145C26.1469 16.8052 26.2129 17.1256 26.1994 17.4477C26.1805 17.6212 26.1264 17.7891 26.0404 17.9409C25.9545 18.0928 25.8384 18.2256 25.6994 18.3311Z" fill="#FF5500"/>
    <path d="M22.6855 14.8854C23.61 14.0796 24.9163 13.7088 26.2549 14.4199L26.2663 14.4264C26.792 14.7305 27.2378 15.1567 27.5651 15.6683C27.8513 16.1159 28.0401 16.6177 28.1201 17.1413L28.1478 17.3675V17.3707C28.2081 18.1261 27.9799 18.8776 27.5098 19.472L27.5081 19.4704C26.945 20.2272 26.166 20.7951 25.2718 21.0963L25.2686 21.098C24.7968 21.2496 24.2937 21.285 23.8053 21.2005C23.3174 21.1159 22.8573 20.9142 22.4642 20.6129C22.071 20.3116 21.7565 19.9196 21.5479 19.4704C21.3445 19.0321 21.249 18.5515 21.2663 18.069L21.2598 17.8541C21.2659 16.7724 21.8319 15.6294 22.6855 14.8854ZM26.0986 14.7145C23.7154 13.4482 21.465 15.9979 21.5983 18.0478C21.5771 18.4889 21.6648 18.9282 21.8506 19.3288C22.0364 19.7291 22.3158 20.079 22.666 20.3476C23.0164 20.6162 23.4273 20.7963 23.8623 20.8717C24.2975 20.9471 24.7455 20.9158 25.166 20.7806C25.999 20.4999 26.7264 19.9702 27.2493 19.2636C27.6668 18.7356 27.8692 18.0694 27.8158 17.3984C27.765 16.8465 27.5822 16.3142 27.2835 15.8473C26.9848 15.3805 26.5784 14.9919 26.0986 14.7145ZM24.3604 15.5023C24.7275 15.4778 25.093 15.5759 25.3988 15.7806C25.6585 15.9715 25.868 16.224 26.0075 16.5146C26.1468 16.805 26.2129 17.1254 26.1995 17.4472C26.1807 17.6206 26.1259 17.7886 26.04 17.9404C25.9542 18.0921 25.8387 18.2256 25.6999 18.331C25.4095 18.6395 25.048 18.874 24.6484 19.0146C23.7321 19.3308 23.1651 18.6642 22.9818 17.9144C22.8166 17.5856 22.7655 17.2112 22.8353 16.8499C22.9051 16.4884 23.0931 16.1593 23.3691 15.9157C23.645 15.6725 23.9934 15.5268 24.3604 15.5023ZM24.3831 15.8359C24.0893 15.8555 23.8097 15.9714 23.5889 16.1663C23.3682 16.3612 23.2183 16.6243 23.1624 16.9134C23.1067 17.2023 23.1475 17.5017 23.2796 17.7646L23.2975 17.7988L23.3057 17.8346C23.3858 18.1623 23.5435 18.4418 23.7467 18.6028C23.9331 18.7503 24.1858 18.8216 24.541 18.6989C24.889 18.576 25.2026 18.3718 25.4557 18.1032L25.4753 18.082L25.498 18.0657C25.6009 17.9877 25.6867 17.8884 25.7503 17.776C25.8124 17.6662 25.8495 17.5448 25.8643 17.4196C25.873 17.157 25.82 16.8965 25.7064 16.6595C25.5915 16.4201 25.4199 16.2121 25.2067 16.054C24.9634 15.8931 24.6743 15.8166 24.3831 15.8359Z" fill="#FF5500"/>
    <path fill-rule="evenodd" clip-rule="evenodd" d="M35.0825 20.5311C34.8777 20.1101 34.5817 19.74 34.2159 19.4478C33.1659 18.6811 29.5492 17.5311 29.3325 21.4145C29.2936 21.7986 29.3323 22.1867 29.4462 22.5556C29.5601 22.9245 29.747 23.2668 29.9957 23.5621C30.2444 23.8575 30.5499 24.0999 30.8941 24.2749C31.2382 24.4499 31.614 24.5541 31.9992 24.5811C32.4906 24.5776 32.9755 24.4687 33.4212 24.2617C33.8669 24.0546 34.2629 23.7544 34.5825 23.3811C34.9369 23.0079 35.1734 22.5385 35.2623 22.0315C35.3512 21.5246 35.2887 21.0027 35.0825 20.5311ZM33.4159 22.1978C33.2494 22.3703 33.0501 22.5078 32.8297 22.6023C32.6093 22.6967 32.3723 22.7462 32.1325 22.7478C31.3159 22.7478 30.9159 22.0478 30.8659 21.3478C30.8159 20.6478 31.1325 18.5145 33.3159 20.2311C33.5718 20.4328 33.7631 20.7052 33.8659 21.0145C33.9118 21.2481 33.8873 21.4901 33.7952 21.7098C33.7032 21.9294 33.548 22.1167 33.3492 22.2478L33.4159 22.1978Z" fill="#FF5500"/>
    <path d="M31.4307 18.356C32.0193 18.2996 32.623 18.4038 33.1413 18.5676C33.6586 18.7312 34.1155 18.9612 34.4125 19.178L34.4239 19.1878C34.7272 19.4301 34.9872 19.7206 35.1937 20.0471L35.3826 20.3857L35.3891 20.3971H35.3874C35.6199 20.9287 35.6911 21.5183 35.5909 22.0898C35.4915 22.6556 35.2271 23.1783 34.834 23.5969L34.8357 23.5986C34.4851 24.0078 34.05 24.3367 33.5613 24.5637C33.0725 24.7907 32.5409 24.9098 32.002 24.9137L31.989 24.9153L31.976 24.9137C31.5465 24.8835 31.1277 24.767 30.7439 24.5719C30.3602 24.3767 30.0186 24.1068 29.7413 23.7776C29.4639 23.4482 29.2548 23.0659 29.1277 22.6546C29.0006 22.243 28.9573 21.8087 29.0007 21.3801H29.0023C29.0614 20.3672 29.3422 19.6341 29.7917 19.1373C30.246 18.6355 30.8375 18.413 31.4307 18.356ZM34.2156 19.4482C33.1654 18.6815 29.5495 17.5314 29.3327 21.4143C29.2939 21.7984 29.3328 22.1864 29.4467 22.5553C29.5606 22.9242 29.7465 23.2674 29.9952 23.5628C30.2438 23.858 30.5496 24.1006 30.8936 24.2756C31.2376 24.4506 31.6138 24.5545 31.9988 24.5816C32.4902 24.5781 32.9756 24.468 33.4213 24.261C33.8669 24.054 34.2638 23.7537 34.5834 23.3805C34.9374 23.0073 35.1732 22.5378 35.2621 22.0312C35.351 21.5243 35.2892 21.002 35.0831 20.5305C34.8783 20.1096 34.5813 19.7403 34.2156 19.4482ZM30.8659 21.3476C30.816 20.6474 31.1328 18.5151 33.3155 20.231C33.5713 20.4326 33.7628 20.7049 33.8656 21.0139C33.9116 21.2476 33.8876 21.4909 33.7956 21.7105C33.7036 21.9298 33.5481 22.1167 33.3497 22.2476L33.4164 22.1972C33.25 22.3696 33.0507 22.508 32.8305 22.6025C32.6101 22.6969 32.372 22.7457 32.1322 22.7473C31.3159 22.747 30.9159 22.0474 30.8659 21.3476ZM31.9743 19.9153C31.7559 19.8957 31.6161 19.9714 31.5072 20.0992C31.3853 20.2425 31.298 20.4598 31.2468 20.7047C31.1964 20.9458 31.1877 21.1802 31.198 21.3248C31.2195 21.6247 31.3162 21.9051 31.473 22.1028C31.622 22.2905 31.8318 22.4114 32.1306 22.412C32.3259 22.4107 32.5191 22.3734 32.6986 22.2965C32.8689 22.2235 33.0215 22.1161 33.1527 21.9856L33.1495 21.9807L33.1804 21.9579C33.3166 21.8639 33.424 21.7332 33.488 21.5803C33.552 21.4274 33.5687 21.26 33.5401 21.0969C33.4779 20.9208 33.3811 20.7599 33.2536 20.6249L33.1104 20.4931C32.5868 20.0814 32.2177 19.9374 31.9743 19.9153Z" fill="#FF5500"/>
    <path fill-rule="evenodd" clip-rule="evenodd" d="M20.5327 22.5811C20.6138 21.7083 20.3705 20.8361 19.8494 20.1311C19.428 19.6098 18.8391 19.2506 18.1827 19.1145C17.5682 18.9744 16.9242 19.0485 16.3575 19.3243C15.7907 19.6001 15.3351 20.0611 15.0661 20.6311C14.7131 21.2892 14.6067 22.0516 14.7661 22.7811C14.8593 23.2216 15.0439 23.6376 15.3081 24.0022C15.5722 24.3668 15.9099 24.672 16.2994 24.8978C16.7225 25.1679 17.2141 25.3113 17.7161 25.3113C18.218 25.3113 18.7096 25.1679 19.1327 24.8978C19.5278 24.6445 19.8594 24.3039 20.1022 23.9023C20.3449 23.5007 20.4922 23.0487 20.5327 22.5811ZM18.8661 22.3645C18.8384 22.5756 18.7662 22.7784 18.6541 22.9595C18.5421 23.1405 18.3927 23.2956 18.2161 23.4145C18.0539 23.5081 17.87 23.5574 17.6827 23.5574C17.4955 23.5574 17.3115 23.5081 17.1494 23.4145C16.7163 23.218 16.3718 22.8675 16.1827 22.4311C15.5827 20.6478 17.0994 20.0645 17.8494 20.3145C18.1756 20.4379 18.4512 20.6667 18.6327 20.9645C18.9052 21.4077 19.0004 21.9374 18.8994 22.4478L18.8661 22.3645Z" fill="#FF5500"/>
    <path d="M16.2124 19.0242C16.8448 18.7166 17.5625 18.6353 18.2485 18.7898L18.2501 18.7882C18.8904 18.9209 19.4729 19.2446 19.9233 19.7126L20.1089 19.921L20.117 19.9324C20.6867 20.7031 20.9526 21.6571 20.8641 22.6114C20.8189 23.1292 20.656 23.6298 20.3872 24.0746C20.1182 24.5198 19.7508 24.8974 19.313 25.1781H19.3113C18.8347 25.4823 18.2816 25.6452 17.7163 25.6453C17.1508 25.6453 16.5963 25.4824 16.1196 25.1781V25.1765C15.6957 24.9282 15.3272 24.5962 15.0389 24.1983C14.7478 23.7965 14.5429 23.3377 14.4399 22.8523L14.3878 22.5479C14.2984 21.8417 14.4283 21.1222 14.7638 20.489L14.8875 20.2546C15.1958 19.7239 15.6569 19.2945 16.2124 19.0242ZM18.1834 19.1137C17.5689 18.9737 16.924 19.0479 16.3572 19.3237C15.7907 19.5994 15.3356 20.0609 15.0665 20.6306C14.7136 21.2885 14.6062 22.0513 14.7654 22.7807C14.8587 23.2212 15.0433 23.6384 15.3074 24.003C15.5714 24.3674 15.9094 24.6724 16.2986 24.8982C16.7218 25.1683 17.2143 25.3116 17.7163 25.3116C18.218 25.3116 18.7093 25.168 19.1323 24.8982C19.5274 24.6449 19.8596 24.3037 20.1023 23.9021C20.345 23.5005 20.4915 23.0479 20.532 22.5805C20.6129 21.7079 20.371 20.8357 19.8501 20.1309C19.4288 19.6098 18.8396 19.2499 18.1834 19.1137ZM16.1831 22.4307C15.5833 20.6476 17.0998 20.0649 17.8497 20.3149C18.1757 20.4383 18.4512 20.6667 18.6326 20.9643C18.9049 21.4073 19.0003 21.9369 18.8996 22.447L18.8654 22.364C18.8378 22.5751 18.7659 22.7787 18.6538 22.9597C18.5418 23.1405 18.3924 23.2951 18.216 23.4138C18.0538 23.5074 17.8693 23.5571 17.6821 23.5571C17.4951 23.5569 17.3118 23.5073 17.1499 23.4138C16.7168 23.2173 16.3722 22.8671 16.1831 22.4307ZM17.7374 20.629C17.4748 20.5447 17.0338 20.6031 16.7251 20.865C16.4509 21.0978 16.2372 21.5339 16.494 22.3103C16.6313 22.6204 16.8638 22.8774 17.1564 23.0444L17.2866 23.1111L17.3012 23.1176L17.3159 23.1257C17.4272 23.19 17.5536 23.2233 17.6821 23.2234C17.8064 23.2234 17.9283 23.1908 18.0369 23.1306C18.1708 23.0389 18.2851 22.922 18.3706 22.7839C18.4577 22.6433 18.5134 22.4857 18.535 22.3217L18.5936 21.8676C18.5669 21.6115 18.4865 21.3615 18.3494 21.1384H18.3478C18.2061 20.9059 17.9915 20.7267 17.7374 20.629Z" fill="#FF5500"/>
</svg>