<svg xmlns="http://www.w3.org/2000/svg" width="40" height="40" fill="none"><rect width="40" height="40" fill="#3F593F" rx="20"/><path fill="#fff" d="M20.621 18.02c1.448-1.751 3.302-2.318 5.448-1.707 2.162.614 3.118 2.309 3.198 4.394.119 3.078.032 6.162.032 9.284H25.52v-1.52c0-1.776.018-3.552-.01-5.326-.009-.542-.075-1.105-.241-1.617-.31-.956-.971-1.576-2.022-1.655-1.088-.082-1.922.401-2.37 1.357-.267.572-.396 1.254-.411 1.89-.05 2.048-.019 4.098-.019 6.15V30h-3.773V16.126h3.746v1.993c.108-.052.17-.062.201-.1ZM14.06 29.99h-3.723V16.11h3.723V29.99ZM12.197 10c1.214-.004 2.208.997 2.211 2.228.004 1.244-.962 2.22-2.198 2.224A2.188 2.188 0 0 1 10 12.24c-.003-1.23.984-2.235 2.197-2.239Z"/><mask id="a" width="20" height="20" x="10" y="10" maskUnits="userSpaceOnUse" style="mask-type:luminance"><path fill="#fff" d="M20.621 18.02c1.448-1.751 3.302-2.318 5.448-1.707 2.162.614 3.118 2.309 3.198 4.394.119 3.078.032 6.162.032 9.284H25.52v-1.52c0-1.776.018-3.552-.01-5.326-.009-.542-.075-1.105-.241-1.617-.31-.956-.971-1.576-2.022-1.655-1.088-.082-1.922.401-2.37 1.357-.267.572-.396 1.254-.411 1.89-.05 2.048-.019 4.098-.019 6.15V30h-3.773V16.126h3.746v1.993c.108-.052.17-.062.201-.1ZM14.06 29.99h-3.723V16.11h3.723V29.99ZM12.197 10c1.214-.004 2.208.997 2.211 2.228.004 1.244-.962 2.22-2.198 2.224A2.188 2.188 0 0 1 10 12.24c-.003-1.23.984-2.235 2.197-2.239Z"/></mask></svg>