<svg xmlns="http://www.w3.org/2000/svg" width="40" height="30" viewBox="0 0 40 30" fill="none">
    <path d="M39.8393 22.1559C39.606 21.0059 38.8894 19.8559 37.8394 19.4226C37.206 19.1559 36.4727 19.2392 35.8227 19.4226C35.2893 19.5892 34.7727 19.8392 34.306 20.1726C33.5893 20.6726 32.9893 21.3392 32.5393 22.1226C32.506 21.5059 32.406 20.8892 32.156 20.3059C31.806 19.4892 31.156 18.7726 30.306 18.6226C29.4227 18.4726 28.556 18.8559 27.8394 19.4226C27.1394 19.9726 26.506 20.6892 26.0727 21.5226C25.7893 22.0559 25.606 22.6892 25.6227 23.3059C24.4727 22.2892 23.0227 21.5726 21.5394 22.0226C20.7727 22.2392 20.056 22.7559 19.656 23.4892C19.1893 24.3059 19.2227 25.3059 19.5894 26.1559C19.9727 27.0559 20.706 27.7392 21.5394 28.1559C22.456 28.6059 23.456 28.7892 24.4394 28.9059C26.606 29.1726 28.806 29.1226 30.9727 28.8559C33.106 28.6059 35.9227 28.4892 38.256 27.1559C38.9227 26.7559 39.256 26.0392 39.5394 25.3392C39.9394 24.3392 40.0727 23.2226 39.856 22.1559H39.8393Z" fill="#FF5500"/>
    <path d="M29.2055 5.08941C27.4555 4.73941 25.5555 5.03941 24.0389 5.93941C24.2222 4.88941 24.2555 3.80608 23.9055 2.82275C23.6222 1.98941 23.0555 1.25608 22.2722 0.822744C21.4555 0.372744 20.4722 0.256075 19.5555 0.322742C16.1055 0.622742 12.9388 2.82274 10.9888 5.57274C10.0555 6.88941 9.37219 8.40608 9.02219 9.98941C7.63886 9.08941 6.10553 8.28941 4.43886 8.32274C2.85553 8.35608 1.20551 9.25608 0.62218 10.7894C-0.0444865 12.5561 1.23886 14.2061 2.58886 15.2061C4.02219 16.2727 5.75551 17.0227 7.52218 17.2561C14.2388 18.1727 23.2889 17.2894 28.4389 15.2061C29.6722 14.7061 30.8722 14.1227 31.8555 13.2227C32.8055 12.3394 33.4555 11.1727 33.5722 9.87274C33.8055 7.35608 31.4889 5.52274 29.2222 5.07274L29.2055 5.08941Z" fill="#FF5500"/>
</svg>