<svg xmlns="http://www.w3.org/2000/svg" width="41" height="40" fill="none"><rect width="40" height="40" x=".4" fill="#3F593F" rx="20"/><path fill="#fff" fill-rule="evenodd" d="m25.236 21.165.546-3.592h-3.413v-2.331c0-.983.477-1.941 2.006-1.941h1.551v-3.058S24.518 10 23.172 10c-2.81 0-4.648 1.72-4.648 4.835v2.738H15.4v3.592h3.124V30H22.37v-8.835h2.867Z" clip-rule="evenodd"/><mask id="a" width="11" height="20" x="15" y="10" maskUnits="userSpaceOnUse" style="mask-type:luminance"><path fill="#fff" fill-rule="evenodd" d="m25.236 21.165.546-3.592h-3.413v-2.331c0-.983.477-1.941 2.006-1.941h1.551v-3.058S24.518 10 23.172 10c-2.81 0-4.648 1.72-4.648 4.835v2.738H15.4v3.592h3.124V30H22.37v-8.835h2.867Z" clip-rule="evenodd"/></mask></svg>