<svg xmlns="http://www.w3.org/2000/svg" width="66" height="30" fill="none"><rect width="64.333" height="29" x=".5" y=".5" fill="#fff" rx="3.5"/><rect width="64.333" height="29" x=".5" y=".5" stroke="#DFDFDF" rx="3.5"/><path fill="url(#a)" d="M40.22 7.506c1.545 0 2.783.314 3.573.609l-.541 3.147c-1.036-.484-2.065-.743-3.342-.723-1.56 0-2.282.646-2.282 1.25-.01.678.845 1.127 2.237 1.798v.002c2.3 1.035 3.362 2.292 3.35 3.944-.03 3.014-2.75 4.96-6.94 4.96-1.789-.02-3.51-.37-4.442-.775l.559-3.25c1.606.722 2.497.993 4.266.993 1.147 0 2.377-.445 2.386-1.418.007-.636-.516-1.09-2.067-1.801-1.512-.695-3.517-1.86-3.494-3.946.024-2.82 2.799-4.79 6.738-4.79Zm17.024 14.776h-3.7l-.485-2.176-5.106-.006-.839 2.182h-4.187l5.92-13.307c.42-.944 1.132-1.203 2.087-1.203h3.082l3.228 14.51Zm-27.911-.004h-3.984L27.84 7.759h3.986l-2.494 14.519ZM14.481 7.759c.866.03 1.566.306 1.806 1.225l1.399 6.673.416 2.012 3.902-9.9h-.001v-.002h4.223L19.95 22.258l-4.218.006-3.544-12.61A16.83 16.83 0 0 0 8 8.06l.05-.302h6.43Zm36.735 3.929c-.324.878-1.952 5.026-2.116 5.444h3.31l-1.194-5.444Z"/><defs><linearGradient id="a" x1="8" x2="57.244" y1="22.494" y2="22.494" gradientUnits="userSpaceOnUse"><stop stop-color="#181A5F"/><stop offset="1" stop-color="#0E239A"/></linearGradient></defs></svg>