<svg xmlns="http://www.w3.org/2000/svg" width="41" height="40" fill="none"><rect width="40" height="40" x=".6" fill="#3F593F" rx="20"/><path fill="#fff" fill-rule="evenodd" d="M18.555 23.406v-5.98l5.227 2.99-5.227 2.99Zm11.627-7.86a2.52 2.52 0 0 0-1.768-1.79c-1.56-.423-7.814-.423-7.814-.423s-6.254 0-7.814.423a2.52 2.52 0 0 0-1.768 1.79c-.418 1.578-.418 4.87-.418 4.87s0 3.293.418 4.872a2.52 2.52 0 0 0 1.768 1.79c1.56.422 7.814.422 7.814.422s6.254 0 7.814-.423a2.52 2.52 0 0 0 1.768-1.79c.418-1.578.418-4.87.418-4.87s0-3.293-.418-4.872Z" clip-rule="evenodd"/><mask id="a" width="21" height="15" x="10" y="13" maskUnits="userSpaceOnUse" style="mask-type:luminance"><path fill="#fff" fill-rule="evenodd" d="M18.555 23.406v-5.98l5.227 2.99-5.227 2.99Zm11.627-7.86a2.52 2.52 0 0 0-1.768-1.79c-1.56-.423-7.814-.423-7.814-.423s-6.254 0-7.814.423a2.52 2.52 0 0 0-1.768 1.79c-.418 1.578-.418 4.87-.418 4.87s0 3.293.418 4.872a2.52 2.52 0 0 0 1.768 1.79c1.56.422 7.814.422 7.814.422s6.254 0 7.814-.423a2.52 2.52 0 0 0 1.768-1.79c.418-1.578.418-4.87.418-4.87s0-3.293-.418-4.872Z" clip-rule="evenodd"/></mask></svg>