<svg xmlns="http://www.w3.org/2000/svg" width="39" height="36" viewBox="0 0 39 36" fill="none">
    <path fill-rule="evenodd" clip-rule="evenodd" d="M30.8975 1.96927C29.6799 1.74892 28.4306 1.77489 27.2232 2.04564C26.0159 2.31639 24.875 2.82644 23.8682 3.54563C22.8613 4.26481 22.0089 5.17855 21.3612 6.23282C20.7135 7.2871 20.2837 8.46052 20.0973 9.68373C20.0903 9.74009 20.0903 9.79709 20.0973 9.85344C20.2978 10.3317 20.8224 10.3472 20.9613 9.85344C21.478 7.89007 22.5493 6.11708 24.0471 4.74647C24.9593 4.00096 26.0301 3.47428 27.1775 3.20683C28.3248 2.93939 29.5182 2.93827 30.6661 3.20358C34.1684 3.86702 37.1462 7.18424 36.7759 13.3558C36.7759 15.269 35.233 17.7376 33.1193 20.2988C29.1695 25.1589 19.3721 33.2128 19.3104 33.2591C14.7729 29.9872 10.6852 26.1329 7.1524 21.7954C4.65291 18.5708 2.70887 15.0684 2.8323 11.8129C2.81275 9.68921 3.48598 7.617 4.74999 5.91031C6.014 4.20362 7.79989 2.95547 9.83703 2.35499C13.4783 1.42926 17.4435 3.21901 19.0944 8.91228C19.1312 9.04732 19.2202 9.16219 19.3417 9.23164C19.4632 9.30108 19.6074 9.3194 19.7424 9.28257C19.8774 9.24575 19.9923 9.15678 20.0617 9.03526C20.1312 8.91373 20.1495 8.7696 20.1127 8.63456C18.2612 2.0927 13.7251 0.148655 9.54388 1.13611C7.19059 1.76973 5.10956 3.15659 3.61893 5.08466C2.1283 7.01273 1.3101 9.37591 1.28941 11.8129C1.18141 15.3924 3.14088 19.2959 5.91808 22.8446C9.64917 27.5431 14.0526 31.6658 18.9864 35.0797C19.2649 35.1393 19.5556 35.0954 19.8041 34.9563C20.2903 34.6706 20.7591 34.3563 21.2081 34.0151C25.3132 30.8752 29.1243 27.3687 32.5947 23.5389C35.7576 19.9131 38.2262 16.1176 38.3188 13.3558C38.5194 6.28936 34.9244 2.72528 30.8975 1.96927Z" fill="#FF5500"/>
    <path d="M9.4673 0.811075C11.6326 0.299704 13.9051 0.545994 15.8784 1.7795C17.711 2.92511 19.2531 4.90404 20.2193 7.84884C20.4422 7.22561 20.7288 6.62527 21.077 6.05847C21.748 4.96623 22.6315 4.01872 23.6747 3.27364C24.7177 2.5287 25.9005 2.00138 27.1512 1.72091C28.4017 1.44057 29.6955 1.413 30.9566 1.64115H30.9598C33.0505 2.03378 35.0326 3.15725 36.4627 5.09818C37.8924 7.03857 38.7537 9.77363 38.6519 13.3648V13.3664C38.6028 14.8303 37.9293 16.5279 36.8957 18.2915C35.8576 20.0628 34.4359 21.9363 32.8462 23.7587L32.8413 23.7635L32.8397 23.7619C29.356 27.6064 25.5315 31.1275 21.4107 34.2795V34.2811C20.9513 34.6301 20.4708 34.9507 19.9735 35.243L19.967 35.2479C19.648 35.4263 19.2746 35.4821 18.9172 35.4058L18.8521 35.3912L18.7967 35.3537C13.8361 31.9212 9.40847 27.7763 5.65708 23.0523L5.65545 23.0507C2.86277 19.4822 0.844994 15.4998 0.956557 11.8023C0.979539 9.29522 1.82206 6.86371 3.35565 4.88009C4.89079 2.89469 7.03415 1.46683 9.45753 0.81433L9.4673 0.811075ZM20.1135 8.63497C18.262 2.09311 13.725 0.149145 9.5438 1.1366C7.19066 1.77027 5.10987 3.15719 3.61932 5.08516C2.12879 7.01319 1.3109 9.37676 1.29022 11.8137C1.18252 15.3927 3.1408 19.2958 5.91749 22.844C9.64858 27.5425 14.0534 31.6664 18.9872 35.0803C19.2654 35.1396 19.5559 35.0955 19.8042 34.9566C20.2904 34.6708 20.7598 34.357 21.2088 34.0158C25.3139 30.8759 29.1252 27.3687 32.5956 23.5389C35.7583 19.9132 38.2256 16.1167 38.3182 13.355C38.5185 6.28932 34.9246 2.72608 30.898 1.96993C29.6804 1.74958 28.4302 1.77567 27.2228 2.04643C26.0158 2.31721 24.875 2.82643 23.8683 3.54545C22.8616 4.26455 22.0095 5.1785 21.3618 6.23262C20.7142 7.28675 20.2837 8.46013 20.0972 9.68315C20.0902 9.73951 20.0902 9.79768 20.0972 9.85404C20.2978 10.3317 20.8224 10.3471 20.9614 9.85404C21.4782 7.89067 22.5496 6.11723 24.0474 4.74662C24.9595 4.0012 26.0301 3.47439 27.1773 3.20691C28.3246 2.93946 29.519 2.93835 30.6668 3.20365C34.1688 3.86733 37.1468 7.18434 36.7769 13.355C36.7769 15.2681 35.2333 17.7373 33.1196 20.2984C29.176 25.1509 19.4031 33.1877 19.311 33.259C14.7737 29.9871 10.6856 26.1331 7.15285 21.7958C4.65355 18.5714 2.71007 15.069 2.83318 11.8137C2.81363 9.68997 3.48649 7.61705 4.7505 5.91036C6.01438 4.2039 7.79992 2.9562 9.83676 2.35567C13.4779 1.42997 17.4436 3.21884 19.0946 8.91166C19.1314 9.0467 19.2204 9.16286 19.342 9.2323C19.4634 9.30153 19.6075 9.31946 19.7424 9.28276C19.8773 9.24596 19.9919 9.15673 20.0614 9.03536C20.1307 8.91399 20.1501 8.76985 20.1135 8.63497ZM15.0337 3.43315C13.4671 2.44438 11.6626 2.23504 9.92303 2.67631C7.95881 3.25722 6.23661 4.46277 5.01743 6.10893C3.79677 7.75728 3.14633 9.75938 3.16522 11.8104V11.8251C3.04667 14.9517 4.92062 18.3691 7.41163 21.5842L8.0757 22.3882C11.3795 26.3112 15.1487 29.8181 19.298 32.8358C19.3638 32.7814 19.4481 32.7147 19.5471 32.6324C19.8278 32.3988 20.2303 32.0623 20.7238 31.6444C21.7112 30.8082 23.0628 29.6466 24.5357 28.3355C27.4871 25.7081 30.9049 22.4952 32.8609 20.0884L32.8625 20.0868C33.9128 18.8141 34.8127 17.5743 35.4487 16.4231C36.0877 15.2665 36.4432 14.2291 36.4432 13.355V13.3355L36.4676 12.7772C36.5431 10.0226 35.9157 7.91012 34.897 6.40027C33.8118 4.79199 32.27 3.84638 30.605 3.5308L30.5903 3.52917V3.52592C29.4927 3.27242 28.3509 3.27514 27.2538 3.5308C26.1586 3.78609 25.1353 4.28827 24.2638 4.9989C22.8174 6.32529 21.7832 8.04065 21.2837 9.93868L21.2821 9.94356C21.1809 10.3033 20.9044 10.5542 20.5497 10.5507C20.2119 10.5469 19.928 10.3127 19.7896 9.98263L19.7717 9.94031L19.7668 9.89473C19.7565 9.81132 19.7565 9.72587 19.7668 9.64246L19.7717 9.61316C19.5685 9.65381 19.357 9.62385 19.176 9.52039C18.978 9.40704 18.8323 9.21962 18.7723 8.99955V8.99792C17.9639 6.21488 16.6013 4.42275 15.0337 3.43315Z" fill="#FF5500"/>
    <path fill-rule="evenodd" clip-rule="evenodd" d="M19.8044 31.2842C19.3415 30.4665 18.8632 29.6642 18.3695 28.8156C18.2289 28.5986 18.1149 28.3655 18.03 28.1213C17.9766 27.9823 17.9766 27.8283 18.03 27.6893C18.1102 27.5092 18.2318 27.3506 18.3849 27.2264C18.6735 26.932 18.9828 26.6587 19.3106 26.4087L22.3964 23.7704C22.9347 23.3502 23.4169 22.8628 23.8313 22.32C24.072 21.9541 24.1958 21.5236 24.1862 21.0857C24.1709 20.8978 24.118 20.7149 24.0305 20.5479C23.943 20.3809 23.8228 20.2332 23.677 20.1137C23.1631 19.7186 22.6099 19.3774 22.0261 19.0954C21.5633 18.8331 21.085 18.6017 20.6067 18.3857C19.5421 17.9228 18.4466 17.5371 17.4129 17.0125C17.1668 16.8995 16.934 16.7598 16.7186 16.5959C16.6106 16.5959 16.4717 16.4416 16.4717 16.3028L16.8729 15.6702L18.8169 13.1398L20.3598 10.8255C20.6684 10.3472 19.9741 9.91519 19.5883 10.4089L17.9066 12.4147L15.7157 14.8987C15.5146 15.1405 15.334 15.3985 15.1757 15.6702C15.0614 15.8836 15.0031 16.1224 15.006 16.3645C15.0197 16.8226 15.2073 17.2584 15.5305 17.5834C15.8814 17.9204 16.2821 18.2015 16.7186 18.4165L21.2084 20.6383C22.4427 21.3326 22.5198 21.3172 22.165 21.6566C21.8101 21.996 21.5324 22.2583 21.301 22.4743L18.2152 25.2824C17.817 25.6453 17.4409 26.0317 17.0889 26.4396C16.925 26.6864 16.8001 26.957 16.7186 27.2419C16.6033 27.6137 16.6033 28.0117 16.7186 28.3836C16.8531 28.805 17.0564 29.2012 17.3203 29.5562C17.8449 30.3585 18.3695 31.0991 18.8632 31.9168L19.1718 32.4568C19.4958 33.0123 20.3752 32.3488 20.0821 31.7934C19.8969 31.5157 19.8969 31.5157 19.8044 31.2842Z" fill="#FF5500"/>
    <path d="M19.3253 10.2034C19.6228 9.82276 20.0772 9.77667 20.4012 9.96418C20.5586 10.0553 20.6907 10.206 20.7446 10.4004C20.8001 10.601 20.7634 10.8149 20.6404 11.0058L19.0942 13.3252L19.0812 13.3431L17.1427 15.8626L16.8709 16.2939L16.9197 16.3314C17.1155 16.4803 17.3277 16.6063 17.5512 16.709L17.5643 16.7155C18.0766 16.9755 18.5964 17.1972 19.1251 17.4137L20.7397 18.0794L20.743 18.081V18.0827C21.2262 18.3009 21.715 18.5362 22.1899 18.8053C22.6362 19.0221 23.0661 19.2709 23.4741 19.5524L23.8794 19.8503L23.8875 19.8551V19.8568C24.0679 20.0047 24.2171 20.1872 24.3253 20.3939C24.4063 20.5486 24.4631 20.7143 24.4946 20.8854L24.519 21.0579V21.0791C24.5299 21.5843 24.3866 22.081 24.1088 22.5032L24.0975 22.5228L23.8305 22.3193L24.0958 22.5228C23.6643 23.0879 23.1622 23.5957 22.6017 24.0332L19.5271 26.6618L19.5125 26.6748L19.5109 26.6732C19.1961 26.9133 18.8993 27.1765 18.6222 27.4593L18.6092 27.4739L18.5945 27.4853C18.4858 27.5735 18.3994 27.6856 18.3406 27.8125C18.318 27.8735 18.3173 27.9405 18.3406 28.0013L18.3455 28.0111H18.3439C18.3818 28.1203 18.4267 28.228 18.4773 28.3317L18.6482 28.6344L18.658 28.6475C19.1492 29.4917 19.6296 30.3001 20.0935 31.1198L20.1049 31.1393L20.1131 31.1605C20.1613 31.2811 20.1776 31.3195 20.201 31.3623C20.2268 31.4096 20.2629 31.4642 20.3588 31.6081L20.3686 31.6227L20.3768 31.6374C20.6293 32.1159 20.3547 32.5879 20.0561 32.8092C19.8989 32.9257 19.6924 33.011 19.4718 32.998C19.2341 32.984 19.0198 32.8572 18.8842 32.6253L18.8826 32.6221L18.5783 32.0898L18.2055 31.4941C17.8296 30.9103 17.4421 30.3502 17.0418 29.7379V29.7363C16.7622 29.3562 16.5441 28.9343 16.4005 28.4847V28.4831C16.2661 28.0493 16.2643 27.5842 16.3973 27.1501C16.4882 26.8323 16.6278 26.5302 16.8107 26.2549L16.8221 26.237L16.8367 26.2223C17.1974 25.8044 17.5827 25.4077 17.9907 25.0358L21.0766 22.2282C21.3034 22.0165 21.5736 21.7584 21.9197 21.4274C21.8787 21.4015 21.8273 21.3693 21.7618 21.3314C21.5886 21.231 21.3582 21.1061 21.0441 20.9294H21.0424L16.5698 18.7158C16.103 18.4857 15.6739 18.1845 15.2986 17.8239L15.2937 17.819C14.9108 17.434 14.6883 16.9164 14.672 16.3737V16.3688C14.6684 16.0705 14.7412 15.7757 14.882 15.5127L14.8868 15.5029C15.0545 15.2153 15.2469 14.9418 15.4598 14.6859L15.4646 14.6777H15.4663L17.6505 12.2005L19.3253 10.2034ZM20.3588 10.8252C20.6674 10.3469 19.9731 9.91479 19.5874 10.4085L17.906 12.4154L15.7153 14.8991C15.5143 15.1407 15.3332 15.399 15.1749 15.6706C15.061 15.8837 15.0029 16.1223 15.0057 16.3639C15.0194 16.8219 15.2068 17.2581 15.5297 17.583C15.8805 17.92 16.2816 18.2013 16.7179 18.4163L21.2085 20.638C22.4424 21.3321 22.5201 21.3177 22.1655 21.6569C21.8109 21.9961 21.5326 22.258 21.3012 22.4739L18.2153 25.2832C17.8174 25.6459 17.4408 26.0313 17.089 26.4388C16.9252 26.6855 16.7994 26.9565 16.7179 27.2412C16.6027 27.6131 16.6027 28.0119 16.7179 28.3838C16.8524 28.805 17.0564 29.2007 17.3201 29.5557C17.8447 30.358 18.3694 31.0996 18.8631 31.9173L19.1723 32.456C19.4963 33.0114 20.3749 32.349 20.0822 31.7936C19.897 31.5159 19.8964 31.5156 19.8038 31.2842C19.341 30.4665 18.8636 29.6636 18.3699 28.8151C18.2294 28.5982 18.1146 28.3658 18.0297 28.1217C17.9763 27.9827 17.9763 27.8278 18.0297 27.6888C18.1099 27.5089 18.2316 27.3506 18.3846 27.2266C18.6731 26.9322 18.983 26.6595 19.3107 26.4095L22.3966 23.7711C22.9349 23.351 23.4162 22.8621 23.8305 22.3193C24.0711 21.9534 24.1949 21.5234 24.1853 21.0856C24.1701 20.898 24.118 20.7153 24.0307 20.5485C23.9434 20.3817 23.8231 20.2334 23.6775 20.1139C23.1636 19.7188 22.6093 19.377 22.0255 19.095C21.5628 18.8329 21.0844 18.6013 20.6062 18.3854C19.5417 17.9226 18.4465 17.5362 17.4129 17.0117C17.1669 16.8988 16.9333 16.7605 16.7179 16.5967C16.61 16.5962 16.4721 16.4407 16.4721 16.3021L16.8725 15.6706L18.8175 13.1396L20.3588 10.8252Z" fill="#FF5500"/>
</svg>