<svg xmlns="http://www.w3.org/2000/svg" width="41" height="40" viewBox="0 0 41 40" fill="none">
    <path fill-rule="evenodd" clip-rule="evenodd" d="M39.9567 13.8833C39.7276 13.5602 39.435 13.2872 39.0969 13.0809C38.7588 12.8746 38.3822 12.7393 37.99 12.6833C36.0234 12.25 31.9067 12.1833 29.34 11.9666C27.6734 11.8333 28.2734 12.4666 26.89 10.3C25.34 7.89995 23.09 3.89995 21.8234 2.06662C21.4239 1.42468 20.8442 0.91458 20.1567 0.599953C19.9094 0.528181 19.6473 0.524355 19.3981 0.588876C19.1488 0.653398 18.9215 0.783884 18.74 0.96662C18.3791 1.35373 18.0606 1.77838 17.79 2.23329C16.69 3.88329 14.9567 7.11662 13.49 9.49995C13.0039 10.3975 12.3796 11.2131 11.64 11.9166C9.97338 12.9 4.20671 13.3666 1.92338 14.0333C0.773376 14.3666 0.25671 15.0166 0.25671 15.4166C0.225639 15.5836 0.231943 15.7554 0.275169 15.9197C0.318395 16.0839 0.397469 16.2366 0.50671 16.3666C0.768374 16.6815 1.05849 16.9716 1.37338 17.2333C3.15671 18.9 7.64004 22.5 8.22338 24.2833C8.09654 26.0627 7.73219 27.8172 7.14004 29.5C6.29004 32.6166 5.15671 36.1666 4.60671 37.9166C4.57556 38.0107 4.56337 38.11 4.57084 38.2089C4.57832 38.3077 4.60531 38.4041 4.65025 38.4924C4.69519 38.5808 4.7572 38.6593 4.83269 38.7235C4.90818 38.7878 4.99565 38.8364 5.09004 38.8666C5.27297 38.9024 5.46266 38.8672 5.62055 38.7681C5.77843 38.669 5.89267 38.5136 5.94004 38.3333L6.34855 37.5833C6.37942 37.6783 6.36586 37.5016 6.42338 37.5833C6.55401 37.7664 6.75191 37.8903 6.97372 37.9278C7.19552 37.9653 7.42315 37.9133 7.60671 37.7833C8.79004 36.95 11.19 35.4166 13.5734 34C15.1665 33.0493 16.8075 32.1815 18.49 31.4C18.8234 31.2666 19.2734 31.3 19.3234 31.1666C22.6567 32.5166 29.1067 37.5 32.24 38.9833C32.6545 39.2507 33.1291 39.4106 33.6209 39.4484C34.1127 39.4862 34.6062 39.4008 35.0567 39.2C35.2585 39.0459 35.4273 38.8529 35.5533 38.6325C35.6792 38.4121 35.7597 38.1687 35.79 37.9166C35.8708 36.9308 35.7518 35.9387 35.44 35C34.4234 31.3166 31.4567 25.3166 31.34 23.9666C31.34 23.3666 31.94 22.7333 32.6734 21.95C34.614 20.0718 36.6619 18.3078 38.8067 16.6666C39.2703 16.3067 39.6655 15.8663 39.9734 15.3666C40.101 15.1397 40.1667 14.8831 40.1638 14.6227C40.1609 14.3623 40.0894 14.1073 39.9567 13.8833ZM30.9234 19.8166C29.6298 20.949 28.8237 22.5373 28.6734 24.25C28.7852 24.8568 28.9641 25.4493 29.2067 26.0166C30.1567 28.4833 32.3734 33.05 33.19 36.0166C33.19 36.2833 33.3067 36.5833 33.3567 36.85C33.0086 36.7808 32.672 36.6629 32.3567 36.5C29.8567 35.1833 26.0567 32.5833 23.0234 30.85C21.9951 30.2265 20.913 29.6966 19.79 29.2666C19.534 29.1939 19.2628 29.1939 19.0067 29.2666C18.0842 29.523 17.199 29.8984 16.3734 30.3833C13.0192 32.2693 10.1152 33.9321 6.97372 36.1544C7.74038 33.9044 9.07338 31.165 9.79004 28.6317C10.3414 27.0804 10.6177 25.4447 10.6067 23.7984C9.87354 22.2795 8.85504 20.9158 7.60671 19.7817C6.27338 18.315 4.10671 16.9666 3.12338 16.0166C4.69004 15.7 7.12338 15.45 9.17338 15.1C10.4485 14.9374 11.6942 14.5951 12.8734 14.0833C14.34 13.2666 17.8734 7.08329 19.7734 4.08329C19.8232 4.14029 19.8678 4.20165 19.9067 4.26662C21.19 6.26662 22.99 9.48329 24.34 11.6666C24.8724 12.6328 25.5593 13.5055 26.3734 14.25C27.3064 14.6502 28.3083 14.8653 29.3234 14.8833C31.29 15.0333 34.04 15.0833 35.99 15.3C34.2159 16.707 32.5242 18.2151 30.9234 19.8166Z" fill="#2F4027"/>
</svg>