<svg xmlns="http://www.w3.org/2000/svg" width="41" height="42" viewBox="0 0 41 42" fill="none">
    <path fill-rule="evenodd" clip-rule="evenodd" d="M36.7371 3.12727C35.8307 2.20046 34.6116 1.64436 33.3176 1.56733C32.0235 1.4903 30.7471 1.89787 29.7371 2.7106C28.7822 1.75148 27.5188 1.1611 26.1704 1.04393C22.5538 0.877268 20.3204 4.52727 16.7704 9.37727C16.682 9.48335 16.6394 9.62021 16.6519 9.75774C16.6644 9.89527 16.731 10.0222 16.8371 10.1106C16.9432 10.199 17.0801 10.2416 17.2176 10.2291C17.3551 10.2166 17.482 10.15 17.5704 10.0439C23.2038 4.37727 24.2871 2.79393 26.1704 2.7106C26.6265 2.65855 27.0884 2.70126 27.5272 2.83606C27.966 2.97085 28.3722 3.19482 28.7204 3.49393C28.433 3.76992 28.1708 4.07112 27.9371 4.39393C27.8371 4.52727 27.7038 5.6106 27.9371 5.87727L34.4538 11.9606C32.1371 14.6939 18.0871 29.3773 13.7038 33.9273C12.5112 31.5024 10.5392 29.548 8.10377 28.3773C12.0704 23.6773 20.5871 14.1773 24.5704 9.77727C25.9538 8.22727 27.2371 7.24393 26.6538 6.69393C26.0704 6.14393 24.4371 8.3606 23.7538 9.02727C21.2538 11.6606 6.27044 27.3606 4.63711 29.7939C4.48517 29.9934 4.38755 30.2288 4.35377 30.4773C4.30377 31.0439 2.47044 36.4939 1.88711 38.7106C1.72044 39.3939 1.52044 40.0773 1.97044 40.5606C2.42044 41.0439 3.85377 41.0439 4.78711 40.8273C7.38635 40.141 9.91441 39.2091 12.3371 38.0439C13.2538 37.5106 36.1871 12.7106 37.8538 9.87727C38.5603 8.82093 38.8381 7.53518 38.6307 6.28137C38.4233 5.02756 37.7462 3.89978 36.7371 3.12727ZM11.3538 36.3439C8.96555 37.4985 6.45544 38.3818 3.87044 38.9773C4.43711 36.7439 5.90377 32.0106 6.15377 30.8273C6.37044 30.4773 7.07044 29.6273 7.32044 29.3273C8.87044 30.8439 7.87044 30.0939 10.7371 32.7939C11.4871 33.4939 12.2371 34.1439 12.8371 34.8273C11.9871 35.7273 11.4371 36.2939 11.3538 36.3439ZM35.3704 11.0439C34.9871 10.6439 28.9204 5.2106 28.7038 5.0606C29.2384 4.5048 29.8713 4.05274 30.5704 3.72727C31.3616 3.32003 32.2668 3.19065 33.1404 3.35993C34.014 3.52921 34.8053 3.98731 35.3871 4.6606C35.7973 4.93959 36.1462 5.29925 36.4127 5.71762C36.6792 6.136 36.8577 6.6043 36.9371 7.09393C36.9548 7.82382 36.8251 8.54978 36.5559 9.22844C36.2868 9.90711 35.8836 10.5246 35.3704 11.0439Z" fill="black"/>
    <path d="M26.1861 0.7113H26.1991C27.5293 0.826888 28.7781 1.38216 29.7603 2.27868C30.7953 1.53114 32.0575 1.15918 33.3378 1.23539C34.7097 1.31716 36.0025 1.90422 36.9657 2.88415C38.0273 3.70755 38.7401 4.90095 38.9595 6.22725C39.1806 7.56433 38.8844 8.93531 38.1311 10.0619L38.1294 10.0603C37.8991 10.4458 37.3466 11.1595 36.5735 12.0915C35.7822 13.0453 34.7431 14.2516 33.5429 15.6185C31.1421 18.3526 28.0886 21.7376 25.0598 25.0489C22.031 28.36 19.0245 31.599 16.7183 34.0446C15.5654 35.2673 14.5868 36.2929 13.8667 37.0297C13.5069 37.3978 13.2099 37.6954 12.9878 37.9102C12.8771 38.0174 12.7831 38.1069 12.7079 38.1739C12.6415 38.233 12.5666 38.2956 12.5044 38.3317L12.4817 38.3448C10.0401 39.519 7.49208 40.4575 4.87261 41.1491L4.86284 41.1524C4.36514 41.2679 3.7407 41.3245 3.17664 41.2891C2.89438 41.2714 2.61685 41.2299 2.37261 41.1556C2.13307 41.0827 1.89549 40.9693 1.72645 40.7878C1.42051 40.4592 1.34806 40.0674 1.36512 39.6957C1.38157 39.3384 1.48427 38.9568 1.56369 38.6312L1.56531 38.6263C1.85952 37.5084 2.46635 35.5814 3.00249 33.8754C3.27141 33.0196 3.52319 32.218 3.7105 31.5951C3.80419 31.2835 3.88029 31.0185 3.93511 30.8155C3.99315 30.6005 4.01821 30.4834 4.02137 30.4476L4.023 30.433C4.06454 30.1274 4.18446 29.8368 4.3713 29.5915C4.80676 28.95 6.06239 27.5004 7.7144 25.669C9.38975 23.8117 11.496 21.5373 13.6275 19.2578C17.891 14.6984 22.2626 10.1132 23.5119 8.79724L23.5201 8.7891C23.6794 8.63366 23.8999 8.38273 24.163 8.08435C24.4207 7.79211 24.7132 7.46199 25.0044 7.16963C25.2915 6.88148 25.5985 6.60791 25.885 6.44372C26.028 6.36177 26.191 6.29312 26.3602 6.27771C26.4967 6.2654 26.6366 6.28767 26.7623 6.36071L26.8827 6.45186L26.9624 6.53812C27.0356 6.62857 27.0882 6.73224 27.1138 6.849C27.1472 7.00185 27.1299 7.15228 27.0878 7.28845C27.0072 7.549 26.8202 7.81421 26.606 8.07295C26.3864 8.33823 26.1058 8.63349 25.802 8.95023C25.4954 9.26988 25.1597 9.61652 24.8189 9.99841L24.8173 10.0017C20.9223 14.3041 12.7004 23.4768 8.63237 28.2715C10.8182 29.4174 12.6127 31.1885 13.7854 33.3594C18.373 28.5929 31.221 15.1552 33.9888 11.9825L27.7095 6.12146L27.6981 6.11006L27.6867 6.09704C27.5591 5.95113 27.5147 5.74636 27.4947 5.59574C27.4723 5.42752 27.4711 5.24097 27.48 5.0684C27.4891 4.89462 27.508 4.72311 27.5337 4.58337C27.5465 4.51405 27.5621 4.44742 27.5793 4.38969C27.5926 4.34509 27.6193 4.26275 27.6705 4.19437C27.8386 3.96251 28.0207 3.74131 28.2157 3.53194C27.9733 3.36964 27.7097 3.24039 27.4296 3.15433C27.0348 3.03308 26.6191 2.99529 26.2089 3.04203L26.1845 3.04366C25.3646 3.08012 24.6967 3.42807 23.5022 4.52803C22.2983 5.63654 20.6371 7.43164 17.8072 10.2784L17.8055 10.2767C17.6616 10.4382 17.4634 10.5419 17.2473 10.5616C17.0219 10.5819 16.7978 10.5111 16.6239 10.3662C16.4501 10.2214 16.3402 10.0138 16.3195 9.78845C16.2996 9.5696 16.3655 9.35142 16.5018 9.17972L17.773 7.42842C18.9981 5.7353 20.0992 4.23719 21.2056 3.09737C22.6908 1.56747 24.2412 0.621675 26.1861 0.7113ZM26.1704 1.04393C22.5538 0.877268 20.3204 4.52727 16.7704 9.37727C16.682 9.48335 16.6394 9.62021 16.6519 9.75774C16.6644 9.89527 16.731 10.0222 16.8371 10.1106C16.9432 10.199 17.0801 10.2416 17.2176 10.2291C17.3551 10.2166 17.482 10.15 17.5704 10.0439C23.2038 4.37727 24.2871 2.79393 26.1704 2.7106C26.6265 2.65855 27.0884 2.70126 27.5272 2.83606C27.966 2.97085 28.3722 3.19482 28.7204 3.49393C28.433 3.76992 28.1708 4.07112 27.9371 4.39393C27.8371 4.52727 27.7038 5.6106 27.9371 5.87727L34.4538 11.9606C32.1371 14.6939 18.0871 29.3773 13.7038 33.9273C12.5112 31.5024 10.5392 29.548 8.10377 28.3773C12.0704 23.6773 20.5871 14.1773 24.5704 9.77727C25.9538 8.22727 27.2371 7.24393 26.6538 6.69393C26.0704 6.14393 24.4371 8.3606 23.7538 9.02727C21.2538 11.6606 6.27044 27.3606 4.63711 29.7939C4.48517 29.9934 4.38755 30.2288 4.35377 30.4773C4.30377 31.0439 2.47044 36.4939 1.88711 38.7106C1.72044 39.3939 1.52044 40.0773 1.97044 40.5606C2.42044 41.0439 3.85377 41.0439 4.78711 40.8273C7.38635 40.141 9.91441 39.2091 12.3371 38.0439C13.2537 37.5106 36.1859 12.7118 37.8538 9.87727C38.5603 8.82093 38.8381 7.53518 38.6307 6.28137C38.4233 5.02756 37.7462 3.89978 36.7371 3.12727C35.8307 2.20046 34.6116 1.64436 33.3176 1.56733C32.0235 1.4903 30.7471 1.89787 29.7371 2.7106C28.7822 1.75148 27.5188 1.1611 26.1704 1.04393ZM7.32044 29.3273C8.87044 30.8439 7.87044 30.0939 10.7371 32.7939C11.4871 33.4939 12.2371 34.1439 12.8371 34.8273C11.9871 35.7273 11.4371 36.2939 11.3538 36.3439C8.96555 37.4985 6.45544 38.3818 3.87044 38.9773C4.43711 36.7439 5.90377 32.0106 6.15377 30.8273C6.37044 30.4773 7.07044 29.6273 7.32044 29.3273ZM7.34494 29.8226C7.04885 30.1841 6.63613 30.6983 6.46278 30.9636C6.31838 31.6094 5.90003 33.0566 5.45041 34.6013C5.05149 35.9718 4.62872 37.4308 4.33712 38.5189C6.69642 37.9359 8.98979 37.1126 11.1796 36.0564C11.1809 36.0552 11.1829 36.0545 11.1845 36.0531C11.2043 36.0354 11.2324 36.0089 11.2691 35.9733C11.3424 35.9023 11.4439 35.8017 11.5702 35.6722C11.7784 35.4589 12.0495 35.1704 12.3775 34.8243C12.1392 34.5692 11.8851 34.3143 11.6141 34.0593L10.509 33.0371C9.07421 31.6858 8.59798 31.1893 8.28569 30.8383C8.01862 30.538 7.88559 30.3629 7.34494 29.8226ZM30.5704 3.72727C31.3616 3.32003 32.2668 3.19065 33.1404 3.35993C34.014 3.52921 34.8053 3.98731 35.3871 4.6606C35.7973 4.93959 36.1462 5.29925 36.4127 5.71762C36.6792 6.136 36.8577 6.6043 36.9371 7.09393C36.9548 7.82382 36.8251 8.54978 36.5559 9.22844C36.2868 9.90711 35.8836 10.5246 35.3704 11.0439C34.9852 10.6423 28.9204 5.21057 28.7038 5.0606C29.2384 4.5048 29.8713 4.05274 30.5704 3.72727ZM33.0774 3.68656C32.2772 3.53151 31.4469 3.65046 30.7222 4.02347L30.7108 4.02998C30.157 4.28786 29.647 4.62934 29.1988 5.04235C29.2171 5.05834 29.2359 5.07546 29.2557 5.09281C29.444 5.25732 29.7016 5.48506 30.0044 5.75362C30.6101 6.29074 31.401 6.99647 32.1968 7.71C33.482 8.86227 34.7932 10.0538 35.3511 10.573C35.7295 10.1382 36.0332 9.64205 36.2463 9.10485C36.4955 8.47637 36.6171 7.80472 36.6044 7.12894C36.5308 6.6909 36.371 6.27163 36.1324 5.89685C35.8903 5.51676 35.5723 5.19005 35.1998 4.93656L35.1639 4.91215L35.1347 4.87797C34.6018 4.26157 33.8772 3.84162 33.0774 3.68656Z" fill="black"/>
    <path fill-rule="evenodd" clip-rule="evenodd" d="M12.5538 28.8773C12.4565 28.9745 12.4019 29.1064 12.4019 29.2439C12.4019 29.3815 12.4565 29.5134 12.5538 29.6106C12.651 29.7078 12.7829 29.7625 12.9204 29.7625C13.058 29.7625 13.1899 29.7078 13.2871 29.6106C26.1204 17.2939 21.4371 21.1939 30.9538 10.8939C31.5204 10.2273 30.6871 9.7606 30.0371 10.0439C18.7038 20.7773 17.2204 24.0106 12.5538 28.8773Z" fill="black"/>
    <path d="M29.9035 9.73815C30.3249 9.55447 30.8259 9.6006 31.1519 9.84557C31.3225 9.9739 31.4581 10.1696 31.4742 10.4185C31.49 10.6636 31.3857 10.9003 31.2072 11.1102L31.1991 11.12C21.711 21.3891 26.357 17.5288 13.5184 29.8504L13.5168 29.8488C13.3576 30.0058 13.1448 30.096 12.9211 30.0962C12.6952 30.0962 12.477 30.0053 12.3173 29.8456C12.158 29.6859 12.0682 29.4689 12.0682 29.2434C12.0684 29.0196 12.157 28.8052 12.314 28.646C14.6391 26.2212 16.1579 24.2186 18.5428 21.4439C20.9216 18.6763 24.1332 15.1756 29.8075 9.80162L29.8498 9.76093L29.9035 9.73815ZM30.9538 10.8939C31.5204 10.2273 30.6871 9.7606 30.0371 10.0439C18.7038 20.7773 17.2204 24.0106 12.5538 28.8773C12.4565 28.9745 12.4019 29.1064 12.4019 29.2439C12.4019 29.3815 12.4565 29.5134 12.5538 29.6106C12.651 29.7078 12.7829 29.7625 12.9204 29.7625C13.058 29.7625 13.1899 29.7078 13.2871 29.6106C26.1204 17.2939 21.4371 21.1939 30.9538 10.8939Z" fill="black"/>
</svg>