<svg xmlns="http://www.w3.org/2000/svg" width="24" height="24" viewBox="0 0 24 24" fill="none">
    <path fill-rule="evenodd" clip-rule="evenodd" d="M11.5409 1.41866C12.506 1.36616 13.4705 1.53201 14.3627 1.90394H14.3601C14.4555 1.94055 14.5325 2.01369 14.5741 2.10706C14.6158 2.20043 14.6185 2.30653 14.5819 2.40198C14.5453 2.49742 14.4723 2.57435 14.3789 2.61596C14.2856 2.65756 14.1795 2.66043 14.0841 2.62383C13.1936 2.28087 12.2288 2.17734 11.2859 2.32372C10.343 2.4701 9.455 2.86125 8.71046 3.45803C7.96592 4.05481 7.39091 4.83635 7.0428 5.72478C6.69468 6.6132 6.58563 7.57732 6.72655 8.52104C6.91931 9.83777 7.60423 11.0324 8.64315 11.864C9.68206 12.6956 10.9977 13.1024 12.3246 13.0021C13.158 13.0642 13.9948 12.9414 14.7752 12.6427C15.5556 12.3439 16.2604 11.8764 16.8392 11.2737C17.7426 10.0969 18.1652 8.62083 18.0215 7.14425C17.8779 5.66767 17.1786 4.30082 16.0653 3.32026C16.0241 3.28638 15.9901 3.24481 15.965 3.19776C15.9399 3.15071 15.9244 3.09919 15.9192 3.04613C15.9141 2.99307 15.9195 2.93951 15.935 2.88851C15.9505 2.83752 15.976 2.79001 16.0098 2.74885C16.0437 2.70769 16.0854 2.67361 16.1324 2.64855C16.1795 2.62349 16.231 2.60788 16.2841 2.60273C16.3371 2.59758 16.3907 2.60293 16.4417 2.61848C16.4927 2.63402 16.5401 2.65955 16.5813 2.69343C17.7273 3.50892 18.572 4.68005 18.9841 6.02489C19.3963 7.36972 19.3528 8.81297 18.8605 10.1306C18.3681 11.4482 17.4545 12.5663 16.2614 13.3114C15.9958 13.4772 15.7197 13.6226 15.4354 13.7467C15.751 13.8389 16.0636 13.9438 16.3723 14.0615C18.46 14.8575 20.292 16.2063 21.6722 17.9634C22.361 18.825 24.546 22.3283 23.478 22.6069C23.3743 22.6345 23.264 22.6199 23.1711 22.5662C23.0783 22.5125 23.0105 22.4242 22.9827 22.3206C22.1652 20.0756 20.6831 18.1328 18.7339 16.7511C16.7847 15.3694 14.4609 14.6143 12.0718 14.5863C9.68266 14.5582 7.34172 15.2587 5.36065 16.5943C3.37958 17.9299 1.8524 19.8374 0.982451 22.0626C0.945163 22.1584 0.871345 22.2355 0.777246 22.2768C0.683147 22.3182 0.576465 22.3205 0.480677 22.2832C0.38489 22.2459 0.307823 22.1721 0.266458 22.078C0.225093 21.9839 0.222792 21.8773 0.260081 21.7815C0.947859 19.6556 2.20078 17.7568 3.88473 16.2882C5.37306 14.9903 7.14859 14.0716 9.0597 13.6049C8.31904 13.2416 7.65404 12.7384 7.10204 12.1218C6.45733 11.4016 5.9834 10.5453 5.71548 9.61663C5.44757 8.68794 5.39257 7.71073 5.55464 6.75785C5.7167 5.80497 6.09165 4.90095 6.65152 4.11305C7.21139 3.32515 7.94179 2.6737 8.78832 2.2072C9.63485 1.7407 10.5757 1.47116 11.5409 1.41866Z" fill="#2F4027"/>
    <path d="M11.5296 1.21874C12.5247 1.16461 13.5198 1.33622 14.4397 1.71972C14.5815 1.7762 14.695 1.88599 14.7571 2.02538C14.8205 2.16741 14.8244 2.32883 14.7688 2.47363C14.7132 2.61865 14.6021 2.73564 14.4602 2.79882C14.3539 2.84621 14.2365 2.86018 14.1233 2.84081L14.012 2.81054C13.1542 2.4802 12.2249 2.3805 11.3167 2.52148C10.4084 2.66249 9.5525 3.03934 8.83525 3.61425C8.11812 4.18913 7.56411 4.94209 7.2288 5.79785C6.89353 6.65356 6.78844 7.58224 6.92411 8.49121C7.10955 9.75779 7.76853 10.9081 8.76786 11.708C9.76726 12.508 11.0335 12.8992 12.3099 12.8027L12.3245 12.8018L12.3392 12.8027C13.1431 12.8626 13.9506 12.7441 14.7034 12.456C15.4548 12.1683 16.1329 11.7175 16.6907 11.1377C17.5558 10.0035 17.9606 8.58422 17.8226 7.16406C17.6839 5.73799 17.0081 4.41774 15.9329 3.4707C15.8739 3.42095 15.8246 3.35996 15.7884 3.29199C15.7696 3.25671 15.7549 3.21961 15.7435 3.18163L15.72 3.06542C15.7124 2.98622 15.7204 2.90597 15.7435 2.83007C15.7666 2.75401 15.8046 2.68325 15.8548 2.62206C15.9054 2.56061 15.9683 2.50903 16.0384 2.47167C16.1084 2.43441 16.1855 2.41101 16.2649 2.40331C16.344 2.39566 16.4242 2.40356 16.5003 2.42675C16.5721 2.44866 16.6379 2.48524 16.6966 2.53124L16.6976 2.53027C17.8793 3.3712 18.75 4.5791 19.1751 5.96581C19.6002 7.35263 19.5557 8.84145 19.0481 10.2002C18.5403 11.5591 17.5979 12.713 16.3675 13.4814C16.2392 13.5615 16.1077 13.6353 15.9749 13.706C16.132 13.7589 16.2883 13.8158 16.4436 13.875C18.5647 14.6838 20.426 16.0539 21.8284 17.8389L21.9778 18.0342C22.361 18.5564 22.9717 19.5145 23.4134 20.416C23.6647 20.9291 23.8703 21.4413 23.9407 21.8516C23.9756 22.055 23.9813 22.2562 23.9251 22.4258C23.8642 22.6093 23.7324 22.7476 23.5286 22.8008L23.5276 22.7998C23.3733 22.8404 23.2089 22.8192 23.0706 22.7393C22.9371 22.6619 22.8393 22.5362 22.7952 22.3887L22.636 21.9785C21.8068 19.9456 20.4146 18.1873 18.6185 16.9141C16.7025 15.5559 14.418 14.8137 12.0696 14.7861C9.72114 14.7585 7.41934 15.4469 5.47197 16.7598C3.52489 18.0725 2.0244 19.9478 1.16923 22.1348C1.12681 22.2437 1.05278 22.3372 0.958294 22.4033L0.857708 22.46C0.715189 22.5226 0.553595 22.5261 0.408489 22.4697C0.263316 22.4132 0.146017 22.3009 0.083294 22.1582C0.0221955 22.019 0.0182622 21.8621 0.0705987 21.7197C0.769549 19.5595 2.04212 17.63 3.75322 16.1377C5.13805 14.93 6.7678 14.0458 8.52372 13.541C7.93903 13.1961 7.4087 12.7634 6.95341 12.2549C6.28863 11.5123 5.79998 10.6294 5.52372 9.67187C5.24752 8.71438 5.19065 7.70704 5.35771 6.7246C5.52481 5.74206 5.91128 4.80948 6.48857 3.99706C7.06582 3.18475 7.81893 2.51321 8.69169 2.03222C9.56444 1.55127 10.5345 1.27293 11.5296 1.21874ZM11.5409 1.41866C10.5757 1.47116 9.63485 1.7407 8.78832 2.2072C7.94179 2.6737 7.21139 3.32515 6.65152 4.11305C6.09165 4.90095 5.7167 5.80497 5.55464 6.75785C5.39257 7.71073 5.44757 8.68794 5.71548 9.61663C5.9834 10.5453 6.45733 11.4016 7.10204 12.1218C7.65404 12.7384 8.31904 13.2416 9.0597 13.6049C7.14859 14.0716 5.37306 14.9903 3.88473 16.2882C2.20078 17.7568 0.947859 19.6556 0.260081 21.7815C0.222792 21.8773 0.225093 21.9839 0.266458 22.078C0.307823 22.1721 0.38489 22.2459 0.480677 22.2832C0.576465 22.3205 0.683147 22.3182 0.777246 22.2768C0.871345 22.2355 0.945163 22.1584 0.982451 22.0626C1.8524 19.8374 3.37958 17.9299 5.36065 16.5943C7.34172 15.2587 9.68266 14.5582 12.0718 14.5863C14.4609 14.6143 16.7847 15.3694 18.7339 16.7511C20.6831 18.1328 22.1652 20.0756 22.9827 22.3206C23.0105 22.4242 23.0783 22.5125 23.1711 22.5662C23.264 22.6199 23.3743 22.6345 23.478 22.6069C24.546 22.3283 22.361 18.825 21.6722 17.9634C20.292 16.2063 18.46 14.8575 16.3723 14.0615C16.0636 13.9438 15.751 13.8389 15.4354 13.7467C15.7197 13.6226 15.9958 13.4772 16.2614 13.3114C17.4545 12.5663 18.3681 11.4482 18.8605 10.1306C19.3528 8.81297 19.3963 7.36972 18.9841 6.02489C18.572 4.68005 17.7273 3.50892 16.5813 2.69343C16.5401 2.65955 16.4927 2.63402 16.4417 2.61848C16.3907 2.60293 16.3371 2.59758 16.2841 2.60273C16.231 2.60788 16.1795 2.62349 16.1324 2.64855C16.0854 2.67361 16.0437 2.70769 16.0098 2.74885C15.976 2.79001 15.9505 2.83752 15.935 2.88851C15.9195 2.93951 15.9141 2.99307 15.9192 3.04613C15.9244 3.09919 15.9399 3.15071 15.965 3.19776C15.9901 3.24481 16.0241 3.28638 16.0653 3.32026C17.1786 4.30082 17.8779 5.66767 18.0215 7.14425C18.1652 8.62083 17.7426 10.0969 16.8392 11.2737C16.2604 11.8764 15.5556 12.3439 14.7752 12.6427C13.9948 12.9414 13.158 13.0642 12.3246 13.0021C10.9977 13.1024 9.68206 12.6956 8.64315 11.864C7.60423 11.0324 6.91931 9.83777 6.72655 8.52104C6.58563 7.57732 6.69468 6.6132 7.0428 5.72478C7.39091 4.83635 7.96592 4.05481 8.71046 3.45803C9.455 2.86125 10.343 2.4701 11.2859 2.32372C12.2288 2.17734 13.1936 2.28087 14.0841 2.62383C14.1795 2.66043 14.2856 2.65756 14.3789 2.61596C14.4723 2.57435 14.5453 2.49742 14.5819 2.40198C14.6185 2.30653 14.6158 2.20043 14.5741 2.10706C14.5325 2.01369 14.4555 1.94055 14.3601 1.90394H14.3627C13.4705 1.53201 12.506 1.36616 11.5409 1.41866Z" fill="#2F4027"/>
</svg>