<svg xmlns="http://www.w3.org/2000/svg" width="537" height="60" viewBox="0 0 537 60" fill="none" preserveAspectRatio="none">
    <path d="M4.23557 13.1927C-0.401801 18.9698 0.486099 26.9008 3.78342 35.8411C5.86856 41.4946 8.4022 45.692 12.4963 48.844C16.5998 52.0032 22.3229 54.1522 30.8625 55.6018C47.9625 58.5046 76.1078 58.5677 124.533 58.5676C154.868 58.5677 318.07 59.2206 421.054 56.7971C460.274 55.8742 486.538 55.2042 503.66 53.9729C512.223 53.3572 518.477 52.6023 522.912 51.6116C527.374 50.615 529.888 49.4006 531.1 47.9524C536.699 41.2606 537.177 32.1651 534.357 24.0237C531.534 15.8764 525.445 8.79907 518.079 6.15845C516.735 5.6766 514.263 5.22632 510.725 4.8147C507.202 4.40484 502.666 4.03783 497.222 3.71119C486.335 3.05793 471.84 2.56586 454.613 2.20435C420.158 1.48137 374.787 1.28156 325.513 1.36256C226.966 1.52456 112.825 2.80854 39.1887 3.26687C19.3022 3.54547 8.89962 7.38261 4.23557 13.1927Z" stroke="#3F593F"/>
</svg>