<svg xmlns="http://www.w3.org/2000/svg" width="24" height="24" viewBox="0 0 24 24" fill="none">
    <path d="M22.6058 14.5814C22.0981 10.8003 21.4919 10.0106 20.5607 6.31099C20.5489 6.26766 20.5287 6.22707 20.5012 6.19156C20.4737 6.15604 20.4394 6.12629 20.4004 6.10401C20.3614 6.08172 20.3184 6.06734 20.2739 6.06167C20.2293 6.05601 20.1841 6.05917 20.1407 6.07099C20.0974 6.08281 20.0568 6.10305 20.0213 6.13055C19.9858 6.15806 19.956 6.19229 19.9338 6.23129C19.9115 6.27029 19.8971 6.3133 19.8914 6.35786C19.8858 6.40242 19.8889 6.44766 19.9007 6.49099C20.7516 10.1813 21.149 10.961 21.5705 14.7246C21.7605 16.1046 22.0017 20.6485 21.2651 21.4046C20.5285 22.1607 12.28 22.0403 12.28 22.0403C8.00997 22.1003 5.33046 21.7446 3.80046 21.4046C2.27046 21.0646 2.25698 20.5013 2.24698 19.1013C2.24698 18.2113 2.38146 16.7077 2.55146 15.4877C2.84146 13.7877 3.01595 12.0326 3.33595 10.3326C3.62595 8.83256 3.78876 7.57402 4.15876 6.10402C4.17383 6.02882 4.15953 5.95071 4.11879 5.88573C4.07805 5.82075 4.01398 5.77383 3.93972 5.75463C3.86547 5.73543 3.78669 5.74539 3.71955 5.78248C3.65242 5.81956 3.60204 5.88094 3.57876 5.95402C3.15876 7.43402 2.88146 8.40032 2.55146 9.94032C2.18146 11.6503 1.97227 12.8714 1.69227 14.5814C1.30395 16.761 1.23169 17.5046 1.10046 19.7146C1.06885 20.303 1.24035 20.8843 1.58625 21.3613C1.93214 21.8382 2.43142 22.1819 3.00046 22.3346C4.87046 22.9746 8.50319 23.0662 12.0374 23.0662C15.9629 23.0662 21.5705 23.5421 22.4805 21.8413C23.3905 20.1404 22.8658 16.2114 22.6058 14.5814Z" fill="#2F4027"/>
    <path d="M3.98933 5.56148C4.11299 5.59346 4.22026 5.67108 4.28816 5.77925C4.35606 5.88756 4.37968 6.01818 4.35457 6.14351L4.35261 6.15328C4.07638 7.25084 3.91806 8.22216 3.7325 9.27828L3.5323 10.3701C3.37335 11.2146 3.25077 12.0739 3.13093 12.9375C3.01126 13.7998 2.89475 14.6676 2.7491 15.5214L2.74812 15.5205C2.57907 16.7352 2.44734 18.2259 2.44734 19.1015C2.44986 19.4535 2.45228 19.7403 2.47761 19.9834C2.50286 20.2256 2.54903 20.4084 2.62898 20.5546C2.7816 20.8338 3.09288 21.0421 3.84382 21.2089C5.35528 21.5448 8.01905 21.9006 12.2774 21.8408L12.2833 21.8398L12.3067 21.8408C12.3222 21.841 12.3452 21.8414 12.3751 21.8418C12.4355 21.8424 12.5245 21.8428 12.6378 21.8437C12.8642 21.8455 13.1886 21.8479 13.5802 21.8476C14.3638 21.8471 15.4158 21.8377 16.4903 21.8056C17.5655 21.7735 18.6594 21.7181 19.5284 21.624C19.9635 21.5768 20.3375 21.5205 20.6221 21.4541C20.7645 21.4208 20.8799 21.386 20.9678 21.3505C21.0596 21.3136 21.105 21.2822 21.1221 21.2646C21.1817 21.2033 21.2466 21.0851 21.3067 20.8964C21.3656 20.7118 21.4141 20.4787 21.4522 20.208C21.5284 19.6669 21.5615 18.9951 21.5655 18.2978C21.5735 16.9027 21.4656 15.431 21.3721 14.7519L21.3712 14.747C20.9515 10.9996 20.5602 10.2403 19.7061 6.53609C19.6893 6.47006 19.6849 6.40063 19.6934 6.33297C19.7024 6.26235 19.7245 6.1936 19.7598 6.13179C19.7951 6.07014 19.8424 6.01614 19.8985 5.97261C19.9548 5.92905 20.0193 5.89662 20.088 5.87789C20.1566 5.85918 20.2284 5.8543 20.2989 5.86324C20.3695 5.87222 20.4383 5.8953 20.5001 5.93062C20.5617 5.96591 20.6158 6.01313 20.6593 6.06929C20.681 6.09742 20.7001 6.12745 20.7159 6.15914L20.754 6.25875L20.755 6.26265C21.6762 9.92257 22.2938 10.7617 22.8028 14.5498C22.9333 15.3677 23.1314 16.767 23.1817 18.1777C23.2069 18.883 23.1955 19.5956 23.1192 20.2421C23.0432 20.886 22.9008 21.4786 22.6563 21.9355C22.3878 22.4372 21.7958 22.7456 21.0694 22.9433C20.3333 23.1436 19.4073 23.2439 18.3995 23.291C16.3885 23.3848 13.9833 23.2666 12.0372 23.2666C10.2693 23.2666 8.47231 23.2429 6.88191 23.1396C5.30282 23.037 3.90978 22.8539 2.94832 22.5273C2.33516 22.3626 1.79663 21.9925 1.4239 21.4785C1.05129 20.9645 0.866446 20.338 0.900465 19.7041C1.03206 17.4879 1.10534 16.735 1.49519 14.5468C1.77516 12.8371 1.98469 11.6124 2.35554 9.8984L2.59773 8.82906C2.83574 7.83363 3.07181 7.00932 3.38679 5.89937L3.38777 5.89351C3.42657 5.77172 3.51123 5.66918 3.62312 5.60738C3.73486 5.54574 3.86577 5.52962 3.98933 5.56148ZM3.93972 5.75463C3.86547 5.73543 3.78669 5.74539 3.71955 5.78248L3.67293 5.81441C3.62918 5.85075 3.59628 5.8991 3.57876 5.95402L3.28718 6.98433C3.0165 7.95278 2.79899 8.78522 2.55146 9.94032L2.30086 11.1464C2.07282 12.2913 1.90224 13.2991 1.69227 14.5814C1.30395 16.761 1.23169 17.5046 1.10046 19.7146L1.09773 19.9345C1.11407 20.4465 1.28359 20.9439 1.58625 21.3613C1.93214 21.8382 2.43142 22.1819 3.00046 22.3346C4.87046 22.9746 8.50319 23.0662 12.0374 23.0662C15.8405 23.0662 21.2226 23.5129 22.3819 21.9941L22.4805 21.8413C23.3905 20.1404 22.8658 16.2114 22.6058 14.5814C22.1298 11.0369 21.5673 10.1208 20.7315 6.97164L20.5607 6.31099C20.5489 6.26766 20.5287 6.22707 20.5012 6.19156C20.4874 6.17383 20.472 6.15717 20.4552 6.14254L20.4004 6.10401C20.3614 6.08172 20.3184 6.06734 20.2739 6.06167C20.2293 6.05601 20.1841 6.05917 20.1407 6.07099L20.0782 6.09468C20.0581 6.10467 20.0391 6.11678 20.0213 6.13055L19.9727 6.17672C19.9581 6.1936 19.9449 6.21177 19.9338 6.23129L19.9063 6.29293C19.8993 6.31401 19.8942 6.33571 19.8914 6.35786L19.8897 6.42476C19.8913 6.44711 19.8948 6.46928 19.9007 6.49099C20.7516 10.1813 21.149 10.961 21.5705 14.7246C21.7605 16.1046 22.0017 20.6485 21.2651 21.4046C20.5314 22.1578 12.344 22.0412 12.28 22.0403C8.54361 22.0928 6.02501 21.8272 4.42879 21.5322L3.80046 21.4046C2.27046 21.0646 2.25698 20.5013 2.24698 19.1013C2.24698 18.2113 2.38146 16.7077 2.55146 15.4877C2.80521 14.0003 2.971 12.4707 3.22273 10.9726L3.33595 10.3326C3.58969 9.02009 3.74638 7.89259 4.02937 6.64644L4.15876 6.10402C4.17007 6.04758 4.16515 5.98942 4.14461 5.93648L4.11879 5.88573C4.08825 5.83701 4.04447 5.79871 3.99324 5.77437L3.93972 5.75463Z" fill="#2F4027"/>
    <path fill-rule="evenodd" clip-rule="evenodd" d="M19.0004 4.61464C17.8504 4.61464 16.7004 4.55464 15.5604 4.53464C14.6204 -0.305362 7.46044 -0.465361 7.17044 4.75464C6.33044 4.75464 5.50044 4.84464 4.66044 4.86464C4.58902 4.87763 4.52441 4.91527 4.47789 4.97101C4.43138 5.02674 4.4059 5.09704 4.4059 5.16964C4.4059 5.24224 4.43138 5.31253 4.47789 5.36827C4.52441 5.42401 4.58902 5.46165 4.66044 5.47464C7.72065 5.72334 10.7938 5.77344 13.8604 5.62464C17.3304 5.46464 18.4804 5.33464 19.0204 5.32464C19.1146 5.32199 19.2038 5.28204 19.2685 5.21359C19.3332 5.14514 19.3681 5.05379 19.3654 4.95964C19.3628 4.86549 19.3228 4.77624 19.2544 4.71154C19.1859 4.64684 19.0946 4.61199 19.0004 4.61464ZM7.85044 4.69464C8.64044 1.03464 13.7204 1.23464 14.8504 4.52464C11.7004 4.48464 10.3604 4.55464 7.85044 4.69464Z" fill="#2F4027"/>
    <path d="M11.1207 0.67191C13.1046 0.664255 15.1756 1.91565 15.7223 4.3389C16.5323 4.35554 17.3344 4.38864 18.1403 4.40531L19.0006 4.41507C19.1457 4.4125 19.2866 4.46663 19.3922 4.56644C19.499 4.66755 19.5609 4.80713 19.5651 4.95414C19.5692 5.10122 19.5148 5.24366 19.4137 5.35062C19.3126 5.45762 19.1732 5.5203 19.026 5.52445H19.0241C18.7607 5.52933 18.3474 5.56402 17.5524 5.6182C17.1574 5.64511 16.6708 5.6761 16.0661 5.71097L13.8698 5.82425C10.7946 5.97346 7.71288 5.92325 4.64418 5.67386L4.63441 5.67289L4.62465 5.67093C4.50718 5.64955 4.40037 5.5878 4.32387 5.49613C4.24762 5.40458 4.20578 5.2891 4.2057 5.16996C4.2057 5.05061 4.24745 4.93447 4.32387 4.84281C4.40038 4.75112 4.50715 4.68938 4.62465 4.668L4.64027 4.66507H4.6559C5.0713 4.65518 5.48467 4.62768 5.90394 4.60257C6.26053 4.58122 6.62084 4.56394 6.98402 4.55863C7.09468 3.29685 7.6039 2.33804 8.33851 1.68753C9.10611 1.0079 10.1068 0.675861 11.1207 0.67191ZM15.5604 4.53464C14.6204 -0.305362 7.46044 -0.465361 7.17044 4.75464C6.33044 4.75464 5.50044 4.84464 4.66044 4.86464C4.58902 4.87763 4.52441 4.91527 4.47789 4.97101C4.43138 5.02674 4.4059 5.09704 4.4059 5.16964C4.4059 5.24224 4.43138 5.31253 4.47789 5.36827C4.52441 5.42401 4.58902 5.46165 4.66044 5.47464C7.72065 5.72334 10.7938 5.77344 13.8604 5.62464C17.3304 5.46464 18.4804 5.33464 19.0204 5.32464C19.1146 5.32199 19.2038 5.28204 19.2685 5.21359C19.3332 5.14514 19.3681 5.05379 19.3654 4.95964C19.3628 4.86549 19.3228 4.77624 19.2544 4.71154C19.1859 4.64684 19.0946 4.61199 19.0004 4.61464C17.8504 4.61464 16.7004 4.55464 15.5604 4.53464ZM7.85044 4.69464C8.64044 1.03464 13.7204 1.23464 14.8504 4.52464C11.7004 4.48464 10.3604 4.55464 7.85044 4.69464ZM11.2223 2.20316C9.86447 2.19984 8.55983 2.93268 8.11195 4.47953C10.3756 4.35386 11.7216 4.29052 14.5563 4.32132C13.9538 2.94221 12.5756 2.20652 11.2223 2.20316Z" fill="#2F4027"/>
</svg>