<svg xmlns="http://www.w3.org/2000/svg" width="30" height="19" viewBox="0 0 30 19" fill="none">
    <path d="M29.4791 14.8231C29.3146 12.589 26.2993 11.7803 24.586 11.2047C23.9281 10.9854 23.2702 10.7798 22.5986 10.6016C23.188 10.2315 23.7773 9.84775 24.353 9.45027C26.2308 8.12077 28.4374 6.46231 28.8349 4.03631C29.0953 2.51492 28.5334 0.842773 26.8064 0.596061C25.5591 0.417881 24.257 0.637172 23.0509 0.952415C20.8853 1.50066 18.8979 2.6794 17.1435 4.02261C16.0607 4.84498 15.0602 5.7633 14.0459 6.66791C13.9363 6.76385 13.8266 6.8735 13.717 6.98315C13.717 6.98315 13.717 6.96944 13.717 6.95574C13.4566 6.10595 13.2373 5.24247 12.8946 4.42009C12.1819 2.67941 10.9346 0.96612 8.98835 0.554934C7.38472 0.225985 5.41102 0.95242 4.76683 2.54234C3.94446 4.57086 5.49327 6.38007 6.83648 7.70957C7.22026 8.07964 7.61773 8.43601 8.02892 8.76496C5.91816 8.76496 3.8211 8.87461 1.72405 9.01167C1.06616 9.05279 0.545331 9.68327 0.600156 10.3412C0.654981 11.0539 1.25806 11.4514 1.92966 11.4651C2.31343 11.4651 2.6972 11.4651 3.08098 11.4651C3.03986 11.5336 2.99874 11.5884 2.95762 11.657C2.49161 12.493 2.4916 13.5347 2.79314 14.4256C3.1495 15.481 3.94447 16.2623 4.86279 16.8516C6.78165 18.0715 9.13912 18.3456 11.3458 18.5649C13.5388 18.7842 15.7592 18.935 17.9659 18.9076C20.0904 18.8938 22.2148 18.7157 24.2845 18.2771C25.381 18.0441 26.4775 17.7836 27.5191 17.3999C28.643 16.975 29.5751 16.1115 29.4791 14.8094V14.8231ZM26.9983 14.7957C26.9983 14.7957 26.9572 14.8368 26.9435 14.8505C26.9572 14.8368 26.9846 14.8094 26.9983 14.7957ZM24.3941 5.37952C24.3393 5.42064 24.2434 5.51659 24.3941 5.37952ZM26.3541 3.69366C26.3541 3.69366 26.3678 3.69366 26.3815 3.69366C26.3815 3.69366 26.3678 3.69366 26.3541 3.69366ZM25.7373 3.10429C25.7373 3.10429 25.7236 3.07688 25.7099 3.07688C25.6688 2.98094 25.7099 2.99464 25.7373 3.10429ZM16.1567 8.77866C16.8831 8.14817 17.6233 7.5314 18.3771 6.94203C19.1309 6.35266 19.9122 5.79071 20.7346 5.28358C20.9265 5.16022 21.132 5.05058 21.3376 4.94093C21.365 4.92722 21.4884 4.85869 21.5295 4.84498C21.5981 4.81757 21.6529 4.77645 21.7214 4.74904C22.1326 4.55715 22.5438 4.37897 22.9687 4.2282C23.3661 4.09113 23.7773 3.96779 24.1885 3.87184C24.1885 3.87184 24.5175 3.81701 24.5997 3.80331C24.8464 3.76219 25.0931 3.73478 25.3399 3.72107C25.4495 3.72107 25.5729 3.70736 25.6825 3.70736C25.6551 3.7896 25.614 3.87184 25.5729 3.95408C25.518 4.06373 25.4632 4.17337 25.3947 4.28302C25.3947 4.28302 25.3673 4.32414 25.3536 4.33785C25.0794 4.69421 24.7779 5.03686 24.4489 5.35211C24.4352 5.36581 24.4215 5.37953 24.4078 5.39323C24.3119 5.47547 24.2159 5.55771 24.12 5.63994C23.9418 5.79071 23.7499 5.92777 23.5717 6.06483C23.188 6.35266 22.8042 6.62679 22.4204 6.90091C21.5569 7.50399 20.6523 8.05224 19.734 8.57307C19.4873 8.71013 19.2269 8.84719 18.9665 8.98425C18.9665 8.98425 18.939 8.98425 18.939 8.99796C18.939 8.99796 18.9391 8.99796 18.9116 8.99796C18.6923 9.10761 18.473 9.20355 18.2675 9.32691C18.1441 9.39544 18.007 9.47768 17.8837 9.54621C17.8151 9.54621 17.7603 9.51879 17.6918 9.51879C17.0202 9.40914 16.3349 9.3132 15.6496 9.23096C15.677 9.20355 15.6907 9.18985 15.7181 9.16244C15.7455 9.13503 15.8003 9.0939 15.8003 9.08019C15.9237 8.97054 16.047 8.87461 16.1704 8.76496L16.1567 8.77866ZM6.75423 3.81702C6.75423 3.81702 6.78166 3.67995 6.79537 3.61142C6.79537 3.59772 6.80906 3.5703 6.82276 3.54289C6.82276 3.51547 6.86389 3.47436 6.8776 3.46065C6.8776 3.44695 6.90501 3.43324 6.91872 3.41954C6.91872 3.41954 6.95984 3.37841 6.98725 3.351C7.01466 3.32359 7.05578 3.29618 7.06949 3.28248C7.06949 3.28248 7.12431 3.25506 7.15172 3.22765C7.20654 3.20024 7.30249 3.15911 7.30249 3.15911C7.37102 3.1317 7.63143 3.07688 7.57661 3.07688C7.68626 3.07688 7.7822 3.04947 7.89184 3.04947C7.90555 3.04947 7.96038 3.04947 8.0015 3.04947C8.04262 3.04947 8.08374 3.04947 8.09745 3.04947C8.23451 3.06318 8.37158 3.09059 8.50864 3.13171C8.39899 3.10429 8.6868 3.21395 8.76904 3.24136C8.76904 3.24136 8.79647 3.25506 8.82388 3.26877C8.865 3.29618 8.94722 3.351 8.96093 3.36471C9.09799 3.47436 9.23506 3.59772 9.35842 3.72107C9.35842 3.72107 9.35841 3.72108 9.37212 3.73478C9.45435 3.83073 9.52289 3.92667 9.59142 4.02261C9.68736 4.14597 9.76961 4.28303 9.85184 4.42009C9.85184 4.42009 9.90666 4.51603 9.93408 4.57085C9.96149 4.62568 10.0026 4.70791 10.0026 4.72162C10.1671 5.07798 10.3041 5.43434 10.4275 5.80441C10.7564 6.83238 10.9895 7.87406 11.3321 8.87461C11.058 8.8609 10.7976 8.84719 10.5234 8.83348C9.93407 8.34006 9.39954 7.76441 8.86499 7.20245C8.33045 6.6405 7.82332 6.05112 7.38472 5.40693C7.05577 4.92721 6.69941 4.26932 6.74053 3.81702H6.75423ZM4.12264 13.1784C3.98558 12.3971 4.28712 11.8489 4.79425 11.4651C6.31564 11.4651 7.85073 11.5062 9.37212 11.5473C9.24876 12.4382 9.09801 13.3154 8.89241 14.1926C8.76906 14.7546 8.59087 15.3988 8.52234 16.0155C8.50863 16.0155 8.49492 16.0155 8.4675 16.0155C6.85017 15.7003 4.4653 15.0835 4.10894 13.1646L4.12264 13.1784ZM10.8798 16.3582C10.8798 16.1389 10.8798 15.9196 10.8661 15.7003C10.8524 15.2343 10.8387 14.7683 10.7976 14.3023C10.729 13.3977 10.6879 12.5205 10.6879 11.6159C11.4555 11.657 12.223 11.6981 12.9769 11.7529C12.9357 11.9311 12.8946 12.1093 12.8672 12.2737C12.7301 12.9179 12.6342 13.5621 12.5931 14.22C12.552 14.9053 12.5383 15.5906 12.5931 16.276C12.5931 16.3445 12.5931 16.413 12.6068 16.4815C12.0311 16.4541 11.4555 16.413 10.8798 16.3582ZM15.4166 16.5912C15.348 16.3308 15.2521 16.0567 15.1698 15.7962C15.0054 15.2617 14.8957 14.7272 14.8272 14.1789C14.7586 13.6032 14.7175 13.0276 14.7175 12.4519C14.7175 12.2737 14.7312 12.0956 14.7449 11.9174C15.3069 11.9722 15.8689 12.0407 16.4308 12.1093C16.7872 12.6986 17.4862 12.9453 18.1578 12.726C18.3908 12.6575 18.6101 12.5753 18.8431 12.493C18.9528 12.5205 19.0761 12.5342 19.1858 12.5616C19.0213 13.7951 18.9253 15.0424 18.8568 16.2897C18.8568 16.3719 18.8568 16.4541 18.8568 16.5364C17.7055 16.6049 16.5542 16.6186 15.4166 16.5912ZM25.3399 15.4536C23.8596 15.9059 22.3656 16.1937 20.8305 16.3719C20.7071 15.2069 20.6797 14.0555 20.7346 12.8905C22.5438 13.3154 24.3119 13.85 25.9977 14.5627C26.1622 14.6312 26.313 14.6997 26.4638 14.782C26.4638 14.782 26.5186 14.8094 26.546 14.8368C26.6008 14.8779 26.7105 14.9602 26.7105 14.9602C26.6694 14.9739 26.6282 15.0013 26.6419 14.9876C26.217 15.1658 25.7647 15.3028 25.3261 15.4399L25.3399 15.4536Z" fill="#FF5500"/>
</svg>