<svg xmlns="http://www.w3.org/2000/svg" width="40" height="40" viewBox="0 0 40 40" fill="none">
    <path fill-rule="evenodd" clip-rule="evenodd" d="M17.3998 37.8342C16.265 34.1336 16.1687 31.5671 16.0206 27.735C15.9055 24.6101 15.1818 20.8766 12.8135 18.7221C12.6655 18.9359 12.4517 19.1003 12.1885 19.1332C12.4352 19.2977 12.5997 19.5773 12.5832 19.972C12.5175 22.0772 10.8728 23.7713 8.73467 23.9193C8.40573 23.9357 8.07678 23.9193 7.76429 23.8699C7.76429 23.8699 7.07353 23.7713 6.54722 23.5081C5.21502 22.8996 4.16243 21.6661 3.50455 20.3339C3.20851 19.7418 3.45521 19.051 4.11308 18.8536C5.29726 18.4754 6.46499 18.0971 7.64916 17.7352C5.08345 16.6169 2.86311 14.9557 1.92564 12.0446C1.76117 11.5183 2.123 10.9591 2.63286 10.7946C4.44202 10.2355 5.95513 11.6663 7.35312 12.6531C7.96165 13.0972 8.57019 13.5577 9.16228 14.0182C7.48469 10.8275 6.21829 7.43948 6.38276 3.75537C6.41565 2.86724 7.76429 2.32449 8.20835 3.26196C9.98462 7.09409 11.3662 11.0578 12.353 15.1366C12.501 13.9525 12.7477 12.7683 13.0931 11.5841C13.3727 10.5973 13.7345 8.17959 15.0503 7.91644C18.2574 7.29145 16.1851 14.1498 15.6259 15.3011C15.2312 16.107 14.5075 17.5214 13.603 18.1958C18.5699 21.6825 17.2189 30.0548 18.3373 35.2191C19.4557 40.3834 18.5347 41.5347 17.3998 37.8342ZM4.73807 13.2123C5.48739 13.6524 6.2797 14.2989 6.86 14.7724C6.90162 14.8064 6.94226 14.8395 6.9816 14.8716C7.15221 15.0105 7.30053 15.1301 7.41891 15.2189H7.40246C7.54226 15.3258 7.67794 15.4327 7.81363 15.5396C7.94932 15.6465 8.085 15.7534 8.2248 15.8603C6.84326 15.2353 5.59331 14.413 4.73807 13.2123ZM10.7986 18.8728L10.807 18.8701H10.7905L10.7986 18.8728C9.17315 19.3981 7.54767 19.9071 5.9058 20.4325C6.33342 21.0082 6.87615 21.4851 7.56692 21.7154C8.83334 22.1101 10.3958 21.518 10.4122 20.0049C10.4122 19.4457 10.7905 19.1168 11.2181 19.0016C11.0728 18.9694 10.9434 18.9212 10.7986 18.8728ZM13.6852 13.8373C13.7351 13.6669 13.7903 13.4612 13.8517 13.2329C14.1334 12.1834 14.544 10.6542 15.1654 9.85717C15.4614 11.1729 13.899 14.6597 13.603 15.1531C13.4714 15.3669 13.3069 15.5807 13.1424 15.7781C13.159 15.7177 13.1755 15.6574 13.1919 15.5973C13.2232 15.4823 13.2541 15.3678 13.2849 15.2537C13.4136 14.7772 13.5406 14.3073 13.6852 13.8373Z" fill="#FF5500"/>
    <path fill-rule="evenodd" clip-rule="evenodd" d="M10.7986 18.8728L10.807 18.8701H10.7905L10.7986 18.8728Z" fill="#FF5500"/>
    <path d="M22.6679 39.1823C21.3012 28.1656 22.5179 20.7331 26.4679 10.3665C27.5845 7.44979 28.8679 4.54979 30.4679 1.86646L28.6179 1.36646C28.5512 3.34979 28.4845 5.29979 28.2679 7.28313C28.0512 9.26646 27.7512 11.1498 27.4179 13.0665C26.7179 16.9998 25.8179 20.8998 25.0845 24.8331C24.6679 27.0998 24.3679 29.3498 24.7679 31.6331C24.9179 32.4998 26.0679 32.6498 26.6179 32.1165C28.9179 29.9331 29.6679 26.6831 30.9679 23.8998C32.4012 20.8331 34.1512 17.9331 36.2012 15.2498L34.0679 14.9665C34.4345 16.2831 34.3512 17.6331 34.2512 18.9665C34.1512 20.2998 34.1179 21.6998 34.2512 23.0665C34.5012 25.8165 35.1345 28.6665 36.5679 31.0498C37.1845 32.0831 39.0179 31.3998 38.5679 30.1998C37.6512 27.7165 36.7845 25.2498 36.6012 22.5998C36.4179 19.9498 37.1012 17.0331 36.3345 14.3498C36.0345 13.2998 34.7845 13.2998 34.2012 14.0665C32.2179 16.7165 30.5012 19.5665 29.1012 22.5831C28.4345 24.0331 27.8679 25.5165 27.2679 26.9831C26.7345 28.2831 26.0845 29.5665 25.0679 30.5498L26.9179 31.0331C26.5845 29.1998 26.8512 27.3165 27.1845 25.4998C27.5345 23.5498 27.9345 21.5998 28.3179 19.6665C29.0845 15.7831 29.8345 11.8998 30.2845 7.96646C30.5345 5.78313 30.7179 3.54979 30.6345 1.34979C30.6012 0.433127 29.2512 -0.0835419 28.7845 0.849791C27.5012 3.43312 26.2512 5.99979 25.2179 8.68313C24.1845 11.3665 23.3345 14.0665 22.6679 16.8331C21.3179 22.3165 20.7959 25.3998 20.8626 31.0498C20.8959 34.2498 21.2345 36.1323 21.7345 39.2989C21.8179 39.8323 22.7679 39.7156 22.7012 39.1656L22.6679 39.1823Z" fill="#FF5500"/>
</svg>