<svg xmlns="http://www.w3.org/2000/svg" width="32" height="40" viewBox="0 0 32 40" fill="none">
    <path fill-rule="evenodd" clip-rule="evenodd" d="M24.9181 32.3854C25.5878 31.9897 22.78 26.4495 20.4134 23.2542C16.9702 18.6052 16.312 16.5153 13.7172 13.5446C11.7996 11.1401 10.9169 9.16163 9.69941 10.5009C9.02978 11.1096 10.599 13.4352 11.6864 15.0326C14.1181 18.6052 15.392 20.3301 17.9609 24.3394C19.9853 26.9349 23.305 33.4203 24.9181 32.3854Z" fill="#2F4027"/>
    <path fill-rule="evenodd" clip-rule="evenodd" d="M31.3407 29.0679C30.72 27.2938 29.914 25.5901 28.9362 23.9849C28.3947 22.7507 27.5549 21.6706 26.4923 20.8417C25.4296 20.0129 24.1775 19.4613 22.8487 19.2366C22.702 19.2008 22.5493 19.1966 22.4008 19.2243C22.2524 19.2519 22.1115 19.3109 21.9875 19.3971C21.8635 19.4834 21.7593 19.595 21.6818 19.7246C21.6043 19.8542 21.5552 19.9988 21.5378 20.1489C21.5204 20.2989 21.5351 20.4509 21.5809 20.5948C21.6267 20.7387 21.7026 20.8712 21.8036 20.9835C21.9045 21.0959 22.0282 21.1855 22.1664 21.2464C22.3046 21.3073 22.4541 21.3381 22.6052 21.3368C25.6489 21.7325 28.6101 27.6973 29.2492 30.2236C29.8884 32.7499 28.2361 37.1586 23.6096 37.1586C21.7529 37.1586 14.5088 31.4421 15.2089 26.6938L16.1524 25.7502C16.3058 25.5525 16.3743 25.3019 16.3429 25.0536C16.3115 24.8053 16.1828 24.5796 15.985 24.4262C15.7872 24.2728 15.5366 24.2043 15.2883 24.2357C15.04 24.2671 14.8144 24.3959 14.661 24.5936C14.2044 25.1719 13.5348 24.9589 13.2 26.2677C11.6477 32.3552 19.2875 39.8428 23.6096 39.995C24.8962 39.9282 26.151 39.5706 27.2795 38.949C28.408 38.3274 29.381 37.4581 30.1251 36.4063C30.8692 35.3546 31.3652 34.1478 31.5758 32.8768C31.7863 31.6057 31.706 30.3035 31.3407 29.0679Z" fill="#2F4027"/>
    <path fill-rule="evenodd" clip-rule="evenodd" d="M8.26871 18.3844C6.96475 17.1709 5.5575 15.923 4.51252 13.8873C3.13119 11.1964 2.3949 9.32874 3.13011 6.26631C3.40207 5.64844 3.74894 4.8372 4.24091 4.37494C4.73289 3.91269 5.43864 3.37704 6.07224 3.14406C6.70583 2.91107 7.59446 2.66031 8.26871 2.69373C8.94296 2.72715 10.5685 3.29988 11.1759 3.59438C13.2403 4.59691 14.7372 6.20155 16.1809 7.98542C17.6419 9.68992 17.7652 10.4402 17.3695 13.3013C17.1869 14.5493 19.074 15.0971 20.048 13.7579C21.9351 11.1403 16.7912 2.19165 10.4602 0.365402C9.1208 -0.0598995 7.6913 -0.115049 6.3231 0.205789C4.95491 0.526628 3.69895 1.21151 2.68823 2.18791C1.67752 3.16431 0.949677 4.39588 0.581791 5.75218C0.213904 7.10848 0.219667 8.53903 0.59847 9.89233C0.91127 11.9282 1.6269 13.8813 2.70351 15.6373C3.78012 17.3933 5.19609 18.917 6.86859 20.1193C7.96434 20.9107 10.095 21.976 11.3429 21.4281C11.769 21.002 12.9865 20.6063 12.4691 19.6019C11.5864 17.9887 11.2211 20.9716 8.26871 18.3844Z" fill="#2F4027"/>
</svg>