<svg xmlns="http://www.w3.org/2000/svg" viewBox="0 0 24 25" fill="none">
    <path fill-rule="evenodd" clip-rule="evenodd" d="M17.028 11.2624C16.5988 10.7065 16.0945 10.2129 15.5295 9.79573L11.0021 6.06539C10.5352 5.67527 10.0454 5.31329 9.53547 4.98136C9.32143 4.84238 9.0732 4.76516 8.81809 4.75818C8.67434 4.75818 8.53648 4.81528 8.43483 4.91693C8.33319 5.01858 8.27608 5.15644 8.27608 5.30019C8.27608 5.7625 8.27608 5.30019 10.1094 7.08566L14.1904 11.2624C14.3817 11.4537 14.6846 11.6928 14.9556 11.9797C15.2266 12.2667 15.386 12.3464 15.2426 12.3623C15.1389 12.5992 14.993 12.8152 14.8121 13C14.4933 13.3667 14.1267 13.7014 13.8875 13.9406C13.251 14.6431 12.5694 15.3035 11.847 15.9173C11.1424 16.5405 10.3968 17.1157 9.61518 17.639L7.36741 19.2332C7.10986 19.4 6.8833 19.6104 6.69786 19.8549C6.59761 19.9922 6.55336 20.1625 6.57409 20.3313C6.59481 20.5 6.67896 20.6546 6.80945 20.7636C7.31958 21.2737 7.03263 20.9071 10.4282 19.0419C11.3261 18.573 12.1892 18.0402 13.0107 17.4477C13.8347 16.8464 14.6226 16.1969 15.3701 15.5028C15.9063 15.017 16.3972 14.4834 16.8367 13.9087C17.1066 13.551 17.2919 13.1367 17.3788 12.6971C17.432 12.1926 17.308 11.6854 17.028 11.2624Z" fill="#3F593F"/>
</svg>