<svg xmlns="http://www.w3.org/2000/svg" width="192" height="98" viewBox="0 0 192 98" fill="none">
    <path d="M80.1005 9.96927C84.1788 7.36712 88.0515 5.3587 93.6267 3.65649C110.037 -1.35391 130.529 -0.718746 137.204 9.26521C142.289 16.8719 141.58 26.4153 139.157 34.8711C152.454 28.9703 168.79 30.3488 180.459 39.2631C199.03 53.4491 192.718 75.0274 174.024 85.2272C152.683 96.8699 109.136 98.5115 85.0537 96.4057C70.2293 95.1097 49.7464 92.8421 35.6407 88.8262C32.333 87.8861 29.1581 86.6163 25.9985 85.296C8.76632 78.0953 2.87848 71.6859 0.801961 61.2573C-1.27456 50.8287 5.73151 41.9956 15.4694 37.4312C22.9912 33.9056 31.3256 36.1629 33.7313 37.1253C36.1371 38.0877 38.4492 39.3471 40.6696 40.6747C43.8978 42.6056 47.5059 44.9483 49.8829 47.7751C50.8171 43.1552 53.3689 38.4652 55.8624 34.387C61.9017 24.5081 70.3549 16.1858 80.1005 9.96927Z" fill="#3F593F"/>
</svg>