<svg xmlns="http://www.w3.org/2000/svg" width="41" height="47" viewBox="0 0 41 47" fill="none">
    <path d="M25.8941 35.691C23.6141 33.071 21.1541 30.591 19.0741 27.791C16.9941 24.991 14.1141 21.051 15.0541 17.631C15.5941 15.691 17.1341 14.351 18.7941 13.271C19.5141 12.811 20.2741 12.411 21.0541 12.071C22.3341 11.511 23.8341 11.751 24.5141 13.291C25.2341 14.931 22.9741 18.131 22.2141 19.551C21.4541 20.971 20.7941 22.371 20.2941 23.911C19.8741 25.191 21.1541 26.171 22.3141 25.931C24.7341 25.431 27.1541 25.371 29.5741 25.891C31.3941 26.291 34.9541 27.171 35.9941 28.911C37.1141 30.791 36.2541 32.431 34.7341 33.531C33.8941 34.131 32.9541 34.611 31.9741 34.971C30.7341 35.411 27.4541 36.291 26.3341 35.331C24.7341 33.971 22.5541 36.091 24.0141 37.651C28.0941 42.031 39.9941 36.711 40.3741 31.071C40.6341 27.371 36.7341 24.991 33.7941 23.751C29.8341 22.091 25.6141 21.871 21.4541 22.751L23.4741 24.771C24.8341 20.511 30.3541 14.211 26.5941 9.65101C23.6541 6.09101 18.0141 9.65101 15.4141 11.891C5.97413 20.091 18.4141 31.451 25.2541 36.491C25.7541 36.871 26.2541 36.091 25.8941 35.671V35.691Z" fill="#FF5500"/>
    <path d="M10.6744 21.191C7.19439 18.331 2.45439 20.471 1.03439 24.611C-0.765606 29.891 8.15439 30.371 11.3144 30.171L10.2544 27.611C6.9344 31.551 3.6744 39.591 7.7744 44.151C12.3144 49.211 21.1944 44.051 23.5944 39.271C24.1544 38.151 22.8944 36.451 21.6944 37.371C20.2344 38.471 19.1344 39.911 17.6744 41.011C15.7144 42.491 11.5944 44.331 9.7744 41.551C7.5544 38.171 10.2144 32.391 12.3744 29.731C13.1144 28.831 12.7344 27.071 11.3144 27.171C10.2144 27.251 9.1544 27.311 8.0744 27.211C7.5544 27.171 4.3344 26.731 3.9144 26.131C3.2544 25.191 4.81439 23.571 5.31439 23.111C6.53439 21.971 8.2744 21.211 9.9144 22.211C10.5144 22.591 11.2544 21.671 10.6944 21.211L10.6744 21.191Z" fill="#FF5500"/>
    <path d="M10.0543 15.8719C10.3343 15.7119 9.7343 14.0919 9.6743 13.7519C9.5343 12.9719 9.43431 12.1919 9.43431 11.3919C9.41431 9.85186 7.0143 9.85186 7.0343 11.3919C7.0543 12.9319 7.43431 14.5919 8.33431 15.9319C8.89431 16.7519 9.9143 17.5519 10.6743 16.4919C10.9543 16.0919 10.4143 15.6719 10.0543 15.8719Z" fill="#FF5500"/>
    <path d="M7.89427 17.291C6.25427 16.291 4.67427 15.171 3.11427 14.051C2.09427 13.311 0.994267 15.111 2.11427 15.771C3.83427 16.791 5.59427 17.591 7.47427 18.311C8.07427 18.551 8.43427 17.611 7.91427 17.291H7.89427Z" fill="#FF5500"/>
    <path d="M24.8548 1.09036C31.1748 4.59036 33.9548 10.8904 34.0348 17.9104C34.0348 19.0104 35.8948 19.3704 36.0548 18.1904C37.1348 10.2504 32.3348 3.41036 25.0748 0.570361C24.7748 0.450361 24.5748 0.930361 24.8548 1.09036Z" fill="#FF5500"/>
    <path d="M35.9149 5.67086C36.1149 6.99086 36.7149 8.17086 37.0349 9.47086C37.3749 10.8709 37.5149 12.2909 37.4749 13.7109C37.4349 15.3109 39.9749 15.3109 39.9549 13.7109C39.9149 10.8709 39.0549 6.83086 36.3349 5.35086C36.0949 5.23086 35.8749 5.43086 35.9149 5.67086Z" fill="#FF5500"/>
</svg>