<svg xmlns="http://www.w3.org/2000/svg" width="286" height="146" viewBox="0 0 286 146" fill="none">
    <path opacity="0.5" d="M98.5743 373.375L285.988 146.595L285.989 146.597C280.932 126.715 261.552 95.2369 237.231 103.863C228.406 106.994 222.589 114.23 217.626 121.828C216.169 118.52 214.813 115.168 212.875 112.097C204.908 99.4648 190.887 89.7488 175.774 88.8204C167.445 88.3098 158.202 90.3186 152.2 96.5126C153.814 80.5202 152.598 64.152 146.545 49.1207C141.633 36.9239 132.192 22.4844 119.999 16.7179C103.911 9.10909 89.008 19.8771 81.3147 33.9662C75.1672 16.2568 60.5174 0.946785 39.7067 0.664068C-7.00134 0.0295326 -64.5592 116.093 -90.9406 216.758L98.5743 373.375Z" fill="#3F593F"/>
</svg>