<svg xmlns="http://www.w3.org/2000/svg" width="47" height="28" viewBox="0 0 47 28" fill="none">
    <path d="M46.8684 21.2686C46.6284 18.0086 42.2284 16.8286 39.7284 15.9886C38.7684 15.6686 37.8084 15.3686 36.8284 15.1086C37.6884 14.5686 38.5484 14.0086 39.3884 13.4286C42.1284 11.4886 45.3484 9.06859 45.9284 5.52859C46.3084 3.30859 45.4884 0.8686 42.9684 0.5086C41.1484 0.2486 39.2484 0.568589 37.4884 1.02859C34.3284 1.82859 31.4284 3.5486 28.8684 5.5086C27.2884 6.7086 25.8284 8.0486 24.3484 9.3686C24.1884 9.5086 24.0284 9.66859 23.8684 9.82859C23.8684 9.82859 23.8684 9.8086 23.8684 9.7886C23.4884 8.5486 23.1684 7.2886 22.6684 6.0886C21.6284 3.5486 19.8084 1.04859 16.9684 0.448587C14.6284 -0.0314132 11.7484 1.0286 10.8084 3.3486C9.60843 6.3086 11.8684 8.94859 13.8284 10.8886C14.3884 11.4286 14.9684 11.9486 15.5684 12.4286C12.4884 12.4286 9.42843 12.5886 6.36843 12.7886C5.40843 12.8486 4.64844 13.7686 4.72844 14.7286C4.80844 15.7686 5.68844 16.3486 6.66844 16.3686C7.22844 16.3686 7.78844 16.3686 8.34844 16.3686C8.28844 16.4686 8.22844 16.5486 8.16844 16.6486C7.48844 17.8686 7.48842 19.3886 7.92842 20.6886C8.44842 22.2286 9.60844 23.3686 10.9484 24.2286C13.7484 26.0086 17.1884 26.4086 20.4084 26.7286C23.6084 27.0486 26.8484 27.2686 30.0684 27.2286C33.1684 27.2086 36.2684 26.9486 39.2884 26.3086C40.8884 25.9686 42.4884 25.5886 44.0084 25.0286C45.6484 24.4086 47.0084 23.1486 46.8684 21.2486V21.2686ZM43.2484 21.2286C43.2484 21.2286 43.1884 21.2886 43.1684 21.3086C43.1884 21.2886 43.2284 21.2486 43.2484 21.2286ZM39.4484 7.4886C39.2284 7.6886 39.3684 7.5486 39.4484 7.4886V7.4886ZM42.3084 5.02859C42.3084 5.02859 42.3284 5.02859 42.3484 5.02859C42.3484 5.02859 42.3284 5.02859 42.3084 5.02859ZM41.4084 4.16859C41.4084 4.16859 41.3884 4.12859 41.3684 4.12859C41.3084 3.98859 41.3684 4.00859 41.4084 4.16859ZM27.4284 12.4486C28.4884 11.5286 29.5684 10.6286 30.6684 9.76859C31.7684 8.90859 32.9084 8.0886 34.1084 7.3486C34.3884 7.1686 34.6884 7.0086 34.9884 6.8486C35.0284 6.8286 35.2085 6.7286 35.2684 6.7086C35.3685 6.6686 35.4484 6.6086 35.5484 6.5686C36.1484 6.2886 36.7484 6.02859 37.3684 5.80859C37.9484 5.60859 38.5484 5.4286 39.1484 5.2886C39.1484 5.2886 39.6284 5.20859 39.7484 5.18859C40.1084 5.12859 40.4684 5.0886 40.8284 5.0686C40.9884 5.0686 41.1684 5.04859 41.3284 5.04859C41.2884 5.16859 41.2284 5.28859 41.1684 5.40859C41.0884 5.56859 41.0084 5.72859 40.9084 5.88859C40.9084 5.88859 40.8684 5.94859 40.8484 5.96859C40.4484 6.48859 40.0084 6.98859 39.5284 7.44859C39.5084 7.46859 39.4884 7.4886 39.4684 7.5086C39.3284 7.6286 39.1884 7.7486 39.0485 7.8686C38.7885 8.0886 38.5084 8.2886 38.2484 8.4886C37.6884 8.9086 37.1284 9.3086 36.5684 9.7086C35.3084 10.5886 33.9884 11.3886 32.6484 12.1486C32.2884 12.3486 31.9084 12.5486 31.5284 12.7486C31.5284 12.7486 31.4884 12.7486 31.4884 12.7686C31.4884 12.7686 31.4884 12.7686 31.4484 12.7686C31.1284 12.9286 30.8084 13.0686 30.5084 13.2486C30.3284 13.3486 30.1284 13.4686 29.9484 13.5686C29.8484 13.5686 29.7684 13.5286 29.6684 13.5286C28.6884 13.3686 27.6884 13.2286 26.6884 13.1086C26.7284 13.0686 26.7484 13.0486 26.7884 13.0086C26.8284 12.9686 26.9084 12.9086 26.9084 12.8886C27.0884 12.7286 27.2684 12.5886 27.4484 12.4286L27.4284 12.4486ZM13.7084 5.2086C13.7084 5.2086 13.7484 5.00859 13.7684 4.90859C13.7684 4.88859 13.7884 4.84859 13.8084 4.80859C13.8084 4.76859 13.8684 4.70859 13.8884 4.68859C13.8884 4.66859 13.9284 4.64859 13.9484 4.62859C13.9484 4.62859 14.0084 4.56859 14.0484 4.52859C14.0884 4.48859 14.1484 4.4486 14.1684 4.4286C14.1684 4.4286 14.2484 4.3886 14.2884 4.3486C14.3684 4.3086 14.5084 4.24859 14.5084 4.24859C14.6084 4.20859 14.9884 4.12859 14.9084 4.12859C15.0684 4.12859 15.2084 4.0886 15.3684 4.0886C15.3884 4.0886 15.4684 4.0886 15.5284 4.0886C15.5884 4.0886 15.6484 4.0886 15.6684 4.0886C15.8684 4.1086 16.0684 4.1486 16.2684 4.2086C16.1084 4.1686 16.5284 4.3286 16.6484 4.3686C16.6484 4.3686 16.6884 4.38859 16.7284 4.40859C16.7884 4.44859 16.9084 4.52859 16.9284 4.54859C17.1284 4.70859 17.3284 4.8886 17.5084 5.0686C17.5084 5.0686 17.5084 5.0686 17.5284 5.0886C17.6484 5.2286 17.7484 5.3686 17.8484 5.5086C17.9884 5.6886 18.1084 5.8886 18.2284 6.0886C18.2284 6.0886 18.3084 6.22859 18.3484 6.30859C18.3884 6.38859 18.4484 6.50859 18.4484 6.52859C18.6884 7.04859 18.8884 7.56859 19.0684 8.10859C19.5484 9.60859 19.8884 11.1286 20.3884 12.5886C19.9884 12.5686 19.6084 12.5486 19.2084 12.5286C18.3484 11.8086 17.5684 10.9686 16.7884 10.1486C16.0084 9.3286 15.2684 8.46859 14.6284 7.52859C14.1484 6.82859 13.6284 5.8686 13.6884 5.2086H13.7084ZM9.86843 18.8686C9.66843 17.7286 10.1084 16.9286 10.8484 16.3686C13.0684 16.3686 15.3084 16.4286 17.5284 16.4886C17.3484 17.7886 17.1284 19.0686 16.8284 20.3486C16.6484 21.1686 16.3884 22.1086 16.2884 23.0086C16.2684 23.0086 16.2484 23.0086 16.2084 23.0086C13.8484 22.5486 10.3684 21.6486 9.84844 18.8486L9.86843 18.8686ZM19.7284 23.5086C19.7284 23.1886 19.7284 22.8686 19.7084 22.5486C19.6884 21.8686 19.6684 21.1886 19.6084 20.5086C19.5084 19.1886 19.4484 17.9086 19.4484 16.5886C20.5684 16.6486 21.6884 16.7086 22.7884 16.7886C22.7284 17.0486 22.6684 17.3086 22.6284 17.5486C22.4284 18.4886 22.2884 19.4286 22.2284 20.3886C22.1684 21.3886 22.1484 22.3886 22.2284 23.3886C22.2284 23.4886 22.2284 23.5886 22.2484 23.6886C21.4084 23.6486 20.5684 23.5886 19.7284 23.5086ZM26.3484 23.8486C26.2484 23.4686 26.1084 23.0686 25.9884 22.6886C25.7484 21.9086 25.5884 21.1286 25.4884 20.3286C25.3884 19.4886 25.3284 18.6486 25.3284 17.8086C25.3284 17.5486 25.3484 17.2886 25.3684 17.0286C26.1884 17.1086 27.0084 17.2086 27.8284 17.3086C28.3484 18.1686 29.3684 18.5286 30.3484 18.2086C30.6884 18.1086 31.0084 17.9886 31.3484 17.8686C31.5084 17.9086 31.6884 17.9286 31.8484 17.9686C31.6084 19.7686 31.4684 21.5886 31.3684 23.4086C31.3684 23.5286 31.3684 23.6486 31.3684 23.7686C29.6884 23.8686 28.0084 23.8886 26.3484 23.8486ZM40.8284 22.1886C38.6684 22.8486 36.4884 23.2686 34.2484 23.5286C34.0684 21.8286 34.0284 20.1486 34.1084 18.4486C36.7484 19.0686 39.3284 19.8486 41.7884 20.8886C42.0284 20.9886 42.2484 21.0886 42.4684 21.2086C42.4684 21.2086 42.5484 21.2486 42.5884 21.2886C42.6684 21.3486 42.8284 21.4686 42.8284 21.4686C42.7684 21.4886 42.7084 21.5286 42.7284 21.5086C42.1084 21.7686 41.4484 21.9686 40.8084 22.1686L40.8284 22.1886Z" fill="#FF5500"/>
    <path d="M4.16926 14.6682C4.30926 14.4082 4.42924 14.1682 4.48924 13.8682C4.54924 13.5682 4.50924 13.2882 4.48924 13.0082L4.38926 12.5282C4.30926 12.2882 4.18926 12.0882 4.00926 11.9082C3.72926 11.6082 3.36926 11.3482 2.94926 11.2882C2.60926 11.2482 2.26926 11.2682 1.94926 11.3682C1.48926 11.5082 1.10924 11.9082 0.869244 12.3282C0.729244 12.5882 0.609267 12.8082 0.549267 13.1282C0.489267 13.4082 0.529267 13.7082 0.549267 13.9882C0.589267 14.1482 0.629243 14.3082 0.649243 14.4682C0.729243 14.7082 0.849248 14.9082 1.02925 15.0882C1.12925 15.2282 1.24926 15.3282 1.38926 15.4082C1.58926 15.5682 1.82925 15.6682 2.08925 15.7082C2.42925 15.7482 2.76925 15.7282 3.08925 15.6282C3.54925 15.4882 3.94926 15.0882 4.16926 14.6682Z" fill="#FF5500"/>
    <path d="M5.66931 18.4485C5.66931 18.4485 5.5693 18.3085 5.4693 18.2285C5.3093 18.0285 5.10929 17.8685 4.86929 17.7685C4.70929 17.6885 4.5293 17.6485 4.3493 17.6085C4.0893 17.5485 3.82931 17.5485 3.56931 17.6285C3.30931 17.6685 3.08929 17.7485 2.86929 17.9085C2.64929 18.0485 2.4693 18.2285 2.3493 18.4485C2.1893 18.6485 2.08932 18.8885 2.04932 19.1685C2.04932 19.3485 2.0493 19.5285 2.0293 19.6885C2.0693 20.0285 2.16929 20.3485 2.36929 20.6285C2.48929 20.7485 2.58929 20.8685 2.70929 21.0085C2.96929 21.2485 3.2893 21.3885 3.6293 21.4485C3.8093 21.4685 3.98931 21.4885 4.16931 21.4685C4.42931 21.4685 4.66931 21.3885 4.88931 21.2485C5.00931 21.1885 5.06929 21.1685 5.14929 21.1085C5.36929 20.9685 5.52929 20.7885 5.64929 20.5685C5.80929 20.3685 5.90931 20.1285 5.94931 19.8685C5.94931 19.6885 5.9493 19.5285 5.9693 19.3485C5.9493 19.0085 5.82929 18.7085 5.64929 18.4285L5.66931 18.4485Z" fill="#FF5500"/>
</svg>