<svg xmlns="http://www.w3.org/2000/svg" width="329" height="212" viewBox="0 0 329 212" fill="none">
    <path d="M243.49 21.3825C234.619 15.7223 226.195 11.3536 214.068 7.65093C178.372 -3.24767 133.799 -1.86606 119.279 19.851C108.217 36.397 109.76 57.1558 115.031 75.5489C86.1077 62.7135 50.5725 65.7119 25.1915 85.1024C-15.205 115.96 -1.4744 162.897 39.1882 185.083C85.6083 210.409 180.332 213.979 232.716 209.399C264.962 206.58 309.516 201.647 340.199 192.912C347.394 190.867 354.3 188.105 361.173 185.233C398.656 169.57 411.463 155.628 415.98 132.944C420.497 110.26 405.257 91.046 384.076 81.1177C367.714 73.4487 349.585 78.3587 344.352 80.4522C339.119 82.5457 334.09 85.285 329.26 88.1728C322.238 92.373 314.39 97.4688 309.219 103.618C307.187 93.5685 301.637 83.3668 296.213 74.4959C283.076 53.0073 264.689 34.9046 243.49 21.3825Z" fill="#3F593F"/>
</svg>