<svg xmlns="http://www.w3.org/2000/svg" width="66" height="58" viewBox="0 0 66 58" fill="none">
    <path d="M21.0667 16.0933C21.7067 15.6133 23.0667 14.3933 24.3267 13.6533C23.2867 15.1133 21.7667 16.1133 20.0867 16.8733C20.4267 16.6133 20.7467 16.3533 21.0867 16.0933H21.0667ZM16.9467 20.5333C18.9267 21.1733 20.9067 21.7933 22.9067 22.4333C22.3867 23.1333 21.7267 23.7133 20.8867 23.9933C19.3467 24.4733 17.4467 23.7533 17.4267 21.9133C17.4267 21.2333 16.9667 20.8333 16.4467 20.6933C16.6267 20.6533 16.7867 20.5933 16.9667 20.5333H16.9467ZM11.6467 9.57329C12.5667 10.7533 13.1067 13.2533 13.4467 14.4133C13.6867 15.1933 13.8867 15.9733 14.1067 16.7733C13.9067 16.5333 13.7067 16.2733 13.5467 16.0133C13.1867 15.4133 11.2867 11.1733 11.6467 9.57329ZM3.40671 56.2333C5.72671 52.6933 7.66671 48.9933 8.90671 44.9133C10.2867 40.4133 10.4267 35.9733 10.6067 31.3133C10.7467 27.5133 11.6267 22.9733 14.5067 20.3533C14.6867 20.6133 14.9467 20.8133 15.2667 20.8533C14.9667 21.0533 14.7667 21.3933 14.7867 21.8733C14.8667 24.4333 16.8667 26.4933 19.4667 26.6733C19.8667 26.6933 20.2667 26.6733 20.6467 26.6133C20.6467 26.6133 21.4867 26.4933 22.1267 26.1733C23.7467 25.4333 25.0267 23.9333 25.8267 22.3133C26.1867 21.5933 25.8867 20.7533 25.0867 20.5133C23.6467 20.0533 22.2267 19.5933 20.7867 19.1533C23.9067 17.7933 26.6067 15.7733 27.7467 12.2333C27.9467 11.5933 27.5067 10.9133 26.8867 10.7133C24.6867 10.0333 22.8467 11.7733 21.1467 12.9733C20.4067 13.5133 19.6667 14.0733 18.9467 14.6333C20.9867 10.7533 22.5267 6.6333 22.3267 2.1533C22.2867 1.0733 20.6467 0.41329 20.1067 1.55329C17.9467 6.21329 16.2667 11.0333 15.0667 15.9933C14.8867 14.5533 14.5867 13.1133 14.1667 11.6733C13.8267 10.4733 13.3867 7.53329 11.7867 7.21329C7.88671 6.45329 10.4067 14.7933 11.0867 16.1933C11.5667 17.1733 12.4467 18.8933 13.5467 19.7133C7.50671 23.9533 9.12671 35.4533 7.76671 41.7333C6.62671 46.9333 4.38672 51.6333 1.30672 55.9533C1.00672 56.3733 0.706719 56.8133 0.386719 57.2333L3.42671 56.1733L3.40671 56.2333Z" fill="#FF5500"/>
    <path d="M61.2869 45.4341C60.6069 44.2141 59.5469 43.2341 58.4669 42.3541C56.4469 40.6941 54.2669 39.1941 52.0069 37.8741C53.3669 38.4541 54.7669 38.9341 56.2069 39.2941C57.7469 39.6941 59.3669 39.9541 60.9469 39.7541C62.5269 39.5541 64.0869 38.8341 65.0869 37.5741C65.6269 36.8941 65.9669 35.9741 65.6669 35.1541C65.2869 34.1741 64.1469 33.7541 63.1069 33.5741C59.5069 32.9741 55.8269 33.8741 52.2869 34.7541L52.0469 35.1941C52.0869 34.7741 52.0469 34.3541 51.9469 33.9741C54.5469 33.2941 56.7069 31.1341 58.4869 28.9941C59.4869 27.7941 60.5069 26.2341 59.9469 24.7741C59.8069 24.4141 59.5669 24.0741 59.2069 23.9341C58.5069 23.6541 57.7669 24.1541 57.2069 24.6541C54.6869 26.8941 52.4869 29.4941 50.7069 32.3541C50.6669 32.3341 50.6269 32.3141 50.5869 32.2941C51.2669 30.2941 51.9469 28.2741 52.6269 26.2741C53.4669 23.7541 54.3269 20.9941 53.4069 18.5141C53.2669 18.1541 53.0869 17.7742 52.7469 17.5942C52.0069 17.1942 51.1469 17.8741 50.6269 18.5341C48.3069 21.4341 46.8069 24.9541 46.2869 28.6141C46.1469 25.5141 45.6669 22.4342 44.0669 19.8142C43.7069 19.2142 43.2069 18.6141 42.5269 18.4941C41.8469 18.3741 41.1669 18.7541 40.7469 19.2741C40.0469 20.1341 39.9069 21.3141 39.8469 22.4341C39.7269 24.9941 39.9869 27.5741 40.5669 30.0741C39.6869 27.5341 38.3069 25.2141 36.1869 23.6341C35.8869 23.4141 35.5669 23.1941 35.1869 23.1341C34.2269 22.9741 33.3669 23.9141 33.2469 24.8741C33.1469 25.8341 33.5869 26.7741 34.0669 27.6141C35.4869 30.0741 37.4069 32.2341 39.6669 33.9741C39.5069 34.1141 39.3669 34.2541 39.2269 34.3941C36.6469 32.1741 33.1669 30.9941 29.7669 31.2141C28.0469 31.3341 26.1869 31.8741 25.1869 33.2741C24.7069 33.9341 24.4869 34.8741 24.9669 35.5141C25.3469 36.0141 26.0069 36.1541 26.6269 36.2541C30.4469 36.8741 34.3469 37.0741 38.2269 36.8341C35.5469 37.2141 32.8869 37.7941 30.4669 38.9741C27.9069 40.2141 25.6269 42.1542 24.4069 44.7341C24.2869 44.9942 24.1669 45.2741 24.2269 45.5741C24.2669 45.7941 24.4269 45.9941 24.6069 46.1341C25.6069 46.9941 27.1069 46.8741 28.3869 46.5341C31.1869 45.8141 33.7269 44.3341 35.9669 42.4741C35.3069 43.2341 34.6869 43.9941 34.0869 44.7741C33.2469 45.8741 32.4269 47.0742 32.2469 48.4542C32.2069 48.8142 32.2269 49.1941 32.3269 49.5341L32.4669 49.9141C32.6069 50.1741 32.7869 50.3741 33.0669 50.5141C34.0069 50.9741 35.0469 50.1741 35.7469 49.4141C38.4069 46.4941 40.6469 43.1941 42.3469 39.6341C42.4269 39.6341 42.5269 39.6542 42.6069 39.6742H42.3669C41.5469 42.1942 41.0669 44.8541 41.2469 47.4941C41.4269 50.1341 42.2869 52.7741 43.9469 54.8541C44.2669 55.2541 44.7869 55.6541 45.2269 55.4141C45.4269 55.3141 45.5469 55.0941 45.6269 54.8941C47.4869 50.9941 47.1069 46.3941 46.0669 42.2141C45.8669 41.4141 45.6469 40.6342 45.6069 39.8142H45.5269C45.6669 39.8142 45.7869 39.7941 45.9269 39.7741C46.8269 43.6541 48.9669 48.2541 51.8469 50.9141C52.4469 51.4741 53.3069 52.0342 54.0469 51.6742C54.6669 51.3742 54.8669 50.5541 54.8069 49.8741C54.6869 48.7941 54.1069 47.8141 53.5469 46.8741C52.0869 44.4741 50.2469 41.4941 48.7469 39.0541C48.8669 39.0141 48.9669 38.9541 49.0869 38.9141C50.2869 40.4341 51.5469 41.8941 52.8669 43.2941C54.8869 45.3941 57.3469 47.4741 60.2669 47.5341C60.7069 47.5341 61.1869 47.4741 61.4469 47.1541C61.8269 46.7141 61.6269 46.0341 61.3469 45.5141L61.2869 45.4341ZM45.7869 38.3941C44.3069 38.5941 42.6269 38.5741 41.2269 38.0541C40.4469 37.7741 39.5469 37.1941 39.5869 36.2541C39.6069 35.3941 40.4069 34.7341 41.0269 34.2541C41.1469 34.1541 41.2669 34.0741 41.3869 33.9941C43.4869 33.2141 45.7469 32.6541 47.9669 32.8941L50.5069 34.1941C50.5069 34.1941 50.5869 34.1941 50.6269 34.1941C50.6869 34.2941 50.7269 34.4141 50.7469 34.5341C50.9469 35.2741 50.5669 36.0941 50.0669 36.6341C49.0269 37.7541 47.2669 38.1941 45.7869 38.4141V38.3941Z" fill="#FF5500"/>
</svg>