<svg xmlns="http://www.w3.org/2000/svg" width="49" height="36" viewBox="0 0 49 36" fill="none">
    <path d="M47.9965 26.9212C47.7165 25.5412 46.8565 24.1612 45.5965 23.6412C44.8365 23.3212 43.9565 23.4212 43.1765 23.6412C42.5365 23.8412 41.9165 24.1412 41.3565 24.5412C40.4965 25.1412 39.7765 25.9412 39.2365 26.8812C39.1965 26.1412 39.0765 25.4012 38.7765 24.7012C38.3565 23.7212 37.5765 22.8612 36.5565 22.6812C35.4965 22.5012 34.4565 22.9612 33.5965 23.6412C32.7565 24.3012 31.9965 25.1612 31.4765 26.1612C31.1365 26.8012 30.9165 27.5612 30.9365 28.3012C29.5565 27.0812 27.8165 26.2212 26.0365 26.7612C25.1165 27.0212 24.2565 27.6412 23.7765 28.5212C23.2165 29.5012 23.2565 30.7012 23.6965 31.7212C24.1565 32.8012 25.0365 33.6212 26.0365 34.1212C27.1365 34.6612 28.3365 34.8812 29.5165 35.0212C32.1165 35.3412 34.7565 35.2812 37.3565 34.9612C39.9165 34.6612 43.2965 34.5212 46.0965 32.9212C46.8965 32.4412 47.2965 31.5812 47.6365 30.7412C48.1165 29.5412 48.2765 28.2012 48.0165 26.9212H47.9965Z" fill="#FF5500"/>
    <path d="M35.2359 6.44142C33.1359 6.02142 30.8559 6.38142 29.0359 7.46142C29.2559 6.20142 29.2959 4.90142 28.8759 3.72142C28.5359 2.72142 27.8559 1.84142 26.9159 1.32142C25.9359 0.781421 24.7559 0.641418 23.6559 0.721418C19.5159 1.08142 15.7159 3.72142 13.3759 7.02142C12.2559 8.60142 11.4359 10.4214 11.0159 12.3214C9.35589 11.2414 7.51589 10.2814 5.51589 10.3214C3.61589 10.3614 1.63587 11.4414 0.935874 13.2814C0.135874 15.4014 1.67589 17.3814 3.29589 18.5814C5.01589 19.8614 7.09587 20.7614 9.21587 21.0414C17.2759 22.1414 28.1359 21.0814 34.3159 18.5814C35.7959 17.9814 37.2359 17.2814 38.4159 16.2014C39.5559 15.1414 40.3359 13.7414 40.4759 12.1814C40.7559 9.16142 37.9759 6.96142 35.2559 6.42142L35.2359 6.44142Z" fill="#FF5500"/>
</svg>