<svg xmlns="http://www.w3.org/2000/svg" width="33" height="46" viewBox="0 0 33 46" fill="none">
    <path d="M22.5336 29.208C22.2936 27.708 21.9736 26.2281 21.5536 24.7681C20.7136 21.7881 19.4736 18.8881 17.9336 16.1281C17.1736 14.7881 16.3136 13.488 15.4336 12.208C14.9936 11.588 14.5736 10.948 14.1936 10.288C14.0136 9.98804 13.8536 9.68805 13.6936 9.36805C13.6936 9.34805 13.6336 9.20804 13.6136 9.20804C13.5736 9.12804 13.5336 9.04805 13.5136 8.94805C13.4536 8.78805 13.3936 8.60805 13.3336 8.44805C13.2336 8.12805 13.1536 7.80804 13.0936 7.48804C13.0936 7.40804 13.0336 7.14806 13.0336 7.12806C13.0336 7.04806 12.9936 6.98805 12.9936 6.90805L12.9736 6.74805C12.9736 6.68805 12.9736 6.60805 12.9536 6.54805C12.9136 6.10805 12.5336 5.64805 11.9536 5.66805C11.3536 5.66805 11.0136 6.02804 10.9336 6.48804C10.8936 6.52804 10.8536 6.56805 10.8336 6.60805C10.2936 8.08805 10.0136 9.58805 9.57363 11.1081C9.11363 12.6681 8.41363 14.428 7.69363 15.808C6.23363 18.588 3.65362 22.3281 2.43362 25.1881C0.133616 30.5481 -0.74639 35.108 2.33361 40.448C3.01361 41.628 3.93363 42.7881 5.13363 43.6281C6.49363 44.6081 8.11361 45.168 9.89361 45.228C11.6936 45.288 13.5136 44.828 15.1136 44.148C16.4936 43.568 17.7736 42.7681 18.8736 41.8281C19.9536 40.8881 20.8736 39.8081 21.5136 38.6081C22.2936 37.1481 22.7736 35.6481 22.8736 34.0481C22.9736 32.4281 22.7936 30.808 22.5336 29.208ZM4.27361 27.948C4.31361 27.408 4.43363 26.8881 4.57363 26.3881C4.75363 25.7281 5.3536 25.308 6.0136 25.288C6.6536 25.268 7.31361 25.768 7.45361 26.3881C7.55361 26.8281 7.59361 27.268 7.49361 27.708C7.39361 28.148 7.13363 28.448 6.85363 28.808C6.77363 28.888 6.67361 28.9681 6.55361 29.0481C6.25361 29.2881 5.87362 29.408 5.47362 29.348C4.83362 29.268 4.19362 28.6681 4.25362 27.9681L4.27361 27.948ZM8.17361 42.208C7.11361 41.928 6.11363 41.148 5.35363 40.348C4.61363 39.548 4.03362 38.6281 3.65362 37.6281C3.41362 36.9881 3.2736 36.288 3.2336 35.588C3.2336 35.448 3.2336 35.308 3.2336 35.168C3.2336 35.108 3.2336 35.048 3.2336 34.988C3.1536 34.468 3.11363 33.9481 3.13363 33.4081C3.17363 32.4281 3.2936 31.3081 4.2336 30.7681C4.9736 30.3481 5.73363 30.4881 6.35363 30.9081C6.53363 31.0081 6.69362 31.148 6.81362 31.308C6.97362 31.488 7.1136 31.6881 7.2336 31.9081C7.5136 32.4481 7.71363 33.0281 7.85363 33.6081C7.91363 33.8681 7.97361 34.108 8.05361 34.368C8.09361 34.488 8.11362 34.608 8.15362 34.708C8.17362 34.788 8.25361 34.928 8.27361 35.008C8.27361 35.028 8.29362 35.068 8.31362 35.088C8.37362 35.188 8.43361 35.288 8.49361 35.3881C8.55361 35.4681 8.61361 35.568 8.67361 35.648C8.67361 35.628 8.63361 35.608 8.61361 35.588C8.65361 35.628 8.67362 35.6681 8.69363 35.6881C8.71363 35.7281 8.75362 35.7481 8.75362 35.7681C9.03362 36.1081 9.35363 36.428 9.69363 36.708C10.0536 37.028 10.4536 37.288 10.7736 37.648C11.3136 38.248 11.6936 38.968 11.6936 39.788C11.6936 41.608 9.85361 42.6281 8.21361 42.1881L8.17361 42.208Z" fill="#FF5500"/>
    <path d="M32.2937 11.8288C31.7737 10.0088 30.9337 8.28876 30.1937 6.56876C29.8137 5.70876 29.4537 4.86876 29.0737 4.00876C28.6737 3.10876 28.1537 2.24877 27.6337 1.40877C27.0337 0.44877 25.4937 1.06877 25.7937 2.18877C25.8337 2.34877 25.8937 2.52877 25.9337 2.68877C25.6937 3.98877 25.3337 5.24877 24.8137 6.46877C24.1737 7.94877 23.3937 9.36876 22.7937 10.8688C21.7137 13.6088 21.4537 16.6688 23.3337 19.1088C24.1337 20.1288 25.2337 20.9488 26.5337 21.1288C27.9937 21.3488 29.3537 20.8688 30.4937 19.9288C32.8737 17.9888 33.0937 14.5688 32.3137 11.8088L32.2937 11.8288ZM29.8937 16.0888C29.7537 16.6088 29.5937 16.8888 29.2337 17.4488C29.1737 17.5288 29.0537 17.6888 28.8537 17.8888C28.7737 17.9888 28.6737 18.0688 28.5737 18.1688C28.5737 18.1688 28.3537 18.3488 28.3737 18.3288C28.2137 18.4488 28.0337 18.5488 27.8337 18.6488L27.5937 18.7288C27.5537 18.7288 27.2137 18.8088 27.2537 18.8088C26.3537 18.9088 25.5937 18.5288 24.9337 17.8088C23.9137 16.7088 23.7137 15.2888 23.8737 13.8688C23.9137 13.4288 24.4937 13.2888 24.7337 13.6688C25.4137 14.7888 26.4737 15.6288 27.8337 15.7288C28.6137 15.7888 30.0537 15.3688 29.8537 16.0888H29.8937Z" fill="#FF5500"/>
</svg>