<svg xmlns="http://www.w3.org/2000/svg" width="55" height="55" viewBox="0 0 55 55" fill="none">
    <path d="M8.01022 38.1207C8.01022 38.1207 8.01021 38.1207 7.97021 38.1207C7.99021 38.1007 8.01022 38.0807 8.01022 38.0807C8.01022 38.0807 8.01022 38.0807 8.01022 38.1007V38.1207Z" fill="#FF5500"/>
    <path d="M8.35031 37.7425C8.53031 37.6225 8.47031 37.6625 8.41031 37.6825C8.27031 37.7425 8.23031 37.8025 8.15031 37.9025C8.09031 37.9625 8.05031 38.0225 8.03031 38.0825C8.03031 38.0825 8.03031 38.0825 8.03031 38.1025C8.03031 38.1025 7.99031 38.1225 7.97031 38.1425C7.97031 38.1425 7.97031 38.1425 7.97031 38.1225C7.97031 38.1225 7.93031 38.1225 7.91031 38.1425C7.89031 38.1425 7.85031 38.1425 7.83031 38.1425C7.83031 38.1425 7.81031 38.1425 7.79031 38.1425H7.75031C7.67031 38.1425 7.57031 38.1425 7.49031 38.1025C7.49031 38.1025 7.45031 38.1025 7.43031 38.1025C7.41031 38.1025 7.37031 38.0825 7.37031 38.1025C7.21031 38.0425 7.07031 37.9825 6.91031 37.9025C6.91031 37.9025 6.89031 37.9025 6.87031 37.9025C6.83031 37.9025 6.81031 37.8625 6.77031 37.8425C6.69031 37.8025 6.61031 37.7425 6.53031 37.6825C6.21031 37.4625 5.93031 37.2225 5.63031 36.9825C5.57031 36.9425 5.53031 36.9025 5.47031 36.8425C5.47031 36.8425 5.45031 36.8425 5.43031 36.8225C5.37031 36.7825 5.33031 36.7225 5.29031 36.6625C5.27031 36.6225 5.23031 36.6025 5.21031 36.5625C5.21031 36.5625 5.17031 36.4825 5.15031 36.4625C5.15031 36.4625 5.15031 36.4425 5.15031 36.4225C5.13031 36.3825 5.11031 36.3425 5.09031 36.3025C5.07031 36.2425 5.05031 36.1825 5.01031 36.1225C4.99031 36.0225 4.95031 35.9225 4.93031 35.8025C4.87031 35.6225 4.83031 35.4225 4.77031 35.2425C4.63031 34.7825 4.47031 34.3025 4.29031 33.8425C4.23031 33.6825 4.17031 33.5225 4.07031 33.3825C4.07031 33.3825 4.07031 33.3825 4.09031 33.4025C4.19031 33.5225 4.29031 33.6425 4.39031 33.7825C4.45031 33.8625 4.51031 33.9425 4.55031 34.0225C4.55031 34.0425 4.59031 34.0825 4.59031 34.0825C4.67031 34.2225 4.77031 34.3625 4.85031 34.5025C5.05031 34.8225 5.23031 35.1225 5.45031 35.4225C5.87031 35.9825 6.39031 36.5025 7.03031 36.7625C7.43031 36.9225 7.91031 36.9625 8.29031 36.7625C8.73031 36.5225 8.95031 36.0425 8.87031 35.5225C8.81031 35.1225 8.59031 34.8025 8.37031 34.4825C8.19031 34.2025 7.99031 33.9225 7.77031 33.6625C7.33031 33.1025 6.81031 32.5825 6.27031 32.1225C6.01031 31.9025 5.75031 31.7025 5.47031 31.5025C5.33031 31.4025 5.19031 31.3025 5.03031 31.2225C4.99031 31.2025 4.93031 31.1625 4.89031 31.1425C4.89031 31.1425 4.85031 31.1225 4.83031 31.1025C4.41031 30.8225 3.95031 30.6625 3.47031 30.8425C2.95031 31.0425 2.75031 31.6625 2.93031 32.2025C2.99031 32.4025 3.09031 32.5425 3.21031 32.6625C2.79031 32.5425 2.35031 32.6625 2.03031 32.9425C1.69031 33.2625 1.51031 33.7425 1.53031 34.2225C1.55031 35.0425 1.93031 35.8425 2.35031 36.5425C3.19031 37.9025 4.35031 38.9625 5.75031 39.6425C6.43031 39.9825 7.25031 40.2425 8.01031 40.1625C8.77031 40.0825 9.39031 39.5825 9.55031 38.8025C9.55031 38.7225 9.55031 38.6625 9.53031 38.6025C9.53031 38.5225 9.53031 38.4425 9.53031 38.3425C9.49031 38.0625 9.33031 37.8825 9.13031 37.7025C8.89031 37.5025 8.57031 37.5825 8.33031 37.7425H8.35031ZM3.19031 34.2025C3.19031 34.0825 3.19031 34.1425 3.19031 34.2025V34.2025ZM3.23031 34.1625C3.23031 34.2025 3.23031 34.2425 3.19031 34.2425C3.19031 34.2425 3.19031 34.2225 3.19031 34.2025C3.19031 34.2425 3.19031 34.2625 3.19031 34.2025C3.19031 34.2025 3.19031 34.2025 3.19031 34.1825C3.19031 34.1225 3.19031 34.1425 3.21031 34.1625H3.23031ZM7.83031 34.7825C7.83031 34.7825 7.89031 34.8425 7.89031 34.8225C7.89031 34.8225 7.85031 34.7825 7.83031 34.7825ZM3.93031 32.3625H3.89031C3.89031 32.3625 3.89031 32.3625 3.93031 32.3625ZM3.93031 32.3425C3.93031 32.3425 3.95031 32.3425 3.99031 32.3425C3.99031 32.3425 3.97031 32.3425 3.95031 32.3425H3.93031ZM7.47031 38.1625C7.47031 38.1625 7.47031 38.1625 7.43031 38.1625C7.43031 38.1625 7.43031 38.1625 7.47031 38.1625Z" fill="#FF5500"/>
    <path d="M10.7301 52.3421C10.7301 52.9021 11.1501 53.4421 11.5501 53.7821C12.1301 54.2821 12.8901 54.3421 13.5501 54.0821C14.2701 53.8021 14.7701 53.1221 15.2701 52.5821C15.7901 52.0221 16.3501 51.5021 16.9501 51.0221C17.3501 50.7021 17.7501 50.3821 18.1501 50.0621C18.3301 50.0221 18.5101 50.0021 18.6901 49.9821C18.8701 49.9821 19.0501 49.9621 19.2301 49.9421C19.2701 49.9421 19.2901 49.9421 19.3301 49.9421C19.4101 49.9421 19.5101 49.9421 19.5901 49.9421C19.9501 49.9421 20.2901 49.9621 20.6501 49.9621C21.4301 49.9621 22.1901 49.9221 22.9301 49.6621C23.5901 49.4221 24.2501 48.9421 24.5901 48.3021C24.8501 47.8421 24.9701 47.3221 25.0101 46.7821C25.0901 46.6421 25.1501 46.5021 25.2301 46.3621C25.3701 46.0421 25.4701 45.7021 25.4701 45.3421C25.4701 44.9021 25.3701 44.5021 25.2101 44.1021C24.9501 43.4421 24.6501 42.7821 24.0901 42.3421C23.8101 42.1421 23.5101 41.9821 23.1901 41.8421C22.8901 41.7021 22.5701 41.5621 22.2701 41.4221C21.0101 40.9021 19.7301 40.4021 18.4501 39.9021C17.7901 39.6421 17.1501 39.3821 16.4901 39.1421C15.8701 38.9021 15.2701 38.6421 14.6301 38.5021C14.0101 38.3621 13.3701 38.3821 12.7901 38.6221C12.6501 38.6821 12.5301 38.7621 12.3901 38.8421C12.1501 38.9421 11.9101 39.0821 11.7101 39.2821C11.3701 39.6421 11.1301 40.0821 11.0301 40.5821C10.9301 41.0821 10.9301 41.5621 10.9101 42.0821C10.9101 42.2221 10.9101 42.3421 10.8901 42.4821C10.8901 42.5221 10.8901 42.5621 10.8901 42.6221C10.8901 42.6221 10.8901 42.6621 10.8901 42.6821C10.8901 42.6821 10.8901 42.7221 10.8901 42.7421C10.8901 42.7821 10.8701 42.8221 10.8501 42.8821C10.8301 42.9621 10.8101 43.0621 10.7701 43.1421C10.6501 43.5021 10.5101 43.8421 10.3501 44.1821C10.0101 44.9221 9.69012 45.6821 9.65012 46.5221C9.61012 47.0421 10.1301 47.6021 10.6501 47.4621C11.0501 47.3621 11.4101 47.2021 11.7501 46.9821C11.8901 46.9021 12.0301 46.8021 12.1501 46.7021C12.3501 46.6021 12.5501 46.5021 12.7101 46.3421C12.7101 46.3421 12.7301 46.3221 12.7501 46.3021C12.9901 46.1821 13.2301 46.0621 13.4901 45.9621H13.5301C13.6101 45.9621 13.6701 45.9221 13.7501 45.9021C13.9101 45.8621 14.0901 45.8421 14.2501 45.8221C14.3301 45.8221 14.4301 45.8221 14.5101 45.8021H14.5301C14.5501 45.8021 14.5901 45.8021 14.6101 45.8021C14.7501 45.8021 14.8901 45.8021 15.0301 45.8221C15.3501 45.8421 15.6701 45.9021 15.9901 45.9621C16.4901 46.0421 17.0101 46.1021 17.5101 46.0821C17.4901 46.1021 17.4701 46.1421 17.4501 46.1621C16.3901 46.1221 15.3301 46.3221 14.3301 46.6621C13.7701 46.8621 13.2301 47.1221 12.7301 47.4621C12.1701 47.8221 11.6301 48.2221 11.1901 48.7221C10.6901 49.2821 10.2701 49.9621 10.2301 50.7621C10.2101 51.3621 10.3901 51.9221 10.7501 52.4021L10.7301 52.3421ZM13.1301 40.4221C13.1301 40.4221 13.1101 40.4221 13.0901 40.4221C13.0901 40.4221 13.1101 40.4221 13.1301 40.4221ZM12.1101 50.5421C12.1101 50.5421 12.1301 50.5021 12.1501 50.4821C12.1501 50.4821 12.1301 50.5221 12.1101 50.5421Z" fill="#FF5500"/>
    <path d="M8.1499 50.9215C8.1499 50.9215 8.16991 51.0815 8.20991 51.1615C8.28991 51.6015 8.46991 52.0015 8.76991 52.3615C9.22991 52.9415 10.2099 52.5015 10.0499 51.7615C9.9899 51.5215 9.92991 51.2815 9.88991 51.0415C9.98991 50.8815 10.0499 50.7215 10.0899 50.5615C10.2099 50.0215 10.1099 49.4815 9.76991 49.0215C9.46991 48.6415 8.80991 48.6615 8.56991 49.0615C8.26991 49.5815 8.1299 50.2215 8.1899 50.8415C8.1899 50.8815 8.1899 50.9215 8.1899 50.9615L8.1499 50.9215ZM9.7299 50.0615C9.7299 50.0615 9.72991 50.0215 9.76991 50.0015C9.76991 50.0015 9.7699 50.0415 9.7299 50.0615Z" fill="#FF5500"/>
    <path d="M23.3897 37.5821C23.4097 37.0821 23.3097 36.5421 23.0697 36.1021C23.0497 36.0421 23.0097 36.0021 22.9897 35.9621C22.9497 35.5021 22.8097 35.0421 22.6097 34.6221C22.3697 34.1421 22.0497 33.7021 21.6897 33.3221C21.3697 32.9821 21.0097 32.6421 20.6097 32.4021C20.0897 32.1021 19.4897 31.9821 18.9497 32.2221C18.4297 32.4421 18.1697 32.9621 18.0497 33.5021C18.0297 33.6421 18.0097 33.7821 17.9897 33.9221C17.8097 34.4021 17.7297 34.9221 17.7897 35.4621C17.9097 36.3621 18.3897 37.2221 18.8097 38.0021C18.9897 38.3621 19.1897 38.7021 19.3897 39.0621C19.4297 39.1821 19.4897 39.2821 19.5497 39.3821C19.8897 40.0021 20.5297 40.5221 21.2297 40.3221C21.5297 40.2421 21.7697 40.0621 21.9697 39.8221C22.7697 39.3821 23.3297 38.5421 23.3897 37.5621V37.5821ZM20.7897 34.9421C20.7897 34.9221 20.7897 34.8821 20.7897 34.8821C20.7897 34.8821 20.7897 34.9221 20.7897 34.9621V34.9421Z" fill="#FF5500"/>
    <path d="M16.1699 34.9615C16.8299 33.4415 15.8699 31.6215 14.8099 30.4815C13.9099 29.5215 12.6299 28.6815 11.3699 28.9815C10.9299 28.8215 10.4499 28.9615 10.2699 29.4615C10.1699 29.7815 10.2699 30.0815 10.3899 30.4015C10.4499 30.5815 10.5299 30.7615 10.5899 30.9415C10.7499 31.3015 10.9299 31.6415 11.1299 31.9815C11.4699 32.5215 11.8499 33.0415 12.2499 33.5215C12.0099 33.4215 11.7299 33.3815 11.4699 33.4615C10.9499 33.6215 10.8499 34.2015 10.9699 34.7015C11.3099 36.0415 12.7899 36.8215 14.0099 36.9815C14.3299 37.0215 14.6099 36.8015 14.7299 36.5015C14.7299 36.5015 14.7299 36.4815 14.7299 36.4615C15.3499 36.1815 15.8499 35.6015 16.1299 34.9815L16.1699 34.9615ZM12.4099 34.3615C12.4099 34.3615 12.4099 34.3615 12.4099 34.3415C12.4099 34.3415 12.4099 34.3415 12.4099 34.3615Z" fill="#FF5500"/>
    <path d="M0.569921 43.621C0.869921 44.341 1.32992 45.001 1.84992 45.561C2.40992 46.161 3.04992 46.621 3.76992 47.001C3.76992 47.001 3.78992 47.001 3.80992 47.001C4.24992 47.401 4.72992 47.721 5.30992 47.861C5.86992 48.001 6.44992 48.041 7.00992 47.901C7.32992 47.821 7.56991 47.581 7.60991 47.261C7.82991 47.001 7.94992 46.641 8.08992 46.321C8.38992 45.601 8.64992 44.841 8.70992 44.061C8.76992 43.261 8.54992 42.421 8.04992 41.781C7.98992 41.701 7.90992 41.681 7.84992 41.661C7.74992 41.501 7.64992 41.361 7.54992 41.221C7.36992 41.001 7.08992 40.901 6.82992 40.941C6.54991 40.981 6.38992 41.181 6.26992 41.421C6.26992 41.421 6.26991 41.421 6.24991 41.421C6.02991 41.581 5.92992 41.861 5.84992 42.121C5.64992 42.721 5.52992 43.361 5.48992 44.001C5.48992 44.021 5.48992 44.041 5.48992 44.081C5.48992 44.081 5.48992 44.101 5.48992 44.121C5.26992 43.741 4.98992 43.401 4.68992 43.081C4.84992 43.001 4.98992 42.861 5.08992 42.701C5.70992 41.741 4.52991 40.781 3.74991 40.401C3.50991 40.281 3.26992 40.201 3.02992 40.141C2.92992 40.101 2.82992 40.041 2.72992 40.001C2.46992 39.881 2.18992 39.841 1.90992 39.861C1.48992 39.901 1.16992 40.161 1.00992 40.521C0.849915 40.641 0.709914 40.801 0.609914 40.961C0.0899139 41.761 0.309915 42.741 0.649915 43.601L0.569921 43.621ZM6.18992 47.861C6.20992 47.861 6.24992 47.861 6.26992 47.861C6.26992 47.861 6.22992 47.861 6.18992 47.861ZM3.28991 41.721C3.28991 41.721 3.28992 41.721 3.30992 41.721C3.30992 41.721 3.32992 41.721 3.34992 41.741C3.34992 41.741 3.34992 41.741 3.32992 41.741C3.32992 41.741 3.32992 41.741 3.30992 41.721H3.28991Z" fill="#FF5500"/>
    <path d="M49.3506 17.942C49.7106 17.582 50.1106 17.222 50.5506 16.962C51.0906 16.642 51.8106 16.362 52.4306 16.562C53.0706 16.762 53.4706 17.382 53.7706 17.962C54.0306 18.482 54.2106 19.102 54.1306 19.702C54.0106 20.862 53.4106 21.842 52.7106 22.722C52.0506 23.562 51.2506 24.282 50.3906 24.882C49.9306 25.182 49.4306 25.422 48.9306 25.602C48.6906 25.682 48.4506 25.762 48.2106 25.822C48.0906 25.842 47.9906 25.882 47.8706 25.902C47.7106 25.942 47.5906 25.902 47.4306 25.862C47.2506 25.802 47.1306 25.562 47.3106 25.362C47.3706 25.302 47.4106 25.222 47.4906 25.162C47.5706 25.102 47.6506 25.062 47.7306 25.022C47.7706 25.002 47.8106 24.962 47.8506 24.942C47.7106 24.942 47.5506 24.942 47.4106 24.882C46.7906 24.722 46.2906 24.202 46.1706 23.542C45.9706 22.422 46.6106 21.322 47.2306 20.422C47.8706 19.542 48.5906 18.682 49.3306 17.902L49.3506 17.942Z" fill="#FF5500"/>
    <path d="M44.8905 15.2214C44.1105 15.7014 43.2105 15.4214 42.7305 14.6814C42.6505 14.5414 42.5705 14.4014 42.5105 14.2614C42.2905 14.0414 42.1105 13.7614 41.9905 13.4414C41.5505 12.3214 41.5905 10.9614 41.9905 9.80143C42.0505 9.64143 42.1105 9.48143 42.1705 9.32143C42.1705 9.28143 42.2105 9.24144 42.2105 9.20144C42.1505 9.34144 42.1905 9.28143 42.2905 9.02143C42.3105 8.96143 42.3505 8.90144 42.3705 8.84144C42.5105 8.54144 42.6505 8.26144 42.8305 7.98144C43.0105 7.70144 43.1705 7.42143 43.3705 7.16143C43.6905 6.78143 44.1905 6.60144 44.6505 6.70144C45.4105 6.86144 45.7305 7.60144 45.9505 8.28144C46.1505 8.86144 46.2505 9.44144 46.3105 10.0414C46.4305 11.1814 46.2905 12.3614 45.9705 13.4614C45.7705 14.1414 45.5105 14.8214 44.8905 15.2014V15.2214Z" fill="#FF5500"/>
    <path d="M39.6901 10.0414C39.9301 8.92144 39.8901 7.78144 39.7701 6.66144C39.7701 6.36144 39.7901 6.04144 39.7901 5.74144C39.7901 4.72144 39.6701 3.80145 39.0701 2.98145C38.9901 2.86145 38.8701 2.78144 38.7301 2.74144C38.2501 1.42144 37.1901 0.301437 35.7701 0.301437C35.3501 0.301437 34.9101 0.401439 34.4901 0.521439C34.2301 0.601439 34.0101 0.70145 33.8101 0.86145C33.4701 0.86145 33.1101 0.921445 32.7701 1.12144C32.2101 1.44144 31.7701 2.00145 31.5301 2.58145C31.0301 3.74145 30.8901 5.08145 30.8901 6.34145C30.8901 7.60145 31.0501 8.90144 31.4101 10.1014C31.7901 11.3214 32.3101 12.8014 33.5101 13.3814C34.7301 13.9414 36.2901 13.8014 37.4701 13.1614C38.6301 12.5414 39.3701 11.3014 39.6501 10.0214L39.6901 10.0414ZM36.6301 3.20145C36.6301 3.20145 36.6301 3.20144 36.6101 3.16144C36.6101 3.16144 36.6101 3.18145 36.6101 3.20145H36.6301Z" fill="#FF5500"/>
    <path d="M31.2305 14.8819C31.0305 12.6819 30.4505 10.5219 29.3505 8.64194C29.3305 8.60194 29.2905 8.56193 29.2705 8.52193C29.2505 8.48193 29.2105 8.44193 29.1905 8.40193C28.8305 7.88193 28.4105 7.38194 27.9705 6.94194C27.5305 6.50194 27.0305 6.10193 26.4505 5.88193C26.0705 5.74193 25.6105 5.72194 25.2105 5.84194C24.9905 5.72194 24.7305 5.70193 24.4505 5.76193C23.8305 5.92193 23.5705 6.58193 23.6705 7.18193C23.7305 7.56193 23.8905 7.88193 24.1105 8.16193C24.2505 8.44193 24.4505 8.70193 24.7305 8.90193C24.9105 9.02193 25.0905 9.10193 25.2905 9.18193C25.2905 9.18193 25.3105 9.18194 25.3305 9.20194C26.0505 9.72194 26.7705 10.2419 27.4905 10.7419C27.4905 10.9419 27.5305 11.1419 27.5705 11.3619C27.5705 11.5219 27.5705 11.6819 27.5705 11.8419C27.1705 11.3619 26.7305 10.9219 26.2705 10.5219C25.7905 10.1219 25.2505 9.66193 24.6305 9.54193C24.4305 9.50193 24.2505 9.50193 24.0705 9.52193C23.5105 9.36193 22.8105 9.66194 22.6505 10.3419C22.6505 10.3419 22.6505 10.3819 22.6505 10.4019C22.6105 10.4419 22.5905 10.5019 22.5505 10.5619C21.8305 11.7419 22.2905 13.2019 22.8105 14.3219C23.2505 15.3019 23.9105 16.1819 24.6505 16.9019C25.5105 17.7619 26.4905 18.4619 27.6105 18.9219C28.1705 19.1619 28.7705 19.2819 29.3705 19.3219C30.2105 19.3819 30.8505 18.9019 31.1505 18.1019C31.3305 17.6019 31.3305 17.0019 31.3505 16.4819C31.3505 15.9419 31.3505 15.4219 31.2905 14.8819H31.2305ZM25.7705 7.98194C25.7705 7.98194 25.7505 7.98194 25.7305 7.98194C25.7305 7.98194 25.7505 7.98194 25.7705 7.98194Z" fill="#FF5500"/>
    <path d="M41.8704 36.0008C42.6104 35.7208 43.2904 35.2408 43.7104 34.5408C44.0104 34.0208 44.1704 33.3808 44.0704 32.7808C44.1104 32.6208 44.1504 32.4607 44.1504 32.3007C44.1504 31.8207 43.9704 31.3608 43.7304 30.9808C42.8704 29.6808 41.5904 28.7807 40.1904 28.1607C39.3704 27.8007 38.5504 27.5008 37.7104 27.1808C37.5104 27.1008 37.3304 27.0208 37.1304 26.9408C37.1304 26.9408 37.1104 26.9408 37.0904 26.9408C37.0904 26.9408 37.0904 26.9408 37.0504 26.9408C36.9704 26.9008 36.8704 26.8608 36.7904 26.8208C36.4504 26.6608 36.1104 26.4807 35.7704 26.3007C35.6304 26.2207 35.4904 26.1408 35.3504 26.0608C35.6904 26.0408 36.0304 26.0608 36.3704 26.0808C36.4104 26.0808 36.4504 26.0808 36.4704 26.0808C36.5704 26.0808 36.6504 26.1208 36.7304 26.1208C36.9104 26.1608 37.0904 26.2008 37.2704 26.2608C37.4504 26.3208 37.6504 26.3808 37.8304 26.4608C37.8304 26.4608 37.8304 26.4608 37.8704 26.4608C37.9504 26.5008 38.0304 26.5408 38.1104 26.5808C38.4504 26.7408 38.7504 26.9407 39.0704 27.1607C39.7504 27.6207 40.4104 28.0808 41.1704 28.4008C41.9704 28.7208 42.9104 28.8208 43.7104 28.4008C44.1704 28.1608 44.5304 27.7008 44.6504 27.1808C44.7704 26.6608 44.6504 26.1808 44.5104 25.6808C44.2904 24.9608 44.0704 24.2208 43.8304 23.5008C43.3504 22.0208 42.7904 20.5608 42.0304 19.2208C41.6304 18.5208 41.2104 17.8008 40.6104 17.2608C39.9504 16.6608 39.1704 16.2808 38.3104 16.0808C37.4304 15.8808 36.5104 15.7407 35.6904 16.3007C35.0504 16.7407 34.4504 17.2608 33.8304 17.7208C32.5704 18.6608 31.2704 19.5808 29.9504 20.4408C29.2504 20.9008 28.5704 21.3408 27.9304 21.8608C27.3104 22.3608 26.7904 22.9608 26.3304 23.6408C25.4304 24.9608 24.9304 26.5608 24.7504 28.1408C24.6504 28.9408 24.7504 29.8408 25.2304 30.5008C25.7104 31.2008 26.4104 31.6408 27.1304 32.0408C27.8304 32.4408 28.6104 32.8008 29.4104 32.9408C30.2304 33.1008 31.0304 33.0607 31.8504 33.0207C32.2304 33.0007 32.6104 32.9808 32.9704 32.9808C33.1504 32.9808 33.3304 32.9808 33.5104 33.0008C33.5904 33.0008 33.6704 33.0008 33.7504 33.0008C33.7904 33.0008 33.8304 33.0008 33.8704 33.0008C33.8704 33.0008 33.8904 33.0008 33.9104 33.0008C33.9504 33.0008 33.9904 33.0008 34.0104 33.0008C34.0504 33.0008 34.0904 33.0008 34.1304 33.0008C34.2104 33.0008 34.2904 33.0208 34.3704 33.0408C34.5304 33.0808 34.6904 33.1008 34.8504 33.1408C35.1904 33.2208 35.5104 33.3208 35.8304 33.4408C35.9104 33.4808 36.0104 33.5008 36.0904 33.5408C36.0904 33.5408 36.1304 33.5408 36.1504 33.5608C36.1704 33.5608 36.2104 33.5808 36.2104 33.5808C36.3704 33.6608 36.5304 33.7208 36.6904 33.8208C36.8304 33.9008 36.9704 33.9808 37.1104 34.0608C37.3104 34.4208 37.5504 34.7407 37.8504 35.0207C38.8904 36.0007 40.4704 36.4008 41.8104 35.9008L41.8704 36.0008ZM34.3304 25.3408C34.3304 25.3408 34.2704 25.2808 34.2304 25.2608C34.2704 25.2808 34.3104 25.3208 34.3304 25.3408ZM37.9104 26.4808C37.9104 26.4808 37.9704 26.5007 37.9904 26.5207C37.9904 26.5207 37.9504 26.5208 37.9104 26.4808Z" fill="#FF5500"/>
</svg>