<svg xmlns="http://www.w3.org/2000/svg" width="60" height="53" viewBox="0 0 60 53" fill="none">
    <path d="M30.8323 50.3186C30.3323 45.6386 29.4523 41.0386 27.9323 36.5986C26.4123 32.1586 24.3523 27.8186 21.7923 23.8386C20.3323 21.5786 18.7123 19.4786 16.9123 17.4786C16.5923 17.1186 15.9923 17.1586 15.6723 17.4786C15.3123 17.8386 15.3723 18.3586 15.6723 18.7186C18.5323 22.2386 21.1123 26.0586 23.2123 30.0786C25.3123 34.0986 26.9523 38.3386 28.1523 42.7186C28.8323 45.2186 29.3523 47.7586 29.6523 50.3186C29.6923 50.6386 29.8923 50.8986 30.2323 50.8986C30.5323 50.8986 30.8523 50.6186 30.8123 50.3186H30.8323Z" fill="#FF5500"/>
    <path d="M27.1129 36.2788C27.1129 35.7588 27.1529 35.2388 27.2129 34.7188C27.2129 34.5988 27.2329 34.4788 27.2529 34.3388C27.2529 34.2788 27.2929 34.0788 27.2529 34.2988C27.2529 34.2388 27.2529 34.1588 27.2729 34.0988C27.3129 33.8388 27.3529 33.5788 27.3929 33.3388C27.5929 32.3188 27.8729 31.3188 28.2329 30.3388C28.3129 30.0988 28.4129 29.8388 28.4929 29.5988C28.5329 29.4788 28.5929 29.3588 28.6329 29.2588C28.6329 29.2388 28.6529 29.1988 28.6729 29.1788C28.7129 29.0788 28.6329 29.2788 28.6329 29.2788C28.6729 29.1988 28.6929 29.1388 28.7329 29.0588C28.9329 28.5788 29.1729 28.1188 29.4129 27.6588C29.6529 27.1988 29.9329 26.7588 30.2129 26.3188C30.3529 26.0988 30.4929 25.8788 30.6529 25.6788C30.8129 25.4788 30.9529 25.2388 31.1129 25.0588C31.1129 25.0588 30.9729 25.2388 31.0329 25.1588C31.0529 25.1188 31.0929 25.0788 31.1129 25.0388C31.1529 24.9788 31.1929 24.9388 31.2329 24.8788C31.3329 24.7588 31.4129 24.6588 31.5129 24.5388C31.6929 24.3188 31.8929 24.0988 32.0929 23.8988C32.4929 23.4588 32.9329 23.0388 33.3729 22.6388L32.3129 22.9188H32.3529C32.3529 22.9188 32.1729 22.8588 32.0929 22.8188C32.1329 22.8188 32.1729 22.8588 32.2129 22.8788C32.2529 22.8988 32.3729 22.9988 32.2129 22.8788C32.0329 22.7388 32.2329 22.9188 32.2729 22.9588L32.0929 22.7388C32.1729 22.8388 32.2329 22.9588 32.2929 23.0588L32.1729 22.7988C32.2329 22.9588 32.2729 23.1388 32.3129 23.3188L32.2729 23.0188C32.3129 23.3788 32.3129 23.7388 32.2729 24.0988L32.3129 23.7988C31.9329 26.5788 31.1529 29.2788 30.0529 31.8588L30.1729 31.5588C29.8329 32.3588 29.4529 33.1588 29.0529 33.9388C28.7529 34.5188 28.8929 35.3188 29.4929 35.6388C30.0529 35.9388 30.8929 35.8188 31.1929 35.1988C32.1329 33.3388 32.9129 31.3988 33.4729 29.3988C33.7329 28.4388 33.9729 27.4788 34.1529 26.5188C34.2329 26.0388 34.3129 25.5588 34.3729 25.0788C34.4329 24.5988 34.5329 24.0588 34.5329 23.5588C34.5329 22.9988 34.4329 22.4588 34.2129 21.9388C33.9529 21.3588 33.4729 20.9788 32.8929 20.7588C32.5329 20.6188 32.0929 20.7988 31.8329 21.0388C30.2329 22.5388 28.8729 24.3188 27.8529 26.2588C26.8329 28.1988 26.1329 30.2788 25.8329 32.4588C25.6529 33.7188 25.5929 34.9588 25.6529 36.2188C25.6729 36.5988 25.9729 36.9788 26.3929 36.9588C26.8129 36.9388 27.1329 36.6388 27.1329 36.2188L27.1129 36.2788Z" fill="#FF5500"/>
    <path d="M24.3328 33.1198C24.2328 32.8998 24.1528 32.6798 24.0328 32.4598C24.0328 32.4598 23.9728 32.3398 23.9728 32.3198C23.9728 32.2998 23.9728 32.2798 23.9528 32.2598C23.9128 32.1598 23.8728 32.0798 23.8528 31.9798C23.8328 31.8798 23.7728 31.7998 23.7328 31.7198C23.7328 31.6998 23.7328 31.6798 23.7128 31.6598C23.7728 31.7598 23.7728 31.7598 23.7128 31.6598C23.6728 31.5398 23.5928 31.4398 23.5328 31.3198C23.4328 31.1398 23.3128 30.9598 23.1928 30.7798C22.9328 30.3998 22.6328 30.0198 22.3328 29.6598C22.0328 29.2998 21.6528 28.9998 21.2528 28.6998C20.5328 28.1598 19.7528 27.7198 18.9128 27.3798C18.5528 27.2398 18.1728 27.1398 17.7728 27.0798C17.3128 26.9998 16.8528 26.9598 16.3928 27.0198C15.8528 27.0798 15.3528 27.2198 14.8928 27.4798C14.4328 27.7398 13.9928 28.1798 13.7128 28.6598C13.4528 29.0998 13.2728 29.5998 13.1928 30.0998C13.1528 30.3998 13.1128 30.6798 13.1128 30.9798C13.1128 31.2798 13.1528 31.5798 13.2128 31.8798C13.3728 32.8798 13.8728 33.7998 14.5128 34.5798C14.8528 34.9798 15.2528 35.3198 15.6728 35.6398C16.0328 35.8998 16.4128 36.1398 16.8128 36.3198C17.2928 36.5398 17.7928 36.7398 18.3128 36.8798C18.8528 37.0398 19.4128 37.1198 19.9928 37.1998C20.5128 37.2598 21.0328 37.2998 21.5528 37.3198C22.0728 37.3398 22.6128 37.2798 23.1328 37.2398C23.3928 37.2198 23.6528 37.1998 23.9128 37.1798C24.2128 37.1598 24.4928 37.0598 24.7328 36.8398C24.9328 36.6398 25.0728 36.3198 25.0728 36.0198C25.0528 35.3998 24.5728 34.8798 23.9328 34.8798C23.2528 34.8798 22.5728 34.8398 21.8928 34.8198C21.2128 34.7998 20.5328 34.7798 19.8528 34.6998L20.1728 34.7398C19.3928 34.6398 18.6328 34.4398 17.8928 34.1398L18.1928 34.2598C17.6528 34.0198 17.1328 33.7398 16.6528 33.3798L16.8928 33.5598C16.5528 33.2998 16.2528 32.9998 15.9728 32.6598L16.1528 32.8998C15.9128 32.5798 15.6928 32.2198 15.5328 31.8398L15.6528 32.1198C15.4928 31.7598 15.3928 31.3798 15.3328 30.9798L15.3728 31.2798C15.3328 30.9398 15.3328 30.5998 15.3728 30.2598L15.3328 30.5598C15.3728 30.2798 15.4528 29.9998 15.5528 29.7198L15.4328 29.9798C15.5128 29.7798 15.6328 29.5798 15.7728 29.3998L15.6128 29.6198C15.7328 29.4598 15.8728 29.3198 16.0328 29.1998L15.8128 29.3598C15.9728 29.2398 16.1328 29.1398 16.3128 29.0798L16.0528 29.1798C16.2928 29.0798 16.5528 29.0198 16.8128 28.9798L16.5328 29.0198C16.8928 28.9798 17.2528 28.9798 17.6128 29.0198L17.3528 28.9798C17.8728 29.0598 18.3728 29.1998 18.8528 29.3998L18.6128 29.2998C19.3528 29.6198 20.0528 30.0198 20.6928 30.5198L20.5128 30.3798C20.7328 30.5398 20.9528 30.7198 21.1528 30.8798L20.9728 30.7398C21.4728 31.1198 21.9328 31.5598 22.3328 32.0198C22.3928 32.0798 22.4328 32.1398 22.4928 32.1998C22.5328 32.2398 22.5928 32.3398 22.4928 32.1798C22.5528 32.2598 22.5928 32.2998 22.6528 32.3598C22.7528 32.4798 22.8528 32.5998 22.9528 32.6998C22.9728 32.7198 22.9928 32.7598 23.0128 32.7798C22.9728 32.6798 23.0928 32.8598 23.0128 32.7798C23.0528 32.8598 23.0928 32.9198 23.1328 32.9998C23.2128 33.1398 23.2728 33.2798 23.3528 33.4198C23.4728 33.6598 23.7928 33.7398 24.0128 33.6398C24.2328 33.5398 24.4328 33.2598 24.3328 32.9998V33.1198Z" fill="#FF5500"/>
    <path d="M17.6725 15.1789C18.0925 14.5789 18.4925 13.9789 18.8725 13.3589C19.2525 12.7389 19.5925 12.0389 19.7925 11.3389C19.9925 10.5789 20.0325 9.77894 19.8725 8.99894C19.7125 8.21894 19.2525 7.55894 18.7125 7.03894C16.6725 5.01894 13.3725 4.85894 10.9325 6.21894C9.63246 6.93894 8.25247 8.29894 8.31247 9.89894C8.33247 10.7589 8.79247 11.5789 9.59247 11.9589C10.3925 12.3389 11.4325 12.3389 12.1125 11.6589C12.4725 11.2989 12.6925 10.7589 12.6925 10.2589C12.6925 9.67894 12.4325 9.17894 12.0725 8.73894C11.5325 8.07894 10.7125 7.73894 9.93246 7.49894C8.27246 6.97894 6.49247 7.01894 4.89247 7.71894C3.51247 8.31894 2.43246 9.51894 1.93246 10.9189C1.43246 12.3189 1.79247 13.9189 1.87247 15.4189C1.87247 15.7789 1.87247 16.1389 1.85247 16.5189L1.89247 16.1589C1.85247 16.3989 1.81247 16.6189 1.73247 16.8589C1.69247 16.9589 1.65246 17.0789 1.61246 17.1789C1.55246 17.3589 1.77247 16.8589 1.63247 17.1189C1.59247 17.1789 1.57247 17.2389 1.55247 17.3189C1.33247 17.7589 1.07247 18.1789 0.85247 18.6189C0.31247 19.6789 0.0124663 20.7789 0.192466 21.9789C0.372466 23.1789 1.33247 24.0789 2.41247 24.5589C3.49247 25.0389 4.55247 25.2989 5.71247 25.4589C9.83247 25.9989 13.9925 24.3589 17.2925 21.9989C19.2125 20.6189 20.9525 19.0389 22.6125 17.3789C23.1525 16.8589 23.1725 15.8789 22.6125 15.3589C22.0525 14.8389 21.1925 14.8189 20.5925 15.3589C19.5125 16.3389 18.4125 17.3189 17.2925 18.2389C17.0125 18.4589 16.7325 18.7189 16.4525 18.9189C16.4525 18.9189 16.7525 18.6989 16.5525 18.8389C16.5125 18.8589 16.4925 18.8989 16.4525 18.9189C16.3925 18.9789 16.3125 19.0189 16.2525 19.0789C16.0925 19.1989 15.9525 19.2989 15.7925 19.4189C15.2125 19.8389 14.6125 20.2389 13.9925 20.5989C13.2725 21.0189 12.5325 21.3989 11.7725 21.7189L12.1325 21.5789C10.9325 22.0789 9.67247 22.4389 8.37247 22.6189L8.75246 22.5589C7.69246 22.6989 6.63246 22.7189 5.57246 22.5589L5.95247 22.6189C5.13247 22.4989 4.33246 22.2789 3.57246 21.9789C3.47246 21.9389 3.51247 21.9589 3.73247 22.0389C3.69247 22.0189 3.63247 21.9989 3.59247 21.9789C3.49247 21.9389 3.39247 21.8789 3.31247 21.8189C3.25247 21.7789 3.17246 21.7189 3.11246 21.6789C3.29246 21.8189 3.31247 21.8389 3.21247 21.7589C3.17247 21.7189 3.13247 21.6789 3.09247 21.6389C3.05247 21.5989 3.01247 21.5589 2.99247 21.5189C3.13247 21.7189 3.17247 21.7389 3.09247 21.6189C3.07247 21.5589 3.03247 21.4789 2.99247 21.4389C3.09247 21.6589 3.11247 21.7189 3.05247 21.5789C3.05247 21.5389 3.03247 21.4789 3.01247 21.4389C2.99247 21.3389 2.97247 21.2589 2.95247 21.1589L3.01247 21.5389C2.99247 21.2989 2.99247 21.0389 3.01247 20.7989L2.95247 21.1789C2.99247 20.8789 3.07247 20.5789 3.17247 20.2989V20.2389C3.25247 20.0989 3.23247 20.1389 3.15247 20.3589C3.19247 20.2989 3.23246 20.1989 3.25246 20.1389C3.33246 19.9589 3.43247 19.7789 3.53247 19.6189C3.89247 18.9189 4.29247 18.2189 4.49247 17.4389C4.69247 16.6589 4.69246 15.9189 4.61246 15.1389C4.55246 14.4389 4.41247 13.7189 4.39247 13.0189C4.39247 12.8589 4.39247 12.6789 4.39247 12.5189C4.39247 12.4389 4.39247 12.3589 4.39247 12.2589C4.39247 11.9589 4.33247 12.5789 4.39247 12.2789C4.43247 12.1189 4.45247 11.9589 4.49247 11.8189C4.51247 11.7589 4.53247 11.6789 4.55247 11.6189C4.39247 11.9389 4.63247 11.3989 4.55247 11.6189C4.61247 11.4989 4.69246 11.3589 4.75246 11.2389C4.79246 11.1789 4.83247 11.1189 4.87247 11.0589C5.01247 10.8389 4.65247 11.2989 4.83247 11.0989C5.03247 10.8789 5.23247 10.6789 5.45247 10.4989C5.65247 10.3189 5.19247 10.6789 5.41247 10.5389C5.47247 10.4989 5.53247 10.4589 5.59247 10.4189C5.71247 10.3389 5.83247 10.2589 5.97247 10.1989C6.03246 10.1589 6.09247 10.1389 6.17247 10.0989C6.41247 9.97894 5.87246 10.2189 6.11246 10.0989C6.29246 10.0389 6.45247 9.97894 6.63247 9.93894C6.79247 9.89894 6.97247 9.85894 7.13247 9.83894C6.81247 9.85894 7.43247 9.77894 7.13247 9.83894C7.21247 9.83894 7.31247 9.83894 7.39247 9.83894C7.57247 9.83894 7.73247 9.83894 7.91247 9.83894C7.99247 9.83894 8.09247 9.83894 8.17247 9.83894C8.23247 9.83894 8.29247 9.83894 8.35247 9.83894C8.49247 9.83894 8.47247 9.83894 8.27247 9.83894C8.27247 9.87894 8.73246 9.91894 8.79247 9.93894C8.97247 9.97894 9.13247 10.0189 9.29247 10.0789C9.45247 10.1389 9.61246 10.1989 9.79247 10.2589C9.93247 10.3189 9.83247 10.3389 9.69247 10.2189C9.75247 10.2789 9.87247 10.3189 9.95247 10.3589C10.0125 10.3989 10.0725 10.4589 10.1325 10.4789L9.99247 10.3789C9.99247 10.3789 10.0725 10.4389 10.0925 10.4789L10.1525 10.5389C10.2325 10.6389 10.2125 10.5989 10.0925 10.4389C10.0925 10.4789 10.1725 10.5789 10.1925 10.6189L10.1125 10.4389C10.1125 10.4389 10.1325 10.5189 10.1525 10.5589L10.1125 10.3389C10.1125 10.4789 10.1125 10.4189 10.1325 10.1989C10.0725 10.4389 10.2725 9.93894 10.1725 10.1189C10.3325 9.93894 10.3725 9.87894 10.2725 9.97894C10.1725 10.0589 10.2325 10.0189 10.4125 9.85894C10.2325 9.97894 10.7325 9.73894 10.5325 9.79894C10.3725 9.83894 10.3725 9.75894 10.6725 9.79894C10.6325 9.79894 10.5725 9.79894 10.5125 9.79894C10.8325 9.77894 10.7925 9.83894 10.6325 9.79894C10.4925 9.75894 10.4525 9.67894 10.7325 9.85894C10.6925 9.83894 10.6325 9.79894 10.5925 9.77894C10.4125 9.67894 10.8125 9.99894 10.6725 9.83894C10.4725 9.61894 10.7925 10.0589 10.6925 9.87894C10.5925 9.69894 10.7725 10.2189 10.7325 9.95894V9.87894C10.6925 9.73894 10.6925 9.77894 10.7325 9.97894V9.75894V9.93894C10.7325 9.93894 10.7325 9.83894 10.7325 9.79894L10.7925 9.57894C10.8325 9.57894 10.6725 9.81894 10.7725 9.65894C10.8125 9.57894 10.9725 9.19894 11.0525 9.17894L10.9525 9.29894C10.9525 9.29894 11.0125 9.21894 11.0525 9.17894C11.0925 9.11894 11.1525 9.07894 11.1925 9.01894C11.2925 8.91894 11.3925 8.81894 11.4925 8.71894C11.5525 8.67894 11.5925 8.61894 11.6525 8.57894C11.4325 8.73894 11.8325 8.41894 11.6525 8.57894C11.7925 8.47894 11.9125 8.39894 12.0525 8.29894C12.1725 8.21894 12.2925 8.15894 12.4125 8.09894C12.4725 8.05894 12.5325 8.03894 12.5925 7.99894H12.6525C12.7725 7.91894 12.7325 7.93894 12.5725 7.99894C12.6925 7.99894 12.8525 7.89894 12.9725 7.85894C13.1325 7.79894 13.2925 7.75894 13.4525 7.71894C13.5925 7.67894 13.7325 7.65894 13.8725 7.63894C13.5925 7.65894 14.1125 7.59894 13.8725 7.63894C13.9525 7.63894 14.0125 7.63894 14.0925 7.61894C14.3725 7.59894 14.6525 7.59894 14.9325 7.61894C14.9925 7.61894 15.0725 7.61894 15.1325 7.61894H15.1925C15.3125 7.63894 15.2925 7.61894 15.1125 7.61894C15.1725 7.67894 15.4325 7.67894 15.5325 7.69894C15.6725 7.73894 15.8125 7.75894 15.9325 7.81894C15.9925 7.83894 16.0725 7.85894 16.1325 7.87894C16.1725 7.87894 16.2125 7.91894 16.2725 7.91894C16.3725 7.95894 16.3525 7.95894 16.2125 7.89894C16.3325 7.89894 16.5725 8.07894 16.6725 8.13894C16.8325 8.21894 16.9725 8.31894 17.1125 8.41894C17.3125 8.55894 16.9525 8.27894 17.1525 8.43894C17.2325 8.49894 17.3125 8.57894 17.3725 8.63894C17.4325 8.69894 17.4725 8.73894 17.5325 8.79894C17.5725 8.83894 17.7925 9.05894 17.6125 8.89894C17.7325 8.99894 17.8125 9.19894 17.8925 9.33894C17.9325 9.41894 17.9725 9.47894 18.0125 9.55894C18.1125 9.73894 17.9725 9.41894 18.0325 9.61894C18.0925 9.79894 18.1525 9.95894 18.1725 10.1389C18.1725 10.1589 18.2125 10.4189 18.1725 10.2189C18.1725 10.3189 18.1725 10.4189 18.1925 10.5389C18.1925 10.7189 18.1925 10.8989 18.1725 11.0989C18.1725 11.3589 18.1925 10.9589 18.1725 11.2189C18.1725 11.3189 18.1325 11.4389 18.1125 11.5389C18.0325 11.9189 17.9125 12.2989 17.7725 12.6589C17.4925 13.3789 17.0725 14.0389 16.6725 14.6789C16.5125 14.9389 16.6125 15.2789 16.8725 15.4389C17.1525 15.5989 17.4525 15.4789 17.6325 15.2389L17.6725 15.1789Z" fill="#FF5500"/>
    <path d="M11.5525 18.3399C11.8125 18.2199 12.0525 18.0799 12.2725 17.8999C12.5325 17.6999 12.7925 17.4999 13.0325 17.2799C13.2325 17.0999 13.4325 16.8799 13.6125 16.6799C13.8325 16.4199 14.0325 16.1599 14.1925 15.8599C14.2725 15.7199 14.3325 15.5799 14.4125 15.4399C14.4925 15.2999 14.5525 15.1599 14.6125 15.0199C14.6925 14.8799 14.7325 14.7399 14.7325 14.5799C14.7325 14.4199 14.6925 14.2799 14.6125 14.1399C14.5325 13.9999 14.4325 13.8999 14.2925 13.8199C14.1525 13.7399 14.0125 13.6999 13.8525 13.6999C13.7925 13.6999 13.7325 13.6999 13.6725 13.6999C13.6125 13.6999 13.5525 13.6999 13.4725 13.6999C13.2725 13.7199 13.0725 13.7599 12.8525 13.7999C12.5325 13.8599 12.2125 13.9999 11.9125 14.1399C11.6725 14.2399 11.4525 14.3599 11.2525 14.4999C11.1525 14.5599 11.0525 14.6399 10.9525 14.7199C10.7925 14.8399 10.6125 14.9799 10.4525 15.1199C10.3925 15.1599 10.3325 15.2199 10.2925 15.2599C10.1925 15.3799 10.0925 15.4999 10.0125 15.6399C9.93249 15.7599 9.85249 15.8799 9.77249 15.9999C9.69249 16.1199 9.65249 16.2399 9.65249 16.3799C9.61249 16.5199 9.63249 16.6399 9.65249 16.7799L9.75249 17.0199C9.81249 17.1399 9.91249 17.2399 10.0125 17.2999C10.0725 17.3599 10.1525 17.3999 10.2325 17.4399C10.3525 17.4999 10.4925 17.5399 10.6125 17.5199L10.8725 17.4799C11.0525 17.4399 11.1925 17.3399 11.3125 17.2199C11.3925 17.1199 11.4925 17.0199 11.5925 16.9199C11.6325 16.8799 11.6925 16.8199 11.7325 16.7799C11.7725 16.7399 11.8125 16.6799 11.8725 16.6399C12.0525 16.4399 12.2525 16.2599 12.4525 16.0999L12.2525 16.2599C12.5725 16.0199 12.9325 15.7999 13.3125 15.6399L13.0725 15.7399C13.2125 15.6799 13.3725 15.6199 13.5125 15.5599L13.2925 15.6599C13.4125 15.5999 13.5325 15.5599 13.6725 15.5199C13.7325 15.5199 13.7925 15.4799 13.8525 15.4599C13.9125 15.4399 13.9925 15.4399 14.0525 15.4199L12.9325 14.5599C12.9325 14.5599 12.9325 14.6399 12.9325 14.6799L12.9725 14.4599C12.9525 14.6199 12.9325 14.7799 12.8725 14.9399C12.8125 15.0999 12.7725 15.2399 12.7125 15.3999L12.7925 15.2199C12.6525 15.5799 12.4525 15.9199 12.2325 16.2199L12.3325 16.0799C12.2325 16.2199 12.1125 16.3399 11.9925 16.4799C11.8725 16.6199 11.7325 16.7199 11.6125 16.8199L11.7325 16.7199C11.4725 16.9199 11.1925 17.0999 10.8925 17.2399C10.8125 17.2799 10.7525 17.3399 10.7125 17.3999C10.6525 17.4599 10.6125 17.5399 10.5925 17.6199C10.5725 17.6999 10.5725 17.7799 10.5925 17.8799C10.5925 17.9599 10.6125 18.0399 10.6725 18.1199C10.7525 18.2599 10.8925 18.3799 11.0525 18.3999H11.2125C11.3325 18.4199 11.4325 18.3999 11.5325 18.3399H11.5525Z" fill="#FF5500"/>
    <path d="M40.4127 51.6794C38.7727 38.4594 40.4527 24.8594 45.1927 12.4194C46.5327 8.91935 48.0727 5.43936 49.9927 2.21936L47.7727 1.61936C47.6927 3.99936 47.6127 6.33936 47.3527 8.71936C47.0927 11.0994 46.7327 13.3594 46.3327 15.6594C45.4927 20.3794 44.4127 25.0594 43.5327 29.7794C43.0327 32.4994 42.6727 35.1994 43.1527 37.9394C43.3327 38.9794 44.7127 39.1594 45.3727 38.5194C48.1327 35.8994 49.0327 31.9994 50.5927 28.6594C52.3127 24.9794 54.4127 21.4994 56.8727 18.2794L54.3127 17.9394C54.7527 19.5194 54.6527 21.1394 54.5327 22.7394C54.4127 24.3394 54.3727 26.0194 54.5327 27.6594C54.8327 30.9594 55.5927 34.3794 57.3127 37.2394C58.0527 38.4794 60.2527 37.6594 59.7127 36.2194C58.6127 33.2394 57.5727 30.2794 57.3527 27.0994C57.1327 23.9194 57.9527 20.4194 57.0327 17.1994C56.6727 15.9394 55.1727 15.9394 54.4727 16.8594C52.0927 20.0394 50.0327 23.4594 48.3527 27.0794C47.5527 28.8194 46.8727 30.5994 46.1527 32.3594C45.5127 33.9194 44.7327 35.4594 43.5127 36.6394L45.7327 37.2194C45.3327 35.0194 45.6527 32.7594 46.0527 30.5794C46.4727 28.2394 46.9527 25.8994 47.4127 23.5794C48.3327 18.9194 49.2327 14.2594 49.7727 9.53936C50.0727 6.91936 50.2927 4.23936 50.1927 1.59936C50.1527 0.499357 48.5327 -0.120645 47.9727 0.999355C46.4327 4.09935 44.9327 7.17936 43.6927 10.3994C42.4527 13.6194 41.4327 16.8594 40.6327 20.1794C39.0127 26.7594 38.2327 33.5594 38.3127 40.3394C38.3527 44.1794 38.6927 48.0194 39.2927 51.8194C39.3927 52.4594 40.5327 52.3194 40.4527 51.6594L40.4127 51.6794Z" fill="#FF5500"/>
</svg>