<svg xmlns="http://www.w3.org/2000/svg" width="81" height="23" viewBox="0 0 81 23" fill="none">
    <path d="M13.5766 20.027L13.5366 20.067C13.5366 20.067 13.5566 20.007 13.5966 19.987C13.5966 19.967 13.5966 19.947 13.6166 19.927C13.6166 19.927 13.6166 19.967 13.6166 19.987L13.5766 20.027Z" fill="#FF5500"/>
    <path d="M1.0969 17.0264C2.2369 17.7664 3.37688 18.5064 4.57688 19.1464C5.81688 19.8064 7.09689 20.3664 8.39689 20.8864C9.47689 21.3264 10.5769 21.7464 11.7169 22.0464C12.7969 22.3264 14.1169 22.3864 14.9769 21.5464C16.0169 20.5264 15.6369 19.0664 15.2169 17.8464C14.7769 16.6064 14.2969 15.3864 13.7769 14.1664C12.3569 10.8464 10.6769 7.64638 8.95688 4.46638C9.43688 4.86638 9.8969 5.28638 10.3769 5.68638C13.1969 8.20638 15.8169 10.9264 18.3969 13.7064C19.6969 15.1064 20.9769 16.5264 22.2369 17.9464C23.4569 19.3064 24.6969 20.9464 26.5569 21.4264C27.0369 21.5464 27.6569 21.3464 27.8969 20.8864C28.5169 19.5864 28.6569 18.1864 28.6369 16.7664C28.5769 14.6064 28.3569 12.4664 27.9969 10.3264C28.2169 10.9064 28.4369 11.4864 28.6369 12.0864C28.9969 13.1464 29.3569 14.2064 29.7169 15.2864C29.8969 15.8064 30.0569 16.3264 30.2369 16.8464C30.3769 17.2264 30.5369 17.5864 30.8169 17.8864C31.1569 18.2464 31.5369 18.3664 32.0169 18.4264C32.4169 18.4864 32.8369 18.1664 33.0369 17.8464C33.4369 17.1664 33.7569 16.4464 34.0169 15.7064C34.2169 16.6064 34.4369 17.5264 34.6369 18.4264C34.7769 19.0464 35.4169 19.2664 35.9769 19.1864C36.7969 19.0464 37.2769 18.2864 37.6169 17.5864C37.9769 16.8264 38.3169 16.0864 38.6769 15.3264C38.8969 14.8464 39.1369 14.3664 39.3569 13.8864C39.3569 14.2664 39.3169 14.6464 39.2969 15.0264C39.1769 16.5864 38.9769 18.1264 38.5969 19.6464C38.4569 20.2264 39.3369 20.4664 39.4969 19.8864C39.8969 18.3264 40.2369 16.7664 40.4769 15.1664C40.5969 14.3464 40.6969 13.5264 40.7569 12.6864C40.7969 12.2864 40.8169 11.8864 40.8569 11.4864C40.8969 11.0064 40.9369 10.7464 40.9369 10.2864C40.9569 9.44638 39.7769 9.12639 39.3569 9.86639C38.5769 11.2464 37.8769 12.6664 37.1569 14.0664C36.8769 14.6264 36.5969 15.1664 36.2969 15.7264C35.8969 13.9064 35.5169 12.0664 35.1169 10.2464C35.0169 9.74638 34.4969 9.42638 34.0169 9.40638C33.5569 9.38638 32.9969 9.76638 32.9169 10.2464C32.7169 11.3864 32.5169 12.5264 32.2169 13.6464C32.1369 13.9264 32.0569 14.2064 31.9769 14.4864C31.8769 14.1664 31.7769 13.8664 31.6769 13.5464C30.9769 11.4264 30.2569 9.30638 29.3569 7.26638C28.4769 5.22638 27.3769 3.30638 25.9969 1.56638C25.8369 1.34638 25.4169 1.20639 25.1569 1.22639C24.9369 1.22639 24.7369 1.28637 24.5569 1.38637C24.0769 1.62637 23.8969 2.24639 24.0169 2.72639C24.3369 4.04639 24.6569 5.34637 24.9369 6.66637C25.1969 7.82637 25.4169 9.00638 25.6369 10.1864C25.7369 10.7664 25.8369 11.3464 25.9169 11.9264C25.9169 12.0264 25.9369 12.1064 25.9569 12.2064V12.2464C25.9569 12.3664 25.9969 12.5064 25.9969 12.6264C26.0369 12.9064 26.0569 13.1864 26.0969 13.4664C26.2169 14.6264 26.3169 15.8064 26.3369 16.9664C26.3369 17.2264 26.3369 17.5064 26.3369 17.7664C26.3369 17.9064 26.3369 18.0464 26.3169 18.1864C26.3169 18.2464 26.3169 18.3064 26.3169 18.3464C26.3169 18.3664 26.2569 18.6464 26.3169 18.4464C26.3569 18.2464 26.2969 18.5864 26.2769 18.6264C26.2569 18.6264 26.2369 18.5864 26.2169 18.5664C26.1769 18.5264 26.1369 18.5064 26.0969 18.4664C26.0169 18.3864 25.9169 18.3064 25.8369 18.2264C25.6569 18.0464 25.4769 17.8664 25.3169 17.6864C24.5769 16.9064 23.8769 16.1064 23.1569 15.3064C20.5569 12.4264 17.9369 9.54639 15.1369 6.86639C13.7369 5.52639 12.2969 4.20638 10.7969 2.96638C9.99688 2.30638 9.17691 1.66637 8.35691 1.02637C7.95691 0.726374 7.5769 0.406386 7.0969 0.226386C6.7769 0.106386 6.4369 0.0863732 6.0969 0.166373C5.7169 0.266373 5.45689 0.506377 5.21689 0.826377C4.99689 1.12638 5.03689 1.60638 5.21689 1.92638C6.55689 4.24638 7.8769 6.56639 9.0969 8.94639C10.1969 11.0264 11.2169 13.1464 12.1369 15.3064C12.1569 15.3664 12.1969 15.4464 12.2169 15.4664C12.2369 15.5264 12.2769 15.6064 12.2969 15.6664C12.3569 15.7864 12.3969 15.9064 12.4569 16.0464C12.5569 16.3064 12.6769 16.5664 12.7769 16.8464C12.9969 17.4064 13.1969 17.9664 13.3969 18.5264C13.4969 18.7864 13.5769 19.0264 13.6369 19.3064C13.6569 19.3864 13.6969 19.4864 13.7169 19.5864C13.7169 19.5864 13.7169 19.6264 13.7169 19.6464C13.7169 19.7264 13.7169 19.8064 13.7169 19.8664C13.7169 19.8664 13.7169 19.9064 13.7169 19.9264C13.7169 19.9064 13.7369 19.9064 13.7169 19.9864C13.7169 19.9864 13.7169 19.9864 13.6969 20.0064C13.6969 20.0064 13.6969 20.0264 13.6769 20.0464C13.6769 20.0464 13.6369 20.0664 13.6169 20.0864C13.5769 20.0864 13.5369 20.1064 13.4969 20.1264C13.4969 20.1264 13.5169 20.1264 13.5369 20.1264C13.5369 20.1264 13.5169 20.1264 13.4969 20.1264C13.4969 20.1264 13.4969 20.1264 13.4769 20.1264C13.4169 20.1464 13.3769 20.1264 13.3969 20.1264C13.3369 20.1264 13.2569 20.1264 13.2169 20.1264C13.1169 20.1264 13.0369 20.1264 12.9369 20.1264C12.8969 20.1264 12.8569 20.1264 12.8369 20.1264C12.3369 20.0264 11.8569 19.8664 11.3769 19.7064C10.8369 19.5264 10.2769 19.3264 9.73688 19.1264C9.47688 19.0264 9.1969 18.9264 8.9369 18.8064C8.87689 18.7864 8.79688 18.7464 8.73688 18.7264C8.71688 18.7264 8.67691 18.7064 8.63691 18.6864C8.53691 18.6464 8.43689 18.6064 8.33689 18.5664C6.23689 17.6464 4.1769 16.5864 2.2569 15.3264C1.7969 15.0264 1.19691 15.2464 0.916906 15.6864C0.616906 16.1464 0.836892 16.7464 1.27689 17.0264H1.0969ZM26.1569 18.6464C26.1169 18.6264 26.0969 18.6064 26.0969 18.5864C26.1169 18.5864 26.1369 18.6264 26.1569 18.6264V18.6464ZM6.19691 2.30639C6.19691 2.30639 6.19689 2.30639 6.21689 2.30639H6.19691Z" fill="#FF5500"/>
    <path d="M79.4373 22.045C69.1773 20.405 58.6773 19.845 48.2773 20.125C45.3573 20.205 42.4573 20.365 39.5573 20.625C38.8173 20.685 38.0773 20.305 37.9173 19.525C37.7973 18.845 38.2773 17.945 39.0173 17.885C49.5773 17.105 60.2573 17.285 70.7373 18.885C73.6773 19.325 76.6173 19.825 79.5373 20.405C79.9773 20.485 80.3373 20.805 80.2973 21.285C80.2773 21.705 79.8573 22.125 79.4173 22.045H79.4373Z" fill="#FF5500"/>
</svg>