<svg xmlns="http://www.w3.org/2000/svg" width="650" height="313" viewBox="0 0 650 313" fill="none">
    <path opacity="0.3" d="M241.353 810.801L649.014 317.51L649.017 317.513C638.017 274.266 595.862 205.795 542.958 224.559C523.763 231.368 511.11 247.11 500.313 263.636C497.145 256.439 494.194 249.149 489.979 242.468C472.65 214.991 442.151 193.857 409.278 191.838C391.16 190.727 371.055 195.096 358 208.57C361.511 173.783 358.865 138.179 345.698 105.483C335.014 78.9525 314.479 47.5438 287.956 35.0006C252.962 18.4499 220.544 41.8725 203.81 72.519C190.438 33.9976 158.572 0.695277 113.304 0.0803113C11.7053 -1.29994 -113.494 251.161 -170.879 470.128L241.353 810.801Z" fill="#3F593F"/>
</svg>