<svg xmlns="http://www.w3.org/2000/svg" width="67" height="35" viewBox="0 0 67 35" fill="none">
    <path d="M25.2203 28.9091C26.4203 29.3691 27.6403 29.7891 28.9003 30.0691C30.3403 30.3891 31.7803 30.4291 33.2203 30.2291C36.2603 29.8091 39.0403 28.5691 41.4203 26.6291C43.8003 24.6891 45.5603 22.0491 46.0803 19.0691C46.6803 15.6091 45.9403 12.1491 44.5003 8.96913C43.1803 6.00913 41.0203 3.32912 38.0003 2.02912C34.9803 0.729123 31.6603 0.469124 28.4203 1.06912C22.4603 2.16912 17.0003 6.50913 15.0003 12.2891C14.4803 13.7691 14.3203 15.3691 14.4203 16.9291C14.5003 18.1691 14.7003 19.4291 15.1403 20.6091C16.1203 23.2291 17.8803 25.4091 20.0803 27.1291C20.7803 27.6691 21.5003 28.1891 22.2403 28.6891C23.1203 29.2691 24.5003 28.9091 25.0003 27.9691C25.5203 26.9691 25.2203 25.8291 24.2803 25.2091C23.7603 24.8691 23.2403 24.5291 22.7403 24.1491C22.6203 24.0691 22.3403 23.8091 22.8003 24.1891C22.7003 24.0891 22.5803 24.0091 22.4603 23.9091C22.2403 23.7291 22.0403 23.5491 21.8203 23.3691C21.4603 23.0291 21.1003 22.6891 20.7603 22.3291C20.6203 22.1691 20.4603 22.0091 20.3203 21.8291C20.2403 21.7291 20.1603 21.6291 20.0803 21.5491C20.5203 22.0691 20.2203 21.7091 20.1203 21.5891C19.8603 21.2291 19.6203 20.8691 19.4003 20.4691C19.2803 20.2691 19.1803 20.0691 19.0803 19.8691C19.0403 19.7891 19.0003 19.7091 18.9803 19.6291C18.7803 19.1891 19.1403 20.0291 19.0203 19.7091C18.7003 18.8891 18.4803 18.0491 18.3603 17.1891L18.4403 17.7091C18.3003 16.6891 18.2803 15.6291 18.4203 14.5891L18.3403 15.1091C18.4203 14.5091 18.5603 13.9091 18.7603 13.3291C18.8003 13.1891 18.8603 13.0491 18.9003 12.9291C18.9203 12.8491 18.9603 12.7691 18.9803 12.7091C19.0603 12.5091 18.9003 12.9091 18.9003 12.8891C19.0603 12.6091 19.1803 12.2891 19.3203 12.0091C19.5603 11.5291 19.8403 11.0891 20.1403 10.6491C20.2803 10.4491 20.4203 10.2491 20.5603 10.0491C20.6003 10.0091 20.6403 9.92912 20.6803 9.88912C20.7003 9.88912 20.4003 10.2291 20.5403 10.0691C20.6403 9.94912 20.7403 9.82912 20.8403 9.70912C21.5003 8.92912 22.2203 8.20912 23.0203 7.56912C23.0803 7.52912 23.1203 7.48913 23.1803 7.44913C23.3403 7.32913 22.9803 7.60913 23.0003 7.58913C23.0803 7.48913 23.2203 7.40912 23.3403 7.34912C23.5603 7.18912 23.7603 7.04913 23.9803 6.90913C24.4203 6.62913 24.8603 6.36912 25.3203 6.12912C25.5403 6.00912 25.7603 5.90912 25.9603 5.80912C26.0603 5.74912 26.1803 5.70913 26.2803 5.64913C26.3403 5.62913 26.4003 5.58912 26.4603 5.56912C26.3403 5.60912 26.0603 5.72912 26.3403 5.62912C26.8203 5.42912 27.3203 5.26912 27.8003 5.10912C28.2803 4.94912 28.7603 4.84912 29.2603 4.74912C29.5203 4.68912 29.7603 4.64912 30.0203 4.60912C30.4403 4.54912 29.6603 4.64912 29.9803 4.60912C30.1203 4.60912 30.2603 4.56912 30.4003 4.56912C30.9403 4.50912 31.4603 4.48913 32.0003 4.50913C32.2803 4.50913 32.5603 4.50913 32.8403 4.54913C33.1203 4.58913 33.4003 4.62912 33.6803 4.62912C33.6603 4.62912 33.2003 4.54912 33.5203 4.60912C33.5803 4.60912 33.6403 4.60912 33.6803 4.62912C33.8003 4.64912 33.9403 4.66913 34.0603 4.68913C34.3603 4.74913 34.6403 4.80912 34.9403 4.88912C35.2003 4.94912 35.4403 5.02912 35.7003 5.10912C35.8403 5.14912 35.9803 5.20912 36.1203 5.24912C36.1803 5.24912 36.2203 5.28912 36.2803 5.30912C36.5403 5.40912 36.3403 5.34913 36.2003 5.26913C36.4203 5.40913 36.6803 5.48913 36.9003 5.58913C37.1603 5.72913 37.4203 5.86913 37.6803 6.00913C37.9003 6.14913 38.1203 6.28912 38.3203 6.42912C38.3803 6.46912 38.4403 6.52912 38.5003 6.56912C38.5003 6.56912 38.2203 6.32913 38.3603 6.46913C38.5003 6.58913 38.6203 6.68912 38.7603 6.80912C39.2003 7.20912 39.5803 7.62912 39.9603 8.06912C39.7803 7.82912 40.1603 8.30912 39.9603 8.06912C40.0603 8.18912 40.1403 8.32913 40.2403 8.44913C40.4003 8.68913 40.5603 8.92913 40.7203 9.18913C41.0203 9.68913 41.3003 10.2091 41.5603 10.7291C41.6203 10.8491 41.6803 10.9891 41.7403 11.1091C41.7803 11.2091 41.8603 11.4691 41.9403 11.5491C41.9403 11.5491 41.8203 11.2491 41.8803 11.4291C41.9203 11.5091 41.9403 11.5691 41.9803 11.6491C42.0403 11.7891 42.1003 11.9491 42.1603 12.1091C42.3603 12.6691 42.5603 13.2491 42.7003 13.8291C42.7603 14.1091 42.8403 14.3691 42.8803 14.6491C42.9003 14.7891 42.9403 14.9291 42.9603 15.0691C42.9603 15.1491 42.9803 15.2291 43.0003 15.3091C43.0003 15.3691 43.0603 15.7091 43.0203 15.4491C42.9803 15.2291 43.0203 15.4491 43.0203 15.4691C43.0203 15.5491 43.0203 15.6291 43.0403 15.7091C43.0403 15.8491 43.0603 15.9891 43.0803 16.1291C43.1003 16.4291 43.1203 16.7291 43.1203 17.0291C43.1203 17.3291 43.1203 17.6291 43.0803 17.9091C43.0803 18.0491 43.0603 18.1891 43.0403 18.3291C43.0403 18.3691 43.0403 18.5491 43.0203 18.5691C43.0603 18.5291 43.0603 18.2891 43.0203 18.5091C42.9203 19.0891 42.7803 19.6691 42.6003 20.2291C42.5203 20.4691 42.4403 20.6891 42.3603 20.9291C42.3403 20.9891 42.3203 21.0691 42.2803 21.1091C42.2803 21.0691 42.4203 20.8091 42.3003 21.0491C42.2403 21.1691 42.1803 21.3091 42.1203 21.4291C41.9003 21.8891 41.6403 22.3491 41.3403 22.7691C41.2003 22.9691 41.0603 23.1691 40.9203 23.3691C40.8803 23.4291 40.8403 23.4891 40.8003 23.5291C40.8203 23.4891 40.9603 23.3091 40.8003 23.5091C40.7203 23.6091 40.6203 23.7291 40.5403 23.8291C40.2003 24.2291 39.8403 24.6091 39.4403 24.9691C39.2603 25.1291 39.0803 25.3091 38.8803 25.4691C38.7803 25.5491 38.7003 25.6291 38.6003 25.7091C38.5403 25.7491 38.4803 25.7891 38.4403 25.8491C38.2803 25.9691 38.6603 25.6891 38.3803 25.8891C37.5403 26.5091 36.6603 27.0491 35.7203 27.4891C35.6203 27.5491 35.5003 27.5891 35.3803 27.6291C35.5203 27.5691 35.3803 27.6291 35.3403 27.6291C35.2803 27.6491 35.2203 27.6891 35.1403 27.7091C34.9003 27.8091 34.6603 27.8891 34.4203 27.9691C33.8203 28.1691 33.2003 28.3291 32.5803 28.4691C30.6803 28.8691 28.7203 28.8091 26.8403 28.2091C26.3803 28.0691 25.9203 27.8891 25.4603 27.7291C25.1403 27.6091 24.7803 27.8491 24.7003 28.1691C24.6003 28.5091 24.8203 28.8091 25.1403 28.9291L25.2203 28.9091Z" fill="#FF5500"/>
    <path d="M52.4205 22.69C52.5405 22.05 52.6605 21.39 52.8005 20.75C52.9405 20.11 53.1805 19.49 53.4005 18.87C53.8405 17.63 54.3205 16.39 54.8405 15.17L54.6805 15.53C55.8205 12.87 57.2005 10.29 58.7805 7.86996C59.2205 7.16996 59.6805 6.48996 60.1805 5.82996L59.8605 6.24995C60.0605 6.02995 60.2405 5.78995 60.4405 5.56995C60.7605 5.20995 61.0005 4.88996 61.1005 4.40996C61.1405 4.24996 61.1605 4.10996 61.2005 3.94996C61.3605 3.18996 61.1405 2.40995 60.5205 1.92995C59.9005 1.44995 59.0605 1.38996 58.3805 1.76996C57.8205 2.08996 57.3405 2.42996 57.0205 3.00996C56.8405 3.32996 56.6805 3.62996 56.5005 3.94996C56.1405 4.52996 55.8005 5.12996 55.4605 5.72996C54.7205 7.04996 54.0805 8.40996 53.5005 9.78996C52.4605 12.27 51.5605 14.89 51.0805 17.53C51.0205 17.91 50.9405 18.29 50.8805 18.67C50.8005 19.11 50.7205 19.59 50.6805 20.03C50.6805 19.73 50.6805 19.99 50.6605 20.05C50.6405 20.15 50.6205 20.27 50.6005 20.37C50.5605 20.55 50.5205 20.75 50.4805 20.93C50.4005 21.31 50.3405 21.69 50.2805 22.07C50.2405 22.37 50.2405 22.65 50.4005 22.93C50.5405 23.17 50.8005 23.37 51.0605 23.43C51.6005 23.55 52.3205 23.27 52.4205 22.65V22.69Z" fill="#FF5500"/>
    <path d="M54.3798 22.7091C54.5598 22.6291 54.7598 22.5491 54.9398 22.4491C55.0398 22.3891 55.1398 22.2891 55.2398 22.2091C55.3398 22.1291 55.4198 22.0491 55.4998 21.9691C55.8398 21.6691 56.1798 21.3691 56.5398 21.0891C56.5598 21.0891 56.6998 20.9691 56.5998 21.0291C56.5198 21.0891 56.6398 20.9891 56.6598 20.9891C56.7598 20.9291 56.8398 20.8491 56.9398 20.7891C57.1598 20.6291 57.3998 20.4691 57.5998 20.2891C57.9598 20.0091 58.2998 19.7091 58.6398 19.4091C59.0398 19.0891 59.4398 18.7691 59.8598 18.4491L59.5998 18.6491C60.8798 17.6691 62.1798 16.7291 63.5598 15.8891C63.9398 15.6491 64.3398 15.4091 64.7398 15.1891L64.2598 15.3891C64.2598 15.3891 64.3398 15.3691 64.3798 15.3491C64.5198 15.3091 64.5998 15.2891 64.7598 15.2091C65.0798 15.0691 65.2398 15.0091 65.4998 14.7291C65.5398 14.6891 65.5598 14.6691 65.5998 14.6291L65.1798 14.9491C65.1798 14.9491 65.2398 14.9091 65.2798 14.8891L64.7798 15.0891C64.7798 15.0891 64.8198 15.0891 64.8398 15.0891L64.2998 15.1691H64.3398C64.5198 15.1491 64.6998 15.1291 64.8798 15.0891L65.3598 14.8891L65.7598 14.5691C65.9598 14.3891 66.0998 14.1691 66.1798 13.9291C66.2798 13.7691 66.3198 13.6091 66.3198 13.4291C66.3598 13.2491 66.3598 13.0691 66.3198 12.8891C66.3198 12.7091 66.2798 12.5291 66.1798 12.3891C66.0998 12.1491 65.9598 11.9291 65.7598 11.7491C65.5998 11.6291 65.4598 11.4891 65.2798 11.3891C65.1798 11.3491 65.0998 11.3091 64.9998 11.2691C64.9198 11.2291 64.8198 11.1891 64.7198 11.1491C64.6198 11.1491 64.5198 11.1091 64.3998 11.1091C64.2998 11.1091 64.1998 11.0691 64.0798 11.0691C64.0398 11.0691 63.9998 11.0691 63.9598 11.0691C63.5398 11.1091 63.2198 11.1491 62.8398 11.3691C62.4998 11.5691 62.2398 11.8291 62.0398 12.1691C61.9998 12.2291 61.9598 12.3091 61.9198 12.3691L62.2398 11.9491C61.0398 13.1891 59.8598 14.4491 58.7598 15.7691C58.1398 16.5091 57.5598 17.2491 56.9798 18.0091C56.7198 18.3491 56.4798 18.6891 56.2198 19.0291C55.9598 19.3691 55.7798 19.7491 55.5598 20.1091C55.3198 20.5291 55.0598 20.9291 54.8198 21.3291C54.6998 21.5291 54.5598 21.7291 54.4598 21.9291C54.3598 22.1291 54.3198 22.4291 54.2798 22.6491C54.2798 22.6891 54.3198 22.7291 54.3398 22.7091H54.3798Z" fill="#FF5500"/>
    <path d="M19.9796 33.6699C19.5596 33.2499 19.1196 32.8499 18.6996 32.4499C18.2796 32.0499 17.8796 31.6499 17.4596 31.2699C16.9796 30.8299 16.4596 30.3699 15.8996 30.0299C15.3796 29.7299 14.8596 29.4499 14.3196 29.1899C13.1596 28.6099 11.9196 28.1899 10.6796 27.8499C9.43957 27.5099 8.09958 27.3299 6.77958 27.2099C5.45958 27.0899 4.07958 27.1299 2.71958 27.2499C2.21958 27.2899 1.79956 27.4299 1.41956 27.7899C1.09956 28.1099 0.859582 28.6299 0.879582 29.0899C0.899582 29.5499 1.05956 30.0499 1.41956 30.3899C1.75956 30.6899 2.23958 30.9899 2.71958 30.9299C4.67958 30.6899 6.67956 30.7099 8.63956 30.9499L8.17957 30.8899C8.63957 30.9499 9.09958 31.0099 9.55958 31.0699L9.09958 31.0099C10.5396 31.2099 11.9796 31.5499 13.3796 31.9299C14.0796 32.1299 14.7596 32.3899 15.4596 32.5699C16.1596 32.7499 16.8196 32.9499 17.4996 33.1699C18.2396 33.4299 18.9196 33.7899 19.6196 34.1899C19.9396 34.3699 20.2796 33.9499 20.0196 33.6699H19.9796Z" fill="#FF5500"/>
    <path d="M13.7603 11.1106C14.2203 11.0106 14.6803 10.9906 15.1603 11.0706C15.2403 11.0706 15.3203 11.1106 15.4003 11.1506C15.5603 11.2106 15.6803 11.2506 15.8403 11.2706C15.8003 11.2706 15.9203 11.2706 15.9203 11.2706C15.9803 11.2706 16.0203 11.2706 16.0803 11.2906C16.2003 11.3106 16.3203 11.3306 16.4403 11.3506C16.8803 11.4506 17.3203 11.5706 17.7403 11.7306C17.8403 11.7706 17.9403 11.8106 18.0403 11.8506C18.0603 11.8506 18.0803 11.8706 18.1203 11.8906C18.2003 11.9306 18.0803 11.8906 18.0603 11.8706C18.1003 11.9106 18.2003 11.9306 18.2603 11.9506C18.4603 12.0506 18.6603 12.1306 18.8603 12.2306C19.2803 12.4306 19.6803 12.6706 20.0603 12.9106C20.2603 13.0306 20.4603 13.1506 20.6403 13.2906C20.7403 13.3506 20.8403 13.4306 20.9203 13.4906C20.9603 13.5306 21.0003 13.5506 21.0403 13.5906C20.8803 13.4506 21.1603 13.6906 21.0403 13.5906C21.4003 13.8706 21.7403 14.1906 22.0803 14.5106C22.2403 14.6706 22.4003 14.8506 22.5603 15.0306C22.6403 15.1106 22.7003 15.1906 22.7603 15.2706C22.8003 15.3106 22.8403 15.3706 22.8803 15.4106C22.9003 15.4306 22.9603 15.5306 22.8803 15.4106C22.7803 15.2706 22.8803 15.3906 22.8803 15.4106C23.5403 16.2906 24.1003 17.2706 24.5203 18.2906L24.4003 18.0106C25.0003 19.4306 25.3803 20.9506 25.6003 22.4706L25.5603 22.1306C25.6803 23.0706 25.7403 24.0306 25.7403 24.9906C25.7403 25.7106 26.3603 26.3906 27.1003 26.3506C27.8403 26.3106 28.4803 25.7506 28.4603 24.9906C28.3403 21.7706 27.5803 18.5106 25.8003 15.7906C24.9203 14.4306 23.8403 13.2706 22.5403 12.3306C21.3603 11.4706 19.9803 10.8106 18.5403 10.5506C17.7203 10.4106 16.9003 10.3506 16.0603 10.4106C15.8203 10.4106 15.6203 10.4506 15.4003 10.5506C15.2403 10.6306 15.0803 10.6706 14.9003 10.7106C14.7203 10.7506 14.5403 10.8106 14.3403 10.8706C14.1403 10.9306 13.9403 10.9706 13.7203 11.0306C13.6603 11.0306 13.6803 11.1506 13.7403 11.1306L13.7603 11.1106Z" fill="#FF5500"/>
    <path d="M30.6003 3.47047C30.2603 4.37047 29.9203 5.27047 29.5803 6.17047C29.2403 7.07047 28.9802 7.95047 28.7602 8.85047C28.5402 9.81047 28.4203 10.7905 28.4603 11.7705C28.5003 12.7505 28.6602 13.7905 28.9802 14.7505C29.1602 15.2505 29.3603 15.7705 29.6203 16.2305C29.8803 16.6905 30.2003 17.1105 30.5203 17.5105C31.1203 18.2705 31.8603 18.9105 32.6203 19.5105C34.1203 20.6505 35.9402 21.4105 37.7602 21.8705C39.0002 22.1905 40.2803 22.3905 41.5603 22.5505C42.1403 22.6305 42.7403 22.6305 43.3203 22.6505C43.9003 22.6705 44.5003 22.6905 45.0803 22.6905C46.0003 22.7105 46.8603 21.8705 46.8203 20.9505C46.8003 20.5105 46.6603 20.0305 46.3203 19.7105C45.9603 19.3905 45.5803 19.2505 45.0803 19.2105C44.1203 19.1105 43.1602 19.0105 42.2002 18.8905L42.7002 18.9505C41.9202 18.8505 41.1203 18.7705 40.3403 18.6705L40.8403 18.7305C39.2603 18.5105 37.6803 18.1705 36.2203 17.5505L36.6403 17.7305C35.6003 17.2905 34.6003 16.7305 33.7203 16.0505L34.0603 16.3105C33.4203 15.8105 32.8403 15.2705 32.3603 14.6305L32.6003 14.9505C32.4203 14.7105 32.2603 14.4905 32.0803 14.2505L32.3203 14.5705C31.8803 14.0105 31.5402 13.3905 31.2602 12.7305L31.4003 13.0505C31.1603 12.4505 30.9603 11.8505 30.8403 11.2105C30.8203 11.0705 30.7802 10.9305 30.7602 10.7905C30.7602 10.7105 30.7403 10.6305 30.7203 10.5505C30.7003 10.3905 30.7203 10.5105 30.7203 10.5505C30.7403 10.7305 30.7203 10.5505 30.7203 10.5105C30.7003 10.2905 30.6603 10.0705 30.6203 9.85047C30.6203 9.77047 30.6003 9.69047 30.5803 9.61047C30.5603 9.47047 30.5803 9.59047 30.5803 9.61047C30.6003 9.75047 30.5803 9.59047 30.5803 9.55047C30.4203 8.25047 30.4202 6.93046 30.4802 5.63046C30.5202 4.89046 30.6203 4.17047 30.7203 3.43047C30.7203 3.37047 30.6403 3.37047 30.6203 3.43047L30.6003 3.47047Z" fill="#FF5500"/>
</svg>