<svg xmlns="http://www.w3.org/2000/svg" width="235" height="46" fill="none"><path fill="#3F593F" d="M14.058 45.14H0V3.215h19.753c11.443 0 17.314 6.287 17.314 12.521 0 6.234-5.636 12.172-17.314 12.172h-5.695v17.238-.006Zm3.369-19.563c3.545 0 5.053-4.487 5.053-9.203 0-5.242-1.92-10.833-5.053-10.833h-3.37v20.036h3.37ZM69.017 32.856c0 6.694-6.796 12.869-15.919 12.869-11.85 0-16.614-8.389-16.614-17.179S41.537 9.621 53.8 9.621c8.598 0 12.898 3.317 12.898 7.048 0 5.708-9.995 11.358-14.989 13.802 1.567 2.213 3.605 3.725 6.22 3.725 3.951 0 8.133-2.037 10.57-5.709.348 1.458.525 2.91.525 4.369h-.006Zm-13.77-15.083c0-3.028-1.92-5.301-4.475-5.301-1.973 0-2.733 1.399-2.733 5.065 0 3.258.754 7.515 2.438 10.891 1.92-2.444 4.765-6.93 4.765-10.655h.006ZM71.414 3.215h1.22c4.357 0 8.368-.407 12.143-1.163v8.153H88.9v2.444h-4.123V35.24c0 5.124 2.209 7.048 4.07 7.048v2.273c-1.744.349-2.792.585-4.883.585-8.421 0-12.55-5.939-12.55-11.063V12.654h-1.566V10.21h1.566V3.215Z"/><path fill="#3F593F" d="M121.385 32.856c0 6.694-6.796 12.869-15.919 12.869-11.849 0-16.613-8.389-16.613-17.179s5.053-18.925 17.314-18.925c8.599 0 12.898 3.258 12.898 6.753 0 2.91-3.021 6.116-9.123 7.279-.465-3.436-4.994-11.181-7.668-11.181-1.101 0-1.861 1.399-1.861 5.065 0 6.464 3.021 16.653 9.877 16.653 3.951 0 8.133-2.037 10.571-5.709.347 1.458.524 2.91.524 4.369v.006ZM125.13 1.468c4.358 0 8.369-.407 12.144-1.163v15.667c3.021-4.25 7.497-6.346 11.737-6.346 5.984 0 11.502 4.369 11.502 13.336v22.184h-13.48V24.998c0-6.582-2.327-10.017-4.706-10.017-2.497 0-5.053 3.725-5.053 11.357v18.808h-13.363V1.468h1.219ZM195.361 32.856c0 6.694-6.797 12.869-15.919 12.869-11.849 0-16.614-8.389-16.614-17.179s5.053-18.925 17.315-18.925c8.598 0 12.897 3.317 12.897 7.048 0 5.708-9.994 11.358-14.988 13.802 1.567 2.213 3.604 3.725 6.213 3.725 3.952 0 8.133-2.037 10.572-5.709.347 1.458.524 2.91.524 4.369Zm-13.77-15.083c0-3.028-1.919-5.301-4.475-5.301-1.973 0-2.733 1.399-2.733 5.065 0 3.258.754 7.515 2.438 10.891 1.914-2.444 4.765-6.93 4.765-10.655h.005ZM199.03 10.784c4.358 0 8.368-.408 12.143-1.163v6.346c3.022-4.25 7.498-6.346 11.738-6.346 5.983 0 11.502 4.368 11.502 13.335V45.14h-13.481V24.993c0-6.582-2.326-10.018-4.706-10.018-2.379 0-5.053 3.725-5.053 11.358V45.14h-13.362V10.783h1.219Z"/></svg>