<svg width="185" height="18" viewBox="0 0 185 18" fill="none" xmlns="http://www.w3.org/2000/svg">
    <g opacity="0.5">
        <path d="M2.06175 14C1.54975 10.752 1.02175 7.488 0.44575 4.24H2.01375L3.02175 11.856H3.10175L4.15775 4.64H5.80575L6.89375 11.856H6.97375L7.98175 4.24H9.51775C8.94175 7.488 8.41375 10.752 7.90175 14H6.12575L5.03775 6.944H4.90975L3.83775 14H2.06175ZM13.8624 14.24C12.2464 14.24 10.4064 13.28 10.4064 10.288C10.4064 7.168 12.1344 5.76 13.6224 5.76C15.6064 5.76 16.2944 7.488 16.2944 9.344C16.2944 9.712 16.2784 9.984 16.2464 10.288H11.9264C11.9584 12.368 12.9824 13.04 13.9744 13.04C14.6784 13.04 15.1904 12.928 15.7184 12.656V13.856C15.2384 14.08 14.5984 14.24 13.8624 14.24ZM11.9584 9.44L14.9024 9.36C14.8704 7.92 14.5184 6.96 13.6064 6.96C12.9344 6.96 12.1344 7.6 11.9584 9.44ZM21.5928 14.24C20.7608 14.24 19.9448 13.68 19.4488 12.224L19.3368 14H17.9608C18.0408 12.288 18.0408 10.576 18.0408 8.848C18.0408 7.312 18.0408 5.776 17.9608 4.24H19.4808V7.712C19.8008 6.448 20.6008 5.76 21.6088 5.76C22.9368 5.76 23.9608 6.896 23.9608 10C23.9608 13.104 22.9368 14.24 21.5928 14.24ZM21.0008 12.928C21.8168 12.928 22.4568 12.32 22.4568 10C22.4568 7.68 21.8008 7.072 21.0008 7.072C20.1528 7.072 19.4808 7.872 19.4808 9.28V11.504C19.9448 12.624 20.4568 12.928 21.0008 12.928ZM27.6483 14.24C26.7363 14.24 26.1763 14.128 25.6163 13.968V12.64C26.2563 12.864 26.7523 13.008 27.5363 13.008C28.3203 13.008 28.8003 12.688 28.8003 12.08C28.8003 10.368 25.4083 10.576 25.4083 7.904C25.4083 6.496 26.3683 5.76 27.8883 5.76C28.7203 5.76 29.2483 5.888 29.7603 6.048V7.36C29.1523 7.136 28.7043 6.992 28.0003 6.992C27.2643 6.992 26.8483 7.328 26.8483 7.904C26.8483 9.52 30.2243 9.312 30.2243 12.08C30.2243 13.472 29.2003 14.24 27.6483 14.24ZM31.8983 14C31.9783 12.864 31.9783 11.696 31.9783 10.56C31.9783 9.36 31.9783 8.176 31.8983 6.96C32.1863 6.992 32.4103 7.008 32.6983 7.008C33.0023 7.008 33.2263 6.992 33.4983 6.96C33.4183 8.176 33.4183 9.36 33.4183 10.56C33.4183 11.696 33.4183 12.864 33.4983 14H31.8983ZM32.7143 6C32.1383 6 31.8023 5.648 31.8023 5.072C31.8023 4.496 32.1383 4.16 32.7143 4.16C33.2903 4.16 33.6263 4.512 33.6263 5.072C33.6263 5.648 33.2903 6 32.7143 6ZM37.7004 14.24C36.5644 14.24 35.8924 13.536 35.8924 12.096V7.184L34.9964 7.216V6.16C35.7164 6.16 36.6924 5.728 37.2524 4.8H37.3164V6.048C37.7644 6.032 38.2284 6.032 38.6764 6V7.216L37.3164 7.184V12.016C37.3164 12.736 37.6044 13.04 38.0684 13.04C38.2764 13.04 38.4684 13.008 38.6764 12.896V14.096C38.3884 14.192 38.1164 14.24 37.7004 14.24ZM43.4405 14.24C41.8245 14.24 39.9845 13.28 39.9845 10.288C39.9845 7.168 41.7125 5.76 43.2005 5.76C45.1845 5.76 45.8725 7.488 45.8725 9.344C45.8725 9.712 45.8565 9.984 45.8245 10.288H41.5045C41.5365 12.368 42.5605 13.04 43.5525 13.04C44.2565 13.04 44.7685 12.928 45.2965 12.656V13.856C44.8165 14.08 44.1765 14.24 43.4405 14.24ZM41.5365 9.44L44.4805 9.36C44.4485 7.92 44.0965 6.96 43.1845 6.96C42.5125 6.96 41.7125 7.6 41.5365 9.44ZM53.9521 14.24C53.1201 14.24 52.3041 13.68 51.8081 12.224L51.6961 14H50.3201C50.4001 12.288 50.4001 10.576 50.4001 8.848C50.4001 7.312 50.4001 5.776 50.3201 4.24H51.8401V7.712C52.1601 6.448 52.9601 5.76 53.9681 5.76C55.2961 5.76 56.3201 6.896 56.3201 10C56.3201 13.104 55.2961 14.24 53.9521 14.24ZM53.3601 12.928C54.1761 12.928 54.8161 12.32 54.8161 10C54.8161 7.68 54.1601 7.072 53.3601 7.072C52.5121 7.072 51.8401 7.872 51.8401 9.28V11.504C52.3041 12.624 52.8161 12.928 53.3601 12.928ZM59.1288 16.16C58.6488 16.16 58.4088 16.128 58.1368 16.08V14.816C58.3768 14.864 58.5688 14.88 58.7928 14.88C59.3528 14.88 59.6248 14.704 59.8488 14.256C59.0807 11.504 58.2648 8.768 57.4488 6H59.0328L60.5368 12.048H60.6328L61.9288 6H63.4328L61.6248 13.328C61.2728 14.8 60.7448 16.16 59.1288 16.16ZM100.976 14C101.056 12.336 101.056 10.704 101.056 9.04C101.056 7.44 101.056 5.824 100.976 4.24H105.936V5.776C104.848 5.696 103.968 5.68 102.576 5.68V8.64C103.472 8.64 104.512 8.624 105.328 8.592V9.792C104.496 9.76 103.472 9.744 102.576 9.728V11.456C102.576 12.304 102.592 13.152 102.624 14H100.976ZM107.539 14C107.619 12.704 107.619 11.392 107.619 10.096C107.619 8.736 107.619 7.376 107.539 6H108.883L108.979 7.84C109.251 6.528 110.051 5.76 110.851 5.76C111.027 5.76 111.187 5.776 111.331 5.824V7.504C110.883 7.376 110.691 7.36 110.387 7.36C109.347 7.36 109.059 8.032 109.059 9.04V14H107.539ZM112.93 14C113.01 12.864 113.01 11.696 113.01 10.56C113.01 9.36 113.01 8.176 112.93 6.96C113.218 6.992 113.442 7.008 113.73 7.008C114.034 7.008 114.258 6.992 114.53 6.96C114.45 8.176 114.45 9.36 114.45 10.56C114.45 11.696 114.45 12.864 114.53 14H112.93ZM113.746 6C113.17 6 112.834 5.648 112.834 5.072C112.834 4.496 113.17 4.16 113.746 4.16C114.322 4.16 114.658 4.512 114.658 5.072C114.658 5.648 114.322 6 113.746 6ZM119.644 14.24C118.028 14.24 116.188 13.28 116.188 10.288C116.188 7.168 117.916 5.76 119.404 5.76C121.388 5.76 122.076 7.488 122.076 9.344C122.076 9.712 122.06 9.984 122.028 10.288H117.708C117.74 12.368 118.764 13.04 119.756 13.04C120.46 13.04 120.972 12.928 121.5 12.656V13.856C121.02 14.08 120.38 14.24 119.644 14.24ZM117.74 9.44L120.684 9.36C120.652 7.92 120.3 6.96 119.388 6.96C118.716 6.96 117.916 7.6 117.74 9.44ZM123.742 14C123.822 12.704 123.822 11.392 123.822 10.096C123.822 8.736 123.822 7.376 123.742 6H125.134L125.214 7.68C125.502 6.464 126.254 5.76 127.374 5.76C128.654 5.76 129.422 6.528 129.422 8.72V11.712C129.422 12.496 129.454 13.264 129.502 14H127.918C127.966 13.264 127.998 12.496 127.998 11.712V8.864C127.998 7.584 127.454 7.072 126.67 7.072C125.87 7.072 125.262 7.664 125.262 8.896V11.712C125.262 12.496 125.278 13.264 125.342 14H123.742ZM133.478 14.24C132.15 14.24 131.11 13.104 131.11 10C131.11 6.896 132.15 5.76 133.494 5.76C134.294 5.76 135.11 6.304 135.606 7.696V4.24H137.11C137.03 5.776 137.03 7.312 137.03 8.848C137.03 10.576 137.03 12.288 137.11 14H135.75L135.638 12.192C135.302 13.52 134.518 14.24 133.478 14.24ZM134.086 12.928C134.918 12.928 135.606 12.128 135.606 10.72V8.496C135.141 7.376 134.63 7.072 134.086 7.072C133.27 7.072 132.63 7.68 132.63 10C132.63 12.32 133.27 12.928 134.086 12.928ZM140.509 14C139.885 11.328 139.229 8.672 138.525 6H140.061L141.485 12.656H141.581L143.053 6H144.541C143.853 8.672 143.197 11.328 142.573 14H140.509ZM149.034 14.24C147.418 14.24 145.578 13.28 145.578 10.288C145.578 7.168 147.306 5.76 148.794 5.76C150.778 5.76 151.466 7.488 151.466 9.344C151.466 9.712 151.45 9.984 151.418 10.288H147.098C147.13 12.368 148.154 13.04 149.146 13.04C149.85 13.04 150.362 12.928 150.89 12.656V13.856C150.41 14.08 149.77 14.24 149.034 14.24ZM147.13 9.44L150.074 9.36C150.042 7.92 149.69 6.96 148.778 6.96C148.106 6.96 147.306 7.6 147.13 9.44ZM153.133 14C153.213 12.704 153.213 11.392 153.213 10.096C153.213 8.736 153.213 7.376 153.133 6H154.525L154.605 7.68C154.893 6.464 155.645 5.76 156.765 5.76C158.045 5.76 158.813 6.528 158.813 8.72V11.712C158.813 12.496 158.845 13.264 158.893 14H157.309C157.357 13.264 157.389 12.496 157.389 11.712V8.864C157.389 7.584 156.845 7.072 156.061 7.072C155.261 7.072 154.653 7.664 154.653 8.896V11.712C154.653 12.496 154.669 13.264 154.733 14H153.133ZM163.029 14.24C161.893 14.24 161.221 13.536 161.221 12.096V7.184L160.325 7.216V6.16C161.045 6.16 162.021 5.728 162.581 4.8H162.645V6.048C163.093 6.032 163.557 6.032 164.005 6V7.216L162.645 7.184V12.016C162.645 12.736 162.933 13.04 163.397 13.04C163.605 13.04 163.797 13.008 164.005 12.896V14.096C163.717 14.192 163.445 14.24 163.029 14.24ZM167.728 14.24C166.448 14.24 165.664 13.472 165.664 11.28V8.288C165.664 7.504 165.648 6.736 165.584 6H167.184C167.12 6.736 167.104 7.504 167.104 8.288V11.136C167.104 12.416 167.648 12.928 168.416 12.928C169.216 12.928 169.84 12.336 169.84 11.104V8.288C169.84 7.504 169.808 6.736 169.76 6H171.344C171.264 7.296 171.264 8.608 171.264 9.904C171.264 11.264 171.264 12.624 171.344 14H169.968L169.888 12.32C169.6 13.536 168.848 14.24 167.728 14.24ZM173.351 14C173.431 12.704 173.431 11.392 173.431 10.096C173.431 8.736 173.431 7.376 173.351 6H174.695L174.791 7.84C175.063 6.528 175.863 5.76 176.663 5.76C176.839 5.76 176.999 5.776 177.143 5.824V7.504C176.695 7.376 176.503 7.36 176.199 7.36C175.159 7.36 174.871 8.032 174.871 9.04V14H173.351ZM181.8 14.24C180.184 14.24 178.344 13.28 178.344 10.288C178.344 7.168 180.072 5.76 181.56 5.76C183.544 5.76 184.232 7.488 184.232 9.344C184.232 9.712 184.216 9.984 184.184 10.288H179.864C179.896 12.368 180.92 13.04 181.912 13.04C182.616 13.04 183.128 12.928 183.656 12.656V13.856C183.176 14.08 182.536 14.24 181.8 14.24ZM179.896 9.44L182.84 9.36C182.808 7.92 182.456 6.96 181.544 6.96C180.872 6.96 180.072 7.6 179.896 9.44Z" fill="#2F4027"/>
        <path fill-rule="evenodd" clip-rule="evenodd" d="M97.366 0.5L93.1562 6.02315L88.9462 0.5H83.3337L90.3505 9.70263L87.4535 13.5043L77.5377 0.5H71.9277L84.8862 17.5L97.9277 0.5H97.366Z" fill="#2F4027"/>
    </g>
</svg>
